G04 #@! TF.GenerationSoftware,KiCad,Pcbnew,(5.1.4)-1*
G04 #@! TF.CreationDate,2021-01-30T01:06:02-06:00*
G04 #@! TF.ProjectId,65Numpad,36354e75-6d70-4616-942e-6b696361645f,rev?*
G04 #@! TF.SameCoordinates,Original*
G04 #@! TF.FileFunction,Legend,Top*
G04 #@! TF.FilePolarity,Positive*
%FSLAX46Y46*%
G04 Gerber Fmt 4.6, Leading zero omitted, Abs format (unit mm)*
G04 Created by KiCad (PCBNEW (5.1.4)-1) date 2021-01-30 01:06:02*
%MOMM*%
%LPD*%
G04 APERTURE LIST*
%ADD10C,0.120000*%
%ADD11C,0.150000*%
%ADD12C,0.381000*%
G04 APERTURE END LIST*
D10*
X322109750Y-58482500D02*
X323797750Y-58482500D01*
X322109750Y-57722500D02*
X322109750Y-58482500D01*
X323797750Y-57722500D02*
X322109750Y-57722500D01*
X322109750Y-61022500D02*
X323797750Y-61022500D01*
X322109750Y-60262500D02*
X322109750Y-61022500D01*
X323797750Y-60262500D02*
X322109750Y-60262500D01*
X322103750Y-63562500D02*
X323791750Y-63562500D01*
X323791750Y-55182500D02*
X322103750Y-55182500D01*
X323791750Y-55602500D02*
X322103750Y-55602500D01*
X323791750Y-55482500D02*
X322103750Y-55482500D01*
X323791750Y-55362500D02*
X322103750Y-55362500D01*
X322103750Y-55182500D02*
X322103750Y-55942500D01*
X323791750Y-55842500D02*
X322103750Y-55842500D01*
X322103750Y-62802500D02*
X322103750Y-63562500D01*
X323791750Y-55722500D02*
X322103750Y-55722500D01*
X323791750Y-62802500D02*
X322103750Y-62802500D01*
X322103750Y-55942500D02*
X323791750Y-55942500D01*
X323791750Y-55242500D02*
X322103750Y-55242500D01*
D11*
X323143750Y-56062500D02*
X323143750Y-55062500D01*
X323143750Y-49932500D02*
X323143750Y-68932500D01*
X320843750Y-49932500D02*
X320843750Y-50732500D01*
X319143750Y-48932500D02*
X320143750Y-48932500D01*
X320143750Y-48932500D02*
X320143750Y-49932500D01*
X320143750Y-49932500D02*
X320843750Y-49932500D01*
X320843750Y-50732500D02*
X322143750Y-50732500D01*
X322143750Y-50732500D02*
X322143750Y-49932500D01*
X322143750Y-49932500D02*
X323143750Y-49932500D01*
X322143750Y-68932500D02*
X323143750Y-68932500D01*
X322143750Y-68132500D02*
X322143750Y-68932500D01*
X320843750Y-68132500D02*
X322143750Y-68132500D01*
X320843750Y-68932500D02*
X320843750Y-68132500D01*
X320143750Y-68932500D02*
X320843750Y-68932500D01*
X320143750Y-69932500D02*
X320143750Y-68932500D01*
X319143750Y-69932500D02*
X320143750Y-69932500D01*
X319143750Y-48932500D02*
X319143750Y-69932500D01*
D10*
X412902750Y-58482500D02*
X411214750Y-58482500D01*
X412902750Y-57722500D02*
X412902750Y-58482500D01*
X411214750Y-57722500D02*
X412902750Y-57722500D01*
X412902750Y-61022500D02*
X411214750Y-61022500D01*
X412902750Y-60262500D02*
X412902750Y-61022500D01*
X411214750Y-60262500D02*
X412902750Y-60262500D01*
X412908750Y-63562500D02*
X411220750Y-63562500D01*
X411220750Y-55182500D02*
X412908750Y-55182500D01*
X411220750Y-55602500D02*
X412908750Y-55602500D01*
X411220750Y-55482500D02*
X412908750Y-55482500D01*
X411220750Y-55362500D02*
X412908750Y-55362500D01*
X412908750Y-55182500D02*
X412908750Y-55942500D01*
X411220750Y-55842500D02*
X412908750Y-55842500D01*
X412908750Y-62802500D02*
X412908750Y-63562500D01*
X411220750Y-55722500D02*
X412908750Y-55722500D01*
X411220750Y-62802500D02*
X412908750Y-62802500D01*
X412908750Y-55942500D02*
X411220750Y-55942500D01*
X411220750Y-55242500D02*
X412908750Y-55242500D01*
D11*
X411868750Y-56062500D02*
X411868750Y-55062500D01*
X411868750Y-49932500D02*
X411868750Y-68932500D01*
X414168750Y-49932500D02*
X414168750Y-50732500D01*
X415868750Y-48932500D02*
X414868750Y-48932500D01*
X414868750Y-48932500D02*
X414868750Y-49932500D01*
X414868750Y-49932500D02*
X414168750Y-49932500D01*
X414168750Y-50732500D02*
X412868750Y-50732500D01*
X412868750Y-50732500D02*
X412868750Y-49932500D01*
X412868750Y-49932500D02*
X411868750Y-49932500D01*
X412868750Y-68932500D02*
X411868750Y-68932500D01*
X412868750Y-68132500D02*
X412868750Y-68932500D01*
X414168750Y-68132500D02*
X412868750Y-68132500D01*
X414168750Y-68932500D02*
X414168750Y-68132500D01*
X414868750Y-68932500D02*
X414168750Y-68932500D01*
X414868750Y-69932500D02*
X414868750Y-68932500D01*
X415868750Y-69932500D02*
X414868750Y-69932500D01*
X415868750Y-48932500D02*
X415868750Y-69932500D01*
X401081250Y-127937500D02*
X403081250Y-127937500D01*
X403081250Y-127937500D02*
X403081250Y-129937500D01*
X401081250Y-141937500D02*
X403081250Y-141937500D01*
X403081250Y-141937500D02*
X403081250Y-139937500D01*
X389081250Y-139937500D02*
X389081250Y-141937500D01*
X389081250Y-141937500D02*
X391081250Y-141937500D01*
X391081250Y-127937500D02*
X389081250Y-127937500D01*
X389081250Y-127937500D02*
X389081250Y-129937500D01*
X401081250Y-108887500D02*
X403081250Y-108887500D01*
X403081250Y-108887500D02*
X403081250Y-110887500D01*
X401081250Y-122887500D02*
X403081250Y-122887500D01*
X403081250Y-122887500D02*
X403081250Y-120887500D01*
X389081250Y-120887500D02*
X389081250Y-122887500D01*
X389081250Y-122887500D02*
X391081250Y-122887500D01*
X391081250Y-108887500D02*
X389081250Y-108887500D01*
X389081250Y-108887500D02*
X389081250Y-110887500D01*
X362981250Y-70787500D02*
X364981250Y-70787500D01*
X364981250Y-70787500D02*
X364981250Y-72787500D01*
X362981250Y-84787500D02*
X364981250Y-84787500D01*
X364981250Y-84787500D02*
X364981250Y-82787500D01*
X350981250Y-82787500D02*
X350981250Y-84787500D01*
X350981250Y-84787500D02*
X352981250Y-84787500D01*
X352981250Y-70787500D02*
X350981250Y-70787500D01*
X350981250Y-70787500D02*
X350981250Y-72787500D01*
X362981250Y-108887500D02*
X364981250Y-108887500D01*
X364981250Y-108887500D02*
X364981250Y-110887500D01*
X362981250Y-122887500D02*
X364981250Y-122887500D01*
X364981250Y-122887500D02*
X364981250Y-120887500D01*
X350981250Y-120887500D02*
X350981250Y-122887500D01*
X350981250Y-122887500D02*
X352981250Y-122887500D01*
X352981250Y-108887500D02*
X350981250Y-108887500D01*
X350981250Y-108887500D02*
X350981250Y-110887500D01*
X401081250Y-51737500D02*
X403081250Y-51737500D01*
X403081250Y-51737500D02*
X403081250Y-53737500D01*
X401081250Y-65737500D02*
X403081250Y-65737500D01*
X403081250Y-65737500D02*
X403081250Y-63737500D01*
X389081250Y-63737500D02*
X389081250Y-65737500D01*
X389081250Y-65737500D02*
X391081250Y-65737500D01*
X391081250Y-51737500D02*
X389081250Y-51737500D01*
X389081250Y-51737500D02*
X389081250Y-53737500D01*
X382031250Y-70787500D02*
X384031250Y-70787500D01*
X384031250Y-70787500D02*
X384031250Y-72787500D01*
X382031250Y-84787500D02*
X384031250Y-84787500D01*
X384031250Y-84787500D02*
X384031250Y-82787500D01*
X370031250Y-82787500D02*
X370031250Y-84787500D01*
X370031250Y-84787500D02*
X372031250Y-84787500D01*
X372031250Y-70787500D02*
X370031250Y-70787500D01*
X370031250Y-70787500D02*
X370031250Y-72787500D01*
X362981250Y-89837500D02*
X364981250Y-89837500D01*
X364981250Y-89837500D02*
X364981250Y-91837500D01*
X362981250Y-103837500D02*
X364981250Y-103837500D01*
X364981250Y-103837500D02*
X364981250Y-101837500D01*
X350981250Y-101837500D02*
X350981250Y-103837500D01*
X350981250Y-103837500D02*
X352981250Y-103837500D01*
X352981250Y-89837500D02*
X350981250Y-89837500D01*
X350981250Y-89837500D02*
X350981250Y-91837500D01*
X343931250Y-89837500D02*
X345931250Y-89837500D01*
X345931250Y-89837500D02*
X345931250Y-91837500D01*
X343931250Y-103837500D02*
X345931250Y-103837500D01*
X345931250Y-103837500D02*
X345931250Y-101837500D01*
X331931250Y-101837500D02*
X331931250Y-103837500D01*
X331931250Y-103837500D02*
X333931250Y-103837500D01*
X333931250Y-89837500D02*
X331931250Y-89837500D01*
X331931250Y-89837500D02*
X331931250Y-91837500D01*
X382031250Y-108887500D02*
X384031250Y-108887500D01*
X384031250Y-108887500D02*
X384031250Y-110887500D01*
X382031250Y-122887500D02*
X384031250Y-122887500D01*
X384031250Y-122887500D02*
X384031250Y-120887500D01*
X370031250Y-120887500D02*
X370031250Y-122887500D01*
X370031250Y-122887500D02*
X372031250Y-122887500D01*
X372031250Y-108887500D02*
X370031250Y-108887500D01*
X370031250Y-108887500D02*
X370031250Y-110887500D01*
X362981250Y-127937500D02*
X364981250Y-127937500D01*
X364981250Y-127937500D02*
X364981250Y-129937500D01*
X362981250Y-141937500D02*
X364981250Y-141937500D01*
X364981250Y-141937500D02*
X364981250Y-139937500D01*
X350981250Y-139937500D02*
X350981250Y-141937500D01*
X350981250Y-141937500D02*
X352981250Y-141937500D01*
X352981250Y-127937500D02*
X350981250Y-127937500D01*
X350981250Y-127937500D02*
X350981250Y-129937500D01*
X343931250Y-127937500D02*
X345931250Y-127937500D01*
X345931250Y-127937500D02*
X345931250Y-129937500D01*
X343931250Y-141937500D02*
X345931250Y-141937500D01*
X345931250Y-141937500D02*
X345931250Y-139937500D01*
X331931250Y-139937500D02*
X331931250Y-141937500D01*
X331931250Y-141937500D02*
X333931250Y-141937500D01*
X333931250Y-127937500D02*
X331931250Y-127937500D01*
X331931250Y-127937500D02*
X331931250Y-129937500D01*
X401081250Y-70787500D02*
X403081250Y-70787500D01*
X403081250Y-70787500D02*
X403081250Y-72787500D01*
X401081250Y-84787500D02*
X403081250Y-84787500D01*
X403081250Y-84787500D02*
X403081250Y-82787500D01*
X389081250Y-82787500D02*
X389081250Y-84787500D01*
X389081250Y-84787500D02*
X391081250Y-84787500D01*
X391081250Y-70787500D02*
X389081250Y-70787500D01*
X389081250Y-70787500D02*
X389081250Y-72787500D01*
X401081250Y-89837500D02*
X403081250Y-89837500D01*
X403081250Y-89837500D02*
X403081250Y-91837500D01*
X401081250Y-103837500D02*
X403081250Y-103837500D01*
X403081250Y-103837500D02*
X403081250Y-101837500D01*
X389081250Y-101837500D02*
X389081250Y-103837500D01*
X389081250Y-103837500D02*
X391081250Y-103837500D01*
X391081250Y-89837500D02*
X389081250Y-89837500D01*
X389081250Y-89837500D02*
X389081250Y-91837500D01*
X382031250Y-127937500D02*
X384031250Y-127937500D01*
X384031250Y-127937500D02*
X384031250Y-129937500D01*
X382031250Y-141937500D02*
X384031250Y-141937500D01*
X384031250Y-141937500D02*
X384031250Y-139937500D01*
X370031250Y-139937500D02*
X370031250Y-141937500D01*
X370031250Y-141937500D02*
X372031250Y-141937500D01*
X372031250Y-127937500D02*
X370031250Y-127937500D01*
X370031250Y-127937500D02*
X370031250Y-129937500D01*
D12*
X351631250Y-50641250D02*
X349091250Y-50641250D01*
X349091250Y-48101250D02*
X349091250Y-50641250D01*
X366871250Y-48101250D02*
X349091250Y-48101250D01*
X366871250Y-50641250D02*
X366871250Y-48101250D01*
D11*
G36*
X362912818Y-57120610D02*
G01*
X362912818Y-57320610D01*
X362812818Y-57320610D01*
X362812818Y-57120610D01*
X362912818Y-57120610D01*
G37*
X362912818Y-57120610D02*
X362912818Y-57320610D01*
X362812818Y-57320610D01*
X362812818Y-57120610D01*
X362912818Y-57120610D01*
G36*
X362512818Y-56520610D02*
G01*
X362512818Y-57320610D01*
X362412818Y-57320610D01*
X362412818Y-56520610D01*
X362512818Y-56520610D01*
G37*
X362512818Y-56520610D02*
X362512818Y-57320610D01*
X362412818Y-57320610D01*
X362412818Y-56520610D01*
X362512818Y-56520610D01*
G36*
X362912818Y-56520610D02*
G01*
X362912818Y-56620610D01*
X362412818Y-56620610D01*
X362412818Y-56520610D01*
X362912818Y-56520610D01*
G37*
X362912818Y-56520610D02*
X362912818Y-56620610D01*
X362412818Y-56620610D01*
X362412818Y-56520610D01*
X362912818Y-56520610D01*
G36*
X362712818Y-56920610D02*
G01*
X362712818Y-57020610D01*
X362612818Y-57020610D01*
X362612818Y-56920610D01*
X362712818Y-56920610D01*
G37*
X362712818Y-56920610D02*
X362712818Y-57020610D01*
X362612818Y-57020610D01*
X362612818Y-56920610D01*
X362712818Y-56920610D01*
G36*
X362912818Y-56520610D02*
G01*
X362912818Y-56820610D01*
X362812818Y-56820610D01*
X362812818Y-56520610D01*
X362912818Y-56520610D01*
G37*
X362912818Y-56520610D02*
X362912818Y-56820610D01*
X362812818Y-56820610D01*
X362812818Y-56520610D01*
X362912818Y-56520610D01*
D12*
X351631250Y-53181250D02*
X349091250Y-53181250D01*
X351631250Y-50641250D02*
X351631250Y-53181250D01*
X366871250Y-81121250D02*
X366871250Y-50641250D01*
X349091250Y-81121250D02*
X366871250Y-81121250D01*
X349091250Y-50641250D02*
X349091250Y-81121250D01*
D11*
X362981250Y-51737500D02*
X364981250Y-51737500D01*
X364981250Y-51737500D02*
X364981250Y-53737500D01*
X362981250Y-65737500D02*
X364981250Y-65737500D01*
X364981250Y-65737500D02*
X364981250Y-63737500D01*
X350981250Y-63737500D02*
X350981250Y-65737500D01*
X350981250Y-65737500D02*
X352981250Y-65737500D01*
X352981250Y-51737500D02*
X350981250Y-51737500D01*
X350981250Y-51737500D02*
X350981250Y-53737500D01*
X382031250Y-89837500D02*
X384031250Y-89837500D01*
X384031250Y-89837500D02*
X384031250Y-91837500D01*
X382031250Y-103837500D02*
X384031250Y-103837500D01*
X384031250Y-103837500D02*
X384031250Y-101837500D01*
X370031250Y-101837500D02*
X370031250Y-103837500D01*
X370031250Y-103837500D02*
X372031250Y-103837500D01*
X372031250Y-89837500D02*
X370031250Y-89837500D01*
X370031250Y-89837500D02*
X370031250Y-91837500D01*
X343931250Y-51737500D02*
X345931250Y-51737500D01*
X345931250Y-51737500D02*
X345931250Y-53737500D01*
X343931250Y-65737500D02*
X345931250Y-65737500D01*
X345931250Y-65737500D02*
X345931250Y-63737500D01*
X331931250Y-63737500D02*
X331931250Y-65737500D01*
X331931250Y-65737500D02*
X333931250Y-65737500D01*
X333931250Y-51737500D02*
X331931250Y-51737500D01*
X331931250Y-51737500D02*
X331931250Y-53737500D01*
X343931250Y-70787500D02*
X345931250Y-70787500D01*
X345931250Y-70787500D02*
X345931250Y-72787500D01*
X343931250Y-84787500D02*
X345931250Y-84787500D01*
X345931250Y-84787500D02*
X345931250Y-82787500D01*
X331931250Y-82787500D02*
X331931250Y-84787500D01*
X331931250Y-84787500D02*
X333931250Y-84787500D01*
X333931250Y-70787500D02*
X331931250Y-70787500D01*
X331931250Y-70787500D02*
X331931250Y-72787500D01*
X391556250Y-127937500D02*
X393556250Y-127937500D01*
X393556250Y-127937500D02*
X393556250Y-129937500D01*
X391556250Y-141937500D02*
X393556250Y-141937500D01*
X393556250Y-141937500D02*
X393556250Y-139937500D01*
X379556250Y-139937500D02*
X379556250Y-141937500D01*
X379556250Y-141937500D02*
X381556250Y-141937500D01*
X381556250Y-127937500D02*
X379556250Y-127937500D01*
X379556250Y-127937500D02*
X379556250Y-129937500D01*
X343931250Y-108887500D02*
X345931250Y-108887500D01*
X345931250Y-108887500D02*
X345931250Y-110887500D01*
X343931250Y-122887500D02*
X345931250Y-122887500D01*
X345931250Y-122887500D02*
X345931250Y-120887500D01*
X331931250Y-120887500D02*
X331931250Y-122887500D01*
X331931250Y-122887500D02*
X333931250Y-122887500D01*
X333931250Y-108887500D02*
X331931250Y-108887500D01*
X331931250Y-108887500D02*
X331931250Y-110887500D01*
X353456250Y-127937500D02*
X355456250Y-127937500D01*
X355456250Y-127937500D02*
X355456250Y-129937500D01*
X353456250Y-141937500D02*
X355456250Y-141937500D01*
X355456250Y-141937500D02*
X355456250Y-139937500D01*
X341456250Y-139937500D02*
X341456250Y-141937500D01*
X341456250Y-141937500D02*
X343456250Y-141937500D01*
X343456250Y-127937500D02*
X341456250Y-127937500D01*
X341456250Y-127937500D02*
X341456250Y-129937500D01*
X382031250Y-51737500D02*
X384031250Y-51737500D01*
X384031250Y-51737500D02*
X384031250Y-53737500D01*
X382031250Y-65737500D02*
X384031250Y-65737500D01*
X384031250Y-65737500D02*
X384031250Y-63737500D01*
X370031250Y-63737500D02*
X370031250Y-65737500D01*
X370031250Y-65737500D02*
X372031250Y-65737500D01*
X372031250Y-51737500D02*
X370031250Y-51737500D01*
X370031250Y-51737500D02*
X370031250Y-53737500D01*
X343931250Y-118412500D02*
X345931250Y-118412500D01*
X345931250Y-118412500D02*
X345931250Y-120412500D01*
X343931250Y-132412500D02*
X345931250Y-132412500D01*
X345931250Y-132412500D02*
X345931250Y-130412500D01*
X331931250Y-130412500D02*
X331931250Y-132412500D01*
X331931250Y-132412500D02*
X333931250Y-132412500D01*
X333931250Y-118412500D02*
X331931250Y-118412500D01*
X331931250Y-118412500D02*
X331931250Y-120412500D01*
X343931250Y-80312500D02*
X345931250Y-80312500D01*
X345931250Y-80312500D02*
X345931250Y-82312500D01*
X343931250Y-94312500D02*
X345931250Y-94312500D01*
X345931250Y-94312500D02*
X345931250Y-92312500D01*
X331931250Y-92312500D02*
X331931250Y-94312500D01*
X331931250Y-94312500D02*
X333931250Y-94312500D01*
X333931250Y-80312500D02*
X331931250Y-80312500D01*
X331931250Y-80312500D02*
X331931250Y-82312500D01*
X401081250Y-80312500D02*
X403081250Y-80312500D01*
X403081250Y-80312500D02*
X403081250Y-82312500D01*
X401081250Y-94312500D02*
X403081250Y-94312500D01*
X403081250Y-94312500D02*
X403081250Y-92312500D01*
X389081250Y-92312500D02*
X389081250Y-94312500D01*
X389081250Y-94312500D02*
X391081250Y-94312500D01*
X391081250Y-80312500D02*
X389081250Y-80312500D01*
X389081250Y-80312500D02*
X389081250Y-82312500D01*
X401081250Y-118412500D02*
X403081250Y-118412500D01*
X403081250Y-118412500D02*
X403081250Y-120412500D01*
X401081250Y-132412500D02*
X403081250Y-132412500D01*
X403081250Y-132412500D02*
X403081250Y-130412500D01*
X389081250Y-130412500D02*
X389081250Y-132412500D01*
X389081250Y-132412500D02*
X391081250Y-132412500D01*
X391081250Y-118412500D02*
X389081250Y-118412500D01*
X389081250Y-118412500D02*
X389081250Y-120412500D01*
X327477380Y-61816964D02*
X326477380Y-61816964D01*
X326477380Y-61436011D01*
X326525000Y-61340773D01*
X326572619Y-61293154D01*
X326667857Y-61245535D01*
X326810714Y-61245535D01*
X326905952Y-61293154D01*
X326953571Y-61340773D01*
X327001190Y-61436011D01*
X327001190Y-61816964D01*
X326477380Y-60626488D02*
X326477380Y-60436011D01*
X326525000Y-60340773D01*
X326620238Y-60245535D01*
X326810714Y-60197916D01*
X327144047Y-60197916D01*
X327334523Y-60245535D01*
X327429761Y-60340773D01*
X327477380Y-60436011D01*
X327477380Y-60626488D01*
X327429761Y-60721726D01*
X327334523Y-60816964D01*
X327144047Y-60864583D01*
X326810714Y-60864583D01*
X326620238Y-60816964D01*
X326525000Y-60721726D01*
X326477380Y-60626488D01*
X326525000Y-59245535D02*
X326477380Y-59340773D01*
X326477380Y-59483630D01*
X326525000Y-59626488D01*
X326620238Y-59721726D01*
X326715476Y-59769345D01*
X326905952Y-59816964D01*
X327048809Y-59816964D01*
X327239285Y-59769345D01*
X327334523Y-59721726D01*
X327429761Y-59626488D01*
X327477380Y-59483630D01*
X327477380Y-59388392D01*
X327429761Y-59245535D01*
X327382142Y-59197916D01*
X327048809Y-59197916D01*
X327048809Y-59388392D01*
X326477380Y-58578869D02*
X326477380Y-58388392D01*
X326525000Y-58293154D01*
X326620238Y-58197916D01*
X326810714Y-58150297D01*
X327144047Y-58150297D01*
X327334523Y-58197916D01*
X327429761Y-58293154D01*
X327477380Y-58388392D01*
X327477380Y-58578869D01*
X327429761Y-58674107D01*
X327334523Y-58769345D01*
X327144047Y-58816964D01*
X326810714Y-58816964D01*
X326620238Y-58769345D01*
X326525000Y-58674107D01*
X326477380Y-58578869D01*
X326477380Y-57816964D02*
X326477380Y-57197916D01*
X326858333Y-57531250D01*
X326858333Y-57388392D01*
X326905952Y-57293154D01*
X326953571Y-57245535D01*
X327048809Y-57197916D01*
X327286904Y-57197916D01*
X327382142Y-57245535D01*
X327429761Y-57293154D01*
X327477380Y-57388392D01*
X327477380Y-57674107D01*
X327429761Y-57769345D01*
X327382142Y-57816964D01*
X408439880Y-61816964D02*
X407439880Y-61816964D01*
X407439880Y-61436011D01*
X407487500Y-61340773D01*
X407535119Y-61293154D01*
X407630357Y-61245535D01*
X407773214Y-61245535D01*
X407868452Y-61293154D01*
X407916071Y-61340773D01*
X407963690Y-61436011D01*
X407963690Y-61816964D01*
X407439880Y-60626488D02*
X407439880Y-60436011D01*
X407487500Y-60340773D01*
X407582738Y-60245535D01*
X407773214Y-60197916D01*
X408106547Y-60197916D01*
X408297023Y-60245535D01*
X408392261Y-60340773D01*
X408439880Y-60436011D01*
X408439880Y-60626488D01*
X408392261Y-60721726D01*
X408297023Y-60816964D01*
X408106547Y-60864583D01*
X407773214Y-60864583D01*
X407582738Y-60816964D01*
X407487500Y-60721726D01*
X407439880Y-60626488D01*
X407487500Y-59245535D02*
X407439880Y-59340773D01*
X407439880Y-59483630D01*
X407487500Y-59626488D01*
X407582738Y-59721726D01*
X407677976Y-59769345D01*
X407868452Y-59816964D01*
X408011309Y-59816964D01*
X408201785Y-59769345D01*
X408297023Y-59721726D01*
X408392261Y-59626488D01*
X408439880Y-59483630D01*
X408439880Y-59388392D01*
X408392261Y-59245535D01*
X408344642Y-59197916D01*
X408011309Y-59197916D01*
X408011309Y-59388392D01*
X407439880Y-58578869D02*
X407439880Y-58388392D01*
X407487500Y-58293154D01*
X407582738Y-58197916D01*
X407773214Y-58150297D01*
X408106547Y-58150297D01*
X408297023Y-58197916D01*
X408392261Y-58293154D01*
X408439880Y-58388392D01*
X408439880Y-58578869D01*
X408392261Y-58674107D01*
X408297023Y-58769345D01*
X408106547Y-58816964D01*
X407773214Y-58816964D01*
X407582738Y-58769345D01*
X407487500Y-58674107D01*
X407439880Y-58578869D01*
X407773214Y-57293154D02*
X408439880Y-57293154D01*
X407392261Y-57531250D02*
X408106547Y-57769345D01*
X408106547Y-57150297D01*
X363181036Y-57285059D02*
X363295322Y-57323154D01*
X363485798Y-57323154D01*
X363561989Y-57285059D01*
X363600084Y-57246964D01*
X363638179Y-57170773D01*
X363638179Y-57094583D01*
X363600084Y-57018392D01*
X363561989Y-56980297D01*
X363485798Y-56942202D01*
X363333417Y-56904107D01*
X363257227Y-56866011D01*
X363219131Y-56827916D01*
X363181036Y-56751726D01*
X363181036Y-56675535D01*
X363219131Y-56599345D01*
X363257227Y-56561250D01*
X363333417Y-56523154D01*
X363523893Y-56523154D01*
X363638179Y-56561250D01*
X363866750Y-56523154D02*
X364323893Y-56523154D01*
X364095322Y-57323154D02*
X364095322Y-56523154D01*
X351910726Y-56591250D02*
X351834535Y-56553154D01*
X351720250Y-56553154D01*
X351605964Y-56591250D01*
X351529773Y-56667440D01*
X351491678Y-56743630D01*
X351453583Y-56896011D01*
X351453583Y-57010297D01*
X351491678Y-57162678D01*
X351529773Y-57238869D01*
X351605964Y-57315059D01*
X351720250Y-57353154D01*
X351796440Y-57353154D01*
X351910726Y-57315059D01*
X351948821Y-57276964D01*
X351948821Y-57010297D01*
X351796440Y-57010297D01*
X352291678Y-57353154D02*
X352291678Y-56553154D01*
X352748821Y-57353154D01*
X352748821Y-56553154D01*
X353129773Y-57353154D02*
X353129773Y-56553154D01*
X353320250Y-56553154D01*
X353434535Y-56591250D01*
X353510726Y-56667440D01*
X353548821Y-56743630D01*
X353586916Y-56896011D01*
X353586916Y-57010297D01*
X353548821Y-57162678D01*
X353510726Y-57238869D01*
X353434535Y-57315059D01*
X353320250Y-57353154D01*
X353129773Y-57353154D01*
X363118440Y-77254107D02*
X363232726Y-77292202D01*
X363270821Y-77330297D01*
X363308916Y-77406488D01*
X363308916Y-77520773D01*
X363270821Y-77596964D01*
X363232726Y-77635059D01*
X363156535Y-77673154D01*
X362851773Y-77673154D01*
X362851773Y-76873154D01*
X363118440Y-76873154D01*
X363194630Y-76911250D01*
X363232726Y-76949345D01*
X363270821Y-77025535D01*
X363270821Y-77101726D01*
X363232726Y-77177916D01*
X363194630Y-77216011D01*
X363118440Y-77254107D01*
X362851773Y-77254107D01*
X363613678Y-76949345D02*
X363651773Y-76911250D01*
X363727964Y-76873154D01*
X363918440Y-76873154D01*
X363994630Y-76911250D01*
X364032726Y-76949345D01*
X364070821Y-77025535D01*
X364070821Y-77101726D01*
X364032726Y-77216011D01*
X363575583Y-77673154D01*
X364070821Y-77673154D01*
X363175583Y-69634107D02*
X362908916Y-69634107D01*
X362908916Y-70053154D02*
X362908916Y-69253154D01*
X363289869Y-69253154D01*
X363518440Y-69253154D02*
X364051773Y-69253154D01*
X363708916Y-70053154D01*
X363175583Y-67094107D02*
X362908916Y-67094107D01*
X362908916Y-67513154D02*
X362908916Y-66713154D01*
X363289869Y-66713154D01*
X363937488Y-66713154D02*
X363785107Y-66713154D01*
X363708916Y-66751250D01*
X363670821Y-66789345D01*
X363594630Y-66903630D01*
X363556535Y-67056011D01*
X363556535Y-67360773D01*
X363594630Y-67436964D01*
X363632726Y-67475059D01*
X363708916Y-67513154D01*
X363861297Y-67513154D01*
X363937488Y-67475059D01*
X363975583Y-67436964D01*
X364013678Y-67360773D01*
X364013678Y-67170297D01*
X363975583Y-67094107D01*
X363937488Y-67056011D01*
X363861297Y-67017916D01*
X363708916Y-67017916D01*
X363632726Y-67056011D01*
X363594630Y-67094107D01*
X363556535Y-67170297D01*
X363175583Y-64554107D02*
X362908916Y-64554107D01*
X362908916Y-64973154D02*
X362908916Y-64173154D01*
X363289869Y-64173154D01*
X363975583Y-64173154D02*
X363594630Y-64173154D01*
X363556535Y-64554107D01*
X363594630Y-64516011D01*
X363670821Y-64477916D01*
X363861297Y-64477916D01*
X363937488Y-64516011D01*
X363975583Y-64554107D01*
X364013678Y-64630297D01*
X364013678Y-64820773D01*
X363975583Y-64896964D01*
X363937488Y-64935059D01*
X363861297Y-64973154D01*
X363670821Y-64973154D01*
X363594630Y-64935059D01*
X363556535Y-64896964D01*
X363181036Y-57285059D02*
X363295322Y-57323154D01*
X363485798Y-57323154D01*
X363561989Y-57285059D01*
X363600084Y-57246964D01*
X363638179Y-57170773D01*
X363638179Y-57094583D01*
X363600084Y-57018392D01*
X363561989Y-56980297D01*
X363485798Y-56942202D01*
X363333417Y-56904107D01*
X363257227Y-56866011D01*
X363219131Y-56827916D01*
X363181036Y-56751726D01*
X363181036Y-56675535D01*
X363219131Y-56599345D01*
X363257227Y-56561250D01*
X363333417Y-56523154D01*
X363523893Y-56523154D01*
X363638179Y-56561250D01*
X363866750Y-56523154D02*
X364323893Y-56523154D01*
X364095322Y-57323154D02*
X364095322Y-56523154D01*
X362832726Y-54051250D02*
X362756535Y-54013154D01*
X362642250Y-54013154D01*
X362527964Y-54051250D01*
X362451773Y-54127440D01*
X362413678Y-54203630D01*
X362375583Y-54356011D01*
X362375583Y-54470297D01*
X362413678Y-54622678D01*
X362451773Y-54698869D01*
X362527964Y-54775059D01*
X362642250Y-54813154D01*
X362718440Y-54813154D01*
X362832726Y-54775059D01*
X362870821Y-54736964D01*
X362870821Y-54470297D01*
X362718440Y-54470297D01*
X363213678Y-54813154D02*
X363213678Y-54013154D01*
X363670821Y-54813154D01*
X363670821Y-54013154D01*
X364051773Y-54813154D02*
X364051773Y-54013154D01*
X364242250Y-54013154D01*
X364356535Y-54051250D01*
X364432726Y-54127440D01*
X364470821Y-54203630D01*
X364508916Y-54356011D01*
X364508916Y-54470297D01*
X364470821Y-54622678D01*
X364432726Y-54698869D01*
X364356535Y-54775059D01*
X364242250Y-54813154D01*
X364051773Y-54813154D01*
X363175583Y-64554107D02*
X362908916Y-64554107D01*
X362908916Y-64973154D02*
X362908916Y-64173154D01*
X363289869Y-64173154D01*
X363975583Y-64173154D02*
X363594630Y-64173154D01*
X363556535Y-64554107D01*
X363594630Y-64516011D01*
X363670821Y-64477916D01*
X363861297Y-64477916D01*
X363937488Y-64516011D01*
X363975583Y-64554107D01*
X364013678Y-64630297D01*
X364013678Y-64820773D01*
X363975583Y-64896964D01*
X363937488Y-64935059D01*
X363861297Y-64973154D01*
X363670821Y-64973154D01*
X363594630Y-64935059D01*
X363556535Y-64896964D01*
X363175583Y-67094107D02*
X362908916Y-67094107D01*
X362908916Y-67513154D02*
X362908916Y-66713154D01*
X363289869Y-66713154D01*
X363937488Y-66713154D02*
X363785107Y-66713154D01*
X363708916Y-66751250D01*
X363670821Y-66789345D01*
X363594630Y-66903630D01*
X363556535Y-67056011D01*
X363556535Y-67360773D01*
X363594630Y-67436964D01*
X363632726Y-67475059D01*
X363708916Y-67513154D01*
X363861297Y-67513154D01*
X363937488Y-67475059D01*
X363975583Y-67436964D01*
X364013678Y-67360773D01*
X364013678Y-67170297D01*
X363975583Y-67094107D01*
X363937488Y-67056011D01*
X363861297Y-67017916D01*
X363708916Y-67017916D01*
X363632726Y-67056011D01*
X363594630Y-67094107D01*
X363556535Y-67170297D01*
X363175583Y-69634107D02*
X362908916Y-69634107D01*
X362908916Y-70053154D02*
X362908916Y-69253154D01*
X363289869Y-69253154D01*
X363518440Y-69253154D02*
X364051773Y-69253154D01*
X363708916Y-70053154D01*
X363118440Y-77254107D02*
X363232726Y-77292202D01*
X363270821Y-77330297D01*
X363308916Y-77406488D01*
X363308916Y-77520773D01*
X363270821Y-77596964D01*
X363232726Y-77635059D01*
X363156535Y-77673154D01*
X362851773Y-77673154D01*
X362851773Y-76873154D01*
X363118440Y-76873154D01*
X363194630Y-76911250D01*
X363232726Y-76949345D01*
X363270821Y-77025535D01*
X363270821Y-77101726D01*
X363232726Y-77177916D01*
X363194630Y-77216011D01*
X363118440Y-77254107D01*
X362851773Y-77254107D01*
X363613678Y-76949345D02*
X363651773Y-76911250D01*
X363727964Y-76873154D01*
X363918440Y-76873154D01*
X363994630Y-76911250D01*
X364032726Y-76949345D01*
X364070821Y-77025535D01*
X364070821Y-77101726D01*
X364032726Y-77216011D01*
X363575583Y-77673154D01*
X364070821Y-77673154D01*
M02*
