G04 #@! TF.GenerationSoftware,KiCad,Pcbnew,(5.99.0-8711-gbabda304d9)*
G04 #@! TF.CreationDate,2021-01-31T05:22:19-06:00*
G04 #@! TF.ProjectId,65NumpadHATCHED,36354e75-6d70-4616-9448-415443484544,rev?*
G04 #@! TF.SameCoordinates,Original*
G04 #@! TF.FileFunction,Legend,Bot*
G04 #@! TF.FilePolarity,Positive*
%FSLAX46Y46*%
G04 Gerber Fmt 4.6, Leading zero omitted, Abs format (unit mm)*
G04 Created by KiCad (PCBNEW (5.99.0-8711-gbabda304d9)) date 2021-01-31 05:22:19*
%MOMM*%
%LPD*%
G01*
G04 APERTURE LIST*
%ADD10C,0.150000*%
%ADD11C,0.381000*%
%ADD12C,0.120000*%
%ADD13R,1.752600X1.752600*%
%ADD14C,1.752600*%
G04 APERTURE END LIST*
D10*
X348145059Y-77254107D02*
X348030773Y-77292202D01*
X347992678Y-77330297D01*
X347954583Y-77406488D01*
X347954583Y-77520773D01*
X347992678Y-77596964D01*
X348030773Y-77635059D01*
X348106964Y-77673154D01*
X348411726Y-77673154D01*
X348411726Y-76873154D01*
X348145059Y-76873154D01*
X348068869Y-76911250D01*
X348030773Y-76949345D01*
X347992678Y-77025535D01*
X347992678Y-77101726D01*
X348030773Y-77177916D01*
X348068869Y-77216011D01*
X348145059Y-77254107D01*
X348411726Y-77254107D01*
X347268869Y-77139821D02*
X347268869Y-77673154D01*
X347459345Y-76835059D02*
X347649821Y-77406488D01*
X347154583Y-77406488D01*
X347922773Y-59131250D02*
X347998964Y-59093154D01*
X348113250Y-59093154D01*
X348227535Y-59131250D01*
X348303726Y-59207440D01*
X348341821Y-59283630D01*
X348379916Y-59436011D01*
X348379916Y-59550297D01*
X348341821Y-59702678D01*
X348303726Y-59778869D01*
X348227535Y-59855059D01*
X348113250Y-59893154D01*
X348037059Y-59893154D01*
X347922773Y-59855059D01*
X347884678Y-59816964D01*
X347884678Y-59550297D01*
X348037059Y-59550297D01*
X347541821Y-59893154D02*
X347541821Y-59093154D01*
X347084678Y-59893154D01*
X347084678Y-59093154D01*
X346703726Y-59893154D02*
X346703726Y-59093154D01*
X346513250Y-59093154D01*
X346398964Y-59131250D01*
X346322773Y-59207440D01*
X346284678Y-59283630D01*
X346246583Y-59436011D01*
X346246583Y-59550297D01*
X346284678Y-59702678D01*
X346322773Y-59778869D01*
X346398964Y-59855059D01*
X346513250Y-59893154D01*
X346703726Y-59893154D01*
X348411726Y-67513154D02*
X348411726Y-66713154D01*
X348221250Y-66713154D01*
X348106964Y-66751250D01*
X348030773Y-66827440D01*
X347992678Y-66903630D01*
X347954583Y-67056011D01*
X347954583Y-67170297D01*
X347992678Y-67322678D01*
X348030773Y-67398869D01*
X348106964Y-67475059D01*
X348221250Y-67513154D01*
X348411726Y-67513154D01*
X347268869Y-66979821D02*
X347268869Y-67513154D01*
X347459345Y-66675059D02*
X347649821Y-67246488D01*
X347154583Y-67246488D01*
X348411726Y-64973154D02*
X348411726Y-64173154D01*
X348221250Y-64173154D01*
X348106964Y-64211250D01*
X348030773Y-64287440D01*
X347992678Y-64363630D01*
X347954583Y-64516011D01*
X347954583Y-64630297D01*
X347992678Y-64782678D01*
X348030773Y-64858869D01*
X348106964Y-64935059D01*
X348221250Y-64973154D01*
X348411726Y-64973154D01*
X347459345Y-64173154D02*
X347383154Y-64173154D01*
X347306964Y-64211250D01*
X347268869Y-64249345D01*
X347230773Y-64325535D01*
X347192678Y-64477916D01*
X347192678Y-64668392D01*
X347230773Y-64820773D01*
X347268869Y-64896964D01*
X347306964Y-64935059D01*
X347383154Y-64973154D01*
X347459345Y-64973154D01*
X347535535Y-64935059D01*
X347573630Y-64896964D01*
X347611726Y-64820773D01*
X347649821Y-64668392D01*
X347649821Y-64477916D01*
X347611726Y-64325535D01*
X347573630Y-64249345D01*
X347535535Y-64211250D01*
X347459345Y-64173154D01*
X368407916Y-62014107D02*
X368674583Y-62014107D01*
X368674583Y-62433154D02*
X368674583Y-61633154D01*
X368293630Y-61633154D01*
X367646011Y-61899821D02*
X367646011Y-62433154D01*
X367836488Y-61595059D02*
X368026964Y-62166488D01*
X367531726Y-62166488D01*
X369715916Y-59093154D02*
X369449250Y-59893154D01*
X369182583Y-59093154D01*
X368458773Y-59816964D02*
X368496869Y-59855059D01*
X368611154Y-59893154D01*
X368687345Y-59893154D01*
X368801630Y-59855059D01*
X368877821Y-59778869D01*
X368915916Y-59702678D01*
X368954011Y-59550297D01*
X368954011Y-59436011D01*
X368915916Y-59283630D01*
X368877821Y-59207440D01*
X368801630Y-59131250D01*
X368687345Y-59093154D01*
X368611154Y-59093154D01*
X368496869Y-59131250D01*
X368458773Y-59169345D01*
X367658773Y-59816964D02*
X367696869Y-59855059D01*
X367811154Y-59893154D01*
X367887345Y-59893154D01*
X368001630Y-59855059D01*
X368077821Y-59778869D01*
X368115916Y-59702678D01*
X368154011Y-59550297D01*
X368154011Y-59436011D01*
X368115916Y-59283630D01*
X368077821Y-59207440D01*
X368001630Y-59131250D01*
X367887345Y-59093154D01*
X367811154Y-59093154D01*
X367696869Y-59131250D01*
X367658773Y-59169345D01*
X348411726Y-72593154D02*
X348411726Y-71793154D01*
X348221250Y-71793154D01*
X348106964Y-71831250D01*
X348030773Y-71907440D01*
X347992678Y-71983630D01*
X347954583Y-72136011D01*
X347954583Y-72250297D01*
X347992678Y-72402678D01*
X348030773Y-72478869D01*
X348106964Y-72555059D01*
X348221250Y-72593154D01*
X348411726Y-72593154D01*
X347687916Y-71793154D02*
X347154583Y-71793154D01*
X347497440Y-72593154D01*
X368465059Y-79794107D02*
X368350773Y-79832202D01*
X368312678Y-79870297D01*
X368274583Y-79946488D01*
X368274583Y-80060773D01*
X368312678Y-80136964D01*
X368350773Y-80175059D01*
X368426964Y-80213154D01*
X368731726Y-80213154D01*
X368731726Y-79413154D01*
X368465059Y-79413154D01*
X368388869Y-79451250D01*
X368350773Y-79489345D01*
X368312678Y-79565535D01*
X368312678Y-79641726D01*
X368350773Y-79717916D01*
X368388869Y-79756011D01*
X368465059Y-79794107D01*
X368731726Y-79794107D01*
X367588869Y-79413154D02*
X367741250Y-79413154D01*
X367817440Y-79451250D01*
X367855535Y-79489345D01*
X367931726Y-79603630D01*
X367969821Y-79756011D01*
X367969821Y-80060773D01*
X367931726Y-80136964D01*
X367893630Y-80175059D01*
X367817440Y-80213154D01*
X367665059Y-80213154D01*
X367588869Y-80175059D01*
X367550773Y-80136964D01*
X367512678Y-80060773D01*
X367512678Y-79870297D01*
X367550773Y-79794107D01*
X367588869Y-79756011D01*
X367665059Y-79717916D01*
X367817440Y-79717916D01*
X367893630Y-79756011D01*
X367931726Y-79794107D01*
X367969821Y-79870297D01*
X348411726Y-64973154D02*
X348411726Y-64173154D01*
X348221250Y-64173154D01*
X348106964Y-64211250D01*
X348030773Y-64287440D01*
X347992678Y-64363630D01*
X347954583Y-64516011D01*
X347954583Y-64630297D01*
X347992678Y-64782678D01*
X348030773Y-64858869D01*
X348106964Y-64935059D01*
X348221250Y-64973154D01*
X348411726Y-64973154D01*
X347459345Y-64173154D02*
X347383154Y-64173154D01*
X347306964Y-64211250D01*
X347268869Y-64249345D01*
X347230773Y-64325535D01*
X347192678Y-64477916D01*
X347192678Y-64668392D01*
X347230773Y-64820773D01*
X347268869Y-64896964D01*
X347306964Y-64935059D01*
X347383154Y-64973154D01*
X347459345Y-64973154D01*
X347535535Y-64935059D01*
X347573630Y-64896964D01*
X347611726Y-64820773D01*
X347649821Y-64668392D01*
X347649821Y-64477916D01*
X347611726Y-64325535D01*
X347573630Y-64249345D01*
X347535535Y-64211250D01*
X347459345Y-64173154D01*
X368407916Y-62014107D02*
X368674583Y-62014107D01*
X368674583Y-62433154D02*
X368674583Y-61633154D01*
X368293630Y-61633154D01*
X367646011Y-61899821D02*
X367646011Y-62433154D01*
X367836488Y-61595059D02*
X368026964Y-62166488D01*
X367531726Y-62166488D01*
X368465059Y-72174107D02*
X368350773Y-72212202D01*
X368312678Y-72250297D01*
X368274583Y-72326488D01*
X368274583Y-72440773D01*
X368312678Y-72516964D01*
X368350773Y-72555059D01*
X368426964Y-72593154D01*
X368731726Y-72593154D01*
X368731726Y-71793154D01*
X368465059Y-71793154D01*
X368388869Y-71831250D01*
X368350773Y-71869345D01*
X368312678Y-71945535D01*
X368312678Y-72021726D01*
X368350773Y-72097916D01*
X368388869Y-72136011D01*
X368465059Y-72174107D01*
X368731726Y-72174107D01*
X367512678Y-72593154D02*
X367969821Y-72593154D01*
X367741250Y-72593154D02*
X367741250Y-71793154D01*
X367817440Y-71907440D01*
X367893630Y-71983630D01*
X367969821Y-72021726D01*
X369715916Y-59093154D02*
X369449250Y-59893154D01*
X369182583Y-59093154D01*
X368458773Y-59816964D02*
X368496869Y-59855059D01*
X368611154Y-59893154D01*
X368687345Y-59893154D01*
X368801630Y-59855059D01*
X368877821Y-59778869D01*
X368915916Y-59702678D01*
X368954011Y-59550297D01*
X368954011Y-59436011D01*
X368915916Y-59283630D01*
X368877821Y-59207440D01*
X368801630Y-59131250D01*
X368687345Y-59093154D01*
X368611154Y-59093154D01*
X368496869Y-59131250D01*
X368458773Y-59169345D01*
X367658773Y-59816964D02*
X367696869Y-59855059D01*
X367811154Y-59893154D01*
X367887345Y-59893154D01*
X368001630Y-59855059D01*
X368077821Y-59778869D01*
X368115916Y-59702678D01*
X368154011Y-59550297D01*
X368154011Y-59436011D01*
X368115916Y-59283630D01*
X368077821Y-59207440D01*
X368001630Y-59131250D01*
X367887345Y-59093154D01*
X367811154Y-59093154D01*
X367696869Y-59131250D01*
X367658773Y-59169345D01*
X348145059Y-79794107D02*
X348030773Y-79832202D01*
X347992678Y-79870297D01*
X347954583Y-79946488D01*
X347954583Y-80060773D01*
X347992678Y-80136964D01*
X348030773Y-80175059D01*
X348106964Y-80213154D01*
X348411726Y-80213154D01*
X348411726Y-79413154D01*
X348145059Y-79413154D01*
X348068869Y-79451250D01*
X348030773Y-79489345D01*
X347992678Y-79565535D01*
X347992678Y-79641726D01*
X348030773Y-79717916D01*
X348068869Y-79756011D01*
X348145059Y-79794107D01*
X348411726Y-79794107D01*
X347230773Y-79413154D02*
X347611726Y-79413154D01*
X347649821Y-79794107D01*
X347611726Y-79756011D01*
X347535535Y-79717916D01*
X347345059Y-79717916D01*
X347268869Y-79756011D01*
X347230773Y-79794107D01*
X347192678Y-79870297D01*
X347192678Y-80060773D01*
X347230773Y-80136964D01*
X347268869Y-80175059D01*
X347345059Y-80213154D01*
X347535535Y-80213154D01*
X347611726Y-80175059D01*
X347649821Y-80136964D01*
X348411726Y-54813154D02*
X348411726Y-54013154D01*
X348221250Y-54013154D01*
X348106964Y-54051250D01*
X348030773Y-54127440D01*
X347992678Y-54203630D01*
X347954583Y-54356011D01*
X347954583Y-54470297D01*
X347992678Y-54622678D01*
X348030773Y-54698869D01*
X348106964Y-54775059D01*
X348221250Y-54813154D01*
X348411726Y-54813154D01*
X347649821Y-54089345D02*
X347611726Y-54051250D01*
X347535535Y-54013154D01*
X347345059Y-54013154D01*
X347268869Y-54051250D01*
X347230773Y-54089345D01*
X347192678Y-54165535D01*
X347192678Y-54241726D01*
X347230773Y-54356011D01*
X347687916Y-54813154D01*
X347192678Y-54813154D01*
X369201630Y-52273154D02*
X369468297Y-51892202D01*
X369658773Y-52273154D02*
X369658773Y-51473154D01*
X369354011Y-51473154D01*
X369277821Y-51511250D01*
X369239726Y-51549345D01*
X369201630Y-51625535D01*
X369201630Y-51739821D01*
X369239726Y-51816011D01*
X369277821Y-51854107D01*
X369354011Y-51892202D01*
X369658773Y-51892202D01*
X368896869Y-52044583D02*
X368515916Y-52044583D01*
X368973059Y-52273154D02*
X368706392Y-51473154D01*
X368439726Y-52273154D01*
X368249250Y-51473154D02*
X368058773Y-52273154D01*
X367906392Y-51701726D01*
X367754011Y-52273154D01*
X367563535Y-51473154D01*
X348411726Y-72593154D02*
X348411726Y-71793154D01*
X348221250Y-71793154D01*
X348106964Y-71831250D01*
X348030773Y-71907440D01*
X347992678Y-71983630D01*
X347954583Y-72136011D01*
X347954583Y-72250297D01*
X347992678Y-72402678D01*
X348030773Y-72478869D01*
X348106964Y-72555059D01*
X348221250Y-72593154D01*
X348411726Y-72593154D01*
X347687916Y-71793154D02*
X347154583Y-71793154D01*
X347497440Y-72593154D01*
X368465059Y-79794107D02*
X368350773Y-79832202D01*
X368312678Y-79870297D01*
X368274583Y-79946488D01*
X368274583Y-80060773D01*
X368312678Y-80136964D01*
X368350773Y-80175059D01*
X368426964Y-80213154D01*
X368731726Y-80213154D01*
X368731726Y-79413154D01*
X368465059Y-79413154D01*
X368388869Y-79451250D01*
X368350773Y-79489345D01*
X368312678Y-79565535D01*
X368312678Y-79641726D01*
X368350773Y-79717916D01*
X368388869Y-79756011D01*
X368465059Y-79794107D01*
X368731726Y-79794107D01*
X367588869Y-79413154D02*
X367741250Y-79413154D01*
X367817440Y-79451250D01*
X367855535Y-79489345D01*
X367931726Y-79603630D01*
X367969821Y-79756011D01*
X367969821Y-80060773D01*
X367931726Y-80136964D01*
X367893630Y-80175059D01*
X367817440Y-80213154D01*
X367665059Y-80213154D01*
X367588869Y-80175059D01*
X367550773Y-80136964D01*
X367512678Y-80060773D01*
X367512678Y-79870297D01*
X367550773Y-79794107D01*
X367588869Y-79756011D01*
X367665059Y-79717916D01*
X367817440Y-79717916D01*
X367893630Y-79756011D01*
X367931726Y-79794107D01*
X367969821Y-79870297D01*
X348373630Y-74714107D02*
X348106964Y-74714107D01*
X347992678Y-75133154D02*
X348373630Y-75133154D01*
X348373630Y-74333154D01*
X347992678Y-74333154D01*
X347306964Y-74333154D02*
X347459345Y-74333154D01*
X347535535Y-74371250D01*
X347573630Y-74409345D01*
X347649821Y-74523630D01*
X347687916Y-74676011D01*
X347687916Y-74980773D01*
X347649821Y-75056964D01*
X347611726Y-75095059D01*
X347535535Y-75133154D01*
X347383154Y-75133154D01*
X347306964Y-75095059D01*
X347268869Y-75056964D01*
X347230773Y-74980773D01*
X347230773Y-74790297D01*
X347268869Y-74714107D01*
X347306964Y-74676011D01*
X347383154Y-74637916D01*
X347535535Y-74637916D01*
X347611726Y-74676011D01*
X347649821Y-74714107D01*
X347687916Y-74790297D01*
X368465059Y-74714107D02*
X368350773Y-74752202D01*
X368312678Y-74790297D01*
X368274583Y-74866488D01*
X368274583Y-74980773D01*
X368312678Y-75056964D01*
X368350773Y-75095059D01*
X368426964Y-75133154D01*
X368731726Y-75133154D01*
X368731726Y-74333154D01*
X368465059Y-74333154D01*
X368388869Y-74371250D01*
X368350773Y-74409345D01*
X368312678Y-74485535D01*
X368312678Y-74561726D01*
X368350773Y-74637916D01*
X368388869Y-74676011D01*
X368465059Y-74714107D01*
X368731726Y-74714107D01*
X368007916Y-74333154D02*
X367512678Y-74333154D01*
X367779345Y-74637916D01*
X367665059Y-74637916D01*
X367588869Y-74676011D01*
X367550773Y-74714107D01*
X367512678Y-74790297D01*
X367512678Y-74980773D01*
X367550773Y-75056964D01*
X367588869Y-75095059D01*
X367665059Y-75133154D01*
X367893630Y-75133154D01*
X367969821Y-75095059D01*
X368007916Y-75056964D01*
X348487726Y-51473154D02*
X348030583Y-51473154D01*
X348259154Y-52273154D02*
X348259154Y-51473154D01*
X347840107Y-51473154D02*
X347306773Y-52273154D01*
X347306773Y-51473154D02*
X347840107Y-52273154D01*
X346849630Y-51473154D02*
X346773440Y-51473154D01*
X346697250Y-51511250D01*
X346659154Y-51549345D01*
X346621059Y-51625535D01*
X346582964Y-51777916D01*
X346582964Y-51968392D01*
X346621059Y-52120773D01*
X346659154Y-52196964D01*
X346697250Y-52235059D01*
X346773440Y-52273154D01*
X346849630Y-52273154D01*
X346925821Y-52235059D01*
X346963916Y-52196964D01*
X347002011Y-52120773D01*
X347040107Y-51968392D01*
X347040107Y-51777916D01*
X347002011Y-51625535D01*
X346963916Y-51549345D01*
X346925821Y-51511250D01*
X346849630Y-51473154D01*
X345668678Y-51435059D02*
X346354392Y-52463630D01*
X345402011Y-52273154D02*
X345402011Y-51473154D01*
X345211535Y-51473154D01*
X345097250Y-51511250D01*
X345021059Y-51587440D01*
X344982964Y-51663630D01*
X344944869Y-51816011D01*
X344944869Y-51930297D01*
X344982964Y-52082678D01*
X345021059Y-52158869D01*
X345097250Y-52235059D01*
X345211535Y-52273154D01*
X345402011Y-52273154D01*
X344678202Y-51473154D02*
X344182964Y-51473154D01*
X344449630Y-51777916D01*
X344335345Y-51777916D01*
X344259154Y-51816011D01*
X344221059Y-51854107D01*
X344182964Y-51930297D01*
X344182964Y-52120773D01*
X344221059Y-52196964D01*
X344259154Y-52235059D01*
X344335345Y-52273154D01*
X344563916Y-52273154D01*
X344640107Y-52235059D01*
X344678202Y-52196964D01*
X348411726Y-54813154D02*
X348411726Y-54013154D01*
X348221250Y-54013154D01*
X348106964Y-54051250D01*
X348030773Y-54127440D01*
X347992678Y-54203630D01*
X347954583Y-54356011D01*
X347954583Y-54470297D01*
X347992678Y-54622678D01*
X348030773Y-54698869D01*
X348106964Y-54775059D01*
X348221250Y-54813154D01*
X348411726Y-54813154D01*
X347649821Y-54089345D02*
X347611726Y-54051250D01*
X347535535Y-54013154D01*
X347345059Y-54013154D01*
X347268869Y-54051250D01*
X347230773Y-54089345D01*
X347192678Y-54165535D01*
X347192678Y-54241726D01*
X347230773Y-54356011D01*
X347687916Y-54813154D01*
X347192678Y-54813154D01*
X347954583Y-69976964D02*
X347992678Y-70015059D01*
X348106964Y-70053154D01*
X348183154Y-70053154D01*
X348297440Y-70015059D01*
X348373630Y-69938869D01*
X348411726Y-69862678D01*
X348449821Y-69710297D01*
X348449821Y-69596011D01*
X348411726Y-69443630D01*
X348373630Y-69367440D01*
X348297440Y-69291250D01*
X348183154Y-69253154D01*
X348106964Y-69253154D01*
X347992678Y-69291250D01*
X347954583Y-69329345D01*
X347268869Y-69253154D02*
X347421250Y-69253154D01*
X347497440Y-69291250D01*
X347535535Y-69329345D01*
X347611726Y-69443630D01*
X347649821Y-69596011D01*
X347649821Y-69900773D01*
X347611726Y-69976964D01*
X347573630Y-70015059D01*
X347497440Y-70053154D01*
X347345059Y-70053154D01*
X347268869Y-70015059D01*
X347230773Y-69976964D01*
X347192678Y-69900773D01*
X347192678Y-69710297D01*
X347230773Y-69634107D01*
X347268869Y-69596011D01*
X347345059Y-69557916D01*
X347497440Y-69557916D01*
X347573630Y-69596011D01*
X347611726Y-69634107D01*
X347649821Y-69710297D01*
X368465059Y-77254107D02*
X368350773Y-77292202D01*
X368312678Y-77330297D01*
X368274583Y-77406488D01*
X368274583Y-77520773D01*
X368312678Y-77596964D01*
X368350773Y-77635059D01*
X368426964Y-77673154D01*
X368731726Y-77673154D01*
X368731726Y-76873154D01*
X368465059Y-76873154D01*
X368388869Y-76911250D01*
X368350773Y-76949345D01*
X368312678Y-77025535D01*
X368312678Y-77101726D01*
X368350773Y-77177916D01*
X368388869Y-77216011D01*
X368465059Y-77254107D01*
X368731726Y-77254107D01*
X367969821Y-76949345D02*
X367931726Y-76911250D01*
X367855535Y-76873154D01*
X367665059Y-76873154D01*
X367588869Y-76911250D01*
X367550773Y-76949345D01*
X367512678Y-77025535D01*
X367512678Y-77101726D01*
X367550773Y-77216011D01*
X368007916Y-77673154D01*
X367512678Y-77673154D01*
X347922773Y-56591250D02*
X347998964Y-56553154D01*
X348113250Y-56553154D01*
X348227535Y-56591250D01*
X348303726Y-56667440D01*
X348341821Y-56743630D01*
X348379916Y-56896011D01*
X348379916Y-57010297D01*
X348341821Y-57162678D01*
X348303726Y-57238869D01*
X348227535Y-57315059D01*
X348113250Y-57353154D01*
X348037059Y-57353154D01*
X347922773Y-57315059D01*
X347884678Y-57276964D01*
X347884678Y-57010297D01*
X348037059Y-57010297D01*
X347541821Y-57353154D02*
X347541821Y-56553154D01*
X347084678Y-57353154D01*
X347084678Y-56553154D01*
X346703726Y-57353154D02*
X346703726Y-56553154D01*
X346513250Y-56553154D01*
X346398964Y-56591250D01*
X346322773Y-56667440D01*
X346284678Y-56743630D01*
X346246583Y-56896011D01*
X346246583Y-57010297D01*
X346284678Y-57162678D01*
X346322773Y-57238869D01*
X346398964Y-57315059D01*
X346513250Y-57353154D01*
X346703726Y-57353154D01*
X348145059Y-77254107D02*
X348030773Y-77292202D01*
X347992678Y-77330297D01*
X347954583Y-77406488D01*
X347954583Y-77520773D01*
X347992678Y-77596964D01*
X348030773Y-77635059D01*
X348106964Y-77673154D01*
X348411726Y-77673154D01*
X348411726Y-76873154D01*
X348145059Y-76873154D01*
X348068869Y-76911250D01*
X348030773Y-76949345D01*
X347992678Y-77025535D01*
X347992678Y-77101726D01*
X348030773Y-77177916D01*
X348068869Y-77216011D01*
X348145059Y-77254107D01*
X348411726Y-77254107D01*
X347268869Y-77139821D02*
X347268869Y-77673154D01*
X347459345Y-76835059D02*
X347649821Y-77406488D01*
X347154583Y-77406488D01*
X369201630Y-52273154D02*
X369468297Y-51892202D01*
X369658773Y-52273154D02*
X369658773Y-51473154D01*
X369354011Y-51473154D01*
X369277821Y-51511250D01*
X369239726Y-51549345D01*
X369201630Y-51625535D01*
X369201630Y-51739821D01*
X369239726Y-51816011D01*
X369277821Y-51854107D01*
X369354011Y-51892202D01*
X369658773Y-51892202D01*
X368896869Y-52044583D02*
X368515916Y-52044583D01*
X368973059Y-52273154D02*
X368706392Y-51473154D01*
X368439726Y-52273154D01*
X368249250Y-51473154D02*
X368058773Y-52273154D01*
X367906392Y-51701726D01*
X367754011Y-52273154D01*
X367563535Y-51473154D01*
X348411726Y-62433154D02*
X348411726Y-61633154D01*
X348221250Y-61633154D01*
X348106964Y-61671250D01*
X348030773Y-61747440D01*
X347992678Y-61823630D01*
X347954583Y-61976011D01*
X347954583Y-62090297D01*
X347992678Y-62242678D01*
X348030773Y-62318869D01*
X348106964Y-62395059D01*
X348221250Y-62433154D01*
X348411726Y-62433154D01*
X347192678Y-62433154D02*
X347649821Y-62433154D01*
X347421250Y-62433154D02*
X347421250Y-61633154D01*
X347497440Y-61747440D01*
X347573630Y-61823630D01*
X347649821Y-61861726D01*
X369258773Y-54051250D02*
X369334964Y-54013154D01*
X369449250Y-54013154D01*
X369563535Y-54051250D01*
X369639726Y-54127440D01*
X369677821Y-54203630D01*
X369715916Y-54356011D01*
X369715916Y-54470297D01*
X369677821Y-54622678D01*
X369639726Y-54698869D01*
X369563535Y-54775059D01*
X369449250Y-54813154D01*
X369373059Y-54813154D01*
X369258773Y-54775059D01*
X369220678Y-54736964D01*
X369220678Y-54470297D01*
X369373059Y-54470297D01*
X368877821Y-54813154D02*
X368877821Y-54013154D01*
X368420678Y-54813154D01*
X368420678Y-54013154D01*
X368039726Y-54813154D02*
X368039726Y-54013154D01*
X367849250Y-54013154D01*
X367734964Y-54051250D01*
X367658773Y-54127440D01*
X367620678Y-54203630D01*
X367582583Y-54356011D01*
X367582583Y-54470297D01*
X367620678Y-54622678D01*
X367658773Y-54698869D01*
X367734964Y-54775059D01*
X367849250Y-54813154D01*
X368039726Y-54813154D01*
X348411726Y-67513154D02*
X348411726Y-66713154D01*
X348221250Y-66713154D01*
X348106964Y-66751250D01*
X348030773Y-66827440D01*
X347992678Y-66903630D01*
X347954583Y-67056011D01*
X347954583Y-67170297D01*
X347992678Y-67322678D01*
X348030773Y-67398869D01*
X348106964Y-67475059D01*
X348221250Y-67513154D01*
X348411726Y-67513154D01*
X347268869Y-66979821D02*
X347268869Y-67513154D01*
X347459345Y-66675059D02*
X347649821Y-67246488D01*
X347154583Y-67246488D01*
X368407916Y-64554107D02*
X368674583Y-64554107D01*
X368674583Y-64973154D02*
X368674583Y-64173154D01*
X368293630Y-64173154D01*
X367607916Y-64173154D02*
X367988869Y-64173154D01*
X368026964Y-64554107D01*
X367988869Y-64516011D01*
X367912678Y-64477916D01*
X367722202Y-64477916D01*
X367646011Y-64516011D01*
X367607916Y-64554107D01*
X367569821Y-64630297D01*
X367569821Y-64820773D01*
X367607916Y-64896964D01*
X367646011Y-64935059D01*
X367722202Y-64973154D01*
X367912678Y-64973154D01*
X367988869Y-64935059D01*
X368026964Y-64896964D01*
X348145059Y-79794107D02*
X348030773Y-79832202D01*
X347992678Y-79870297D01*
X347954583Y-79946488D01*
X347954583Y-80060773D01*
X347992678Y-80136964D01*
X348030773Y-80175059D01*
X348106964Y-80213154D01*
X348411726Y-80213154D01*
X348411726Y-79413154D01*
X348145059Y-79413154D01*
X348068869Y-79451250D01*
X348030773Y-79489345D01*
X347992678Y-79565535D01*
X347992678Y-79641726D01*
X348030773Y-79717916D01*
X348068869Y-79756011D01*
X348145059Y-79794107D01*
X348411726Y-79794107D01*
X347230773Y-79413154D02*
X347611726Y-79413154D01*
X347649821Y-79794107D01*
X347611726Y-79756011D01*
X347535535Y-79717916D01*
X347345059Y-79717916D01*
X347268869Y-79756011D01*
X347230773Y-79794107D01*
X347192678Y-79870297D01*
X347192678Y-80060773D01*
X347230773Y-80136964D01*
X347268869Y-80175059D01*
X347345059Y-80213154D01*
X347535535Y-80213154D01*
X347611726Y-80175059D01*
X347649821Y-80136964D01*
X368801583Y-57315059D02*
X368687297Y-57353154D01*
X368496821Y-57353154D01*
X368420630Y-57315059D01*
X368382535Y-57276964D01*
X368344440Y-57200773D01*
X368344440Y-57124583D01*
X368382535Y-57048392D01*
X368420630Y-57010297D01*
X368496821Y-56972202D01*
X368649202Y-56934107D01*
X368725392Y-56896011D01*
X368763488Y-56857916D01*
X368801583Y-56781726D01*
X368801583Y-56705535D01*
X368763488Y-56629345D01*
X368725392Y-56591250D01*
X368649202Y-56553154D01*
X368458726Y-56553154D01*
X368344440Y-56591250D01*
X368115869Y-56553154D02*
X367658726Y-56553154D01*
X367887297Y-57353154D02*
X367887297Y-56553154D01*
X368465059Y-72174107D02*
X368350773Y-72212202D01*
X368312678Y-72250297D01*
X368274583Y-72326488D01*
X368274583Y-72440773D01*
X368312678Y-72516964D01*
X368350773Y-72555059D01*
X368426964Y-72593154D01*
X368731726Y-72593154D01*
X368731726Y-71793154D01*
X368465059Y-71793154D01*
X368388869Y-71831250D01*
X368350773Y-71869345D01*
X368312678Y-71945535D01*
X368312678Y-72021726D01*
X368350773Y-72097916D01*
X368388869Y-72136011D01*
X368465059Y-72174107D01*
X368731726Y-72174107D01*
X367512678Y-72593154D02*
X367969821Y-72593154D01*
X367741250Y-72593154D02*
X367741250Y-71793154D01*
X367817440Y-71907440D01*
X367893630Y-71983630D01*
X367969821Y-72021726D01*
X348487726Y-51473154D02*
X348030583Y-51473154D01*
X348259154Y-52273154D02*
X348259154Y-51473154D01*
X347840107Y-51473154D02*
X347306773Y-52273154D01*
X347306773Y-51473154D02*
X347840107Y-52273154D01*
X346849630Y-51473154D02*
X346773440Y-51473154D01*
X346697250Y-51511250D01*
X346659154Y-51549345D01*
X346621059Y-51625535D01*
X346582964Y-51777916D01*
X346582964Y-51968392D01*
X346621059Y-52120773D01*
X346659154Y-52196964D01*
X346697250Y-52235059D01*
X346773440Y-52273154D01*
X346849630Y-52273154D01*
X346925821Y-52235059D01*
X346963916Y-52196964D01*
X347002011Y-52120773D01*
X347040107Y-51968392D01*
X347040107Y-51777916D01*
X347002011Y-51625535D01*
X346963916Y-51549345D01*
X346925821Y-51511250D01*
X346849630Y-51473154D01*
X345668678Y-51435059D02*
X346354392Y-52463630D01*
X345402011Y-52273154D02*
X345402011Y-51473154D01*
X345211535Y-51473154D01*
X345097250Y-51511250D01*
X345021059Y-51587440D01*
X344982964Y-51663630D01*
X344944869Y-51816011D01*
X344944869Y-51930297D01*
X344982964Y-52082678D01*
X345021059Y-52158869D01*
X345097250Y-52235059D01*
X345211535Y-52273154D01*
X345402011Y-52273154D01*
X344678202Y-51473154D02*
X344182964Y-51473154D01*
X344449630Y-51777916D01*
X344335345Y-51777916D01*
X344259154Y-51816011D01*
X344221059Y-51854107D01*
X344182964Y-51930297D01*
X344182964Y-52120773D01*
X344221059Y-52196964D01*
X344259154Y-52235059D01*
X344335345Y-52273154D01*
X344563916Y-52273154D01*
X344640107Y-52235059D01*
X344678202Y-52196964D01*
X348411726Y-62433154D02*
X348411726Y-61633154D01*
X348221250Y-61633154D01*
X348106964Y-61671250D01*
X348030773Y-61747440D01*
X347992678Y-61823630D01*
X347954583Y-61976011D01*
X347954583Y-62090297D01*
X347992678Y-62242678D01*
X348030773Y-62318869D01*
X348106964Y-62395059D01*
X348221250Y-62433154D01*
X348411726Y-62433154D01*
X347192678Y-62433154D02*
X347649821Y-62433154D01*
X347421250Y-62433154D02*
X347421250Y-61633154D01*
X347497440Y-61747440D01*
X347573630Y-61823630D01*
X347649821Y-61861726D01*
X368407916Y-69634107D02*
X368674583Y-69634107D01*
X368674583Y-70053154D02*
X368674583Y-69253154D01*
X368293630Y-69253154D01*
X368065059Y-69253154D02*
X367531726Y-69253154D01*
X367874583Y-70053154D01*
X368465059Y-74714107D02*
X368350773Y-74752202D01*
X368312678Y-74790297D01*
X368274583Y-74866488D01*
X368274583Y-74980773D01*
X368312678Y-75056964D01*
X368350773Y-75095059D01*
X368426964Y-75133154D01*
X368731726Y-75133154D01*
X368731726Y-74333154D01*
X368465059Y-74333154D01*
X368388869Y-74371250D01*
X368350773Y-74409345D01*
X368312678Y-74485535D01*
X368312678Y-74561726D01*
X368350773Y-74637916D01*
X368388869Y-74676011D01*
X368465059Y-74714107D01*
X368731726Y-74714107D01*
X368007916Y-74333154D02*
X367512678Y-74333154D01*
X367779345Y-74637916D01*
X367665059Y-74637916D01*
X367588869Y-74676011D01*
X367550773Y-74714107D01*
X367512678Y-74790297D01*
X367512678Y-74980773D01*
X367550773Y-75056964D01*
X367588869Y-75095059D01*
X367665059Y-75133154D01*
X367893630Y-75133154D01*
X367969821Y-75095059D01*
X368007916Y-75056964D01*
X347954583Y-69976964D02*
X347992678Y-70015059D01*
X348106964Y-70053154D01*
X348183154Y-70053154D01*
X348297440Y-70015059D01*
X348373630Y-69938869D01*
X348411726Y-69862678D01*
X348449821Y-69710297D01*
X348449821Y-69596011D01*
X348411726Y-69443630D01*
X348373630Y-69367440D01*
X348297440Y-69291250D01*
X348183154Y-69253154D01*
X348106964Y-69253154D01*
X347992678Y-69291250D01*
X347954583Y-69329345D01*
X347268869Y-69253154D02*
X347421250Y-69253154D01*
X347497440Y-69291250D01*
X347535535Y-69329345D01*
X347611726Y-69443630D01*
X347649821Y-69596011D01*
X347649821Y-69900773D01*
X347611726Y-69976964D01*
X347573630Y-70015059D01*
X347497440Y-70053154D01*
X347345059Y-70053154D01*
X347268869Y-70015059D01*
X347230773Y-69976964D01*
X347192678Y-69900773D01*
X347192678Y-69710297D01*
X347230773Y-69634107D01*
X347268869Y-69596011D01*
X347345059Y-69557916D01*
X347497440Y-69557916D01*
X347573630Y-69596011D01*
X347611726Y-69634107D01*
X347649821Y-69710297D01*
X348373630Y-74714107D02*
X348106964Y-74714107D01*
X347992678Y-75133154D02*
X348373630Y-75133154D01*
X348373630Y-74333154D01*
X347992678Y-74333154D01*
X347306964Y-74333154D02*
X347459345Y-74333154D01*
X347535535Y-74371250D01*
X347573630Y-74409345D01*
X347649821Y-74523630D01*
X347687916Y-74676011D01*
X347687916Y-74980773D01*
X347649821Y-75056964D01*
X347611726Y-75095059D01*
X347535535Y-75133154D01*
X347383154Y-75133154D01*
X347306964Y-75095059D01*
X347268869Y-75056964D01*
X347230773Y-74980773D01*
X347230773Y-74790297D01*
X347268869Y-74714107D01*
X347306964Y-74676011D01*
X347383154Y-74637916D01*
X347535535Y-74637916D01*
X347611726Y-74676011D01*
X347649821Y-74714107D01*
X347687916Y-74790297D01*
X347922773Y-59131250D02*
X347998964Y-59093154D01*
X348113250Y-59093154D01*
X348227535Y-59131250D01*
X348303726Y-59207440D01*
X348341821Y-59283630D01*
X348379916Y-59436011D01*
X348379916Y-59550297D01*
X348341821Y-59702678D01*
X348303726Y-59778869D01*
X348227535Y-59855059D01*
X348113250Y-59893154D01*
X348037059Y-59893154D01*
X347922773Y-59855059D01*
X347884678Y-59816964D01*
X347884678Y-59550297D01*
X348037059Y-59550297D01*
X347541821Y-59893154D02*
X347541821Y-59093154D01*
X347084678Y-59893154D01*
X347084678Y-59093154D01*
X346703726Y-59893154D02*
X346703726Y-59093154D01*
X346513250Y-59093154D01*
X346398964Y-59131250D01*
X346322773Y-59207440D01*
X346284678Y-59283630D01*
X346246583Y-59436011D01*
X346246583Y-59550297D01*
X346284678Y-59702678D01*
X346322773Y-59778869D01*
X346398964Y-59855059D01*
X346513250Y-59893154D01*
X346703726Y-59893154D01*
X368407916Y-67094107D02*
X368674583Y-67094107D01*
X368674583Y-67513154D02*
X368674583Y-66713154D01*
X368293630Y-66713154D01*
X367646011Y-66713154D02*
X367798392Y-66713154D01*
X367874583Y-66751250D01*
X367912678Y-66789345D01*
X367988869Y-66903630D01*
X368026964Y-67056011D01*
X368026964Y-67360773D01*
X367988869Y-67436964D01*
X367950773Y-67475059D01*
X367874583Y-67513154D01*
X367722202Y-67513154D01*
X367646011Y-67475059D01*
X367607916Y-67436964D01*
X367569821Y-67360773D01*
X367569821Y-67170297D01*
X367607916Y-67094107D01*
X367646011Y-67056011D01*
X367722202Y-67017916D01*
X367874583Y-67017916D01*
X367950773Y-67056011D01*
X367988869Y-67094107D01*
X368026964Y-67170297D01*
X359354285Y-120308630D02*
X359354285Y-119308630D01*
X359116190Y-119308630D01*
X358973333Y-119356250D01*
X358878095Y-119451488D01*
X358830476Y-119546726D01*
X358782857Y-119737202D01*
X358782857Y-119880059D01*
X358830476Y-120070535D01*
X358878095Y-120165773D01*
X358973333Y-120261011D01*
X359116190Y-120308630D01*
X359354285Y-120308630D01*
X358211428Y-119737202D02*
X358306666Y-119689583D01*
X358354285Y-119641964D01*
X358401904Y-119546726D01*
X358401904Y-119499107D01*
X358354285Y-119403869D01*
X358306666Y-119356250D01*
X358211428Y-119308630D01*
X358020952Y-119308630D01*
X357925714Y-119356250D01*
X357878095Y-119403869D01*
X357830476Y-119499107D01*
X357830476Y-119546726D01*
X357878095Y-119641964D01*
X357925714Y-119689583D01*
X358020952Y-119737202D01*
X358211428Y-119737202D01*
X358306666Y-119784821D01*
X358354285Y-119832440D01*
X358401904Y-119927678D01*
X358401904Y-120118154D01*
X358354285Y-120213392D01*
X358306666Y-120261011D01*
X358211428Y-120308630D01*
X358020952Y-120308630D01*
X357925714Y-120261011D01*
X357878095Y-120213392D01*
X357830476Y-120118154D01*
X357830476Y-119927678D01*
X357878095Y-119832440D01*
X357925714Y-119784821D01*
X358020952Y-119737202D01*
X356878095Y-120308630D02*
X357449523Y-120308630D01*
X357163809Y-120308630D02*
X357163809Y-119308630D01*
X357259047Y-119451488D01*
X357354285Y-119546726D01*
X357449523Y-119594345D01*
X378404285Y-83002380D02*
X378404285Y-82002380D01*
X378166190Y-82002380D01*
X378023333Y-82050000D01*
X377928095Y-82145238D01*
X377880476Y-82240476D01*
X377832857Y-82430952D01*
X377832857Y-82573809D01*
X377880476Y-82764285D01*
X377928095Y-82859523D01*
X378023333Y-82954761D01*
X378166190Y-83002380D01*
X378404285Y-83002380D01*
X377499523Y-82002380D02*
X376832857Y-82002380D01*
X377261428Y-83002380D01*
X375975714Y-82002380D02*
X376451904Y-82002380D01*
X376499523Y-82478571D01*
X376451904Y-82430952D01*
X376356666Y-82383333D01*
X376118571Y-82383333D01*
X376023333Y-82430952D01*
X375975714Y-82478571D01*
X375928095Y-82573809D01*
X375928095Y-82811904D01*
X375975714Y-82907142D01*
X376023333Y-82954761D01*
X376118571Y-83002380D01*
X376356666Y-83002380D01*
X376451904Y-82954761D01*
X376499523Y-82907142D01*
X378404285Y-123483630D02*
X378404285Y-122483630D01*
X378166190Y-122483630D01*
X378023333Y-122531250D01*
X377928095Y-122626488D01*
X377880476Y-122721726D01*
X377832857Y-122912202D01*
X377832857Y-123055059D01*
X377880476Y-123245535D01*
X377928095Y-123340773D01*
X378023333Y-123436011D01*
X378166190Y-123483630D01*
X378404285Y-123483630D01*
X377261428Y-122912202D02*
X377356666Y-122864583D01*
X377404285Y-122816964D01*
X377451904Y-122721726D01*
X377451904Y-122674107D01*
X377404285Y-122578869D01*
X377356666Y-122531250D01*
X377261428Y-122483630D01*
X377070952Y-122483630D01*
X376975714Y-122531250D01*
X376928095Y-122578869D01*
X376880476Y-122674107D01*
X376880476Y-122721726D01*
X376928095Y-122816964D01*
X376975714Y-122864583D01*
X377070952Y-122912202D01*
X377261428Y-122912202D01*
X377356666Y-122959821D01*
X377404285Y-123007440D01*
X377451904Y-123102678D01*
X377451904Y-123293154D01*
X377404285Y-123388392D01*
X377356666Y-123436011D01*
X377261428Y-123483630D01*
X377070952Y-123483630D01*
X376975714Y-123436011D01*
X376928095Y-123388392D01*
X376880476Y-123293154D01*
X376880476Y-123102678D01*
X376928095Y-123007440D01*
X376975714Y-122959821D01*
X377070952Y-122912202D01*
X375975714Y-122483630D02*
X376451904Y-122483630D01*
X376499523Y-122959821D01*
X376451904Y-122912202D01*
X376356666Y-122864583D01*
X376118571Y-122864583D01*
X376023333Y-122912202D01*
X375975714Y-122959821D01*
X375928095Y-123055059D01*
X375928095Y-123293154D01*
X375975714Y-123388392D01*
X376023333Y-123436011D01*
X376118571Y-123483630D01*
X376356666Y-123483630D01*
X376451904Y-123436011D01*
X376499523Y-123388392D01*
X359354285Y-86177380D02*
X359354285Y-85177380D01*
X359116190Y-85177380D01*
X358973333Y-85225000D01*
X358878095Y-85320238D01*
X358830476Y-85415476D01*
X358782857Y-85605952D01*
X358782857Y-85748809D01*
X358830476Y-85939285D01*
X358878095Y-86034523D01*
X358973333Y-86129761D01*
X359116190Y-86177380D01*
X359354285Y-86177380D01*
X358449523Y-85177380D02*
X357782857Y-85177380D01*
X358211428Y-86177380D01*
X356973333Y-85510714D02*
X356973333Y-86177380D01*
X357211428Y-85129761D02*
X357449523Y-85844047D01*
X356830476Y-85844047D01*
X397454285Y-102052380D02*
X397454285Y-101052380D01*
X397216190Y-101052380D01*
X397073333Y-101100000D01*
X396978095Y-101195238D01*
X396930476Y-101290476D01*
X396882857Y-101480952D01*
X396882857Y-101623809D01*
X396930476Y-101814285D01*
X396978095Y-101909523D01*
X397073333Y-102004761D01*
X397216190Y-102052380D01*
X397454285Y-102052380D01*
X396549523Y-101052380D02*
X395882857Y-101052380D01*
X396311428Y-102052380D01*
X395454285Y-102052380D02*
X395263809Y-102052380D01*
X395168571Y-102004761D01*
X395120952Y-101957142D01*
X395025714Y-101814285D01*
X394978095Y-101623809D01*
X394978095Y-101242857D01*
X395025714Y-101147619D01*
X395073333Y-101100000D01*
X395168571Y-101052380D01*
X395359047Y-101052380D01*
X395454285Y-101100000D01*
X395501904Y-101147619D01*
X395549523Y-101242857D01*
X395549523Y-101480952D01*
X395501904Y-101576190D01*
X395454285Y-101623809D01*
X395359047Y-101671428D01*
X395168571Y-101671428D01*
X395073333Y-101623809D01*
X395025714Y-101576190D01*
X394978095Y-101480952D01*
X359354285Y-123483630D02*
X359354285Y-122483630D01*
X359116190Y-122483630D01*
X358973333Y-122531250D01*
X358878095Y-122626488D01*
X358830476Y-122721726D01*
X358782857Y-122912202D01*
X358782857Y-123055059D01*
X358830476Y-123245535D01*
X358878095Y-123340773D01*
X358973333Y-123436011D01*
X359116190Y-123483630D01*
X359354285Y-123483630D01*
X358211428Y-122912202D02*
X358306666Y-122864583D01*
X358354285Y-122816964D01*
X358401904Y-122721726D01*
X358401904Y-122674107D01*
X358354285Y-122578869D01*
X358306666Y-122531250D01*
X358211428Y-122483630D01*
X358020952Y-122483630D01*
X357925714Y-122531250D01*
X357878095Y-122578869D01*
X357830476Y-122674107D01*
X357830476Y-122721726D01*
X357878095Y-122816964D01*
X357925714Y-122864583D01*
X358020952Y-122912202D01*
X358211428Y-122912202D01*
X358306666Y-122959821D01*
X358354285Y-123007440D01*
X358401904Y-123102678D01*
X358401904Y-123293154D01*
X358354285Y-123388392D01*
X358306666Y-123436011D01*
X358211428Y-123483630D01*
X358020952Y-123483630D01*
X357925714Y-123436011D01*
X357878095Y-123388392D01*
X357830476Y-123293154D01*
X357830476Y-123102678D01*
X357878095Y-123007440D01*
X357925714Y-122959821D01*
X358020952Y-122912202D01*
X357211428Y-122483630D02*
X357116190Y-122483630D01*
X357020952Y-122531250D01*
X356973333Y-122578869D01*
X356925714Y-122674107D01*
X356878095Y-122864583D01*
X356878095Y-123102678D01*
X356925714Y-123293154D01*
X356973333Y-123388392D01*
X357020952Y-123436011D01*
X357116190Y-123483630D01*
X357211428Y-123483630D01*
X357306666Y-123436011D01*
X357354285Y-123388392D01*
X357401904Y-123293154D01*
X357449523Y-123102678D01*
X357449523Y-122864583D01*
X357401904Y-122674107D01*
X357354285Y-122578869D01*
X357306666Y-122531250D01*
X357211428Y-122483630D01*
X368879285Y-142533630D02*
X368879285Y-141533630D01*
X368641190Y-141533630D01*
X368498333Y-141581250D01*
X368403095Y-141676488D01*
X368355476Y-141771726D01*
X368307857Y-141962202D01*
X368307857Y-142105059D01*
X368355476Y-142295535D01*
X368403095Y-142390773D01*
X368498333Y-142486011D01*
X368641190Y-142533630D01*
X368879285Y-142533630D01*
X367736428Y-141962202D02*
X367831666Y-141914583D01*
X367879285Y-141866964D01*
X367926904Y-141771726D01*
X367926904Y-141724107D01*
X367879285Y-141628869D01*
X367831666Y-141581250D01*
X367736428Y-141533630D01*
X367545952Y-141533630D01*
X367450714Y-141581250D01*
X367403095Y-141628869D01*
X367355476Y-141724107D01*
X367355476Y-141771726D01*
X367403095Y-141866964D01*
X367450714Y-141914583D01*
X367545952Y-141962202D01*
X367736428Y-141962202D01*
X367831666Y-142009821D01*
X367879285Y-142057440D01*
X367926904Y-142152678D01*
X367926904Y-142343154D01*
X367879285Y-142438392D01*
X367831666Y-142486011D01*
X367736428Y-142533630D01*
X367545952Y-142533630D01*
X367450714Y-142486011D01*
X367403095Y-142438392D01*
X367355476Y-142343154D01*
X367355476Y-142152678D01*
X367403095Y-142057440D01*
X367450714Y-142009821D01*
X367545952Y-141962202D01*
X367022142Y-141533630D02*
X366403095Y-141533630D01*
X366736428Y-141914583D01*
X366593571Y-141914583D01*
X366498333Y-141962202D01*
X366450714Y-142009821D01*
X366403095Y-142105059D01*
X366403095Y-142343154D01*
X366450714Y-142438392D01*
X366498333Y-142486011D01*
X366593571Y-142533630D01*
X366879285Y-142533630D01*
X366974523Y-142486011D01*
X367022142Y-142438392D01*
X378404285Y-105227380D02*
X378404285Y-104227380D01*
X378166190Y-104227380D01*
X378023333Y-104275000D01*
X377928095Y-104370238D01*
X377880476Y-104465476D01*
X377832857Y-104655952D01*
X377832857Y-104798809D01*
X377880476Y-104989285D01*
X377928095Y-105084523D01*
X378023333Y-105179761D01*
X378166190Y-105227380D01*
X378404285Y-105227380D01*
X377499523Y-104227380D02*
X376832857Y-104227380D01*
X377261428Y-105227380D01*
X376309047Y-104655952D02*
X376404285Y-104608333D01*
X376451904Y-104560714D01*
X376499523Y-104465476D01*
X376499523Y-104417857D01*
X376451904Y-104322619D01*
X376404285Y-104275000D01*
X376309047Y-104227380D01*
X376118571Y-104227380D01*
X376023333Y-104275000D01*
X375975714Y-104322619D01*
X375928095Y-104417857D01*
X375928095Y-104465476D01*
X375975714Y-104560714D01*
X376023333Y-104608333D01*
X376118571Y-104655952D01*
X376309047Y-104655952D01*
X376404285Y-104703571D01*
X376451904Y-104751190D01*
X376499523Y-104846428D01*
X376499523Y-105036904D01*
X376451904Y-105132142D01*
X376404285Y-105179761D01*
X376309047Y-105227380D01*
X376118571Y-105227380D01*
X376023333Y-105179761D01*
X375975714Y-105132142D01*
X375928095Y-105036904D01*
X375928095Y-104846428D01*
X375975714Y-104751190D01*
X376023333Y-104703571D01*
X376118571Y-104655952D01*
X359354285Y-83002380D02*
X359354285Y-82002380D01*
X359116190Y-82002380D01*
X358973333Y-82050000D01*
X358878095Y-82145238D01*
X358830476Y-82240476D01*
X358782857Y-82430952D01*
X358782857Y-82573809D01*
X358830476Y-82764285D01*
X358878095Y-82859523D01*
X358973333Y-82954761D01*
X359116190Y-83002380D01*
X359354285Y-83002380D01*
X358449523Y-82002380D02*
X357782857Y-82002380D01*
X358211428Y-83002380D01*
X357497142Y-82002380D02*
X356878095Y-82002380D01*
X357211428Y-82383333D01*
X357068571Y-82383333D01*
X356973333Y-82430952D01*
X356925714Y-82478571D01*
X356878095Y-82573809D01*
X356878095Y-82811904D01*
X356925714Y-82907142D01*
X356973333Y-82954761D01*
X357068571Y-83002380D01*
X357354285Y-83002380D01*
X357449523Y-82954761D01*
X357497142Y-82907142D01*
X359354285Y-105227380D02*
X359354285Y-104227380D01*
X359116190Y-104227380D01*
X358973333Y-104275000D01*
X358878095Y-104370238D01*
X358830476Y-104465476D01*
X358782857Y-104655952D01*
X358782857Y-104798809D01*
X358830476Y-104989285D01*
X358878095Y-105084523D01*
X358973333Y-105179761D01*
X359116190Y-105227380D01*
X359354285Y-105227380D01*
X358449523Y-104227380D02*
X357782857Y-104227380D01*
X358211428Y-105227380D01*
X357497142Y-104227380D02*
X356830476Y-104227380D01*
X357259047Y-105227380D01*
X378404285Y-120308630D02*
X378404285Y-119308630D01*
X378166190Y-119308630D01*
X378023333Y-119356250D01*
X377928095Y-119451488D01*
X377880476Y-119546726D01*
X377832857Y-119737202D01*
X377832857Y-119880059D01*
X377880476Y-120070535D01*
X377928095Y-120165773D01*
X378023333Y-120261011D01*
X378166190Y-120308630D01*
X378404285Y-120308630D01*
X377261428Y-119737202D02*
X377356666Y-119689583D01*
X377404285Y-119641964D01*
X377451904Y-119546726D01*
X377451904Y-119499107D01*
X377404285Y-119403869D01*
X377356666Y-119356250D01*
X377261428Y-119308630D01*
X377070952Y-119308630D01*
X376975714Y-119356250D01*
X376928095Y-119403869D01*
X376880476Y-119499107D01*
X376880476Y-119546726D01*
X376928095Y-119641964D01*
X376975714Y-119689583D01*
X377070952Y-119737202D01*
X377261428Y-119737202D01*
X377356666Y-119784821D01*
X377404285Y-119832440D01*
X377451904Y-119927678D01*
X377451904Y-120118154D01*
X377404285Y-120213392D01*
X377356666Y-120261011D01*
X377261428Y-120308630D01*
X377070952Y-120308630D01*
X376975714Y-120261011D01*
X376928095Y-120213392D01*
X376880476Y-120118154D01*
X376880476Y-119927678D01*
X376928095Y-119832440D01*
X376975714Y-119784821D01*
X377070952Y-119737202D01*
X376499523Y-119403869D02*
X376451904Y-119356250D01*
X376356666Y-119308630D01*
X376118571Y-119308630D01*
X376023333Y-119356250D01*
X375975714Y-119403869D01*
X375928095Y-119499107D01*
X375928095Y-119594345D01*
X375975714Y-119737202D01*
X376547142Y-120308630D01*
X375928095Y-120308630D01*
X397454285Y-65539880D02*
X397454285Y-64539880D01*
X397216190Y-64539880D01*
X397073333Y-64587500D01*
X396978095Y-64682738D01*
X396930476Y-64777976D01*
X396882857Y-64968452D01*
X396882857Y-65111309D01*
X396930476Y-65301785D01*
X396978095Y-65397023D01*
X397073333Y-65492261D01*
X397216190Y-65539880D01*
X397454285Y-65539880D01*
X396549523Y-64539880D02*
X395882857Y-64539880D01*
X396311428Y-65539880D01*
X395549523Y-64635119D02*
X395501904Y-64587500D01*
X395406666Y-64539880D01*
X395168571Y-64539880D01*
X395073333Y-64587500D01*
X395025714Y-64635119D01*
X394978095Y-64730357D01*
X394978095Y-64825595D01*
X395025714Y-64968452D01*
X395597142Y-65539880D01*
X394978095Y-65539880D01*
X378404285Y-67127380D02*
X378404285Y-66127380D01*
X378166190Y-66127380D01*
X378023333Y-66175000D01*
X377928095Y-66270238D01*
X377880476Y-66365476D01*
X377832857Y-66555952D01*
X377832857Y-66698809D01*
X377880476Y-66889285D01*
X377928095Y-66984523D01*
X378023333Y-67079761D01*
X378166190Y-67127380D01*
X378404285Y-67127380D01*
X377499523Y-66127380D02*
X376832857Y-66127380D01*
X377261428Y-67127380D01*
X376261428Y-66127380D02*
X376166190Y-66127380D01*
X376070952Y-66175000D01*
X376023333Y-66222619D01*
X375975714Y-66317857D01*
X375928095Y-66508333D01*
X375928095Y-66746428D01*
X375975714Y-66936904D01*
X376023333Y-67032142D01*
X376070952Y-67079761D01*
X376166190Y-67127380D01*
X376261428Y-67127380D01*
X376356666Y-67079761D01*
X376404285Y-67032142D01*
X376451904Y-66936904D01*
X376499523Y-66746428D01*
X376499523Y-66508333D01*
X376451904Y-66317857D01*
X376404285Y-66222619D01*
X376356666Y-66175000D01*
X376261428Y-66127380D01*
X397454285Y-105227380D02*
X397454285Y-104227380D01*
X397216190Y-104227380D01*
X397073333Y-104275000D01*
X396978095Y-104370238D01*
X396930476Y-104465476D01*
X396882857Y-104655952D01*
X396882857Y-104798809D01*
X396930476Y-104989285D01*
X396978095Y-105084523D01*
X397073333Y-105179761D01*
X397216190Y-105227380D01*
X397454285Y-105227380D01*
X396311428Y-104655952D02*
X396406666Y-104608333D01*
X396454285Y-104560714D01*
X396501904Y-104465476D01*
X396501904Y-104417857D01*
X396454285Y-104322619D01*
X396406666Y-104275000D01*
X396311428Y-104227380D01*
X396120952Y-104227380D01*
X396025714Y-104275000D01*
X395978095Y-104322619D01*
X395930476Y-104417857D01*
X395930476Y-104465476D01*
X395978095Y-104560714D01*
X396025714Y-104608333D01*
X396120952Y-104655952D01*
X396311428Y-104655952D01*
X396406666Y-104703571D01*
X396454285Y-104751190D01*
X396501904Y-104846428D01*
X396501904Y-105036904D01*
X396454285Y-105132142D01*
X396406666Y-105179761D01*
X396311428Y-105227380D01*
X396120952Y-105227380D01*
X396025714Y-105179761D01*
X395978095Y-105132142D01*
X395930476Y-105036904D01*
X395930476Y-104846428D01*
X395978095Y-104751190D01*
X396025714Y-104703571D01*
X396120952Y-104655952D01*
X395597142Y-104227380D02*
X394930476Y-104227380D01*
X395359047Y-105227380D01*
X378404285Y-86177380D02*
X378404285Y-85177380D01*
X378166190Y-85177380D01*
X378023333Y-85225000D01*
X377928095Y-85320238D01*
X377880476Y-85415476D01*
X377832857Y-85605952D01*
X377832857Y-85748809D01*
X377880476Y-85939285D01*
X377928095Y-86034523D01*
X378023333Y-86129761D01*
X378166190Y-86177380D01*
X378404285Y-86177380D01*
X377261428Y-85605952D02*
X377356666Y-85558333D01*
X377404285Y-85510714D01*
X377451904Y-85415476D01*
X377451904Y-85367857D01*
X377404285Y-85272619D01*
X377356666Y-85225000D01*
X377261428Y-85177380D01*
X377070952Y-85177380D01*
X376975714Y-85225000D01*
X376928095Y-85272619D01*
X376880476Y-85367857D01*
X376880476Y-85415476D01*
X376928095Y-85510714D01*
X376975714Y-85558333D01*
X377070952Y-85605952D01*
X377261428Y-85605952D01*
X377356666Y-85653571D01*
X377404285Y-85701190D01*
X377451904Y-85796428D01*
X377451904Y-85986904D01*
X377404285Y-86082142D01*
X377356666Y-86129761D01*
X377261428Y-86177380D01*
X377070952Y-86177380D01*
X376975714Y-86129761D01*
X376928095Y-86082142D01*
X376880476Y-85986904D01*
X376880476Y-85796428D01*
X376928095Y-85701190D01*
X376975714Y-85653571D01*
X377070952Y-85605952D01*
X376023333Y-85177380D02*
X376213809Y-85177380D01*
X376309047Y-85225000D01*
X376356666Y-85272619D01*
X376451904Y-85415476D01*
X376499523Y-85605952D01*
X376499523Y-85986904D01*
X376451904Y-86082142D01*
X376404285Y-86129761D01*
X376309047Y-86177380D01*
X376118571Y-86177380D01*
X376023333Y-86129761D01*
X375975714Y-86082142D01*
X375928095Y-85986904D01*
X375928095Y-85748809D01*
X375975714Y-85653571D01*
X376023333Y-85605952D01*
X376118571Y-85558333D01*
X376309047Y-85558333D01*
X376404285Y-85605952D01*
X376451904Y-85653571D01*
X376499523Y-85748809D01*
X340304285Y-105227380D02*
X340304285Y-104227380D01*
X340066190Y-104227380D01*
X339923333Y-104275000D01*
X339828095Y-104370238D01*
X339780476Y-104465476D01*
X339732857Y-104655952D01*
X339732857Y-104798809D01*
X339780476Y-104989285D01*
X339828095Y-105084523D01*
X339923333Y-105179761D01*
X340066190Y-105227380D01*
X340304285Y-105227380D01*
X339399523Y-104227380D02*
X338732857Y-104227380D01*
X339161428Y-105227380D01*
X337923333Y-104227380D02*
X338113809Y-104227380D01*
X338209047Y-104275000D01*
X338256666Y-104322619D01*
X338351904Y-104465476D01*
X338399523Y-104655952D01*
X338399523Y-105036904D01*
X338351904Y-105132142D01*
X338304285Y-105179761D01*
X338209047Y-105227380D01*
X338018571Y-105227380D01*
X337923333Y-105179761D01*
X337875714Y-105132142D01*
X337828095Y-105036904D01*
X337828095Y-104798809D01*
X337875714Y-104703571D01*
X337923333Y-104655952D01*
X338018571Y-104608333D01*
X338209047Y-104608333D01*
X338304285Y-104655952D01*
X338351904Y-104703571D01*
X338399523Y-104798809D01*
X368879285Y-131421130D02*
X368879285Y-130421130D01*
X368641190Y-130421130D01*
X368498333Y-130468750D01*
X368403095Y-130563988D01*
X368355476Y-130659226D01*
X368307857Y-130849702D01*
X368307857Y-130992559D01*
X368355476Y-131183035D01*
X368403095Y-131278273D01*
X368498333Y-131373511D01*
X368641190Y-131421130D01*
X368879285Y-131421130D01*
X367736428Y-130849702D02*
X367831666Y-130802083D01*
X367879285Y-130754464D01*
X367926904Y-130659226D01*
X367926904Y-130611607D01*
X367879285Y-130516369D01*
X367831666Y-130468750D01*
X367736428Y-130421130D01*
X367545952Y-130421130D01*
X367450714Y-130468750D01*
X367403095Y-130516369D01*
X367355476Y-130611607D01*
X367355476Y-130659226D01*
X367403095Y-130754464D01*
X367450714Y-130802083D01*
X367545952Y-130849702D01*
X367736428Y-130849702D01*
X367831666Y-130897321D01*
X367879285Y-130944940D01*
X367926904Y-131040178D01*
X367926904Y-131230654D01*
X367879285Y-131325892D01*
X367831666Y-131373511D01*
X367736428Y-131421130D01*
X367545952Y-131421130D01*
X367450714Y-131373511D01*
X367403095Y-131325892D01*
X367355476Y-131230654D01*
X367355476Y-131040178D01*
X367403095Y-130944940D01*
X367450714Y-130897321D01*
X367545952Y-130849702D01*
X366784047Y-130849702D02*
X366879285Y-130802083D01*
X366926904Y-130754464D01*
X366974523Y-130659226D01*
X366974523Y-130611607D01*
X366926904Y-130516369D01*
X366879285Y-130468750D01*
X366784047Y-130421130D01*
X366593571Y-130421130D01*
X366498333Y-130468750D01*
X366450714Y-130516369D01*
X366403095Y-130611607D01*
X366403095Y-130659226D01*
X366450714Y-130754464D01*
X366498333Y-130802083D01*
X366593571Y-130849702D01*
X366784047Y-130849702D01*
X366879285Y-130897321D01*
X366926904Y-130944940D01*
X366974523Y-131040178D01*
X366974523Y-131230654D01*
X366926904Y-131325892D01*
X366879285Y-131373511D01*
X366784047Y-131421130D01*
X366593571Y-131421130D01*
X366498333Y-131373511D01*
X366450714Y-131325892D01*
X366403095Y-131230654D01*
X366403095Y-131040178D01*
X366450714Y-130944940D01*
X366498333Y-130897321D01*
X366593571Y-130849702D01*
X368879285Y-139358630D02*
X368879285Y-138358630D01*
X368641190Y-138358630D01*
X368498333Y-138406250D01*
X368403095Y-138501488D01*
X368355476Y-138596726D01*
X368307857Y-138787202D01*
X368307857Y-138930059D01*
X368355476Y-139120535D01*
X368403095Y-139215773D01*
X368498333Y-139311011D01*
X368641190Y-139358630D01*
X368879285Y-139358630D01*
X367736428Y-138787202D02*
X367831666Y-138739583D01*
X367879285Y-138691964D01*
X367926904Y-138596726D01*
X367926904Y-138549107D01*
X367879285Y-138453869D01*
X367831666Y-138406250D01*
X367736428Y-138358630D01*
X367545952Y-138358630D01*
X367450714Y-138406250D01*
X367403095Y-138453869D01*
X367355476Y-138549107D01*
X367355476Y-138596726D01*
X367403095Y-138691964D01*
X367450714Y-138739583D01*
X367545952Y-138787202D01*
X367736428Y-138787202D01*
X367831666Y-138834821D01*
X367879285Y-138882440D01*
X367926904Y-138977678D01*
X367926904Y-139168154D01*
X367879285Y-139263392D01*
X367831666Y-139311011D01*
X367736428Y-139358630D01*
X367545952Y-139358630D01*
X367450714Y-139311011D01*
X367403095Y-139263392D01*
X367355476Y-139168154D01*
X367355476Y-138977678D01*
X367403095Y-138882440D01*
X367450714Y-138834821D01*
X367545952Y-138787202D01*
X366498333Y-138691964D02*
X366498333Y-139358630D01*
X366736428Y-138311011D02*
X366974523Y-139025297D01*
X366355476Y-139025297D01*
X340304285Y-65539880D02*
X340304285Y-64539880D01*
X340066190Y-64539880D01*
X339923333Y-64587500D01*
X339828095Y-64682738D01*
X339780476Y-64777976D01*
X339732857Y-64968452D01*
X339732857Y-65111309D01*
X339780476Y-65301785D01*
X339828095Y-65397023D01*
X339923333Y-65492261D01*
X340066190Y-65539880D01*
X340304285Y-65539880D01*
X338875714Y-64539880D02*
X339066190Y-64539880D01*
X339161428Y-64587500D01*
X339209047Y-64635119D01*
X339304285Y-64777976D01*
X339351904Y-64968452D01*
X339351904Y-65349404D01*
X339304285Y-65444642D01*
X339256666Y-65492261D01*
X339161428Y-65539880D01*
X338970952Y-65539880D01*
X338875714Y-65492261D01*
X338828095Y-65444642D01*
X338780476Y-65349404D01*
X338780476Y-65111309D01*
X338828095Y-65016071D01*
X338875714Y-64968452D01*
X338970952Y-64920833D01*
X339161428Y-64920833D01*
X339256666Y-64968452D01*
X339304285Y-65016071D01*
X339351904Y-65111309D01*
X338304285Y-65539880D02*
X338113809Y-65539880D01*
X338018571Y-65492261D01*
X337970952Y-65444642D01*
X337875714Y-65301785D01*
X337828095Y-65111309D01*
X337828095Y-64730357D01*
X337875714Y-64635119D01*
X337923333Y-64587500D01*
X338018571Y-64539880D01*
X338209047Y-64539880D01*
X338304285Y-64587500D01*
X338351904Y-64635119D01*
X338399523Y-64730357D01*
X338399523Y-64968452D01*
X338351904Y-65063690D01*
X338304285Y-65111309D01*
X338209047Y-65158928D01*
X338018571Y-65158928D01*
X337923333Y-65111309D01*
X337875714Y-65063690D01*
X337828095Y-64968452D01*
X378404285Y-63952380D02*
X378404285Y-62952380D01*
X378166190Y-62952380D01*
X378023333Y-63000000D01*
X377928095Y-63095238D01*
X377880476Y-63190476D01*
X377832857Y-63380952D01*
X377832857Y-63523809D01*
X377880476Y-63714285D01*
X377928095Y-63809523D01*
X378023333Y-63904761D01*
X378166190Y-63952380D01*
X378404285Y-63952380D01*
X377499523Y-62952380D02*
X376832857Y-62952380D01*
X377261428Y-63952380D01*
X375928095Y-63952380D02*
X376499523Y-63952380D01*
X376213809Y-63952380D02*
X376213809Y-62952380D01*
X376309047Y-63095238D01*
X376404285Y-63190476D01*
X376499523Y-63238095D01*
D11*
X349091250Y-48101250D02*
X349091250Y-81121250D01*
X351631250Y-53181250D02*
X349091250Y-53181250D01*
X366871250Y-48101250D02*
X349091250Y-48101250D01*
X351631250Y-50641250D02*
X351631250Y-53181250D01*
X351631250Y-50641250D02*
X349091250Y-50641250D01*
X349091250Y-81121250D02*
X366871250Y-81121250D01*
X366871250Y-81121250D02*
X366871250Y-48101250D01*
D10*
X369032885Y-57130280D02*
X369032885Y-57330280D01*
X369032885Y-57330280D02*
X369132885Y-57330280D01*
X369132885Y-57330280D02*
X369132885Y-57130280D01*
X369132885Y-57130280D02*
X369032885Y-57130280D01*
G36*
X369132885Y-57330280D02*
G01*
X369032885Y-57330280D01*
X369032885Y-57130280D01*
X369132885Y-57130280D01*
X369132885Y-57330280D01*
G37*
X369132885Y-57330280D02*
X369032885Y-57330280D01*
X369032885Y-57130280D01*
X369132885Y-57130280D01*
X369132885Y-57330280D01*
X369032885Y-56530280D02*
X369032885Y-56630280D01*
X369032885Y-56630280D02*
X369532885Y-56630280D01*
X369532885Y-56630280D02*
X369532885Y-56530280D01*
X369532885Y-56530280D02*
X369032885Y-56530280D01*
G36*
X369532885Y-56630280D02*
G01*
X369032885Y-56630280D01*
X369032885Y-56530280D01*
X369532885Y-56530280D01*
X369532885Y-56630280D01*
G37*
X369532885Y-56630280D02*
X369032885Y-56630280D01*
X369032885Y-56530280D01*
X369532885Y-56530280D01*
X369532885Y-56630280D01*
X369232885Y-56930280D02*
X369232885Y-57030280D01*
X369232885Y-57030280D02*
X369332885Y-57030280D01*
X369332885Y-57030280D02*
X369332885Y-56930280D01*
X369332885Y-56930280D02*
X369232885Y-56930280D01*
G36*
X369332885Y-57030280D02*
G01*
X369232885Y-57030280D01*
X369232885Y-56930280D01*
X369332885Y-56930280D01*
X369332885Y-57030280D01*
G37*
X369332885Y-57030280D02*
X369232885Y-57030280D01*
X369232885Y-56930280D01*
X369332885Y-56930280D01*
X369332885Y-57030280D01*
X369432885Y-56530280D02*
X369432885Y-57330280D01*
X369432885Y-57330280D02*
X369532885Y-57330280D01*
X369532885Y-57330280D02*
X369532885Y-56530280D01*
X369532885Y-56530280D02*
X369432885Y-56530280D01*
G36*
X369532885Y-57330280D02*
G01*
X369432885Y-57330280D01*
X369432885Y-56530280D01*
X369532885Y-56530280D01*
X369532885Y-57330280D01*
G37*
X369532885Y-57330280D02*
X369432885Y-57330280D01*
X369432885Y-56530280D01*
X369532885Y-56530280D01*
X369532885Y-57330280D01*
X369032885Y-56530280D02*
X369032885Y-56830280D01*
X369032885Y-56830280D02*
X369132885Y-56830280D01*
X369132885Y-56830280D02*
X369132885Y-56530280D01*
X369132885Y-56530280D02*
X369032885Y-56530280D01*
G36*
X369132885Y-56830280D02*
G01*
X369032885Y-56830280D01*
X369032885Y-56530280D01*
X369132885Y-56530280D01*
X369132885Y-56830280D01*
G37*
X369132885Y-56830280D02*
X369032885Y-56830280D01*
X369032885Y-56530280D01*
X369132885Y-56530280D01*
X369132885Y-56830280D01*
D12*
X360200000Y-120916250D02*
X356080000Y-120916250D01*
X360970000Y-119856250D02*
X360200000Y-119856250D01*
X355310000Y-119856250D02*
X356080000Y-119856250D01*
X359540000Y-118796250D02*
X359540000Y-120916250D01*
X356080000Y-120916250D02*
X356080000Y-118796250D01*
X356080000Y-118796250D02*
X360200000Y-118796250D01*
X360200000Y-118796250D02*
X360200000Y-120916250D01*
X380020000Y-82550000D02*
X379250000Y-82550000D01*
X374360000Y-82550000D02*
X375130000Y-82550000D01*
X375130000Y-81490000D02*
X379250000Y-81490000D01*
X379250000Y-81490000D02*
X379250000Y-83610000D01*
X378590000Y-81490000D02*
X378590000Y-83610000D01*
X375130000Y-83610000D02*
X375130000Y-81490000D01*
X379250000Y-83610000D02*
X375130000Y-83610000D01*
X379250000Y-124091250D02*
X375130000Y-124091250D01*
X378590000Y-121971250D02*
X378590000Y-124091250D01*
X374360000Y-123031250D02*
X375130000Y-123031250D01*
X375130000Y-124091250D02*
X375130000Y-121971250D01*
X379250000Y-121971250D02*
X379250000Y-124091250D01*
X375130000Y-121971250D02*
X379250000Y-121971250D01*
X380020000Y-123031250D02*
X379250000Y-123031250D01*
X360200000Y-86785000D02*
X356080000Y-86785000D01*
X360200000Y-84665000D02*
X360200000Y-86785000D01*
X360970000Y-85725000D02*
X360200000Y-85725000D01*
X356080000Y-86785000D02*
X356080000Y-84665000D01*
X355310000Y-85725000D02*
X356080000Y-85725000D01*
X359540000Y-84665000D02*
X359540000Y-86785000D01*
X356080000Y-84665000D02*
X360200000Y-84665000D01*
X394180000Y-100540000D02*
X398300000Y-100540000D01*
X398300000Y-100540000D02*
X398300000Y-102660000D01*
X398300000Y-102660000D02*
X394180000Y-102660000D01*
X393410000Y-101600000D02*
X394180000Y-101600000D01*
X399070000Y-101600000D02*
X398300000Y-101600000D01*
X397640000Y-100540000D02*
X397640000Y-102660000D01*
X394180000Y-102660000D02*
X394180000Y-100540000D01*
X360970000Y-123031250D02*
X360200000Y-123031250D01*
X355310000Y-123031250D02*
X356080000Y-123031250D01*
X356080000Y-121971250D02*
X360200000Y-121971250D01*
X360200000Y-124091250D02*
X356080000Y-124091250D01*
X360200000Y-121971250D02*
X360200000Y-124091250D01*
X359540000Y-121971250D02*
X359540000Y-124091250D01*
X356080000Y-124091250D02*
X356080000Y-121971250D01*
X369725000Y-141021250D02*
X369725000Y-143141250D01*
X365605000Y-143141250D02*
X365605000Y-141021250D01*
X369725000Y-143141250D02*
X365605000Y-143141250D01*
X369065000Y-141021250D02*
X369065000Y-143141250D01*
X364835000Y-142081250D02*
X365605000Y-142081250D01*
X370495000Y-142081250D02*
X369725000Y-142081250D01*
X365605000Y-141021250D02*
X369725000Y-141021250D01*
X375130000Y-105835000D02*
X375130000Y-103715000D01*
X378590000Y-103715000D02*
X378590000Y-105835000D01*
X379250000Y-105835000D02*
X375130000Y-105835000D01*
X379250000Y-103715000D02*
X379250000Y-105835000D01*
X374360000Y-104775000D02*
X375130000Y-104775000D01*
X375130000Y-103715000D02*
X379250000Y-103715000D01*
X380020000Y-104775000D02*
X379250000Y-104775000D01*
X356080000Y-81490000D02*
X360200000Y-81490000D01*
X360200000Y-81490000D02*
X360200000Y-83610000D01*
X360200000Y-83610000D02*
X356080000Y-83610000D01*
X356080000Y-83610000D02*
X356080000Y-81490000D01*
X355310000Y-82550000D02*
X356080000Y-82550000D01*
X360970000Y-82550000D02*
X360200000Y-82550000D01*
X359540000Y-81490000D02*
X359540000Y-83610000D01*
X359540000Y-103715000D02*
X359540000Y-105835000D01*
X356080000Y-105835000D02*
X356080000Y-103715000D01*
X360970000Y-104775000D02*
X360200000Y-104775000D01*
X356080000Y-103715000D02*
X360200000Y-103715000D01*
X360200000Y-103715000D02*
X360200000Y-105835000D01*
X355310000Y-104775000D02*
X356080000Y-104775000D01*
X360200000Y-105835000D02*
X356080000Y-105835000D01*
X375130000Y-118796250D02*
X379250000Y-118796250D01*
X375130000Y-120916250D02*
X375130000Y-118796250D01*
X379250000Y-118796250D02*
X379250000Y-120916250D01*
X379250000Y-120916250D02*
X375130000Y-120916250D01*
X380020000Y-119856250D02*
X379250000Y-119856250D01*
X378590000Y-118796250D02*
X378590000Y-120916250D01*
X374360000Y-119856250D02*
X375130000Y-119856250D01*
X399070000Y-65087500D02*
X398300000Y-65087500D01*
X397640000Y-64027500D02*
X397640000Y-66147500D01*
X398300000Y-64027500D02*
X398300000Y-66147500D01*
X394180000Y-66147500D02*
X394180000Y-64027500D01*
X398300000Y-66147500D02*
X394180000Y-66147500D01*
X393410000Y-65087500D02*
X394180000Y-65087500D01*
X394180000Y-64027500D02*
X398300000Y-64027500D01*
X379250000Y-65615000D02*
X379250000Y-67735000D01*
X375130000Y-67735000D02*
X375130000Y-65615000D01*
X379250000Y-67735000D02*
X375130000Y-67735000D01*
X375130000Y-65615000D02*
X379250000Y-65615000D01*
X380020000Y-66675000D02*
X379250000Y-66675000D01*
X378590000Y-65615000D02*
X378590000Y-67735000D01*
X374360000Y-66675000D02*
X375130000Y-66675000D01*
X397640000Y-103715000D02*
X397640000Y-105835000D01*
X393410000Y-104775000D02*
X394180000Y-104775000D01*
X394180000Y-105835000D02*
X394180000Y-103715000D01*
X399070000Y-104775000D02*
X398300000Y-104775000D01*
X398300000Y-105835000D02*
X394180000Y-105835000D01*
X394180000Y-103715000D02*
X398300000Y-103715000D01*
X398300000Y-103715000D02*
X398300000Y-105835000D01*
X380020000Y-85725000D02*
X379250000Y-85725000D01*
X379250000Y-84665000D02*
X379250000Y-86785000D01*
X375130000Y-86785000D02*
X375130000Y-84665000D01*
X375130000Y-84665000D02*
X379250000Y-84665000D01*
X379250000Y-86785000D02*
X375130000Y-86785000D01*
X374360000Y-85725000D02*
X375130000Y-85725000D01*
X378590000Y-84665000D02*
X378590000Y-86785000D01*
X336260000Y-104775000D02*
X337030000Y-104775000D01*
X337030000Y-103715000D02*
X341150000Y-103715000D01*
X341150000Y-103715000D02*
X341150000Y-105835000D01*
X337030000Y-105835000D02*
X337030000Y-103715000D01*
X341920000Y-104775000D02*
X341150000Y-104775000D01*
X341150000Y-105835000D02*
X337030000Y-105835000D01*
X340490000Y-103715000D02*
X340490000Y-105835000D01*
X369065000Y-129908750D02*
X369065000Y-132028750D01*
X369725000Y-132028750D02*
X365605000Y-132028750D01*
X370495000Y-130968750D02*
X369725000Y-130968750D01*
X364835000Y-130968750D02*
X365605000Y-130968750D01*
X369725000Y-129908750D02*
X369725000Y-132028750D01*
X365605000Y-132028750D02*
X365605000Y-129908750D01*
X365605000Y-129908750D02*
X369725000Y-129908750D01*
X369725000Y-137846250D02*
X369725000Y-139966250D01*
X370495000Y-138906250D02*
X369725000Y-138906250D01*
X369065000Y-137846250D02*
X369065000Y-139966250D01*
X369725000Y-139966250D02*
X365605000Y-139966250D01*
X365605000Y-137846250D02*
X369725000Y-137846250D01*
X364835000Y-138906250D02*
X365605000Y-138906250D01*
X365605000Y-139966250D02*
X365605000Y-137846250D01*
X336260000Y-65087500D02*
X337030000Y-65087500D01*
X340490000Y-64027500D02*
X340490000Y-66147500D01*
X341150000Y-66147500D02*
X337030000Y-66147500D01*
X337030000Y-66147500D02*
X337030000Y-64027500D01*
X341150000Y-64027500D02*
X341150000Y-66147500D01*
X341920000Y-65087500D02*
X341150000Y-65087500D01*
X337030000Y-64027500D02*
X341150000Y-64027500D01*
X375130000Y-62440000D02*
X379250000Y-62440000D01*
X380020000Y-63500000D02*
X379250000Y-63500000D01*
X379250000Y-64560000D02*
X375130000Y-64560000D01*
X378590000Y-62440000D02*
X378590000Y-64560000D01*
X375130000Y-64560000D02*
X375130000Y-62440000D01*
X379250000Y-62440000D02*
X379250000Y-64560000D01*
X374360000Y-63500000D02*
X375130000Y-63500000D01*
D13*
X350361250Y-51911250D03*
D14*
X350361250Y-54451250D03*
X350361250Y-56991250D03*
X350361250Y-59531250D03*
X350361250Y-62071250D03*
X350361250Y-64611250D03*
X350361250Y-67151250D03*
X350361250Y-69691250D03*
X350361250Y-72231250D03*
X350361250Y-74771250D03*
X350361250Y-77311250D03*
X350361250Y-79851250D03*
X365601250Y-79851250D03*
X365601250Y-77311250D03*
X365601250Y-74771250D03*
X365601250Y-72231250D03*
X365601250Y-69691250D03*
X365601250Y-67151250D03*
X365601250Y-64611250D03*
X365601250Y-62071250D03*
X365601250Y-59531250D03*
X365601250Y-56991250D03*
X365601250Y-54451250D03*
X365601250Y-51911250D03*
M02*
