G04 #@! TF.GenerationSoftware,KiCad,Pcbnew,(5.1.4)-1*
G04 #@! TF.CreationDate,2021-01-30T01:06:02-06:00*
G04 #@! TF.ProjectId,65Numpad,36354e75-6d70-4616-942e-6b696361645f,rev?*
G04 #@! TF.SameCoordinates,Original*
G04 #@! TF.FileFunction,Legend,Bot*
G04 #@! TF.FilePolarity,Positive*
%FSLAX46Y46*%
G04 Gerber Fmt 4.6, Leading zero omitted, Abs format (unit mm)*
G04 Created by KiCad (PCBNEW (5.1.4)-1) date 2021-01-30 01:06:02*
%MOMM*%
%LPD*%
G04 APERTURE LIST*
%ADD10C,0.381000*%
%ADD11C,0.150000*%
%ADD12C,0.120000*%
G04 APERTURE END LIST*
D10*
X351631250Y-50641250D02*
X349091250Y-50641250D01*
X366871250Y-48101250D02*
X349091250Y-48101250D01*
X349091250Y-48101250D02*
X349091250Y-81121250D01*
X349091250Y-81121250D02*
X366871250Y-81121250D01*
X366871250Y-81121250D02*
X366871250Y-48101250D01*
D11*
G36*
X363825885Y-56530280D02*
G01*
X363825885Y-56630280D01*
X364325885Y-56630280D01*
X364325885Y-56530280D01*
X363825885Y-56530280D01*
G37*
X363825885Y-56530280D02*
X363825885Y-56630280D01*
X364325885Y-56630280D01*
X364325885Y-56530280D01*
X363825885Y-56530280D01*
G36*
X363825885Y-56530280D02*
G01*
X363825885Y-56830280D01*
X363925885Y-56830280D01*
X363925885Y-56530280D01*
X363825885Y-56530280D01*
G37*
X363825885Y-56530280D02*
X363825885Y-56830280D01*
X363925885Y-56830280D01*
X363925885Y-56530280D01*
X363825885Y-56530280D01*
G36*
X363825885Y-57130280D02*
G01*
X363825885Y-57330280D01*
X363925885Y-57330280D01*
X363925885Y-57130280D01*
X363825885Y-57130280D01*
G37*
X363825885Y-57130280D02*
X363825885Y-57330280D01*
X363925885Y-57330280D01*
X363925885Y-57130280D01*
X363825885Y-57130280D01*
G36*
X364225885Y-56530280D02*
G01*
X364225885Y-57330280D01*
X364325885Y-57330280D01*
X364325885Y-56530280D01*
X364225885Y-56530280D01*
G37*
X364225885Y-56530280D02*
X364225885Y-57330280D01*
X364325885Y-57330280D01*
X364325885Y-56530280D01*
X364225885Y-56530280D01*
G36*
X364025885Y-56930280D02*
G01*
X364025885Y-57030280D01*
X364125885Y-57030280D01*
X364125885Y-56930280D01*
X364025885Y-56930280D01*
G37*
X364025885Y-56930280D02*
X364025885Y-57030280D01*
X364125885Y-57030280D01*
X364125885Y-56930280D01*
X364025885Y-56930280D01*
D10*
X351631250Y-50641250D02*
X351631250Y-53181250D01*
X351631250Y-53181250D02*
X349091250Y-53181250D01*
D12*
X379250000Y-121971250D02*
X379250000Y-124091250D01*
X379250000Y-124091250D02*
X375130000Y-124091250D01*
X375130000Y-124091250D02*
X375130000Y-121971250D01*
X375130000Y-121971250D02*
X379250000Y-121971250D01*
X380020000Y-123031250D02*
X379250000Y-123031250D01*
X374360000Y-123031250D02*
X375130000Y-123031250D01*
X378590000Y-121971250D02*
X378590000Y-124091250D01*
X369725000Y-137846250D02*
X369725000Y-139966250D01*
X369725000Y-139966250D02*
X365605000Y-139966250D01*
X365605000Y-139966250D02*
X365605000Y-137846250D01*
X365605000Y-137846250D02*
X369725000Y-137846250D01*
X370495000Y-138906250D02*
X369725000Y-138906250D01*
X364835000Y-138906250D02*
X365605000Y-138906250D01*
X369065000Y-137846250D02*
X369065000Y-139966250D01*
X369725000Y-141021250D02*
X369725000Y-143141250D01*
X369725000Y-143141250D02*
X365605000Y-143141250D01*
X365605000Y-143141250D02*
X365605000Y-141021250D01*
X365605000Y-141021250D02*
X369725000Y-141021250D01*
X370495000Y-142081250D02*
X369725000Y-142081250D01*
X364835000Y-142081250D02*
X365605000Y-142081250D01*
X369065000Y-141021250D02*
X369065000Y-143141250D01*
X360200000Y-121971250D02*
X360200000Y-124091250D01*
X360200000Y-124091250D02*
X356080000Y-124091250D01*
X356080000Y-124091250D02*
X356080000Y-121971250D01*
X356080000Y-121971250D02*
X360200000Y-121971250D01*
X360970000Y-123031250D02*
X360200000Y-123031250D01*
X355310000Y-123031250D02*
X356080000Y-123031250D01*
X359540000Y-121971250D02*
X359540000Y-124091250D01*
X398300000Y-100540000D02*
X398300000Y-102660000D01*
X398300000Y-102660000D02*
X394180000Y-102660000D01*
X394180000Y-102660000D02*
X394180000Y-100540000D01*
X394180000Y-100540000D02*
X398300000Y-100540000D01*
X399070000Y-101600000D02*
X398300000Y-101600000D01*
X393410000Y-101600000D02*
X394180000Y-101600000D01*
X397640000Y-100540000D02*
X397640000Y-102660000D01*
X379250000Y-84665000D02*
X379250000Y-86785000D01*
X379250000Y-86785000D02*
X375130000Y-86785000D01*
X375130000Y-86785000D02*
X375130000Y-84665000D01*
X375130000Y-84665000D02*
X379250000Y-84665000D01*
X380020000Y-85725000D02*
X379250000Y-85725000D01*
X374360000Y-85725000D02*
X375130000Y-85725000D01*
X378590000Y-84665000D02*
X378590000Y-86785000D01*
X369725000Y-129908750D02*
X369725000Y-132028750D01*
X369725000Y-132028750D02*
X365605000Y-132028750D01*
X365605000Y-132028750D02*
X365605000Y-129908750D01*
X365605000Y-129908750D02*
X369725000Y-129908750D01*
X370495000Y-130968750D02*
X369725000Y-130968750D01*
X364835000Y-130968750D02*
X365605000Y-130968750D01*
X369065000Y-129908750D02*
X369065000Y-132028750D01*
X379250000Y-103715000D02*
X379250000Y-105835000D01*
X379250000Y-105835000D02*
X375130000Y-105835000D01*
X375130000Y-105835000D02*
X375130000Y-103715000D01*
X375130000Y-103715000D02*
X379250000Y-103715000D01*
X380020000Y-104775000D02*
X379250000Y-104775000D01*
X374360000Y-104775000D02*
X375130000Y-104775000D01*
X378590000Y-103715000D02*
X378590000Y-105835000D01*
X379250000Y-118796250D02*
X379250000Y-120916250D01*
X379250000Y-120916250D02*
X375130000Y-120916250D01*
X375130000Y-120916250D02*
X375130000Y-118796250D01*
X375130000Y-118796250D02*
X379250000Y-118796250D01*
X380020000Y-119856250D02*
X379250000Y-119856250D01*
X374360000Y-119856250D02*
X375130000Y-119856250D01*
X378590000Y-118796250D02*
X378590000Y-120916250D01*
X360200000Y-81490000D02*
X360200000Y-83610000D01*
X360200000Y-83610000D02*
X356080000Y-83610000D01*
X356080000Y-83610000D02*
X356080000Y-81490000D01*
X356080000Y-81490000D02*
X360200000Y-81490000D01*
X360970000Y-82550000D02*
X360200000Y-82550000D01*
X355310000Y-82550000D02*
X356080000Y-82550000D01*
X359540000Y-81490000D02*
X359540000Y-83610000D01*
X398300000Y-64027500D02*
X398300000Y-66147500D01*
X398300000Y-66147500D02*
X394180000Y-66147500D01*
X394180000Y-66147500D02*
X394180000Y-64027500D01*
X394180000Y-64027500D02*
X398300000Y-64027500D01*
X399070000Y-65087500D02*
X398300000Y-65087500D01*
X393410000Y-65087500D02*
X394180000Y-65087500D01*
X397640000Y-64027500D02*
X397640000Y-66147500D01*
X379250000Y-81490000D02*
X379250000Y-83610000D01*
X379250000Y-83610000D02*
X375130000Y-83610000D01*
X375130000Y-83610000D02*
X375130000Y-81490000D01*
X375130000Y-81490000D02*
X379250000Y-81490000D01*
X380020000Y-82550000D02*
X379250000Y-82550000D01*
X374360000Y-82550000D02*
X375130000Y-82550000D01*
X378590000Y-81490000D02*
X378590000Y-83610000D01*
X360200000Y-103715000D02*
X360200000Y-105835000D01*
X360200000Y-105835000D02*
X356080000Y-105835000D01*
X356080000Y-105835000D02*
X356080000Y-103715000D01*
X356080000Y-103715000D02*
X360200000Y-103715000D01*
X360970000Y-104775000D02*
X360200000Y-104775000D01*
X355310000Y-104775000D02*
X356080000Y-104775000D01*
X359540000Y-103715000D02*
X359540000Y-105835000D01*
X341150000Y-103715000D02*
X341150000Y-105835000D01*
X341150000Y-105835000D02*
X337030000Y-105835000D01*
X337030000Y-105835000D02*
X337030000Y-103715000D01*
X337030000Y-103715000D02*
X341150000Y-103715000D01*
X341920000Y-104775000D02*
X341150000Y-104775000D01*
X336260000Y-104775000D02*
X337030000Y-104775000D01*
X340490000Y-103715000D02*
X340490000Y-105835000D01*
X379250000Y-65615000D02*
X379250000Y-67735000D01*
X379250000Y-67735000D02*
X375130000Y-67735000D01*
X375130000Y-67735000D02*
X375130000Y-65615000D01*
X375130000Y-65615000D02*
X379250000Y-65615000D01*
X380020000Y-66675000D02*
X379250000Y-66675000D01*
X374360000Y-66675000D02*
X375130000Y-66675000D01*
X378590000Y-65615000D02*
X378590000Y-67735000D01*
X360200000Y-118796250D02*
X360200000Y-120916250D01*
X360200000Y-120916250D02*
X356080000Y-120916250D01*
X356080000Y-120916250D02*
X356080000Y-118796250D01*
X356080000Y-118796250D02*
X360200000Y-118796250D01*
X360970000Y-119856250D02*
X360200000Y-119856250D01*
X355310000Y-119856250D02*
X356080000Y-119856250D01*
X359540000Y-118796250D02*
X359540000Y-120916250D01*
X360200000Y-65615000D02*
X360200000Y-67735000D01*
X360200000Y-67735000D02*
X356080000Y-67735000D01*
X356080000Y-67735000D02*
X356080000Y-65615000D01*
X356080000Y-65615000D02*
X360200000Y-65615000D01*
X360970000Y-66675000D02*
X360200000Y-66675000D01*
X355310000Y-66675000D02*
X356080000Y-66675000D01*
X359540000Y-65615000D02*
X359540000Y-67735000D01*
X398300000Y-103715000D02*
X398300000Y-105835000D01*
X398300000Y-105835000D02*
X394180000Y-105835000D01*
X394180000Y-105835000D02*
X394180000Y-103715000D01*
X394180000Y-103715000D02*
X398300000Y-103715000D01*
X399070000Y-104775000D02*
X398300000Y-104775000D01*
X393410000Y-104775000D02*
X394180000Y-104775000D01*
X397640000Y-103715000D02*
X397640000Y-105835000D01*
X360200000Y-84665000D02*
X360200000Y-86785000D01*
X360200000Y-86785000D02*
X356080000Y-86785000D01*
X356080000Y-86785000D02*
X356080000Y-84665000D01*
X356080000Y-84665000D02*
X360200000Y-84665000D01*
X360970000Y-85725000D02*
X360200000Y-85725000D01*
X355310000Y-85725000D02*
X356080000Y-85725000D01*
X359540000Y-84665000D02*
X359540000Y-86785000D01*
X341150000Y-64027500D02*
X341150000Y-66147500D01*
X341150000Y-66147500D02*
X337030000Y-66147500D01*
X337030000Y-66147500D02*
X337030000Y-64027500D01*
X337030000Y-64027500D02*
X341150000Y-64027500D01*
X341920000Y-65087500D02*
X341150000Y-65087500D01*
X336260000Y-65087500D02*
X337030000Y-65087500D01*
X340490000Y-64027500D02*
X340490000Y-66147500D01*
D11*
X356599854Y-51473154D02*
X356142711Y-51473154D01*
X356371282Y-52273154D02*
X356371282Y-51473154D01*
X355952235Y-51473154D02*
X355418901Y-52273154D01*
X355418901Y-51473154D02*
X355952235Y-52273154D01*
X354961758Y-51473154D02*
X354885568Y-51473154D01*
X354809378Y-51511250D01*
X354771282Y-51549345D01*
X354733187Y-51625535D01*
X354695092Y-51777916D01*
X354695092Y-51968392D01*
X354733187Y-52120773D01*
X354771282Y-52196964D01*
X354809378Y-52235059D01*
X354885568Y-52273154D01*
X354961758Y-52273154D01*
X355037949Y-52235059D01*
X355076044Y-52196964D01*
X355114139Y-52120773D01*
X355152235Y-51968392D01*
X355152235Y-51777916D01*
X355114139Y-51625535D01*
X355076044Y-51549345D01*
X355037949Y-51511250D01*
X354961758Y-51473154D01*
X353780806Y-51435059D02*
X354466520Y-52463630D01*
X353514139Y-52273154D02*
X353514139Y-51473154D01*
X353323663Y-51473154D01*
X353209378Y-51511250D01*
X353133187Y-51587440D01*
X353095092Y-51663630D01*
X353056997Y-51816011D01*
X353056997Y-51930297D01*
X353095092Y-52082678D01*
X353133187Y-52158869D01*
X353209378Y-52235059D01*
X353323663Y-52273154D01*
X353514139Y-52273154D01*
X352790330Y-51473154D02*
X352295092Y-51473154D01*
X352561758Y-51777916D01*
X352447473Y-51777916D01*
X352371282Y-51816011D01*
X352333187Y-51854107D01*
X352295092Y-51930297D01*
X352295092Y-52120773D01*
X352333187Y-52196964D01*
X352371282Y-52235059D01*
X352447473Y-52273154D01*
X352676044Y-52273154D01*
X352752235Y-52235059D01*
X352790330Y-52196964D01*
X356599854Y-51473154D02*
X356142711Y-51473154D01*
X356371282Y-52273154D02*
X356371282Y-51473154D01*
X355952235Y-51473154D02*
X355418901Y-52273154D01*
X355418901Y-51473154D02*
X355952235Y-52273154D01*
X354961758Y-51473154D02*
X354885568Y-51473154D01*
X354809378Y-51511250D01*
X354771282Y-51549345D01*
X354733187Y-51625535D01*
X354695092Y-51777916D01*
X354695092Y-51968392D01*
X354733187Y-52120773D01*
X354771282Y-52196964D01*
X354809378Y-52235059D01*
X354885568Y-52273154D01*
X354961758Y-52273154D01*
X355037949Y-52235059D01*
X355076044Y-52196964D01*
X355114139Y-52120773D01*
X355152235Y-51968392D01*
X355152235Y-51777916D01*
X355114139Y-51625535D01*
X355076044Y-51549345D01*
X355037949Y-51511250D01*
X354961758Y-51473154D01*
X353780806Y-51435059D02*
X354466520Y-52463630D01*
X353514139Y-52273154D02*
X353514139Y-51473154D01*
X353323663Y-51473154D01*
X353209378Y-51511250D01*
X353133187Y-51587440D01*
X353095092Y-51663630D01*
X353056997Y-51816011D01*
X353056997Y-51930297D01*
X353095092Y-52082678D01*
X353133187Y-52158869D01*
X353209378Y-52235059D01*
X353323663Y-52273154D01*
X353514139Y-52273154D01*
X352790330Y-51473154D02*
X352295092Y-51473154D01*
X352561758Y-51777916D01*
X352447473Y-51777916D01*
X352371282Y-51816011D01*
X352333187Y-51854107D01*
X352295092Y-51930297D01*
X352295092Y-52120773D01*
X352333187Y-52196964D01*
X352371282Y-52235059D01*
X352447473Y-52273154D01*
X352676044Y-52273154D01*
X352752235Y-52235059D01*
X352790330Y-52196964D01*
X353110726Y-54813154D02*
X353110726Y-54013154D01*
X352920250Y-54013154D01*
X352805964Y-54051250D01*
X352729773Y-54127440D01*
X352691678Y-54203630D01*
X352653583Y-54356011D01*
X352653583Y-54470297D01*
X352691678Y-54622678D01*
X352729773Y-54698869D01*
X352805964Y-54775059D01*
X352920250Y-54813154D01*
X353110726Y-54813154D01*
X352348821Y-54089345D02*
X352310726Y-54051250D01*
X352234535Y-54013154D01*
X352044059Y-54013154D01*
X351967869Y-54051250D01*
X351929773Y-54089345D01*
X351891678Y-54165535D01*
X351891678Y-54241726D01*
X351929773Y-54356011D01*
X352386916Y-54813154D01*
X351891678Y-54813154D01*
X353110726Y-64973154D02*
X353110726Y-64173154D01*
X352920250Y-64173154D01*
X352805964Y-64211250D01*
X352729773Y-64287440D01*
X352691678Y-64363630D01*
X352653583Y-64516011D01*
X352653583Y-64630297D01*
X352691678Y-64782678D01*
X352729773Y-64858869D01*
X352805964Y-64935059D01*
X352920250Y-64973154D01*
X353110726Y-64973154D01*
X352158345Y-64173154D02*
X352082154Y-64173154D01*
X352005964Y-64211250D01*
X351967869Y-64249345D01*
X351929773Y-64325535D01*
X351891678Y-64477916D01*
X351891678Y-64668392D01*
X351929773Y-64820773D01*
X351967869Y-64896964D01*
X352005964Y-64935059D01*
X352082154Y-64973154D01*
X352158345Y-64973154D01*
X352234535Y-64935059D01*
X352272630Y-64896964D01*
X352310726Y-64820773D01*
X352348821Y-64668392D01*
X352348821Y-64477916D01*
X352310726Y-64325535D01*
X352272630Y-64249345D01*
X352234535Y-64211250D01*
X352158345Y-64173154D01*
X353110726Y-62433154D02*
X353110726Y-61633154D01*
X352920250Y-61633154D01*
X352805964Y-61671250D01*
X352729773Y-61747440D01*
X352691678Y-61823630D01*
X352653583Y-61976011D01*
X352653583Y-62090297D01*
X352691678Y-62242678D01*
X352729773Y-62318869D01*
X352805964Y-62395059D01*
X352920250Y-62433154D01*
X353110726Y-62433154D01*
X351891678Y-62433154D02*
X352348821Y-62433154D01*
X352120250Y-62433154D02*
X352120250Y-61633154D01*
X352196440Y-61747440D01*
X352272630Y-61823630D01*
X352348821Y-61861726D01*
X353129773Y-59131250D02*
X353205964Y-59093154D01*
X353320250Y-59093154D01*
X353434535Y-59131250D01*
X353510726Y-59207440D01*
X353548821Y-59283630D01*
X353586916Y-59436011D01*
X353586916Y-59550297D01*
X353548821Y-59702678D01*
X353510726Y-59778869D01*
X353434535Y-59855059D01*
X353320250Y-59893154D01*
X353244059Y-59893154D01*
X353129773Y-59855059D01*
X353091678Y-59816964D01*
X353091678Y-59550297D01*
X353244059Y-59550297D01*
X352748821Y-59893154D02*
X352748821Y-59093154D01*
X352291678Y-59893154D01*
X352291678Y-59093154D01*
X351910726Y-59893154D02*
X351910726Y-59093154D01*
X351720250Y-59093154D01*
X351605964Y-59131250D01*
X351529773Y-59207440D01*
X351491678Y-59283630D01*
X351453583Y-59436011D01*
X351453583Y-59550297D01*
X351491678Y-59702678D01*
X351529773Y-59778869D01*
X351605964Y-59855059D01*
X351720250Y-59893154D01*
X351910726Y-59893154D01*
X353110726Y-67513154D02*
X353110726Y-66713154D01*
X352920250Y-66713154D01*
X352805964Y-66751250D01*
X352729773Y-66827440D01*
X352691678Y-66903630D01*
X352653583Y-67056011D01*
X352653583Y-67170297D01*
X352691678Y-67322678D01*
X352729773Y-67398869D01*
X352805964Y-67475059D01*
X352920250Y-67513154D01*
X353110726Y-67513154D01*
X351967869Y-66979821D02*
X351967869Y-67513154D01*
X352158345Y-66675059D02*
X352348821Y-67246488D01*
X351853583Y-67246488D01*
X352653583Y-69976964D02*
X352691678Y-70015059D01*
X352805964Y-70053154D01*
X352882154Y-70053154D01*
X352996440Y-70015059D01*
X353072630Y-69938869D01*
X353110726Y-69862678D01*
X353148821Y-69710297D01*
X353148821Y-69596011D01*
X353110726Y-69443630D01*
X353072630Y-69367440D01*
X352996440Y-69291250D01*
X352882154Y-69253154D01*
X352805964Y-69253154D01*
X352691678Y-69291250D01*
X352653583Y-69329345D01*
X351967869Y-69253154D02*
X352120250Y-69253154D01*
X352196440Y-69291250D01*
X352234535Y-69329345D01*
X352310726Y-69443630D01*
X352348821Y-69596011D01*
X352348821Y-69900773D01*
X352310726Y-69976964D01*
X352272630Y-70015059D01*
X352196440Y-70053154D01*
X352044059Y-70053154D01*
X351967869Y-70015059D01*
X351929773Y-69976964D01*
X351891678Y-69900773D01*
X351891678Y-69710297D01*
X351929773Y-69634107D01*
X351967869Y-69596011D01*
X352044059Y-69557916D01*
X352196440Y-69557916D01*
X352272630Y-69596011D01*
X352310726Y-69634107D01*
X352348821Y-69710297D01*
X353110726Y-72593154D02*
X353110726Y-71793154D01*
X352920250Y-71793154D01*
X352805964Y-71831250D01*
X352729773Y-71907440D01*
X352691678Y-71983630D01*
X352653583Y-72136011D01*
X352653583Y-72250297D01*
X352691678Y-72402678D01*
X352729773Y-72478869D01*
X352805964Y-72555059D01*
X352920250Y-72593154D01*
X353110726Y-72593154D01*
X352386916Y-71793154D02*
X351853583Y-71793154D01*
X352196440Y-72593154D01*
X353072630Y-74714107D02*
X352805964Y-74714107D01*
X352691678Y-75133154D02*
X353072630Y-75133154D01*
X353072630Y-74333154D01*
X352691678Y-74333154D01*
X352005964Y-74333154D02*
X352158345Y-74333154D01*
X352234535Y-74371250D01*
X352272630Y-74409345D01*
X352348821Y-74523630D01*
X352386916Y-74676011D01*
X352386916Y-74980773D01*
X352348821Y-75056964D01*
X352310726Y-75095059D01*
X352234535Y-75133154D01*
X352082154Y-75133154D01*
X352005964Y-75095059D01*
X351967869Y-75056964D01*
X351929773Y-74980773D01*
X351929773Y-74790297D01*
X351967869Y-74714107D01*
X352005964Y-74676011D01*
X352082154Y-74637916D01*
X352234535Y-74637916D01*
X352310726Y-74676011D01*
X352348821Y-74714107D01*
X352386916Y-74790297D01*
X352844059Y-77254107D02*
X352729773Y-77292202D01*
X352691678Y-77330297D01*
X352653583Y-77406488D01*
X352653583Y-77520773D01*
X352691678Y-77596964D01*
X352729773Y-77635059D01*
X352805964Y-77673154D01*
X353110726Y-77673154D01*
X353110726Y-76873154D01*
X352844059Y-76873154D01*
X352767869Y-76911250D01*
X352729773Y-76949345D01*
X352691678Y-77025535D01*
X352691678Y-77101726D01*
X352729773Y-77177916D01*
X352767869Y-77216011D01*
X352844059Y-77254107D01*
X353110726Y-77254107D01*
X351967869Y-77139821D02*
X351967869Y-77673154D01*
X352158345Y-76835059D02*
X352348821Y-77406488D01*
X351853583Y-77406488D01*
X352844059Y-79794107D02*
X352729773Y-79832202D01*
X352691678Y-79870297D01*
X352653583Y-79946488D01*
X352653583Y-80060773D01*
X352691678Y-80136964D01*
X352729773Y-80175059D01*
X352805964Y-80213154D01*
X353110726Y-80213154D01*
X353110726Y-79413154D01*
X352844059Y-79413154D01*
X352767869Y-79451250D01*
X352729773Y-79489345D01*
X352691678Y-79565535D01*
X352691678Y-79641726D01*
X352729773Y-79717916D01*
X352767869Y-79756011D01*
X352844059Y-79794107D01*
X353110726Y-79794107D01*
X351929773Y-79413154D02*
X352310726Y-79413154D01*
X352348821Y-79794107D01*
X352310726Y-79756011D01*
X352234535Y-79717916D01*
X352044059Y-79717916D01*
X351967869Y-79756011D01*
X351929773Y-79794107D01*
X351891678Y-79870297D01*
X351891678Y-80060773D01*
X351929773Y-80136964D01*
X351967869Y-80175059D01*
X352044059Y-80213154D01*
X352234535Y-80213154D01*
X352310726Y-80175059D01*
X352348821Y-80136964D01*
X363766059Y-79794107D02*
X363651773Y-79832202D01*
X363613678Y-79870297D01*
X363575583Y-79946488D01*
X363575583Y-80060773D01*
X363613678Y-80136964D01*
X363651773Y-80175059D01*
X363727964Y-80213154D01*
X364032726Y-80213154D01*
X364032726Y-79413154D01*
X363766059Y-79413154D01*
X363689869Y-79451250D01*
X363651773Y-79489345D01*
X363613678Y-79565535D01*
X363613678Y-79641726D01*
X363651773Y-79717916D01*
X363689869Y-79756011D01*
X363766059Y-79794107D01*
X364032726Y-79794107D01*
X362889869Y-79413154D02*
X363042250Y-79413154D01*
X363118440Y-79451250D01*
X363156535Y-79489345D01*
X363232726Y-79603630D01*
X363270821Y-79756011D01*
X363270821Y-80060773D01*
X363232726Y-80136964D01*
X363194630Y-80175059D01*
X363118440Y-80213154D01*
X362966059Y-80213154D01*
X362889869Y-80175059D01*
X362851773Y-80136964D01*
X362813678Y-80060773D01*
X362813678Y-79870297D01*
X362851773Y-79794107D01*
X362889869Y-79756011D01*
X362966059Y-79717916D01*
X363118440Y-79717916D01*
X363194630Y-79756011D01*
X363232726Y-79794107D01*
X363270821Y-79870297D01*
X363766059Y-74714107D02*
X363651773Y-74752202D01*
X363613678Y-74790297D01*
X363575583Y-74866488D01*
X363575583Y-74980773D01*
X363613678Y-75056964D01*
X363651773Y-75095059D01*
X363727964Y-75133154D01*
X364032726Y-75133154D01*
X364032726Y-74333154D01*
X363766059Y-74333154D01*
X363689869Y-74371250D01*
X363651773Y-74409345D01*
X363613678Y-74485535D01*
X363613678Y-74561726D01*
X363651773Y-74637916D01*
X363689869Y-74676011D01*
X363766059Y-74714107D01*
X364032726Y-74714107D01*
X363308916Y-74333154D02*
X362813678Y-74333154D01*
X363080345Y-74637916D01*
X362966059Y-74637916D01*
X362889869Y-74676011D01*
X362851773Y-74714107D01*
X362813678Y-74790297D01*
X362813678Y-74980773D01*
X362851773Y-75056964D01*
X362889869Y-75095059D01*
X362966059Y-75133154D01*
X363194630Y-75133154D01*
X363270821Y-75095059D01*
X363308916Y-75056964D01*
X363766059Y-72174107D02*
X363651773Y-72212202D01*
X363613678Y-72250297D01*
X363575583Y-72326488D01*
X363575583Y-72440773D01*
X363613678Y-72516964D01*
X363651773Y-72555059D01*
X363727964Y-72593154D01*
X364032726Y-72593154D01*
X364032726Y-71793154D01*
X363766059Y-71793154D01*
X363689869Y-71831250D01*
X363651773Y-71869345D01*
X363613678Y-71945535D01*
X363613678Y-72021726D01*
X363651773Y-72097916D01*
X363689869Y-72136011D01*
X363766059Y-72174107D01*
X364032726Y-72174107D01*
X362813678Y-72593154D02*
X363270821Y-72593154D01*
X363042250Y-72593154D02*
X363042250Y-71793154D01*
X363118440Y-71907440D01*
X363194630Y-71983630D01*
X363270821Y-72021726D01*
X363708916Y-62014107D02*
X363975583Y-62014107D01*
X363975583Y-62433154D02*
X363975583Y-61633154D01*
X363594630Y-61633154D01*
X362947011Y-61899821D02*
X362947011Y-62433154D01*
X363137488Y-61595059D02*
X363327964Y-62166488D01*
X362832726Y-62166488D01*
X364508916Y-59093154D02*
X364242250Y-59893154D01*
X363975583Y-59093154D01*
X363251773Y-59816964D02*
X363289869Y-59855059D01*
X363404154Y-59893154D01*
X363480345Y-59893154D01*
X363594630Y-59855059D01*
X363670821Y-59778869D01*
X363708916Y-59702678D01*
X363747011Y-59550297D01*
X363747011Y-59436011D01*
X363708916Y-59283630D01*
X363670821Y-59207440D01*
X363594630Y-59131250D01*
X363480345Y-59093154D01*
X363404154Y-59093154D01*
X363289869Y-59131250D01*
X363251773Y-59169345D01*
X362451773Y-59816964D02*
X362489869Y-59855059D01*
X362604154Y-59893154D01*
X362680345Y-59893154D01*
X362794630Y-59855059D01*
X362870821Y-59778869D01*
X362908916Y-59702678D01*
X362947011Y-59550297D01*
X362947011Y-59436011D01*
X362908916Y-59283630D01*
X362870821Y-59207440D01*
X362794630Y-59131250D01*
X362680345Y-59093154D01*
X362604154Y-59093154D01*
X362489869Y-59131250D01*
X362451773Y-59169345D01*
X363994630Y-52273154D02*
X364261297Y-51892202D01*
X364451773Y-52273154D02*
X364451773Y-51473154D01*
X364147011Y-51473154D01*
X364070821Y-51511250D01*
X364032726Y-51549345D01*
X363994630Y-51625535D01*
X363994630Y-51739821D01*
X364032726Y-51816011D01*
X364070821Y-51854107D01*
X364147011Y-51892202D01*
X364451773Y-51892202D01*
X363689869Y-52044583D02*
X363308916Y-52044583D01*
X363766059Y-52273154D02*
X363499392Y-51473154D01*
X363232726Y-52273154D01*
X363042250Y-51473154D02*
X362851773Y-52273154D01*
X362699392Y-51701726D01*
X362547011Y-52273154D01*
X362356535Y-51473154D01*
X363994630Y-52273154D02*
X364261297Y-51892202D01*
X364451773Y-52273154D02*
X364451773Y-51473154D01*
X364147011Y-51473154D01*
X364070821Y-51511250D01*
X364032726Y-51549345D01*
X363994630Y-51625535D01*
X363994630Y-51739821D01*
X364032726Y-51816011D01*
X364070821Y-51854107D01*
X364147011Y-51892202D01*
X364451773Y-51892202D01*
X363689869Y-52044583D02*
X363308916Y-52044583D01*
X363766059Y-52273154D02*
X363499392Y-51473154D01*
X363232726Y-52273154D01*
X363042250Y-51473154D02*
X362851773Y-52273154D01*
X362699392Y-51701726D01*
X362547011Y-52273154D01*
X362356535Y-51473154D01*
X364051773Y-54051250D02*
X364127964Y-54013154D01*
X364242250Y-54013154D01*
X364356535Y-54051250D01*
X364432726Y-54127440D01*
X364470821Y-54203630D01*
X364508916Y-54356011D01*
X364508916Y-54470297D01*
X364470821Y-54622678D01*
X364432726Y-54698869D01*
X364356535Y-54775059D01*
X364242250Y-54813154D01*
X364166059Y-54813154D01*
X364051773Y-54775059D01*
X364013678Y-54736964D01*
X364013678Y-54470297D01*
X364166059Y-54470297D01*
X363670821Y-54813154D02*
X363670821Y-54013154D01*
X363213678Y-54813154D01*
X363213678Y-54013154D01*
X362832726Y-54813154D02*
X362832726Y-54013154D01*
X362642250Y-54013154D01*
X362527964Y-54051250D01*
X362451773Y-54127440D01*
X362413678Y-54203630D01*
X362375583Y-54356011D01*
X362375583Y-54470297D01*
X362413678Y-54622678D01*
X362451773Y-54698869D01*
X362527964Y-54775059D01*
X362642250Y-54813154D01*
X362832726Y-54813154D01*
X364508916Y-59093154D02*
X364242250Y-59893154D01*
X363975583Y-59093154D01*
X363251773Y-59816964D02*
X363289869Y-59855059D01*
X363404154Y-59893154D01*
X363480345Y-59893154D01*
X363594630Y-59855059D01*
X363670821Y-59778869D01*
X363708916Y-59702678D01*
X363747011Y-59550297D01*
X363747011Y-59436011D01*
X363708916Y-59283630D01*
X363670821Y-59207440D01*
X363594630Y-59131250D01*
X363480345Y-59093154D01*
X363404154Y-59093154D01*
X363289869Y-59131250D01*
X363251773Y-59169345D01*
X362451773Y-59816964D02*
X362489869Y-59855059D01*
X362604154Y-59893154D01*
X362680345Y-59893154D01*
X362794630Y-59855059D01*
X362870821Y-59778869D01*
X362908916Y-59702678D01*
X362947011Y-59550297D01*
X362947011Y-59436011D01*
X362908916Y-59283630D01*
X362870821Y-59207440D01*
X362794630Y-59131250D01*
X362680345Y-59093154D01*
X362604154Y-59093154D01*
X362489869Y-59131250D01*
X362451773Y-59169345D01*
X363708916Y-62014107D02*
X363975583Y-62014107D01*
X363975583Y-62433154D02*
X363975583Y-61633154D01*
X363594630Y-61633154D01*
X362947011Y-61899821D02*
X362947011Y-62433154D01*
X363137488Y-61595059D02*
X363327964Y-62166488D01*
X362832726Y-62166488D01*
X363766059Y-72174107D02*
X363651773Y-72212202D01*
X363613678Y-72250297D01*
X363575583Y-72326488D01*
X363575583Y-72440773D01*
X363613678Y-72516964D01*
X363651773Y-72555059D01*
X363727964Y-72593154D01*
X364032726Y-72593154D01*
X364032726Y-71793154D01*
X363766059Y-71793154D01*
X363689869Y-71831250D01*
X363651773Y-71869345D01*
X363613678Y-71945535D01*
X363613678Y-72021726D01*
X363651773Y-72097916D01*
X363689869Y-72136011D01*
X363766059Y-72174107D01*
X364032726Y-72174107D01*
X362813678Y-72593154D02*
X363270821Y-72593154D01*
X363042250Y-72593154D02*
X363042250Y-71793154D01*
X363118440Y-71907440D01*
X363194630Y-71983630D01*
X363270821Y-72021726D01*
X363766059Y-74714107D02*
X363651773Y-74752202D01*
X363613678Y-74790297D01*
X363575583Y-74866488D01*
X363575583Y-74980773D01*
X363613678Y-75056964D01*
X363651773Y-75095059D01*
X363727964Y-75133154D01*
X364032726Y-75133154D01*
X364032726Y-74333154D01*
X363766059Y-74333154D01*
X363689869Y-74371250D01*
X363651773Y-74409345D01*
X363613678Y-74485535D01*
X363613678Y-74561726D01*
X363651773Y-74637916D01*
X363689869Y-74676011D01*
X363766059Y-74714107D01*
X364032726Y-74714107D01*
X363308916Y-74333154D02*
X362813678Y-74333154D01*
X363080345Y-74637916D01*
X362966059Y-74637916D01*
X362889869Y-74676011D01*
X362851773Y-74714107D01*
X362813678Y-74790297D01*
X362813678Y-74980773D01*
X362851773Y-75056964D01*
X362889869Y-75095059D01*
X362966059Y-75133154D01*
X363194630Y-75133154D01*
X363270821Y-75095059D01*
X363308916Y-75056964D01*
X363766059Y-79794107D02*
X363651773Y-79832202D01*
X363613678Y-79870297D01*
X363575583Y-79946488D01*
X363575583Y-80060773D01*
X363613678Y-80136964D01*
X363651773Y-80175059D01*
X363727964Y-80213154D01*
X364032726Y-80213154D01*
X364032726Y-79413154D01*
X363766059Y-79413154D01*
X363689869Y-79451250D01*
X363651773Y-79489345D01*
X363613678Y-79565535D01*
X363613678Y-79641726D01*
X363651773Y-79717916D01*
X363689869Y-79756011D01*
X363766059Y-79794107D01*
X364032726Y-79794107D01*
X362889869Y-79413154D02*
X363042250Y-79413154D01*
X363118440Y-79451250D01*
X363156535Y-79489345D01*
X363232726Y-79603630D01*
X363270821Y-79756011D01*
X363270821Y-80060773D01*
X363232726Y-80136964D01*
X363194630Y-80175059D01*
X363118440Y-80213154D01*
X362966059Y-80213154D01*
X362889869Y-80175059D01*
X362851773Y-80136964D01*
X362813678Y-80060773D01*
X362813678Y-79870297D01*
X362851773Y-79794107D01*
X362889869Y-79756011D01*
X362966059Y-79717916D01*
X363118440Y-79717916D01*
X363194630Y-79756011D01*
X363232726Y-79794107D01*
X363270821Y-79870297D01*
X352844059Y-79794107D02*
X352729773Y-79832202D01*
X352691678Y-79870297D01*
X352653583Y-79946488D01*
X352653583Y-80060773D01*
X352691678Y-80136964D01*
X352729773Y-80175059D01*
X352805964Y-80213154D01*
X353110726Y-80213154D01*
X353110726Y-79413154D01*
X352844059Y-79413154D01*
X352767869Y-79451250D01*
X352729773Y-79489345D01*
X352691678Y-79565535D01*
X352691678Y-79641726D01*
X352729773Y-79717916D01*
X352767869Y-79756011D01*
X352844059Y-79794107D01*
X353110726Y-79794107D01*
X351929773Y-79413154D02*
X352310726Y-79413154D01*
X352348821Y-79794107D01*
X352310726Y-79756011D01*
X352234535Y-79717916D01*
X352044059Y-79717916D01*
X351967869Y-79756011D01*
X351929773Y-79794107D01*
X351891678Y-79870297D01*
X351891678Y-80060773D01*
X351929773Y-80136964D01*
X351967869Y-80175059D01*
X352044059Y-80213154D01*
X352234535Y-80213154D01*
X352310726Y-80175059D01*
X352348821Y-80136964D01*
X352844059Y-77254107D02*
X352729773Y-77292202D01*
X352691678Y-77330297D01*
X352653583Y-77406488D01*
X352653583Y-77520773D01*
X352691678Y-77596964D01*
X352729773Y-77635059D01*
X352805964Y-77673154D01*
X353110726Y-77673154D01*
X353110726Y-76873154D01*
X352844059Y-76873154D01*
X352767869Y-76911250D01*
X352729773Y-76949345D01*
X352691678Y-77025535D01*
X352691678Y-77101726D01*
X352729773Y-77177916D01*
X352767869Y-77216011D01*
X352844059Y-77254107D01*
X353110726Y-77254107D01*
X351967869Y-77139821D02*
X351967869Y-77673154D01*
X352158345Y-76835059D02*
X352348821Y-77406488D01*
X351853583Y-77406488D01*
X353072630Y-74714107D02*
X352805964Y-74714107D01*
X352691678Y-75133154D02*
X353072630Y-75133154D01*
X353072630Y-74333154D01*
X352691678Y-74333154D01*
X352005964Y-74333154D02*
X352158345Y-74333154D01*
X352234535Y-74371250D01*
X352272630Y-74409345D01*
X352348821Y-74523630D01*
X352386916Y-74676011D01*
X352386916Y-74980773D01*
X352348821Y-75056964D01*
X352310726Y-75095059D01*
X352234535Y-75133154D01*
X352082154Y-75133154D01*
X352005964Y-75095059D01*
X351967869Y-75056964D01*
X351929773Y-74980773D01*
X351929773Y-74790297D01*
X351967869Y-74714107D01*
X352005964Y-74676011D01*
X352082154Y-74637916D01*
X352234535Y-74637916D01*
X352310726Y-74676011D01*
X352348821Y-74714107D01*
X352386916Y-74790297D01*
X353110726Y-72593154D02*
X353110726Y-71793154D01*
X352920250Y-71793154D01*
X352805964Y-71831250D01*
X352729773Y-71907440D01*
X352691678Y-71983630D01*
X352653583Y-72136011D01*
X352653583Y-72250297D01*
X352691678Y-72402678D01*
X352729773Y-72478869D01*
X352805964Y-72555059D01*
X352920250Y-72593154D01*
X353110726Y-72593154D01*
X352386916Y-71793154D02*
X351853583Y-71793154D01*
X352196440Y-72593154D01*
X352653583Y-69976964D02*
X352691678Y-70015059D01*
X352805964Y-70053154D01*
X352882154Y-70053154D01*
X352996440Y-70015059D01*
X353072630Y-69938869D01*
X353110726Y-69862678D01*
X353148821Y-69710297D01*
X353148821Y-69596011D01*
X353110726Y-69443630D01*
X353072630Y-69367440D01*
X352996440Y-69291250D01*
X352882154Y-69253154D01*
X352805964Y-69253154D01*
X352691678Y-69291250D01*
X352653583Y-69329345D01*
X351967869Y-69253154D02*
X352120250Y-69253154D01*
X352196440Y-69291250D01*
X352234535Y-69329345D01*
X352310726Y-69443630D01*
X352348821Y-69596011D01*
X352348821Y-69900773D01*
X352310726Y-69976964D01*
X352272630Y-70015059D01*
X352196440Y-70053154D01*
X352044059Y-70053154D01*
X351967869Y-70015059D01*
X351929773Y-69976964D01*
X351891678Y-69900773D01*
X351891678Y-69710297D01*
X351929773Y-69634107D01*
X351967869Y-69596011D01*
X352044059Y-69557916D01*
X352196440Y-69557916D01*
X352272630Y-69596011D01*
X352310726Y-69634107D01*
X352348821Y-69710297D01*
X353110726Y-67513154D02*
X353110726Y-66713154D01*
X352920250Y-66713154D01*
X352805964Y-66751250D01*
X352729773Y-66827440D01*
X352691678Y-66903630D01*
X352653583Y-67056011D01*
X352653583Y-67170297D01*
X352691678Y-67322678D01*
X352729773Y-67398869D01*
X352805964Y-67475059D01*
X352920250Y-67513154D01*
X353110726Y-67513154D01*
X351967869Y-66979821D02*
X351967869Y-67513154D01*
X352158345Y-66675059D02*
X352348821Y-67246488D01*
X351853583Y-67246488D01*
X353129773Y-56591250D02*
X353205964Y-56553154D01*
X353320250Y-56553154D01*
X353434535Y-56591250D01*
X353510726Y-56667440D01*
X353548821Y-56743630D01*
X353586916Y-56896011D01*
X353586916Y-57010297D01*
X353548821Y-57162678D01*
X353510726Y-57238869D01*
X353434535Y-57315059D01*
X353320250Y-57353154D01*
X353244059Y-57353154D01*
X353129773Y-57315059D01*
X353091678Y-57276964D01*
X353091678Y-57010297D01*
X353244059Y-57010297D01*
X352748821Y-57353154D02*
X352748821Y-56553154D01*
X352291678Y-57353154D01*
X352291678Y-56553154D01*
X351910726Y-57353154D02*
X351910726Y-56553154D01*
X351720250Y-56553154D01*
X351605964Y-56591250D01*
X351529773Y-56667440D01*
X351491678Y-56743630D01*
X351453583Y-56896011D01*
X351453583Y-57010297D01*
X351491678Y-57162678D01*
X351529773Y-57238869D01*
X351605964Y-57315059D01*
X351720250Y-57353154D01*
X351910726Y-57353154D01*
X353129773Y-59131250D02*
X353205964Y-59093154D01*
X353320250Y-59093154D01*
X353434535Y-59131250D01*
X353510726Y-59207440D01*
X353548821Y-59283630D01*
X353586916Y-59436011D01*
X353586916Y-59550297D01*
X353548821Y-59702678D01*
X353510726Y-59778869D01*
X353434535Y-59855059D01*
X353320250Y-59893154D01*
X353244059Y-59893154D01*
X353129773Y-59855059D01*
X353091678Y-59816964D01*
X353091678Y-59550297D01*
X353244059Y-59550297D01*
X352748821Y-59893154D02*
X352748821Y-59093154D01*
X352291678Y-59893154D01*
X352291678Y-59093154D01*
X351910726Y-59893154D02*
X351910726Y-59093154D01*
X351720250Y-59093154D01*
X351605964Y-59131250D01*
X351529773Y-59207440D01*
X351491678Y-59283630D01*
X351453583Y-59436011D01*
X351453583Y-59550297D01*
X351491678Y-59702678D01*
X351529773Y-59778869D01*
X351605964Y-59855059D01*
X351720250Y-59893154D01*
X351910726Y-59893154D01*
X353110726Y-62433154D02*
X353110726Y-61633154D01*
X352920250Y-61633154D01*
X352805964Y-61671250D01*
X352729773Y-61747440D01*
X352691678Y-61823630D01*
X352653583Y-61976011D01*
X352653583Y-62090297D01*
X352691678Y-62242678D01*
X352729773Y-62318869D01*
X352805964Y-62395059D01*
X352920250Y-62433154D01*
X353110726Y-62433154D01*
X351891678Y-62433154D02*
X352348821Y-62433154D01*
X352120250Y-62433154D02*
X352120250Y-61633154D01*
X352196440Y-61747440D01*
X352272630Y-61823630D01*
X352348821Y-61861726D01*
X353110726Y-64973154D02*
X353110726Y-64173154D01*
X352920250Y-64173154D01*
X352805964Y-64211250D01*
X352729773Y-64287440D01*
X352691678Y-64363630D01*
X352653583Y-64516011D01*
X352653583Y-64630297D01*
X352691678Y-64782678D01*
X352729773Y-64858869D01*
X352805964Y-64935059D01*
X352920250Y-64973154D01*
X353110726Y-64973154D01*
X352158345Y-64173154D02*
X352082154Y-64173154D01*
X352005964Y-64211250D01*
X351967869Y-64249345D01*
X351929773Y-64325535D01*
X351891678Y-64477916D01*
X351891678Y-64668392D01*
X351929773Y-64820773D01*
X351967869Y-64896964D01*
X352005964Y-64935059D01*
X352082154Y-64973154D01*
X352158345Y-64973154D01*
X352234535Y-64935059D01*
X352272630Y-64896964D01*
X352310726Y-64820773D01*
X352348821Y-64668392D01*
X352348821Y-64477916D01*
X352310726Y-64325535D01*
X352272630Y-64249345D01*
X352234535Y-64211250D01*
X352158345Y-64173154D01*
X353110726Y-54813154D02*
X353110726Y-54013154D01*
X352920250Y-54013154D01*
X352805964Y-54051250D01*
X352729773Y-54127440D01*
X352691678Y-54203630D01*
X352653583Y-54356011D01*
X352653583Y-54470297D01*
X352691678Y-54622678D01*
X352729773Y-54698869D01*
X352805964Y-54775059D01*
X352920250Y-54813154D01*
X353110726Y-54813154D01*
X352348821Y-54089345D02*
X352310726Y-54051250D01*
X352234535Y-54013154D01*
X352044059Y-54013154D01*
X351967869Y-54051250D01*
X351929773Y-54089345D01*
X351891678Y-54165535D01*
X351891678Y-54241726D01*
X351929773Y-54356011D01*
X352386916Y-54813154D01*
X351891678Y-54813154D01*
X378404285Y-121423630D02*
X378404285Y-120423630D01*
X378166190Y-120423630D01*
X378023333Y-120471250D01*
X377928095Y-120566488D01*
X377880476Y-120661726D01*
X377832857Y-120852202D01*
X377832857Y-120995059D01*
X377880476Y-121185535D01*
X377928095Y-121280773D01*
X378023333Y-121376011D01*
X378166190Y-121423630D01*
X378404285Y-121423630D01*
X377261428Y-120852202D02*
X377356666Y-120804583D01*
X377404285Y-120756964D01*
X377451904Y-120661726D01*
X377451904Y-120614107D01*
X377404285Y-120518869D01*
X377356666Y-120471250D01*
X377261428Y-120423630D01*
X377070952Y-120423630D01*
X376975714Y-120471250D01*
X376928095Y-120518869D01*
X376880476Y-120614107D01*
X376880476Y-120661726D01*
X376928095Y-120756964D01*
X376975714Y-120804583D01*
X377070952Y-120852202D01*
X377261428Y-120852202D01*
X377356666Y-120899821D01*
X377404285Y-120947440D01*
X377451904Y-121042678D01*
X377451904Y-121233154D01*
X377404285Y-121328392D01*
X377356666Y-121376011D01*
X377261428Y-121423630D01*
X377070952Y-121423630D01*
X376975714Y-121376011D01*
X376928095Y-121328392D01*
X376880476Y-121233154D01*
X376880476Y-121042678D01*
X376928095Y-120947440D01*
X376975714Y-120899821D01*
X377070952Y-120852202D01*
X375975714Y-120423630D02*
X376451904Y-120423630D01*
X376499523Y-120899821D01*
X376451904Y-120852202D01*
X376356666Y-120804583D01*
X376118571Y-120804583D01*
X376023333Y-120852202D01*
X375975714Y-120899821D01*
X375928095Y-120995059D01*
X375928095Y-121233154D01*
X375975714Y-121328392D01*
X376023333Y-121376011D01*
X376118571Y-121423630D01*
X376356666Y-121423630D01*
X376451904Y-121376011D01*
X376499523Y-121328392D01*
X368879285Y-137298630D02*
X368879285Y-136298630D01*
X368641190Y-136298630D01*
X368498333Y-136346250D01*
X368403095Y-136441488D01*
X368355476Y-136536726D01*
X368307857Y-136727202D01*
X368307857Y-136870059D01*
X368355476Y-137060535D01*
X368403095Y-137155773D01*
X368498333Y-137251011D01*
X368641190Y-137298630D01*
X368879285Y-137298630D01*
X367736428Y-136727202D02*
X367831666Y-136679583D01*
X367879285Y-136631964D01*
X367926904Y-136536726D01*
X367926904Y-136489107D01*
X367879285Y-136393869D01*
X367831666Y-136346250D01*
X367736428Y-136298630D01*
X367545952Y-136298630D01*
X367450714Y-136346250D01*
X367403095Y-136393869D01*
X367355476Y-136489107D01*
X367355476Y-136536726D01*
X367403095Y-136631964D01*
X367450714Y-136679583D01*
X367545952Y-136727202D01*
X367736428Y-136727202D01*
X367831666Y-136774821D01*
X367879285Y-136822440D01*
X367926904Y-136917678D01*
X367926904Y-137108154D01*
X367879285Y-137203392D01*
X367831666Y-137251011D01*
X367736428Y-137298630D01*
X367545952Y-137298630D01*
X367450714Y-137251011D01*
X367403095Y-137203392D01*
X367355476Y-137108154D01*
X367355476Y-136917678D01*
X367403095Y-136822440D01*
X367450714Y-136774821D01*
X367545952Y-136727202D01*
X366498333Y-136631964D02*
X366498333Y-137298630D01*
X366736428Y-136251011D02*
X366974523Y-136965297D01*
X366355476Y-136965297D01*
X368879285Y-140473630D02*
X368879285Y-139473630D01*
X368641190Y-139473630D01*
X368498333Y-139521250D01*
X368403095Y-139616488D01*
X368355476Y-139711726D01*
X368307857Y-139902202D01*
X368307857Y-140045059D01*
X368355476Y-140235535D01*
X368403095Y-140330773D01*
X368498333Y-140426011D01*
X368641190Y-140473630D01*
X368879285Y-140473630D01*
X367736428Y-139902202D02*
X367831666Y-139854583D01*
X367879285Y-139806964D01*
X367926904Y-139711726D01*
X367926904Y-139664107D01*
X367879285Y-139568869D01*
X367831666Y-139521250D01*
X367736428Y-139473630D01*
X367545952Y-139473630D01*
X367450714Y-139521250D01*
X367403095Y-139568869D01*
X367355476Y-139664107D01*
X367355476Y-139711726D01*
X367403095Y-139806964D01*
X367450714Y-139854583D01*
X367545952Y-139902202D01*
X367736428Y-139902202D01*
X367831666Y-139949821D01*
X367879285Y-139997440D01*
X367926904Y-140092678D01*
X367926904Y-140283154D01*
X367879285Y-140378392D01*
X367831666Y-140426011D01*
X367736428Y-140473630D01*
X367545952Y-140473630D01*
X367450714Y-140426011D01*
X367403095Y-140378392D01*
X367355476Y-140283154D01*
X367355476Y-140092678D01*
X367403095Y-139997440D01*
X367450714Y-139949821D01*
X367545952Y-139902202D01*
X367022142Y-139473630D02*
X366403095Y-139473630D01*
X366736428Y-139854583D01*
X366593571Y-139854583D01*
X366498333Y-139902202D01*
X366450714Y-139949821D01*
X366403095Y-140045059D01*
X366403095Y-140283154D01*
X366450714Y-140378392D01*
X366498333Y-140426011D01*
X366593571Y-140473630D01*
X366879285Y-140473630D01*
X366974523Y-140426011D01*
X367022142Y-140378392D01*
X359354285Y-121423630D02*
X359354285Y-120423630D01*
X359116190Y-120423630D01*
X358973333Y-120471250D01*
X358878095Y-120566488D01*
X358830476Y-120661726D01*
X358782857Y-120852202D01*
X358782857Y-120995059D01*
X358830476Y-121185535D01*
X358878095Y-121280773D01*
X358973333Y-121376011D01*
X359116190Y-121423630D01*
X359354285Y-121423630D01*
X358211428Y-120852202D02*
X358306666Y-120804583D01*
X358354285Y-120756964D01*
X358401904Y-120661726D01*
X358401904Y-120614107D01*
X358354285Y-120518869D01*
X358306666Y-120471250D01*
X358211428Y-120423630D01*
X358020952Y-120423630D01*
X357925714Y-120471250D01*
X357878095Y-120518869D01*
X357830476Y-120614107D01*
X357830476Y-120661726D01*
X357878095Y-120756964D01*
X357925714Y-120804583D01*
X358020952Y-120852202D01*
X358211428Y-120852202D01*
X358306666Y-120899821D01*
X358354285Y-120947440D01*
X358401904Y-121042678D01*
X358401904Y-121233154D01*
X358354285Y-121328392D01*
X358306666Y-121376011D01*
X358211428Y-121423630D01*
X358020952Y-121423630D01*
X357925714Y-121376011D01*
X357878095Y-121328392D01*
X357830476Y-121233154D01*
X357830476Y-121042678D01*
X357878095Y-120947440D01*
X357925714Y-120899821D01*
X358020952Y-120852202D01*
X357211428Y-120423630D02*
X357116190Y-120423630D01*
X357020952Y-120471250D01*
X356973333Y-120518869D01*
X356925714Y-120614107D01*
X356878095Y-120804583D01*
X356878095Y-121042678D01*
X356925714Y-121233154D01*
X356973333Y-121328392D01*
X357020952Y-121376011D01*
X357116190Y-121423630D01*
X357211428Y-121423630D01*
X357306666Y-121376011D01*
X357354285Y-121328392D01*
X357401904Y-121233154D01*
X357449523Y-121042678D01*
X357449523Y-120804583D01*
X357401904Y-120614107D01*
X357354285Y-120518869D01*
X357306666Y-120471250D01*
X357211428Y-120423630D01*
X397454285Y-99992380D02*
X397454285Y-98992380D01*
X397216190Y-98992380D01*
X397073333Y-99040000D01*
X396978095Y-99135238D01*
X396930476Y-99230476D01*
X396882857Y-99420952D01*
X396882857Y-99563809D01*
X396930476Y-99754285D01*
X396978095Y-99849523D01*
X397073333Y-99944761D01*
X397216190Y-99992380D01*
X397454285Y-99992380D01*
X396549523Y-98992380D02*
X395882857Y-98992380D01*
X396311428Y-99992380D01*
X395454285Y-99992380D02*
X395263809Y-99992380D01*
X395168571Y-99944761D01*
X395120952Y-99897142D01*
X395025714Y-99754285D01*
X394978095Y-99563809D01*
X394978095Y-99182857D01*
X395025714Y-99087619D01*
X395073333Y-99040000D01*
X395168571Y-98992380D01*
X395359047Y-98992380D01*
X395454285Y-99040000D01*
X395501904Y-99087619D01*
X395549523Y-99182857D01*
X395549523Y-99420952D01*
X395501904Y-99516190D01*
X395454285Y-99563809D01*
X395359047Y-99611428D01*
X395168571Y-99611428D01*
X395073333Y-99563809D01*
X395025714Y-99516190D01*
X394978095Y-99420952D01*
X378404285Y-84117380D02*
X378404285Y-83117380D01*
X378166190Y-83117380D01*
X378023333Y-83165000D01*
X377928095Y-83260238D01*
X377880476Y-83355476D01*
X377832857Y-83545952D01*
X377832857Y-83688809D01*
X377880476Y-83879285D01*
X377928095Y-83974523D01*
X378023333Y-84069761D01*
X378166190Y-84117380D01*
X378404285Y-84117380D01*
X377261428Y-83545952D02*
X377356666Y-83498333D01*
X377404285Y-83450714D01*
X377451904Y-83355476D01*
X377451904Y-83307857D01*
X377404285Y-83212619D01*
X377356666Y-83165000D01*
X377261428Y-83117380D01*
X377070952Y-83117380D01*
X376975714Y-83165000D01*
X376928095Y-83212619D01*
X376880476Y-83307857D01*
X376880476Y-83355476D01*
X376928095Y-83450714D01*
X376975714Y-83498333D01*
X377070952Y-83545952D01*
X377261428Y-83545952D01*
X377356666Y-83593571D01*
X377404285Y-83641190D01*
X377451904Y-83736428D01*
X377451904Y-83926904D01*
X377404285Y-84022142D01*
X377356666Y-84069761D01*
X377261428Y-84117380D01*
X377070952Y-84117380D01*
X376975714Y-84069761D01*
X376928095Y-84022142D01*
X376880476Y-83926904D01*
X376880476Y-83736428D01*
X376928095Y-83641190D01*
X376975714Y-83593571D01*
X377070952Y-83545952D01*
X376023333Y-83117380D02*
X376213809Y-83117380D01*
X376309047Y-83165000D01*
X376356666Y-83212619D01*
X376451904Y-83355476D01*
X376499523Y-83545952D01*
X376499523Y-83926904D01*
X376451904Y-84022142D01*
X376404285Y-84069761D01*
X376309047Y-84117380D01*
X376118571Y-84117380D01*
X376023333Y-84069761D01*
X375975714Y-84022142D01*
X375928095Y-83926904D01*
X375928095Y-83688809D01*
X375975714Y-83593571D01*
X376023333Y-83545952D01*
X376118571Y-83498333D01*
X376309047Y-83498333D01*
X376404285Y-83545952D01*
X376451904Y-83593571D01*
X376499523Y-83688809D01*
X368879285Y-129361130D02*
X368879285Y-128361130D01*
X368641190Y-128361130D01*
X368498333Y-128408750D01*
X368403095Y-128503988D01*
X368355476Y-128599226D01*
X368307857Y-128789702D01*
X368307857Y-128932559D01*
X368355476Y-129123035D01*
X368403095Y-129218273D01*
X368498333Y-129313511D01*
X368641190Y-129361130D01*
X368879285Y-129361130D01*
X367736428Y-128789702D02*
X367831666Y-128742083D01*
X367879285Y-128694464D01*
X367926904Y-128599226D01*
X367926904Y-128551607D01*
X367879285Y-128456369D01*
X367831666Y-128408750D01*
X367736428Y-128361130D01*
X367545952Y-128361130D01*
X367450714Y-128408750D01*
X367403095Y-128456369D01*
X367355476Y-128551607D01*
X367355476Y-128599226D01*
X367403095Y-128694464D01*
X367450714Y-128742083D01*
X367545952Y-128789702D01*
X367736428Y-128789702D01*
X367831666Y-128837321D01*
X367879285Y-128884940D01*
X367926904Y-128980178D01*
X367926904Y-129170654D01*
X367879285Y-129265892D01*
X367831666Y-129313511D01*
X367736428Y-129361130D01*
X367545952Y-129361130D01*
X367450714Y-129313511D01*
X367403095Y-129265892D01*
X367355476Y-129170654D01*
X367355476Y-128980178D01*
X367403095Y-128884940D01*
X367450714Y-128837321D01*
X367545952Y-128789702D01*
X366784047Y-128789702D02*
X366879285Y-128742083D01*
X366926904Y-128694464D01*
X366974523Y-128599226D01*
X366974523Y-128551607D01*
X366926904Y-128456369D01*
X366879285Y-128408750D01*
X366784047Y-128361130D01*
X366593571Y-128361130D01*
X366498333Y-128408750D01*
X366450714Y-128456369D01*
X366403095Y-128551607D01*
X366403095Y-128599226D01*
X366450714Y-128694464D01*
X366498333Y-128742083D01*
X366593571Y-128789702D01*
X366784047Y-128789702D01*
X366879285Y-128837321D01*
X366926904Y-128884940D01*
X366974523Y-128980178D01*
X366974523Y-129170654D01*
X366926904Y-129265892D01*
X366879285Y-129313511D01*
X366784047Y-129361130D01*
X366593571Y-129361130D01*
X366498333Y-129313511D01*
X366450714Y-129265892D01*
X366403095Y-129170654D01*
X366403095Y-128980178D01*
X366450714Y-128884940D01*
X366498333Y-128837321D01*
X366593571Y-128789702D01*
X378404285Y-103167380D02*
X378404285Y-102167380D01*
X378166190Y-102167380D01*
X378023333Y-102215000D01*
X377928095Y-102310238D01*
X377880476Y-102405476D01*
X377832857Y-102595952D01*
X377832857Y-102738809D01*
X377880476Y-102929285D01*
X377928095Y-103024523D01*
X378023333Y-103119761D01*
X378166190Y-103167380D01*
X378404285Y-103167380D01*
X377499523Y-102167380D02*
X376832857Y-102167380D01*
X377261428Y-103167380D01*
X376309047Y-102595952D02*
X376404285Y-102548333D01*
X376451904Y-102500714D01*
X376499523Y-102405476D01*
X376499523Y-102357857D01*
X376451904Y-102262619D01*
X376404285Y-102215000D01*
X376309047Y-102167380D01*
X376118571Y-102167380D01*
X376023333Y-102215000D01*
X375975714Y-102262619D01*
X375928095Y-102357857D01*
X375928095Y-102405476D01*
X375975714Y-102500714D01*
X376023333Y-102548333D01*
X376118571Y-102595952D01*
X376309047Y-102595952D01*
X376404285Y-102643571D01*
X376451904Y-102691190D01*
X376499523Y-102786428D01*
X376499523Y-102976904D01*
X376451904Y-103072142D01*
X376404285Y-103119761D01*
X376309047Y-103167380D01*
X376118571Y-103167380D01*
X376023333Y-103119761D01*
X375975714Y-103072142D01*
X375928095Y-102976904D01*
X375928095Y-102786428D01*
X375975714Y-102691190D01*
X376023333Y-102643571D01*
X376118571Y-102595952D01*
X378404285Y-118248630D02*
X378404285Y-117248630D01*
X378166190Y-117248630D01*
X378023333Y-117296250D01*
X377928095Y-117391488D01*
X377880476Y-117486726D01*
X377832857Y-117677202D01*
X377832857Y-117820059D01*
X377880476Y-118010535D01*
X377928095Y-118105773D01*
X378023333Y-118201011D01*
X378166190Y-118248630D01*
X378404285Y-118248630D01*
X377261428Y-117677202D02*
X377356666Y-117629583D01*
X377404285Y-117581964D01*
X377451904Y-117486726D01*
X377451904Y-117439107D01*
X377404285Y-117343869D01*
X377356666Y-117296250D01*
X377261428Y-117248630D01*
X377070952Y-117248630D01*
X376975714Y-117296250D01*
X376928095Y-117343869D01*
X376880476Y-117439107D01*
X376880476Y-117486726D01*
X376928095Y-117581964D01*
X376975714Y-117629583D01*
X377070952Y-117677202D01*
X377261428Y-117677202D01*
X377356666Y-117724821D01*
X377404285Y-117772440D01*
X377451904Y-117867678D01*
X377451904Y-118058154D01*
X377404285Y-118153392D01*
X377356666Y-118201011D01*
X377261428Y-118248630D01*
X377070952Y-118248630D01*
X376975714Y-118201011D01*
X376928095Y-118153392D01*
X376880476Y-118058154D01*
X376880476Y-117867678D01*
X376928095Y-117772440D01*
X376975714Y-117724821D01*
X377070952Y-117677202D01*
X376499523Y-117343869D02*
X376451904Y-117296250D01*
X376356666Y-117248630D01*
X376118571Y-117248630D01*
X376023333Y-117296250D01*
X375975714Y-117343869D01*
X375928095Y-117439107D01*
X375928095Y-117534345D01*
X375975714Y-117677202D01*
X376547142Y-118248630D01*
X375928095Y-118248630D01*
X359354285Y-80942380D02*
X359354285Y-79942380D01*
X359116190Y-79942380D01*
X358973333Y-79990000D01*
X358878095Y-80085238D01*
X358830476Y-80180476D01*
X358782857Y-80370952D01*
X358782857Y-80513809D01*
X358830476Y-80704285D01*
X358878095Y-80799523D01*
X358973333Y-80894761D01*
X359116190Y-80942380D01*
X359354285Y-80942380D01*
X358449523Y-79942380D02*
X357782857Y-79942380D01*
X358211428Y-80942380D01*
X357497142Y-79942380D02*
X356878095Y-79942380D01*
X357211428Y-80323333D01*
X357068571Y-80323333D01*
X356973333Y-80370952D01*
X356925714Y-80418571D01*
X356878095Y-80513809D01*
X356878095Y-80751904D01*
X356925714Y-80847142D01*
X356973333Y-80894761D01*
X357068571Y-80942380D01*
X357354285Y-80942380D01*
X357449523Y-80894761D01*
X357497142Y-80847142D01*
X397454285Y-63479880D02*
X397454285Y-62479880D01*
X397216190Y-62479880D01*
X397073333Y-62527500D01*
X396978095Y-62622738D01*
X396930476Y-62717976D01*
X396882857Y-62908452D01*
X396882857Y-63051309D01*
X396930476Y-63241785D01*
X396978095Y-63337023D01*
X397073333Y-63432261D01*
X397216190Y-63479880D01*
X397454285Y-63479880D01*
X396549523Y-62479880D02*
X395882857Y-62479880D01*
X396311428Y-63479880D01*
X395549523Y-62575119D02*
X395501904Y-62527500D01*
X395406666Y-62479880D01*
X395168571Y-62479880D01*
X395073333Y-62527500D01*
X395025714Y-62575119D01*
X394978095Y-62670357D01*
X394978095Y-62765595D01*
X395025714Y-62908452D01*
X395597142Y-63479880D01*
X394978095Y-63479880D01*
X378404285Y-80942380D02*
X378404285Y-79942380D01*
X378166190Y-79942380D01*
X378023333Y-79990000D01*
X377928095Y-80085238D01*
X377880476Y-80180476D01*
X377832857Y-80370952D01*
X377832857Y-80513809D01*
X377880476Y-80704285D01*
X377928095Y-80799523D01*
X378023333Y-80894761D01*
X378166190Y-80942380D01*
X378404285Y-80942380D01*
X377499523Y-79942380D02*
X376832857Y-79942380D01*
X377261428Y-80942380D01*
X375975714Y-79942380D02*
X376451904Y-79942380D01*
X376499523Y-80418571D01*
X376451904Y-80370952D01*
X376356666Y-80323333D01*
X376118571Y-80323333D01*
X376023333Y-80370952D01*
X375975714Y-80418571D01*
X375928095Y-80513809D01*
X375928095Y-80751904D01*
X375975714Y-80847142D01*
X376023333Y-80894761D01*
X376118571Y-80942380D01*
X376356666Y-80942380D01*
X376451904Y-80894761D01*
X376499523Y-80847142D01*
X359354285Y-103167380D02*
X359354285Y-102167380D01*
X359116190Y-102167380D01*
X358973333Y-102215000D01*
X358878095Y-102310238D01*
X358830476Y-102405476D01*
X358782857Y-102595952D01*
X358782857Y-102738809D01*
X358830476Y-102929285D01*
X358878095Y-103024523D01*
X358973333Y-103119761D01*
X359116190Y-103167380D01*
X359354285Y-103167380D01*
X358449523Y-102167380D02*
X357782857Y-102167380D01*
X358211428Y-103167380D01*
X357497142Y-102167380D02*
X356830476Y-102167380D01*
X357259047Y-103167380D01*
X340304285Y-103167380D02*
X340304285Y-102167380D01*
X340066190Y-102167380D01*
X339923333Y-102215000D01*
X339828095Y-102310238D01*
X339780476Y-102405476D01*
X339732857Y-102595952D01*
X339732857Y-102738809D01*
X339780476Y-102929285D01*
X339828095Y-103024523D01*
X339923333Y-103119761D01*
X340066190Y-103167380D01*
X340304285Y-103167380D01*
X339399523Y-102167380D02*
X338732857Y-102167380D01*
X339161428Y-103167380D01*
X337923333Y-102167380D02*
X338113809Y-102167380D01*
X338209047Y-102215000D01*
X338256666Y-102262619D01*
X338351904Y-102405476D01*
X338399523Y-102595952D01*
X338399523Y-102976904D01*
X338351904Y-103072142D01*
X338304285Y-103119761D01*
X338209047Y-103167380D01*
X338018571Y-103167380D01*
X337923333Y-103119761D01*
X337875714Y-103072142D01*
X337828095Y-102976904D01*
X337828095Y-102738809D01*
X337875714Y-102643571D01*
X337923333Y-102595952D01*
X338018571Y-102548333D01*
X338209047Y-102548333D01*
X338304285Y-102595952D01*
X338351904Y-102643571D01*
X338399523Y-102738809D01*
X378404285Y-65067380D02*
X378404285Y-64067380D01*
X378166190Y-64067380D01*
X378023333Y-64115000D01*
X377928095Y-64210238D01*
X377880476Y-64305476D01*
X377832857Y-64495952D01*
X377832857Y-64638809D01*
X377880476Y-64829285D01*
X377928095Y-64924523D01*
X378023333Y-65019761D01*
X378166190Y-65067380D01*
X378404285Y-65067380D01*
X377499523Y-64067380D02*
X376832857Y-64067380D01*
X377261428Y-65067380D01*
X375928095Y-65067380D02*
X376499523Y-65067380D01*
X376213809Y-65067380D02*
X376213809Y-64067380D01*
X376309047Y-64210238D01*
X376404285Y-64305476D01*
X376499523Y-64353095D01*
X359354285Y-118248630D02*
X359354285Y-117248630D01*
X359116190Y-117248630D01*
X358973333Y-117296250D01*
X358878095Y-117391488D01*
X358830476Y-117486726D01*
X358782857Y-117677202D01*
X358782857Y-117820059D01*
X358830476Y-118010535D01*
X358878095Y-118105773D01*
X358973333Y-118201011D01*
X359116190Y-118248630D01*
X359354285Y-118248630D01*
X358211428Y-117677202D02*
X358306666Y-117629583D01*
X358354285Y-117581964D01*
X358401904Y-117486726D01*
X358401904Y-117439107D01*
X358354285Y-117343869D01*
X358306666Y-117296250D01*
X358211428Y-117248630D01*
X358020952Y-117248630D01*
X357925714Y-117296250D01*
X357878095Y-117343869D01*
X357830476Y-117439107D01*
X357830476Y-117486726D01*
X357878095Y-117581964D01*
X357925714Y-117629583D01*
X358020952Y-117677202D01*
X358211428Y-117677202D01*
X358306666Y-117724821D01*
X358354285Y-117772440D01*
X358401904Y-117867678D01*
X358401904Y-118058154D01*
X358354285Y-118153392D01*
X358306666Y-118201011D01*
X358211428Y-118248630D01*
X358020952Y-118248630D01*
X357925714Y-118201011D01*
X357878095Y-118153392D01*
X357830476Y-118058154D01*
X357830476Y-117867678D01*
X357878095Y-117772440D01*
X357925714Y-117724821D01*
X358020952Y-117677202D01*
X356878095Y-118248630D02*
X357449523Y-118248630D01*
X357163809Y-118248630D02*
X357163809Y-117248630D01*
X357259047Y-117391488D01*
X357354285Y-117486726D01*
X357449523Y-117534345D01*
X359354285Y-65067380D02*
X359354285Y-64067380D01*
X359116190Y-64067380D01*
X358973333Y-64115000D01*
X358878095Y-64210238D01*
X358830476Y-64305476D01*
X358782857Y-64495952D01*
X358782857Y-64638809D01*
X358830476Y-64829285D01*
X358878095Y-64924523D01*
X358973333Y-65019761D01*
X359116190Y-65067380D01*
X359354285Y-65067380D01*
X358449523Y-64067380D02*
X357782857Y-64067380D01*
X358211428Y-65067380D01*
X357211428Y-64067380D02*
X357116190Y-64067380D01*
X357020952Y-64115000D01*
X356973333Y-64162619D01*
X356925714Y-64257857D01*
X356878095Y-64448333D01*
X356878095Y-64686428D01*
X356925714Y-64876904D01*
X356973333Y-64972142D01*
X357020952Y-65019761D01*
X357116190Y-65067380D01*
X357211428Y-65067380D01*
X357306666Y-65019761D01*
X357354285Y-64972142D01*
X357401904Y-64876904D01*
X357449523Y-64686428D01*
X357449523Y-64448333D01*
X357401904Y-64257857D01*
X357354285Y-64162619D01*
X357306666Y-64115000D01*
X357211428Y-64067380D01*
X397454285Y-103167380D02*
X397454285Y-102167380D01*
X397216190Y-102167380D01*
X397073333Y-102215000D01*
X396978095Y-102310238D01*
X396930476Y-102405476D01*
X396882857Y-102595952D01*
X396882857Y-102738809D01*
X396930476Y-102929285D01*
X396978095Y-103024523D01*
X397073333Y-103119761D01*
X397216190Y-103167380D01*
X397454285Y-103167380D01*
X396311428Y-102595952D02*
X396406666Y-102548333D01*
X396454285Y-102500714D01*
X396501904Y-102405476D01*
X396501904Y-102357857D01*
X396454285Y-102262619D01*
X396406666Y-102215000D01*
X396311428Y-102167380D01*
X396120952Y-102167380D01*
X396025714Y-102215000D01*
X395978095Y-102262619D01*
X395930476Y-102357857D01*
X395930476Y-102405476D01*
X395978095Y-102500714D01*
X396025714Y-102548333D01*
X396120952Y-102595952D01*
X396311428Y-102595952D01*
X396406666Y-102643571D01*
X396454285Y-102691190D01*
X396501904Y-102786428D01*
X396501904Y-102976904D01*
X396454285Y-103072142D01*
X396406666Y-103119761D01*
X396311428Y-103167380D01*
X396120952Y-103167380D01*
X396025714Y-103119761D01*
X395978095Y-103072142D01*
X395930476Y-102976904D01*
X395930476Y-102786428D01*
X395978095Y-102691190D01*
X396025714Y-102643571D01*
X396120952Y-102595952D01*
X395597142Y-102167380D02*
X394930476Y-102167380D01*
X395359047Y-103167380D01*
X359354285Y-84117380D02*
X359354285Y-83117380D01*
X359116190Y-83117380D01*
X358973333Y-83165000D01*
X358878095Y-83260238D01*
X358830476Y-83355476D01*
X358782857Y-83545952D01*
X358782857Y-83688809D01*
X358830476Y-83879285D01*
X358878095Y-83974523D01*
X358973333Y-84069761D01*
X359116190Y-84117380D01*
X359354285Y-84117380D01*
X358449523Y-83117380D02*
X357782857Y-83117380D01*
X358211428Y-84117380D01*
X356973333Y-83450714D02*
X356973333Y-84117380D01*
X357211428Y-83069761D02*
X357449523Y-83784047D01*
X356830476Y-83784047D01*
X340304285Y-63479880D02*
X340304285Y-62479880D01*
X340066190Y-62479880D01*
X339923333Y-62527500D01*
X339828095Y-62622738D01*
X339780476Y-62717976D01*
X339732857Y-62908452D01*
X339732857Y-63051309D01*
X339780476Y-63241785D01*
X339828095Y-63337023D01*
X339923333Y-63432261D01*
X340066190Y-63479880D01*
X340304285Y-63479880D01*
X338875714Y-62479880D02*
X339066190Y-62479880D01*
X339161428Y-62527500D01*
X339209047Y-62575119D01*
X339304285Y-62717976D01*
X339351904Y-62908452D01*
X339351904Y-63289404D01*
X339304285Y-63384642D01*
X339256666Y-63432261D01*
X339161428Y-63479880D01*
X338970952Y-63479880D01*
X338875714Y-63432261D01*
X338828095Y-63384642D01*
X338780476Y-63289404D01*
X338780476Y-63051309D01*
X338828095Y-62956071D01*
X338875714Y-62908452D01*
X338970952Y-62860833D01*
X339161428Y-62860833D01*
X339256666Y-62908452D01*
X339304285Y-62956071D01*
X339351904Y-63051309D01*
X338304285Y-63479880D02*
X338113809Y-63479880D01*
X338018571Y-63432261D01*
X337970952Y-63384642D01*
X337875714Y-63241785D01*
X337828095Y-63051309D01*
X337828095Y-62670357D01*
X337875714Y-62575119D01*
X337923333Y-62527500D01*
X338018571Y-62479880D01*
X338209047Y-62479880D01*
X338304285Y-62527500D01*
X338351904Y-62575119D01*
X338399523Y-62670357D01*
X338399523Y-62908452D01*
X338351904Y-63003690D01*
X338304285Y-63051309D01*
X338209047Y-63098928D01*
X338018571Y-63098928D01*
X337923333Y-63051309D01*
X337875714Y-63003690D01*
X337828095Y-62908452D01*
M02*
