G04 #@! TF.GenerationSoftware,KiCad,Pcbnew,(5.1.4)-1*
G04 #@! TF.CreationDate,2021-01-30T01:06:02-06:00*
G04 #@! TF.ProjectId,65Numpad,36354e75-6d70-4616-942e-6b696361645f,rev?*
G04 #@! TF.SameCoordinates,Original*
G04 #@! TF.FileFunction,Copper,L2,Bot*
G04 #@! TF.FilePolarity,Positive*
%FSLAX46Y46*%
G04 Gerber Fmt 4.6, Leading zero omitted, Abs format (unit mm)*
G04 Created by KiCad (PCBNEW (5.1.4)-1) date 2021-01-30 01:06:02*
%MOMM*%
%LPD*%
G04 APERTURE LIST*
%ADD10R,1.700000X1.700000*%
%ADD11O,1.700000X1.700000*%
%ADD12C,2.600000*%
%ADD13C,1.752600*%
%ADD14R,1.752600X1.752600*%
%ADD15R,1.600000X1.600000*%
%ADD16O,1.600000X1.600000*%
%ADD17C,0.800000*%
%ADD18C,0.254000*%
%ADD19C,0.381000*%
G04 APERTURE END LIST*
D10*
X324643750Y-55562500D03*
D11*
X324643750Y-58102500D03*
X324643750Y-60642500D03*
X324643750Y-63182500D03*
D10*
X410368750Y-55562500D03*
D11*
X410368750Y-58102500D03*
X410368750Y-60642500D03*
X410368750Y-63182500D03*
D12*
X392271250Y-132397500D03*
X398621250Y-129857500D03*
X392271250Y-113347500D03*
X398621250Y-110807500D03*
X354171250Y-75247500D03*
X360521250Y-72707500D03*
X354171250Y-113347500D03*
X360521250Y-110807500D03*
X392271250Y-56197500D03*
X398621250Y-53657500D03*
X373221250Y-75247500D03*
X379571250Y-72707500D03*
X354171250Y-94297500D03*
X360521250Y-91757500D03*
X335121250Y-94297500D03*
X341471250Y-91757500D03*
X373221250Y-113347500D03*
X379571250Y-110807500D03*
X354171250Y-132397500D03*
X360521250Y-129857500D03*
X335121250Y-132397500D03*
X341471250Y-129857500D03*
X392271250Y-75247500D03*
X398621250Y-72707500D03*
X392271250Y-94297500D03*
X398621250Y-91757500D03*
X373221250Y-132397500D03*
X379571250Y-129857500D03*
D13*
X365601250Y-51911250D03*
X350361250Y-79851250D03*
X365601250Y-54451250D03*
X365601250Y-56991250D03*
X365601250Y-59531250D03*
X365601250Y-62071250D03*
X365601250Y-64611250D03*
X365601250Y-67151250D03*
X365601250Y-69691250D03*
X365601250Y-72231250D03*
X365601250Y-74771250D03*
X365601250Y-77311250D03*
X365601250Y-79851250D03*
X350361250Y-77311250D03*
X350361250Y-74771250D03*
X350361250Y-72231250D03*
X350361250Y-69691250D03*
X350361250Y-67151250D03*
X350361250Y-64611250D03*
X350361250Y-62071250D03*
X350361250Y-59531250D03*
X350361250Y-56991250D03*
X350361250Y-54451250D03*
D14*
X350361250Y-51911250D03*
D15*
X381000000Y-123031250D03*
D16*
X373380000Y-123031250D03*
D15*
X371475000Y-138906250D03*
D16*
X363855000Y-138906250D03*
D15*
X371475000Y-142081250D03*
D16*
X363855000Y-142081250D03*
D15*
X361950000Y-123031250D03*
D16*
X354330000Y-123031250D03*
D15*
X400050000Y-101600000D03*
D16*
X392430000Y-101600000D03*
D15*
X381000000Y-85725000D03*
D16*
X373380000Y-85725000D03*
D15*
X371475000Y-130968750D03*
D16*
X363855000Y-130968750D03*
D15*
X381000000Y-104775000D03*
D16*
X373380000Y-104775000D03*
D15*
X381000000Y-119856250D03*
D16*
X373380000Y-119856250D03*
D15*
X361950000Y-82550000D03*
D16*
X354330000Y-82550000D03*
D15*
X400050000Y-65087500D03*
D16*
X392430000Y-65087500D03*
D15*
X381000000Y-82550000D03*
D16*
X373380000Y-82550000D03*
D15*
X361950000Y-104775000D03*
D16*
X354330000Y-104775000D03*
D15*
X342900000Y-104775000D03*
D16*
X335280000Y-104775000D03*
D15*
X381000000Y-66675000D03*
D16*
X373380000Y-66675000D03*
D15*
X361950000Y-119856250D03*
D16*
X354330000Y-119856250D03*
D15*
X361950000Y-66675000D03*
D16*
X354330000Y-66675000D03*
D15*
X400050000Y-104775000D03*
D16*
X392430000Y-104775000D03*
D15*
X361950000Y-85725000D03*
D16*
X354330000Y-85725000D03*
D15*
X342900000Y-65087500D03*
D16*
X335280000Y-65087500D03*
D12*
X354171250Y-56197500D03*
X360521250Y-53657500D03*
X373221250Y-94297500D03*
X379571250Y-91757500D03*
X335121250Y-56197500D03*
X341471250Y-53657500D03*
X335121250Y-75247500D03*
X341471250Y-72707500D03*
X382746250Y-132397500D03*
X389096250Y-129857500D03*
X335121250Y-113347500D03*
X341471250Y-110807500D03*
X344646250Y-132397500D03*
X350996250Y-129857500D03*
X373221250Y-56197500D03*
X379571250Y-53657500D03*
X335121250Y-122872500D03*
X341471250Y-120332500D03*
X335121250Y-84772500D03*
X341471250Y-82232500D03*
X392271250Y-84772500D03*
X398621250Y-82232500D03*
X392271250Y-122872500D03*
X398621250Y-120332500D03*
D17*
X373856250Y-68262500D03*
X357981250Y-61912500D03*
X353218750Y-61118750D03*
X351631250Y-123825000D03*
X354806250Y-72231250D03*
X392117056Y-110326694D03*
X364331250Y-105568750D03*
X374650000Y-101600000D03*
X348456250Y-83343750D03*
X355600000Y-101600000D03*
X355600000Y-63500000D03*
X374650000Y-63500000D03*
X377825000Y-63500000D03*
D18*
X366712500Y-68262500D02*
X365601250Y-67151250D01*
X373856250Y-68262500D02*
X366712500Y-68262500D01*
D19*
X354012500Y-61912500D02*
X357981250Y-61912500D01*
X353218750Y-61118750D02*
X354012500Y-61912500D01*
D18*
X355600000Y-125412500D02*
X356650901Y-124361599D01*
X379946000Y-123031250D02*
X381000000Y-123031250D01*
X371475000Y-138906250D02*
X371475000Y-142081250D01*
X371475000Y-129381250D02*
X371475000Y-126422566D01*
X371475000Y-126422566D02*
X373739315Y-124158251D01*
X373739315Y-124158251D02*
X378818999Y-124158251D01*
X378818999Y-124158251D02*
X379946000Y-123031250D01*
X351631250Y-123825000D02*
X353218750Y-125412500D01*
X353218750Y-125412500D02*
X355600000Y-125412500D01*
X363537500Y-126206250D02*
X361692849Y-124361599D01*
X363537500Y-127000000D02*
X363537500Y-126206250D01*
X356650901Y-124361599D02*
X361692849Y-124361599D01*
X371475000Y-129381250D02*
X371475000Y-130968750D01*
X367506250Y-130968750D02*
X363537500Y-127000000D01*
X371475000Y-130968750D02*
X367506250Y-130968750D01*
X379946000Y-119856250D02*
X381000000Y-119856250D01*
X361950000Y-123031250D02*
X363004000Y-123031250D01*
X378818999Y-120983251D02*
X379946000Y-119856250D01*
X363004000Y-123031250D02*
X365051999Y-120983251D01*
X365051999Y-120983251D02*
X378818999Y-120983251D01*
X361950000Y-123031250D02*
X361950000Y-119856250D01*
X382054000Y-119856250D02*
X381000000Y-119856250D01*
X364331250Y-116421000D02*
X364331250Y-112838538D01*
X361950000Y-119856250D02*
X361950000Y-118802250D01*
X390147151Y-114620283D02*
X384911184Y-119856250D01*
X384911184Y-119856250D02*
X382054000Y-119856250D01*
X390147151Y-112296599D02*
X390147151Y-114620283D01*
X364331250Y-112838538D02*
X364331250Y-105568750D01*
X392117056Y-110326694D02*
X390147151Y-112296599D01*
X361950000Y-118802250D02*
X364331250Y-116421000D01*
X354806250Y-72231250D02*
X350361250Y-72231250D01*
X389731250Y-104775000D02*
X390858251Y-103647999D01*
X396948001Y-103647999D02*
X398996000Y-101600000D01*
X398996000Y-101600000D02*
X400050000Y-101600000D01*
X390858251Y-103647999D02*
X396948001Y-103647999D01*
X342900000Y-103721000D02*
X342900000Y-104775000D01*
X342900000Y-104775000D02*
X352425000Y-104775000D01*
X381000000Y-104775000D02*
X389731250Y-104775000D01*
X352425000Y-104775000D02*
X355600000Y-101600000D01*
X342809249Y-103630249D02*
X342900000Y-103721000D01*
X342809249Y-96260539D02*
X342809249Y-103630249D01*
X348456250Y-90613538D02*
X342809249Y-96260539D01*
X342900000Y-100546000D02*
X342809249Y-100455249D01*
X361950000Y-104775000D02*
X371475000Y-104775000D01*
X371475000Y-104775000D02*
X374650000Y-101600000D01*
X348456250Y-83343750D02*
X348456250Y-90613538D01*
X361950000Y-85725000D02*
X361950000Y-86779000D01*
X361950000Y-86779000D02*
X364071000Y-88900000D01*
X364071000Y-88900000D02*
X376771000Y-88900000D01*
X376771000Y-88900000D02*
X379946000Y-85725000D01*
X379946000Y-85725000D02*
X381000000Y-85725000D01*
X381000000Y-82550000D02*
X381000000Y-83604000D01*
X381000000Y-83604000D02*
X381000000Y-85725000D01*
X361950000Y-85725000D02*
X361950000Y-84671000D01*
X362148251Y-71926539D02*
X358249261Y-68027549D01*
X361859249Y-81405249D02*
X361859249Y-73777463D01*
X361950000Y-81496000D02*
X361859249Y-81405249D01*
X358249261Y-68027549D02*
X351237549Y-68027549D01*
X351237549Y-68027549D02*
X350361250Y-67151250D01*
X362148251Y-73488461D02*
X362148251Y-71926539D01*
X361859249Y-73777463D02*
X362148251Y-73488461D01*
X361950000Y-82550000D02*
X361950000Y-81496000D01*
X361950000Y-84671000D02*
X361950000Y-82550000D01*
X398996000Y-65087500D02*
X400050000Y-65087500D01*
X381000000Y-66675000D02*
X397408500Y-66675000D01*
X397408500Y-66675000D02*
X398996000Y-65087500D01*
X342900000Y-65087500D02*
X349885000Y-65087500D01*
X349885000Y-65087500D02*
X350361250Y-64611250D01*
X377825000Y-63500000D02*
X381000000Y-66675000D01*
X354488750Y-64611250D02*
X355600000Y-63500000D01*
X372202051Y-65947949D02*
X374650000Y-63500000D01*
X363731051Y-65947949D02*
X372202051Y-65947949D01*
X350361250Y-64611250D02*
X354488750Y-64611250D01*
X363004000Y-66675000D02*
X363731051Y-65947949D01*
X361950000Y-66675000D02*
X363004000Y-66675000D01*
X379571250Y-60483750D02*
X373380000Y-66675000D01*
X379571250Y-53657500D02*
X379571250Y-60483750D01*
X341471250Y-60483750D02*
X336867500Y-65087500D01*
X336867500Y-65087500D02*
X335280000Y-65087500D01*
X341471250Y-53657500D02*
X341471250Y-60483750D01*
X360521250Y-53657500D02*
X360521250Y-60483750D01*
X360521250Y-60483750D02*
X354330000Y-66675000D01*
X398621250Y-60483750D02*
X394017500Y-65087500D01*
X394017500Y-65087500D02*
X392430000Y-65087500D01*
X398621250Y-53657500D02*
X398621250Y-60483750D01*
X354330000Y-85725000D02*
X360521250Y-79533750D01*
X360521250Y-79533750D02*
X360521250Y-72707500D01*
X379571250Y-72707500D02*
X379571250Y-78691462D01*
X374511370Y-82550000D02*
X373380000Y-82550000D01*
X375712712Y-82550000D02*
X374511370Y-82550000D01*
X379571250Y-78691462D02*
X375712712Y-82550000D01*
X341471250Y-98583750D02*
X335280000Y-104775000D01*
X341471250Y-91757500D02*
X341471250Y-98583750D01*
X360521250Y-91757500D02*
X360521250Y-98583750D01*
X360521250Y-98583750D02*
X354330000Y-104775000D01*
X379571250Y-98583750D02*
X373380000Y-104775000D01*
X379571250Y-91757500D02*
X379571250Y-98583750D01*
X398621250Y-84070977D02*
X398621250Y-91757500D01*
X398621250Y-91757500D02*
X398621250Y-97741462D01*
X398621250Y-97741462D02*
X394762712Y-101600000D01*
X398621250Y-82232500D02*
X398621250Y-84070977D01*
X394762712Y-101600000D02*
X392430000Y-101600000D01*
X360521250Y-110807500D02*
X360521250Y-116791462D01*
X357456462Y-119856250D02*
X355461370Y-119856250D01*
X360521250Y-116791462D02*
X357456462Y-119856250D01*
X355461370Y-119856250D02*
X354330000Y-119856250D01*
X376506462Y-119856250D02*
X374511370Y-119856250D01*
X379571250Y-116791462D02*
X376506462Y-119856250D01*
X379571250Y-110807500D02*
X379571250Y-116791462D01*
X374511370Y-119856250D02*
X373380000Y-119856250D01*
X351699249Y-135514461D02*
X356256287Y-140071499D01*
X351699249Y-134745565D02*
X351699249Y-135514461D01*
X341471250Y-129857500D02*
X342771249Y-128557501D01*
X356256287Y-140071499D02*
X361845249Y-140071499D01*
X342771249Y-128557501D02*
X345511185Y-128557501D01*
X345511185Y-128557501D02*
X351699249Y-134745565D01*
X361845249Y-140071499D02*
X363055001Y-141281251D01*
X363055001Y-141281251D02*
X363855000Y-142081250D01*
X398621250Y-129857500D02*
X399921249Y-128557501D01*
X374179999Y-122231251D02*
X373380000Y-123031250D01*
X402113750Y-120332500D02*
X398621250Y-120332500D01*
X381333251Y-121904249D02*
X374507001Y-121904249D01*
X399921249Y-128557501D02*
X401667499Y-128557501D01*
X404018750Y-122237500D02*
X402113750Y-120332500D01*
X401667499Y-128557501D02*
X404018750Y-126206250D01*
X404018750Y-126206250D02*
X404018750Y-122237500D01*
X398621250Y-120332500D02*
X382905000Y-120332500D01*
X374507001Y-121904249D02*
X374179999Y-122231251D01*
X382905000Y-120332500D02*
X381333251Y-121904249D01*
X350996250Y-129857500D02*
X360521250Y-129857500D01*
X362743750Y-129857500D02*
X363855000Y-130968750D01*
X360521250Y-129857500D02*
X362743750Y-129857500D01*
X348456250Y-117157500D02*
X354330000Y-123031250D01*
X341471250Y-110807500D02*
X345956982Y-110807500D01*
X345956982Y-110807500D02*
X348456250Y-113306768D01*
X344170000Y-123031250D02*
X354330000Y-123031250D01*
X341471250Y-120332500D02*
X344170000Y-123031250D01*
X348456250Y-113306768D02*
X348456250Y-117157500D01*
X341471250Y-72707500D02*
X341471250Y-77026462D01*
X341471250Y-82232500D02*
X354012500Y-82232500D01*
X341471250Y-72707500D02*
X341471250Y-74545977D01*
X354012500Y-82232500D02*
X354330000Y-82550000D01*
X341471250Y-74545977D02*
X341471250Y-82232500D01*
X389096250Y-129857500D02*
X379571250Y-129857500D01*
X378271251Y-131157499D02*
X379571250Y-129857500D01*
X377510213Y-131157499D02*
X378271251Y-131157499D01*
X370888463Y-137779249D02*
X377510213Y-131157499D01*
X364982001Y-137779249D02*
X370888463Y-137779249D01*
X363855000Y-138906250D02*
X364982001Y-137779249D01*
X380115499Y-78989501D02*
X374179999Y-84925001D01*
X398621250Y-72707500D02*
X387090066Y-72707500D01*
X383313251Y-76484315D02*
X383313251Y-78364461D01*
X374179999Y-84925001D02*
X373380000Y-85725000D01*
X382688211Y-78989501D02*
X380115499Y-78989501D01*
X383313251Y-78364461D02*
X382688211Y-78989501D01*
X387090066Y-72707500D02*
X383313251Y-76484315D01*
X392430000Y-104775000D02*
X398462500Y-110807500D01*
X398462500Y-110807500D02*
X398621250Y-110807500D01*
M02*
