M48
; DRILL file {KiCad (5.1.4)-1} date 1/30/2021 1:06:03 AM
; FORMAT={-:-/ absolute / metric / decimal}
; #@! TF.CreationDate,2021-01-30T01:06:03-06:00
; #@! TF.GenerationSoftware,Kicad,Pcbnew,(5.1.4)-1
FMAT,2
METRIC
T1C0.400
T2C0.800
T3C1.000
T4C1.092
T5C1.600
T6C1.700
T7C1.750
T8C3.048
T9C3.200
T10C3.988
T11C4.000
%
G90
G05
T1
X348.456Y-83.344
X351.631Y-123.825
X353.219Y-61.119
X354.806Y-72.231
X355.6Y-63.5
X355.6Y-101.6
X357.981Y-61.912
X364.331Y-105.569
X373.856Y-68.263
X374.65Y-63.5
X374.65Y-101.6
X377.825Y-63.5
X392.117Y-110.327
T2
X373.38Y-66.675
X381.0Y-66.675
X354.33Y-66.675
X361.95Y-66.675
X354.33Y-85.725
X361.95Y-85.725
X363.855Y-142.081
X371.475Y-142.081
X363.855Y-138.906
X371.475Y-138.906
X354.33Y-104.775
X361.95Y-104.775
X354.33Y-119.856
X361.95Y-119.856
X392.43Y-104.775
X400.05Y-104.775
X392.43Y-65.087
X400.05Y-65.087
X392.43Y-101.6
X400.05Y-101.6
X363.855Y-130.969
X371.475Y-130.969
X373.38Y-82.55
X381.0Y-82.55
X335.28Y-104.775
X342.9Y-104.775
X373.38Y-104.775
X381.0Y-104.775
X354.33Y-123.031
X361.95Y-123.031
X335.28Y-65.087
X342.9Y-65.087
X373.38Y-123.031
X381.0Y-123.031
X354.33Y-82.55
X361.95Y-82.55
X373.38Y-119.856
X381.0Y-119.856
X373.38Y-85.725
X381.0Y-85.725
T3
X324.644Y-55.562
X324.644Y-58.102
X324.644Y-60.642
X324.644Y-63.182
X410.369Y-55.562
X410.369Y-58.102
X410.369Y-60.642
X410.369Y-63.182
T4
X350.361Y-51.911
X350.361Y-54.451
X350.361Y-56.991
X350.361Y-59.531
X350.361Y-62.071
X350.361Y-64.611
X350.361Y-67.151
X350.361Y-69.691
X350.361Y-72.231
X350.361Y-74.771
X350.361Y-77.311
X350.361Y-79.851
X365.601Y-51.911
X365.601Y-54.451
X365.601Y-56.991
X365.601Y-59.531
X365.601Y-62.071
X365.601Y-64.611
X365.601Y-67.151
X365.601Y-69.691
X365.601Y-72.231
X365.601Y-74.771
X365.601Y-77.311
X365.601Y-79.851
T5
X373.221Y-75.248
X379.571Y-72.707
X335.121Y-132.398
X341.471Y-129.857
X392.271Y-94.297
X398.621Y-91.757
X392.271Y-132.398
X398.621Y-129.857
X392.271Y-56.197
X398.621Y-53.657
X335.121Y-84.772
X341.471Y-82.233
X335.121Y-94.297
X341.471Y-91.757
X373.221Y-94.297
X379.571Y-91.757
X392.271Y-84.772
X398.621Y-82.233
X354.171Y-75.248
X360.521Y-72.707
X335.121Y-75.248
X341.471Y-72.707
X354.171Y-113.347
X360.521Y-110.807
X392.271Y-75.248
X398.621Y-72.707
X335.121Y-113.347
X341.471Y-110.807
X382.746Y-132.398
X389.096Y-129.857
X392.271Y-113.347
X398.621Y-110.807
X335.121Y-122.872
X341.471Y-120.332
X344.646Y-132.398
X350.996Y-129.857
X354.171Y-94.297
X360.521Y-91.757
X392.271Y-122.872
X398.621Y-120.332
X354.171Y-56.197
X360.521Y-53.657
X354.171Y-132.398
X360.521Y-129.857
X373.221Y-113.347
X379.571Y-110.807
X373.221Y-56.197
X379.571Y-53.657
X373.221Y-132.398
X379.571Y-129.857
X335.121Y-56.197
X341.471Y-53.657
T6
X371.951Y-96.837
X382.111Y-96.837
X352.901Y-77.787
X363.061Y-77.787
X333.851Y-77.787
X344.011Y-77.787
X352.901Y-115.887
X363.061Y-115.887
X391.001Y-77.787
X401.161Y-77.787
X333.851Y-115.887
X344.011Y-115.887
X391.001Y-115.887
X401.161Y-115.887
X352.901Y-96.837
X363.061Y-96.837
X352.901Y-58.737
X363.061Y-58.737
X352.901Y-134.938
X363.061Y-134.938
X371.951Y-115.887
X382.111Y-115.887
X371.951Y-58.737
X382.111Y-58.737
X371.951Y-134.938
X382.111Y-134.938
X333.851Y-58.737
X344.011Y-58.737
X371.951Y-77.787
X382.111Y-77.787
X333.851Y-134.938
X344.011Y-134.938
X391.001Y-96.837
X401.161Y-96.837
X391.001Y-134.938
X401.161Y-134.938
X391.001Y-58.737
X401.161Y-58.737
X333.851Y-96.837
X344.011Y-96.837
T7
X352.901Y-115.887
X363.061Y-115.887
X391.001Y-77.787
X401.161Y-77.787
X333.851Y-115.887
X344.011Y-115.887
X381.476Y-134.938
X391.636Y-134.938
X391.001Y-115.887
X401.161Y-115.887
X333.851Y-125.412
X344.011Y-125.412
X343.376Y-134.938
X353.536Y-134.938
X352.901Y-96.837
X363.061Y-96.837
X391.001Y-125.412
X401.161Y-125.412
X352.901Y-58.737
X363.061Y-58.737
X352.901Y-134.938
X363.061Y-134.938
X371.951Y-115.887
X382.111Y-115.887
X371.951Y-58.737
X382.111Y-58.737
X371.951Y-134.938
X382.111Y-134.938
X333.851Y-58.737
X344.011Y-58.737
X371.951Y-77.787
X382.111Y-77.787
X333.851Y-134.938
X344.011Y-134.938
X391.001Y-96.837
X401.161Y-96.837
X391.001Y-134.938
X401.161Y-134.938
X391.001Y-58.737
X401.161Y-58.737
X333.851Y-87.312
X344.011Y-87.312
X333.851Y-96.837
X344.011Y-96.837
X371.951Y-96.837
X382.111Y-96.837
X391.001Y-87.312
X401.161Y-87.312
X352.901Y-77.787
X363.061Y-77.787
X333.851Y-77.787
X344.011Y-77.787
T8
X345.916Y-75.406
X345.916Y-99.219
X403.066Y-75.406
X403.066Y-99.219
X374.65Y-141.922
X398.462Y-141.922
X345.916Y-113.506
X345.916Y-137.319
X336.55Y-141.922
X360.363Y-141.922
X403.066Y-113.506
X403.066Y-137.319
T9
X331.216Y-68.263
X403.606Y-68.77
X367.506Y-125.412
T10
X338.931Y-96.837
X377.031Y-96.837
X387.826Y-75.406
X387.826Y-99.219
X396.081Y-87.312
X357.981Y-77.787
X338.931Y-77.787
X357.981Y-115.887
X396.081Y-77.787
X338.931Y-115.887
X374.65Y-126.682
X386.556Y-134.938
X398.462Y-126.682
X396.081Y-115.887
X330.676Y-113.506
X330.676Y-137.319
X338.931Y-125.412
X336.55Y-126.682
X348.456Y-134.938
X360.363Y-126.682
X357.981Y-96.837
X387.826Y-113.506
X387.826Y-137.319
X396.081Y-125.412
X357.981Y-58.737
X357.981Y-134.938
X377.031Y-115.887
X377.031Y-58.737
X377.031Y-134.938
X338.931Y-58.737
X377.031Y-77.787
X338.931Y-134.938
X396.081Y-96.837
X396.081Y-134.938
X396.081Y-58.737
X330.676Y-75.406
X330.676Y-99.219
X338.931Y-87.312
T11
X396.081Y-115.887
X357.981Y-96.837
X357.981Y-58.737
X357.981Y-134.938
X377.031Y-115.887
X377.031Y-58.737
X377.031Y-134.938
X338.931Y-58.737
X377.031Y-77.787
X338.931Y-134.938
X396.081Y-96.837
X396.081Y-134.938
X396.081Y-58.737
X338.931Y-96.837
X377.031Y-96.837
X357.981Y-77.787
X338.931Y-77.787
X357.981Y-115.887
X396.081Y-77.787
X338.931Y-115.887
T0
M30
