G04 #@! TF.GenerationSoftware,KiCad,Pcbnew,(5.99.0-8711-gbabda304d9)*
G04 #@! TF.CreationDate,2021-01-31T05:22:19-06:00*
G04 #@! TF.ProjectId,65NumpadHATCHED,36354e75-6d70-4616-9448-415443484544,rev?*
G04 #@! TF.SameCoordinates,Original*
G04 #@! TF.FileFunction,Soldermask,Bot*
G04 #@! TF.FilePolarity,Negative*
%FSLAX46Y46*%
G04 Gerber Fmt 4.6, Leading zero omitted, Abs format (unit mm)*
G04 Created by KiCad (PCBNEW (5.99.0-8711-gbabda304d9)) date 2021-01-31 05:22:19*
%MOMM*%
%LPD*%
G01*
G04 APERTURE LIST*
%ADD10C,1.750000*%
%ADD11C,1.700000*%
%ADD12C,4.000000*%
%ADD13C,3.987800*%
%ADD14C,2.600000*%
%ADD15C,3.048000*%
%ADD16R,1.700000X1.700000*%
%ADD17O,1.700000X1.700000*%
%ADD18R,1.752600X1.752600*%
%ADD19C,1.752600*%
%ADD20R,1.600000X1.600000*%
%ADD21O,1.600000X1.600000*%
%ADD22C,4.220000*%
G04 APERTURE END LIST*
D10*
X352901250Y-77787500D03*
X363061250Y-77787500D03*
D11*
X363061250Y-77787500D03*
D12*
X357981250Y-77787500D03*
D13*
X357981250Y-77787500D03*
D11*
X352901250Y-77787500D03*
D14*
X354171250Y-75247500D03*
X360521250Y-72707500D03*
D10*
X344011250Y-96837500D03*
D12*
X338931250Y-96837500D03*
D10*
X333851250Y-96837500D03*
D11*
X333851250Y-96837500D03*
X344011250Y-96837500D03*
D13*
X338931250Y-96837500D03*
D14*
X335121250Y-94297500D03*
X341471250Y-91757500D03*
D11*
X333851250Y-115887500D03*
D13*
X338931250Y-115887500D03*
D12*
X338931250Y-115887500D03*
D10*
X333851250Y-115887500D03*
X344011250Y-115887500D03*
D11*
X344011250Y-115887500D03*
D14*
X335121250Y-113347500D03*
X341471250Y-110807500D03*
D11*
X382111250Y-58737500D03*
D10*
X382111250Y-58737500D03*
D11*
X371951250Y-58737500D03*
D13*
X377031250Y-58737500D03*
D12*
X377031250Y-58737500D03*
D10*
X371951250Y-58737500D03*
D14*
X373221250Y-56197500D03*
X379571250Y-53657500D03*
D10*
X382111250Y-77787500D03*
D11*
X382111250Y-77787500D03*
D13*
X377031250Y-77787500D03*
D12*
X377031250Y-77787500D03*
D11*
X371951250Y-77787500D03*
D10*
X371951250Y-77787500D03*
D14*
X373221250Y-75247500D03*
X379571250Y-72707500D03*
D13*
X338931250Y-58737500D03*
D12*
X338931250Y-58737500D03*
D11*
X333851250Y-58737500D03*
D10*
X344011250Y-58737500D03*
X333851250Y-58737500D03*
D11*
X344011250Y-58737500D03*
D14*
X335121250Y-56197500D03*
X341471250Y-53657500D03*
D11*
X344011250Y-77787500D03*
X333851250Y-77787500D03*
D10*
X333851250Y-77787500D03*
X344011250Y-77787500D03*
D12*
X338931250Y-77787500D03*
D13*
X338931250Y-77787500D03*
D14*
X335121250Y-75247500D03*
X341471250Y-72707500D03*
D10*
X371951250Y-96837500D03*
D12*
X377031250Y-96837500D03*
D11*
X371951250Y-96837500D03*
D13*
X377031250Y-96837500D03*
D11*
X382111250Y-96837500D03*
D10*
X382111250Y-96837500D03*
D14*
X373221250Y-94297500D03*
X379571250Y-91757500D03*
D11*
X371951250Y-115887500D03*
D10*
X371951250Y-115887500D03*
X382111250Y-115887500D03*
D11*
X382111250Y-115887500D03*
D13*
X377031250Y-115887500D03*
D12*
X377031250Y-115887500D03*
D14*
X373221250Y-113347500D03*
X379571250Y-110807500D03*
D13*
X348456250Y-134937500D03*
X336550000Y-126682500D03*
D15*
X336550000Y-141922500D03*
X360362500Y-141922500D03*
D13*
X360362500Y-126682500D03*
D10*
X343376250Y-134937500D03*
X353536250Y-134937500D03*
D14*
X344646250Y-132397500D03*
X350996250Y-129857500D03*
D11*
X363061250Y-115887500D03*
X352901250Y-115887500D03*
D10*
X352901250Y-115887500D03*
D13*
X357981250Y-115887500D03*
D12*
X357981250Y-115887500D03*
D10*
X363061250Y-115887500D03*
D14*
X354171250Y-113347500D03*
X360521250Y-110807500D03*
D11*
X363061250Y-96837500D03*
X352901250Y-96837500D03*
D10*
X352901250Y-96837500D03*
D13*
X357981250Y-96837500D03*
D10*
X363061250Y-96837500D03*
D12*
X357981250Y-96837500D03*
D14*
X354171250Y-94297500D03*
X360521250Y-91757500D03*
D15*
X403066250Y-137318750D03*
D13*
X387826250Y-113506250D03*
X387826250Y-137318750D03*
X396081250Y-125412500D03*
D10*
X391001250Y-125412500D03*
X401161250Y-125412500D03*
D15*
X403066250Y-113506250D03*
D14*
X392271250Y-122872500D03*
X398621250Y-120332500D03*
D10*
X401161250Y-58737500D03*
X391001250Y-58737500D03*
D11*
X391001250Y-58737500D03*
D13*
X396081250Y-58737500D03*
D11*
X401161250Y-58737500D03*
D12*
X396081250Y-58737500D03*
D14*
X392271250Y-56197500D03*
X398621250Y-53657500D03*
D13*
X386556250Y-134937500D03*
D15*
X374650000Y-141922500D03*
D10*
X391636250Y-134937500D03*
D13*
X398462500Y-126682500D03*
D10*
X381476250Y-134937500D03*
D13*
X374650000Y-126682500D03*
D15*
X398462500Y-141922500D03*
D14*
X382746250Y-132397500D03*
X389096250Y-129857500D03*
D10*
X371951250Y-134937500D03*
D12*
X377031250Y-134937500D03*
D10*
X382111250Y-134937500D03*
D11*
X371951250Y-134937500D03*
D13*
X377031250Y-134937500D03*
D11*
X382111250Y-134937500D03*
D14*
X373221250Y-132397500D03*
X379571250Y-129857500D03*
D12*
X338931250Y-134937500D03*
D11*
X344011250Y-134937500D03*
D13*
X338931250Y-134937500D03*
D10*
X333851250Y-134937500D03*
X344011250Y-134937500D03*
D11*
X333851250Y-134937500D03*
D14*
X335121250Y-132397500D03*
X341471250Y-129857500D03*
D10*
X333851250Y-87312500D03*
X344011250Y-87312500D03*
D15*
X345916250Y-75406250D03*
X345916250Y-99218750D03*
D13*
X330676250Y-99218750D03*
X330676250Y-75406250D03*
X338931250Y-87312500D03*
D14*
X335121250Y-84772500D03*
X341471250Y-82232500D03*
D12*
X396081250Y-115887500D03*
D10*
X391001250Y-115887500D03*
X401161250Y-115887500D03*
D13*
X396081250Y-115887500D03*
D11*
X391001250Y-115887500D03*
X401161250Y-115887500D03*
D14*
X392271250Y-113347500D03*
X398621250Y-110807500D03*
D11*
X363061250Y-58737500D03*
D12*
X357981250Y-58737500D03*
D13*
X357981250Y-58737500D03*
D10*
X363061250Y-58737500D03*
X352901250Y-58737500D03*
D11*
X352901250Y-58737500D03*
D14*
X354171250Y-56197500D03*
X360521250Y-53657500D03*
D16*
X404812500Y-55562500D03*
D17*
X404812500Y-58102500D03*
X404812500Y-60642500D03*
X404812500Y-63182500D03*
D18*
X350361250Y-51911250D03*
D19*
X350361250Y-54451250D03*
X350361250Y-56991250D03*
X350361250Y-59531250D03*
X350361250Y-62071250D03*
X350361250Y-64611250D03*
X350361250Y-67151250D03*
X350361250Y-69691250D03*
X350361250Y-72231250D03*
X350361250Y-74771250D03*
X350361250Y-77311250D03*
X350361250Y-79851250D03*
X365601250Y-79851250D03*
X365601250Y-77311250D03*
X365601250Y-74771250D03*
X365601250Y-72231250D03*
X365601250Y-69691250D03*
X365601250Y-67151250D03*
X365601250Y-64611250D03*
X365601250Y-62071250D03*
X365601250Y-59531250D03*
X365601250Y-56991250D03*
X365601250Y-54451250D03*
X365601250Y-51911250D03*
D11*
X401161250Y-96837500D03*
D10*
X401161250Y-96837500D03*
D12*
X396081250Y-96837500D03*
D10*
X391001250Y-96837500D03*
D13*
X396081250Y-96837500D03*
D11*
X391001250Y-96837500D03*
D14*
X392271250Y-94297500D03*
X398621250Y-91757500D03*
D10*
X401161250Y-77787500D03*
X391001250Y-77787500D03*
D11*
X391001250Y-77787500D03*
X401161250Y-77787500D03*
D13*
X396081250Y-77787500D03*
D12*
X396081250Y-77787500D03*
D14*
X392271250Y-75247500D03*
X398621250Y-72707500D03*
D10*
X391001250Y-134937500D03*
D13*
X396081250Y-134937500D03*
D11*
X391001250Y-134937500D03*
D12*
X396081250Y-134937500D03*
D11*
X401161250Y-134937500D03*
D10*
X401161250Y-134937500D03*
D14*
X392271250Y-132397500D03*
X398621250Y-129857500D03*
D15*
X403066250Y-75406250D03*
D10*
X401161250Y-87312500D03*
D13*
X387826250Y-99218750D03*
D10*
X391001250Y-87312500D03*
D13*
X387826250Y-75406250D03*
D15*
X403066250Y-99218750D03*
D13*
X396081250Y-87312500D03*
D14*
X392271250Y-84772500D03*
X398621250Y-82232500D03*
D13*
X338931250Y-125412500D03*
D10*
X344011250Y-125412500D03*
D15*
X345916250Y-137318750D03*
X345916250Y-113506250D03*
D13*
X330676250Y-137318750D03*
D10*
X333851250Y-125412500D03*
D13*
X330676250Y-113506250D03*
D14*
X335121250Y-122872500D03*
X341471250Y-120332500D03*
D11*
X363061250Y-134937500D03*
D10*
X352901250Y-134937500D03*
D12*
X357981250Y-134937500D03*
D11*
X352901250Y-134937500D03*
D13*
X357981250Y-134937500D03*
D10*
X363061250Y-134937500D03*
D14*
X354171250Y-132397500D03*
X360521250Y-129857500D03*
D16*
X330200000Y-55562500D03*
D17*
X330200000Y-58102500D03*
X330200000Y-60642500D03*
X330200000Y-63182500D03*
D20*
X361950000Y-119856250D03*
D21*
X354330000Y-119856250D03*
D20*
X381000000Y-82550000D03*
D21*
X373380000Y-82550000D03*
D20*
X381000000Y-123031250D03*
D21*
X373380000Y-123031250D03*
D20*
X361950000Y-85725000D03*
D21*
X354330000Y-85725000D03*
D20*
X400050000Y-101600000D03*
D21*
X392430000Y-101600000D03*
D20*
X361950000Y-123031250D03*
D21*
X354330000Y-123031250D03*
D20*
X371475000Y-142081250D03*
D21*
X363855000Y-142081250D03*
D20*
X381000000Y-104775000D03*
D21*
X373380000Y-104775000D03*
D20*
X361950000Y-82550000D03*
D21*
X354330000Y-82550000D03*
D22*
X403606000Y-68262500D03*
D20*
X361950000Y-104775000D03*
D21*
X354330000Y-104775000D03*
D20*
X381000000Y-119856250D03*
D21*
X373380000Y-119856250D03*
D20*
X400050000Y-65087500D03*
D21*
X392430000Y-65087500D03*
D20*
X381000000Y-66675000D03*
D21*
X373380000Y-66675000D03*
D20*
X400050000Y-104775000D03*
D21*
X392430000Y-104775000D03*
D20*
X381000000Y-85725000D03*
D21*
X373380000Y-85725000D03*
D22*
X331216000Y-68262500D03*
X367506250Y-125412500D03*
D20*
X342900000Y-104775000D03*
D21*
X335280000Y-104775000D03*
D20*
X371475000Y-130968750D03*
D21*
X363855000Y-130968750D03*
D20*
X371475000Y-138906250D03*
D21*
X363855000Y-138906250D03*
D20*
X342900000Y-65087500D03*
D21*
X335280000Y-65087500D03*
D20*
X381000000Y-63500000D03*
D21*
X373380000Y-63500000D03*
M02*
