G04 #@! TF.GenerationSoftware,KiCad,Pcbnew,(5.99.0-8711-gbabda304d9)*
G04 #@! TF.CreationDate,2021-01-31T05:22:19-06:00*
G04 #@! TF.ProjectId,65NumpadHATCHED,36354e75-6d70-4616-9448-415443484544,rev?*
G04 #@! TF.SameCoordinates,Original*
G04 #@! TF.FileFunction,Legend,Top*
G04 #@! TF.FilePolarity,Positive*
%FSLAX46Y46*%
G04 Gerber Fmt 4.6, Leading zero omitted, Abs format (unit mm)*
G04 Created by KiCad (PCBNEW (5.99.0-8711-gbabda304d9)) date 2021-01-31 05:22:19*
%MOMM*%
%LPD*%
G01*
G04 APERTURE LIST*
%ADD10C,0.150000*%
%ADD11C,0.120000*%
%ADD12C,1.700000*%
%ADD13C,4.000000*%
%ADD14C,2.600000*%
%ADD15R,1.752600X1.752600*%
%ADD16C,1.752600*%
G04 APERTURE END LIST*
D10*
X402883630Y-61816964D02*
X401883630Y-61816964D01*
X401883630Y-61436011D01*
X401931250Y-61340773D01*
X401978869Y-61293154D01*
X402074107Y-61245535D01*
X402216964Y-61245535D01*
X402312202Y-61293154D01*
X402359821Y-61340773D01*
X402407440Y-61436011D01*
X402407440Y-61816964D01*
X401883630Y-60626488D02*
X401883630Y-60436011D01*
X401931250Y-60340773D01*
X402026488Y-60245535D01*
X402216964Y-60197916D01*
X402550297Y-60197916D01*
X402740773Y-60245535D01*
X402836011Y-60340773D01*
X402883630Y-60436011D01*
X402883630Y-60626488D01*
X402836011Y-60721726D01*
X402740773Y-60816964D01*
X402550297Y-60864583D01*
X402216964Y-60864583D01*
X402026488Y-60816964D01*
X401931250Y-60721726D01*
X401883630Y-60626488D01*
X401931250Y-59245535D02*
X401883630Y-59340773D01*
X401883630Y-59483630D01*
X401931250Y-59626488D01*
X402026488Y-59721726D01*
X402121726Y-59769345D01*
X402312202Y-59816964D01*
X402455059Y-59816964D01*
X402645535Y-59769345D01*
X402740773Y-59721726D01*
X402836011Y-59626488D01*
X402883630Y-59483630D01*
X402883630Y-59388392D01*
X402836011Y-59245535D01*
X402788392Y-59197916D01*
X402455059Y-59197916D01*
X402455059Y-59388392D01*
X401883630Y-58578869D02*
X401883630Y-58388392D01*
X401931250Y-58293154D01*
X402026488Y-58197916D01*
X402216964Y-58150297D01*
X402550297Y-58150297D01*
X402740773Y-58197916D01*
X402836011Y-58293154D01*
X402883630Y-58388392D01*
X402883630Y-58578869D01*
X402836011Y-58674107D01*
X402740773Y-58769345D01*
X402550297Y-58816964D01*
X402216964Y-58816964D01*
X402026488Y-58769345D01*
X401931250Y-58674107D01*
X401883630Y-58578869D01*
X402216964Y-57293154D02*
X402883630Y-57293154D01*
X401836011Y-57531250D02*
X402550297Y-57769345D01*
X402550297Y-57150297D01*
X333033630Y-61816964D02*
X332033630Y-61816964D01*
X332033630Y-61436011D01*
X332081250Y-61340773D01*
X332128869Y-61293154D01*
X332224107Y-61245535D01*
X332366964Y-61245535D01*
X332462202Y-61293154D01*
X332509821Y-61340773D01*
X332557440Y-61436011D01*
X332557440Y-61816964D01*
X332033630Y-60626488D02*
X332033630Y-60436011D01*
X332081250Y-60340773D01*
X332176488Y-60245535D01*
X332366964Y-60197916D01*
X332700297Y-60197916D01*
X332890773Y-60245535D01*
X332986011Y-60340773D01*
X333033630Y-60436011D01*
X333033630Y-60626488D01*
X332986011Y-60721726D01*
X332890773Y-60816964D01*
X332700297Y-60864583D01*
X332366964Y-60864583D01*
X332176488Y-60816964D01*
X332081250Y-60721726D01*
X332033630Y-60626488D01*
X332081250Y-59245535D02*
X332033630Y-59340773D01*
X332033630Y-59483630D01*
X332081250Y-59626488D01*
X332176488Y-59721726D01*
X332271726Y-59769345D01*
X332462202Y-59816964D01*
X332605059Y-59816964D01*
X332795535Y-59769345D01*
X332890773Y-59721726D01*
X332986011Y-59626488D01*
X333033630Y-59483630D01*
X333033630Y-59388392D01*
X332986011Y-59245535D01*
X332938392Y-59197916D01*
X332605059Y-59197916D01*
X332605059Y-59388392D01*
X332033630Y-58578869D02*
X332033630Y-58388392D01*
X332081250Y-58293154D01*
X332176488Y-58197916D01*
X332366964Y-58150297D01*
X332700297Y-58150297D01*
X332890773Y-58197916D01*
X332986011Y-58293154D01*
X333033630Y-58388392D01*
X333033630Y-58578869D01*
X332986011Y-58674107D01*
X332890773Y-58769345D01*
X332700297Y-58816964D01*
X332366964Y-58816964D01*
X332176488Y-58769345D01*
X332081250Y-58674107D01*
X332033630Y-58578869D01*
X332033630Y-57816964D02*
X332033630Y-57197916D01*
X332414583Y-57531250D01*
X332414583Y-57388392D01*
X332462202Y-57293154D01*
X332509821Y-57245535D01*
X332605059Y-57197916D01*
X332843154Y-57197916D01*
X332938392Y-57245535D01*
X332986011Y-57293154D01*
X333033630Y-57388392D01*
X333033630Y-57674107D01*
X332986011Y-57769345D01*
X332938392Y-57816964D01*
X350981250Y-84787500D02*
X352981250Y-84787500D01*
X352981250Y-70787500D02*
X350981250Y-70787500D01*
X364981250Y-70787500D02*
X364981250Y-72787500D01*
X364981250Y-84787500D02*
X364981250Y-82787500D01*
X350981250Y-82787500D02*
X350981250Y-84787500D01*
X350981250Y-70787500D02*
X350981250Y-72787500D01*
X362981250Y-70787500D02*
X364981250Y-70787500D01*
X362981250Y-84787500D02*
X364981250Y-84787500D01*
X331931250Y-89837500D02*
X331931250Y-91837500D01*
X331931250Y-101837500D02*
X331931250Y-103837500D01*
X345931250Y-89837500D02*
X345931250Y-91837500D01*
X343931250Y-103837500D02*
X345931250Y-103837500D01*
X345931250Y-103837500D02*
X345931250Y-101837500D01*
X333931250Y-89837500D02*
X331931250Y-89837500D01*
X343931250Y-89837500D02*
X345931250Y-89837500D01*
X331931250Y-103837500D02*
X333931250Y-103837500D01*
X333931250Y-108887500D02*
X331931250Y-108887500D01*
X343931250Y-122887500D02*
X345931250Y-122887500D01*
X331931250Y-122887500D02*
X333931250Y-122887500D01*
X345931250Y-108887500D02*
X345931250Y-110887500D01*
X331931250Y-108887500D02*
X331931250Y-110887500D01*
X331931250Y-120887500D02*
X331931250Y-122887500D01*
X345931250Y-122887500D02*
X345931250Y-120887500D01*
X343931250Y-108887500D02*
X345931250Y-108887500D01*
X384031250Y-51737500D02*
X384031250Y-53737500D01*
X370031250Y-63737500D02*
X370031250Y-65737500D01*
X372031250Y-51737500D02*
X370031250Y-51737500D01*
X382031250Y-51737500D02*
X384031250Y-51737500D01*
X382031250Y-65737500D02*
X384031250Y-65737500D01*
X370031250Y-51737500D02*
X370031250Y-53737500D01*
X370031250Y-65737500D02*
X372031250Y-65737500D01*
X384031250Y-65737500D02*
X384031250Y-63737500D01*
X382031250Y-70787500D02*
X384031250Y-70787500D01*
X384031250Y-70787500D02*
X384031250Y-72787500D01*
X370031250Y-70787500D02*
X370031250Y-72787500D01*
X370031250Y-84787500D02*
X372031250Y-84787500D01*
X382031250Y-84787500D02*
X384031250Y-84787500D01*
X384031250Y-84787500D02*
X384031250Y-82787500D01*
X370031250Y-82787500D02*
X370031250Y-84787500D01*
X372031250Y-70787500D02*
X370031250Y-70787500D01*
X343931250Y-51737500D02*
X345931250Y-51737500D01*
X331931250Y-51737500D02*
X331931250Y-53737500D01*
X333931250Y-51737500D02*
X331931250Y-51737500D01*
X331931250Y-65737500D02*
X333931250Y-65737500D01*
X331931250Y-63737500D02*
X331931250Y-65737500D01*
X345931250Y-65737500D02*
X345931250Y-63737500D01*
X345931250Y-51737500D02*
X345931250Y-53737500D01*
X343931250Y-65737500D02*
X345931250Y-65737500D01*
X343931250Y-70787500D02*
X345931250Y-70787500D01*
X333931250Y-70787500D02*
X331931250Y-70787500D01*
X343931250Y-84787500D02*
X345931250Y-84787500D01*
X331931250Y-70787500D02*
X331931250Y-72787500D01*
X331931250Y-82787500D02*
X331931250Y-84787500D01*
X345931250Y-84787500D02*
X345931250Y-82787500D01*
X331931250Y-84787500D02*
X333931250Y-84787500D01*
X345931250Y-70787500D02*
X345931250Y-72787500D01*
X372031250Y-89837500D02*
X370031250Y-89837500D01*
X382031250Y-103837500D02*
X384031250Y-103837500D01*
X370031250Y-101837500D02*
X370031250Y-103837500D01*
X382031250Y-89837500D02*
X384031250Y-89837500D01*
X384031250Y-103837500D02*
X384031250Y-101837500D01*
X384031250Y-89837500D02*
X384031250Y-91837500D01*
X370031250Y-103837500D02*
X372031250Y-103837500D01*
X370031250Y-89837500D02*
X370031250Y-91837500D01*
X382031250Y-122887500D02*
X384031250Y-122887500D01*
X384031250Y-108887500D02*
X384031250Y-110887500D01*
X370031250Y-122887500D02*
X372031250Y-122887500D01*
X384031250Y-122887500D02*
X384031250Y-120887500D01*
X370031250Y-120887500D02*
X370031250Y-122887500D01*
X382031250Y-108887500D02*
X384031250Y-108887500D01*
X372031250Y-108887500D02*
X370031250Y-108887500D01*
X370031250Y-108887500D02*
X370031250Y-110887500D01*
X355456250Y-127937500D02*
X355456250Y-129937500D01*
X353456250Y-141937500D02*
X355456250Y-141937500D01*
X343456250Y-127937500D02*
X341456250Y-127937500D01*
X341456250Y-127937500D02*
X341456250Y-129937500D01*
X341456250Y-139937500D02*
X341456250Y-141937500D01*
X355456250Y-141937500D02*
X355456250Y-139937500D01*
X353456250Y-127937500D02*
X355456250Y-127937500D01*
X341456250Y-141937500D02*
X343456250Y-141937500D01*
X352981250Y-108887500D02*
X350981250Y-108887500D01*
X364981250Y-108887500D02*
X364981250Y-110887500D01*
X350981250Y-120887500D02*
X350981250Y-122887500D01*
X350981250Y-122887500D02*
X352981250Y-122887500D01*
X350981250Y-108887500D02*
X350981250Y-110887500D01*
X364981250Y-122887500D02*
X364981250Y-120887500D01*
X362981250Y-122887500D02*
X364981250Y-122887500D01*
X362981250Y-108887500D02*
X364981250Y-108887500D01*
X364981250Y-89837500D02*
X364981250Y-91837500D01*
X350981250Y-101837500D02*
X350981250Y-103837500D01*
X362981250Y-103837500D02*
X364981250Y-103837500D01*
X362981250Y-89837500D02*
X364981250Y-89837500D01*
X364981250Y-103837500D02*
X364981250Y-101837500D01*
X352981250Y-89837500D02*
X350981250Y-89837500D01*
X350981250Y-103837500D02*
X352981250Y-103837500D01*
X350981250Y-89837500D02*
X350981250Y-91837500D01*
X389081250Y-130412500D02*
X389081250Y-132412500D01*
X389081250Y-132412500D02*
X391081250Y-132412500D01*
X389081250Y-118412500D02*
X389081250Y-120412500D01*
X391081250Y-118412500D02*
X389081250Y-118412500D01*
X403081250Y-132412500D02*
X403081250Y-130412500D01*
X401081250Y-132412500D02*
X403081250Y-132412500D01*
X403081250Y-118412500D02*
X403081250Y-120412500D01*
X401081250Y-118412500D02*
X403081250Y-118412500D01*
X389081250Y-63737500D02*
X389081250Y-65737500D01*
X401081250Y-51737500D02*
X403081250Y-51737500D01*
X403081250Y-65737500D02*
X403081250Y-63737500D01*
X389081250Y-51737500D02*
X389081250Y-53737500D01*
X403081250Y-51737500D02*
X403081250Y-53737500D01*
X401081250Y-65737500D02*
X403081250Y-65737500D01*
X391081250Y-51737500D02*
X389081250Y-51737500D01*
X389081250Y-65737500D02*
X391081250Y-65737500D01*
X381556250Y-127937500D02*
X379556250Y-127937500D01*
X393556250Y-141937500D02*
X393556250Y-139937500D01*
X379556250Y-139937500D02*
X379556250Y-141937500D01*
X391556250Y-141937500D02*
X393556250Y-141937500D01*
X393556250Y-127937500D02*
X393556250Y-129937500D01*
X391556250Y-127937500D02*
X393556250Y-127937500D01*
X379556250Y-141937500D02*
X381556250Y-141937500D01*
X379556250Y-127937500D02*
X379556250Y-129937500D01*
X382031250Y-127937500D02*
X384031250Y-127937500D01*
X370031250Y-139937500D02*
X370031250Y-141937500D01*
X384031250Y-141937500D02*
X384031250Y-139937500D01*
X372031250Y-127937500D02*
X370031250Y-127937500D01*
X382031250Y-141937500D02*
X384031250Y-141937500D01*
X384031250Y-127937500D02*
X384031250Y-129937500D01*
X370031250Y-127937500D02*
X370031250Y-129937500D01*
X370031250Y-141937500D02*
X372031250Y-141937500D01*
X345931250Y-127937500D02*
X345931250Y-129937500D01*
X333931250Y-127937500D02*
X331931250Y-127937500D01*
X343931250Y-127937500D02*
X345931250Y-127937500D01*
X345931250Y-141937500D02*
X345931250Y-139937500D01*
X331931250Y-139937500D02*
X331931250Y-141937500D01*
X343931250Y-141937500D02*
X345931250Y-141937500D01*
X331931250Y-141937500D02*
X333931250Y-141937500D01*
X331931250Y-127937500D02*
X331931250Y-129937500D01*
X343931250Y-80312500D02*
X345931250Y-80312500D01*
X343931250Y-94312500D02*
X345931250Y-94312500D01*
X345931250Y-80312500D02*
X345931250Y-82312500D01*
X331931250Y-92312500D02*
X331931250Y-94312500D01*
X345931250Y-94312500D02*
X345931250Y-92312500D01*
X331931250Y-94312500D02*
X333931250Y-94312500D01*
X333931250Y-80312500D02*
X331931250Y-80312500D01*
X331931250Y-80312500D02*
X331931250Y-82312500D01*
X401081250Y-108887500D02*
X403081250Y-108887500D01*
X389081250Y-122887500D02*
X391081250Y-122887500D01*
X389081250Y-120887500D02*
X389081250Y-122887500D01*
X403081250Y-122887500D02*
X403081250Y-120887500D01*
X389081250Y-108887500D02*
X389081250Y-110887500D01*
X391081250Y-108887500D02*
X389081250Y-108887500D01*
X403081250Y-108887500D02*
X403081250Y-110887500D01*
X401081250Y-122887500D02*
X403081250Y-122887500D01*
X362981250Y-51737500D02*
X364981250Y-51737500D01*
X364981250Y-51737500D02*
X364981250Y-53737500D01*
X364981250Y-65737500D02*
X364981250Y-63737500D01*
X350981250Y-65737500D02*
X352981250Y-65737500D01*
X350981250Y-63737500D02*
X350981250Y-65737500D01*
X362981250Y-65737500D02*
X364981250Y-65737500D01*
X352981250Y-51737500D02*
X350981250Y-51737500D01*
X350981250Y-51737500D02*
X350981250Y-53737500D01*
D11*
X405664500Y-55842500D02*
X407352500Y-55842500D01*
X407346500Y-61022500D02*
X405658500Y-61022500D01*
X407352500Y-55182500D02*
X407352500Y-55942500D01*
X405664500Y-55482500D02*
X407352500Y-55482500D01*
X407346500Y-57722500D02*
X407346500Y-58482500D01*
D10*
X409312500Y-69932500D02*
X409312500Y-68932500D01*
X407312500Y-50732500D02*
X407312500Y-49932500D01*
D11*
X407352500Y-62802500D02*
X407352500Y-63562500D01*
D10*
X407312500Y-49932500D02*
X406312500Y-49932500D01*
X407312500Y-68132500D02*
X407312500Y-68932500D01*
D11*
X405664500Y-55362500D02*
X407352500Y-55362500D01*
D10*
X409312500Y-49932500D02*
X408612500Y-49932500D01*
D11*
X405658500Y-60262500D02*
X407346500Y-60262500D01*
X407352500Y-63562500D02*
X405664500Y-63562500D01*
X407346500Y-58482500D02*
X405658500Y-58482500D01*
X405664500Y-55602500D02*
X407352500Y-55602500D01*
X407346500Y-60262500D02*
X407346500Y-61022500D01*
D10*
X408612500Y-68132500D02*
X407312500Y-68132500D01*
X409312500Y-48932500D02*
X409312500Y-49932500D01*
X407312500Y-68932500D02*
X406312500Y-68932500D01*
D11*
X405664500Y-62802500D02*
X407352500Y-62802500D01*
X405658500Y-57722500D02*
X407346500Y-57722500D01*
X407352500Y-55942500D02*
X405664500Y-55942500D01*
D10*
X408612500Y-50732500D02*
X407312500Y-50732500D01*
X409312500Y-68932500D02*
X408612500Y-68932500D01*
D11*
X405664500Y-55242500D02*
X407352500Y-55242500D01*
D10*
X408612500Y-49932500D02*
X408612500Y-50732500D01*
X408612500Y-68932500D02*
X408612500Y-68132500D01*
D11*
X405664500Y-55182500D02*
X407352500Y-55182500D01*
D10*
X410312500Y-48932500D02*
X409312500Y-48932500D01*
X410312500Y-48932500D02*
X410312500Y-69932500D01*
X406312500Y-49932500D02*
X406312500Y-68932500D01*
D11*
X405664500Y-55722500D02*
X407352500Y-55722500D01*
D10*
X410312500Y-69932500D02*
X409312500Y-69932500D01*
X406312500Y-56062500D02*
X406312500Y-55062500D01*
X389081250Y-103837500D02*
X391081250Y-103837500D01*
X403081250Y-89837500D02*
X403081250Y-91837500D01*
X403081250Y-103837500D02*
X403081250Y-101837500D01*
X401081250Y-103837500D02*
X403081250Y-103837500D01*
X389081250Y-89837500D02*
X389081250Y-91837500D01*
X401081250Y-89837500D02*
X403081250Y-89837500D01*
X389081250Y-101837500D02*
X389081250Y-103837500D01*
X391081250Y-89837500D02*
X389081250Y-89837500D01*
X403081250Y-70787500D02*
X403081250Y-72787500D01*
X401081250Y-84787500D02*
X403081250Y-84787500D01*
X389081250Y-70787500D02*
X389081250Y-72787500D01*
X401081250Y-70787500D02*
X403081250Y-70787500D01*
X389081250Y-82787500D02*
X389081250Y-84787500D01*
X403081250Y-84787500D02*
X403081250Y-82787500D01*
X391081250Y-70787500D02*
X389081250Y-70787500D01*
X389081250Y-84787500D02*
X391081250Y-84787500D01*
X389081250Y-139937500D02*
X389081250Y-141937500D01*
X401081250Y-141937500D02*
X403081250Y-141937500D01*
X389081250Y-127937500D02*
X389081250Y-129937500D01*
X391081250Y-127937500D02*
X389081250Y-127937500D01*
X389081250Y-141937500D02*
X391081250Y-141937500D01*
X403081250Y-141937500D02*
X403081250Y-139937500D01*
X403081250Y-127937500D02*
X403081250Y-129937500D01*
X401081250Y-127937500D02*
X403081250Y-127937500D01*
X391081250Y-80312500D02*
X389081250Y-80312500D01*
X389081250Y-94312500D02*
X391081250Y-94312500D01*
X401081250Y-94312500D02*
X403081250Y-94312500D01*
X389081250Y-92312500D02*
X389081250Y-94312500D01*
X403081250Y-94312500D02*
X403081250Y-92312500D01*
X401081250Y-80312500D02*
X403081250Y-80312500D01*
X389081250Y-80312500D02*
X389081250Y-82312500D01*
X403081250Y-80312500D02*
X403081250Y-82312500D01*
X345931250Y-118412500D02*
X345931250Y-120412500D01*
X343931250Y-132412500D02*
X345931250Y-132412500D01*
X331931250Y-118412500D02*
X331931250Y-120412500D01*
X345931250Y-132412500D02*
X345931250Y-130412500D01*
X343931250Y-118412500D02*
X345931250Y-118412500D01*
X333931250Y-118412500D02*
X331931250Y-118412500D01*
X331931250Y-132412500D02*
X333931250Y-132412500D01*
X331931250Y-130412500D02*
X331931250Y-132412500D01*
X364981250Y-127937500D02*
X364981250Y-129937500D01*
X350981250Y-141937500D02*
X352981250Y-141937500D01*
X362981250Y-141937500D02*
X364981250Y-141937500D01*
X364981250Y-141937500D02*
X364981250Y-139937500D01*
X362981250Y-127937500D02*
X364981250Y-127937500D01*
X350981250Y-139937500D02*
X350981250Y-141937500D01*
X350981250Y-127937500D02*
X350981250Y-129937500D01*
X352981250Y-127937500D02*
X350981250Y-127937500D01*
X324700000Y-48932500D02*
X325700000Y-48932500D01*
X326400000Y-49932500D02*
X326400000Y-50732500D01*
X327700000Y-49932500D02*
X328700000Y-49932500D01*
D11*
X329348000Y-55362500D02*
X327660000Y-55362500D01*
D10*
X326400000Y-50732500D02*
X327700000Y-50732500D01*
D11*
X327666000Y-61022500D02*
X329354000Y-61022500D01*
D10*
X324700000Y-69932500D02*
X325700000Y-69932500D01*
D11*
X329348000Y-55602500D02*
X327660000Y-55602500D01*
D10*
X325700000Y-48932500D02*
X325700000Y-49932500D01*
X327700000Y-68932500D02*
X328700000Y-68932500D01*
X324700000Y-48932500D02*
X324700000Y-69932500D01*
X325700000Y-68932500D02*
X326400000Y-68932500D01*
X326400000Y-68932500D02*
X326400000Y-68132500D01*
X325700000Y-69932500D02*
X325700000Y-68932500D01*
X328700000Y-56062500D02*
X328700000Y-55062500D01*
D11*
X329348000Y-55482500D02*
X327660000Y-55482500D01*
X329354000Y-60262500D02*
X327666000Y-60262500D01*
X329348000Y-55842500D02*
X327660000Y-55842500D01*
X327666000Y-58482500D02*
X329354000Y-58482500D01*
X329354000Y-57722500D02*
X327666000Y-57722500D01*
X327660000Y-62802500D02*
X327660000Y-63562500D01*
X329348000Y-55182500D02*
X327660000Y-55182500D01*
X327666000Y-60262500D02*
X327666000Y-61022500D01*
X327660000Y-63562500D02*
X329348000Y-63562500D01*
D10*
X327700000Y-68132500D02*
X327700000Y-68932500D01*
D11*
X329348000Y-55722500D02*
X327660000Y-55722500D01*
X327666000Y-57722500D02*
X327666000Y-58482500D01*
D10*
X327700000Y-50732500D02*
X327700000Y-49932500D01*
D11*
X329348000Y-62802500D02*
X327660000Y-62802500D01*
D10*
X328700000Y-49932500D02*
X328700000Y-68932500D01*
D11*
X329348000Y-55242500D02*
X327660000Y-55242500D01*
X327660000Y-55182500D02*
X327660000Y-55942500D01*
D10*
X325700000Y-49932500D02*
X326400000Y-49932500D01*
X326400000Y-68132500D02*
X327700000Y-68132500D01*
D11*
X327660000Y-55942500D02*
X329348000Y-55942500D01*
D12*
X363061250Y-77787500D03*
D13*
X357981250Y-77787500D03*
D12*
X352901250Y-77787500D03*
D14*
X354171250Y-75247500D03*
D13*
X338931250Y-96837500D03*
D12*
X333851250Y-96837500D03*
X344011250Y-96837500D03*
D14*
X335121250Y-94297500D03*
D12*
X333851250Y-115887500D03*
D13*
X338931250Y-115887500D03*
D12*
X344011250Y-115887500D03*
D14*
X335121250Y-113347500D03*
D12*
X382111250Y-58737500D03*
X371951250Y-58737500D03*
D13*
X377031250Y-58737500D03*
D14*
X373221250Y-56197500D03*
D12*
X382111250Y-77787500D03*
D13*
X377031250Y-77787500D03*
D12*
X371951250Y-77787500D03*
D14*
X373221250Y-75247500D03*
D13*
X338931250Y-58737500D03*
D12*
X333851250Y-58737500D03*
X344011250Y-58737500D03*
D14*
X335121250Y-56197500D03*
D12*
X344011250Y-77787500D03*
X333851250Y-77787500D03*
D13*
X338931250Y-77787500D03*
D14*
X335121250Y-75247500D03*
D13*
X377031250Y-96837500D03*
D12*
X371951250Y-96837500D03*
X382111250Y-96837500D03*
D14*
X373221250Y-94297500D03*
D12*
X371951250Y-115887500D03*
X382111250Y-115887500D03*
D13*
X377031250Y-115887500D03*
D14*
X373221250Y-113347500D03*
X344646250Y-132397500D03*
D12*
X363061250Y-115887500D03*
X352901250Y-115887500D03*
D13*
X357981250Y-115887500D03*
D14*
X354171250Y-113347500D03*
D12*
X363061250Y-96837500D03*
X352901250Y-96837500D03*
D13*
X357981250Y-96837500D03*
D14*
X354171250Y-94297500D03*
X392271250Y-122872500D03*
D12*
X391001250Y-58737500D03*
X401161250Y-58737500D03*
D13*
X396081250Y-58737500D03*
D14*
X392271250Y-56197500D03*
X382746250Y-132397500D03*
D13*
X377031250Y-134937500D03*
D12*
X371951250Y-134937500D03*
X382111250Y-134937500D03*
D14*
X373221250Y-132397500D03*
D13*
X338931250Y-134937500D03*
D12*
X344011250Y-134937500D03*
X333851250Y-134937500D03*
D14*
X335121250Y-132397500D03*
X335121250Y-84772500D03*
D13*
X396081250Y-115887500D03*
D12*
X391001250Y-115887500D03*
X401161250Y-115887500D03*
D14*
X392271250Y-113347500D03*
D12*
X363061250Y-58737500D03*
D13*
X357981250Y-58737500D03*
D12*
X352901250Y-58737500D03*
D14*
X354171250Y-56197500D03*
D15*
X350361250Y-51911250D03*
D16*
X350361250Y-54451250D03*
X350361250Y-56991250D03*
X350361250Y-59531250D03*
X350361250Y-62071250D03*
X350361250Y-64611250D03*
X350361250Y-67151250D03*
X350361250Y-69691250D03*
X350361250Y-72231250D03*
X350361250Y-74771250D03*
X350361250Y-77311250D03*
X350361250Y-79851250D03*
X365601250Y-79851250D03*
X365601250Y-77311250D03*
X365601250Y-74771250D03*
X365601250Y-72231250D03*
X365601250Y-69691250D03*
X365601250Y-67151250D03*
X365601250Y-64611250D03*
X365601250Y-62071250D03*
X365601250Y-59531250D03*
X365601250Y-56991250D03*
X365601250Y-54451250D03*
X365601250Y-51911250D03*
D12*
X401161250Y-96837500D03*
D13*
X396081250Y-96837500D03*
D12*
X391001250Y-96837500D03*
D14*
X392271250Y-94297500D03*
D12*
X391001250Y-77787500D03*
X401161250Y-77787500D03*
D13*
X396081250Y-77787500D03*
D14*
X392271250Y-75247500D03*
D12*
X391001250Y-134937500D03*
D13*
X396081250Y-134937500D03*
D12*
X401161250Y-134937500D03*
D14*
X392271250Y-132397500D03*
X392271250Y-84772500D03*
X335121250Y-122872500D03*
D12*
X363061250Y-134937500D03*
D13*
X357981250Y-134937500D03*
D12*
X352901250Y-134937500D03*
D14*
X354171250Y-132397500D03*
M02*
