G04 #@! TF.GenerationSoftware,KiCad,Pcbnew,(5.1.4)-1*
G04 #@! TF.CreationDate,2021-01-30T01:06:02-06:00*
G04 #@! TF.ProjectId,65Numpad,36354e75-6d70-4616-942e-6b696361645f,rev?*
G04 #@! TF.SameCoordinates,Original*
G04 #@! TF.FileFunction,Profile,NP*
%FSLAX46Y46*%
G04 Gerber Fmt 4.6, Leading zero omitted, Abs format (unit mm)*
G04 Created by KiCad (PCBNEW (5.1.4)-1) date 2021-01-30 01:06:02*
%MOMM*%
%LPD*%
G04 APERTURE LIST*
%ADD10C,0.050000*%
G04 APERTURE END LIST*
D10*
X327818750Y-49212500D02*
X327818750Y-51593750D01*
X323850000Y-65881250D02*
X326231250Y-65881250D01*
X323850000Y-65881250D02*
G75*
G02X322262500Y-64293750I0J1587500D01*
G01*
X323850000Y-53181250D02*
X326231250Y-53181250D01*
X322262500Y-54768750D02*
G75*
G02X323850000Y-53181250I1587500J0D01*
G01*
X326231250Y-65881250D02*
G75*
G02X327818750Y-67468750I0J-1587500D01*
G01*
X407193750Y-49212500D02*
X407193750Y-51593750D01*
X408781250Y-53181250D02*
G75*
G02X407193750Y-51593750I0J1587500D01*
G01*
X411162500Y-65881250D02*
X408781250Y-65881250D01*
X412750000Y-64293750D02*
X412750000Y-54768750D01*
X411162500Y-53181250D02*
G75*
G02X412750000Y-54768750I0J-1587500D01*
G01*
X408781250Y-53181250D02*
X411162500Y-53181250D01*
X407193750Y-67468750D02*
G75*
G02X408781250Y-65881250I1587500J0D01*
G01*
X327818750Y-51593750D02*
G75*
G02X326231250Y-53181250I-1587500J0D01*
G01*
X412750000Y-64293750D02*
G75*
G02X411162500Y-65881250I-1587500J0D01*
G01*
X329406250Y-146050000D02*
G75*
G02X327818750Y-144462500I0J1587500D01*
G01*
X407193750Y-144462500D02*
X407193750Y-67468750D01*
X407193750Y-144462500D02*
G75*
G02X405606250Y-146050000I-1587500J0D01*
G01*
X329406250Y-146050000D02*
X405606250Y-146050000D01*
X322262500Y-54768750D02*
X322262500Y-64293750D01*
X327818750Y-67468750D02*
X327818750Y-144462500D01*
X405606250Y-47625000D02*
X329406250Y-47625000D01*
X405606250Y-47625000D02*
G75*
G02X407193750Y-49212500I0J-1587500D01*
G01*
X327818750Y-49212500D02*
G75*
G02X329406250Y-47625000I1587500J0D01*
G01*
M02*
