M48
; DRILL file {KiCad (5.99.0-8711-gbabda304d9)} date 01/31/21 05:22:20
; FORMAT={-:-/ absolute / metric / decimal}
; #@! TF.CreationDate,2021-01-31T05:22:20-06:00
; #@! TF.GenerationSoftware,Kicad,Pcbnew,(5.99.0-8711-gbabda304d9)
FMAT,2
METRIC
T1C0.400
T2C0.800
T3C1.000
T4C1.092
T5C1.600
T6C1.700
T7C1.750
T8C3.048
T9C3.988
T10C4.000
T11C4.220
%
G90
G05
T1
X338.931Y-55.47
X348.456Y-83.344
X351.631Y-123.825
X353.219Y-61.119
X354.806Y-72.231
X355.6Y-101.6
X357.981Y-61.912
X361.156Y-63.884
X364.331Y-105.569
X365.058Y-89.154
X365.506Y-101.6
X367.506Y-65.881
X371.094Y-89.154
X371.856Y-101.6
X373.062Y-61.912
X373.856Y-68.263
X374.65Y-101.6
X377.825Y-63.5
X392.117Y-110.327
T2
X335.28Y-65.087
X335.28Y-104.775
X342.9Y-65.087
X342.9Y-104.775
X354.33Y-82.55
X354.33Y-85.725
X354.33Y-104.775
X354.33Y-119.856
X354.33Y-123.031
X361.95Y-82.55
X361.95Y-85.725
X361.95Y-104.775
X361.95Y-119.856
X361.95Y-123.031
X363.855Y-130.969
X363.855Y-138.906
X363.855Y-142.081
X371.475Y-130.969
X371.475Y-138.906
X371.475Y-142.081
X373.38Y-63.5
X373.38Y-66.675
X373.38Y-82.55
X373.38Y-85.725
X373.38Y-104.775
X373.38Y-119.856
X373.38Y-123.031
X381.0Y-63.5
X381.0Y-66.675
X381.0Y-82.55
X381.0Y-85.725
X381.0Y-104.775
X381.0Y-119.856
X381.0Y-123.031
X392.43Y-65.087
X392.43Y-101.6
X392.43Y-104.775
X400.05Y-65.087
X400.05Y-101.6
X400.05Y-104.775
T3
X330.2Y-55.562
X330.2Y-58.102
X330.2Y-60.642
X330.2Y-63.182
X404.812Y-55.562
X404.812Y-58.102
X404.812Y-60.642
X404.812Y-63.182
T4
X350.361Y-51.911
X350.361Y-54.451
X350.361Y-56.991
X350.361Y-59.531
X350.361Y-62.071
X350.361Y-64.611
X350.361Y-67.151
X350.361Y-69.691
X350.361Y-72.231
X350.361Y-74.771
X350.361Y-77.311
X350.361Y-79.851
X365.601Y-51.911
X365.601Y-54.451
X365.601Y-56.991
X365.601Y-59.531
X365.601Y-62.071
X365.601Y-64.611
X365.601Y-67.151
X365.601Y-69.691
X365.601Y-72.231
X365.601Y-74.771
X365.601Y-77.311
X365.601Y-79.851
T5
X335.121Y-56.197
X335.121Y-75.248
X335.121Y-84.772
X335.121Y-94.297
X335.121Y-113.347
X335.121Y-122.872
X335.121Y-132.398
X341.471Y-53.657
X341.471Y-72.707
X341.471Y-82.233
X341.471Y-91.757
X341.471Y-110.807
X341.471Y-120.332
X341.471Y-129.857
X344.646Y-132.398
X350.996Y-129.857
X354.171Y-56.197
X354.171Y-75.248
X354.171Y-94.297
X354.171Y-113.347
X354.171Y-132.398
X360.521Y-53.657
X360.521Y-72.707
X360.521Y-91.757
X360.521Y-110.807
X360.521Y-129.857
X373.221Y-56.197
X373.221Y-75.248
X373.221Y-94.297
X373.221Y-113.347
X373.221Y-132.398
X379.571Y-53.657
X379.571Y-72.707
X379.571Y-91.757
X379.571Y-110.807
X379.571Y-129.857
X382.746Y-132.398
X389.096Y-129.857
X392.271Y-56.197
X392.271Y-75.248
X392.271Y-84.772
X392.271Y-94.297
X392.271Y-113.347
X392.271Y-122.872
X392.271Y-132.398
X398.621Y-53.657
X398.621Y-72.707
X398.621Y-82.233
X398.621Y-91.757
X398.621Y-110.807
X398.621Y-120.332
X398.621Y-129.857
T6
X333.851Y-58.737
X333.851Y-77.787
X333.851Y-96.837
X333.851Y-115.887
X333.851Y-134.938
X344.011Y-58.737
X344.011Y-77.787
X344.011Y-96.837
X344.011Y-115.887
X344.011Y-134.938
X352.901Y-58.737
X352.901Y-77.787
X352.901Y-96.837
X352.901Y-115.887
X352.901Y-134.938
X363.061Y-58.737
X363.061Y-77.787
X363.061Y-96.837
X363.061Y-115.887
X363.061Y-134.938
X371.951Y-58.737
X371.951Y-77.787
X371.951Y-96.837
X371.951Y-115.887
X371.951Y-134.938
X382.111Y-58.737
X382.111Y-77.787
X382.111Y-96.837
X382.111Y-115.887
X382.111Y-134.938
X391.001Y-58.737
X391.001Y-77.787
X391.001Y-96.837
X391.001Y-115.887
X391.001Y-134.938
X401.161Y-58.737
X401.161Y-77.787
X401.161Y-96.837
X401.161Y-115.887
X401.161Y-134.938
T7
X333.851Y-58.737
X333.851Y-77.787
X333.851Y-87.312
X333.851Y-96.837
X333.851Y-115.887
X333.851Y-125.412
X333.851Y-134.938
X343.376Y-134.938
X344.011Y-58.737
X344.011Y-77.787
X344.011Y-87.312
X344.011Y-96.837
X344.011Y-115.887
X344.011Y-125.412
X344.011Y-134.938
X352.901Y-58.737
X352.901Y-77.787
X352.901Y-96.837
X352.901Y-115.887
X352.901Y-134.938
X353.536Y-134.938
X363.061Y-58.737
X363.061Y-77.787
X363.061Y-96.837
X363.061Y-115.887
X363.061Y-134.938
X371.951Y-58.737
X371.951Y-77.787
X371.951Y-96.837
X371.951Y-115.887
X371.951Y-134.938
X381.476Y-134.938
X382.111Y-58.737
X382.111Y-77.787
X382.111Y-96.837
X382.111Y-115.887
X382.111Y-134.938
X391.001Y-58.737
X391.001Y-77.787
X391.001Y-87.312
X391.001Y-96.837
X391.001Y-115.887
X391.001Y-125.412
X391.001Y-134.938
X391.636Y-134.938
X401.161Y-58.737
X401.161Y-77.787
X401.161Y-87.312
X401.161Y-96.837
X401.161Y-115.887
X401.161Y-125.412
X401.161Y-134.938
T8
X336.55Y-141.922
X345.916Y-75.406
X345.916Y-99.219
X345.916Y-113.506
X345.916Y-137.319
X360.363Y-141.922
X374.65Y-141.922
X398.462Y-141.922
X403.066Y-75.406
X403.066Y-99.219
X403.066Y-113.506
X403.066Y-137.319
T9
X330.676Y-75.406
X330.676Y-99.219
X330.676Y-113.506
X330.676Y-137.319
X336.55Y-126.682
X338.931Y-58.737
X338.931Y-77.787
X338.931Y-87.312
X338.931Y-96.837
X338.931Y-115.887
X338.931Y-125.412
X338.931Y-134.938
X348.456Y-134.938
X357.981Y-58.737
X357.981Y-77.787
X357.981Y-96.837
X357.981Y-115.887
X357.981Y-134.938
X360.363Y-126.682
X374.65Y-126.682
X377.031Y-58.737
X377.031Y-77.787
X377.031Y-96.837
X377.031Y-115.887
X377.031Y-134.938
X386.556Y-134.938
X387.826Y-75.406
X387.826Y-99.219
X387.826Y-113.506
X387.826Y-137.319
X396.081Y-58.737
X396.081Y-77.787
X396.081Y-87.312
X396.081Y-96.837
X396.081Y-115.887
X396.081Y-125.412
X396.081Y-134.938
X398.462Y-126.682
T10
X338.931Y-58.737
X338.931Y-77.787
X338.931Y-96.837
X338.931Y-115.887
X338.931Y-134.938
X357.981Y-58.737
X357.981Y-77.787
X357.981Y-96.837
X357.981Y-115.887
X357.981Y-134.938
X377.031Y-58.737
X377.031Y-77.787
X377.031Y-96.837
X377.031Y-115.887
X377.031Y-134.938
X396.081Y-58.737
X396.081Y-77.787
X396.081Y-96.837
X396.081Y-115.887
X396.081Y-134.938
T11
X331.216Y-68.263
X367.506Y-125.412
X403.606Y-68.263
T0
M30
