G04 #@! TF.GenerationSoftware,KiCad,Pcbnew,(5.1.4)-1*
G04 #@! TF.CreationDate,2021-01-30T00:12:26-06:00*
G04 #@! TF.ProjectId,65NumpadPLATE,36354e75-6d70-4616-9450-4c4154452e6b,rev?*
G04 #@! TF.SameCoordinates,Original*
G04 #@! TF.FileFunction,Soldermask,Top*
G04 #@! TF.FilePolarity,Negative*
%FSLAX46Y46*%
G04 Gerber Fmt 4.6, Leading zero omitted, Abs format (unit mm)*
G04 Created by KiCad (PCBNEW (5.1.4)-1) date 2021-01-30 00:12:26*
%MOMM*%
%LPD*%
G04 APERTURE LIST*
%ADD10C,0.100000*%
G04 APERTURE END LIST*
D10*
G36*
X210719006Y-123803798D02*
G01*
X210825329Y-123824947D01*
X211125792Y-123949403D01*
X211396201Y-124130085D01*
X211626165Y-124360049D01*
X211806847Y-124630458D01*
X211931303Y-124930921D01*
X211994750Y-125249891D01*
X211994750Y-125575109D01*
X211931303Y-125894079D01*
X211806847Y-126194542D01*
X211626165Y-126464951D01*
X211396201Y-126694915D01*
X211125792Y-126875597D01*
X210825329Y-127000053D01*
X210719006Y-127021202D01*
X210506361Y-127063500D01*
X210181139Y-127063500D01*
X209968494Y-127021202D01*
X209862171Y-127000053D01*
X209561708Y-126875597D01*
X209291299Y-126694915D01*
X209061335Y-126464951D01*
X208880653Y-126194542D01*
X208756197Y-125894079D01*
X208692750Y-125575109D01*
X208692750Y-125249891D01*
X208756197Y-124930921D01*
X208880653Y-124630458D01*
X209061335Y-124360049D01*
X209291299Y-124130085D01*
X209561708Y-123949403D01*
X209862171Y-123824947D01*
X209968494Y-123803798D01*
X210181139Y-123761500D01*
X210506361Y-123761500D01*
X210719006Y-123803798D01*
X210719006Y-123803798D01*
G37*
G36*
X67844006Y-123803798D02*
G01*
X67950329Y-123824947D01*
X68250792Y-123949403D01*
X68521201Y-124130085D01*
X68751165Y-124360049D01*
X68931847Y-124630458D01*
X69056303Y-124930921D01*
X69119750Y-125249891D01*
X69119750Y-125575109D01*
X69056303Y-125894079D01*
X68931847Y-126194542D01*
X68751165Y-126464951D01*
X68521201Y-126694915D01*
X68250792Y-126875597D01*
X67950329Y-127000053D01*
X67844006Y-127021202D01*
X67631361Y-127063500D01*
X67306139Y-127063500D01*
X67093494Y-127021202D01*
X66987171Y-127000053D01*
X66686708Y-126875597D01*
X66416299Y-126694915D01*
X66186335Y-126464951D01*
X66005653Y-126194542D01*
X65881197Y-125894079D01*
X65817750Y-125575109D01*
X65817750Y-125249891D01*
X65881197Y-124930921D01*
X66005653Y-124630458D01*
X66186335Y-124360049D01*
X66416299Y-124130085D01*
X66686708Y-123949403D01*
X66987171Y-123824947D01*
X67093494Y-123803798D01*
X67306139Y-123761500D01*
X67631361Y-123761500D01*
X67844006Y-123803798D01*
X67844006Y-123803798D01*
G37*
G36*
X282156506Y-85703798D02*
G01*
X282262829Y-85724947D01*
X282563292Y-85849403D01*
X282833701Y-86030085D01*
X283063665Y-86260049D01*
X283244347Y-86530458D01*
X283368803Y-86830921D01*
X283432250Y-87149891D01*
X283432250Y-87475109D01*
X283368803Y-87794079D01*
X283244347Y-88094542D01*
X283063665Y-88364951D01*
X282833701Y-88594915D01*
X282563292Y-88775597D01*
X282262829Y-88900053D01*
X282156506Y-88921202D01*
X281943861Y-88963500D01*
X281618639Y-88963500D01*
X281405994Y-88921202D01*
X281299671Y-88900053D01*
X280999208Y-88775597D01*
X280728799Y-88594915D01*
X280498835Y-88364951D01*
X280318153Y-88094542D01*
X280193697Y-87794079D01*
X280130250Y-87475109D01*
X280130250Y-87149891D01*
X280193697Y-86830921D01*
X280318153Y-86530458D01*
X280498835Y-86260049D01*
X280728799Y-86030085D01*
X280999208Y-85849403D01*
X281299671Y-85724947D01*
X281405994Y-85703798D01*
X281618639Y-85661500D01*
X281943861Y-85661500D01*
X282156506Y-85703798D01*
X282156506Y-85703798D01*
G37*
G36*
X-418494Y-76178798D02*
G01*
X-312171Y-76199947D01*
X-11708Y-76324403D01*
X258701Y-76505085D01*
X488665Y-76735049D01*
X669347Y-77005458D01*
X793803Y-77305921D01*
X857250Y-77624891D01*
X857250Y-77950109D01*
X793803Y-78269079D01*
X669347Y-78569542D01*
X488665Y-78839951D01*
X258701Y-79069915D01*
X-11708Y-79250597D01*
X-312171Y-79375053D01*
X-418494Y-79396202D01*
X-631139Y-79438500D01*
X-956361Y-79438500D01*
X-1169006Y-79396202D01*
X-1275329Y-79375053D01*
X-1575792Y-79250597D01*
X-1846201Y-79069915D01*
X-2076165Y-78839951D01*
X-2256847Y-78569542D01*
X-2381303Y-78269079D01*
X-2444750Y-77950109D01*
X-2444750Y-77624891D01*
X-2381303Y-77305921D01*
X-2256847Y-77005458D01*
X-2076165Y-76735049D01*
X-1846201Y-76505085D01*
X-1575792Y-76324403D01*
X-1275329Y-76199947D01*
X-1169006Y-76178798D01*
X-956361Y-76136500D01*
X-631139Y-76136500D01*
X-418494Y-76178798D01*
X-418494Y-76178798D01*
G37*
G36*
X205956506Y-66653798D02*
G01*
X206062829Y-66674947D01*
X206363292Y-66799403D01*
X206633701Y-66980085D01*
X206863665Y-67210049D01*
X207044347Y-67480458D01*
X207168803Y-67780921D01*
X207232250Y-68099891D01*
X207232250Y-68425109D01*
X207168803Y-68744079D01*
X207044347Y-69044542D01*
X206863665Y-69314951D01*
X206633701Y-69544915D01*
X206363292Y-69725597D01*
X206062829Y-69850053D01*
X205956506Y-69871202D01*
X205743861Y-69913500D01*
X205418639Y-69913500D01*
X205205994Y-69871202D01*
X205099671Y-69850053D01*
X204799208Y-69725597D01*
X204528799Y-69544915D01*
X204298835Y-69314951D01*
X204118153Y-69044542D01*
X203993697Y-68744079D01*
X203930250Y-68425109D01*
X203930250Y-68099891D01*
X203993697Y-67780921D01*
X204118153Y-67480458D01*
X204298835Y-67210049D01*
X204528799Y-66980085D01*
X204799208Y-66799403D01*
X205099671Y-66674947D01*
X205205994Y-66653798D01*
X205418639Y-66611500D01*
X205743861Y-66611500D01*
X205956506Y-66653798D01*
X205956506Y-66653798D01*
G37*
G36*
X72606506Y-66653798D02*
G01*
X72712829Y-66674947D01*
X73013292Y-66799403D01*
X73283701Y-66980085D01*
X73513665Y-67210049D01*
X73694347Y-67480458D01*
X73818803Y-67780921D01*
X73882250Y-68099891D01*
X73882250Y-68425109D01*
X73818803Y-68744079D01*
X73694347Y-69044542D01*
X73513665Y-69314951D01*
X73283701Y-69544915D01*
X73013292Y-69725597D01*
X72712829Y-69850053D01*
X72606506Y-69871202D01*
X72393861Y-69913500D01*
X72068639Y-69913500D01*
X71855994Y-69871202D01*
X71749671Y-69850053D01*
X71449208Y-69725597D01*
X71178799Y-69544915D01*
X70948835Y-69314951D01*
X70768153Y-69044542D01*
X70643697Y-68744079D01*
X70580250Y-68425109D01*
X70580250Y-68099891D01*
X70643697Y-67780921D01*
X70768153Y-67480458D01*
X70948835Y-67210049D01*
X71178799Y-66980085D01*
X71449208Y-66799403D01*
X71749671Y-66674947D01*
X71855994Y-66653798D01*
X72068639Y-66611500D01*
X72393861Y-66611500D01*
X72606506Y-66653798D01*
X72606506Y-66653798D01*
G37*
M02*
