G04 #@! TF.GenerationSoftware,KiCad,Pcbnew,(5.1.4)-1*
G04 #@! TF.CreationDate,2021-01-04T02:31:35-06:00*
G04 #@! TF.ProjectId,65Numpad,36354e75-6d70-4616-942e-6b696361645f,rev?*
G04 #@! TF.SameCoordinates,Original*
G04 #@! TF.FileFunction,Legend,Top*
G04 #@! TF.FilePolarity,Positive*
%FSLAX46Y46*%
G04 Gerber Fmt 4.6, Leading zero omitted, Abs format (unit mm)*
G04 Created by KiCad (PCBNEW (5.1.4)-1) date 2021-01-04 02:31:35*
%MOMM*%
%LPD*%
G04 APERTURE LIST*
%ADD10C,0.120000*%
%ADD11C,0.381000*%
%ADD12C,0.150000*%
G04 APERTURE END LIST*
D10*
X404665000Y-54232500D02*
X404665000Y-64512500D01*
X404665000Y-64512500D02*
X407325000Y-64512500D01*
X407325000Y-64512500D02*
X407325000Y-54232500D01*
X407325000Y-54232500D02*
X404665000Y-54232500D01*
X407325000Y-55182500D02*
X413325000Y-55182500D01*
X413325000Y-55182500D02*
X413325000Y-55942500D01*
X413325000Y-55942500D02*
X407325000Y-55942500D01*
X407325000Y-55242500D02*
X413325000Y-55242500D01*
X407325000Y-55362500D02*
X413325000Y-55362500D01*
X407325000Y-55482500D02*
X413325000Y-55482500D01*
X407325000Y-55602500D02*
X413325000Y-55602500D01*
X407325000Y-55722500D02*
X413325000Y-55722500D01*
X407325000Y-55842500D02*
X413325000Y-55842500D01*
X404335000Y-55182500D02*
X404665000Y-55182500D01*
X404335000Y-55942500D02*
X404665000Y-55942500D01*
X404665000Y-56832500D02*
X407325000Y-56832500D01*
X407325000Y-57722500D02*
X413325000Y-57722500D01*
X413325000Y-57722500D02*
X413325000Y-58482500D01*
X413325000Y-58482500D02*
X407325000Y-58482500D01*
X404267929Y-57722500D02*
X404665000Y-57722500D01*
X404267929Y-58482500D02*
X404665000Y-58482500D01*
X404665000Y-59372500D02*
X407325000Y-59372500D01*
X407325000Y-60262500D02*
X413325000Y-60262500D01*
X413325000Y-60262500D02*
X413325000Y-61022500D01*
X413325000Y-61022500D02*
X407325000Y-61022500D01*
X404267929Y-60262500D02*
X404665000Y-60262500D01*
X404267929Y-61022500D02*
X404665000Y-61022500D01*
X404665000Y-61912500D02*
X407325000Y-61912500D01*
X407325000Y-62802500D02*
X413325000Y-62802500D01*
X413325000Y-62802500D02*
X413325000Y-63562500D01*
X413325000Y-63562500D02*
X407325000Y-63562500D01*
X404267929Y-62802500D02*
X404665000Y-62802500D01*
X404267929Y-63562500D02*
X404665000Y-63562500D01*
X401955000Y-55562500D02*
X401955000Y-54292500D01*
X401955000Y-54292500D02*
X403225000Y-54292500D01*
D11*
X351631250Y-50641250D02*
X349091250Y-50641250D01*
X349091250Y-48101250D02*
X349091250Y-50641250D01*
X366871250Y-48101250D02*
X349091250Y-48101250D01*
X366871250Y-50641250D02*
X366871250Y-48101250D01*
D12*
G36*
X362912818Y-57120610D02*
G01*
X362912818Y-57320610D01*
X362812818Y-57320610D01*
X362812818Y-57120610D01*
X362912818Y-57120610D01*
G37*
X362912818Y-57120610D02*
X362912818Y-57320610D01*
X362812818Y-57320610D01*
X362812818Y-57120610D01*
X362912818Y-57120610D01*
G36*
X362512818Y-56520610D02*
G01*
X362512818Y-57320610D01*
X362412818Y-57320610D01*
X362412818Y-56520610D01*
X362512818Y-56520610D01*
G37*
X362512818Y-56520610D02*
X362512818Y-57320610D01*
X362412818Y-57320610D01*
X362412818Y-56520610D01*
X362512818Y-56520610D01*
G36*
X362912818Y-56520610D02*
G01*
X362912818Y-56620610D01*
X362412818Y-56620610D01*
X362412818Y-56520610D01*
X362912818Y-56520610D01*
G37*
X362912818Y-56520610D02*
X362912818Y-56620610D01*
X362412818Y-56620610D01*
X362412818Y-56520610D01*
X362912818Y-56520610D01*
G36*
X362712818Y-56920610D02*
G01*
X362712818Y-57020610D01*
X362612818Y-57020610D01*
X362612818Y-56920610D01*
X362712818Y-56920610D01*
G37*
X362712818Y-56920610D02*
X362712818Y-57020610D01*
X362612818Y-57020610D01*
X362612818Y-56920610D01*
X362712818Y-56920610D01*
G36*
X362912818Y-56520610D02*
G01*
X362912818Y-56820610D01*
X362812818Y-56820610D01*
X362812818Y-56520610D01*
X362912818Y-56520610D01*
G37*
X362912818Y-56520610D02*
X362912818Y-56820610D01*
X362812818Y-56820610D01*
X362812818Y-56520610D01*
X362912818Y-56520610D01*
D11*
X351631250Y-53181250D02*
X349091250Y-53181250D01*
X351631250Y-50641250D02*
X351631250Y-53181250D01*
X366871250Y-81121250D02*
X366871250Y-50641250D01*
X349091250Y-81121250D02*
X366871250Y-81121250D01*
X349091250Y-50641250D02*
X349091250Y-81121250D01*
D10*
X330347500Y-54232500D02*
X330347500Y-64512500D01*
X330347500Y-64512500D02*
X327687500Y-64512500D01*
X327687500Y-64512500D02*
X327687500Y-54232500D01*
X327687500Y-54232500D02*
X330347500Y-54232500D01*
X327687500Y-55182500D02*
X321687500Y-55182500D01*
X321687500Y-55182500D02*
X321687500Y-55942500D01*
X321687500Y-55942500D02*
X327687500Y-55942500D01*
X327687500Y-55242500D02*
X321687500Y-55242500D01*
X327687500Y-55362500D02*
X321687500Y-55362500D01*
X327687500Y-55482500D02*
X321687500Y-55482500D01*
X327687500Y-55602500D02*
X321687500Y-55602500D01*
X327687500Y-55722500D02*
X321687500Y-55722500D01*
X327687500Y-55842500D02*
X321687500Y-55842500D01*
X330677500Y-55182500D02*
X330347500Y-55182500D01*
X330677500Y-55942500D02*
X330347500Y-55942500D01*
X330347500Y-56832500D02*
X327687500Y-56832500D01*
X327687500Y-57722500D02*
X321687500Y-57722500D01*
X321687500Y-57722500D02*
X321687500Y-58482500D01*
X321687500Y-58482500D02*
X327687500Y-58482500D01*
X330744571Y-57722500D02*
X330347500Y-57722500D01*
X330744571Y-58482500D02*
X330347500Y-58482500D01*
X330347500Y-59372500D02*
X327687500Y-59372500D01*
X327687500Y-60262500D02*
X321687500Y-60262500D01*
X321687500Y-60262500D02*
X321687500Y-61022500D01*
X321687500Y-61022500D02*
X327687500Y-61022500D01*
X330744571Y-60262500D02*
X330347500Y-60262500D01*
X330744571Y-61022500D02*
X330347500Y-61022500D01*
X330347500Y-61912500D02*
X327687500Y-61912500D01*
X327687500Y-62802500D02*
X321687500Y-62802500D01*
X321687500Y-62802500D02*
X321687500Y-63562500D01*
X321687500Y-63562500D02*
X327687500Y-63562500D01*
X330744571Y-62802500D02*
X330347500Y-62802500D01*
X330744571Y-63562500D02*
X330347500Y-63562500D01*
X333057500Y-55562500D02*
X333057500Y-54292500D01*
X333057500Y-54292500D02*
X331787500Y-54292500D01*
D12*
X406058630Y-61816964D02*
X405058630Y-61816964D01*
X405058630Y-61436011D01*
X405106250Y-61340773D01*
X405153869Y-61293154D01*
X405249107Y-61245535D01*
X405391964Y-61245535D01*
X405487202Y-61293154D01*
X405534821Y-61340773D01*
X405582440Y-61436011D01*
X405582440Y-61816964D01*
X405058630Y-60626488D02*
X405058630Y-60436011D01*
X405106250Y-60340773D01*
X405201488Y-60245535D01*
X405391964Y-60197916D01*
X405725297Y-60197916D01*
X405915773Y-60245535D01*
X406011011Y-60340773D01*
X406058630Y-60436011D01*
X406058630Y-60626488D01*
X406011011Y-60721726D01*
X405915773Y-60816964D01*
X405725297Y-60864583D01*
X405391964Y-60864583D01*
X405201488Y-60816964D01*
X405106250Y-60721726D01*
X405058630Y-60626488D01*
X405106250Y-59245535D02*
X405058630Y-59340773D01*
X405058630Y-59483630D01*
X405106250Y-59626488D01*
X405201488Y-59721726D01*
X405296726Y-59769345D01*
X405487202Y-59816964D01*
X405630059Y-59816964D01*
X405820535Y-59769345D01*
X405915773Y-59721726D01*
X406011011Y-59626488D01*
X406058630Y-59483630D01*
X406058630Y-59388392D01*
X406011011Y-59245535D01*
X405963392Y-59197916D01*
X405630059Y-59197916D01*
X405630059Y-59388392D01*
X405058630Y-58578869D02*
X405058630Y-58388392D01*
X405106250Y-58293154D01*
X405201488Y-58197916D01*
X405391964Y-58150297D01*
X405725297Y-58150297D01*
X405915773Y-58197916D01*
X406011011Y-58293154D01*
X406058630Y-58388392D01*
X406058630Y-58578869D01*
X406011011Y-58674107D01*
X405915773Y-58769345D01*
X405725297Y-58816964D01*
X405391964Y-58816964D01*
X405201488Y-58769345D01*
X405106250Y-58674107D01*
X405058630Y-58578869D01*
X405391964Y-57293154D02*
X406058630Y-57293154D01*
X405011011Y-57531250D02*
X405725297Y-57769345D01*
X405725297Y-57150297D01*
X363181036Y-57285059D02*
X363295322Y-57323154D01*
X363485798Y-57323154D01*
X363561989Y-57285059D01*
X363600084Y-57246964D01*
X363638179Y-57170773D01*
X363638179Y-57094583D01*
X363600084Y-57018392D01*
X363561989Y-56980297D01*
X363485798Y-56942202D01*
X363333417Y-56904107D01*
X363257227Y-56866011D01*
X363219131Y-56827916D01*
X363181036Y-56751726D01*
X363181036Y-56675535D01*
X363219131Y-56599345D01*
X363257227Y-56561250D01*
X363333417Y-56523154D01*
X363523893Y-56523154D01*
X363638179Y-56561250D01*
X363866750Y-56523154D02*
X364323893Y-56523154D01*
X364095322Y-57323154D02*
X364095322Y-56523154D01*
X351910726Y-56591250D02*
X351834535Y-56553154D01*
X351720250Y-56553154D01*
X351605964Y-56591250D01*
X351529773Y-56667440D01*
X351491678Y-56743630D01*
X351453583Y-56896011D01*
X351453583Y-57010297D01*
X351491678Y-57162678D01*
X351529773Y-57238869D01*
X351605964Y-57315059D01*
X351720250Y-57353154D01*
X351796440Y-57353154D01*
X351910726Y-57315059D01*
X351948821Y-57276964D01*
X351948821Y-57010297D01*
X351796440Y-57010297D01*
X352291678Y-57353154D02*
X352291678Y-56553154D01*
X352748821Y-57353154D01*
X352748821Y-56553154D01*
X353129773Y-57353154D02*
X353129773Y-56553154D01*
X353320250Y-56553154D01*
X353434535Y-56591250D01*
X353510726Y-56667440D01*
X353548821Y-56743630D01*
X353586916Y-56896011D01*
X353586916Y-57010297D01*
X353548821Y-57162678D01*
X353510726Y-57238869D01*
X353434535Y-57315059D01*
X353320250Y-57353154D01*
X353129773Y-57353154D01*
X363118440Y-77254107D02*
X363232726Y-77292202D01*
X363270821Y-77330297D01*
X363308916Y-77406488D01*
X363308916Y-77520773D01*
X363270821Y-77596964D01*
X363232726Y-77635059D01*
X363156535Y-77673154D01*
X362851773Y-77673154D01*
X362851773Y-76873154D01*
X363118440Y-76873154D01*
X363194630Y-76911250D01*
X363232726Y-76949345D01*
X363270821Y-77025535D01*
X363270821Y-77101726D01*
X363232726Y-77177916D01*
X363194630Y-77216011D01*
X363118440Y-77254107D01*
X362851773Y-77254107D01*
X363613678Y-76949345D02*
X363651773Y-76911250D01*
X363727964Y-76873154D01*
X363918440Y-76873154D01*
X363994630Y-76911250D01*
X364032726Y-76949345D01*
X364070821Y-77025535D01*
X364070821Y-77101726D01*
X364032726Y-77216011D01*
X363575583Y-77673154D01*
X364070821Y-77673154D01*
X363175583Y-69634107D02*
X362908916Y-69634107D01*
X362908916Y-70053154D02*
X362908916Y-69253154D01*
X363289869Y-69253154D01*
X363518440Y-69253154D02*
X364051773Y-69253154D01*
X363708916Y-70053154D01*
X363175583Y-67094107D02*
X362908916Y-67094107D01*
X362908916Y-67513154D02*
X362908916Y-66713154D01*
X363289869Y-66713154D01*
X363937488Y-66713154D02*
X363785107Y-66713154D01*
X363708916Y-66751250D01*
X363670821Y-66789345D01*
X363594630Y-66903630D01*
X363556535Y-67056011D01*
X363556535Y-67360773D01*
X363594630Y-67436964D01*
X363632726Y-67475059D01*
X363708916Y-67513154D01*
X363861297Y-67513154D01*
X363937488Y-67475059D01*
X363975583Y-67436964D01*
X364013678Y-67360773D01*
X364013678Y-67170297D01*
X363975583Y-67094107D01*
X363937488Y-67056011D01*
X363861297Y-67017916D01*
X363708916Y-67017916D01*
X363632726Y-67056011D01*
X363594630Y-67094107D01*
X363556535Y-67170297D01*
X363175583Y-64554107D02*
X362908916Y-64554107D01*
X362908916Y-64973154D02*
X362908916Y-64173154D01*
X363289869Y-64173154D01*
X363975583Y-64173154D02*
X363594630Y-64173154D01*
X363556535Y-64554107D01*
X363594630Y-64516011D01*
X363670821Y-64477916D01*
X363861297Y-64477916D01*
X363937488Y-64516011D01*
X363975583Y-64554107D01*
X364013678Y-64630297D01*
X364013678Y-64820773D01*
X363975583Y-64896964D01*
X363937488Y-64935059D01*
X363861297Y-64973154D01*
X363670821Y-64973154D01*
X363594630Y-64935059D01*
X363556535Y-64896964D01*
X363181036Y-57285059D02*
X363295322Y-57323154D01*
X363485798Y-57323154D01*
X363561989Y-57285059D01*
X363600084Y-57246964D01*
X363638179Y-57170773D01*
X363638179Y-57094583D01*
X363600084Y-57018392D01*
X363561989Y-56980297D01*
X363485798Y-56942202D01*
X363333417Y-56904107D01*
X363257227Y-56866011D01*
X363219131Y-56827916D01*
X363181036Y-56751726D01*
X363181036Y-56675535D01*
X363219131Y-56599345D01*
X363257227Y-56561250D01*
X363333417Y-56523154D01*
X363523893Y-56523154D01*
X363638179Y-56561250D01*
X363866750Y-56523154D02*
X364323893Y-56523154D01*
X364095322Y-57323154D02*
X364095322Y-56523154D01*
X362832726Y-54051250D02*
X362756535Y-54013154D01*
X362642250Y-54013154D01*
X362527964Y-54051250D01*
X362451773Y-54127440D01*
X362413678Y-54203630D01*
X362375583Y-54356011D01*
X362375583Y-54470297D01*
X362413678Y-54622678D01*
X362451773Y-54698869D01*
X362527964Y-54775059D01*
X362642250Y-54813154D01*
X362718440Y-54813154D01*
X362832726Y-54775059D01*
X362870821Y-54736964D01*
X362870821Y-54470297D01*
X362718440Y-54470297D01*
X363213678Y-54813154D02*
X363213678Y-54013154D01*
X363670821Y-54813154D01*
X363670821Y-54013154D01*
X364051773Y-54813154D02*
X364051773Y-54013154D01*
X364242250Y-54013154D01*
X364356535Y-54051250D01*
X364432726Y-54127440D01*
X364470821Y-54203630D01*
X364508916Y-54356011D01*
X364508916Y-54470297D01*
X364470821Y-54622678D01*
X364432726Y-54698869D01*
X364356535Y-54775059D01*
X364242250Y-54813154D01*
X364051773Y-54813154D01*
X363175583Y-64554107D02*
X362908916Y-64554107D01*
X362908916Y-64973154D02*
X362908916Y-64173154D01*
X363289869Y-64173154D01*
X363975583Y-64173154D02*
X363594630Y-64173154D01*
X363556535Y-64554107D01*
X363594630Y-64516011D01*
X363670821Y-64477916D01*
X363861297Y-64477916D01*
X363937488Y-64516011D01*
X363975583Y-64554107D01*
X364013678Y-64630297D01*
X364013678Y-64820773D01*
X363975583Y-64896964D01*
X363937488Y-64935059D01*
X363861297Y-64973154D01*
X363670821Y-64973154D01*
X363594630Y-64935059D01*
X363556535Y-64896964D01*
X363175583Y-67094107D02*
X362908916Y-67094107D01*
X362908916Y-67513154D02*
X362908916Y-66713154D01*
X363289869Y-66713154D01*
X363937488Y-66713154D02*
X363785107Y-66713154D01*
X363708916Y-66751250D01*
X363670821Y-66789345D01*
X363594630Y-66903630D01*
X363556535Y-67056011D01*
X363556535Y-67360773D01*
X363594630Y-67436964D01*
X363632726Y-67475059D01*
X363708916Y-67513154D01*
X363861297Y-67513154D01*
X363937488Y-67475059D01*
X363975583Y-67436964D01*
X364013678Y-67360773D01*
X364013678Y-67170297D01*
X363975583Y-67094107D01*
X363937488Y-67056011D01*
X363861297Y-67017916D01*
X363708916Y-67017916D01*
X363632726Y-67056011D01*
X363594630Y-67094107D01*
X363556535Y-67170297D01*
X363175583Y-69634107D02*
X362908916Y-69634107D01*
X362908916Y-70053154D02*
X362908916Y-69253154D01*
X363289869Y-69253154D01*
X363518440Y-69253154D02*
X364051773Y-69253154D01*
X363708916Y-70053154D01*
X363118440Y-77254107D02*
X363232726Y-77292202D01*
X363270821Y-77330297D01*
X363308916Y-77406488D01*
X363308916Y-77520773D01*
X363270821Y-77596964D01*
X363232726Y-77635059D01*
X363156535Y-77673154D01*
X362851773Y-77673154D01*
X362851773Y-76873154D01*
X363118440Y-76873154D01*
X363194630Y-76911250D01*
X363232726Y-76949345D01*
X363270821Y-77025535D01*
X363270821Y-77101726D01*
X363232726Y-77177916D01*
X363194630Y-77216011D01*
X363118440Y-77254107D01*
X362851773Y-77254107D01*
X363613678Y-76949345D02*
X363651773Y-76911250D01*
X363727964Y-76873154D01*
X363918440Y-76873154D01*
X363994630Y-76911250D01*
X364032726Y-76949345D01*
X364070821Y-77025535D01*
X364070821Y-77101726D01*
X364032726Y-77216011D01*
X363575583Y-77673154D01*
X364070821Y-77673154D01*
X329858630Y-61816964D02*
X328858630Y-61816964D01*
X328858630Y-61436011D01*
X328906250Y-61340773D01*
X328953869Y-61293154D01*
X329049107Y-61245535D01*
X329191964Y-61245535D01*
X329287202Y-61293154D01*
X329334821Y-61340773D01*
X329382440Y-61436011D01*
X329382440Y-61816964D01*
X328858630Y-60626488D02*
X328858630Y-60436011D01*
X328906250Y-60340773D01*
X329001488Y-60245535D01*
X329191964Y-60197916D01*
X329525297Y-60197916D01*
X329715773Y-60245535D01*
X329811011Y-60340773D01*
X329858630Y-60436011D01*
X329858630Y-60626488D01*
X329811011Y-60721726D01*
X329715773Y-60816964D01*
X329525297Y-60864583D01*
X329191964Y-60864583D01*
X329001488Y-60816964D01*
X328906250Y-60721726D01*
X328858630Y-60626488D01*
X328906250Y-59245535D02*
X328858630Y-59340773D01*
X328858630Y-59483630D01*
X328906250Y-59626488D01*
X329001488Y-59721726D01*
X329096726Y-59769345D01*
X329287202Y-59816964D01*
X329430059Y-59816964D01*
X329620535Y-59769345D01*
X329715773Y-59721726D01*
X329811011Y-59626488D01*
X329858630Y-59483630D01*
X329858630Y-59388392D01*
X329811011Y-59245535D01*
X329763392Y-59197916D01*
X329430059Y-59197916D01*
X329430059Y-59388392D01*
X328858630Y-58578869D02*
X328858630Y-58388392D01*
X328906250Y-58293154D01*
X329001488Y-58197916D01*
X329191964Y-58150297D01*
X329525297Y-58150297D01*
X329715773Y-58197916D01*
X329811011Y-58293154D01*
X329858630Y-58388392D01*
X329858630Y-58578869D01*
X329811011Y-58674107D01*
X329715773Y-58769345D01*
X329525297Y-58816964D01*
X329191964Y-58816964D01*
X329001488Y-58769345D01*
X328906250Y-58674107D01*
X328858630Y-58578869D01*
X328858630Y-57816964D02*
X328858630Y-57197916D01*
X329239583Y-57531250D01*
X329239583Y-57388392D01*
X329287202Y-57293154D01*
X329334821Y-57245535D01*
X329430059Y-57197916D01*
X329668154Y-57197916D01*
X329763392Y-57245535D01*
X329811011Y-57293154D01*
X329858630Y-57388392D01*
X329858630Y-57674107D01*
X329811011Y-57769345D01*
X329763392Y-57816964D01*
M02*
