G04 #@! TF.GenerationSoftware,KiCad,Pcbnew,(5.1.4)-1*
G04 #@! TF.CreationDate,2021-01-04T02:31:35-06:00*
G04 #@! TF.ProjectId,65Numpad,36354e75-6d70-4616-942e-6b696361645f,rev?*
G04 #@! TF.SameCoordinates,Original*
G04 #@! TF.FileFunction,Copper,L2,Bot*
G04 #@! TF.FilePolarity,Positive*
%FSLAX46Y46*%
G04 Gerber Fmt 4.6, Leading zero omitted, Abs format (unit mm)*
G04 Created by KiCad (PCBNEW (5.1.4)-1) date 2021-01-04 02:31:35*
%MOMM*%
%LPD*%
G04 APERTURE LIST*
%ADD10R,1.600000X1.600000*%
%ADD11O,1.600000X1.600000*%
%ADD12C,2.600000*%
%ADD13R,1.700000X1.700000*%
%ADD14O,1.700000X1.700000*%
%ADD15C,1.752600*%
%ADD16R,1.752600X1.752600*%
%ADD17C,0.800000*%
%ADD18C,0.254000*%
%ADD19C,0.381000*%
G04 APERTURE END LIST*
D10*
X381000000Y-142875000D03*
D11*
X373380000Y-142875000D03*
D10*
X361950000Y-123825000D03*
D11*
X354330000Y-123825000D03*
D10*
X342900000Y-123825000D03*
D11*
X335280000Y-123825000D03*
D12*
X373221250Y-94297500D03*
X379571250Y-91757500D03*
X380841250Y-99377500D03*
X374491250Y-101917500D03*
X373221250Y-75247500D03*
X379571250Y-72707500D03*
X380841250Y-80327500D03*
X374491250Y-82867500D03*
X335121250Y-113347500D03*
X341471250Y-110807500D03*
X342741250Y-118427500D03*
X336391250Y-120967500D03*
X335121250Y-56197500D03*
X341471250Y-53657500D03*
X342741250Y-61277500D03*
X336391250Y-63817500D03*
D13*
X403225000Y-55562500D03*
D14*
X403225000Y-58102500D03*
X403225000Y-60642500D03*
X403225000Y-63182500D03*
D12*
X354171250Y-94297500D03*
X360521250Y-91757500D03*
X361791250Y-99377500D03*
X355441250Y-101917500D03*
X354171250Y-75247500D03*
X360521250Y-72707500D03*
X361791250Y-80327500D03*
X355441250Y-82867500D03*
X335121250Y-75247500D03*
X341471250Y-72707500D03*
X342741250Y-80327500D03*
X336391250Y-82867500D03*
X373221250Y-132397500D03*
X379571250Y-129857500D03*
X380841250Y-137477500D03*
X374491250Y-140017500D03*
D15*
X365601250Y-51911250D03*
X350361250Y-79851250D03*
X365601250Y-54451250D03*
X365601250Y-56991250D03*
X365601250Y-59531250D03*
X365601250Y-62071250D03*
X365601250Y-64611250D03*
X365601250Y-67151250D03*
X365601250Y-69691250D03*
X365601250Y-72231250D03*
X365601250Y-74771250D03*
X365601250Y-77311250D03*
X365601250Y-79851250D03*
X350361250Y-77311250D03*
X350361250Y-74771250D03*
X350361250Y-72231250D03*
X350361250Y-69691250D03*
X350361250Y-67151250D03*
X350361250Y-64611250D03*
X350361250Y-62071250D03*
X350361250Y-59531250D03*
X350361250Y-56991250D03*
X350361250Y-54451250D03*
D16*
X350361250Y-51911250D03*
D10*
X400050000Y-133350000D03*
D11*
X392430000Y-133350000D03*
D12*
X392271250Y-56197500D03*
X398621250Y-53657500D03*
X399891250Y-61277500D03*
X393541250Y-63817500D03*
D10*
X381000000Y-123825000D03*
D11*
X373380000Y-123825000D03*
D12*
X335121250Y-94297500D03*
X341471250Y-91757500D03*
X342741250Y-99377500D03*
X336391250Y-101917500D03*
D10*
X352425000Y-142875000D03*
D11*
X344805000Y-142875000D03*
D12*
X344646250Y-132397500D03*
X350996250Y-129857500D03*
X345916250Y-140017500D03*
X352266250Y-137477500D03*
X373221250Y-113347500D03*
X379571250Y-110807500D03*
X380841250Y-118427500D03*
X374491250Y-120967500D03*
X399891250Y-89852500D03*
X393541250Y-92392500D03*
X398621250Y-82232500D03*
X392271250Y-84772500D03*
X398621250Y-82232500D03*
X392271250Y-84772500D03*
X399891250Y-89852500D03*
X393541250Y-92392500D03*
X354171250Y-113347500D03*
X360521250Y-110807500D03*
X361791250Y-118427500D03*
X355441250Y-120967500D03*
X399891250Y-127952500D03*
X393541250Y-130492500D03*
X398621250Y-120332500D03*
X392271250Y-122872500D03*
X354171250Y-56197500D03*
X360521250Y-53657500D03*
X361791250Y-61277500D03*
X355441250Y-63817500D03*
D13*
X331787500Y-55562500D03*
D14*
X331787500Y-58102500D03*
X331787500Y-60642500D03*
X331787500Y-63182500D03*
D12*
X373221250Y-56197500D03*
X379571250Y-53657500D03*
X380841250Y-61277500D03*
X374491250Y-63817500D03*
D10*
X342900000Y-66675000D03*
D11*
X335280000Y-66675000D03*
D10*
X400050000Y-95250000D03*
D11*
X392430000Y-95250000D03*
D10*
X361950000Y-66675000D03*
D11*
X354330000Y-66675000D03*
D10*
X361950000Y-104775000D03*
D11*
X354330000Y-104775000D03*
D10*
X381000000Y-104775000D03*
D11*
X373380000Y-104775000D03*
D10*
X342900000Y-104775000D03*
D11*
X335280000Y-104775000D03*
D10*
X361950000Y-85725000D03*
D11*
X354330000Y-85725000D03*
D10*
X400050000Y-66675000D03*
D11*
X392430000Y-66675000D03*
D10*
X381000000Y-66675000D03*
D11*
X373380000Y-66675000D03*
D10*
X381000000Y-85725000D03*
D11*
X373380000Y-85725000D03*
D10*
X342900000Y-85725000D03*
D11*
X335280000Y-85725000D03*
D17*
X388937500Y-71437500D03*
X338931250Y-61912500D03*
X382587500Y-55562500D03*
X395287500Y-61912500D03*
X357981250Y-61912500D03*
X376237500Y-61912500D03*
X354012500Y-61912500D03*
X338224303Y-64317423D03*
X371475000Y-61118750D03*
X346868750Y-118268750D03*
D18*
X368134902Y-67627500D02*
X368931826Y-68424424D01*
X365601250Y-67151250D02*
X367658652Y-67151250D01*
X387115049Y-69615049D02*
X388937500Y-71437500D01*
X367658652Y-67151250D02*
X368931826Y-68424424D01*
X370122451Y-69615049D02*
X387115049Y-69615049D01*
X368931826Y-68424424D02*
X370122451Y-69615049D01*
D19*
X365601250Y-54451250D02*
X368085501Y-51966999D01*
X346924499Y-62968001D02*
X350361250Y-59531250D01*
X382587500Y-55562500D02*
X382587500Y-54171808D01*
X400899499Y-62968001D02*
X396343001Y-62968001D01*
X350361250Y-56991250D02*
X350361250Y-59531250D01*
X368673249Y-51966999D02*
X368561751Y-51966999D01*
X362743750Y-51593750D02*
X365601250Y-54451250D01*
X396343001Y-62968001D02*
X395287500Y-61912500D01*
X339986751Y-62968001D02*
X346924499Y-62968001D01*
X368085501Y-51966999D02*
X368673249Y-51966999D01*
X355758750Y-51593750D02*
X362743750Y-51593750D01*
X350361250Y-56991250D02*
X355758750Y-51593750D01*
X380382691Y-51966999D02*
X368673249Y-51966999D01*
X382587500Y-54171808D02*
X380382691Y-51966999D01*
X403225000Y-60642500D02*
X400899499Y-62968001D01*
X338931250Y-61912500D02*
X339986751Y-62968001D01*
X357981250Y-61912500D02*
X359036751Y-62968001D01*
X391858559Y-67865501D02*
X387175558Y-63182500D01*
X338224303Y-64317423D02*
X338832431Y-64925551D01*
X369887500Y-59531250D02*
X371475000Y-61118750D01*
X338994380Y-65087500D02*
X348010134Y-65087500D01*
X387175558Y-63182500D02*
X377507500Y-63182500D01*
X377507500Y-63182500D02*
X376237500Y-61912500D01*
X353612501Y-62312499D02*
X354012500Y-61912500D01*
X365601250Y-59531250D02*
X369887500Y-59531250D01*
X338994380Y-65087500D02*
X338224303Y-64317423D01*
X362602691Y-62968001D02*
X359036751Y-62968001D01*
X362602691Y-62968001D02*
X364724951Y-60845741D01*
X364724951Y-60845741D02*
X364724951Y-60407549D01*
X364724951Y-60407549D02*
X365601250Y-59531250D01*
X348010134Y-65087500D02*
X349753185Y-63344449D01*
X349753185Y-63344449D02*
X352580551Y-63344449D01*
X393001441Y-67865501D02*
X391858559Y-67865501D01*
X352580551Y-63344449D02*
X353612501Y-62312499D01*
X403225000Y-63182500D02*
X402375001Y-64032499D01*
X402375001Y-64032499D02*
X396834443Y-64032499D01*
X396834443Y-64032499D02*
X393001441Y-67865501D01*
D18*
X352425000Y-142875000D02*
X352425000Y-141821000D01*
X352425000Y-141821000D02*
X353374401Y-140871599D01*
X372839039Y-144002001D02*
X378818999Y-144002001D01*
X378818999Y-144002001D02*
X379946000Y-142875000D01*
X379946000Y-142875000D02*
X381000000Y-142875000D01*
X381000000Y-142875000D02*
X391579000Y-142875000D01*
X400050000Y-134404000D02*
X400050000Y-133350000D01*
X353374401Y-140871599D02*
X369708637Y-140871599D01*
X369708637Y-140871599D02*
X372839039Y-144002001D01*
X391579000Y-142875000D02*
X400050000Y-134404000D01*
X361950000Y-124879000D02*
X363277250Y-126206250D01*
X346868750Y-118268750D02*
X342900000Y-122237500D01*
X344122499Y-126101499D02*
X360727501Y-126101499D01*
X361950000Y-124879000D02*
X361950000Y-123825000D01*
X360727501Y-126101499D02*
X361950000Y-124879000D01*
X363277250Y-126206250D02*
X379672750Y-126206250D01*
X342900000Y-122237500D02*
X342900000Y-123825000D01*
X379672750Y-126206250D02*
X381000000Y-124879000D01*
X381000000Y-124879000D02*
X381000000Y-123825000D01*
X342900000Y-123825000D02*
X342900000Y-124879000D01*
X342900000Y-124879000D02*
X344122499Y-126101499D01*
X342900000Y-105829000D02*
X344227250Y-107156250D01*
X363277250Y-107156250D02*
X379672750Y-107156250D01*
X381000000Y-104775000D02*
X391579000Y-104775000D01*
X379672750Y-107156250D02*
X381000000Y-105829000D01*
X381000000Y-105829000D02*
X381000000Y-104775000D01*
X344227250Y-107156250D02*
X360622750Y-107156250D01*
X391579000Y-104775000D02*
X400050000Y-96304000D01*
X360622750Y-107156250D02*
X361950000Y-105829000D01*
X400050000Y-96304000D02*
X400050000Y-95250000D01*
X361950000Y-105829000D02*
X363277250Y-107156250D01*
X342900000Y-104775000D02*
X342900000Y-105829000D01*
X361950000Y-105829000D02*
X361950000Y-104775000D01*
X361950000Y-86779000D02*
X361950000Y-85725000D01*
X361950000Y-86779000D02*
X363277250Y-88106250D01*
X342900000Y-85725000D02*
X342900000Y-86779000D01*
X346868750Y-71120000D02*
X346868750Y-70643750D01*
X363277250Y-88106250D02*
X379672750Y-88106250D01*
X346868750Y-70643750D02*
X350361250Y-67151250D01*
X342900000Y-85725000D02*
X342900000Y-84671000D01*
X346868750Y-80702250D02*
X346868750Y-71120000D01*
X379672750Y-88106250D02*
X381000000Y-86779000D01*
X342900000Y-86779000D02*
X344227250Y-88106250D01*
X344227250Y-88106250D02*
X360622750Y-88106250D01*
X360622750Y-88106250D02*
X361950000Y-86779000D01*
X381000000Y-86779000D02*
X381000000Y-85725000D01*
X342900000Y-84671000D02*
X346868750Y-80702250D01*
X360896000Y-66675000D02*
X361950000Y-66675000D01*
X400050000Y-67468750D02*
X400050000Y-66675000D01*
X382327250Y-69056250D02*
X398462500Y-69056250D01*
X350361250Y-64611250D02*
X353552001Y-67802001D01*
X379672750Y-69056250D02*
X381000000Y-67729000D01*
X368366699Y-65947949D02*
X369093750Y-66675000D01*
X361950000Y-66675000D02*
X363004000Y-66675000D01*
X369093750Y-66675000D02*
X371475000Y-69056250D01*
X368842949Y-66424199D02*
X369093750Y-66675000D01*
X363004000Y-66675000D02*
X363731051Y-65947949D01*
X381000000Y-67729000D02*
X381000000Y-66675000D01*
X381000000Y-67729000D02*
X382327250Y-69056250D01*
X359768999Y-67802001D02*
X360896000Y-66675000D01*
X353552001Y-67802001D02*
X354345751Y-67802001D01*
X350361250Y-64611250D02*
X348297500Y-66675000D01*
X398462500Y-69056250D02*
X400050000Y-67468750D01*
X354345751Y-67802001D02*
X359768999Y-67802001D01*
X363731051Y-65947949D02*
X368366699Y-65947949D01*
X371475000Y-69056250D02*
X379672750Y-69056250D01*
X348297500Y-66675000D02*
X342900000Y-66675000D01*
X379571250Y-53657500D02*
X376818251Y-56410499D01*
X375914289Y-56410499D02*
X374491250Y-57833538D01*
X376818251Y-56410499D02*
X375914289Y-56410499D01*
X374491250Y-57833538D02*
X374491250Y-61979023D01*
X374491250Y-65563750D02*
X374491250Y-63817500D01*
X374491250Y-61979023D02*
X374491250Y-63817500D01*
X373380000Y-66675000D02*
X374491250Y-65563750D01*
X338718251Y-56410499D02*
X337814289Y-56410499D01*
X341471250Y-53657500D02*
X338718251Y-56410499D01*
X336391250Y-57833538D02*
X336391250Y-61979023D01*
X336391250Y-61979023D02*
X336391250Y-63817500D01*
X336391250Y-65563750D02*
X336391250Y-63817500D01*
X335280000Y-66675000D02*
X336391250Y-65563750D01*
X337814289Y-56410499D02*
X336391250Y-57833538D01*
X355441250Y-65563750D02*
X355441250Y-63817500D01*
X360521250Y-53657500D02*
X357768251Y-56410499D01*
X355441250Y-61979023D02*
X355441250Y-63817500D01*
X357768251Y-56410499D02*
X356864289Y-56410499D01*
X356864289Y-56410499D02*
X355441250Y-57833538D01*
X355441250Y-57833538D02*
X355441250Y-61979023D01*
X354330000Y-66675000D02*
X355441250Y-65563750D01*
X392430000Y-66675000D02*
X393541250Y-65563750D01*
X394964289Y-56410499D02*
X393541250Y-57833538D01*
X398621250Y-53657500D02*
X395868251Y-56410499D01*
X393541250Y-61979023D02*
X393541250Y-63817500D01*
X393541250Y-57833538D02*
X393541250Y-61979023D01*
X395868251Y-56410499D02*
X394964289Y-56410499D01*
X393541250Y-65563750D02*
X393541250Y-63817500D01*
X336391250Y-84613750D02*
X336391250Y-82867500D01*
X335280000Y-85725000D02*
X336391250Y-84613750D01*
X336391250Y-81029023D02*
X336391250Y-82867500D01*
X336391250Y-76883538D02*
X336391250Y-81029023D01*
X337814289Y-75460499D02*
X336391250Y-76883538D01*
X341471250Y-72707500D02*
X338718251Y-75460499D01*
X338718251Y-75460499D02*
X337814289Y-75460499D01*
X355441250Y-76883538D02*
X355441250Y-81029023D01*
X360521250Y-72707500D02*
X357768251Y-75460499D01*
X355441250Y-81029023D02*
X355441250Y-82867500D01*
X357768251Y-75460499D02*
X356864289Y-75460499D01*
X355441250Y-84613750D02*
X355441250Y-82867500D01*
X354330000Y-85725000D02*
X355441250Y-84613750D01*
X356864289Y-75460499D02*
X355441250Y-76883538D01*
X374491250Y-76883538D02*
X374491250Y-81029023D01*
X374491250Y-84613750D02*
X374491250Y-82867500D01*
X374491250Y-81029023D02*
X374491250Y-82867500D01*
X379571250Y-72707500D02*
X376818251Y-75460499D01*
X375914289Y-75460499D02*
X374491250Y-76883538D01*
X373380000Y-85725000D02*
X374491250Y-84613750D01*
X376818251Y-75460499D02*
X375914289Y-75460499D01*
X341471250Y-91757500D02*
X338718251Y-94510499D01*
X336391250Y-103663750D02*
X336391250Y-101917500D01*
X337814289Y-94510499D02*
X336391250Y-95933538D01*
X336391250Y-100079023D02*
X336391250Y-101917500D01*
X336391250Y-95933538D02*
X336391250Y-100079023D01*
X338718251Y-94510499D02*
X337814289Y-94510499D01*
X335280000Y-104775000D02*
X336391250Y-103663750D01*
X355441250Y-100079023D02*
X355441250Y-101917500D01*
X355441250Y-95933538D02*
X355441250Y-100079023D01*
X357768251Y-94510499D02*
X356864289Y-94510499D01*
X356864289Y-94510499D02*
X355441250Y-95933538D01*
X360521250Y-91757500D02*
X357768251Y-94510499D01*
X354330000Y-104775000D02*
X355441250Y-103663750D01*
X355441250Y-103663750D02*
X355441250Y-101917500D01*
X374491250Y-95933538D02*
X374491250Y-100079023D01*
X379571250Y-91757500D02*
X376818251Y-94510499D01*
X375914289Y-94510499D02*
X374491250Y-95933538D01*
X374491250Y-100079023D02*
X374491250Y-101917500D01*
X373380000Y-104775000D02*
X374491250Y-103663750D01*
X374491250Y-103663750D02*
X374491250Y-101917500D01*
X376818251Y-94510499D02*
X375914289Y-94510499D01*
X398621250Y-82232500D02*
X395868251Y-84985499D01*
X393541250Y-86408538D02*
X393541250Y-90554023D01*
X393541250Y-94138750D02*
X393541250Y-92392500D01*
X393541250Y-90554023D02*
X393541250Y-92392500D01*
X394964289Y-84985499D02*
X393541250Y-86408538D01*
X392430000Y-95250000D02*
X393541250Y-94138750D01*
X395868251Y-84985499D02*
X394964289Y-84985499D01*
X338718251Y-113560499D02*
X337814289Y-113560499D01*
X341471250Y-110807500D02*
X338718251Y-113560499D01*
X337814289Y-113560499D02*
X336391250Y-114983538D01*
X336391250Y-114983538D02*
X336391250Y-119129023D01*
X336391250Y-119129023D02*
X336391250Y-120967500D01*
X335280000Y-123825000D02*
X336391250Y-122713750D01*
X336391250Y-122713750D02*
X336391250Y-120967500D01*
X360521250Y-110807500D02*
X357768251Y-113560499D01*
X357768251Y-113560499D02*
X356864289Y-113560499D01*
X356864289Y-113560499D02*
X355441250Y-114983538D01*
X355441250Y-114983538D02*
X355441250Y-119129023D01*
X355441250Y-119129023D02*
X355441250Y-120967500D01*
X354330000Y-123825000D02*
X355441250Y-122713750D01*
X355441250Y-122713750D02*
X355441250Y-120967500D01*
X374491250Y-119129023D02*
X374491250Y-120967500D01*
X374491250Y-114983538D02*
X374491250Y-119129023D01*
X375914289Y-113560499D02*
X374491250Y-114983538D01*
X379571250Y-110807500D02*
X376818251Y-113560499D01*
X373380000Y-123825000D02*
X374491250Y-122713750D01*
X376818251Y-113560499D02*
X375914289Y-113560499D01*
X374491250Y-122713750D02*
X374491250Y-120967500D01*
X344805000Y-142875000D02*
X345916250Y-141763750D01*
X345916250Y-138179023D02*
X345916250Y-140017500D01*
X345916250Y-134042566D02*
X345916250Y-138179023D01*
X347342217Y-132616599D02*
X345916250Y-134042566D01*
X345916250Y-141763750D02*
X345916250Y-140017500D01*
X348237151Y-132616599D02*
X347342217Y-132616599D01*
X350996250Y-129857500D02*
X348237151Y-132616599D01*
X376818251Y-132610499D02*
X375914289Y-132610499D01*
X379571250Y-129857500D02*
X376818251Y-132610499D01*
X373380000Y-142875000D02*
X374491250Y-141763750D01*
X375914289Y-132610499D02*
X374491250Y-134033538D01*
X374491250Y-138179023D02*
X374491250Y-140017500D01*
X374491250Y-141763750D02*
X374491250Y-140017500D01*
X374491250Y-134033538D02*
X374491250Y-138179023D01*
X395862151Y-123091599D02*
X394967217Y-123091599D01*
X398621250Y-120332500D02*
X395862151Y-123091599D01*
X393541250Y-124517566D02*
X393541250Y-128654023D01*
X394967217Y-123091599D02*
X393541250Y-124517566D01*
X392430000Y-133350000D02*
X393541250Y-132238750D01*
X393541250Y-128654023D02*
X393541250Y-130492500D01*
X393541250Y-132238750D02*
X393541250Y-130492500D01*
M02*
