M48
; DRILL file {KiCad (5.1.4)-1} date 1/4/2021 2:31:37 AM
; FORMAT={-:-/ absolute / metric / decimal}
; #@! TF.CreationDate,2021-01-04T02:31:37-06:00
; #@! TF.GenerationSoftware,Kicad,Pcbnew,(5.1.4)-1
FMAT,2
METRIC
T1C0.400
T2C0.800
T3C1.000
T4C1.092
T5C1.600
T6C1.700
T7C1.750
T8C3.048
T9C3.988
T10C4.000
%
G90
G05
T1
X338.224Y-64.317
X338.931Y-61.912
X346.869Y-118.269
X354.012Y-61.912
X357.981Y-61.912
X371.475Y-61.119
X376.238Y-61.912
X382.587Y-55.562
X388.938Y-71.438
X395.287Y-61.912
T2
X373.38Y-123.825
X381.0Y-123.825
X335.28Y-104.775
X342.9Y-104.775
X373.38Y-66.675
X381.0Y-66.675
X373.38Y-85.725
X381.0Y-85.725
X354.33Y-123.825
X361.95Y-123.825
X392.43Y-133.35
X400.05Y-133.35
X354.33Y-104.775
X361.95Y-104.775
X354.33Y-85.725
X361.95Y-85.725
X335.28Y-85.725
X342.9Y-85.725
X335.28Y-123.825
X342.9Y-123.825
X335.28Y-66.675
X342.9Y-66.675
X354.33Y-66.675
X361.95Y-66.675
X344.805Y-142.875
X352.425Y-142.875
X373.38Y-104.775
X381.0Y-104.775
X392.43Y-66.675
X400.05Y-66.675
X373.38Y-142.875
X381.0Y-142.875
X392.43Y-95.25
X400.05Y-95.25
T3
X331.787Y-55.562
X331.787Y-58.102
X331.787Y-60.642
X331.787Y-63.182
X403.225Y-55.562
X403.225Y-58.102
X403.225Y-60.642
X403.225Y-63.182
T4
X350.361Y-51.911
X350.361Y-54.451
X350.361Y-56.991
X350.361Y-59.531
X350.361Y-62.071
X350.361Y-64.611
X350.361Y-67.151
X350.361Y-69.691
X350.361Y-72.231
X350.361Y-74.771
X350.361Y-77.311
X350.361Y-79.851
X365.601Y-51.911
X365.601Y-54.451
X365.601Y-56.991
X365.601Y-59.531
X365.601Y-62.071
X365.601Y-64.611
X365.601Y-67.151
X365.601Y-69.691
X365.601Y-72.231
X365.601Y-74.771
X365.601Y-77.311
X365.601Y-79.851
T5
X373.221Y-94.297
X374.491Y-101.917
X379.571Y-91.757
X380.841Y-99.377
X335.121Y-56.197
X336.391Y-63.817
X341.471Y-53.657
X342.741Y-61.277
X354.171Y-75.248
X355.441Y-82.867
X360.521Y-72.707
X361.791Y-80.328
X373.221Y-56.197
X374.491Y-63.817
X379.571Y-53.657
X380.841Y-61.277
X344.646Y-132.398
X345.916Y-140.017
X350.996Y-129.857
X352.266Y-137.477
X392.271Y-84.772
X392.271Y-84.772
X393.541Y-92.392
X393.541Y-92.392
X398.621Y-82.233
X398.621Y-82.233
X399.891Y-89.852
X399.891Y-89.852
X392.271Y-122.872
X393.541Y-130.493
X398.621Y-120.332
X399.891Y-127.953
X373.221Y-75.248
X374.491Y-82.867
X379.571Y-72.707
X380.841Y-80.328
X335.121Y-75.248
X336.391Y-82.867
X341.471Y-72.707
X342.741Y-80.328
X335.121Y-94.297
X336.391Y-101.917
X341.471Y-91.757
X342.741Y-99.377
X373.221Y-113.347
X374.491Y-120.968
X379.571Y-110.807
X380.841Y-118.427
X354.171Y-56.197
X355.441Y-63.817
X360.521Y-53.657
X361.791Y-61.277
X335.121Y-113.347
X336.391Y-120.968
X341.471Y-110.807
X342.741Y-118.427
X354.171Y-94.297
X355.441Y-101.917
X360.521Y-91.757
X361.791Y-99.377
X373.221Y-132.398
X374.491Y-140.017
X379.571Y-129.857
X380.841Y-137.477
X392.271Y-56.197
X393.541Y-63.817
X398.621Y-53.657
X399.891Y-61.277
X354.171Y-113.347
X355.441Y-120.968
X360.521Y-110.807
X361.791Y-118.427
T6
X352.901Y-115.887
X363.061Y-115.887
X371.951Y-96.837
X382.111Y-96.837
X333.851Y-58.737
X344.011Y-58.737
X352.901Y-77.787
X363.061Y-77.787
X371.951Y-58.737
X382.111Y-58.737
X391.001Y-87.312
X401.161Y-87.312
X371.951Y-77.787
X382.111Y-77.787
X333.851Y-77.787
X344.011Y-77.787
X333.851Y-96.837
X344.011Y-96.837
X371.951Y-115.887
X382.111Y-115.887
X352.901Y-58.737
X363.061Y-58.737
X333.851Y-115.887
X344.011Y-115.887
X352.901Y-96.837
X363.061Y-96.837
X371.951Y-134.938
X382.111Y-134.938
X391.001Y-58.737
X401.161Y-58.737
T7
X391.001Y-87.312
X391.001Y-87.312
X401.161Y-87.312
X401.161Y-87.312
X391.001Y-125.412
X401.161Y-125.412
X371.951Y-77.787
X382.111Y-77.787
X333.851Y-77.787
X344.011Y-77.787
X333.851Y-96.837
X344.011Y-96.837
X371.951Y-115.887
X382.111Y-115.887
X352.901Y-58.737
X363.061Y-58.737
X333.851Y-115.887
X344.011Y-115.887
X352.901Y-96.837
X363.061Y-96.837
X371.951Y-134.938
X382.111Y-134.938
X391.001Y-58.737
X401.161Y-58.737
X352.901Y-115.887
X363.061Y-115.887
X371.951Y-96.837
X382.111Y-96.837
X333.851Y-58.737
X344.011Y-58.737
X352.901Y-77.787
X363.061Y-77.787
X371.951Y-58.737
X382.111Y-58.737
X343.376Y-134.938
X353.536Y-134.938
T8
X336.55Y-127.953
X360.363Y-127.953
X389.096Y-75.406
X389.096Y-99.219
X389.096Y-113.506
X389.096Y-137.319
T9
X377.031Y-134.938
X396.081Y-58.737
X357.981Y-115.887
X377.031Y-96.837
X338.931Y-58.737
X357.981Y-77.787
X377.031Y-58.737
X336.55Y-143.192
X348.456Y-134.938
X360.363Y-143.192
X396.081Y-87.312
X396.081Y-87.312
X404.336Y-75.406
X404.336Y-99.219
X396.081Y-125.412
X404.336Y-113.506
X404.336Y-137.319
X377.031Y-77.787
X338.931Y-77.787
X338.931Y-96.837
X377.031Y-115.887
X357.981Y-58.737
X338.931Y-115.887
X357.981Y-96.837
T10
X396.081Y-87.312
X377.031Y-77.787
X338.931Y-77.787
X338.931Y-96.837
X377.031Y-115.887
X357.981Y-58.737
X338.931Y-115.887
X357.981Y-96.837
X377.031Y-134.938
X396.081Y-58.737
X357.981Y-115.887
X377.031Y-96.837
X338.931Y-58.737
X357.981Y-77.787
X377.031Y-58.737
T0
M30
