G04 #@! TF.GenerationSoftware,KiCad,Pcbnew,(5.1.4)-1*
G04 #@! TF.CreationDate,2021-01-04T02:31:35-06:00*
G04 #@! TF.ProjectId,65Numpad,36354e75-6d70-4616-942e-6b696361645f,rev?*
G04 #@! TF.SameCoordinates,Original*
G04 #@! TF.FileFunction,Soldermask,Bot*
G04 #@! TF.FilePolarity,Negative*
%FSLAX46Y46*%
G04 Gerber Fmt 4.6, Leading zero omitted, Abs format (unit mm)*
G04 Created by KiCad (PCBNEW (5.1.4)-1) date 2021-01-04 02:31:35*
%MOMM*%
%LPD*%
G04 APERTURE LIST*
%ADD10C,0.100000*%
G04 APERTURE END LIST*
D10*
G36*
X360958974Y-141226184D02*
G01*
X361176974Y-141316483D01*
X361331123Y-141380333D01*
X361666048Y-141604123D01*
X361950877Y-141888952D01*
X362174667Y-142223877D01*
X362174667Y-142223878D01*
X362328816Y-142596026D01*
X362407400Y-142991094D01*
X362407400Y-143393906D01*
X362328816Y-143788974D01*
X362238517Y-144006974D01*
X362174667Y-144161123D01*
X361950877Y-144496048D01*
X361666048Y-144780877D01*
X361331123Y-145004667D01*
X361176974Y-145068517D01*
X360958974Y-145158816D01*
X360563906Y-145237400D01*
X360161094Y-145237400D01*
X359766026Y-145158816D01*
X359548026Y-145068517D01*
X359393877Y-145004667D01*
X359058952Y-144780877D01*
X358774123Y-144496048D01*
X358550333Y-144161123D01*
X358486483Y-144006974D01*
X358396184Y-143788974D01*
X358317600Y-143393906D01*
X358317600Y-142991094D01*
X358396184Y-142596026D01*
X358550333Y-142223878D01*
X358550333Y-142223877D01*
X358774123Y-141888952D01*
X359058952Y-141604123D01*
X359393877Y-141380333D01*
X359548026Y-141316483D01*
X359766026Y-141226184D01*
X360161094Y-141147600D01*
X360563906Y-141147600D01*
X360958974Y-141226184D01*
X360958974Y-141226184D01*
G37*
G36*
X337146474Y-141226184D02*
G01*
X337364474Y-141316483D01*
X337518623Y-141380333D01*
X337853548Y-141604123D01*
X338138377Y-141888952D01*
X338362167Y-142223877D01*
X338362167Y-142223878D01*
X338516316Y-142596026D01*
X338594900Y-142991094D01*
X338594900Y-143393906D01*
X338516316Y-143788974D01*
X338426017Y-144006974D01*
X338362167Y-144161123D01*
X338138377Y-144496048D01*
X337853548Y-144780877D01*
X337518623Y-145004667D01*
X337364474Y-145068517D01*
X337146474Y-145158816D01*
X336751406Y-145237400D01*
X336348594Y-145237400D01*
X335953526Y-145158816D01*
X335735526Y-145068517D01*
X335581377Y-145004667D01*
X335246452Y-144780877D01*
X334961623Y-144496048D01*
X334737833Y-144161123D01*
X334673983Y-144006974D01*
X334583684Y-143788974D01*
X334505100Y-143393906D01*
X334505100Y-142991094D01*
X334583684Y-142596026D01*
X334737833Y-142223878D01*
X334737833Y-142223877D01*
X334961623Y-141888952D01*
X335246452Y-141604123D01*
X335581377Y-141380333D01*
X335735526Y-141316483D01*
X335953526Y-141226184D01*
X336348594Y-141147600D01*
X336751406Y-141147600D01*
X337146474Y-141226184D01*
X337146474Y-141226184D01*
G37*
G36*
X373546823Y-142036313D02*
G01*
X373707242Y-142084976D01*
X373839906Y-142155886D01*
X373855078Y-142163996D01*
X373984659Y-142270341D01*
X374091004Y-142399922D01*
X374091005Y-142399924D01*
X374170024Y-142547758D01*
X374218687Y-142708177D01*
X374235117Y-142875000D01*
X374218687Y-143041823D01*
X374170024Y-143202242D01*
X374099114Y-143334906D01*
X374091004Y-143350078D01*
X373984659Y-143479659D01*
X373855078Y-143586004D01*
X373855076Y-143586005D01*
X373707242Y-143665024D01*
X373546823Y-143713687D01*
X373421804Y-143726000D01*
X373338196Y-143726000D01*
X373213177Y-143713687D01*
X373052758Y-143665024D01*
X372904924Y-143586005D01*
X372904922Y-143586004D01*
X372775341Y-143479659D01*
X372668996Y-143350078D01*
X372660886Y-143334906D01*
X372589976Y-143202242D01*
X372541313Y-143041823D01*
X372524883Y-142875000D01*
X372541313Y-142708177D01*
X372589976Y-142547758D01*
X372668995Y-142399924D01*
X372668996Y-142399922D01*
X372775341Y-142270341D01*
X372904922Y-142163996D01*
X372920094Y-142155886D01*
X373052758Y-142084976D01*
X373213177Y-142036313D01*
X373338196Y-142024000D01*
X373421804Y-142024000D01*
X373546823Y-142036313D01*
X373546823Y-142036313D01*
G37*
G36*
X353276000Y-143726000D02*
G01*
X351574000Y-143726000D01*
X351574000Y-142024000D01*
X353276000Y-142024000D01*
X353276000Y-143726000D01*
X353276000Y-143726000D01*
G37*
G36*
X344971823Y-142036313D02*
G01*
X345132242Y-142084976D01*
X345264906Y-142155886D01*
X345280078Y-142163996D01*
X345409659Y-142270341D01*
X345516004Y-142399922D01*
X345516005Y-142399924D01*
X345595024Y-142547758D01*
X345643687Y-142708177D01*
X345660117Y-142875000D01*
X345643687Y-143041823D01*
X345595024Y-143202242D01*
X345524114Y-143334906D01*
X345516004Y-143350078D01*
X345409659Y-143479659D01*
X345280078Y-143586004D01*
X345280076Y-143586005D01*
X345132242Y-143665024D01*
X344971823Y-143713687D01*
X344846804Y-143726000D01*
X344763196Y-143726000D01*
X344638177Y-143713687D01*
X344477758Y-143665024D01*
X344329924Y-143586005D01*
X344329922Y-143586004D01*
X344200341Y-143479659D01*
X344093996Y-143350078D01*
X344085886Y-143334906D01*
X344014976Y-143202242D01*
X343966313Y-143041823D01*
X343949883Y-142875000D01*
X343966313Y-142708177D01*
X344014976Y-142547758D01*
X344093995Y-142399924D01*
X344093996Y-142399922D01*
X344200341Y-142270341D01*
X344329922Y-142163996D01*
X344345094Y-142155886D01*
X344477758Y-142084976D01*
X344638177Y-142036313D01*
X344763196Y-142024000D01*
X344846804Y-142024000D01*
X344971823Y-142036313D01*
X344971823Y-142036313D01*
G37*
G36*
X381851000Y-143726000D02*
G01*
X380149000Y-143726000D01*
X380149000Y-142024000D01*
X381851000Y-142024000D01*
X381851000Y-143726000D01*
X381851000Y-143726000D01*
G37*
G36*
X374865610Y-138714497D02*
G01*
X374885322Y-138718418D01*
X375131189Y-138820259D01*
X375352462Y-138968110D01*
X375540640Y-139156288D01*
X375688491Y-139377561D01*
X375790332Y-139623428D01*
X375842250Y-139884438D01*
X375842250Y-140150562D01*
X375790332Y-140411572D01*
X375688491Y-140657439D01*
X375540640Y-140878712D01*
X375352462Y-141066890D01*
X375131189Y-141214741D01*
X375131188Y-141214742D01*
X375131187Y-141214742D01*
X374885322Y-141316582D01*
X374624313Y-141368500D01*
X374358187Y-141368500D01*
X374097178Y-141316582D01*
X373851313Y-141214742D01*
X373851312Y-141214742D01*
X373851311Y-141214741D01*
X373630038Y-141066890D01*
X373441860Y-140878712D01*
X373294009Y-140657439D01*
X373192168Y-140411572D01*
X373140250Y-140150562D01*
X373140250Y-139884438D01*
X373192168Y-139623428D01*
X373294009Y-139377561D01*
X373441860Y-139156288D01*
X373630038Y-138968110D01*
X373851311Y-138820259D01*
X374097178Y-138718418D01*
X374116890Y-138714497D01*
X374358187Y-138666500D01*
X374624313Y-138666500D01*
X374865610Y-138714497D01*
X374865610Y-138714497D01*
G37*
G36*
X346290610Y-138714497D02*
G01*
X346310322Y-138718418D01*
X346556189Y-138820259D01*
X346777462Y-138968110D01*
X346965640Y-139156288D01*
X347113491Y-139377561D01*
X347215332Y-139623428D01*
X347267250Y-139884438D01*
X347267250Y-140150562D01*
X347215332Y-140411572D01*
X347113491Y-140657439D01*
X346965640Y-140878712D01*
X346777462Y-141066890D01*
X346556189Y-141214741D01*
X346556188Y-141214742D01*
X346556187Y-141214742D01*
X346310322Y-141316582D01*
X346049313Y-141368500D01*
X345783187Y-141368500D01*
X345522178Y-141316582D01*
X345276313Y-141214742D01*
X345276312Y-141214742D01*
X345276311Y-141214741D01*
X345055038Y-141066890D01*
X344866860Y-140878712D01*
X344719009Y-140657439D01*
X344617168Y-140411572D01*
X344565250Y-140150562D01*
X344565250Y-139884438D01*
X344617168Y-139623428D01*
X344719009Y-139377561D01*
X344866860Y-139156288D01*
X345055038Y-138968110D01*
X345276311Y-138820259D01*
X345522178Y-138718418D01*
X345541890Y-138714497D01*
X345783187Y-138666500D01*
X346049313Y-138666500D01*
X346290610Y-138714497D01*
X346290610Y-138714497D01*
G37*
G36*
X404932724Y-135352434D02*
G01*
X405150724Y-135442733D01*
X405304873Y-135506583D01*
X405639798Y-135730373D01*
X405924627Y-136015202D01*
X406148417Y-136350127D01*
X406148417Y-136350128D01*
X406302566Y-136722276D01*
X406381150Y-137117344D01*
X406381150Y-137520156D01*
X406302566Y-137915224D01*
X406240613Y-138064791D01*
X406148417Y-138287373D01*
X405924627Y-138622298D01*
X405639798Y-138907127D01*
X405304873Y-139130917D01*
X405243619Y-139156289D01*
X404932724Y-139285066D01*
X404537656Y-139363650D01*
X404134844Y-139363650D01*
X403739776Y-139285066D01*
X403428881Y-139156289D01*
X403367627Y-139130917D01*
X403032702Y-138907127D01*
X402747873Y-138622298D01*
X402524083Y-138287373D01*
X402431887Y-138064791D01*
X402369934Y-137915224D01*
X402291350Y-137520156D01*
X402291350Y-137117344D01*
X402369934Y-136722276D01*
X402524083Y-136350128D01*
X402524083Y-136350127D01*
X402747873Y-136015202D01*
X403032702Y-135730373D01*
X403367627Y-135506583D01*
X403521776Y-135442733D01*
X403739776Y-135352434D01*
X404134844Y-135273850D01*
X404537656Y-135273850D01*
X404932724Y-135352434D01*
X404932724Y-135352434D01*
G37*
G36*
X389403517Y-135774013D02*
G01*
X389555661Y-135804276D01*
X389674387Y-135853454D01*
X389842291Y-135923002D01*
X389842292Y-135923003D01*
X390100254Y-136095367D01*
X390319633Y-136314746D01*
X390343274Y-136350128D01*
X390491998Y-136572709D01*
X390510049Y-136616288D01*
X390610724Y-136859339D01*
X390620738Y-136909682D01*
X390671250Y-137163625D01*
X390671250Y-137473875D01*
X390610724Y-137778160D01*
X390491998Y-138064791D01*
X390491997Y-138064792D01*
X390319633Y-138322754D01*
X390100254Y-138542133D01*
X389980278Y-138622298D01*
X389842291Y-138714498D01*
X389692406Y-138776582D01*
X389555661Y-138833224D01*
X389403517Y-138863487D01*
X389251375Y-138893750D01*
X388941125Y-138893750D01*
X388788983Y-138863487D01*
X388636839Y-138833224D01*
X388500094Y-138776582D01*
X388350209Y-138714498D01*
X388212222Y-138622298D01*
X388092246Y-138542133D01*
X387872867Y-138322754D01*
X387700503Y-138064792D01*
X387700502Y-138064791D01*
X387581776Y-137778160D01*
X387521250Y-137473875D01*
X387521250Y-137163625D01*
X387571762Y-136909682D01*
X387581776Y-136859339D01*
X387682451Y-136616288D01*
X387700502Y-136572709D01*
X387849226Y-136350128D01*
X387872867Y-136314746D01*
X388092246Y-136095367D01*
X388350208Y-135923003D01*
X388350209Y-135923002D01*
X388518113Y-135853454D01*
X388636839Y-135804276D01*
X388788983Y-135774013D01*
X388941125Y-135743750D01*
X389251375Y-135743750D01*
X389403517Y-135774013D01*
X389403517Y-135774013D01*
G37*
G36*
X352660322Y-136178418D02*
G01*
X352820912Y-136244936D01*
X352906189Y-136280259D01*
X353127462Y-136428110D01*
X353315640Y-136616288D01*
X353408375Y-136755074D01*
X353463492Y-136837563D01*
X353565332Y-137083428D01*
X353617250Y-137344437D01*
X353617250Y-137610563D01*
X353565332Y-137871572D01*
X353463492Y-138117437D01*
X353315641Y-138338711D01*
X353127461Y-138526891D01*
X353017578Y-138600313D01*
X352906189Y-138674741D01*
X352906188Y-138674742D01*
X352906187Y-138674742D01*
X352660322Y-138776582D01*
X352399313Y-138828500D01*
X352133187Y-138828500D01*
X351872178Y-138776582D01*
X351626313Y-138674742D01*
X351626312Y-138674742D01*
X351626311Y-138674741D01*
X351514922Y-138600313D01*
X351405039Y-138526891D01*
X351216859Y-138338711D01*
X351069008Y-138117437D01*
X350967168Y-137871572D01*
X350915250Y-137610563D01*
X350915250Y-137344437D01*
X350967168Y-137083428D01*
X351069008Y-136837563D01*
X351124126Y-136755074D01*
X351216860Y-136616288D01*
X351405038Y-136428110D01*
X351626311Y-136280259D01*
X351711589Y-136244936D01*
X351872178Y-136178418D01*
X352133187Y-136126500D01*
X352399313Y-136126500D01*
X352660322Y-136178418D01*
X352660322Y-136178418D01*
G37*
G36*
X381235322Y-136178418D02*
G01*
X381395912Y-136244936D01*
X381481189Y-136280259D01*
X381702462Y-136428110D01*
X381890640Y-136616288D01*
X381983375Y-136755074D01*
X382038492Y-136837563D01*
X382140332Y-137083428D01*
X382192250Y-137344437D01*
X382192250Y-137610563D01*
X382140332Y-137871572D01*
X382038492Y-138117437D01*
X381890641Y-138338711D01*
X381702461Y-138526891D01*
X381592578Y-138600313D01*
X381481189Y-138674741D01*
X381481188Y-138674742D01*
X381481187Y-138674742D01*
X381235322Y-138776582D01*
X380974313Y-138828500D01*
X380708187Y-138828500D01*
X380447178Y-138776582D01*
X380201313Y-138674742D01*
X380201312Y-138674742D01*
X380201311Y-138674741D01*
X380089922Y-138600313D01*
X379980039Y-138526891D01*
X379791859Y-138338711D01*
X379644008Y-138117437D01*
X379542168Y-137871572D01*
X379490250Y-137610563D01*
X379490250Y-137344437D01*
X379542168Y-137083428D01*
X379644008Y-136837563D01*
X379699126Y-136755074D01*
X379791860Y-136616288D01*
X379980038Y-136428110D01*
X380201311Y-136280259D01*
X380286589Y-136244936D01*
X380447178Y-136178418D01*
X380708187Y-136126500D01*
X380974313Y-136126500D01*
X381235322Y-136178418D01*
X381235322Y-136178418D01*
G37*
G36*
X377629504Y-132965318D02*
G01*
X378002761Y-133119926D01*
X378002763Y-133119927D01*
X378338686Y-133344384D01*
X378624366Y-133630064D01*
X378703503Y-133748500D01*
X378848824Y-133965989D01*
X379003432Y-134339246D01*
X379082250Y-134735493D01*
X379082250Y-135139507D01*
X379003432Y-135535754D01*
X378850020Y-135906123D01*
X378848823Y-135909013D01*
X378624366Y-136244936D01*
X378338686Y-136530616D01*
X378002763Y-136755073D01*
X378002762Y-136755074D01*
X378002761Y-136755074D01*
X377629504Y-136909682D01*
X377233257Y-136988500D01*
X376829243Y-136988500D01*
X376432996Y-136909682D01*
X376059739Y-136755074D01*
X376059738Y-136755074D01*
X376059737Y-136755073D01*
X375723814Y-136530616D01*
X375438134Y-136244936D01*
X375213677Y-135909013D01*
X375212480Y-135906123D01*
X375059068Y-135535754D01*
X374980250Y-135139507D01*
X374980250Y-134735493D01*
X375059068Y-134339246D01*
X375213676Y-133965989D01*
X375358998Y-133748500D01*
X375438134Y-133630064D01*
X375723814Y-133344384D01*
X376059737Y-133119927D01*
X376059739Y-133119926D01*
X376432996Y-132965318D01*
X376829243Y-132886500D01*
X377233257Y-132886500D01*
X377629504Y-132965318D01*
X377629504Y-132965318D01*
G37*
G36*
X349052724Y-132971184D02*
G01*
X349212677Y-133037439D01*
X349424873Y-133125333D01*
X349759798Y-133349123D01*
X350044627Y-133633952D01*
X350268417Y-133968877D01*
X350300812Y-134047086D01*
X350422566Y-134341026D01*
X350501150Y-134736094D01*
X350501150Y-135138906D01*
X350422566Y-135533974D01*
X350371701Y-135656772D01*
X350268417Y-135906123D01*
X350044627Y-136241048D01*
X349759798Y-136525877D01*
X349424873Y-136749667D01*
X349270724Y-136813517D01*
X349052724Y-136903816D01*
X348657656Y-136982400D01*
X348254844Y-136982400D01*
X347859776Y-136903816D01*
X347641776Y-136813517D01*
X347487627Y-136749667D01*
X347152702Y-136525877D01*
X346867873Y-136241048D01*
X346644083Y-135906123D01*
X346540799Y-135656772D01*
X346489934Y-135533974D01*
X346411350Y-135138906D01*
X346411350Y-134736094D01*
X346489934Y-134341026D01*
X346611688Y-134047086D01*
X346644083Y-133968877D01*
X346867873Y-133633952D01*
X347152702Y-133349123D01*
X347487627Y-133125333D01*
X347699823Y-133037439D01*
X347859776Y-132971184D01*
X348254844Y-132892600D01*
X348657656Y-132892600D01*
X349052724Y-132971184D01*
X349052724Y-132971184D01*
G37*
G36*
X372221354Y-134047085D02*
G01*
X372389876Y-134116889D01*
X372541541Y-134218228D01*
X372670522Y-134347209D01*
X372771861Y-134498874D01*
X372841665Y-134667396D01*
X372877250Y-134846297D01*
X372877250Y-135028703D01*
X372841665Y-135207604D01*
X372771861Y-135376126D01*
X372670522Y-135527791D01*
X372541541Y-135656772D01*
X372389876Y-135758111D01*
X372221354Y-135827915D01*
X372042453Y-135863500D01*
X371860047Y-135863500D01*
X371681146Y-135827915D01*
X371512624Y-135758111D01*
X371360959Y-135656772D01*
X371231978Y-135527791D01*
X371130639Y-135376126D01*
X371060835Y-135207604D01*
X371025250Y-135028703D01*
X371025250Y-134846297D01*
X371060835Y-134667396D01*
X371130639Y-134498874D01*
X371231978Y-134347209D01*
X371360959Y-134218228D01*
X371512624Y-134116889D01*
X371681146Y-134047085D01*
X371860047Y-134011500D01*
X372042453Y-134011500D01*
X372221354Y-134047085D01*
X372221354Y-134047085D01*
G37*
G36*
X343646354Y-134047085D02*
G01*
X343814876Y-134116889D01*
X343966541Y-134218228D01*
X344095522Y-134347209D01*
X344196861Y-134498874D01*
X344266665Y-134667396D01*
X344302250Y-134846297D01*
X344302250Y-135028703D01*
X344266665Y-135207604D01*
X344196861Y-135376126D01*
X344095522Y-135527791D01*
X343966541Y-135656772D01*
X343814876Y-135758111D01*
X343646354Y-135827915D01*
X343467453Y-135863500D01*
X343285047Y-135863500D01*
X343106146Y-135827915D01*
X342937624Y-135758111D01*
X342785959Y-135656772D01*
X342656978Y-135527791D01*
X342555639Y-135376126D01*
X342485835Y-135207604D01*
X342450250Y-135028703D01*
X342450250Y-134846297D01*
X342485835Y-134667396D01*
X342555639Y-134498874D01*
X342656978Y-134347209D01*
X342785959Y-134218228D01*
X342937624Y-134116889D01*
X343106146Y-134047085D01*
X343285047Y-134011500D01*
X343467453Y-134011500D01*
X343646354Y-134047085D01*
X343646354Y-134047085D01*
G37*
G36*
X353806354Y-134047085D02*
G01*
X353974876Y-134116889D01*
X354126541Y-134218228D01*
X354255522Y-134347209D01*
X354356861Y-134498874D01*
X354426665Y-134667396D01*
X354462250Y-134846297D01*
X354462250Y-135028703D01*
X354426665Y-135207604D01*
X354356861Y-135376126D01*
X354255522Y-135527791D01*
X354126541Y-135656772D01*
X353974876Y-135758111D01*
X353806354Y-135827915D01*
X353627453Y-135863500D01*
X353445047Y-135863500D01*
X353266146Y-135827915D01*
X353097624Y-135758111D01*
X352945959Y-135656772D01*
X352816978Y-135527791D01*
X352715639Y-135376126D01*
X352645835Y-135207604D01*
X352610250Y-135028703D01*
X352610250Y-134846297D01*
X352645835Y-134667396D01*
X352715639Y-134498874D01*
X352816978Y-134347209D01*
X352945959Y-134218228D01*
X353097624Y-134116889D01*
X353266146Y-134047085D01*
X353445047Y-134011500D01*
X353627453Y-134011500D01*
X353806354Y-134047085D01*
X353806354Y-134047085D01*
G37*
G36*
X382381354Y-134047085D02*
G01*
X382549876Y-134116889D01*
X382701541Y-134218228D01*
X382830522Y-134347209D01*
X382931861Y-134498874D01*
X383001665Y-134667396D01*
X383037250Y-134846297D01*
X383037250Y-135028703D01*
X383001665Y-135207604D01*
X382931861Y-135376126D01*
X382830522Y-135527791D01*
X382701541Y-135656772D01*
X382549876Y-135758111D01*
X382381354Y-135827915D01*
X382202453Y-135863500D01*
X382020047Y-135863500D01*
X381841146Y-135827915D01*
X381672624Y-135758111D01*
X381520959Y-135656772D01*
X381391978Y-135527791D01*
X381290639Y-135376126D01*
X381220835Y-135207604D01*
X381185250Y-135028703D01*
X381185250Y-134846297D01*
X381220835Y-134667396D01*
X381290639Y-134498874D01*
X381391978Y-134347209D01*
X381520959Y-134218228D01*
X381672624Y-134116889D01*
X381841146Y-134047085D01*
X382020047Y-134011500D01*
X382202453Y-134011500D01*
X382381354Y-134047085D01*
X382381354Y-134047085D01*
G37*
G36*
X392596823Y-132511313D02*
G01*
X392757242Y-132559976D01*
X392889906Y-132630886D01*
X392905078Y-132638996D01*
X393034659Y-132745341D01*
X393141004Y-132874922D01*
X393141005Y-132874924D01*
X393220024Y-133022758D01*
X393220025Y-133022761D01*
X393229083Y-133052620D01*
X393268687Y-133183177D01*
X393285117Y-133350000D01*
X393268687Y-133516823D01*
X393220024Y-133677242D01*
X393149114Y-133809906D01*
X393141004Y-133825078D01*
X393034659Y-133954659D01*
X392905078Y-134061004D01*
X392905076Y-134061005D01*
X392757242Y-134140024D01*
X392596823Y-134188687D01*
X392471804Y-134201000D01*
X392388196Y-134201000D01*
X392263177Y-134188687D01*
X392102758Y-134140024D01*
X391954924Y-134061005D01*
X391954922Y-134061004D01*
X391825341Y-133954659D01*
X391718996Y-133825078D01*
X391710886Y-133809906D01*
X391639976Y-133677242D01*
X391591313Y-133516823D01*
X391574883Y-133350000D01*
X391591313Y-133183177D01*
X391630917Y-133052620D01*
X391639975Y-133022761D01*
X391639976Y-133022758D01*
X391718995Y-132874924D01*
X391718996Y-132874922D01*
X391825341Y-132745341D01*
X391954922Y-132638996D01*
X391970094Y-132630886D01*
X392102758Y-132559976D01*
X392263177Y-132511313D01*
X392388196Y-132499000D01*
X392471804Y-132499000D01*
X392596823Y-132511313D01*
X392596823Y-132511313D01*
G37*
G36*
X400901000Y-134201000D02*
G01*
X399199000Y-134201000D01*
X399199000Y-132499000D01*
X400901000Y-132499000D01*
X400901000Y-134201000D01*
X400901000Y-134201000D01*
G37*
G36*
X345040322Y-131098418D02*
G01*
X345122452Y-131132437D01*
X345286189Y-131200259D01*
X345298522Y-131208500D01*
X345507461Y-131348109D01*
X345695641Y-131536289D01*
X345843492Y-131757563D01*
X345945332Y-132003428D01*
X345997250Y-132264437D01*
X345997250Y-132530563D01*
X345945332Y-132791572D01*
X345910808Y-132874922D01*
X345843491Y-133037439D01*
X345695640Y-133258712D01*
X345507462Y-133446890D01*
X345286189Y-133594741D01*
X345286188Y-133594742D01*
X345286187Y-133594742D01*
X345040322Y-133696582D01*
X344779313Y-133748500D01*
X344513187Y-133748500D01*
X344252178Y-133696582D01*
X344006313Y-133594742D01*
X344006312Y-133594742D01*
X344006311Y-133594741D01*
X343785038Y-133446890D01*
X343596860Y-133258712D01*
X343449009Y-133037439D01*
X343381693Y-132874922D01*
X343347168Y-132791572D01*
X343295250Y-132530563D01*
X343295250Y-132264437D01*
X343347168Y-132003428D01*
X343449008Y-131757563D01*
X343596859Y-131536289D01*
X343785039Y-131348109D01*
X343993978Y-131208500D01*
X344006311Y-131200259D01*
X344170049Y-131132437D01*
X344252178Y-131098418D01*
X344513187Y-131046500D01*
X344779313Y-131046500D01*
X345040322Y-131098418D01*
X345040322Y-131098418D01*
G37*
G36*
X373615322Y-131098418D02*
G01*
X373697452Y-131132437D01*
X373861189Y-131200259D01*
X373873522Y-131208500D01*
X374082461Y-131348109D01*
X374270641Y-131536289D01*
X374418492Y-131757563D01*
X374520332Y-132003428D01*
X374572250Y-132264437D01*
X374572250Y-132530563D01*
X374520332Y-132791572D01*
X374485808Y-132874922D01*
X374418491Y-133037439D01*
X374270640Y-133258712D01*
X374082462Y-133446890D01*
X373861189Y-133594741D01*
X373861188Y-133594742D01*
X373861187Y-133594742D01*
X373615322Y-133696582D01*
X373354313Y-133748500D01*
X373088187Y-133748500D01*
X372827178Y-133696582D01*
X372581313Y-133594742D01*
X372581312Y-133594742D01*
X372581311Y-133594741D01*
X372360038Y-133446890D01*
X372171860Y-133258712D01*
X372024009Y-133037439D01*
X371956693Y-132874922D01*
X371922168Y-132791572D01*
X371870250Y-132530563D01*
X371870250Y-132264437D01*
X371922168Y-132003428D01*
X372024008Y-131757563D01*
X372171859Y-131536289D01*
X372360039Y-131348109D01*
X372568978Y-131208500D01*
X372581311Y-131200259D01*
X372745049Y-131132437D01*
X372827178Y-131098418D01*
X373088187Y-131046500D01*
X373354313Y-131046500D01*
X373615322Y-131098418D01*
X373615322Y-131098418D01*
G37*
G36*
X393935322Y-129193418D02*
G01*
X393993614Y-129217563D01*
X394181189Y-129295259D01*
X394260492Y-129348248D01*
X394402461Y-129443109D01*
X394590641Y-129631289D01*
X394738492Y-129852563D01*
X394840332Y-130098428D01*
X394892250Y-130359437D01*
X394892250Y-130625563D01*
X394840332Y-130886572D01*
X394770675Y-131054741D01*
X394738491Y-131132439D01*
X394590640Y-131353712D01*
X394402462Y-131541890D01*
X394181189Y-131689741D01*
X394181188Y-131689742D01*
X394181187Y-131689742D01*
X393935322Y-131791582D01*
X393674313Y-131843500D01*
X393408187Y-131843500D01*
X393147178Y-131791582D01*
X392901313Y-131689742D01*
X392901312Y-131689742D01*
X392901311Y-131689741D01*
X392680038Y-131541890D01*
X392491860Y-131353712D01*
X392344009Y-131132439D01*
X392311826Y-131054741D01*
X392242168Y-130886572D01*
X392190250Y-130625563D01*
X392190250Y-130359437D01*
X392242168Y-130098428D01*
X392344008Y-129852563D01*
X392491859Y-129631289D01*
X392680039Y-129443109D01*
X392822008Y-129348248D01*
X392901311Y-129295259D01*
X393088887Y-129217563D01*
X393147178Y-129193418D01*
X393408187Y-129141500D01*
X393674313Y-129141500D01*
X393935322Y-129193418D01*
X393935322Y-129193418D01*
G37*
G36*
X379965322Y-128558418D02*
G01*
X380047452Y-128592437D01*
X380211189Y-128660259D01*
X380268483Y-128698542D01*
X380432461Y-128808109D01*
X380620641Y-128996289D01*
X380768492Y-129217563D01*
X380804088Y-129303500D01*
X380870332Y-129463428D01*
X380922250Y-129724438D01*
X380922250Y-129990562D01*
X380870332Y-130251572D01*
X380768491Y-130497439D01*
X380620640Y-130718712D01*
X380432462Y-130906890D01*
X380211189Y-131054741D01*
X380211188Y-131054742D01*
X380211187Y-131054742D01*
X379965322Y-131156582D01*
X379704313Y-131208500D01*
X379438187Y-131208500D01*
X379177178Y-131156582D01*
X378931313Y-131054742D01*
X378931312Y-131054742D01*
X378931311Y-131054741D01*
X378710038Y-130906890D01*
X378521860Y-130718712D01*
X378374009Y-130497439D01*
X378272168Y-130251572D01*
X378220250Y-129990562D01*
X378220250Y-129724438D01*
X378272168Y-129463428D01*
X378338412Y-129303500D01*
X378374008Y-129217563D01*
X378521859Y-128996289D01*
X378710039Y-128808109D01*
X378874017Y-128698542D01*
X378931311Y-128660259D01*
X379095049Y-128592437D01*
X379177178Y-128558418D01*
X379438187Y-128506500D01*
X379704313Y-128506500D01*
X379965322Y-128558418D01*
X379965322Y-128558418D01*
G37*
G36*
X351390322Y-128558418D02*
G01*
X351472452Y-128592437D01*
X351636189Y-128660259D01*
X351693483Y-128698542D01*
X351857461Y-128808109D01*
X352045641Y-128996289D01*
X352193492Y-129217563D01*
X352229088Y-129303500D01*
X352295332Y-129463428D01*
X352347250Y-129724438D01*
X352347250Y-129990562D01*
X352295332Y-130251572D01*
X352193491Y-130497439D01*
X352045640Y-130718712D01*
X351857462Y-130906890D01*
X351636189Y-131054741D01*
X351636188Y-131054742D01*
X351636187Y-131054742D01*
X351390322Y-131156582D01*
X351129313Y-131208500D01*
X350863187Y-131208500D01*
X350602178Y-131156582D01*
X350356313Y-131054742D01*
X350356312Y-131054742D01*
X350356311Y-131054741D01*
X350135038Y-130906890D01*
X349946860Y-130718712D01*
X349799009Y-130497439D01*
X349697168Y-130251572D01*
X349645250Y-129990562D01*
X349645250Y-129724438D01*
X349697168Y-129463428D01*
X349763412Y-129303500D01*
X349799008Y-129217563D01*
X349946859Y-128996289D01*
X350135039Y-128808109D01*
X350299017Y-128698542D01*
X350356311Y-128660259D01*
X350520049Y-128592437D01*
X350602178Y-128558418D01*
X350863187Y-128506500D01*
X351129313Y-128506500D01*
X351390322Y-128558418D01*
X351390322Y-128558418D01*
G37*
G36*
X336857267Y-126407763D02*
G01*
X337009411Y-126438026D01*
X337128137Y-126487204D01*
X337296041Y-126556752D01*
X337296042Y-126556753D01*
X337554004Y-126729117D01*
X337773383Y-126948496D01*
X337868793Y-127091288D01*
X337945748Y-127206459D01*
X338064474Y-127493090D01*
X338125000Y-127797375D01*
X338125000Y-128107625D01*
X338064474Y-128411910D01*
X337945748Y-128698541D01*
X337945747Y-128698542D01*
X337773383Y-128956504D01*
X337554004Y-129175883D01*
X337491628Y-129217561D01*
X337296041Y-129348248D01*
X337128137Y-129417796D01*
X337009411Y-129466974D01*
X336705125Y-129527500D01*
X336394875Y-129527500D01*
X336090589Y-129466974D01*
X335971863Y-129417796D01*
X335803959Y-129348248D01*
X335608372Y-129217561D01*
X335545996Y-129175883D01*
X335326617Y-128956504D01*
X335154253Y-128698542D01*
X335154252Y-128698541D01*
X335035526Y-128411910D01*
X334975000Y-128107625D01*
X334975000Y-127797375D01*
X335035526Y-127493090D01*
X335154252Y-127206459D01*
X335231207Y-127091288D01*
X335326617Y-126948496D01*
X335545996Y-126729117D01*
X335803958Y-126556753D01*
X335803959Y-126556752D01*
X335971863Y-126487204D01*
X336090589Y-126438026D01*
X336242733Y-126407763D01*
X336394875Y-126377500D01*
X336705125Y-126377500D01*
X336857267Y-126407763D01*
X336857267Y-126407763D01*
G37*
G36*
X360669767Y-126407763D02*
G01*
X360821911Y-126438026D01*
X360940637Y-126487204D01*
X361108541Y-126556752D01*
X361108542Y-126556753D01*
X361366504Y-126729117D01*
X361585883Y-126948496D01*
X361681293Y-127091288D01*
X361758248Y-127206459D01*
X361876974Y-127493090D01*
X361937500Y-127797375D01*
X361937500Y-128107625D01*
X361876974Y-128411910D01*
X361758248Y-128698541D01*
X361758247Y-128698542D01*
X361585883Y-128956504D01*
X361366504Y-129175883D01*
X361304128Y-129217561D01*
X361108541Y-129348248D01*
X360940637Y-129417796D01*
X360821911Y-129466974D01*
X360517625Y-129527500D01*
X360207375Y-129527500D01*
X359903089Y-129466974D01*
X359784363Y-129417796D01*
X359616459Y-129348248D01*
X359420872Y-129217561D01*
X359358496Y-129175883D01*
X359139117Y-128956504D01*
X358966753Y-128698542D01*
X358966752Y-128698541D01*
X358848026Y-128411910D01*
X358787500Y-128107625D01*
X358787500Y-127797375D01*
X358848026Y-127493090D01*
X358966752Y-127206459D01*
X359043707Y-127091288D01*
X359139117Y-126948496D01*
X359358496Y-126729117D01*
X359616458Y-126556753D01*
X359616459Y-126556752D01*
X359784363Y-126487204D01*
X359903089Y-126438026D01*
X360055233Y-126407763D01*
X360207375Y-126377500D01*
X360517625Y-126377500D01*
X360669767Y-126407763D01*
X360669767Y-126407763D01*
G37*
G36*
X400285322Y-126653418D02*
G01*
X400468077Y-126729117D01*
X400531189Y-126755259D01*
X400642578Y-126829687D01*
X400752461Y-126903109D01*
X400940641Y-127091289D01*
X401088492Y-127312563D01*
X401190332Y-127558428D01*
X401242250Y-127819437D01*
X401242250Y-128085563D01*
X401190332Y-128346572D01*
X401088491Y-128592439D01*
X400940640Y-128813712D01*
X400752462Y-129001890D01*
X400531189Y-129149741D01*
X400531188Y-129149742D01*
X400531187Y-129149742D01*
X400285322Y-129251582D01*
X400024313Y-129303500D01*
X399758187Y-129303500D01*
X399497178Y-129251582D01*
X399251313Y-129149742D01*
X399251312Y-129149742D01*
X399251311Y-129149741D01*
X399030038Y-129001890D01*
X398841860Y-128813712D01*
X398694009Y-128592439D01*
X398592168Y-128346572D01*
X398540250Y-128085563D01*
X398540250Y-127819437D01*
X398592168Y-127558428D01*
X398694008Y-127312563D01*
X398841859Y-127091289D01*
X399030039Y-126903109D01*
X399139922Y-126829687D01*
X399251311Y-126755259D01*
X399314424Y-126729117D01*
X399497178Y-126653418D01*
X399758187Y-126601500D01*
X400024313Y-126601500D01*
X400285322Y-126653418D01*
X400285322Y-126653418D01*
G37*
G36*
X396677724Y-123446184D02*
G01*
X396837677Y-123512439D01*
X397049873Y-123600333D01*
X397384798Y-123824123D01*
X397669627Y-124108952D01*
X397893417Y-124443877D01*
X397925812Y-124522086D01*
X398047566Y-124816026D01*
X398126150Y-125211094D01*
X398126150Y-125613906D01*
X398047566Y-126008974D01*
X397996701Y-126131772D01*
X397893417Y-126381123D01*
X397669627Y-126716048D01*
X397384798Y-127000877D01*
X397049873Y-127224667D01*
X396895724Y-127288517D01*
X396677724Y-127378816D01*
X396282656Y-127457400D01*
X395879844Y-127457400D01*
X395484776Y-127378816D01*
X395266776Y-127288517D01*
X395112627Y-127224667D01*
X394777702Y-127000877D01*
X394492873Y-126716048D01*
X394269083Y-126381123D01*
X394165799Y-126131772D01*
X394114934Y-126008974D01*
X394036350Y-125613906D01*
X394036350Y-125211094D01*
X394114934Y-124816026D01*
X394236688Y-124522086D01*
X394269083Y-124443877D01*
X394492873Y-124108952D01*
X394777702Y-123824123D01*
X395112627Y-123600333D01*
X395324823Y-123512439D01*
X395484776Y-123446184D01*
X395879844Y-123367600D01*
X396282656Y-123367600D01*
X396677724Y-123446184D01*
X396677724Y-123446184D01*
G37*
G36*
X401431354Y-124522085D02*
G01*
X401599876Y-124591889D01*
X401751541Y-124693228D01*
X401880522Y-124822209D01*
X401981861Y-124973874D01*
X402051665Y-125142396D01*
X402087250Y-125321297D01*
X402087250Y-125503703D01*
X402051665Y-125682604D01*
X401981861Y-125851126D01*
X401880522Y-126002791D01*
X401751541Y-126131772D01*
X401599876Y-126233111D01*
X401431354Y-126302915D01*
X401252453Y-126338500D01*
X401070047Y-126338500D01*
X400891146Y-126302915D01*
X400722624Y-126233111D01*
X400570959Y-126131772D01*
X400441978Y-126002791D01*
X400340639Y-125851126D01*
X400270835Y-125682604D01*
X400235250Y-125503703D01*
X400235250Y-125321297D01*
X400270835Y-125142396D01*
X400340639Y-124973874D01*
X400441978Y-124822209D01*
X400570959Y-124693228D01*
X400722624Y-124591889D01*
X400891146Y-124522085D01*
X401070047Y-124486500D01*
X401252453Y-124486500D01*
X401431354Y-124522085D01*
X401431354Y-124522085D01*
G37*
G36*
X391271354Y-124522085D02*
G01*
X391439876Y-124591889D01*
X391591541Y-124693228D01*
X391720522Y-124822209D01*
X391821861Y-124973874D01*
X391891665Y-125142396D01*
X391927250Y-125321297D01*
X391927250Y-125503703D01*
X391891665Y-125682604D01*
X391821861Y-125851126D01*
X391720522Y-126002791D01*
X391591541Y-126131772D01*
X391439876Y-126233111D01*
X391271354Y-126302915D01*
X391092453Y-126338500D01*
X390910047Y-126338500D01*
X390731146Y-126302915D01*
X390562624Y-126233111D01*
X390410959Y-126131772D01*
X390281978Y-126002791D01*
X390180639Y-125851126D01*
X390110835Y-125682604D01*
X390075250Y-125503703D01*
X390075250Y-125321297D01*
X390110835Y-125142396D01*
X390180639Y-124973874D01*
X390281978Y-124822209D01*
X390410959Y-124693228D01*
X390562624Y-124591889D01*
X390731146Y-124522085D01*
X390910047Y-124486500D01*
X391092453Y-124486500D01*
X391271354Y-124522085D01*
X391271354Y-124522085D01*
G37*
G36*
X354496823Y-122986313D02*
G01*
X354657242Y-123034976D01*
X354789906Y-123105886D01*
X354805078Y-123113996D01*
X354934659Y-123220341D01*
X355041004Y-123349922D01*
X355041005Y-123349924D01*
X355120024Y-123497758D01*
X355120025Y-123497761D01*
X355129083Y-123527620D01*
X355168687Y-123658177D01*
X355185117Y-123825000D01*
X355168687Y-123991823D01*
X355120024Y-124152242D01*
X355049114Y-124284906D01*
X355041004Y-124300078D01*
X354934659Y-124429659D01*
X354805078Y-124536004D01*
X354805076Y-124536005D01*
X354657242Y-124615024D01*
X354496823Y-124663687D01*
X354371804Y-124676000D01*
X354288196Y-124676000D01*
X354163177Y-124663687D01*
X354002758Y-124615024D01*
X353854924Y-124536005D01*
X353854922Y-124536004D01*
X353725341Y-124429659D01*
X353618996Y-124300078D01*
X353610886Y-124284906D01*
X353539976Y-124152242D01*
X353491313Y-123991823D01*
X353474883Y-123825000D01*
X353491313Y-123658177D01*
X353530917Y-123527620D01*
X353539975Y-123497761D01*
X353539976Y-123497758D01*
X353618995Y-123349924D01*
X353618996Y-123349922D01*
X353725341Y-123220341D01*
X353854922Y-123113996D01*
X353870094Y-123105886D01*
X354002758Y-123034976D01*
X354163177Y-122986313D01*
X354288196Y-122974000D01*
X354371804Y-122974000D01*
X354496823Y-122986313D01*
X354496823Y-122986313D01*
G37*
G36*
X343751000Y-124676000D02*
G01*
X342049000Y-124676000D01*
X342049000Y-122974000D01*
X343751000Y-122974000D01*
X343751000Y-124676000D01*
X343751000Y-124676000D01*
G37*
G36*
X335446823Y-122986313D02*
G01*
X335607242Y-123034976D01*
X335739906Y-123105886D01*
X335755078Y-123113996D01*
X335884659Y-123220341D01*
X335991004Y-123349922D01*
X335991005Y-123349924D01*
X336070024Y-123497758D01*
X336070025Y-123497761D01*
X336079083Y-123527620D01*
X336118687Y-123658177D01*
X336135117Y-123825000D01*
X336118687Y-123991823D01*
X336070024Y-124152242D01*
X335999114Y-124284906D01*
X335991004Y-124300078D01*
X335884659Y-124429659D01*
X335755078Y-124536004D01*
X335755076Y-124536005D01*
X335607242Y-124615024D01*
X335446823Y-124663687D01*
X335321804Y-124676000D01*
X335238196Y-124676000D01*
X335113177Y-124663687D01*
X334952758Y-124615024D01*
X334804924Y-124536005D01*
X334804922Y-124536004D01*
X334675341Y-124429659D01*
X334568996Y-124300078D01*
X334560886Y-124284906D01*
X334489976Y-124152242D01*
X334441313Y-123991823D01*
X334424883Y-123825000D01*
X334441313Y-123658177D01*
X334480917Y-123527620D01*
X334489975Y-123497761D01*
X334489976Y-123497758D01*
X334568995Y-123349924D01*
X334568996Y-123349922D01*
X334675341Y-123220341D01*
X334804922Y-123113996D01*
X334820094Y-123105886D01*
X334952758Y-123034976D01*
X335113177Y-122986313D01*
X335238196Y-122974000D01*
X335321804Y-122974000D01*
X335446823Y-122986313D01*
X335446823Y-122986313D01*
G37*
G36*
X362801000Y-124676000D02*
G01*
X361099000Y-124676000D01*
X361099000Y-122974000D01*
X362801000Y-122974000D01*
X362801000Y-124676000D01*
X362801000Y-124676000D01*
G37*
G36*
X373546823Y-122986313D02*
G01*
X373707242Y-123034976D01*
X373839906Y-123105886D01*
X373855078Y-123113996D01*
X373984659Y-123220341D01*
X374091004Y-123349922D01*
X374091005Y-123349924D01*
X374170024Y-123497758D01*
X374170025Y-123497761D01*
X374179083Y-123527620D01*
X374218687Y-123658177D01*
X374235117Y-123825000D01*
X374218687Y-123991823D01*
X374170024Y-124152242D01*
X374099114Y-124284906D01*
X374091004Y-124300078D01*
X373984659Y-124429659D01*
X373855078Y-124536004D01*
X373855076Y-124536005D01*
X373707242Y-124615024D01*
X373546823Y-124663687D01*
X373421804Y-124676000D01*
X373338196Y-124676000D01*
X373213177Y-124663687D01*
X373052758Y-124615024D01*
X372904924Y-124536005D01*
X372904922Y-124536004D01*
X372775341Y-124429659D01*
X372668996Y-124300078D01*
X372660886Y-124284906D01*
X372589976Y-124152242D01*
X372541313Y-123991823D01*
X372524883Y-123825000D01*
X372541313Y-123658177D01*
X372580917Y-123527620D01*
X372589975Y-123497761D01*
X372589976Y-123497758D01*
X372668995Y-123349924D01*
X372668996Y-123349922D01*
X372775341Y-123220341D01*
X372904922Y-123113996D01*
X372920094Y-123105886D01*
X373052758Y-123034976D01*
X373213177Y-122986313D01*
X373338196Y-122974000D01*
X373421804Y-122974000D01*
X373546823Y-122986313D01*
X373546823Y-122986313D01*
G37*
G36*
X381851000Y-124676000D02*
G01*
X380149000Y-124676000D01*
X380149000Y-122974000D01*
X381851000Y-122974000D01*
X381851000Y-124676000D01*
X381851000Y-124676000D01*
G37*
G36*
X392665322Y-121573418D02*
G01*
X392747452Y-121607437D01*
X392911189Y-121675259D01*
X392923522Y-121683500D01*
X393132461Y-121823109D01*
X393320641Y-122011289D01*
X393468492Y-122232563D01*
X393570332Y-122478428D01*
X393622250Y-122739437D01*
X393622250Y-123005563D01*
X393570332Y-123266572D01*
X393535808Y-123349922D01*
X393468491Y-123512439D01*
X393320640Y-123733712D01*
X393132462Y-123921890D01*
X392911189Y-124069741D01*
X392911188Y-124069742D01*
X392911187Y-124069742D01*
X392665322Y-124171582D01*
X392404313Y-124223500D01*
X392138187Y-124223500D01*
X391877178Y-124171582D01*
X391631313Y-124069742D01*
X391631312Y-124069742D01*
X391631311Y-124069741D01*
X391410038Y-123921890D01*
X391221860Y-123733712D01*
X391074009Y-123512439D01*
X391006693Y-123349922D01*
X390972168Y-123266572D01*
X390920250Y-123005563D01*
X390920250Y-122739437D01*
X390972168Y-122478428D01*
X391074008Y-122232563D01*
X391221859Y-122011289D01*
X391410039Y-121823109D01*
X391618978Y-121683500D01*
X391631311Y-121675259D01*
X391795049Y-121607437D01*
X391877178Y-121573418D01*
X392138187Y-121521500D01*
X392404313Y-121521500D01*
X392665322Y-121573418D01*
X392665322Y-121573418D01*
G37*
G36*
X374885322Y-119668418D02*
G01*
X374943614Y-119692563D01*
X375131189Y-119770259D01*
X375143522Y-119778500D01*
X375352461Y-119918109D01*
X375540641Y-120106289D01*
X375688492Y-120327563D01*
X375790332Y-120573428D01*
X375842250Y-120834437D01*
X375842250Y-121100563D01*
X375790332Y-121361572D01*
X375720675Y-121529741D01*
X375688491Y-121607439D01*
X375540640Y-121828712D01*
X375352462Y-122016890D01*
X375131189Y-122164741D01*
X375131188Y-122164742D01*
X375131187Y-122164742D01*
X374885322Y-122266582D01*
X374624313Y-122318500D01*
X374358187Y-122318500D01*
X374097178Y-122266582D01*
X373851313Y-122164742D01*
X373851312Y-122164742D01*
X373851311Y-122164741D01*
X373630038Y-122016890D01*
X373441860Y-121828712D01*
X373294009Y-121607439D01*
X373261826Y-121529741D01*
X373192168Y-121361572D01*
X373140250Y-121100563D01*
X373140250Y-120834437D01*
X373192168Y-120573428D01*
X373294008Y-120327563D01*
X373441859Y-120106289D01*
X373630039Y-119918109D01*
X373838978Y-119778500D01*
X373851311Y-119770259D01*
X374038887Y-119692563D01*
X374097178Y-119668418D01*
X374358187Y-119616500D01*
X374624313Y-119616500D01*
X374885322Y-119668418D01*
X374885322Y-119668418D01*
G37*
G36*
X336785322Y-119668418D02*
G01*
X336843614Y-119692563D01*
X337031189Y-119770259D01*
X337043522Y-119778500D01*
X337252461Y-119918109D01*
X337440641Y-120106289D01*
X337588492Y-120327563D01*
X337690332Y-120573428D01*
X337742250Y-120834437D01*
X337742250Y-121100563D01*
X337690332Y-121361572D01*
X337620675Y-121529741D01*
X337588491Y-121607439D01*
X337440640Y-121828712D01*
X337252462Y-122016890D01*
X337031189Y-122164741D01*
X337031188Y-122164742D01*
X337031187Y-122164742D01*
X336785322Y-122266582D01*
X336524313Y-122318500D01*
X336258187Y-122318500D01*
X335997178Y-122266582D01*
X335751313Y-122164742D01*
X335751312Y-122164742D01*
X335751311Y-122164741D01*
X335530038Y-122016890D01*
X335341860Y-121828712D01*
X335194009Y-121607439D01*
X335161826Y-121529741D01*
X335092168Y-121361572D01*
X335040250Y-121100563D01*
X335040250Y-120834437D01*
X335092168Y-120573428D01*
X335194008Y-120327563D01*
X335341859Y-120106289D01*
X335530039Y-119918109D01*
X335738978Y-119778500D01*
X335751311Y-119770259D01*
X335938887Y-119692563D01*
X335997178Y-119668418D01*
X336258187Y-119616500D01*
X336524313Y-119616500D01*
X336785322Y-119668418D01*
X336785322Y-119668418D01*
G37*
G36*
X355835322Y-119668418D02*
G01*
X355893614Y-119692563D01*
X356081189Y-119770259D01*
X356093522Y-119778500D01*
X356302461Y-119918109D01*
X356490641Y-120106289D01*
X356638492Y-120327563D01*
X356740332Y-120573428D01*
X356792250Y-120834437D01*
X356792250Y-121100563D01*
X356740332Y-121361572D01*
X356670675Y-121529741D01*
X356638491Y-121607439D01*
X356490640Y-121828712D01*
X356302462Y-122016890D01*
X356081189Y-122164741D01*
X356081188Y-122164742D01*
X356081187Y-122164742D01*
X355835322Y-122266582D01*
X355574313Y-122318500D01*
X355308187Y-122318500D01*
X355047178Y-122266582D01*
X354801313Y-122164742D01*
X354801312Y-122164742D01*
X354801311Y-122164741D01*
X354580038Y-122016890D01*
X354391860Y-121828712D01*
X354244009Y-121607439D01*
X354211826Y-121529741D01*
X354142168Y-121361572D01*
X354090250Y-121100563D01*
X354090250Y-120834437D01*
X354142168Y-120573428D01*
X354244008Y-120327563D01*
X354391859Y-120106289D01*
X354580039Y-119918109D01*
X354788978Y-119778500D01*
X354801311Y-119770259D01*
X354988887Y-119692563D01*
X355047178Y-119668418D01*
X355308187Y-119616500D01*
X355574313Y-119616500D01*
X355835322Y-119668418D01*
X355835322Y-119668418D01*
G37*
G36*
X399015322Y-119033418D02*
G01*
X399097452Y-119067437D01*
X399261189Y-119135259D01*
X399372578Y-119209687D01*
X399482461Y-119283109D01*
X399670641Y-119471289D01*
X399818492Y-119692563D01*
X399854088Y-119778500D01*
X399920332Y-119938428D01*
X399972250Y-120199438D01*
X399972250Y-120465562D01*
X399920332Y-120726572D01*
X399818491Y-120972439D01*
X399670640Y-121193712D01*
X399482462Y-121381890D01*
X399261189Y-121529741D01*
X399261188Y-121529742D01*
X399261187Y-121529742D01*
X399015322Y-121631582D01*
X398754313Y-121683500D01*
X398488187Y-121683500D01*
X398227178Y-121631582D01*
X397981313Y-121529742D01*
X397981312Y-121529742D01*
X397981311Y-121529741D01*
X397760038Y-121381890D01*
X397571860Y-121193712D01*
X397424009Y-120972439D01*
X397322168Y-120726572D01*
X397270250Y-120465562D01*
X397270250Y-120199438D01*
X397322168Y-119938428D01*
X397388412Y-119778500D01*
X397424008Y-119692563D01*
X397571859Y-119471289D01*
X397760039Y-119283109D01*
X397869922Y-119209687D01*
X397981311Y-119135259D01*
X398145049Y-119067437D01*
X398227178Y-119033418D01*
X398488187Y-118981500D01*
X398754313Y-118981500D01*
X399015322Y-119033418D01*
X399015322Y-119033418D01*
G37*
G36*
X343135322Y-117128418D02*
G01*
X343295912Y-117194936D01*
X343381189Y-117230259D01*
X343602462Y-117378110D01*
X343790640Y-117566288D01*
X343938491Y-117787561D01*
X344040332Y-118033428D01*
X344092250Y-118294438D01*
X344092250Y-118560562D01*
X344040332Y-118821572D01*
X343938491Y-119067439D01*
X343790640Y-119288712D01*
X343602462Y-119476890D01*
X343381189Y-119624741D01*
X343381188Y-119624742D01*
X343381187Y-119624742D01*
X343135322Y-119726582D01*
X342874313Y-119778500D01*
X342608187Y-119778500D01*
X342347178Y-119726582D01*
X342101313Y-119624742D01*
X342101312Y-119624742D01*
X342101311Y-119624741D01*
X341880038Y-119476890D01*
X341691860Y-119288712D01*
X341544009Y-119067439D01*
X341442168Y-118821572D01*
X341390250Y-118560562D01*
X341390250Y-118294438D01*
X341442168Y-118033428D01*
X341544009Y-117787561D01*
X341691860Y-117566288D01*
X341880038Y-117378110D01*
X342101311Y-117230259D01*
X342186589Y-117194936D01*
X342347178Y-117128418D01*
X342608187Y-117076500D01*
X342874313Y-117076500D01*
X343135322Y-117128418D01*
X343135322Y-117128418D01*
G37*
G36*
X362185322Y-117128418D02*
G01*
X362345912Y-117194936D01*
X362431189Y-117230259D01*
X362652462Y-117378110D01*
X362840640Y-117566288D01*
X362988491Y-117787561D01*
X363090332Y-118033428D01*
X363142250Y-118294438D01*
X363142250Y-118560562D01*
X363090332Y-118821572D01*
X362988491Y-119067439D01*
X362840640Y-119288712D01*
X362652462Y-119476890D01*
X362431189Y-119624741D01*
X362431188Y-119624742D01*
X362431187Y-119624742D01*
X362185322Y-119726582D01*
X361924313Y-119778500D01*
X361658187Y-119778500D01*
X361397178Y-119726582D01*
X361151313Y-119624742D01*
X361151312Y-119624742D01*
X361151311Y-119624741D01*
X360930038Y-119476890D01*
X360741860Y-119288712D01*
X360594009Y-119067439D01*
X360492168Y-118821572D01*
X360440250Y-118560562D01*
X360440250Y-118294438D01*
X360492168Y-118033428D01*
X360594009Y-117787561D01*
X360741860Y-117566288D01*
X360930038Y-117378110D01*
X361151311Y-117230259D01*
X361236589Y-117194936D01*
X361397178Y-117128418D01*
X361658187Y-117076500D01*
X361924313Y-117076500D01*
X362185322Y-117128418D01*
X362185322Y-117128418D01*
G37*
G36*
X381235322Y-117128418D02*
G01*
X381395912Y-117194936D01*
X381481189Y-117230259D01*
X381702462Y-117378110D01*
X381890640Y-117566288D01*
X382038491Y-117787561D01*
X382140332Y-118033428D01*
X382192250Y-118294438D01*
X382192250Y-118560562D01*
X382140332Y-118821572D01*
X382038491Y-119067439D01*
X381890640Y-119288712D01*
X381702462Y-119476890D01*
X381481189Y-119624741D01*
X381481188Y-119624742D01*
X381481187Y-119624742D01*
X381235322Y-119726582D01*
X380974313Y-119778500D01*
X380708187Y-119778500D01*
X380447178Y-119726582D01*
X380201313Y-119624742D01*
X380201312Y-119624742D01*
X380201311Y-119624741D01*
X379980038Y-119476890D01*
X379791860Y-119288712D01*
X379644009Y-119067439D01*
X379542168Y-118821572D01*
X379490250Y-118560562D01*
X379490250Y-118294438D01*
X379542168Y-118033428D01*
X379644009Y-117787561D01*
X379791860Y-117566288D01*
X379980038Y-117378110D01*
X380201311Y-117230259D01*
X380286589Y-117194936D01*
X380447178Y-117128418D01*
X380708187Y-117076500D01*
X380974313Y-117076500D01*
X381235322Y-117128418D01*
X381235322Y-117128418D01*
G37*
G36*
X377629504Y-113915318D02*
G01*
X378002761Y-114069926D01*
X378002763Y-114069927D01*
X378338686Y-114294384D01*
X378624366Y-114580064D01*
X378777870Y-114809798D01*
X378848824Y-114915989D01*
X379003432Y-115289246D01*
X379082250Y-115685493D01*
X379082250Y-116089507D01*
X379003432Y-116485754D01*
X378867675Y-116813500D01*
X378848823Y-116859013D01*
X378624366Y-117194936D01*
X378338686Y-117480616D01*
X378002763Y-117705073D01*
X378002762Y-117705074D01*
X378002761Y-117705074D01*
X377629504Y-117859682D01*
X377233257Y-117938500D01*
X376829243Y-117938500D01*
X376432996Y-117859682D01*
X376059739Y-117705074D01*
X376059738Y-117705074D01*
X376059737Y-117705073D01*
X375723814Y-117480616D01*
X375438134Y-117194936D01*
X375213677Y-116859013D01*
X375194825Y-116813500D01*
X375059068Y-116485754D01*
X374980250Y-116089507D01*
X374980250Y-115685493D01*
X375059068Y-115289246D01*
X375213676Y-114915989D01*
X375284631Y-114809798D01*
X375438134Y-114580064D01*
X375723814Y-114294384D01*
X376059737Y-114069927D01*
X376059739Y-114069926D01*
X376432996Y-113915318D01*
X376829243Y-113836500D01*
X377233257Y-113836500D01*
X377629504Y-113915318D01*
X377629504Y-113915318D01*
G37*
G36*
X339529504Y-113915318D02*
G01*
X339902761Y-114069926D01*
X339902763Y-114069927D01*
X340238686Y-114294384D01*
X340524366Y-114580064D01*
X340677870Y-114809798D01*
X340748824Y-114915989D01*
X340903432Y-115289246D01*
X340982250Y-115685493D01*
X340982250Y-116089507D01*
X340903432Y-116485754D01*
X340767675Y-116813500D01*
X340748823Y-116859013D01*
X340524366Y-117194936D01*
X340238686Y-117480616D01*
X339902763Y-117705073D01*
X339902762Y-117705074D01*
X339902761Y-117705074D01*
X339529504Y-117859682D01*
X339133257Y-117938500D01*
X338729243Y-117938500D01*
X338332996Y-117859682D01*
X337959739Y-117705074D01*
X337959738Y-117705074D01*
X337959737Y-117705073D01*
X337623814Y-117480616D01*
X337338134Y-117194936D01*
X337113677Y-116859013D01*
X337094825Y-116813500D01*
X336959068Y-116485754D01*
X336880250Y-116089507D01*
X336880250Y-115685493D01*
X336959068Y-115289246D01*
X337113676Y-114915989D01*
X337184631Y-114809798D01*
X337338134Y-114580064D01*
X337623814Y-114294384D01*
X337959737Y-114069927D01*
X337959739Y-114069926D01*
X338332996Y-113915318D01*
X338729243Y-113836500D01*
X339133257Y-113836500D01*
X339529504Y-113915318D01*
X339529504Y-113915318D01*
G37*
G36*
X358579504Y-113915318D02*
G01*
X358952761Y-114069926D01*
X358952763Y-114069927D01*
X359288686Y-114294384D01*
X359574366Y-114580064D01*
X359727870Y-114809798D01*
X359798824Y-114915989D01*
X359953432Y-115289246D01*
X360032250Y-115685493D01*
X360032250Y-116089507D01*
X359953432Y-116485754D01*
X359817675Y-116813500D01*
X359798823Y-116859013D01*
X359574366Y-117194936D01*
X359288686Y-117480616D01*
X358952763Y-117705073D01*
X358952762Y-117705074D01*
X358952761Y-117705074D01*
X358579504Y-117859682D01*
X358183257Y-117938500D01*
X357779243Y-117938500D01*
X357382996Y-117859682D01*
X357009739Y-117705074D01*
X357009738Y-117705074D01*
X357009737Y-117705073D01*
X356673814Y-117480616D01*
X356388134Y-117194936D01*
X356163677Y-116859013D01*
X356144825Y-116813500D01*
X356009068Y-116485754D01*
X355930250Y-116089507D01*
X355930250Y-115685493D01*
X356009068Y-115289246D01*
X356163676Y-114915989D01*
X356234631Y-114809798D01*
X356388134Y-114580064D01*
X356673814Y-114294384D01*
X357009737Y-114069927D01*
X357009739Y-114069926D01*
X357382996Y-113915318D01*
X357779243Y-113836500D01*
X358183257Y-113836500D01*
X358579504Y-113915318D01*
X358579504Y-113915318D01*
G37*
G36*
X344281354Y-114997085D02*
G01*
X344449876Y-115066889D01*
X344601541Y-115168228D01*
X344730522Y-115297209D01*
X344831861Y-115448874D01*
X344901665Y-115617396D01*
X344937250Y-115796297D01*
X344937250Y-115978703D01*
X344901665Y-116157604D01*
X344831861Y-116326126D01*
X344730522Y-116477791D01*
X344601541Y-116606772D01*
X344449876Y-116708111D01*
X344281354Y-116777915D01*
X344102453Y-116813500D01*
X343920047Y-116813500D01*
X343741146Y-116777915D01*
X343572624Y-116708111D01*
X343420959Y-116606772D01*
X343291978Y-116477791D01*
X343190639Y-116326126D01*
X343120835Y-116157604D01*
X343085250Y-115978703D01*
X343085250Y-115796297D01*
X343120835Y-115617396D01*
X343190639Y-115448874D01*
X343291978Y-115297209D01*
X343420959Y-115168228D01*
X343572624Y-115066889D01*
X343741146Y-114997085D01*
X343920047Y-114961500D01*
X344102453Y-114961500D01*
X344281354Y-114997085D01*
X344281354Y-114997085D01*
G37*
G36*
X382381354Y-114997085D02*
G01*
X382549876Y-115066889D01*
X382701541Y-115168228D01*
X382830522Y-115297209D01*
X382931861Y-115448874D01*
X383001665Y-115617396D01*
X383037250Y-115796297D01*
X383037250Y-115978703D01*
X383001665Y-116157604D01*
X382931861Y-116326126D01*
X382830522Y-116477791D01*
X382701541Y-116606772D01*
X382549876Y-116708111D01*
X382381354Y-116777915D01*
X382202453Y-116813500D01*
X382020047Y-116813500D01*
X381841146Y-116777915D01*
X381672624Y-116708111D01*
X381520959Y-116606772D01*
X381391978Y-116477791D01*
X381290639Y-116326126D01*
X381220835Y-116157604D01*
X381185250Y-115978703D01*
X381185250Y-115796297D01*
X381220835Y-115617396D01*
X381290639Y-115448874D01*
X381391978Y-115297209D01*
X381520959Y-115168228D01*
X381672624Y-115066889D01*
X381841146Y-114997085D01*
X382020047Y-114961500D01*
X382202453Y-114961500D01*
X382381354Y-114997085D01*
X382381354Y-114997085D01*
G37*
G36*
X353171354Y-114997085D02*
G01*
X353339876Y-115066889D01*
X353491541Y-115168228D01*
X353620522Y-115297209D01*
X353721861Y-115448874D01*
X353791665Y-115617396D01*
X353827250Y-115796297D01*
X353827250Y-115978703D01*
X353791665Y-116157604D01*
X353721861Y-116326126D01*
X353620522Y-116477791D01*
X353491541Y-116606772D01*
X353339876Y-116708111D01*
X353171354Y-116777915D01*
X352992453Y-116813500D01*
X352810047Y-116813500D01*
X352631146Y-116777915D01*
X352462624Y-116708111D01*
X352310959Y-116606772D01*
X352181978Y-116477791D01*
X352080639Y-116326126D01*
X352010835Y-116157604D01*
X351975250Y-115978703D01*
X351975250Y-115796297D01*
X352010835Y-115617396D01*
X352080639Y-115448874D01*
X352181978Y-115297209D01*
X352310959Y-115168228D01*
X352462624Y-115066889D01*
X352631146Y-114997085D01*
X352810047Y-114961500D01*
X352992453Y-114961500D01*
X353171354Y-114997085D01*
X353171354Y-114997085D01*
G37*
G36*
X372221354Y-114997085D02*
G01*
X372389876Y-115066889D01*
X372541541Y-115168228D01*
X372670522Y-115297209D01*
X372771861Y-115448874D01*
X372841665Y-115617396D01*
X372877250Y-115796297D01*
X372877250Y-115978703D01*
X372841665Y-116157604D01*
X372771861Y-116326126D01*
X372670522Y-116477791D01*
X372541541Y-116606772D01*
X372389876Y-116708111D01*
X372221354Y-116777915D01*
X372042453Y-116813500D01*
X371860047Y-116813500D01*
X371681146Y-116777915D01*
X371512624Y-116708111D01*
X371360959Y-116606772D01*
X371231978Y-116477791D01*
X371130639Y-116326126D01*
X371060835Y-116157604D01*
X371025250Y-115978703D01*
X371025250Y-115796297D01*
X371060835Y-115617396D01*
X371130639Y-115448874D01*
X371231978Y-115297209D01*
X371360959Y-115168228D01*
X371512624Y-115066889D01*
X371681146Y-114997085D01*
X371860047Y-114961500D01*
X372042453Y-114961500D01*
X372221354Y-114997085D01*
X372221354Y-114997085D01*
G37*
G36*
X363331354Y-114997085D02*
G01*
X363499876Y-115066889D01*
X363651541Y-115168228D01*
X363780522Y-115297209D01*
X363881861Y-115448874D01*
X363951665Y-115617396D01*
X363987250Y-115796297D01*
X363987250Y-115978703D01*
X363951665Y-116157604D01*
X363881861Y-116326126D01*
X363780522Y-116477791D01*
X363651541Y-116606772D01*
X363499876Y-116708111D01*
X363331354Y-116777915D01*
X363152453Y-116813500D01*
X362970047Y-116813500D01*
X362791146Y-116777915D01*
X362622624Y-116708111D01*
X362470959Y-116606772D01*
X362341978Y-116477791D01*
X362240639Y-116326126D01*
X362170835Y-116157604D01*
X362135250Y-115978703D01*
X362135250Y-115796297D01*
X362170835Y-115617396D01*
X362240639Y-115448874D01*
X362341978Y-115297209D01*
X362470959Y-115168228D01*
X362622624Y-115066889D01*
X362791146Y-114997085D01*
X362970047Y-114961500D01*
X363152453Y-114961500D01*
X363331354Y-114997085D01*
X363331354Y-114997085D01*
G37*
G36*
X334121354Y-114997085D02*
G01*
X334289876Y-115066889D01*
X334441541Y-115168228D01*
X334570522Y-115297209D01*
X334671861Y-115448874D01*
X334741665Y-115617396D01*
X334777250Y-115796297D01*
X334777250Y-115978703D01*
X334741665Y-116157604D01*
X334671861Y-116326126D01*
X334570522Y-116477791D01*
X334441541Y-116606772D01*
X334289876Y-116708111D01*
X334121354Y-116777915D01*
X333942453Y-116813500D01*
X333760047Y-116813500D01*
X333581146Y-116777915D01*
X333412624Y-116708111D01*
X333260959Y-116606772D01*
X333131978Y-116477791D01*
X333030639Y-116326126D01*
X332960835Y-116157604D01*
X332925250Y-115978703D01*
X332925250Y-115796297D01*
X332960835Y-115617396D01*
X333030639Y-115448874D01*
X333131978Y-115297209D01*
X333260959Y-115168228D01*
X333412624Y-115066889D01*
X333581146Y-114997085D01*
X333760047Y-114961500D01*
X333942453Y-114961500D01*
X334121354Y-114997085D01*
X334121354Y-114997085D01*
G37*
G36*
X404932724Y-111539934D02*
G01*
X405150724Y-111630233D01*
X405304873Y-111694083D01*
X405639798Y-111917873D01*
X405924627Y-112202702D01*
X406148417Y-112537627D01*
X406148417Y-112537628D01*
X406302566Y-112909776D01*
X406381150Y-113304844D01*
X406381150Y-113707656D01*
X406302566Y-114102724D01*
X406258664Y-114208712D01*
X406148417Y-114474873D01*
X405924627Y-114809798D01*
X405639798Y-115094627D01*
X405304873Y-115318417D01*
X405150724Y-115382267D01*
X404932724Y-115472566D01*
X404537656Y-115551150D01*
X404134844Y-115551150D01*
X403739776Y-115472566D01*
X403521776Y-115382267D01*
X403367627Y-115318417D01*
X403032702Y-115094627D01*
X402747873Y-114809798D01*
X402524083Y-114474873D01*
X402413836Y-114208712D01*
X402369934Y-114102724D01*
X402291350Y-113707656D01*
X402291350Y-113304844D01*
X402369934Y-112909776D01*
X402524083Y-112537628D01*
X402524083Y-112537627D01*
X402747873Y-112202702D01*
X403032702Y-111917873D01*
X403367627Y-111694083D01*
X403521776Y-111630233D01*
X403739776Y-111539934D01*
X404134844Y-111461350D01*
X404537656Y-111461350D01*
X404932724Y-111539934D01*
X404932724Y-111539934D01*
G37*
G36*
X389403517Y-111961513D02*
G01*
X389555661Y-111991776D01*
X389674387Y-112040954D01*
X389842291Y-112110502D01*
X389842292Y-112110503D01*
X390100254Y-112282867D01*
X390319633Y-112502246D01*
X390343274Y-112537628D01*
X390491998Y-112760209D01*
X390553950Y-112909775D01*
X390610724Y-113046839D01*
X390671250Y-113351126D01*
X390671250Y-113661374D01*
X390620738Y-113915319D01*
X390610724Y-113965660D01*
X390491998Y-114252291D01*
X390491997Y-114252292D01*
X390319633Y-114510254D01*
X390100254Y-114729633D01*
X389980278Y-114809798D01*
X389842291Y-114901998D01*
X389698640Y-114961500D01*
X389555661Y-115020724D01*
X389251375Y-115081250D01*
X388941125Y-115081250D01*
X388636839Y-115020724D01*
X388493860Y-114961500D01*
X388350209Y-114901998D01*
X388212222Y-114809798D01*
X388092246Y-114729633D01*
X387872867Y-114510254D01*
X387700503Y-114252292D01*
X387700502Y-114252291D01*
X387581776Y-113965660D01*
X387571763Y-113915319D01*
X387521250Y-113661374D01*
X387521250Y-113351126D01*
X387581776Y-113046839D01*
X387638550Y-112909775D01*
X387700502Y-112760209D01*
X387849226Y-112537628D01*
X387872867Y-112502246D01*
X388092246Y-112282867D01*
X388350208Y-112110503D01*
X388350209Y-112110502D01*
X388518113Y-112040954D01*
X388636839Y-111991776D01*
X388788983Y-111961513D01*
X388941125Y-111931250D01*
X389251375Y-111931250D01*
X389403517Y-111961513D01*
X389403517Y-111961513D01*
G37*
G36*
X373615322Y-112048418D02*
G01*
X373861189Y-112150259D01*
X373873522Y-112158500D01*
X374082461Y-112298109D01*
X374270641Y-112486289D01*
X374418492Y-112707563D01*
X374520332Y-112953428D01*
X374572250Y-113214437D01*
X374572250Y-113480563D01*
X374527078Y-113707656D01*
X374520332Y-113741572D01*
X374418491Y-113987439D01*
X374270640Y-114208712D01*
X374082462Y-114396890D01*
X373861189Y-114544741D01*
X373861188Y-114544742D01*
X373861187Y-114544742D01*
X373615322Y-114646582D01*
X373354313Y-114698500D01*
X373088187Y-114698500D01*
X372827178Y-114646582D01*
X372581313Y-114544742D01*
X372581312Y-114544742D01*
X372581311Y-114544741D01*
X372360038Y-114396890D01*
X372171860Y-114208712D01*
X372024009Y-113987439D01*
X371922168Y-113741572D01*
X371915422Y-113707656D01*
X371870250Y-113480563D01*
X371870250Y-113214437D01*
X371922168Y-112953428D01*
X372024008Y-112707563D01*
X372171859Y-112486289D01*
X372360039Y-112298109D01*
X372568978Y-112158500D01*
X372581311Y-112150259D01*
X372827178Y-112048418D01*
X373088187Y-111996500D01*
X373354313Y-111996500D01*
X373615322Y-112048418D01*
X373615322Y-112048418D01*
G37*
G36*
X354565322Y-112048418D02*
G01*
X354811189Y-112150259D01*
X354823522Y-112158500D01*
X355032461Y-112298109D01*
X355220641Y-112486289D01*
X355368492Y-112707563D01*
X355470332Y-112953428D01*
X355522250Y-113214437D01*
X355522250Y-113480563D01*
X355477078Y-113707656D01*
X355470332Y-113741572D01*
X355368491Y-113987439D01*
X355220640Y-114208712D01*
X355032462Y-114396890D01*
X354811189Y-114544741D01*
X354811188Y-114544742D01*
X354811187Y-114544742D01*
X354565322Y-114646582D01*
X354304313Y-114698500D01*
X354038187Y-114698500D01*
X353777178Y-114646582D01*
X353531313Y-114544742D01*
X353531312Y-114544742D01*
X353531311Y-114544741D01*
X353310038Y-114396890D01*
X353121860Y-114208712D01*
X352974009Y-113987439D01*
X352872168Y-113741572D01*
X352865422Y-113707656D01*
X352820250Y-113480563D01*
X352820250Y-113214437D01*
X352872168Y-112953428D01*
X352974008Y-112707563D01*
X353121859Y-112486289D01*
X353310039Y-112298109D01*
X353518978Y-112158500D01*
X353531311Y-112150259D01*
X353777178Y-112048418D01*
X354038187Y-111996500D01*
X354304313Y-111996500D01*
X354565322Y-112048418D01*
X354565322Y-112048418D01*
G37*
G36*
X335515322Y-112048418D02*
G01*
X335761189Y-112150259D01*
X335773522Y-112158500D01*
X335982461Y-112298109D01*
X336170641Y-112486289D01*
X336318492Y-112707563D01*
X336420332Y-112953428D01*
X336472250Y-113214437D01*
X336472250Y-113480563D01*
X336427078Y-113707656D01*
X336420332Y-113741572D01*
X336318491Y-113987439D01*
X336170640Y-114208712D01*
X335982462Y-114396890D01*
X335761189Y-114544741D01*
X335761188Y-114544742D01*
X335761187Y-114544742D01*
X335515322Y-114646582D01*
X335254313Y-114698500D01*
X334988187Y-114698500D01*
X334727178Y-114646582D01*
X334481313Y-114544742D01*
X334481312Y-114544742D01*
X334481311Y-114544741D01*
X334260038Y-114396890D01*
X334071860Y-114208712D01*
X333924009Y-113987439D01*
X333822168Y-113741572D01*
X333815422Y-113707656D01*
X333770250Y-113480563D01*
X333770250Y-113214437D01*
X333822168Y-112953428D01*
X333924008Y-112707563D01*
X334071859Y-112486289D01*
X334260039Y-112298109D01*
X334468978Y-112158500D01*
X334481311Y-112150259D01*
X334727178Y-112048418D01*
X334988187Y-111996500D01*
X335254313Y-111996500D01*
X335515322Y-112048418D01*
X335515322Y-112048418D01*
G37*
G36*
X360915322Y-109508418D02*
G01*
X361161189Y-109610259D01*
X361382462Y-109758110D01*
X361570640Y-109946288D01*
X361718491Y-110167561D01*
X361820332Y-110413428D01*
X361872250Y-110674438D01*
X361872250Y-110940562D01*
X361820332Y-111201572D01*
X361718491Y-111447439D01*
X361570640Y-111668712D01*
X361382462Y-111856890D01*
X361161189Y-112004741D01*
X361161188Y-112004742D01*
X361161187Y-112004742D01*
X360915322Y-112106582D01*
X360654313Y-112158500D01*
X360388187Y-112158500D01*
X360127178Y-112106582D01*
X359881313Y-112004742D01*
X359881312Y-112004742D01*
X359881311Y-112004741D01*
X359660038Y-111856890D01*
X359471860Y-111668712D01*
X359324009Y-111447439D01*
X359222168Y-111201572D01*
X359170250Y-110940562D01*
X359170250Y-110674438D01*
X359222168Y-110413428D01*
X359324009Y-110167561D01*
X359471860Y-109946288D01*
X359660038Y-109758110D01*
X359881311Y-109610259D01*
X360127178Y-109508418D01*
X360388187Y-109456500D01*
X360654313Y-109456500D01*
X360915322Y-109508418D01*
X360915322Y-109508418D01*
G37*
G36*
X341865322Y-109508418D02*
G01*
X342111189Y-109610259D01*
X342332462Y-109758110D01*
X342520640Y-109946288D01*
X342668491Y-110167561D01*
X342770332Y-110413428D01*
X342822250Y-110674438D01*
X342822250Y-110940562D01*
X342770332Y-111201572D01*
X342668491Y-111447439D01*
X342520640Y-111668712D01*
X342332462Y-111856890D01*
X342111189Y-112004741D01*
X342111188Y-112004742D01*
X342111187Y-112004742D01*
X341865322Y-112106582D01*
X341604313Y-112158500D01*
X341338187Y-112158500D01*
X341077178Y-112106582D01*
X340831313Y-112004742D01*
X340831312Y-112004742D01*
X340831311Y-112004741D01*
X340610038Y-111856890D01*
X340421860Y-111668712D01*
X340274009Y-111447439D01*
X340172168Y-111201572D01*
X340120250Y-110940562D01*
X340120250Y-110674438D01*
X340172168Y-110413428D01*
X340274009Y-110167561D01*
X340421860Y-109946288D01*
X340610038Y-109758110D01*
X340831311Y-109610259D01*
X341077178Y-109508418D01*
X341338187Y-109456500D01*
X341604313Y-109456500D01*
X341865322Y-109508418D01*
X341865322Y-109508418D01*
G37*
G36*
X379965322Y-109508418D02*
G01*
X380211189Y-109610259D01*
X380432462Y-109758110D01*
X380620640Y-109946288D01*
X380768491Y-110167561D01*
X380870332Y-110413428D01*
X380922250Y-110674438D01*
X380922250Y-110940562D01*
X380870332Y-111201572D01*
X380768491Y-111447439D01*
X380620640Y-111668712D01*
X380432462Y-111856890D01*
X380211189Y-112004741D01*
X380211188Y-112004742D01*
X380211187Y-112004742D01*
X379965322Y-112106582D01*
X379704313Y-112158500D01*
X379438187Y-112158500D01*
X379177178Y-112106582D01*
X378931313Y-112004742D01*
X378931312Y-112004742D01*
X378931311Y-112004741D01*
X378710038Y-111856890D01*
X378521860Y-111668712D01*
X378374009Y-111447439D01*
X378272168Y-111201572D01*
X378220250Y-110940562D01*
X378220250Y-110674438D01*
X378272168Y-110413428D01*
X378374009Y-110167561D01*
X378521860Y-109946288D01*
X378710038Y-109758110D01*
X378931311Y-109610259D01*
X379177178Y-109508418D01*
X379438187Y-109456500D01*
X379704313Y-109456500D01*
X379965322Y-109508418D01*
X379965322Y-109508418D01*
G37*
G36*
X373546823Y-103936313D02*
G01*
X373707242Y-103984976D01*
X373839906Y-104055886D01*
X373855078Y-104063996D01*
X373984659Y-104170341D01*
X374091004Y-104299922D01*
X374091005Y-104299924D01*
X374170024Y-104447758D01*
X374218687Y-104608177D01*
X374235117Y-104775000D01*
X374218687Y-104941823D01*
X374170024Y-105102242D01*
X374099114Y-105234906D01*
X374091004Y-105250078D01*
X373984659Y-105379659D01*
X373855078Y-105486004D01*
X373855076Y-105486005D01*
X373707242Y-105565024D01*
X373546823Y-105613687D01*
X373421804Y-105626000D01*
X373338196Y-105626000D01*
X373213177Y-105613687D01*
X373052758Y-105565024D01*
X372904924Y-105486005D01*
X372904922Y-105486004D01*
X372775341Y-105379659D01*
X372668996Y-105250078D01*
X372660886Y-105234906D01*
X372589976Y-105102242D01*
X372541313Y-104941823D01*
X372524883Y-104775000D01*
X372541313Y-104608177D01*
X372589976Y-104447758D01*
X372668995Y-104299924D01*
X372668996Y-104299922D01*
X372775341Y-104170341D01*
X372904922Y-104063996D01*
X372920094Y-104055886D01*
X373052758Y-103984976D01*
X373213177Y-103936313D01*
X373338196Y-103924000D01*
X373421804Y-103924000D01*
X373546823Y-103936313D01*
X373546823Y-103936313D01*
G37*
G36*
X343751000Y-105626000D02*
G01*
X342049000Y-105626000D01*
X342049000Y-103924000D01*
X343751000Y-103924000D01*
X343751000Y-105626000D01*
X343751000Y-105626000D01*
G37*
G36*
X381851000Y-105626000D02*
G01*
X380149000Y-105626000D01*
X380149000Y-103924000D01*
X381851000Y-103924000D01*
X381851000Y-105626000D01*
X381851000Y-105626000D01*
G37*
G36*
X362801000Y-105626000D02*
G01*
X361099000Y-105626000D01*
X361099000Y-103924000D01*
X362801000Y-103924000D01*
X362801000Y-105626000D01*
X362801000Y-105626000D01*
G37*
G36*
X354496823Y-103936313D02*
G01*
X354657242Y-103984976D01*
X354789906Y-104055886D01*
X354805078Y-104063996D01*
X354934659Y-104170341D01*
X355041004Y-104299922D01*
X355041005Y-104299924D01*
X355120024Y-104447758D01*
X355168687Y-104608177D01*
X355185117Y-104775000D01*
X355168687Y-104941823D01*
X355120024Y-105102242D01*
X355049114Y-105234906D01*
X355041004Y-105250078D01*
X354934659Y-105379659D01*
X354805078Y-105486004D01*
X354805076Y-105486005D01*
X354657242Y-105565024D01*
X354496823Y-105613687D01*
X354371804Y-105626000D01*
X354288196Y-105626000D01*
X354163177Y-105613687D01*
X354002758Y-105565024D01*
X353854924Y-105486005D01*
X353854922Y-105486004D01*
X353725341Y-105379659D01*
X353618996Y-105250078D01*
X353610886Y-105234906D01*
X353539976Y-105102242D01*
X353491313Y-104941823D01*
X353474883Y-104775000D01*
X353491313Y-104608177D01*
X353539976Y-104447758D01*
X353618995Y-104299924D01*
X353618996Y-104299922D01*
X353725341Y-104170341D01*
X353854922Y-104063996D01*
X353870094Y-104055886D01*
X354002758Y-103984976D01*
X354163177Y-103936313D01*
X354288196Y-103924000D01*
X354371804Y-103924000D01*
X354496823Y-103936313D01*
X354496823Y-103936313D01*
G37*
G36*
X335446823Y-103936313D02*
G01*
X335607242Y-103984976D01*
X335739906Y-104055886D01*
X335755078Y-104063996D01*
X335884659Y-104170341D01*
X335991004Y-104299922D01*
X335991005Y-104299924D01*
X336070024Y-104447758D01*
X336118687Y-104608177D01*
X336135117Y-104775000D01*
X336118687Y-104941823D01*
X336070024Y-105102242D01*
X335999114Y-105234906D01*
X335991004Y-105250078D01*
X335884659Y-105379659D01*
X335755078Y-105486004D01*
X335755076Y-105486005D01*
X335607242Y-105565024D01*
X335446823Y-105613687D01*
X335321804Y-105626000D01*
X335238196Y-105626000D01*
X335113177Y-105613687D01*
X334952758Y-105565024D01*
X334804924Y-105486005D01*
X334804922Y-105486004D01*
X334675341Y-105379659D01*
X334568996Y-105250078D01*
X334560886Y-105234906D01*
X334489976Y-105102242D01*
X334441313Y-104941823D01*
X334424883Y-104775000D01*
X334441313Y-104608177D01*
X334489976Y-104447758D01*
X334568995Y-104299924D01*
X334568996Y-104299922D01*
X334675341Y-104170341D01*
X334804922Y-104063996D01*
X334820094Y-104055886D01*
X334952758Y-103984976D01*
X335113177Y-103936313D01*
X335238196Y-103924000D01*
X335321804Y-103924000D01*
X335446823Y-103936313D01*
X335446823Y-103936313D01*
G37*
G36*
X336765610Y-100614497D02*
G01*
X336785322Y-100618418D01*
X337031189Y-100720259D01*
X337252462Y-100868110D01*
X337440640Y-101056288D01*
X337588491Y-101277561D01*
X337690332Y-101523428D01*
X337742250Y-101784438D01*
X337742250Y-102050562D01*
X337690332Y-102311572D01*
X337588491Y-102557439D01*
X337440640Y-102778712D01*
X337252462Y-102966890D01*
X337031189Y-103114741D01*
X337031188Y-103114742D01*
X337031187Y-103114742D01*
X336785322Y-103216582D01*
X336524313Y-103268500D01*
X336258187Y-103268500D01*
X335997178Y-103216582D01*
X335751313Y-103114742D01*
X335751312Y-103114742D01*
X335751311Y-103114741D01*
X335530038Y-102966890D01*
X335341860Y-102778712D01*
X335194009Y-102557439D01*
X335092168Y-102311572D01*
X335040250Y-102050562D01*
X335040250Y-101784438D01*
X335092168Y-101523428D01*
X335194009Y-101277561D01*
X335341860Y-101056288D01*
X335530038Y-100868110D01*
X335751311Y-100720259D01*
X335997178Y-100618418D01*
X336016890Y-100614497D01*
X336258187Y-100566500D01*
X336524313Y-100566500D01*
X336765610Y-100614497D01*
X336765610Y-100614497D01*
G37*
G36*
X374865610Y-100614497D02*
G01*
X374885322Y-100618418D01*
X375131189Y-100720259D01*
X375352462Y-100868110D01*
X375540640Y-101056288D01*
X375688491Y-101277561D01*
X375790332Y-101523428D01*
X375842250Y-101784438D01*
X375842250Y-102050562D01*
X375790332Y-102311572D01*
X375688491Y-102557439D01*
X375540640Y-102778712D01*
X375352462Y-102966890D01*
X375131189Y-103114741D01*
X375131188Y-103114742D01*
X375131187Y-103114742D01*
X374885322Y-103216582D01*
X374624313Y-103268500D01*
X374358187Y-103268500D01*
X374097178Y-103216582D01*
X373851313Y-103114742D01*
X373851312Y-103114742D01*
X373851311Y-103114741D01*
X373630038Y-102966890D01*
X373441860Y-102778712D01*
X373294009Y-102557439D01*
X373192168Y-102311572D01*
X373140250Y-102050562D01*
X373140250Y-101784438D01*
X373192168Y-101523428D01*
X373294009Y-101277561D01*
X373441860Y-101056288D01*
X373630038Y-100868110D01*
X373851311Y-100720259D01*
X374097178Y-100618418D01*
X374116890Y-100614497D01*
X374358187Y-100566500D01*
X374624313Y-100566500D01*
X374865610Y-100614497D01*
X374865610Y-100614497D01*
G37*
G36*
X355815610Y-100614497D02*
G01*
X355835322Y-100618418D01*
X356081189Y-100720259D01*
X356302462Y-100868110D01*
X356490640Y-101056288D01*
X356638491Y-101277561D01*
X356740332Y-101523428D01*
X356792250Y-101784438D01*
X356792250Y-102050562D01*
X356740332Y-102311572D01*
X356638491Y-102557439D01*
X356490640Y-102778712D01*
X356302462Y-102966890D01*
X356081189Y-103114741D01*
X356081188Y-103114742D01*
X356081187Y-103114742D01*
X355835322Y-103216582D01*
X355574313Y-103268500D01*
X355308187Y-103268500D01*
X355047178Y-103216582D01*
X354801313Y-103114742D01*
X354801312Y-103114742D01*
X354801311Y-103114741D01*
X354580038Y-102966890D01*
X354391860Y-102778712D01*
X354244009Y-102557439D01*
X354142168Y-102311572D01*
X354090250Y-102050562D01*
X354090250Y-101784438D01*
X354142168Y-101523428D01*
X354244009Y-101277561D01*
X354391860Y-101056288D01*
X354580038Y-100868110D01*
X354801311Y-100720259D01*
X355047178Y-100618418D01*
X355066890Y-100614497D01*
X355308187Y-100566500D01*
X355574313Y-100566500D01*
X355815610Y-100614497D01*
X355815610Y-100614497D01*
G37*
G36*
X404932724Y-97252434D02*
G01*
X405150724Y-97342733D01*
X405304873Y-97406583D01*
X405639798Y-97630373D01*
X405924627Y-97915202D01*
X406148417Y-98250127D01*
X406148417Y-98250128D01*
X406302566Y-98622276D01*
X406381150Y-99017344D01*
X406381150Y-99420156D01*
X406302566Y-99815224D01*
X406240613Y-99964791D01*
X406148417Y-100187373D01*
X405924627Y-100522298D01*
X405639798Y-100807127D01*
X405304873Y-101030917D01*
X405243619Y-101056289D01*
X404932724Y-101185066D01*
X404537656Y-101263650D01*
X404134844Y-101263650D01*
X403739776Y-101185066D01*
X403428881Y-101056289D01*
X403367627Y-101030917D01*
X403032702Y-100807127D01*
X402747873Y-100522298D01*
X402524083Y-100187373D01*
X402431887Y-99964791D01*
X402369934Y-99815224D01*
X402291350Y-99420156D01*
X402291350Y-99017344D01*
X402369934Y-98622276D01*
X402524083Y-98250128D01*
X402524083Y-98250127D01*
X402747873Y-97915202D01*
X403032702Y-97630373D01*
X403367627Y-97406583D01*
X403521776Y-97342733D01*
X403739776Y-97252434D01*
X404134844Y-97173850D01*
X404537656Y-97173850D01*
X404932724Y-97252434D01*
X404932724Y-97252434D01*
G37*
G36*
X389555661Y-97704276D02*
G01*
X389674387Y-97753454D01*
X389842291Y-97823002D01*
X389842292Y-97823003D01*
X390100254Y-97995367D01*
X390319633Y-98214746D01*
X390343274Y-98250128D01*
X390491998Y-98472709D01*
X390510049Y-98516288D01*
X390610724Y-98759339D01*
X390620738Y-98809682D01*
X390671250Y-99063625D01*
X390671250Y-99373875D01*
X390610724Y-99678160D01*
X390491998Y-99964791D01*
X390491997Y-99964792D01*
X390319633Y-100222754D01*
X390100254Y-100442133D01*
X389980278Y-100522298D01*
X389842291Y-100614498D01*
X389692406Y-100676582D01*
X389555661Y-100733224D01*
X389403517Y-100763487D01*
X389251375Y-100793750D01*
X388941125Y-100793750D01*
X388788983Y-100763487D01*
X388636839Y-100733224D01*
X388500094Y-100676582D01*
X388350209Y-100614498D01*
X388212222Y-100522298D01*
X388092246Y-100442133D01*
X387872867Y-100222754D01*
X387700503Y-99964792D01*
X387700502Y-99964791D01*
X387581776Y-99678160D01*
X387521250Y-99373875D01*
X387521250Y-99063625D01*
X387571762Y-98809682D01*
X387581776Y-98759339D01*
X387682451Y-98516288D01*
X387700502Y-98472709D01*
X387849226Y-98250128D01*
X387872867Y-98214746D01*
X388092246Y-97995367D01*
X388350208Y-97823003D01*
X388350209Y-97823002D01*
X388518113Y-97753454D01*
X388636839Y-97704276D01*
X388941125Y-97643750D01*
X389251375Y-97643750D01*
X389555661Y-97704276D01*
X389555661Y-97704276D01*
G37*
G36*
X343135322Y-98078418D02*
G01*
X343295912Y-98144936D01*
X343381189Y-98180259D01*
X343602462Y-98328110D01*
X343790640Y-98516288D01*
X343883375Y-98655074D01*
X343938492Y-98737563D01*
X344040332Y-98983428D01*
X344092250Y-99244437D01*
X344092250Y-99510563D01*
X344040332Y-99771572D01*
X343938492Y-100017437D01*
X343790641Y-100238711D01*
X343602461Y-100426891D01*
X343492578Y-100500313D01*
X343381189Y-100574741D01*
X343381188Y-100574742D01*
X343381187Y-100574742D01*
X343135322Y-100676582D01*
X342874313Y-100728500D01*
X342608187Y-100728500D01*
X342347178Y-100676582D01*
X342101313Y-100574742D01*
X342101312Y-100574742D01*
X342101311Y-100574741D01*
X341989922Y-100500313D01*
X341880039Y-100426891D01*
X341691859Y-100238711D01*
X341544008Y-100017437D01*
X341442168Y-99771572D01*
X341390250Y-99510563D01*
X341390250Y-99244437D01*
X341442168Y-98983428D01*
X341544008Y-98737563D01*
X341599126Y-98655074D01*
X341691860Y-98516288D01*
X341880038Y-98328110D01*
X342101311Y-98180259D01*
X342186589Y-98144936D01*
X342347178Y-98078418D01*
X342608187Y-98026500D01*
X342874313Y-98026500D01*
X343135322Y-98078418D01*
X343135322Y-98078418D01*
G37*
G36*
X362185322Y-98078418D02*
G01*
X362345912Y-98144936D01*
X362431189Y-98180259D01*
X362652462Y-98328110D01*
X362840640Y-98516288D01*
X362933375Y-98655074D01*
X362988492Y-98737563D01*
X363090332Y-98983428D01*
X363142250Y-99244437D01*
X363142250Y-99510563D01*
X363090332Y-99771572D01*
X362988492Y-100017437D01*
X362840641Y-100238711D01*
X362652461Y-100426891D01*
X362542578Y-100500313D01*
X362431189Y-100574741D01*
X362431188Y-100574742D01*
X362431187Y-100574742D01*
X362185322Y-100676582D01*
X361924313Y-100728500D01*
X361658187Y-100728500D01*
X361397178Y-100676582D01*
X361151313Y-100574742D01*
X361151312Y-100574742D01*
X361151311Y-100574741D01*
X361039922Y-100500313D01*
X360930039Y-100426891D01*
X360741859Y-100238711D01*
X360594008Y-100017437D01*
X360492168Y-99771572D01*
X360440250Y-99510563D01*
X360440250Y-99244437D01*
X360492168Y-98983428D01*
X360594008Y-98737563D01*
X360649126Y-98655074D01*
X360741860Y-98516288D01*
X360930038Y-98328110D01*
X361151311Y-98180259D01*
X361236589Y-98144936D01*
X361397178Y-98078418D01*
X361658187Y-98026500D01*
X361924313Y-98026500D01*
X362185322Y-98078418D01*
X362185322Y-98078418D01*
G37*
G36*
X381235322Y-98078418D02*
G01*
X381395912Y-98144936D01*
X381481189Y-98180259D01*
X381702462Y-98328110D01*
X381890640Y-98516288D01*
X381983375Y-98655074D01*
X382038492Y-98737563D01*
X382140332Y-98983428D01*
X382192250Y-99244437D01*
X382192250Y-99510563D01*
X382140332Y-99771572D01*
X382038492Y-100017437D01*
X381890641Y-100238711D01*
X381702461Y-100426891D01*
X381592578Y-100500313D01*
X381481189Y-100574741D01*
X381481188Y-100574742D01*
X381481187Y-100574742D01*
X381235322Y-100676582D01*
X380974313Y-100728500D01*
X380708187Y-100728500D01*
X380447178Y-100676582D01*
X380201313Y-100574742D01*
X380201312Y-100574742D01*
X380201311Y-100574741D01*
X380089922Y-100500313D01*
X379980039Y-100426891D01*
X379791859Y-100238711D01*
X379644008Y-100017437D01*
X379542168Y-99771572D01*
X379490250Y-99510563D01*
X379490250Y-99244437D01*
X379542168Y-98983428D01*
X379644008Y-98737563D01*
X379699126Y-98655074D01*
X379791860Y-98516288D01*
X379980038Y-98328110D01*
X380201311Y-98180259D01*
X380286589Y-98144936D01*
X380447178Y-98078418D01*
X380708187Y-98026500D01*
X380974313Y-98026500D01*
X381235322Y-98078418D01*
X381235322Y-98078418D01*
G37*
G36*
X339529504Y-94865318D02*
G01*
X339902761Y-95019926D01*
X339902763Y-95019927D01*
X340238686Y-95244384D01*
X340524366Y-95530064D01*
X340603503Y-95648500D01*
X340748824Y-95865989D01*
X340903432Y-96239246D01*
X340982250Y-96635493D01*
X340982250Y-97039507D01*
X340903432Y-97435754D01*
X340767675Y-97763500D01*
X340748823Y-97809013D01*
X340524366Y-98144936D01*
X340238686Y-98430616D01*
X339902763Y-98655073D01*
X339902762Y-98655074D01*
X339902761Y-98655074D01*
X339529504Y-98809682D01*
X339133257Y-98888500D01*
X338729243Y-98888500D01*
X338332996Y-98809682D01*
X337959739Y-98655074D01*
X337959738Y-98655074D01*
X337959737Y-98655073D01*
X337623814Y-98430616D01*
X337338134Y-98144936D01*
X337113677Y-97809013D01*
X337094825Y-97763500D01*
X336959068Y-97435754D01*
X336880250Y-97039507D01*
X336880250Y-96635493D01*
X336959068Y-96239246D01*
X337113676Y-95865989D01*
X337258998Y-95648500D01*
X337338134Y-95530064D01*
X337623814Y-95244384D01*
X337959737Y-95019927D01*
X337959739Y-95019926D01*
X338332996Y-94865318D01*
X338729243Y-94786500D01*
X339133257Y-94786500D01*
X339529504Y-94865318D01*
X339529504Y-94865318D01*
G37*
G36*
X358579504Y-94865318D02*
G01*
X358952761Y-95019926D01*
X358952763Y-95019927D01*
X359288686Y-95244384D01*
X359574366Y-95530064D01*
X359653503Y-95648500D01*
X359798824Y-95865989D01*
X359953432Y-96239246D01*
X360032250Y-96635493D01*
X360032250Y-97039507D01*
X359953432Y-97435754D01*
X359817675Y-97763500D01*
X359798823Y-97809013D01*
X359574366Y-98144936D01*
X359288686Y-98430616D01*
X358952763Y-98655073D01*
X358952762Y-98655074D01*
X358952761Y-98655074D01*
X358579504Y-98809682D01*
X358183257Y-98888500D01*
X357779243Y-98888500D01*
X357382996Y-98809682D01*
X357009739Y-98655074D01*
X357009738Y-98655074D01*
X357009737Y-98655073D01*
X356673814Y-98430616D01*
X356388134Y-98144936D01*
X356163677Y-97809013D01*
X356144825Y-97763500D01*
X356009068Y-97435754D01*
X355930250Y-97039507D01*
X355930250Y-96635493D01*
X356009068Y-96239246D01*
X356163676Y-95865989D01*
X356308998Y-95648500D01*
X356388134Y-95530064D01*
X356673814Y-95244384D01*
X357009737Y-95019927D01*
X357009739Y-95019926D01*
X357382996Y-94865318D01*
X357779243Y-94786500D01*
X358183257Y-94786500D01*
X358579504Y-94865318D01*
X358579504Y-94865318D01*
G37*
G36*
X377629504Y-94865318D02*
G01*
X378002761Y-95019926D01*
X378002763Y-95019927D01*
X378338686Y-95244384D01*
X378624366Y-95530064D01*
X378703503Y-95648500D01*
X378848824Y-95865989D01*
X379003432Y-96239246D01*
X379082250Y-96635493D01*
X379082250Y-97039507D01*
X379003432Y-97435754D01*
X378867675Y-97763500D01*
X378848823Y-97809013D01*
X378624366Y-98144936D01*
X378338686Y-98430616D01*
X378002763Y-98655073D01*
X378002762Y-98655074D01*
X378002761Y-98655074D01*
X377629504Y-98809682D01*
X377233257Y-98888500D01*
X376829243Y-98888500D01*
X376432996Y-98809682D01*
X376059739Y-98655074D01*
X376059738Y-98655074D01*
X376059737Y-98655073D01*
X375723814Y-98430616D01*
X375438134Y-98144936D01*
X375213677Y-97809013D01*
X375194825Y-97763500D01*
X375059068Y-97435754D01*
X374980250Y-97039507D01*
X374980250Y-96635493D01*
X375059068Y-96239246D01*
X375213676Y-95865989D01*
X375358998Y-95648500D01*
X375438134Y-95530064D01*
X375723814Y-95244384D01*
X376059737Y-95019927D01*
X376059739Y-95019926D01*
X376432996Y-94865318D01*
X376829243Y-94786500D01*
X377233257Y-94786500D01*
X377629504Y-94865318D01*
X377629504Y-94865318D01*
G37*
G36*
X363331354Y-95947085D02*
G01*
X363499876Y-96016889D01*
X363651541Y-96118228D01*
X363780522Y-96247209D01*
X363881861Y-96398874D01*
X363951665Y-96567396D01*
X363987250Y-96746297D01*
X363987250Y-96928703D01*
X363951665Y-97107604D01*
X363881861Y-97276126D01*
X363780522Y-97427791D01*
X363651541Y-97556772D01*
X363499876Y-97658111D01*
X363331354Y-97727915D01*
X363152453Y-97763500D01*
X362970047Y-97763500D01*
X362791146Y-97727915D01*
X362622624Y-97658111D01*
X362470959Y-97556772D01*
X362341978Y-97427791D01*
X362240639Y-97276126D01*
X362170835Y-97107604D01*
X362135250Y-96928703D01*
X362135250Y-96746297D01*
X362170835Y-96567396D01*
X362240639Y-96398874D01*
X362341978Y-96247209D01*
X362470959Y-96118228D01*
X362622624Y-96016889D01*
X362791146Y-95947085D01*
X362970047Y-95911500D01*
X363152453Y-95911500D01*
X363331354Y-95947085D01*
X363331354Y-95947085D01*
G37*
G36*
X353171354Y-95947085D02*
G01*
X353339876Y-96016889D01*
X353491541Y-96118228D01*
X353620522Y-96247209D01*
X353721861Y-96398874D01*
X353791665Y-96567396D01*
X353827250Y-96746297D01*
X353827250Y-96928703D01*
X353791665Y-97107604D01*
X353721861Y-97276126D01*
X353620522Y-97427791D01*
X353491541Y-97556772D01*
X353339876Y-97658111D01*
X353171354Y-97727915D01*
X352992453Y-97763500D01*
X352810047Y-97763500D01*
X352631146Y-97727915D01*
X352462624Y-97658111D01*
X352310959Y-97556772D01*
X352181978Y-97427791D01*
X352080639Y-97276126D01*
X352010835Y-97107604D01*
X351975250Y-96928703D01*
X351975250Y-96746297D01*
X352010835Y-96567396D01*
X352080639Y-96398874D01*
X352181978Y-96247209D01*
X352310959Y-96118228D01*
X352462624Y-96016889D01*
X352631146Y-95947085D01*
X352810047Y-95911500D01*
X352992453Y-95911500D01*
X353171354Y-95947085D01*
X353171354Y-95947085D01*
G37*
G36*
X344281354Y-95947085D02*
G01*
X344449876Y-96016889D01*
X344601541Y-96118228D01*
X344730522Y-96247209D01*
X344831861Y-96398874D01*
X344901665Y-96567396D01*
X344937250Y-96746297D01*
X344937250Y-96928703D01*
X344901665Y-97107604D01*
X344831861Y-97276126D01*
X344730522Y-97427791D01*
X344601541Y-97556772D01*
X344449876Y-97658111D01*
X344281354Y-97727915D01*
X344102453Y-97763500D01*
X343920047Y-97763500D01*
X343741146Y-97727915D01*
X343572624Y-97658111D01*
X343420959Y-97556772D01*
X343291978Y-97427791D01*
X343190639Y-97276126D01*
X343120835Y-97107604D01*
X343085250Y-96928703D01*
X343085250Y-96746297D01*
X343120835Y-96567396D01*
X343190639Y-96398874D01*
X343291978Y-96247209D01*
X343420959Y-96118228D01*
X343572624Y-96016889D01*
X343741146Y-95947085D01*
X343920047Y-95911500D01*
X344102453Y-95911500D01*
X344281354Y-95947085D01*
X344281354Y-95947085D01*
G37*
G36*
X334121354Y-95947085D02*
G01*
X334289876Y-96016889D01*
X334441541Y-96118228D01*
X334570522Y-96247209D01*
X334671861Y-96398874D01*
X334741665Y-96567396D01*
X334777250Y-96746297D01*
X334777250Y-96928703D01*
X334741665Y-97107604D01*
X334671861Y-97276126D01*
X334570522Y-97427791D01*
X334441541Y-97556772D01*
X334289876Y-97658111D01*
X334121354Y-97727915D01*
X333942453Y-97763500D01*
X333760047Y-97763500D01*
X333581146Y-97727915D01*
X333412624Y-97658111D01*
X333260959Y-97556772D01*
X333131978Y-97427791D01*
X333030639Y-97276126D01*
X332960835Y-97107604D01*
X332925250Y-96928703D01*
X332925250Y-96746297D01*
X332960835Y-96567396D01*
X333030639Y-96398874D01*
X333131978Y-96247209D01*
X333260959Y-96118228D01*
X333412624Y-96016889D01*
X333581146Y-95947085D01*
X333760047Y-95911500D01*
X333942453Y-95911500D01*
X334121354Y-95947085D01*
X334121354Y-95947085D01*
G37*
G36*
X372221354Y-95947085D02*
G01*
X372389876Y-96016889D01*
X372541541Y-96118228D01*
X372670522Y-96247209D01*
X372771861Y-96398874D01*
X372841665Y-96567396D01*
X372877250Y-96746297D01*
X372877250Y-96928703D01*
X372841665Y-97107604D01*
X372771861Y-97276126D01*
X372670522Y-97427791D01*
X372541541Y-97556772D01*
X372389876Y-97658111D01*
X372221354Y-97727915D01*
X372042453Y-97763500D01*
X371860047Y-97763500D01*
X371681146Y-97727915D01*
X371512624Y-97658111D01*
X371360959Y-97556772D01*
X371231978Y-97427791D01*
X371130639Y-97276126D01*
X371060835Y-97107604D01*
X371025250Y-96928703D01*
X371025250Y-96746297D01*
X371060835Y-96567396D01*
X371130639Y-96398874D01*
X371231978Y-96247209D01*
X371360959Y-96118228D01*
X371512624Y-96016889D01*
X371681146Y-95947085D01*
X371860047Y-95911500D01*
X372042453Y-95911500D01*
X372221354Y-95947085D01*
X372221354Y-95947085D01*
G37*
G36*
X382381354Y-95947085D02*
G01*
X382549876Y-96016889D01*
X382701541Y-96118228D01*
X382830522Y-96247209D01*
X382931861Y-96398874D01*
X383001665Y-96567396D01*
X383037250Y-96746297D01*
X383037250Y-96928703D01*
X383001665Y-97107604D01*
X382931861Y-97276126D01*
X382830522Y-97427791D01*
X382701541Y-97556772D01*
X382549876Y-97658111D01*
X382381354Y-97727915D01*
X382202453Y-97763500D01*
X382020047Y-97763500D01*
X381841146Y-97727915D01*
X381672624Y-97658111D01*
X381520959Y-97556772D01*
X381391978Y-97427791D01*
X381290639Y-97276126D01*
X381220835Y-97107604D01*
X381185250Y-96928703D01*
X381185250Y-96746297D01*
X381220835Y-96567396D01*
X381290639Y-96398874D01*
X381391978Y-96247209D01*
X381520959Y-96118228D01*
X381672624Y-96016889D01*
X381841146Y-95947085D01*
X382020047Y-95911500D01*
X382202453Y-95911500D01*
X382381354Y-95947085D01*
X382381354Y-95947085D01*
G37*
G36*
X392596823Y-94411313D02*
G01*
X392757242Y-94459976D01*
X392889906Y-94530886D01*
X392905078Y-94538996D01*
X393034659Y-94645341D01*
X393141004Y-94774922D01*
X393141005Y-94774924D01*
X393220024Y-94922758D01*
X393220025Y-94922761D01*
X393229083Y-94952620D01*
X393268687Y-95083177D01*
X393285117Y-95250000D01*
X393268687Y-95416823D01*
X393220024Y-95577242D01*
X393149114Y-95709906D01*
X393141004Y-95725078D01*
X393034659Y-95854659D01*
X392905078Y-95961004D01*
X392905076Y-95961005D01*
X392757242Y-96040024D01*
X392596823Y-96088687D01*
X392471804Y-96101000D01*
X392388196Y-96101000D01*
X392263177Y-96088687D01*
X392102758Y-96040024D01*
X391954924Y-95961005D01*
X391954922Y-95961004D01*
X391825341Y-95854659D01*
X391718996Y-95725078D01*
X391710886Y-95709906D01*
X391639976Y-95577242D01*
X391591313Y-95416823D01*
X391574883Y-95250000D01*
X391591313Y-95083177D01*
X391630917Y-94952620D01*
X391639975Y-94922761D01*
X391639976Y-94922758D01*
X391718995Y-94774924D01*
X391718996Y-94774922D01*
X391825341Y-94645341D01*
X391954922Y-94538996D01*
X391970094Y-94530886D01*
X392102758Y-94459976D01*
X392263177Y-94411313D01*
X392388196Y-94399000D01*
X392471804Y-94399000D01*
X392596823Y-94411313D01*
X392596823Y-94411313D01*
G37*
G36*
X400901000Y-96101000D02*
G01*
X399199000Y-96101000D01*
X399199000Y-94399000D01*
X400901000Y-94399000D01*
X400901000Y-96101000D01*
X400901000Y-96101000D01*
G37*
G36*
X335515322Y-92998418D02*
G01*
X335597452Y-93032437D01*
X335761189Y-93100259D01*
X335773522Y-93108500D01*
X335982461Y-93248109D01*
X336170641Y-93436289D01*
X336318492Y-93657563D01*
X336420332Y-93903428D01*
X336472250Y-94164437D01*
X336472250Y-94430563D01*
X336420332Y-94691572D01*
X336385808Y-94774922D01*
X336318491Y-94937439D01*
X336170640Y-95158712D01*
X335982462Y-95346890D01*
X335761189Y-95494741D01*
X335761188Y-95494742D01*
X335761187Y-95494742D01*
X335515322Y-95596582D01*
X335254313Y-95648500D01*
X334988187Y-95648500D01*
X334727178Y-95596582D01*
X334481313Y-95494742D01*
X334481312Y-95494742D01*
X334481311Y-95494741D01*
X334260038Y-95346890D01*
X334071860Y-95158712D01*
X333924009Y-94937439D01*
X333856693Y-94774922D01*
X333822168Y-94691572D01*
X333770250Y-94430563D01*
X333770250Y-94164437D01*
X333822168Y-93903428D01*
X333924008Y-93657563D01*
X334071859Y-93436289D01*
X334260039Y-93248109D01*
X334468978Y-93108500D01*
X334481311Y-93100259D01*
X334645049Y-93032437D01*
X334727178Y-92998418D01*
X334988187Y-92946500D01*
X335254313Y-92946500D01*
X335515322Y-92998418D01*
X335515322Y-92998418D01*
G37*
G36*
X354565322Y-92998418D02*
G01*
X354647452Y-93032437D01*
X354811189Y-93100259D01*
X354823522Y-93108500D01*
X355032461Y-93248109D01*
X355220641Y-93436289D01*
X355368492Y-93657563D01*
X355470332Y-93903428D01*
X355522250Y-94164437D01*
X355522250Y-94430563D01*
X355470332Y-94691572D01*
X355435808Y-94774922D01*
X355368491Y-94937439D01*
X355220640Y-95158712D01*
X355032462Y-95346890D01*
X354811189Y-95494741D01*
X354811188Y-95494742D01*
X354811187Y-95494742D01*
X354565322Y-95596582D01*
X354304313Y-95648500D01*
X354038187Y-95648500D01*
X353777178Y-95596582D01*
X353531313Y-95494742D01*
X353531312Y-95494742D01*
X353531311Y-95494741D01*
X353310038Y-95346890D01*
X353121860Y-95158712D01*
X352974009Y-94937439D01*
X352906693Y-94774922D01*
X352872168Y-94691572D01*
X352820250Y-94430563D01*
X352820250Y-94164437D01*
X352872168Y-93903428D01*
X352974008Y-93657563D01*
X353121859Y-93436289D01*
X353310039Y-93248109D01*
X353518978Y-93108500D01*
X353531311Y-93100259D01*
X353695049Y-93032437D01*
X353777178Y-92998418D01*
X354038187Y-92946500D01*
X354304313Y-92946500D01*
X354565322Y-92998418D01*
X354565322Y-92998418D01*
G37*
G36*
X373615322Y-92998418D02*
G01*
X373697452Y-93032437D01*
X373861189Y-93100259D01*
X373873522Y-93108500D01*
X374082461Y-93248109D01*
X374270641Y-93436289D01*
X374418492Y-93657563D01*
X374520332Y-93903428D01*
X374572250Y-94164437D01*
X374572250Y-94430563D01*
X374520332Y-94691572D01*
X374485808Y-94774922D01*
X374418491Y-94937439D01*
X374270640Y-95158712D01*
X374082462Y-95346890D01*
X373861189Y-95494741D01*
X373861188Y-95494742D01*
X373861187Y-95494742D01*
X373615322Y-95596582D01*
X373354313Y-95648500D01*
X373088187Y-95648500D01*
X372827178Y-95596582D01*
X372581313Y-95494742D01*
X372581312Y-95494742D01*
X372581311Y-95494741D01*
X372360038Y-95346890D01*
X372171860Y-95158712D01*
X372024009Y-94937439D01*
X371956693Y-94774922D01*
X371922168Y-94691572D01*
X371870250Y-94430563D01*
X371870250Y-94164437D01*
X371922168Y-93903428D01*
X372024008Y-93657563D01*
X372171859Y-93436289D01*
X372360039Y-93248109D01*
X372568978Y-93108500D01*
X372581311Y-93100259D01*
X372745049Y-93032437D01*
X372827178Y-92998418D01*
X373088187Y-92946500D01*
X373354313Y-92946500D01*
X373615322Y-92998418D01*
X373615322Y-92998418D01*
G37*
G36*
X393935322Y-91093418D02*
G01*
X393993614Y-91117563D01*
X394181189Y-91195259D01*
X394193522Y-91203500D01*
X394402461Y-91343109D01*
X394590641Y-91531289D01*
X394738492Y-91752563D01*
X394840332Y-91998428D01*
X394892250Y-92259437D01*
X394892250Y-92525563D01*
X394840332Y-92786572D01*
X394770675Y-92954741D01*
X394738491Y-93032439D01*
X394590640Y-93253712D01*
X394402462Y-93441890D01*
X394181189Y-93589741D01*
X394181188Y-93589742D01*
X394181187Y-93589742D01*
X393935322Y-93691582D01*
X393674313Y-93743500D01*
X393408187Y-93743500D01*
X393147178Y-93691582D01*
X392901313Y-93589742D01*
X392901312Y-93589742D01*
X392901311Y-93589741D01*
X392680038Y-93441890D01*
X392491860Y-93253712D01*
X392344009Y-93032439D01*
X392311826Y-92954741D01*
X392242168Y-92786572D01*
X392190250Y-92525563D01*
X392190250Y-92259437D01*
X392242168Y-91998428D01*
X392344008Y-91752563D01*
X392491859Y-91531289D01*
X392680039Y-91343109D01*
X392888978Y-91203500D01*
X392901311Y-91195259D01*
X393088887Y-91117563D01*
X393147178Y-91093418D01*
X393408187Y-91041500D01*
X393674313Y-91041500D01*
X393935322Y-91093418D01*
X393935322Y-91093418D01*
G37*
G36*
X341865322Y-90458418D02*
G01*
X341947452Y-90492437D01*
X342111189Y-90560259D01*
X342222578Y-90634687D01*
X342332461Y-90708109D01*
X342520641Y-90896289D01*
X342668492Y-91117563D01*
X342704088Y-91203500D01*
X342770332Y-91363428D01*
X342822250Y-91624438D01*
X342822250Y-91890562D01*
X342770332Y-92151572D01*
X342668491Y-92397439D01*
X342520640Y-92618712D01*
X342332462Y-92806890D01*
X342111189Y-92954741D01*
X342111188Y-92954742D01*
X342111187Y-92954742D01*
X341865322Y-93056582D01*
X341604313Y-93108500D01*
X341338187Y-93108500D01*
X341077178Y-93056582D01*
X340831313Y-92954742D01*
X340831312Y-92954742D01*
X340831311Y-92954741D01*
X340610038Y-92806890D01*
X340421860Y-92618712D01*
X340274009Y-92397439D01*
X340172168Y-92151572D01*
X340120250Y-91890562D01*
X340120250Y-91624438D01*
X340172168Y-91363428D01*
X340238412Y-91203500D01*
X340274008Y-91117563D01*
X340421859Y-90896289D01*
X340610039Y-90708109D01*
X340719922Y-90634687D01*
X340831311Y-90560259D01*
X340995049Y-90492437D01*
X341077178Y-90458418D01*
X341338187Y-90406500D01*
X341604313Y-90406500D01*
X341865322Y-90458418D01*
X341865322Y-90458418D01*
G37*
G36*
X360915322Y-90458418D02*
G01*
X360997452Y-90492437D01*
X361161189Y-90560259D01*
X361272578Y-90634687D01*
X361382461Y-90708109D01*
X361570641Y-90896289D01*
X361718492Y-91117563D01*
X361754088Y-91203500D01*
X361820332Y-91363428D01*
X361872250Y-91624438D01*
X361872250Y-91890562D01*
X361820332Y-92151572D01*
X361718491Y-92397439D01*
X361570640Y-92618712D01*
X361382462Y-92806890D01*
X361161189Y-92954741D01*
X361161188Y-92954742D01*
X361161187Y-92954742D01*
X360915322Y-93056582D01*
X360654313Y-93108500D01*
X360388187Y-93108500D01*
X360127178Y-93056582D01*
X359881313Y-92954742D01*
X359881312Y-92954742D01*
X359881311Y-92954741D01*
X359660038Y-92806890D01*
X359471860Y-92618712D01*
X359324009Y-92397439D01*
X359222168Y-92151572D01*
X359170250Y-91890562D01*
X359170250Y-91624438D01*
X359222168Y-91363428D01*
X359288412Y-91203500D01*
X359324008Y-91117563D01*
X359471859Y-90896289D01*
X359660039Y-90708109D01*
X359769922Y-90634687D01*
X359881311Y-90560259D01*
X360045049Y-90492437D01*
X360127178Y-90458418D01*
X360388187Y-90406500D01*
X360654313Y-90406500D01*
X360915322Y-90458418D01*
X360915322Y-90458418D01*
G37*
G36*
X379965322Y-90458418D02*
G01*
X380047452Y-90492437D01*
X380211189Y-90560259D01*
X380322578Y-90634687D01*
X380432461Y-90708109D01*
X380620641Y-90896289D01*
X380768492Y-91117563D01*
X380804088Y-91203500D01*
X380870332Y-91363428D01*
X380922250Y-91624438D01*
X380922250Y-91890562D01*
X380870332Y-92151572D01*
X380768491Y-92397439D01*
X380620640Y-92618712D01*
X380432462Y-92806890D01*
X380211189Y-92954741D01*
X380211188Y-92954742D01*
X380211187Y-92954742D01*
X379965322Y-93056582D01*
X379704313Y-93108500D01*
X379438187Y-93108500D01*
X379177178Y-93056582D01*
X378931313Y-92954742D01*
X378931312Y-92954742D01*
X378931311Y-92954741D01*
X378710038Y-92806890D01*
X378521860Y-92618712D01*
X378374009Y-92397439D01*
X378272168Y-92151572D01*
X378220250Y-91890562D01*
X378220250Y-91624438D01*
X378272168Y-91363428D01*
X378338412Y-91203500D01*
X378374008Y-91117563D01*
X378521859Y-90896289D01*
X378710039Y-90708109D01*
X378819922Y-90634687D01*
X378931311Y-90560259D01*
X379095049Y-90492437D01*
X379177178Y-90458418D01*
X379438187Y-90406500D01*
X379704313Y-90406500D01*
X379965322Y-90458418D01*
X379965322Y-90458418D01*
G37*
G36*
X400285322Y-88553418D02*
G01*
X400445912Y-88619936D01*
X400531189Y-88655259D01*
X400752462Y-88803110D01*
X400940640Y-88991288D01*
X401088491Y-89212561D01*
X401190332Y-89458428D01*
X401242250Y-89719438D01*
X401242250Y-89985562D01*
X401190332Y-90246572D01*
X401088491Y-90492439D01*
X400940640Y-90713712D01*
X400752462Y-90901890D01*
X400531189Y-91049741D01*
X400531188Y-91049742D01*
X400531187Y-91049742D01*
X400285322Y-91151582D01*
X400024313Y-91203500D01*
X399758187Y-91203500D01*
X399497178Y-91151582D01*
X399251313Y-91049742D01*
X399251312Y-91049742D01*
X399251311Y-91049741D01*
X399030038Y-90901890D01*
X398841860Y-90713712D01*
X398694009Y-90492439D01*
X398592168Y-90246572D01*
X398540250Y-89985562D01*
X398540250Y-89719438D01*
X398592168Y-89458428D01*
X398694009Y-89212561D01*
X398841860Y-88991288D01*
X399030038Y-88803110D01*
X399251311Y-88655259D01*
X399336589Y-88619936D01*
X399497178Y-88553418D01*
X399758187Y-88501500D01*
X400024313Y-88501500D01*
X400285322Y-88553418D01*
X400285322Y-88553418D01*
G37*
G36*
X396679504Y-85340318D02*
G01*
X397052761Y-85494926D01*
X397052763Y-85494927D01*
X397388686Y-85719384D01*
X397674366Y-86005064D01*
X397753503Y-86123500D01*
X397898824Y-86340989D01*
X398053432Y-86714246D01*
X398132250Y-87110493D01*
X398132250Y-87514507D01*
X398053432Y-87910754D01*
X397917675Y-88238500D01*
X397898823Y-88284013D01*
X397674366Y-88619936D01*
X397388686Y-88905616D01*
X397052763Y-89130073D01*
X397052762Y-89130074D01*
X397052761Y-89130074D01*
X396679504Y-89284682D01*
X396283257Y-89363500D01*
X395879243Y-89363500D01*
X395482996Y-89284682D01*
X395109739Y-89130074D01*
X395109738Y-89130074D01*
X395109737Y-89130073D01*
X394773814Y-88905616D01*
X394488134Y-88619936D01*
X394263677Y-88284013D01*
X394244825Y-88238500D01*
X394109068Y-87910754D01*
X394030250Y-87514507D01*
X394030250Y-87110493D01*
X394109068Y-86714246D01*
X394263676Y-86340989D01*
X394408998Y-86123500D01*
X394488134Y-86005064D01*
X394773814Y-85719384D01*
X395109737Y-85494927D01*
X395109739Y-85494926D01*
X395482996Y-85340318D01*
X395879243Y-85261500D01*
X396283257Y-85261500D01*
X396679504Y-85340318D01*
X396679504Y-85340318D01*
G37*
G36*
X401431354Y-86422085D02*
G01*
X401599876Y-86491889D01*
X401751541Y-86593228D01*
X401880522Y-86722209D01*
X401981861Y-86873874D01*
X402051665Y-87042396D01*
X402087250Y-87221297D01*
X402087250Y-87403703D01*
X402051665Y-87582604D01*
X401981861Y-87751126D01*
X401880522Y-87902791D01*
X401751541Y-88031772D01*
X401599876Y-88133111D01*
X401431354Y-88202915D01*
X401252453Y-88238500D01*
X401070047Y-88238500D01*
X400891146Y-88202915D01*
X400722624Y-88133111D01*
X400570959Y-88031772D01*
X400441978Y-87902791D01*
X400340639Y-87751126D01*
X400270835Y-87582604D01*
X400235250Y-87403703D01*
X400235250Y-87221297D01*
X400270835Y-87042396D01*
X400340639Y-86873874D01*
X400441978Y-86722209D01*
X400570959Y-86593228D01*
X400722624Y-86491889D01*
X400891146Y-86422085D01*
X401070047Y-86386500D01*
X401252453Y-86386500D01*
X401431354Y-86422085D01*
X401431354Y-86422085D01*
G37*
G36*
X391271354Y-86422085D02*
G01*
X391439876Y-86491889D01*
X391591541Y-86593228D01*
X391720522Y-86722209D01*
X391821861Y-86873874D01*
X391891665Y-87042396D01*
X391927250Y-87221297D01*
X391927250Y-87403703D01*
X391891665Y-87582604D01*
X391821861Y-87751126D01*
X391720522Y-87902791D01*
X391591541Y-88031772D01*
X391439876Y-88133111D01*
X391271354Y-88202915D01*
X391092453Y-88238500D01*
X390910047Y-88238500D01*
X390731146Y-88202915D01*
X390562624Y-88133111D01*
X390410959Y-88031772D01*
X390281978Y-87902791D01*
X390180639Y-87751126D01*
X390110835Y-87582604D01*
X390075250Y-87403703D01*
X390075250Y-87221297D01*
X390110835Y-87042396D01*
X390180639Y-86873874D01*
X390281978Y-86722209D01*
X390410959Y-86593228D01*
X390562624Y-86491889D01*
X390731146Y-86422085D01*
X390910047Y-86386500D01*
X391092453Y-86386500D01*
X391271354Y-86422085D01*
X391271354Y-86422085D01*
G37*
G36*
X381851000Y-86576000D02*
G01*
X380149000Y-86576000D01*
X380149000Y-84874000D01*
X381851000Y-84874000D01*
X381851000Y-86576000D01*
X381851000Y-86576000D01*
G37*
G36*
X343751000Y-86576000D02*
G01*
X342049000Y-86576000D01*
X342049000Y-84874000D01*
X343751000Y-84874000D01*
X343751000Y-86576000D01*
X343751000Y-86576000D01*
G37*
G36*
X362801000Y-86576000D02*
G01*
X361099000Y-86576000D01*
X361099000Y-84874000D01*
X362801000Y-84874000D01*
X362801000Y-86576000D01*
X362801000Y-86576000D01*
G37*
G36*
X335446823Y-84886313D02*
G01*
X335607242Y-84934976D01*
X335739906Y-85005886D01*
X335755078Y-85013996D01*
X335884659Y-85120341D01*
X335991004Y-85249922D01*
X335991005Y-85249924D01*
X336070024Y-85397758D01*
X336070025Y-85397761D01*
X336079083Y-85427620D01*
X336118687Y-85558177D01*
X336135117Y-85725000D01*
X336118687Y-85891823D01*
X336070024Y-86052242D01*
X335999114Y-86184906D01*
X335991004Y-86200078D01*
X335884659Y-86329659D01*
X335755078Y-86436004D01*
X335755076Y-86436005D01*
X335607242Y-86515024D01*
X335446823Y-86563687D01*
X335321804Y-86576000D01*
X335238196Y-86576000D01*
X335113177Y-86563687D01*
X334952758Y-86515024D01*
X334804924Y-86436005D01*
X334804922Y-86436004D01*
X334675341Y-86329659D01*
X334568996Y-86200078D01*
X334560886Y-86184906D01*
X334489976Y-86052242D01*
X334441313Y-85891823D01*
X334424883Y-85725000D01*
X334441313Y-85558177D01*
X334480917Y-85427620D01*
X334489975Y-85397761D01*
X334489976Y-85397758D01*
X334568995Y-85249924D01*
X334568996Y-85249922D01*
X334675341Y-85120341D01*
X334804922Y-85013996D01*
X334820094Y-85005886D01*
X334952758Y-84934976D01*
X335113177Y-84886313D01*
X335238196Y-84874000D01*
X335321804Y-84874000D01*
X335446823Y-84886313D01*
X335446823Y-84886313D01*
G37*
G36*
X373546823Y-84886313D02*
G01*
X373707242Y-84934976D01*
X373839906Y-85005886D01*
X373855078Y-85013996D01*
X373984659Y-85120341D01*
X374091004Y-85249922D01*
X374091005Y-85249924D01*
X374170024Y-85397758D01*
X374170025Y-85397761D01*
X374179083Y-85427620D01*
X374218687Y-85558177D01*
X374235117Y-85725000D01*
X374218687Y-85891823D01*
X374170024Y-86052242D01*
X374099114Y-86184906D01*
X374091004Y-86200078D01*
X373984659Y-86329659D01*
X373855078Y-86436004D01*
X373855076Y-86436005D01*
X373707242Y-86515024D01*
X373546823Y-86563687D01*
X373421804Y-86576000D01*
X373338196Y-86576000D01*
X373213177Y-86563687D01*
X373052758Y-86515024D01*
X372904924Y-86436005D01*
X372904922Y-86436004D01*
X372775341Y-86329659D01*
X372668996Y-86200078D01*
X372660886Y-86184906D01*
X372589976Y-86052242D01*
X372541313Y-85891823D01*
X372524883Y-85725000D01*
X372541313Y-85558177D01*
X372580917Y-85427620D01*
X372589975Y-85397761D01*
X372589976Y-85397758D01*
X372668995Y-85249924D01*
X372668996Y-85249922D01*
X372775341Y-85120341D01*
X372904922Y-85013996D01*
X372920094Y-85005886D01*
X373052758Y-84934976D01*
X373213177Y-84886313D01*
X373338196Y-84874000D01*
X373421804Y-84874000D01*
X373546823Y-84886313D01*
X373546823Y-84886313D01*
G37*
G36*
X354496823Y-84886313D02*
G01*
X354657242Y-84934976D01*
X354789906Y-85005886D01*
X354805078Y-85013996D01*
X354934659Y-85120341D01*
X355041004Y-85249922D01*
X355041005Y-85249924D01*
X355120024Y-85397758D01*
X355120025Y-85397761D01*
X355129083Y-85427620D01*
X355168687Y-85558177D01*
X355185117Y-85725000D01*
X355168687Y-85891823D01*
X355120024Y-86052242D01*
X355049114Y-86184906D01*
X355041004Y-86200078D01*
X354934659Y-86329659D01*
X354805078Y-86436004D01*
X354805076Y-86436005D01*
X354657242Y-86515024D01*
X354496823Y-86563687D01*
X354371804Y-86576000D01*
X354288196Y-86576000D01*
X354163177Y-86563687D01*
X354002758Y-86515024D01*
X353854924Y-86436005D01*
X353854922Y-86436004D01*
X353725341Y-86329659D01*
X353618996Y-86200078D01*
X353610886Y-86184906D01*
X353539976Y-86052242D01*
X353491313Y-85891823D01*
X353474883Y-85725000D01*
X353491313Y-85558177D01*
X353530917Y-85427620D01*
X353539975Y-85397761D01*
X353539976Y-85397758D01*
X353618995Y-85249924D01*
X353618996Y-85249922D01*
X353725341Y-85120341D01*
X353854922Y-85013996D01*
X353870094Y-85005886D01*
X354002758Y-84934976D01*
X354163177Y-84886313D01*
X354288196Y-84874000D01*
X354371804Y-84874000D01*
X354496823Y-84886313D01*
X354496823Y-84886313D01*
G37*
G36*
X392665322Y-83473418D02*
G01*
X392747452Y-83507437D01*
X392911189Y-83575259D01*
X392923522Y-83583500D01*
X393132461Y-83723109D01*
X393320641Y-83911289D01*
X393468492Y-84132563D01*
X393570332Y-84378428D01*
X393622250Y-84639437D01*
X393622250Y-84905563D01*
X393570332Y-85166572D01*
X393535808Y-85249922D01*
X393468491Y-85412439D01*
X393320640Y-85633712D01*
X393132462Y-85821890D01*
X392911189Y-85969741D01*
X392911188Y-85969742D01*
X392911187Y-85969742D01*
X392665322Y-86071582D01*
X392404313Y-86123500D01*
X392138187Y-86123500D01*
X391877178Y-86071582D01*
X391631313Y-85969742D01*
X391631312Y-85969742D01*
X391631311Y-85969741D01*
X391410038Y-85821890D01*
X391221860Y-85633712D01*
X391074009Y-85412439D01*
X391006693Y-85249922D01*
X390972168Y-85166572D01*
X390920250Y-84905563D01*
X390920250Y-84639437D01*
X390972168Y-84378428D01*
X391074008Y-84132563D01*
X391221859Y-83911289D01*
X391410039Y-83723109D01*
X391618978Y-83583500D01*
X391631311Y-83575259D01*
X391795049Y-83507437D01*
X391877178Y-83473418D01*
X392138187Y-83421500D01*
X392404313Y-83421500D01*
X392665322Y-83473418D01*
X392665322Y-83473418D01*
G37*
G36*
X374885322Y-81568418D02*
G01*
X374943614Y-81592563D01*
X375131189Y-81670259D01*
X375143522Y-81678500D01*
X375352461Y-81818109D01*
X375540641Y-82006289D01*
X375688492Y-82227563D01*
X375790332Y-82473428D01*
X375842250Y-82734437D01*
X375842250Y-83000563D01*
X375790332Y-83261572D01*
X375720675Y-83429741D01*
X375688491Y-83507439D01*
X375540640Y-83728712D01*
X375352462Y-83916890D01*
X375131189Y-84064741D01*
X375131188Y-84064742D01*
X375131187Y-84064742D01*
X374885322Y-84166582D01*
X374624313Y-84218500D01*
X374358187Y-84218500D01*
X374097178Y-84166582D01*
X373851313Y-84064742D01*
X373851312Y-84064742D01*
X373851311Y-84064741D01*
X373630038Y-83916890D01*
X373441860Y-83728712D01*
X373294009Y-83507439D01*
X373261826Y-83429741D01*
X373192168Y-83261572D01*
X373140250Y-83000563D01*
X373140250Y-82734437D01*
X373192168Y-82473428D01*
X373294008Y-82227563D01*
X373441859Y-82006289D01*
X373630039Y-81818109D01*
X373838978Y-81678500D01*
X373851311Y-81670259D01*
X374038887Y-81592563D01*
X374097178Y-81568418D01*
X374358187Y-81516500D01*
X374624313Y-81516500D01*
X374885322Y-81568418D01*
X374885322Y-81568418D01*
G37*
G36*
X355835322Y-81568418D02*
G01*
X355893614Y-81592563D01*
X356081189Y-81670259D01*
X356093522Y-81678500D01*
X356302461Y-81818109D01*
X356490641Y-82006289D01*
X356638492Y-82227563D01*
X356740332Y-82473428D01*
X356792250Y-82734437D01*
X356792250Y-83000563D01*
X356740332Y-83261572D01*
X356670675Y-83429741D01*
X356638491Y-83507439D01*
X356490640Y-83728712D01*
X356302462Y-83916890D01*
X356081189Y-84064741D01*
X356081188Y-84064742D01*
X356081187Y-84064742D01*
X355835322Y-84166582D01*
X355574313Y-84218500D01*
X355308187Y-84218500D01*
X355047178Y-84166582D01*
X354801313Y-84064742D01*
X354801312Y-84064742D01*
X354801311Y-84064741D01*
X354580038Y-83916890D01*
X354391860Y-83728712D01*
X354244009Y-83507439D01*
X354211826Y-83429741D01*
X354142168Y-83261572D01*
X354090250Y-83000563D01*
X354090250Y-82734437D01*
X354142168Y-82473428D01*
X354244008Y-82227563D01*
X354391859Y-82006289D01*
X354580039Y-81818109D01*
X354788978Y-81678500D01*
X354801311Y-81670259D01*
X354988887Y-81592563D01*
X355047178Y-81568418D01*
X355308187Y-81516500D01*
X355574313Y-81516500D01*
X355835322Y-81568418D01*
X355835322Y-81568418D01*
G37*
G36*
X336785322Y-81568418D02*
G01*
X336843614Y-81592563D01*
X337031189Y-81670259D01*
X337043522Y-81678500D01*
X337252461Y-81818109D01*
X337440641Y-82006289D01*
X337588492Y-82227563D01*
X337690332Y-82473428D01*
X337742250Y-82734437D01*
X337742250Y-83000563D01*
X337690332Y-83261572D01*
X337620675Y-83429741D01*
X337588491Y-83507439D01*
X337440640Y-83728712D01*
X337252462Y-83916890D01*
X337031189Y-84064741D01*
X337031188Y-84064742D01*
X337031187Y-84064742D01*
X336785322Y-84166582D01*
X336524313Y-84218500D01*
X336258187Y-84218500D01*
X335997178Y-84166582D01*
X335751313Y-84064742D01*
X335751312Y-84064742D01*
X335751311Y-84064741D01*
X335530038Y-83916890D01*
X335341860Y-83728712D01*
X335194009Y-83507439D01*
X335161826Y-83429741D01*
X335092168Y-83261572D01*
X335040250Y-83000563D01*
X335040250Y-82734437D01*
X335092168Y-82473428D01*
X335194008Y-82227563D01*
X335341859Y-82006289D01*
X335530039Y-81818109D01*
X335738978Y-81678500D01*
X335751311Y-81670259D01*
X335938887Y-81592563D01*
X335997178Y-81568418D01*
X336258187Y-81516500D01*
X336524313Y-81516500D01*
X336785322Y-81568418D01*
X336785322Y-81568418D01*
G37*
G36*
X399015322Y-80933418D02*
G01*
X399097452Y-80967437D01*
X399261189Y-81035259D01*
X399372578Y-81109687D01*
X399482461Y-81183109D01*
X399670641Y-81371289D01*
X399818492Y-81592563D01*
X399854088Y-81678500D01*
X399920332Y-81838428D01*
X399972250Y-82099438D01*
X399972250Y-82365562D01*
X399920332Y-82626572D01*
X399818491Y-82872439D01*
X399670640Y-83093712D01*
X399482462Y-83281890D01*
X399261189Y-83429741D01*
X399261188Y-83429742D01*
X399261187Y-83429742D01*
X399015322Y-83531582D01*
X398754313Y-83583500D01*
X398488187Y-83583500D01*
X398227178Y-83531582D01*
X397981313Y-83429742D01*
X397981312Y-83429742D01*
X397981311Y-83429741D01*
X397760038Y-83281890D01*
X397571860Y-83093712D01*
X397424009Y-82872439D01*
X397322168Y-82626572D01*
X397270250Y-82365562D01*
X397270250Y-82099438D01*
X397322168Y-81838428D01*
X397388412Y-81678500D01*
X397424008Y-81592563D01*
X397571859Y-81371289D01*
X397760039Y-81183109D01*
X397869922Y-81109687D01*
X397981311Y-81035259D01*
X398145049Y-80967437D01*
X398227178Y-80933418D01*
X398488187Y-80881500D01*
X398754313Y-80881500D01*
X399015322Y-80933418D01*
X399015322Y-80933418D01*
G37*
G36*
X343135322Y-79028418D02*
G01*
X343295912Y-79094936D01*
X343381189Y-79130259D01*
X343492578Y-79204687D01*
X343575557Y-79260132D01*
X343602462Y-79278110D01*
X343790640Y-79466288D01*
X343938491Y-79687561D01*
X344040332Y-79933428D01*
X344092250Y-80194438D01*
X344092250Y-80460562D01*
X344040332Y-80721572D01*
X343938491Y-80967439D01*
X343790640Y-81188712D01*
X343602462Y-81376890D01*
X343381189Y-81524741D01*
X343381188Y-81524742D01*
X343381187Y-81524742D01*
X343135322Y-81626582D01*
X342874313Y-81678500D01*
X342608187Y-81678500D01*
X342347178Y-81626582D01*
X342101313Y-81524742D01*
X342101312Y-81524742D01*
X342101311Y-81524741D01*
X341880038Y-81376890D01*
X341691860Y-81188712D01*
X341544009Y-80967439D01*
X341442168Y-80721572D01*
X341390250Y-80460562D01*
X341390250Y-80194438D01*
X341442168Y-79933428D01*
X341544009Y-79687561D01*
X341691860Y-79466288D01*
X341880038Y-79278110D01*
X341906944Y-79260132D01*
X341989922Y-79204687D01*
X342101311Y-79130259D01*
X342186589Y-79094936D01*
X342347178Y-79028418D01*
X342608187Y-78976500D01*
X342874313Y-78976500D01*
X343135322Y-79028418D01*
X343135322Y-79028418D01*
G37*
G36*
X381235322Y-79028418D02*
G01*
X381395912Y-79094936D01*
X381481189Y-79130259D01*
X381592578Y-79204687D01*
X381675557Y-79260132D01*
X381702462Y-79278110D01*
X381890640Y-79466288D01*
X382038491Y-79687561D01*
X382140332Y-79933428D01*
X382192250Y-80194438D01*
X382192250Y-80460562D01*
X382140332Y-80721572D01*
X382038491Y-80967439D01*
X381890640Y-81188712D01*
X381702462Y-81376890D01*
X381481189Y-81524741D01*
X381481188Y-81524742D01*
X381481187Y-81524742D01*
X381235322Y-81626582D01*
X380974313Y-81678500D01*
X380708187Y-81678500D01*
X380447178Y-81626582D01*
X380201313Y-81524742D01*
X380201312Y-81524742D01*
X380201311Y-81524741D01*
X379980038Y-81376890D01*
X379791860Y-81188712D01*
X379644009Y-80967439D01*
X379542168Y-80721572D01*
X379490250Y-80460562D01*
X379490250Y-80194438D01*
X379542168Y-79933428D01*
X379644009Y-79687561D01*
X379791860Y-79466288D01*
X379980038Y-79278110D01*
X380006944Y-79260132D01*
X380089922Y-79204687D01*
X380201311Y-79130259D01*
X380286589Y-79094936D01*
X380447178Y-79028418D01*
X380708187Y-78976500D01*
X380974313Y-78976500D01*
X381235322Y-79028418D01*
X381235322Y-79028418D01*
G37*
G36*
X362185322Y-79028418D02*
G01*
X362345912Y-79094936D01*
X362431189Y-79130259D01*
X362542578Y-79204687D01*
X362625557Y-79260132D01*
X362652462Y-79278110D01*
X362840640Y-79466288D01*
X362988491Y-79687561D01*
X363090332Y-79933428D01*
X363142250Y-80194438D01*
X363142250Y-80460562D01*
X363090332Y-80721572D01*
X362988491Y-80967439D01*
X362840640Y-81188712D01*
X362652462Y-81376890D01*
X362431189Y-81524741D01*
X362431188Y-81524742D01*
X362431187Y-81524742D01*
X362185322Y-81626582D01*
X361924313Y-81678500D01*
X361658187Y-81678500D01*
X361397178Y-81626582D01*
X361151313Y-81524742D01*
X361151312Y-81524742D01*
X361151311Y-81524741D01*
X360930038Y-81376890D01*
X360741860Y-81188712D01*
X360594009Y-80967439D01*
X360492168Y-80721572D01*
X360440250Y-80460562D01*
X360440250Y-80194438D01*
X360492168Y-79933428D01*
X360594009Y-79687561D01*
X360741860Y-79466288D01*
X360930038Y-79278110D01*
X360956944Y-79260132D01*
X361039922Y-79204687D01*
X361151311Y-79130259D01*
X361236589Y-79094936D01*
X361397178Y-79028418D01*
X361658187Y-78976500D01*
X361924313Y-78976500D01*
X362185322Y-79028418D01*
X362185322Y-79028418D01*
G37*
G36*
X365871733Y-78959585D02*
G01*
X366040490Y-79029486D01*
X366192368Y-79130968D01*
X366321532Y-79260132D01*
X366423014Y-79412010D01*
X366492915Y-79580767D01*
X366528550Y-79759918D01*
X366528550Y-79942582D01*
X366492915Y-80121733D01*
X366423014Y-80290490D01*
X366321532Y-80442368D01*
X366192368Y-80571532D01*
X366040490Y-80673014D01*
X365871733Y-80742915D01*
X365692582Y-80778550D01*
X365509918Y-80778550D01*
X365330767Y-80742915D01*
X365162010Y-80673014D01*
X365010132Y-80571532D01*
X364880968Y-80442368D01*
X364779486Y-80290490D01*
X364709585Y-80121733D01*
X364673950Y-79942582D01*
X364673950Y-79759918D01*
X364709585Y-79580767D01*
X364779486Y-79412010D01*
X364880968Y-79260132D01*
X365010132Y-79130968D01*
X365162010Y-79029486D01*
X365330767Y-78959585D01*
X365509918Y-78923950D01*
X365692582Y-78923950D01*
X365871733Y-78959585D01*
X365871733Y-78959585D01*
G37*
G36*
X350631733Y-78959585D02*
G01*
X350800490Y-79029486D01*
X350952368Y-79130968D01*
X351081532Y-79260132D01*
X351183014Y-79412010D01*
X351252915Y-79580767D01*
X351288550Y-79759918D01*
X351288550Y-79942582D01*
X351252915Y-80121733D01*
X351183014Y-80290490D01*
X351081532Y-80442368D01*
X350952368Y-80571532D01*
X350800490Y-80673014D01*
X350631733Y-80742915D01*
X350452582Y-80778550D01*
X350269918Y-80778550D01*
X350090767Y-80742915D01*
X349922010Y-80673014D01*
X349770132Y-80571532D01*
X349640968Y-80442368D01*
X349539486Y-80290490D01*
X349469585Y-80121733D01*
X349433950Y-79942582D01*
X349433950Y-79759918D01*
X349469585Y-79580767D01*
X349539486Y-79412010D01*
X349640968Y-79260132D01*
X349770132Y-79130968D01*
X349922010Y-79029486D01*
X350090767Y-78959585D01*
X350269918Y-78923950D01*
X350452582Y-78923950D01*
X350631733Y-78959585D01*
X350631733Y-78959585D01*
G37*
G36*
X358579504Y-75815318D02*
G01*
X358952761Y-75969926D01*
X358952763Y-75969927D01*
X359288686Y-76194384D01*
X359574366Y-76480064D01*
X359734775Y-76720132D01*
X359798824Y-76815989D01*
X359953432Y-77189246D01*
X360032250Y-77585493D01*
X360032250Y-77989507D01*
X359953432Y-78385754D01*
X359817675Y-78713500D01*
X359798823Y-78759013D01*
X359574366Y-79094936D01*
X359288686Y-79380616D01*
X358952763Y-79605073D01*
X358952762Y-79605074D01*
X358952761Y-79605074D01*
X358579504Y-79759682D01*
X358183257Y-79838500D01*
X357779243Y-79838500D01*
X357382996Y-79759682D01*
X357009739Y-79605074D01*
X357009738Y-79605074D01*
X357009737Y-79605073D01*
X356673814Y-79380616D01*
X356388134Y-79094936D01*
X356163677Y-78759013D01*
X356144825Y-78713500D01*
X356009068Y-78385754D01*
X355930250Y-77989507D01*
X355930250Y-77585493D01*
X356009068Y-77189246D01*
X356163676Y-76815989D01*
X356227726Y-76720132D01*
X356388134Y-76480064D01*
X356673814Y-76194384D01*
X357009737Y-75969927D01*
X357009739Y-75969926D01*
X357382996Y-75815318D01*
X357779243Y-75736500D01*
X358183257Y-75736500D01*
X358579504Y-75815318D01*
X358579504Y-75815318D01*
G37*
G36*
X339529504Y-75815318D02*
G01*
X339902761Y-75969926D01*
X339902763Y-75969927D01*
X340238686Y-76194384D01*
X340524366Y-76480064D01*
X340684775Y-76720132D01*
X340748824Y-76815989D01*
X340903432Y-77189246D01*
X340982250Y-77585493D01*
X340982250Y-77989507D01*
X340903432Y-78385754D01*
X340767675Y-78713500D01*
X340748823Y-78759013D01*
X340524366Y-79094936D01*
X340238686Y-79380616D01*
X339902763Y-79605073D01*
X339902762Y-79605074D01*
X339902761Y-79605074D01*
X339529504Y-79759682D01*
X339133257Y-79838500D01*
X338729243Y-79838500D01*
X338332996Y-79759682D01*
X337959739Y-79605074D01*
X337959738Y-79605074D01*
X337959737Y-79605073D01*
X337623814Y-79380616D01*
X337338134Y-79094936D01*
X337113677Y-78759013D01*
X337094825Y-78713500D01*
X336959068Y-78385754D01*
X336880250Y-77989507D01*
X336880250Y-77585493D01*
X336959068Y-77189246D01*
X337113676Y-76815989D01*
X337177726Y-76720132D01*
X337338134Y-76480064D01*
X337623814Y-76194384D01*
X337959737Y-75969927D01*
X337959739Y-75969926D01*
X338332996Y-75815318D01*
X338729243Y-75736500D01*
X339133257Y-75736500D01*
X339529504Y-75815318D01*
X339529504Y-75815318D01*
G37*
G36*
X377629504Y-75815318D02*
G01*
X378002761Y-75969926D01*
X378002763Y-75969927D01*
X378338686Y-76194384D01*
X378624366Y-76480064D01*
X378784775Y-76720132D01*
X378848824Y-76815989D01*
X379003432Y-77189246D01*
X379082250Y-77585493D01*
X379082250Y-77989507D01*
X379003432Y-78385754D01*
X378867675Y-78713500D01*
X378848823Y-78759013D01*
X378624366Y-79094936D01*
X378338686Y-79380616D01*
X378002763Y-79605073D01*
X378002762Y-79605074D01*
X378002761Y-79605074D01*
X377629504Y-79759682D01*
X377233257Y-79838500D01*
X376829243Y-79838500D01*
X376432996Y-79759682D01*
X376059739Y-79605074D01*
X376059738Y-79605074D01*
X376059737Y-79605073D01*
X375723814Y-79380616D01*
X375438134Y-79094936D01*
X375213677Y-78759013D01*
X375194825Y-78713500D01*
X375059068Y-78385754D01*
X374980250Y-77989507D01*
X374980250Y-77585493D01*
X375059068Y-77189246D01*
X375213676Y-76815989D01*
X375277726Y-76720132D01*
X375438134Y-76480064D01*
X375723814Y-76194384D01*
X376059737Y-75969927D01*
X376059739Y-75969926D01*
X376432996Y-75815318D01*
X376829243Y-75736500D01*
X377233257Y-75736500D01*
X377629504Y-75815318D01*
X377629504Y-75815318D01*
G37*
G36*
X363331354Y-76897085D02*
G01*
X363499876Y-76966889D01*
X363651541Y-77068228D01*
X363780522Y-77197209D01*
X363881861Y-77348874D01*
X363951665Y-77517396D01*
X363987250Y-77696297D01*
X363987250Y-77878703D01*
X363951665Y-78057604D01*
X363881861Y-78226126D01*
X363780522Y-78377791D01*
X363651541Y-78506772D01*
X363499876Y-78608111D01*
X363331354Y-78677915D01*
X363152453Y-78713500D01*
X362970047Y-78713500D01*
X362791146Y-78677915D01*
X362622624Y-78608111D01*
X362470959Y-78506772D01*
X362341978Y-78377791D01*
X362240639Y-78226126D01*
X362170835Y-78057604D01*
X362135250Y-77878703D01*
X362135250Y-77696297D01*
X362170835Y-77517396D01*
X362240639Y-77348874D01*
X362341978Y-77197209D01*
X362470959Y-77068228D01*
X362622624Y-76966889D01*
X362791146Y-76897085D01*
X362970047Y-76861500D01*
X363152453Y-76861500D01*
X363331354Y-76897085D01*
X363331354Y-76897085D01*
G37*
G36*
X353171354Y-76897085D02*
G01*
X353339876Y-76966889D01*
X353491541Y-77068228D01*
X353620522Y-77197209D01*
X353721861Y-77348874D01*
X353791665Y-77517396D01*
X353827250Y-77696297D01*
X353827250Y-77878703D01*
X353791665Y-78057604D01*
X353721861Y-78226126D01*
X353620522Y-78377791D01*
X353491541Y-78506772D01*
X353339876Y-78608111D01*
X353171354Y-78677915D01*
X352992453Y-78713500D01*
X352810047Y-78713500D01*
X352631146Y-78677915D01*
X352462624Y-78608111D01*
X352310959Y-78506772D01*
X352181978Y-78377791D01*
X352080639Y-78226126D01*
X352010835Y-78057604D01*
X351975250Y-77878703D01*
X351975250Y-77696297D01*
X352010835Y-77517396D01*
X352080639Y-77348874D01*
X352181978Y-77197209D01*
X352310959Y-77068228D01*
X352462624Y-76966889D01*
X352631146Y-76897085D01*
X352810047Y-76861500D01*
X352992453Y-76861500D01*
X353171354Y-76897085D01*
X353171354Y-76897085D01*
G37*
G36*
X382381354Y-76897085D02*
G01*
X382549876Y-76966889D01*
X382701541Y-77068228D01*
X382830522Y-77197209D01*
X382931861Y-77348874D01*
X383001665Y-77517396D01*
X383037250Y-77696297D01*
X383037250Y-77878703D01*
X383001665Y-78057604D01*
X382931861Y-78226126D01*
X382830522Y-78377791D01*
X382701541Y-78506772D01*
X382549876Y-78608111D01*
X382381354Y-78677915D01*
X382202453Y-78713500D01*
X382020047Y-78713500D01*
X381841146Y-78677915D01*
X381672624Y-78608111D01*
X381520959Y-78506772D01*
X381391978Y-78377791D01*
X381290639Y-78226126D01*
X381220835Y-78057604D01*
X381185250Y-77878703D01*
X381185250Y-77696297D01*
X381220835Y-77517396D01*
X381290639Y-77348874D01*
X381391978Y-77197209D01*
X381520959Y-77068228D01*
X381672624Y-76966889D01*
X381841146Y-76897085D01*
X382020047Y-76861500D01*
X382202453Y-76861500D01*
X382381354Y-76897085D01*
X382381354Y-76897085D01*
G37*
G36*
X372221354Y-76897085D02*
G01*
X372389876Y-76966889D01*
X372541541Y-77068228D01*
X372670522Y-77197209D01*
X372771861Y-77348874D01*
X372841665Y-77517396D01*
X372877250Y-77696297D01*
X372877250Y-77878703D01*
X372841665Y-78057604D01*
X372771861Y-78226126D01*
X372670522Y-78377791D01*
X372541541Y-78506772D01*
X372389876Y-78608111D01*
X372221354Y-78677915D01*
X372042453Y-78713500D01*
X371860047Y-78713500D01*
X371681146Y-78677915D01*
X371512624Y-78608111D01*
X371360959Y-78506772D01*
X371231978Y-78377791D01*
X371130639Y-78226126D01*
X371060835Y-78057604D01*
X371025250Y-77878703D01*
X371025250Y-77696297D01*
X371060835Y-77517396D01*
X371130639Y-77348874D01*
X371231978Y-77197209D01*
X371360959Y-77068228D01*
X371512624Y-76966889D01*
X371681146Y-76897085D01*
X371860047Y-76861500D01*
X372042453Y-76861500D01*
X372221354Y-76897085D01*
X372221354Y-76897085D01*
G37*
G36*
X344281354Y-76897085D02*
G01*
X344449876Y-76966889D01*
X344601541Y-77068228D01*
X344730522Y-77197209D01*
X344831861Y-77348874D01*
X344901665Y-77517396D01*
X344937250Y-77696297D01*
X344937250Y-77878703D01*
X344901665Y-78057604D01*
X344831861Y-78226126D01*
X344730522Y-78377791D01*
X344601541Y-78506772D01*
X344449876Y-78608111D01*
X344281354Y-78677915D01*
X344102453Y-78713500D01*
X343920047Y-78713500D01*
X343741146Y-78677915D01*
X343572624Y-78608111D01*
X343420959Y-78506772D01*
X343291978Y-78377791D01*
X343190639Y-78226126D01*
X343120835Y-78057604D01*
X343085250Y-77878703D01*
X343085250Y-77696297D01*
X343120835Y-77517396D01*
X343190639Y-77348874D01*
X343291978Y-77197209D01*
X343420959Y-77068228D01*
X343572624Y-76966889D01*
X343741146Y-76897085D01*
X343920047Y-76861500D01*
X344102453Y-76861500D01*
X344281354Y-76897085D01*
X344281354Y-76897085D01*
G37*
G36*
X334121354Y-76897085D02*
G01*
X334289876Y-76966889D01*
X334441541Y-77068228D01*
X334570522Y-77197209D01*
X334671861Y-77348874D01*
X334741665Y-77517396D01*
X334777250Y-77696297D01*
X334777250Y-77878703D01*
X334741665Y-78057604D01*
X334671861Y-78226126D01*
X334570522Y-78377791D01*
X334441541Y-78506772D01*
X334289876Y-78608111D01*
X334121354Y-78677915D01*
X333942453Y-78713500D01*
X333760047Y-78713500D01*
X333581146Y-78677915D01*
X333412624Y-78608111D01*
X333260959Y-78506772D01*
X333131978Y-78377791D01*
X333030639Y-78226126D01*
X332960835Y-78057604D01*
X332925250Y-77878703D01*
X332925250Y-77696297D01*
X332960835Y-77517396D01*
X333030639Y-77348874D01*
X333131978Y-77197209D01*
X333260959Y-77068228D01*
X333412624Y-76966889D01*
X333581146Y-76897085D01*
X333760047Y-76861500D01*
X333942453Y-76861500D01*
X334121354Y-76897085D01*
X334121354Y-76897085D01*
G37*
G36*
X365871733Y-76419585D02*
G01*
X366040490Y-76489486D01*
X366192368Y-76590968D01*
X366321532Y-76720132D01*
X366423014Y-76872010D01*
X366492915Y-77040767D01*
X366528550Y-77219918D01*
X366528550Y-77402582D01*
X366492915Y-77581733D01*
X366423014Y-77750490D01*
X366321532Y-77902368D01*
X366192368Y-78031532D01*
X366040490Y-78133014D01*
X365871733Y-78202915D01*
X365692582Y-78238550D01*
X365509918Y-78238550D01*
X365330767Y-78202915D01*
X365162010Y-78133014D01*
X365010132Y-78031532D01*
X364880968Y-77902368D01*
X364779486Y-77750490D01*
X364709585Y-77581733D01*
X364673950Y-77402582D01*
X364673950Y-77219918D01*
X364709585Y-77040767D01*
X364779486Y-76872010D01*
X364880968Y-76720132D01*
X365010132Y-76590968D01*
X365162010Y-76489486D01*
X365330767Y-76419585D01*
X365509918Y-76383950D01*
X365692582Y-76383950D01*
X365871733Y-76419585D01*
X365871733Y-76419585D01*
G37*
G36*
X350631733Y-76419585D02*
G01*
X350800490Y-76489486D01*
X350952368Y-76590968D01*
X351081532Y-76720132D01*
X351183014Y-76872010D01*
X351252915Y-77040767D01*
X351288550Y-77219918D01*
X351288550Y-77402582D01*
X351252915Y-77581733D01*
X351183014Y-77750490D01*
X351081532Y-77902368D01*
X350952368Y-78031532D01*
X350800490Y-78133014D01*
X350631733Y-78202915D01*
X350452582Y-78238550D01*
X350269918Y-78238550D01*
X350090767Y-78202915D01*
X349922010Y-78133014D01*
X349770132Y-78031532D01*
X349640968Y-77902368D01*
X349539486Y-77750490D01*
X349469585Y-77581733D01*
X349433950Y-77402582D01*
X349433950Y-77219918D01*
X349469585Y-77040767D01*
X349539486Y-76872010D01*
X349640968Y-76720132D01*
X349770132Y-76590968D01*
X349922010Y-76489486D01*
X350090767Y-76419585D01*
X350269918Y-76383950D01*
X350452582Y-76383950D01*
X350631733Y-76419585D01*
X350631733Y-76419585D01*
G37*
G36*
X404932724Y-73439934D02*
G01*
X405150724Y-73530233D01*
X405304873Y-73594083D01*
X405639798Y-73817873D01*
X405924627Y-74102702D01*
X406148417Y-74437627D01*
X406148417Y-74437628D01*
X406302566Y-74809776D01*
X406381150Y-75204844D01*
X406381150Y-75607656D01*
X406302566Y-76002724D01*
X406258664Y-76108712D01*
X406148417Y-76374873D01*
X405924627Y-76709798D01*
X405639798Y-76994627D01*
X405304873Y-77218417D01*
X405150724Y-77282267D01*
X404932724Y-77372566D01*
X404537656Y-77451150D01*
X404134844Y-77451150D01*
X403739776Y-77372566D01*
X403521776Y-77282267D01*
X403367627Y-77218417D01*
X403032702Y-76994627D01*
X402747873Y-76709798D01*
X402524083Y-76374873D01*
X402413836Y-76108712D01*
X402369934Y-76002724D01*
X402291350Y-75607656D01*
X402291350Y-75204844D01*
X402369934Y-74809776D01*
X402524083Y-74437628D01*
X402524083Y-74437627D01*
X402747873Y-74102702D01*
X403032702Y-73817873D01*
X403367627Y-73594083D01*
X403521776Y-73530233D01*
X403739776Y-73439934D01*
X404134844Y-73361350D01*
X404537656Y-73361350D01*
X404932724Y-73439934D01*
X404932724Y-73439934D01*
G37*
G36*
X389315222Y-73843950D02*
G01*
X389555661Y-73891776D01*
X389674387Y-73940954D01*
X389842291Y-74010502D01*
X389902854Y-74050969D01*
X390100254Y-74182867D01*
X390319633Y-74402246D01*
X390343274Y-74437628D01*
X390491998Y-74660209D01*
X390610724Y-74946840D01*
X390671250Y-75251125D01*
X390671250Y-75561375D01*
X390662044Y-75607655D01*
X390620738Y-75815319D01*
X390610724Y-75865660D01*
X390491998Y-76152291D01*
X390491997Y-76152292D01*
X390319633Y-76410254D01*
X390100254Y-76629633D01*
X389964812Y-76720132D01*
X389842291Y-76801998D01*
X389698640Y-76861500D01*
X389555661Y-76920724D01*
X389403517Y-76950987D01*
X389251375Y-76981250D01*
X388941125Y-76981250D01*
X388788983Y-76950987D01*
X388636839Y-76920724D01*
X388493860Y-76861500D01*
X388350209Y-76801998D01*
X388227688Y-76720132D01*
X388092246Y-76629633D01*
X387872867Y-76410254D01*
X387700503Y-76152292D01*
X387700502Y-76152291D01*
X387581776Y-75865660D01*
X387571763Y-75815319D01*
X387530456Y-75607655D01*
X387521250Y-75561375D01*
X387521250Y-75251125D01*
X387581776Y-74946840D01*
X387700502Y-74660209D01*
X387849226Y-74437628D01*
X387872867Y-74402246D01*
X388092246Y-74182867D01*
X388289646Y-74050969D01*
X388350209Y-74010502D01*
X388518113Y-73940954D01*
X388636839Y-73891776D01*
X388877278Y-73843950D01*
X388941125Y-73831250D01*
X389251375Y-73831250D01*
X389315222Y-73843950D01*
X389315222Y-73843950D01*
G37*
G36*
X354565322Y-73948418D02*
G01*
X354811189Y-74050259D01*
X354823522Y-74058500D01*
X355032461Y-74198109D01*
X355220641Y-74386289D01*
X355368492Y-74607563D01*
X355470332Y-74853428D01*
X355522250Y-75114437D01*
X355522250Y-75380563D01*
X355477078Y-75607656D01*
X355470332Y-75641572D01*
X355368491Y-75887439D01*
X355220640Y-76108712D01*
X355032462Y-76296890D01*
X354811189Y-76444741D01*
X354811188Y-76444742D01*
X354811187Y-76444742D01*
X354565322Y-76546582D01*
X354304313Y-76598500D01*
X354038187Y-76598500D01*
X353777178Y-76546582D01*
X353531313Y-76444742D01*
X353531312Y-76444742D01*
X353531311Y-76444741D01*
X353310038Y-76296890D01*
X353121860Y-76108712D01*
X352974009Y-75887439D01*
X352872168Y-75641572D01*
X352865422Y-75607656D01*
X352820250Y-75380563D01*
X352820250Y-75114437D01*
X352872168Y-74853428D01*
X352974008Y-74607563D01*
X353121859Y-74386289D01*
X353310039Y-74198109D01*
X353518978Y-74058500D01*
X353531311Y-74050259D01*
X353777178Y-73948418D01*
X354038187Y-73896500D01*
X354304313Y-73896500D01*
X354565322Y-73948418D01*
X354565322Y-73948418D01*
G37*
G36*
X335515322Y-73948418D02*
G01*
X335761189Y-74050259D01*
X335773522Y-74058500D01*
X335982461Y-74198109D01*
X336170641Y-74386289D01*
X336318492Y-74607563D01*
X336420332Y-74853428D01*
X336472250Y-75114437D01*
X336472250Y-75380563D01*
X336427078Y-75607656D01*
X336420332Y-75641572D01*
X336318491Y-75887439D01*
X336170640Y-76108712D01*
X335982462Y-76296890D01*
X335761189Y-76444741D01*
X335761188Y-76444742D01*
X335761187Y-76444742D01*
X335515322Y-76546582D01*
X335254313Y-76598500D01*
X334988187Y-76598500D01*
X334727178Y-76546582D01*
X334481313Y-76444742D01*
X334481312Y-76444742D01*
X334481311Y-76444741D01*
X334260038Y-76296890D01*
X334071860Y-76108712D01*
X333924009Y-75887439D01*
X333822168Y-75641572D01*
X333815422Y-75607656D01*
X333770250Y-75380563D01*
X333770250Y-75114437D01*
X333822168Y-74853428D01*
X333924008Y-74607563D01*
X334071859Y-74386289D01*
X334260039Y-74198109D01*
X334468978Y-74058500D01*
X334481311Y-74050259D01*
X334727178Y-73948418D01*
X334988187Y-73896500D01*
X335254313Y-73896500D01*
X335515322Y-73948418D01*
X335515322Y-73948418D01*
G37*
G36*
X373615322Y-73948418D02*
G01*
X373861189Y-74050259D01*
X373873522Y-74058500D01*
X374082461Y-74198109D01*
X374270641Y-74386289D01*
X374418492Y-74607563D01*
X374520332Y-74853428D01*
X374572250Y-75114437D01*
X374572250Y-75380563D01*
X374527078Y-75607656D01*
X374520332Y-75641572D01*
X374418491Y-75887439D01*
X374270640Y-76108712D01*
X374082462Y-76296890D01*
X373861189Y-76444741D01*
X373861188Y-76444742D01*
X373861187Y-76444742D01*
X373615322Y-76546582D01*
X373354313Y-76598500D01*
X373088187Y-76598500D01*
X372827178Y-76546582D01*
X372581313Y-76444742D01*
X372581312Y-76444742D01*
X372581311Y-76444741D01*
X372360038Y-76296890D01*
X372171860Y-76108712D01*
X372024009Y-75887439D01*
X371922168Y-75641572D01*
X371915422Y-75607656D01*
X371870250Y-75380563D01*
X371870250Y-75114437D01*
X371922168Y-74853428D01*
X372024008Y-74607563D01*
X372171859Y-74386289D01*
X372360039Y-74198109D01*
X372568978Y-74058500D01*
X372581311Y-74050259D01*
X372827178Y-73948418D01*
X373088187Y-73896500D01*
X373354313Y-73896500D01*
X373615322Y-73948418D01*
X373615322Y-73948418D01*
G37*
G36*
X365871733Y-73879585D02*
G01*
X366040490Y-73949486D01*
X366192368Y-74050968D01*
X366321532Y-74180132D01*
X366423014Y-74332010D01*
X366492915Y-74500767D01*
X366528550Y-74679918D01*
X366528550Y-74862582D01*
X366492915Y-75041733D01*
X366423014Y-75210490D01*
X366321532Y-75362368D01*
X366192368Y-75491532D01*
X366040490Y-75593014D01*
X365871733Y-75662915D01*
X365692582Y-75698550D01*
X365509918Y-75698550D01*
X365330767Y-75662915D01*
X365162010Y-75593014D01*
X365010132Y-75491532D01*
X364880968Y-75362368D01*
X364779486Y-75210490D01*
X364709585Y-75041733D01*
X364673950Y-74862582D01*
X364673950Y-74679918D01*
X364709585Y-74500767D01*
X364779486Y-74332010D01*
X364880968Y-74180132D01*
X365010132Y-74050968D01*
X365162010Y-73949486D01*
X365330767Y-73879585D01*
X365509918Y-73843950D01*
X365692582Y-73843950D01*
X365871733Y-73879585D01*
X365871733Y-73879585D01*
G37*
G36*
X350631733Y-73879585D02*
G01*
X350800490Y-73949486D01*
X350952368Y-74050968D01*
X351081532Y-74180132D01*
X351183014Y-74332010D01*
X351252915Y-74500767D01*
X351288550Y-74679918D01*
X351288550Y-74862582D01*
X351252915Y-75041733D01*
X351183014Y-75210490D01*
X351081532Y-75362368D01*
X350952368Y-75491532D01*
X350800490Y-75593014D01*
X350631733Y-75662915D01*
X350452582Y-75698550D01*
X350269918Y-75698550D01*
X350090767Y-75662915D01*
X349922010Y-75593014D01*
X349770132Y-75491532D01*
X349640968Y-75362368D01*
X349539486Y-75210490D01*
X349469585Y-75041733D01*
X349433950Y-74862582D01*
X349433950Y-74679918D01*
X349469585Y-74500767D01*
X349539486Y-74332010D01*
X349640968Y-74180132D01*
X349770132Y-74050968D01*
X349922010Y-73949486D01*
X350090767Y-73879585D01*
X350269918Y-73843950D01*
X350452582Y-73843950D01*
X350631733Y-73879585D01*
X350631733Y-73879585D01*
G37*
G36*
X379965322Y-71408418D02*
G01*
X380211189Y-71510259D01*
X380322578Y-71584687D01*
X380405557Y-71640132D01*
X380432462Y-71658110D01*
X380620640Y-71846288D01*
X380768491Y-72067561D01*
X380870332Y-72313428D01*
X380922250Y-72574438D01*
X380922250Y-72840562D01*
X380870332Y-73101572D01*
X380768491Y-73347439D01*
X380620640Y-73568712D01*
X380432462Y-73756890D01*
X380211189Y-73904741D01*
X380211188Y-73904742D01*
X380211187Y-73904742D01*
X379965322Y-74006582D01*
X379704313Y-74058500D01*
X379438187Y-74058500D01*
X379177178Y-74006582D01*
X378931313Y-73904742D01*
X378931312Y-73904742D01*
X378931311Y-73904741D01*
X378710038Y-73756890D01*
X378521860Y-73568712D01*
X378374009Y-73347439D01*
X378272168Y-73101572D01*
X378220250Y-72840562D01*
X378220250Y-72574438D01*
X378272168Y-72313428D01*
X378374009Y-72067561D01*
X378521860Y-71846288D01*
X378710038Y-71658110D01*
X378736944Y-71640132D01*
X378819922Y-71584687D01*
X378931311Y-71510259D01*
X379177178Y-71408418D01*
X379438187Y-71356500D01*
X379704313Y-71356500D01*
X379965322Y-71408418D01*
X379965322Y-71408418D01*
G37*
G36*
X360915322Y-71408418D02*
G01*
X361161189Y-71510259D01*
X361272578Y-71584687D01*
X361355557Y-71640132D01*
X361382462Y-71658110D01*
X361570640Y-71846288D01*
X361718491Y-72067561D01*
X361820332Y-72313428D01*
X361872250Y-72574438D01*
X361872250Y-72840562D01*
X361820332Y-73101572D01*
X361718491Y-73347439D01*
X361570640Y-73568712D01*
X361382462Y-73756890D01*
X361161189Y-73904741D01*
X361161188Y-73904742D01*
X361161187Y-73904742D01*
X360915322Y-74006582D01*
X360654313Y-74058500D01*
X360388187Y-74058500D01*
X360127178Y-74006582D01*
X359881313Y-73904742D01*
X359881312Y-73904742D01*
X359881311Y-73904741D01*
X359660038Y-73756890D01*
X359471860Y-73568712D01*
X359324009Y-73347439D01*
X359222168Y-73101572D01*
X359170250Y-72840562D01*
X359170250Y-72574438D01*
X359222168Y-72313428D01*
X359324009Y-72067561D01*
X359471860Y-71846288D01*
X359660038Y-71658110D01*
X359686944Y-71640132D01*
X359769922Y-71584687D01*
X359881311Y-71510259D01*
X360127178Y-71408418D01*
X360388187Y-71356500D01*
X360654313Y-71356500D01*
X360915322Y-71408418D01*
X360915322Y-71408418D01*
G37*
G36*
X341865322Y-71408418D02*
G01*
X342111189Y-71510259D01*
X342222578Y-71584687D01*
X342305557Y-71640132D01*
X342332462Y-71658110D01*
X342520640Y-71846288D01*
X342668491Y-72067561D01*
X342770332Y-72313428D01*
X342822250Y-72574438D01*
X342822250Y-72840562D01*
X342770332Y-73101572D01*
X342668491Y-73347439D01*
X342520640Y-73568712D01*
X342332462Y-73756890D01*
X342111189Y-73904741D01*
X342111188Y-73904742D01*
X342111187Y-73904742D01*
X341865322Y-74006582D01*
X341604313Y-74058500D01*
X341338187Y-74058500D01*
X341077178Y-74006582D01*
X340831313Y-73904742D01*
X340831312Y-73904742D01*
X340831311Y-73904741D01*
X340610038Y-73756890D01*
X340421860Y-73568712D01*
X340274009Y-73347439D01*
X340172168Y-73101572D01*
X340120250Y-72840562D01*
X340120250Y-72574438D01*
X340172168Y-72313428D01*
X340274009Y-72067561D01*
X340421860Y-71846288D01*
X340610038Y-71658110D01*
X340636944Y-71640132D01*
X340719922Y-71584687D01*
X340831311Y-71510259D01*
X341077178Y-71408418D01*
X341338187Y-71356500D01*
X341604313Y-71356500D01*
X341865322Y-71408418D01*
X341865322Y-71408418D01*
G37*
G36*
X350631733Y-71339585D02*
G01*
X350800490Y-71409486D01*
X350952368Y-71510968D01*
X351081532Y-71640132D01*
X351183014Y-71792010D01*
X351252915Y-71960767D01*
X351288550Y-72139918D01*
X351288550Y-72322582D01*
X351252915Y-72501733D01*
X351183014Y-72670490D01*
X351081532Y-72822368D01*
X350952368Y-72951532D01*
X350800490Y-73053014D01*
X350631733Y-73122915D01*
X350452582Y-73158550D01*
X350269918Y-73158550D01*
X350090767Y-73122915D01*
X349922010Y-73053014D01*
X349770132Y-72951532D01*
X349640968Y-72822368D01*
X349539486Y-72670490D01*
X349469585Y-72501733D01*
X349433950Y-72322582D01*
X349433950Y-72139918D01*
X349469585Y-71960767D01*
X349539486Y-71792010D01*
X349640968Y-71640132D01*
X349770132Y-71510968D01*
X349922010Y-71409486D01*
X350090767Y-71339585D01*
X350269918Y-71303950D01*
X350452582Y-71303950D01*
X350631733Y-71339585D01*
X350631733Y-71339585D01*
G37*
G36*
X365871733Y-71339585D02*
G01*
X366040490Y-71409486D01*
X366192368Y-71510968D01*
X366321532Y-71640132D01*
X366423014Y-71792010D01*
X366492915Y-71960767D01*
X366528550Y-72139918D01*
X366528550Y-72322582D01*
X366492915Y-72501733D01*
X366423014Y-72670490D01*
X366321532Y-72822368D01*
X366192368Y-72951532D01*
X366040490Y-73053014D01*
X365871733Y-73122915D01*
X365692582Y-73158550D01*
X365509918Y-73158550D01*
X365330767Y-73122915D01*
X365162010Y-73053014D01*
X365010132Y-72951532D01*
X364880968Y-72822368D01*
X364779486Y-72670490D01*
X364709585Y-72501733D01*
X364673950Y-72322582D01*
X364673950Y-72139918D01*
X364709585Y-71960767D01*
X364779486Y-71792010D01*
X364880968Y-71640132D01*
X365010132Y-71510968D01*
X365162010Y-71409486D01*
X365330767Y-71339585D01*
X365509918Y-71303950D01*
X365692582Y-71303950D01*
X365871733Y-71339585D01*
X365871733Y-71339585D01*
G37*
G36*
X365871733Y-68799585D02*
G01*
X366040490Y-68869486D01*
X366192368Y-68970968D01*
X366321532Y-69100132D01*
X366423014Y-69252010D01*
X366492915Y-69420767D01*
X366528550Y-69599918D01*
X366528550Y-69782582D01*
X366492915Y-69961733D01*
X366423014Y-70130490D01*
X366321532Y-70282368D01*
X366192368Y-70411532D01*
X366040490Y-70513014D01*
X365871733Y-70582915D01*
X365692582Y-70618550D01*
X365509918Y-70618550D01*
X365330767Y-70582915D01*
X365162010Y-70513014D01*
X365010132Y-70411532D01*
X364880968Y-70282368D01*
X364779486Y-70130490D01*
X364709585Y-69961733D01*
X364673950Y-69782582D01*
X364673950Y-69599918D01*
X364709585Y-69420767D01*
X364779486Y-69252010D01*
X364880968Y-69100132D01*
X365010132Y-68970968D01*
X365162010Y-68869486D01*
X365330767Y-68799585D01*
X365509918Y-68763950D01*
X365692582Y-68763950D01*
X365871733Y-68799585D01*
X365871733Y-68799585D01*
G37*
G36*
X350631733Y-68799585D02*
G01*
X350800490Y-68869486D01*
X350952368Y-68970968D01*
X351081532Y-69100132D01*
X351183014Y-69252010D01*
X351252915Y-69420767D01*
X351288550Y-69599918D01*
X351288550Y-69782582D01*
X351252915Y-69961733D01*
X351183014Y-70130490D01*
X351081532Y-70282368D01*
X350952368Y-70411532D01*
X350800490Y-70513014D01*
X350631733Y-70582915D01*
X350452582Y-70618550D01*
X350269918Y-70618550D01*
X350090767Y-70582915D01*
X349922010Y-70513014D01*
X349770132Y-70411532D01*
X349640968Y-70282368D01*
X349539486Y-70130490D01*
X349469585Y-69961733D01*
X349433950Y-69782582D01*
X349433950Y-69599918D01*
X349469585Y-69420767D01*
X349539486Y-69252010D01*
X349640968Y-69100132D01*
X349770132Y-68970968D01*
X349922010Y-68869486D01*
X350090767Y-68799585D01*
X350269918Y-68763950D01*
X350452582Y-68763950D01*
X350631733Y-68799585D01*
X350631733Y-68799585D01*
G37*
G36*
X365871733Y-66259585D02*
G01*
X366040490Y-66329486D01*
X366192368Y-66430968D01*
X366321532Y-66560132D01*
X366423014Y-66712010D01*
X366492915Y-66880767D01*
X366528550Y-67059918D01*
X366528550Y-67242582D01*
X366492915Y-67421733D01*
X366423014Y-67590490D01*
X366321532Y-67742368D01*
X366192368Y-67871532D01*
X366040490Y-67973014D01*
X365871733Y-68042915D01*
X365692582Y-68078550D01*
X365509918Y-68078550D01*
X365330767Y-68042915D01*
X365162010Y-67973014D01*
X365010132Y-67871532D01*
X364880968Y-67742368D01*
X364779486Y-67590490D01*
X364709585Y-67421733D01*
X364673950Y-67242582D01*
X364673950Y-67059918D01*
X364709585Y-66880767D01*
X364779486Y-66712010D01*
X364880968Y-66560132D01*
X365010132Y-66430968D01*
X365162010Y-66329486D01*
X365330767Y-66259585D01*
X365509918Y-66223950D01*
X365692582Y-66223950D01*
X365871733Y-66259585D01*
X365871733Y-66259585D01*
G37*
G36*
X350631733Y-66259585D02*
G01*
X350800490Y-66329486D01*
X350952368Y-66430968D01*
X351081532Y-66560132D01*
X351183014Y-66712010D01*
X351252915Y-66880767D01*
X351288550Y-67059918D01*
X351288550Y-67242582D01*
X351252915Y-67421733D01*
X351183014Y-67590490D01*
X351081532Y-67742368D01*
X350952368Y-67871532D01*
X350800490Y-67973014D01*
X350631733Y-68042915D01*
X350452582Y-68078550D01*
X350269918Y-68078550D01*
X350090767Y-68042915D01*
X349922010Y-67973014D01*
X349770132Y-67871532D01*
X349640968Y-67742368D01*
X349539486Y-67590490D01*
X349469585Y-67421733D01*
X349433950Y-67242582D01*
X349433950Y-67059918D01*
X349469585Y-66880767D01*
X349539486Y-66712010D01*
X349640968Y-66560132D01*
X349770132Y-66430968D01*
X349922010Y-66329486D01*
X350090767Y-66259585D01*
X350269918Y-66223950D01*
X350452582Y-66223950D01*
X350631733Y-66259585D01*
X350631733Y-66259585D01*
G37*
G36*
X392596823Y-65836313D02*
G01*
X392757242Y-65884976D01*
X392889906Y-65955886D01*
X392905078Y-65963996D01*
X393034659Y-66070341D01*
X393141004Y-66199922D01*
X393141005Y-66199924D01*
X393220024Y-66347758D01*
X393268687Y-66508177D01*
X393285117Y-66675000D01*
X393268687Y-66841823D01*
X393220024Y-67002242D01*
X393189195Y-67059919D01*
X393141004Y-67150078D01*
X393034659Y-67279659D01*
X392905078Y-67386004D01*
X392905076Y-67386005D01*
X392757242Y-67465024D01*
X392596823Y-67513687D01*
X392471804Y-67526000D01*
X392388196Y-67526000D01*
X392263177Y-67513687D01*
X392102758Y-67465024D01*
X391954924Y-67386005D01*
X391954922Y-67386004D01*
X391825341Y-67279659D01*
X391718996Y-67150078D01*
X391670805Y-67059919D01*
X391639976Y-67002242D01*
X391591313Y-66841823D01*
X391574883Y-66675000D01*
X391591313Y-66508177D01*
X391639976Y-66347758D01*
X391718995Y-66199924D01*
X391718996Y-66199922D01*
X391825341Y-66070341D01*
X391954922Y-65963996D01*
X391970094Y-65955886D01*
X392102758Y-65884976D01*
X392263177Y-65836313D01*
X392388196Y-65824000D01*
X392471804Y-65824000D01*
X392596823Y-65836313D01*
X392596823Y-65836313D01*
G37*
G36*
X400901000Y-67526000D02*
G01*
X399199000Y-67526000D01*
X399199000Y-65824000D01*
X400901000Y-65824000D01*
X400901000Y-67526000D01*
X400901000Y-67526000D01*
G37*
G36*
X381851000Y-67526000D02*
G01*
X380149000Y-67526000D01*
X380149000Y-65824000D01*
X381851000Y-65824000D01*
X381851000Y-67526000D01*
X381851000Y-67526000D01*
G37*
G36*
X335446823Y-65836313D02*
G01*
X335607242Y-65884976D01*
X335739906Y-65955886D01*
X335755078Y-65963996D01*
X335884659Y-66070341D01*
X335991004Y-66199922D01*
X335991005Y-66199924D01*
X336070024Y-66347758D01*
X336118687Y-66508177D01*
X336135117Y-66675000D01*
X336118687Y-66841823D01*
X336070024Y-67002242D01*
X336039195Y-67059919D01*
X335991004Y-67150078D01*
X335884659Y-67279659D01*
X335755078Y-67386004D01*
X335755076Y-67386005D01*
X335607242Y-67465024D01*
X335446823Y-67513687D01*
X335321804Y-67526000D01*
X335238196Y-67526000D01*
X335113177Y-67513687D01*
X334952758Y-67465024D01*
X334804924Y-67386005D01*
X334804922Y-67386004D01*
X334675341Y-67279659D01*
X334568996Y-67150078D01*
X334520805Y-67059919D01*
X334489976Y-67002242D01*
X334441313Y-66841823D01*
X334424883Y-66675000D01*
X334441313Y-66508177D01*
X334489976Y-66347758D01*
X334568995Y-66199924D01*
X334568996Y-66199922D01*
X334675341Y-66070341D01*
X334804922Y-65963996D01*
X334820094Y-65955886D01*
X334952758Y-65884976D01*
X335113177Y-65836313D01*
X335238196Y-65824000D01*
X335321804Y-65824000D01*
X335446823Y-65836313D01*
X335446823Y-65836313D01*
G37*
G36*
X343751000Y-67526000D02*
G01*
X342049000Y-67526000D01*
X342049000Y-65824000D01*
X343751000Y-65824000D01*
X343751000Y-67526000D01*
X343751000Y-67526000D01*
G37*
G36*
X354496823Y-65836313D02*
G01*
X354657242Y-65884976D01*
X354789906Y-65955886D01*
X354805078Y-65963996D01*
X354934659Y-66070341D01*
X355041004Y-66199922D01*
X355041005Y-66199924D01*
X355120024Y-66347758D01*
X355168687Y-66508177D01*
X355185117Y-66675000D01*
X355168687Y-66841823D01*
X355120024Y-67002242D01*
X355089195Y-67059919D01*
X355041004Y-67150078D01*
X354934659Y-67279659D01*
X354805078Y-67386004D01*
X354805076Y-67386005D01*
X354657242Y-67465024D01*
X354496823Y-67513687D01*
X354371804Y-67526000D01*
X354288196Y-67526000D01*
X354163177Y-67513687D01*
X354002758Y-67465024D01*
X353854924Y-67386005D01*
X353854922Y-67386004D01*
X353725341Y-67279659D01*
X353618996Y-67150078D01*
X353570805Y-67059919D01*
X353539976Y-67002242D01*
X353491313Y-66841823D01*
X353474883Y-66675000D01*
X353491313Y-66508177D01*
X353539976Y-66347758D01*
X353618995Y-66199924D01*
X353618996Y-66199922D01*
X353725341Y-66070341D01*
X353854922Y-65963996D01*
X353870094Y-65955886D01*
X354002758Y-65884976D01*
X354163177Y-65836313D01*
X354288196Y-65824000D01*
X354371804Y-65824000D01*
X354496823Y-65836313D01*
X354496823Y-65836313D01*
G37*
G36*
X362801000Y-67526000D02*
G01*
X361099000Y-67526000D01*
X361099000Y-65824000D01*
X362801000Y-65824000D01*
X362801000Y-67526000D01*
X362801000Y-67526000D01*
G37*
G36*
X373546823Y-65836313D02*
G01*
X373707242Y-65884976D01*
X373839906Y-65955886D01*
X373855078Y-65963996D01*
X373984659Y-66070341D01*
X374091004Y-66199922D01*
X374091005Y-66199924D01*
X374170024Y-66347758D01*
X374218687Y-66508177D01*
X374235117Y-66675000D01*
X374218687Y-66841823D01*
X374170024Y-67002242D01*
X374139195Y-67059919D01*
X374091004Y-67150078D01*
X373984659Y-67279659D01*
X373855078Y-67386004D01*
X373855076Y-67386005D01*
X373707242Y-67465024D01*
X373546823Y-67513687D01*
X373421804Y-67526000D01*
X373338196Y-67526000D01*
X373213177Y-67513687D01*
X373052758Y-67465024D01*
X372904924Y-67386005D01*
X372904922Y-67386004D01*
X372775341Y-67279659D01*
X372668996Y-67150078D01*
X372620805Y-67059919D01*
X372589976Y-67002242D01*
X372541313Y-66841823D01*
X372524883Y-66675000D01*
X372541313Y-66508177D01*
X372589976Y-66347758D01*
X372668995Y-66199924D01*
X372668996Y-66199922D01*
X372775341Y-66070341D01*
X372904922Y-65963996D01*
X372920094Y-65955886D01*
X373052758Y-65884976D01*
X373213177Y-65836313D01*
X373338196Y-65824000D01*
X373421804Y-65824000D01*
X373546823Y-65836313D01*
X373546823Y-65836313D01*
G37*
G36*
X350631733Y-63719585D02*
G01*
X350800490Y-63789486D01*
X350952368Y-63890968D01*
X351081532Y-64020132D01*
X351183014Y-64172010D01*
X351252915Y-64340767D01*
X351288550Y-64519918D01*
X351288550Y-64702582D01*
X351252915Y-64881733D01*
X351183014Y-65050490D01*
X351081532Y-65202368D01*
X350952368Y-65331532D01*
X350800490Y-65433014D01*
X350631733Y-65502915D01*
X350452582Y-65538550D01*
X350269918Y-65538550D01*
X350090767Y-65502915D01*
X349922010Y-65433014D01*
X349770132Y-65331532D01*
X349640968Y-65202368D01*
X349539486Y-65050490D01*
X349469585Y-64881733D01*
X349433950Y-64702582D01*
X349433950Y-64519918D01*
X349469585Y-64340767D01*
X349539486Y-64172010D01*
X349640968Y-64020132D01*
X349770132Y-63890968D01*
X349922010Y-63789486D01*
X350090767Y-63719585D01*
X350269918Y-63683950D01*
X350452582Y-63683950D01*
X350631733Y-63719585D01*
X350631733Y-63719585D01*
G37*
G36*
X365871733Y-63719585D02*
G01*
X366040490Y-63789486D01*
X366192368Y-63890968D01*
X366321532Y-64020132D01*
X366423014Y-64172010D01*
X366492915Y-64340767D01*
X366528550Y-64519918D01*
X366528550Y-64702582D01*
X366492915Y-64881733D01*
X366423014Y-65050490D01*
X366321532Y-65202368D01*
X366192368Y-65331532D01*
X366040490Y-65433014D01*
X365871733Y-65502915D01*
X365692582Y-65538550D01*
X365509918Y-65538550D01*
X365330767Y-65502915D01*
X365162010Y-65433014D01*
X365010132Y-65331532D01*
X364880968Y-65202368D01*
X364779486Y-65050490D01*
X364709585Y-64881733D01*
X364673950Y-64702582D01*
X364673950Y-64519918D01*
X364709585Y-64340767D01*
X364779486Y-64172010D01*
X364880968Y-64020132D01*
X365010132Y-63890968D01*
X365162010Y-63789486D01*
X365330767Y-63719585D01*
X365509918Y-63683950D01*
X365692582Y-63683950D01*
X365871733Y-63719585D01*
X365871733Y-63719585D01*
G37*
G36*
X393895465Y-62510490D02*
G01*
X393935322Y-62518418D01*
X394181189Y-62620259D01*
X394269862Y-62679509D01*
X394402461Y-62768109D01*
X394590641Y-62956289D01*
X394738492Y-63177563D01*
X394840332Y-63423428D01*
X394892250Y-63684437D01*
X394892250Y-63950563D01*
X394878648Y-64018943D01*
X394840332Y-64211572D01*
X394738491Y-64457439D01*
X394590640Y-64678712D01*
X394402462Y-64866890D01*
X394181189Y-65014741D01*
X394181188Y-65014742D01*
X394181187Y-65014742D01*
X393935322Y-65116582D01*
X393674313Y-65168500D01*
X393408187Y-65168500D01*
X393147178Y-65116582D01*
X392901313Y-65014742D01*
X392901312Y-65014742D01*
X392901311Y-65014741D01*
X392680038Y-64866890D01*
X392491860Y-64678712D01*
X392344009Y-64457439D01*
X392242168Y-64211572D01*
X392203852Y-64018943D01*
X392190250Y-63950563D01*
X392190250Y-63684437D01*
X392242168Y-63423428D01*
X392344008Y-63177563D01*
X392491859Y-62956289D01*
X392680039Y-62768109D01*
X392812638Y-62679509D01*
X392901311Y-62620259D01*
X393147178Y-62518418D01*
X393187035Y-62510490D01*
X393408187Y-62466500D01*
X393674313Y-62466500D01*
X393895465Y-62510490D01*
X393895465Y-62510490D01*
G37*
G36*
X374845465Y-62510490D02*
G01*
X374885322Y-62518418D01*
X375131189Y-62620259D01*
X375219862Y-62679509D01*
X375352461Y-62768109D01*
X375540641Y-62956289D01*
X375688492Y-63177563D01*
X375790332Y-63423428D01*
X375842250Y-63684437D01*
X375842250Y-63950563D01*
X375828648Y-64018943D01*
X375790332Y-64211572D01*
X375688491Y-64457439D01*
X375540640Y-64678712D01*
X375352462Y-64866890D01*
X375131189Y-65014741D01*
X375131188Y-65014742D01*
X375131187Y-65014742D01*
X374885322Y-65116582D01*
X374624313Y-65168500D01*
X374358187Y-65168500D01*
X374097178Y-65116582D01*
X373851313Y-65014742D01*
X373851312Y-65014742D01*
X373851311Y-65014741D01*
X373630038Y-64866890D01*
X373441860Y-64678712D01*
X373294009Y-64457439D01*
X373192168Y-64211572D01*
X373153852Y-64018943D01*
X373140250Y-63950563D01*
X373140250Y-63684437D01*
X373192168Y-63423428D01*
X373294008Y-63177563D01*
X373441859Y-62956289D01*
X373630039Y-62768109D01*
X373762638Y-62679509D01*
X373851311Y-62620259D01*
X374097178Y-62518418D01*
X374137035Y-62510490D01*
X374358187Y-62466500D01*
X374624313Y-62466500D01*
X374845465Y-62510490D01*
X374845465Y-62510490D01*
G37*
G36*
X355795465Y-62510490D02*
G01*
X355835322Y-62518418D01*
X356081189Y-62620259D01*
X356169862Y-62679509D01*
X356302461Y-62768109D01*
X356490641Y-62956289D01*
X356638492Y-63177563D01*
X356740332Y-63423428D01*
X356792250Y-63684437D01*
X356792250Y-63950563D01*
X356778648Y-64018943D01*
X356740332Y-64211572D01*
X356638491Y-64457439D01*
X356490640Y-64678712D01*
X356302462Y-64866890D01*
X356081189Y-65014741D01*
X356081188Y-65014742D01*
X356081187Y-65014742D01*
X355835322Y-65116582D01*
X355574313Y-65168500D01*
X355308187Y-65168500D01*
X355047178Y-65116582D01*
X354801313Y-65014742D01*
X354801312Y-65014742D01*
X354801311Y-65014741D01*
X354580038Y-64866890D01*
X354391860Y-64678712D01*
X354244009Y-64457439D01*
X354142168Y-64211572D01*
X354103852Y-64018943D01*
X354090250Y-63950563D01*
X354090250Y-63684437D01*
X354142168Y-63423428D01*
X354244008Y-63177563D01*
X354391859Y-62956289D01*
X354580039Y-62768109D01*
X354712638Y-62679509D01*
X354801311Y-62620259D01*
X355047178Y-62518418D01*
X355087035Y-62510490D01*
X355308187Y-62466500D01*
X355574313Y-62466500D01*
X355795465Y-62510490D01*
X355795465Y-62510490D01*
G37*
G36*
X336745465Y-62510490D02*
G01*
X336785322Y-62518418D01*
X337031189Y-62620259D01*
X337119862Y-62679509D01*
X337252461Y-62768109D01*
X337440641Y-62956289D01*
X337588492Y-63177563D01*
X337690332Y-63423428D01*
X337742250Y-63684437D01*
X337742250Y-63950563D01*
X337728648Y-64018943D01*
X337690332Y-64211572D01*
X337588491Y-64457439D01*
X337440640Y-64678712D01*
X337252462Y-64866890D01*
X337031189Y-65014741D01*
X337031188Y-65014742D01*
X337031187Y-65014742D01*
X336785322Y-65116582D01*
X336524313Y-65168500D01*
X336258187Y-65168500D01*
X335997178Y-65116582D01*
X335751313Y-65014742D01*
X335751312Y-65014742D01*
X335751311Y-65014741D01*
X335530038Y-64866890D01*
X335341860Y-64678712D01*
X335194009Y-64457439D01*
X335092168Y-64211572D01*
X335053852Y-64018943D01*
X335040250Y-63950563D01*
X335040250Y-63684437D01*
X335092168Y-63423428D01*
X335194008Y-63177563D01*
X335341859Y-62956289D01*
X335530039Y-62768109D01*
X335662638Y-62679509D01*
X335751311Y-62620259D01*
X335997178Y-62518418D01*
X336037035Y-62510490D01*
X336258187Y-62466500D01*
X336524313Y-62466500D01*
X336745465Y-62510490D01*
X336745465Y-62510490D01*
G37*
G36*
X331897942Y-62288018D02*
G01*
X331964127Y-62294537D01*
X332133966Y-62346057D01*
X332290491Y-62429722D01*
X332326229Y-62459052D01*
X332427686Y-62542314D01*
X332498416Y-62628500D01*
X332540278Y-62679509D01*
X332623943Y-62836034D01*
X332675463Y-63005873D01*
X332692859Y-63182500D01*
X332675463Y-63359127D01*
X332623943Y-63528966D01*
X332540278Y-63685491D01*
X332512298Y-63719585D01*
X332427686Y-63822686D01*
X332326229Y-63905948D01*
X332290491Y-63935278D01*
X332133966Y-64018943D01*
X331964127Y-64070463D01*
X331897942Y-64076982D01*
X331831760Y-64083500D01*
X331743240Y-64083500D01*
X331677058Y-64076982D01*
X331610873Y-64070463D01*
X331441034Y-64018943D01*
X331284509Y-63935278D01*
X331248771Y-63905948D01*
X331147314Y-63822686D01*
X331062702Y-63719585D01*
X331034722Y-63685491D01*
X330951057Y-63528966D01*
X330899537Y-63359127D01*
X330882141Y-63182500D01*
X330899537Y-63005873D01*
X330951057Y-62836034D01*
X331034722Y-62679509D01*
X331076584Y-62628500D01*
X331147314Y-62542314D01*
X331248771Y-62459052D01*
X331284509Y-62429722D01*
X331441034Y-62346057D01*
X331610873Y-62294537D01*
X331677058Y-62288018D01*
X331743240Y-62281500D01*
X331831760Y-62281500D01*
X331897942Y-62288018D01*
X331897942Y-62288018D01*
G37*
G36*
X403335442Y-62288018D02*
G01*
X403401627Y-62294537D01*
X403571466Y-62346057D01*
X403727991Y-62429722D01*
X403763729Y-62459052D01*
X403865186Y-62542314D01*
X403935916Y-62628500D01*
X403977778Y-62679509D01*
X404061443Y-62836034D01*
X404112963Y-63005873D01*
X404130359Y-63182500D01*
X404112963Y-63359127D01*
X404061443Y-63528966D01*
X403977778Y-63685491D01*
X403949798Y-63719585D01*
X403865186Y-63822686D01*
X403763729Y-63905948D01*
X403727991Y-63935278D01*
X403571466Y-64018943D01*
X403401627Y-64070463D01*
X403335442Y-64076982D01*
X403269260Y-64083500D01*
X403180740Y-64083500D01*
X403114558Y-64076982D01*
X403048373Y-64070463D01*
X402878534Y-64018943D01*
X402722009Y-63935278D01*
X402686271Y-63905948D01*
X402584814Y-63822686D01*
X402500202Y-63719585D01*
X402472222Y-63685491D01*
X402388557Y-63528966D01*
X402337037Y-63359127D01*
X402319641Y-63182500D01*
X402337037Y-63005873D01*
X402388557Y-62836034D01*
X402472222Y-62679509D01*
X402514084Y-62628500D01*
X402584814Y-62542314D01*
X402686271Y-62459052D01*
X402722009Y-62429722D01*
X402878534Y-62346057D01*
X403048373Y-62294537D01*
X403114558Y-62288018D01*
X403180740Y-62281500D01*
X403269260Y-62281500D01*
X403335442Y-62288018D01*
X403335442Y-62288018D01*
G37*
G36*
X365871733Y-61179585D02*
G01*
X366040490Y-61249486D01*
X366192368Y-61350968D01*
X366321532Y-61480132D01*
X366423014Y-61632010D01*
X366492915Y-61800767D01*
X366528550Y-61979918D01*
X366528550Y-62162582D01*
X366492915Y-62341733D01*
X366423014Y-62510490D01*
X366321532Y-62662368D01*
X366192368Y-62791532D01*
X366040490Y-62893014D01*
X365871733Y-62962915D01*
X365692582Y-62998550D01*
X365509918Y-62998550D01*
X365330767Y-62962915D01*
X365162010Y-62893014D01*
X365010132Y-62791532D01*
X364880968Y-62662368D01*
X364779486Y-62510490D01*
X364709585Y-62341733D01*
X364673950Y-62162582D01*
X364673950Y-61979918D01*
X364709585Y-61800767D01*
X364779486Y-61632010D01*
X364880968Y-61480132D01*
X365010132Y-61350968D01*
X365162010Y-61249486D01*
X365330767Y-61179585D01*
X365509918Y-61143950D01*
X365692582Y-61143950D01*
X365871733Y-61179585D01*
X365871733Y-61179585D01*
G37*
G36*
X350631733Y-61179585D02*
G01*
X350800490Y-61249486D01*
X350952368Y-61350968D01*
X351081532Y-61480132D01*
X351183014Y-61632010D01*
X351252915Y-61800767D01*
X351288550Y-61979918D01*
X351288550Y-62162582D01*
X351252915Y-62341733D01*
X351183014Y-62510490D01*
X351081532Y-62662368D01*
X350952368Y-62791532D01*
X350800490Y-62893014D01*
X350631733Y-62962915D01*
X350452582Y-62998550D01*
X350269918Y-62998550D01*
X350090767Y-62962915D01*
X349922010Y-62893014D01*
X349770132Y-62791532D01*
X349640968Y-62662368D01*
X349539486Y-62510490D01*
X349469585Y-62341733D01*
X349433950Y-62162582D01*
X349433950Y-61979918D01*
X349469585Y-61800767D01*
X349539486Y-61632010D01*
X349640968Y-61480132D01*
X349770132Y-61350968D01*
X349922010Y-61249486D01*
X350090767Y-61179585D01*
X350269918Y-61143950D01*
X350452582Y-61143950D01*
X350631733Y-61179585D01*
X350631733Y-61179585D01*
G37*
G36*
X343135322Y-59978418D02*
G01*
X343295912Y-60044936D01*
X343381189Y-60080259D01*
X343602462Y-60228110D01*
X343790640Y-60416288D01*
X343883375Y-60555074D01*
X343938492Y-60637563D01*
X344040332Y-60883428D01*
X344092250Y-61144437D01*
X344092250Y-61410563D01*
X344078648Y-61478943D01*
X344040332Y-61671572D01*
X343938491Y-61917439D01*
X343896743Y-61979919D01*
X343790641Y-62138711D01*
X343602461Y-62326891D01*
X343492578Y-62400313D01*
X343381189Y-62474741D01*
X343381188Y-62474742D01*
X343381187Y-62474742D01*
X343135322Y-62576582D01*
X342874313Y-62628500D01*
X342608187Y-62628500D01*
X342347178Y-62576582D01*
X342101313Y-62474742D01*
X342101312Y-62474742D01*
X342101311Y-62474741D01*
X341989922Y-62400313D01*
X341880039Y-62326891D01*
X341691859Y-62138711D01*
X341585757Y-61979919D01*
X341544009Y-61917439D01*
X341442168Y-61671572D01*
X341403852Y-61478943D01*
X341390250Y-61410563D01*
X341390250Y-61144437D01*
X341442168Y-60883428D01*
X341544008Y-60637563D01*
X341599126Y-60555074D01*
X341691860Y-60416288D01*
X341880038Y-60228110D01*
X342101311Y-60080259D01*
X342186589Y-60044936D01*
X342347178Y-59978418D01*
X342608187Y-59926500D01*
X342874313Y-59926500D01*
X343135322Y-59978418D01*
X343135322Y-59978418D01*
G37*
G36*
X362185322Y-59978418D02*
G01*
X362345912Y-60044936D01*
X362431189Y-60080259D01*
X362652462Y-60228110D01*
X362840640Y-60416288D01*
X362933375Y-60555074D01*
X362988492Y-60637563D01*
X363090332Y-60883428D01*
X363142250Y-61144437D01*
X363142250Y-61410563D01*
X363128648Y-61478943D01*
X363090332Y-61671572D01*
X362988491Y-61917439D01*
X362946743Y-61979919D01*
X362840641Y-62138711D01*
X362652461Y-62326891D01*
X362542578Y-62400313D01*
X362431189Y-62474741D01*
X362431188Y-62474742D01*
X362431187Y-62474742D01*
X362185322Y-62576582D01*
X361924313Y-62628500D01*
X361658187Y-62628500D01*
X361397178Y-62576582D01*
X361151313Y-62474742D01*
X361151312Y-62474742D01*
X361151311Y-62474741D01*
X361039922Y-62400313D01*
X360930039Y-62326891D01*
X360741859Y-62138711D01*
X360635757Y-61979919D01*
X360594009Y-61917439D01*
X360492168Y-61671572D01*
X360453852Y-61478943D01*
X360440250Y-61410563D01*
X360440250Y-61144437D01*
X360492168Y-60883428D01*
X360594008Y-60637563D01*
X360649126Y-60555074D01*
X360741860Y-60416288D01*
X360930038Y-60228110D01*
X361151311Y-60080259D01*
X361236589Y-60044936D01*
X361397178Y-59978418D01*
X361658187Y-59926500D01*
X361924313Y-59926500D01*
X362185322Y-59978418D01*
X362185322Y-59978418D01*
G37*
G36*
X381235322Y-59978418D02*
G01*
X381395912Y-60044936D01*
X381481189Y-60080259D01*
X381702462Y-60228110D01*
X381890640Y-60416288D01*
X381983375Y-60555074D01*
X382038492Y-60637563D01*
X382140332Y-60883428D01*
X382192250Y-61144437D01*
X382192250Y-61410563D01*
X382178648Y-61478943D01*
X382140332Y-61671572D01*
X382038491Y-61917439D01*
X381996743Y-61979919D01*
X381890641Y-62138711D01*
X381702461Y-62326891D01*
X381592578Y-62400313D01*
X381481189Y-62474741D01*
X381481188Y-62474742D01*
X381481187Y-62474742D01*
X381235322Y-62576582D01*
X380974313Y-62628500D01*
X380708187Y-62628500D01*
X380447178Y-62576582D01*
X380201313Y-62474742D01*
X380201312Y-62474742D01*
X380201311Y-62474741D01*
X380089922Y-62400313D01*
X379980039Y-62326891D01*
X379791859Y-62138711D01*
X379685757Y-61979919D01*
X379644009Y-61917439D01*
X379542168Y-61671572D01*
X379503852Y-61478943D01*
X379490250Y-61410563D01*
X379490250Y-61144437D01*
X379542168Y-60883428D01*
X379644008Y-60637563D01*
X379699126Y-60555074D01*
X379791860Y-60416288D01*
X379980038Y-60228110D01*
X380201311Y-60080259D01*
X380286589Y-60044936D01*
X380447178Y-59978418D01*
X380708187Y-59926500D01*
X380974313Y-59926500D01*
X381235322Y-59978418D01*
X381235322Y-59978418D01*
G37*
G36*
X400285322Y-59978418D02*
G01*
X400445912Y-60044936D01*
X400531189Y-60080259D01*
X400752462Y-60228110D01*
X400940640Y-60416288D01*
X401033375Y-60555074D01*
X401088492Y-60637563D01*
X401190332Y-60883428D01*
X401242250Y-61144437D01*
X401242250Y-61410563D01*
X401228648Y-61478943D01*
X401190332Y-61671572D01*
X401088491Y-61917439D01*
X401046743Y-61979919D01*
X400940641Y-62138711D01*
X400752461Y-62326891D01*
X400642578Y-62400313D01*
X400531189Y-62474741D01*
X400531188Y-62474742D01*
X400531187Y-62474742D01*
X400285322Y-62576582D01*
X400024313Y-62628500D01*
X399758187Y-62628500D01*
X399497178Y-62576582D01*
X399251313Y-62474742D01*
X399251312Y-62474742D01*
X399251311Y-62474741D01*
X399139922Y-62400313D01*
X399030039Y-62326891D01*
X398841859Y-62138711D01*
X398735757Y-61979919D01*
X398694009Y-61917439D01*
X398592168Y-61671572D01*
X398553852Y-61478943D01*
X398540250Y-61410563D01*
X398540250Y-61144437D01*
X398592168Y-60883428D01*
X398694008Y-60637563D01*
X398749126Y-60555074D01*
X398841860Y-60416288D01*
X399030038Y-60228110D01*
X399251311Y-60080259D01*
X399336589Y-60044936D01*
X399497178Y-59978418D01*
X399758187Y-59926500D01*
X400024313Y-59926500D01*
X400285322Y-59978418D01*
X400285322Y-59978418D01*
G37*
G36*
X331897942Y-59748018D02*
G01*
X331964127Y-59754537D01*
X332133966Y-59806057D01*
X332290491Y-59889722D01*
X332326229Y-59919052D01*
X332427686Y-60002314D01*
X332510948Y-60103771D01*
X332540278Y-60139509D01*
X332623943Y-60296034D01*
X332675463Y-60465873D01*
X332692859Y-60642500D01*
X332675463Y-60819127D01*
X332623943Y-60988966D01*
X332540278Y-61145491D01*
X332512298Y-61179585D01*
X332427686Y-61282686D01*
X332326229Y-61365948D01*
X332290491Y-61395278D01*
X332133966Y-61478943D01*
X331964127Y-61530463D01*
X331897942Y-61536982D01*
X331831760Y-61543500D01*
X331743240Y-61543500D01*
X331677058Y-61536982D01*
X331610873Y-61530463D01*
X331441034Y-61478943D01*
X331284509Y-61395278D01*
X331248771Y-61365948D01*
X331147314Y-61282686D01*
X331062702Y-61179585D01*
X331034722Y-61145491D01*
X330951057Y-60988966D01*
X330899537Y-60819127D01*
X330882141Y-60642500D01*
X330899537Y-60465873D01*
X330951057Y-60296034D01*
X331034722Y-60139509D01*
X331064052Y-60103771D01*
X331147314Y-60002314D01*
X331248771Y-59919052D01*
X331284509Y-59889722D01*
X331441034Y-59806057D01*
X331610873Y-59754537D01*
X331677058Y-59748018D01*
X331743240Y-59741500D01*
X331831760Y-59741500D01*
X331897942Y-59748018D01*
X331897942Y-59748018D01*
G37*
G36*
X403335442Y-59748018D02*
G01*
X403401627Y-59754537D01*
X403571466Y-59806057D01*
X403727991Y-59889722D01*
X403763729Y-59919052D01*
X403865186Y-60002314D01*
X403948448Y-60103771D01*
X403977778Y-60139509D01*
X404061443Y-60296034D01*
X404112963Y-60465873D01*
X404130359Y-60642500D01*
X404112963Y-60819127D01*
X404061443Y-60988966D01*
X403977778Y-61145491D01*
X403949798Y-61179585D01*
X403865186Y-61282686D01*
X403763729Y-61365948D01*
X403727991Y-61395278D01*
X403571466Y-61478943D01*
X403401627Y-61530463D01*
X403335442Y-61536982D01*
X403269260Y-61543500D01*
X403180740Y-61543500D01*
X403114558Y-61536982D01*
X403048373Y-61530463D01*
X402878534Y-61478943D01*
X402722009Y-61395278D01*
X402686271Y-61365948D01*
X402584814Y-61282686D01*
X402500202Y-61179585D01*
X402472222Y-61145491D01*
X402388557Y-60988966D01*
X402337037Y-60819127D01*
X402319641Y-60642500D01*
X402337037Y-60465873D01*
X402388557Y-60296034D01*
X402472222Y-60139509D01*
X402501552Y-60103771D01*
X402584814Y-60002314D01*
X402686271Y-59919052D01*
X402722009Y-59889722D01*
X402878534Y-59806057D01*
X403048373Y-59754537D01*
X403114558Y-59748018D01*
X403180740Y-59741500D01*
X403269260Y-59741500D01*
X403335442Y-59748018D01*
X403335442Y-59748018D01*
G37*
G36*
X358579504Y-56765318D02*
G01*
X358952761Y-56919926D01*
X358952763Y-56919927D01*
X359288686Y-57144384D01*
X359574366Y-57430064D01*
X359792173Y-57756034D01*
X359798824Y-57765989D01*
X359953432Y-58139246D01*
X360032250Y-58535493D01*
X360032250Y-58939507D01*
X359953432Y-59335754D01*
X359817675Y-59663500D01*
X359798823Y-59709013D01*
X359574366Y-60044936D01*
X359288686Y-60330616D01*
X358952763Y-60555073D01*
X358952762Y-60555074D01*
X358952761Y-60555074D01*
X358579504Y-60709682D01*
X358183257Y-60788500D01*
X357779243Y-60788500D01*
X357382996Y-60709682D01*
X357009739Y-60555074D01*
X357009738Y-60555074D01*
X357009737Y-60555073D01*
X356673814Y-60330616D01*
X356388134Y-60044936D01*
X356163677Y-59709013D01*
X356144825Y-59663500D01*
X356009068Y-59335754D01*
X355930250Y-58939507D01*
X355930250Y-58535493D01*
X356009068Y-58139246D01*
X356163676Y-57765989D01*
X356170328Y-57756034D01*
X356388134Y-57430064D01*
X356673814Y-57144384D01*
X357009737Y-56919927D01*
X357009739Y-56919926D01*
X357382996Y-56765318D01*
X357779243Y-56686500D01*
X358183257Y-56686500D01*
X358579504Y-56765318D01*
X358579504Y-56765318D01*
G37*
G36*
X377629504Y-56765318D02*
G01*
X378002761Y-56919926D01*
X378002763Y-56919927D01*
X378338686Y-57144384D01*
X378624366Y-57430064D01*
X378842173Y-57756034D01*
X378848824Y-57765989D01*
X379003432Y-58139246D01*
X379082250Y-58535493D01*
X379082250Y-58939507D01*
X379003432Y-59335754D01*
X378867675Y-59663500D01*
X378848823Y-59709013D01*
X378624366Y-60044936D01*
X378338686Y-60330616D01*
X378002763Y-60555073D01*
X378002762Y-60555074D01*
X378002761Y-60555074D01*
X377629504Y-60709682D01*
X377233257Y-60788500D01*
X376829243Y-60788500D01*
X376432996Y-60709682D01*
X376059739Y-60555074D01*
X376059738Y-60555074D01*
X376059737Y-60555073D01*
X375723814Y-60330616D01*
X375438134Y-60044936D01*
X375213677Y-59709013D01*
X375194825Y-59663500D01*
X375059068Y-59335754D01*
X374980250Y-58939507D01*
X374980250Y-58535493D01*
X375059068Y-58139246D01*
X375213676Y-57765989D01*
X375220328Y-57756034D01*
X375438134Y-57430064D01*
X375723814Y-57144384D01*
X376059737Y-56919927D01*
X376059739Y-56919926D01*
X376432996Y-56765318D01*
X376829243Y-56686500D01*
X377233257Y-56686500D01*
X377629504Y-56765318D01*
X377629504Y-56765318D01*
G37*
G36*
X339529504Y-56765318D02*
G01*
X339902761Y-56919926D01*
X339902763Y-56919927D01*
X340238686Y-57144384D01*
X340524366Y-57430064D01*
X340742173Y-57756034D01*
X340748824Y-57765989D01*
X340903432Y-58139246D01*
X340982250Y-58535493D01*
X340982250Y-58939507D01*
X340903432Y-59335754D01*
X340767675Y-59663500D01*
X340748823Y-59709013D01*
X340524366Y-60044936D01*
X340238686Y-60330616D01*
X339902763Y-60555073D01*
X339902762Y-60555074D01*
X339902761Y-60555074D01*
X339529504Y-60709682D01*
X339133257Y-60788500D01*
X338729243Y-60788500D01*
X338332996Y-60709682D01*
X337959739Y-60555074D01*
X337959738Y-60555074D01*
X337959737Y-60555073D01*
X337623814Y-60330616D01*
X337338134Y-60044936D01*
X337113677Y-59709013D01*
X337094825Y-59663500D01*
X336959068Y-59335754D01*
X336880250Y-58939507D01*
X336880250Y-58535493D01*
X336959068Y-58139246D01*
X337113676Y-57765989D01*
X337120328Y-57756034D01*
X337338134Y-57430064D01*
X337623814Y-57144384D01*
X337959737Y-56919927D01*
X337959739Y-56919926D01*
X338332996Y-56765318D01*
X338729243Y-56686500D01*
X339133257Y-56686500D01*
X339529504Y-56765318D01*
X339529504Y-56765318D01*
G37*
G36*
X396679504Y-56765318D02*
G01*
X397052761Y-56919926D01*
X397052763Y-56919927D01*
X397388686Y-57144384D01*
X397674366Y-57430064D01*
X397892173Y-57756034D01*
X397898824Y-57765989D01*
X398053432Y-58139246D01*
X398132250Y-58535493D01*
X398132250Y-58939507D01*
X398053432Y-59335754D01*
X397917675Y-59663500D01*
X397898823Y-59709013D01*
X397674366Y-60044936D01*
X397388686Y-60330616D01*
X397052763Y-60555073D01*
X397052762Y-60555074D01*
X397052761Y-60555074D01*
X396679504Y-60709682D01*
X396283257Y-60788500D01*
X395879243Y-60788500D01*
X395482996Y-60709682D01*
X395109739Y-60555074D01*
X395109738Y-60555074D01*
X395109737Y-60555073D01*
X394773814Y-60330616D01*
X394488134Y-60044936D01*
X394263677Y-59709013D01*
X394244825Y-59663500D01*
X394109068Y-59335754D01*
X394030250Y-58939507D01*
X394030250Y-58535493D01*
X394109068Y-58139246D01*
X394263676Y-57765989D01*
X394270328Y-57756034D01*
X394488134Y-57430064D01*
X394773814Y-57144384D01*
X395109737Y-56919927D01*
X395109739Y-56919926D01*
X395482996Y-56765318D01*
X395879243Y-56686500D01*
X396283257Y-56686500D01*
X396679504Y-56765318D01*
X396679504Y-56765318D01*
G37*
G36*
X365871733Y-58639585D02*
G01*
X366040490Y-58709486D01*
X366192368Y-58810968D01*
X366321532Y-58940132D01*
X366423014Y-59092010D01*
X366492915Y-59260767D01*
X366528550Y-59439918D01*
X366528550Y-59622582D01*
X366492915Y-59801733D01*
X366423014Y-59970490D01*
X366321532Y-60122368D01*
X366192368Y-60251532D01*
X366040490Y-60353014D01*
X365871733Y-60422915D01*
X365692582Y-60458550D01*
X365509918Y-60458550D01*
X365330767Y-60422915D01*
X365162010Y-60353014D01*
X365010132Y-60251532D01*
X364880968Y-60122368D01*
X364779486Y-59970490D01*
X364709585Y-59801733D01*
X364673950Y-59622582D01*
X364673950Y-59439918D01*
X364709585Y-59260767D01*
X364779486Y-59092010D01*
X364880968Y-58940132D01*
X365010132Y-58810968D01*
X365162010Y-58709486D01*
X365330767Y-58639585D01*
X365509918Y-58603950D01*
X365692582Y-58603950D01*
X365871733Y-58639585D01*
X365871733Y-58639585D01*
G37*
G36*
X350631733Y-58639585D02*
G01*
X350800490Y-58709486D01*
X350952368Y-58810968D01*
X351081532Y-58940132D01*
X351183014Y-59092010D01*
X351252915Y-59260767D01*
X351288550Y-59439918D01*
X351288550Y-59622582D01*
X351252915Y-59801733D01*
X351183014Y-59970490D01*
X351081532Y-60122368D01*
X350952368Y-60251532D01*
X350800490Y-60353014D01*
X350631733Y-60422915D01*
X350452582Y-60458550D01*
X350269918Y-60458550D01*
X350090767Y-60422915D01*
X349922010Y-60353014D01*
X349770132Y-60251532D01*
X349640968Y-60122368D01*
X349539486Y-59970490D01*
X349469585Y-59801733D01*
X349433950Y-59622582D01*
X349433950Y-59439918D01*
X349469585Y-59260767D01*
X349539486Y-59092010D01*
X349640968Y-58940132D01*
X349770132Y-58810968D01*
X349922010Y-58709486D01*
X350090767Y-58639585D01*
X350269918Y-58603950D01*
X350452582Y-58603950D01*
X350631733Y-58639585D01*
X350631733Y-58639585D01*
G37*
G36*
X334121354Y-57847085D02*
G01*
X334289876Y-57916889D01*
X334441541Y-58018228D01*
X334570522Y-58147209D01*
X334671861Y-58298874D01*
X334741665Y-58467396D01*
X334777250Y-58646297D01*
X334777250Y-58828703D01*
X334741665Y-59007604D01*
X334671861Y-59176126D01*
X334570522Y-59327791D01*
X334441541Y-59456772D01*
X334289876Y-59558111D01*
X334121354Y-59627915D01*
X333942453Y-59663500D01*
X333760047Y-59663500D01*
X333581146Y-59627915D01*
X333412624Y-59558111D01*
X333260959Y-59456772D01*
X333131978Y-59327791D01*
X333030639Y-59176126D01*
X332960835Y-59007604D01*
X332925250Y-58828703D01*
X332925250Y-58646297D01*
X332960835Y-58467396D01*
X333030639Y-58298874D01*
X333131978Y-58147209D01*
X333260959Y-58018228D01*
X333412624Y-57916889D01*
X333581146Y-57847085D01*
X333760047Y-57811500D01*
X333942453Y-57811500D01*
X334121354Y-57847085D01*
X334121354Y-57847085D01*
G37*
G36*
X382381354Y-57847085D02*
G01*
X382549876Y-57916889D01*
X382701541Y-58018228D01*
X382830522Y-58147209D01*
X382931861Y-58298874D01*
X383001665Y-58467396D01*
X383037250Y-58646297D01*
X383037250Y-58828703D01*
X383001665Y-59007604D01*
X382931861Y-59176126D01*
X382830522Y-59327791D01*
X382701541Y-59456772D01*
X382549876Y-59558111D01*
X382381354Y-59627915D01*
X382202453Y-59663500D01*
X382020047Y-59663500D01*
X381841146Y-59627915D01*
X381672624Y-59558111D01*
X381520959Y-59456772D01*
X381391978Y-59327791D01*
X381290639Y-59176126D01*
X381220835Y-59007604D01*
X381185250Y-58828703D01*
X381185250Y-58646297D01*
X381220835Y-58467396D01*
X381290639Y-58298874D01*
X381391978Y-58147209D01*
X381520959Y-58018228D01*
X381672624Y-57916889D01*
X381841146Y-57847085D01*
X382020047Y-57811500D01*
X382202453Y-57811500D01*
X382381354Y-57847085D01*
X382381354Y-57847085D01*
G37*
G36*
X401431354Y-57847085D02*
G01*
X401599876Y-57916889D01*
X401751541Y-58018228D01*
X401880522Y-58147209D01*
X401981861Y-58298874D01*
X402051665Y-58467396D01*
X402087250Y-58646297D01*
X402087250Y-58828703D01*
X402051665Y-59007604D01*
X401981861Y-59176126D01*
X401880522Y-59327791D01*
X401751541Y-59456772D01*
X401599876Y-59558111D01*
X401431354Y-59627915D01*
X401252453Y-59663500D01*
X401070047Y-59663500D01*
X400891146Y-59627915D01*
X400722624Y-59558111D01*
X400570959Y-59456772D01*
X400441978Y-59327791D01*
X400340639Y-59176126D01*
X400270835Y-59007604D01*
X400235250Y-58828703D01*
X400235250Y-58646297D01*
X400270835Y-58467396D01*
X400340639Y-58298874D01*
X400441978Y-58147209D01*
X400570959Y-58018228D01*
X400722624Y-57916889D01*
X400891146Y-57847085D01*
X401070047Y-57811500D01*
X401252453Y-57811500D01*
X401431354Y-57847085D01*
X401431354Y-57847085D01*
G37*
G36*
X391271354Y-57847085D02*
G01*
X391439876Y-57916889D01*
X391591541Y-58018228D01*
X391720522Y-58147209D01*
X391821861Y-58298874D01*
X391891665Y-58467396D01*
X391927250Y-58646297D01*
X391927250Y-58828703D01*
X391891665Y-59007604D01*
X391821861Y-59176126D01*
X391720522Y-59327791D01*
X391591541Y-59456772D01*
X391439876Y-59558111D01*
X391271354Y-59627915D01*
X391092453Y-59663500D01*
X390910047Y-59663500D01*
X390731146Y-59627915D01*
X390562624Y-59558111D01*
X390410959Y-59456772D01*
X390281978Y-59327791D01*
X390180639Y-59176126D01*
X390110835Y-59007604D01*
X390075250Y-58828703D01*
X390075250Y-58646297D01*
X390110835Y-58467396D01*
X390180639Y-58298874D01*
X390281978Y-58147209D01*
X390410959Y-58018228D01*
X390562624Y-57916889D01*
X390731146Y-57847085D01*
X390910047Y-57811500D01*
X391092453Y-57811500D01*
X391271354Y-57847085D01*
X391271354Y-57847085D01*
G37*
G36*
X344281354Y-57847085D02*
G01*
X344449876Y-57916889D01*
X344601541Y-58018228D01*
X344730522Y-58147209D01*
X344831861Y-58298874D01*
X344901665Y-58467396D01*
X344937250Y-58646297D01*
X344937250Y-58828703D01*
X344901665Y-59007604D01*
X344831861Y-59176126D01*
X344730522Y-59327791D01*
X344601541Y-59456772D01*
X344449876Y-59558111D01*
X344281354Y-59627915D01*
X344102453Y-59663500D01*
X343920047Y-59663500D01*
X343741146Y-59627915D01*
X343572624Y-59558111D01*
X343420959Y-59456772D01*
X343291978Y-59327791D01*
X343190639Y-59176126D01*
X343120835Y-59007604D01*
X343085250Y-58828703D01*
X343085250Y-58646297D01*
X343120835Y-58467396D01*
X343190639Y-58298874D01*
X343291978Y-58147209D01*
X343420959Y-58018228D01*
X343572624Y-57916889D01*
X343741146Y-57847085D01*
X343920047Y-57811500D01*
X344102453Y-57811500D01*
X344281354Y-57847085D01*
X344281354Y-57847085D01*
G37*
G36*
X353171354Y-57847085D02*
G01*
X353339876Y-57916889D01*
X353491541Y-58018228D01*
X353620522Y-58147209D01*
X353721861Y-58298874D01*
X353791665Y-58467396D01*
X353827250Y-58646297D01*
X353827250Y-58828703D01*
X353791665Y-59007604D01*
X353721861Y-59176126D01*
X353620522Y-59327791D01*
X353491541Y-59456772D01*
X353339876Y-59558111D01*
X353171354Y-59627915D01*
X352992453Y-59663500D01*
X352810047Y-59663500D01*
X352631146Y-59627915D01*
X352462624Y-59558111D01*
X352310959Y-59456772D01*
X352181978Y-59327791D01*
X352080639Y-59176126D01*
X352010835Y-59007604D01*
X351975250Y-58828703D01*
X351975250Y-58646297D01*
X352010835Y-58467396D01*
X352080639Y-58298874D01*
X352181978Y-58147209D01*
X352310959Y-58018228D01*
X352462624Y-57916889D01*
X352631146Y-57847085D01*
X352810047Y-57811500D01*
X352992453Y-57811500D01*
X353171354Y-57847085D01*
X353171354Y-57847085D01*
G37*
G36*
X363331354Y-57847085D02*
G01*
X363499876Y-57916889D01*
X363651541Y-58018228D01*
X363780522Y-58147209D01*
X363881861Y-58298874D01*
X363951665Y-58467396D01*
X363987250Y-58646297D01*
X363987250Y-58828703D01*
X363951665Y-59007604D01*
X363881861Y-59176126D01*
X363780522Y-59327791D01*
X363651541Y-59456772D01*
X363499876Y-59558111D01*
X363331354Y-59627915D01*
X363152453Y-59663500D01*
X362970047Y-59663500D01*
X362791146Y-59627915D01*
X362622624Y-59558111D01*
X362470959Y-59456772D01*
X362341978Y-59327791D01*
X362240639Y-59176126D01*
X362170835Y-59007604D01*
X362135250Y-58828703D01*
X362135250Y-58646297D01*
X362170835Y-58467396D01*
X362240639Y-58298874D01*
X362341978Y-58147209D01*
X362470959Y-58018228D01*
X362622624Y-57916889D01*
X362791146Y-57847085D01*
X362970047Y-57811500D01*
X363152453Y-57811500D01*
X363331354Y-57847085D01*
X363331354Y-57847085D01*
G37*
G36*
X372221354Y-57847085D02*
G01*
X372389876Y-57916889D01*
X372541541Y-58018228D01*
X372670522Y-58147209D01*
X372771861Y-58298874D01*
X372841665Y-58467396D01*
X372877250Y-58646297D01*
X372877250Y-58828703D01*
X372841665Y-59007604D01*
X372771861Y-59176126D01*
X372670522Y-59327791D01*
X372541541Y-59456772D01*
X372389876Y-59558111D01*
X372221354Y-59627915D01*
X372042453Y-59663500D01*
X371860047Y-59663500D01*
X371681146Y-59627915D01*
X371512624Y-59558111D01*
X371360959Y-59456772D01*
X371231978Y-59327791D01*
X371130639Y-59176126D01*
X371060835Y-59007604D01*
X371025250Y-58828703D01*
X371025250Y-58646297D01*
X371060835Y-58467396D01*
X371130639Y-58298874D01*
X371231978Y-58147209D01*
X371360959Y-58018228D01*
X371512624Y-57916889D01*
X371681146Y-57847085D01*
X371860047Y-57811500D01*
X372042453Y-57811500D01*
X372221354Y-57847085D01*
X372221354Y-57847085D01*
G37*
G36*
X331897942Y-57208018D02*
G01*
X331964127Y-57214537D01*
X332133966Y-57266057D01*
X332290491Y-57349722D01*
X332326229Y-57379052D01*
X332427686Y-57462314D01*
X332498416Y-57548500D01*
X332540278Y-57599509D01*
X332623943Y-57756034D01*
X332675463Y-57925873D01*
X332692859Y-58102500D01*
X332675463Y-58279127D01*
X332623943Y-58448966D01*
X332540278Y-58605491D01*
X332512298Y-58639585D01*
X332427686Y-58742686D01*
X332326229Y-58825948D01*
X332290491Y-58855278D01*
X332133966Y-58938943D01*
X331964127Y-58990463D01*
X331897943Y-58996981D01*
X331831760Y-59003500D01*
X331743240Y-59003500D01*
X331677057Y-58996981D01*
X331610873Y-58990463D01*
X331441034Y-58938943D01*
X331284509Y-58855278D01*
X331248771Y-58825948D01*
X331147314Y-58742686D01*
X331062702Y-58639585D01*
X331034722Y-58605491D01*
X330951057Y-58448966D01*
X330899537Y-58279127D01*
X330882141Y-58102500D01*
X330899537Y-57925873D01*
X330951057Y-57756034D01*
X331034722Y-57599509D01*
X331076584Y-57548500D01*
X331147314Y-57462314D01*
X331248771Y-57379052D01*
X331284509Y-57349722D01*
X331441034Y-57266057D01*
X331610873Y-57214537D01*
X331677058Y-57208018D01*
X331743240Y-57201500D01*
X331831760Y-57201500D01*
X331897942Y-57208018D01*
X331897942Y-57208018D01*
G37*
G36*
X403335442Y-57208018D02*
G01*
X403401627Y-57214537D01*
X403571466Y-57266057D01*
X403727991Y-57349722D01*
X403763729Y-57379052D01*
X403865186Y-57462314D01*
X403935916Y-57548500D01*
X403977778Y-57599509D01*
X404061443Y-57756034D01*
X404112963Y-57925873D01*
X404130359Y-58102500D01*
X404112963Y-58279127D01*
X404061443Y-58448966D01*
X403977778Y-58605491D01*
X403949798Y-58639585D01*
X403865186Y-58742686D01*
X403763729Y-58825948D01*
X403727991Y-58855278D01*
X403571466Y-58938943D01*
X403401627Y-58990463D01*
X403335443Y-58996981D01*
X403269260Y-59003500D01*
X403180740Y-59003500D01*
X403114557Y-58996981D01*
X403048373Y-58990463D01*
X402878534Y-58938943D01*
X402722009Y-58855278D01*
X402686271Y-58825948D01*
X402584814Y-58742686D01*
X402500202Y-58639585D01*
X402472222Y-58605491D01*
X402388557Y-58448966D01*
X402337037Y-58279127D01*
X402319641Y-58102500D01*
X402337037Y-57925873D01*
X402388557Y-57756034D01*
X402472222Y-57599509D01*
X402514084Y-57548500D01*
X402584814Y-57462314D01*
X402686271Y-57379052D01*
X402722009Y-57349722D01*
X402878534Y-57266057D01*
X403048373Y-57214537D01*
X403114558Y-57208018D01*
X403180740Y-57201500D01*
X403269260Y-57201500D01*
X403335442Y-57208018D01*
X403335442Y-57208018D01*
G37*
G36*
X350631733Y-56099585D02*
G01*
X350800490Y-56169486D01*
X350952368Y-56270968D01*
X351081532Y-56400132D01*
X351183014Y-56552010D01*
X351252915Y-56720767D01*
X351288550Y-56899918D01*
X351288550Y-57082582D01*
X351252915Y-57261733D01*
X351183014Y-57430490D01*
X351081532Y-57582368D01*
X350952368Y-57711532D01*
X350800490Y-57813014D01*
X350631733Y-57882915D01*
X350452582Y-57918550D01*
X350269918Y-57918550D01*
X350090767Y-57882915D01*
X349922010Y-57813014D01*
X349770132Y-57711532D01*
X349640968Y-57582368D01*
X349539486Y-57430490D01*
X349469585Y-57261733D01*
X349433950Y-57082582D01*
X349433950Y-56899918D01*
X349469585Y-56720767D01*
X349539486Y-56552010D01*
X349640968Y-56400132D01*
X349770132Y-56270968D01*
X349922010Y-56169486D01*
X350090767Y-56099585D01*
X350269918Y-56063950D01*
X350452582Y-56063950D01*
X350631733Y-56099585D01*
X350631733Y-56099585D01*
G37*
G36*
X365871733Y-56099585D02*
G01*
X366040490Y-56169486D01*
X366192368Y-56270968D01*
X366321532Y-56400132D01*
X366423014Y-56552010D01*
X366492915Y-56720767D01*
X366528550Y-56899918D01*
X366528550Y-57082582D01*
X366492915Y-57261733D01*
X366423014Y-57430490D01*
X366321532Y-57582368D01*
X366192368Y-57711532D01*
X366040490Y-57813014D01*
X365871733Y-57882915D01*
X365692582Y-57918550D01*
X365509918Y-57918550D01*
X365330767Y-57882915D01*
X365162010Y-57813014D01*
X365010132Y-57711532D01*
X364880968Y-57582368D01*
X364779486Y-57430490D01*
X364709585Y-57261733D01*
X364673950Y-57082582D01*
X364673950Y-56899918D01*
X364709585Y-56720767D01*
X364779486Y-56552010D01*
X364880968Y-56400132D01*
X365010132Y-56270968D01*
X365162010Y-56169486D01*
X365330767Y-56099585D01*
X365509918Y-56063950D01*
X365692582Y-56063950D01*
X365871733Y-56099585D01*
X365871733Y-56099585D01*
G37*
G36*
X335475465Y-54890490D02*
G01*
X335515322Y-54898418D01*
X335761189Y-55000259D01*
X335982462Y-55148110D01*
X336170640Y-55336288D01*
X336318491Y-55557561D01*
X336420332Y-55803428D01*
X336472250Y-56064438D01*
X336472250Y-56330562D01*
X336420332Y-56591572D01*
X336318491Y-56837439D01*
X336263374Y-56919927D01*
X336170641Y-57058711D01*
X335982461Y-57246891D01*
X335872578Y-57320313D01*
X335761189Y-57394741D01*
X335761188Y-57394742D01*
X335761187Y-57394742D01*
X335515322Y-57496582D01*
X335254313Y-57548500D01*
X334988187Y-57548500D01*
X334727178Y-57496582D01*
X334481313Y-57394742D01*
X334481312Y-57394742D01*
X334481311Y-57394741D01*
X334369922Y-57320313D01*
X334260039Y-57246891D01*
X334071859Y-57058711D01*
X333979126Y-56919927D01*
X333924009Y-56837439D01*
X333822168Y-56591572D01*
X333770250Y-56330562D01*
X333770250Y-56064438D01*
X333822168Y-55803428D01*
X333924009Y-55557561D01*
X334071860Y-55336288D01*
X334260038Y-55148110D01*
X334481311Y-55000259D01*
X334727178Y-54898418D01*
X334767035Y-54890490D01*
X334988187Y-54846500D01*
X335254313Y-54846500D01*
X335475465Y-54890490D01*
X335475465Y-54890490D01*
G37*
G36*
X373575465Y-54890490D02*
G01*
X373615322Y-54898418D01*
X373861189Y-55000259D01*
X374082462Y-55148110D01*
X374270640Y-55336288D01*
X374418491Y-55557561D01*
X374520332Y-55803428D01*
X374572250Y-56064438D01*
X374572250Y-56330562D01*
X374520332Y-56591572D01*
X374418491Y-56837439D01*
X374363374Y-56919927D01*
X374270641Y-57058711D01*
X374082461Y-57246891D01*
X373972578Y-57320313D01*
X373861189Y-57394741D01*
X373861188Y-57394742D01*
X373861187Y-57394742D01*
X373615322Y-57496582D01*
X373354313Y-57548500D01*
X373088187Y-57548500D01*
X372827178Y-57496582D01*
X372581313Y-57394742D01*
X372581312Y-57394742D01*
X372581311Y-57394741D01*
X372469922Y-57320313D01*
X372360039Y-57246891D01*
X372171859Y-57058711D01*
X372079126Y-56919927D01*
X372024009Y-56837439D01*
X371922168Y-56591572D01*
X371870250Y-56330562D01*
X371870250Y-56064438D01*
X371922168Y-55803428D01*
X372024009Y-55557561D01*
X372171860Y-55336288D01*
X372360038Y-55148110D01*
X372581311Y-55000259D01*
X372827178Y-54898418D01*
X372867035Y-54890490D01*
X373088187Y-54846500D01*
X373354313Y-54846500D01*
X373575465Y-54890490D01*
X373575465Y-54890490D01*
G37*
G36*
X392625465Y-54890490D02*
G01*
X392665322Y-54898418D01*
X392911189Y-55000259D01*
X393132462Y-55148110D01*
X393320640Y-55336288D01*
X393468491Y-55557561D01*
X393570332Y-55803428D01*
X393622250Y-56064438D01*
X393622250Y-56330562D01*
X393570332Y-56591572D01*
X393468491Y-56837439D01*
X393413374Y-56919927D01*
X393320641Y-57058711D01*
X393132461Y-57246891D01*
X393022578Y-57320313D01*
X392911189Y-57394741D01*
X392911188Y-57394742D01*
X392911187Y-57394742D01*
X392665322Y-57496582D01*
X392404313Y-57548500D01*
X392138187Y-57548500D01*
X391877178Y-57496582D01*
X391631313Y-57394742D01*
X391631312Y-57394742D01*
X391631311Y-57394741D01*
X391519922Y-57320313D01*
X391410039Y-57246891D01*
X391221859Y-57058711D01*
X391129126Y-56919927D01*
X391074009Y-56837439D01*
X390972168Y-56591572D01*
X390920250Y-56330562D01*
X390920250Y-56064438D01*
X390972168Y-55803428D01*
X391074009Y-55557561D01*
X391221860Y-55336288D01*
X391410038Y-55148110D01*
X391631311Y-55000259D01*
X391877178Y-54898418D01*
X391917035Y-54890490D01*
X392138187Y-54846500D01*
X392404313Y-54846500D01*
X392625465Y-54890490D01*
X392625465Y-54890490D01*
G37*
G36*
X354525465Y-54890490D02*
G01*
X354565322Y-54898418D01*
X354811189Y-55000259D01*
X355032462Y-55148110D01*
X355220640Y-55336288D01*
X355368491Y-55557561D01*
X355470332Y-55803428D01*
X355522250Y-56064438D01*
X355522250Y-56330562D01*
X355470332Y-56591572D01*
X355368491Y-56837439D01*
X355313374Y-56919927D01*
X355220641Y-57058711D01*
X355032461Y-57246891D01*
X354922578Y-57320313D01*
X354811189Y-57394741D01*
X354811188Y-57394742D01*
X354811187Y-57394742D01*
X354565322Y-57496582D01*
X354304313Y-57548500D01*
X354038187Y-57548500D01*
X353777178Y-57496582D01*
X353531313Y-57394742D01*
X353531312Y-57394742D01*
X353531311Y-57394741D01*
X353419922Y-57320313D01*
X353310039Y-57246891D01*
X353121859Y-57058711D01*
X353029126Y-56919927D01*
X352974009Y-56837439D01*
X352872168Y-56591572D01*
X352820250Y-56330562D01*
X352820250Y-56064438D01*
X352872168Y-55803428D01*
X352974009Y-55557561D01*
X353121860Y-55336288D01*
X353310038Y-55148110D01*
X353531311Y-55000259D01*
X353777178Y-54898418D01*
X353817035Y-54890490D01*
X354038187Y-54846500D01*
X354304313Y-54846500D01*
X354525465Y-54890490D01*
X354525465Y-54890490D01*
G37*
G36*
X332688500Y-56463500D02*
G01*
X330886500Y-56463500D01*
X330886500Y-54661500D01*
X332688500Y-54661500D01*
X332688500Y-56463500D01*
X332688500Y-56463500D01*
G37*
G36*
X404126000Y-56463500D02*
G01*
X402324000Y-56463500D01*
X402324000Y-54661500D01*
X404126000Y-54661500D01*
X404126000Y-56463500D01*
X404126000Y-56463500D01*
G37*
G36*
X350631733Y-53559585D02*
G01*
X350800490Y-53629486D01*
X350952368Y-53730968D01*
X351081532Y-53860132D01*
X351183014Y-54012010D01*
X351252915Y-54180767D01*
X351288550Y-54359918D01*
X351288550Y-54542582D01*
X351252915Y-54721733D01*
X351183014Y-54890490D01*
X351081532Y-55042368D01*
X350952368Y-55171532D01*
X350800490Y-55273014D01*
X350631733Y-55342915D01*
X350452582Y-55378550D01*
X350269918Y-55378550D01*
X350090767Y-55342915D01*
X349922010Y-55273014D01*
X349770132Y-55171532D01*
X349640968Y-55042368D01*
X349539486Y-54890490D01*
X349469585Y-54721733D01*
X349433950Y-54542582D01*
X349433950Y-54359918D01*
X349469585Y-54180767D01*
X349539486Y-54012010D01*
X349640968Y-53860132D01*
X349770132Y-53730968D01*
X349922010Y-53629486D01*
X350090767Y-53559585D01*
X350269918Y-53523950D01*
X350452582Y-53523950D01*
X350631733Y-53559585D01*
X350631733Y-53559585D01*
G37*
G36*
X365871733Y-53559585D02*
G01*
X366040490Y-53629486D01*
X366192368Y-53730968D01*
X366321532Y-53860132D01*
X366423014Y-54012010D01*
X366492915Y-54180767D01*
X366528550Y-54359918D01*
X366528550Y-54542582D01*
X366492915Y-54721733D01*
X366423014Y-54890490D01*
X366321532Y-55042368D01*
X366192368Y-55171532D01*
X366040490Y-55273014D01*
X365871733Y-55342915D01*
X365692582Y-55378550D01*
X365509918Y-55378550D01*
X365330767Y-55342915D01*
X365162010Y-55273014D01*
X365010132Y-55171532D01*
X364880968Y-55042368D01*
X364779486Y-54890490D01*
X364709585Y-54721733D01*
X364673950Y-54542582D01*
X364673950Y-54359918D01*
X364709585Y-54180767D01*
X364779486Y-54012010D01*
X364880968Y-53860132D01*
X365010132Y-53730968D01*
X365162010Y-53629486D01*
X365330767Y-53559585D01*
X365509918Y-53523950D01*
X365692582Y-53523950D01*
X365871733Y-53559585D01*
X365871733Y-53559585D01*
G37*
G36*
X341825465Y-52350490D02*
G01*
X341865322Y-52358418D01*
X342111189Y-52460259D01*
X342332462Y-52608110D01*
X342520640Y-52796288D01*
X342668491Y-53017561D01*
X342770332Y-53263428D01*
X342822250Y-53524438D01*
X342822250Y-53790562D01*
X342770332Y-54051572D01*
X342668491Y-54297439D01*
X342520640Y-54518712D01*
X342332462Y-54706890D01*
X342111189Y-54854741D01*
X342111188Y-54854742D01*
X342111187Y-54854742D01*
X341865322Y-54956582D01*
X341604313Y-55008500D01*
X341338187Y-55008500D01*
X341077178Y-54956582D01*
X340831313Y-54854742D01*
X340831312Y-54854742D01*
X340831311Y-54854741D01*
X340610038Y-54706890D01*
X340421860Y-54518712D01*
X340274009Y-54297439D01*
X340172168Y-54051572D01*
X340120250Y-53790562D01*
X340120250Y-53524438D01*
X340172168Y-53263428D01*
X340274009Y-53017561D01*
X340421860Y-52796288D01*
X340610038Y-52608110D01*
X340831311Y-52460259D01*
X341077178Y-52358418D01*
X341117035Y-52350490D01*
X341338187Y-52306500D01*
X341604313Y-52306500D01*
X341825465Y-52350490D01*
X341825465Y-52350490D01*
G37*
G36*
X398975465Y-52350490D02*
G01*
X399015322Y-52358418D01*
X399261189Y-52460259D01*
X399482462Y-52608110D01*
X399670640Y-52796288D01*
X399818491Y-53017561D01*
X399920332Y-53263428D01*
X399972250Y-53524438D01*
X399972250Y-53790562D01*
X399920332Y-54051572D01*
X399818491Y-54297439D01*
X399670640Y-54518712D01*
X399482462Y-54706890D01*
X399261189Y-54854741D01*
X399261188Y-54854742D01*
X399261187Y-54854742D01*
X399015322Y-54956582D01*
X398754313Y-55008500D01*
X398488187Y-55008500D01*
X398227178Y-54956582D01*
X397981313Y-54854742D01*
X397981312Y-54854742D01*
X397981311Y-54854741D01*
X397760038Y-54706890D01*
X397571860Y-54518712D01*
X397424009Y-54297439D01*
X397322168Y-54051572D01*
X397270250Y-53790562D01*
X397270250Y-53524438D01*
X397322168Y-53263428D01*
X397424009Y-53017561D01*
X397571860Y-52796288D01*
X397760038Y-52608110D01*
X397981311Y-52460259D01*
X398227178Y-52358418D01*
X398267035Y-52350490D01*
X398488187Y-52306500D01*
X398754313Y-52306500D01*
X398975465Y-52350490D01*
X398975465Y-52350490D01*
G37*
G36*
X379925465Y-52350490D02*
G01*
X379965322Y-52358418D01*
X380211189Y-52460259D01*
X380432462Y-52608110D01*
X380620640Y-52796288D01*
X380768491Y-53017561D01*
X380870332Y-53263428D01*
X380922250Y-53524438D01*
X380922250Y-53790562D01*
X380870332Y-54051572D01*
X380768491Y-54297439D01*
X380620640Y-54518712D01*
X380432462Y-54706890D01*
X380211189Y-54854741D01*
X380211188Y-54854742D01*
X380211187Y-54854742D01*
X379965322Y-54956582D01*
X379704313Y-55008500D01*
X379438187Y-55008500D01*
X379177178Y-54956582D01*
X378931313Y-54854742D01*
X378931312Y-54854742D01*
X378931311Y-54854741D01*
X378710038Y-54706890D01*
X378521860Y-54518712D01*
X378374009Y-54297439D01*
X378272168Y-54051572D01*
X378220250Y-53790562D01*
X378220250Y-53524438D01*
X378272168Y-53263428D01*
X378374009Y-53017561D01*
X378521860Y-52796288D01*
X378710038Y-52608110D01*
X378931311Y-52460259D01*
X379177178Y-52358418D01*
X379217035Y-52350490D01*
X379438187Y-52306500D01*
X379704313Y-52306500D01*
X379925465Y-52350490D01*
X379925465Y-52350490D01*
G37*
G36*
X360875465Y-52350490D02*
G01*
X360915322Y-52358418D01*
X361161189Y-52460259D01*
X361382462Y-52608110D01*
X361570640Y-52796288D01*
X361718491Y-53017561D01*
X361820332Y-53263428D01*
X361872250Y-53524438D01*
X361872250Y-53790562D01*
X361820332Y-54051572D01*
X361718491Y-54297439D01*
X361570640Y-54518712D01*
X361382462Y-54706890D01*
X361161189Y-54854741D01*
X361161188Y-54854742D01*
X361161187Y-54854742D01*
X360915322Y-54956582D01*
X360654313Y-55008500D01*
X360388187Y-55008500D01*
X360127178Y-54956582D01*
X359881313Y-54854742D01*
X359881312Y-54854742D01*
X359881311Y-54854741D01*
X359660038Y-54706890D01*
X359471860Y-54518712D01*
X359324009Y-54297439D01*
X359222168Y-54051572D01*
X359170250Y-53790562D01*
X359170250Y-53524438D01*
X359222168Y-53263428D01*
X359324009Y-53017561D01*
X359471860Y-52796288D01*
X359660038Y-52608110D01*
X359881311Y-52460259D01*
X360127178Y-52358418D01*
X360167035Y-52350490D01*
X360388187Y-52306500D01*
X360654313Y-52306500D01*
X360875465Y-52350490D01*
X360875465Y-52350490D01*
G37*
G36*
X365871733Y-51019585D02*
G01*
X366040490Y-51089486D01*
X366192368Y-51190968D01*
X366321532Y-51320132D01*
X366423014Y-51472010D01*
X366492915Y-51640767D01*
X366528550Y-51819918D01*
X366528550Y-52002582D01*
X366492915Y-52181733D01*
X366423014Y-52350490D01*
X366321532Y-52502368D01*
X366192368Y-52631532D01*
X366040490Y-52733014D01*
X365871733Y-52802915D01*
X365692582Y-52838550D01*
X365509918Y-52838550D01*
X365330767Y-52802915D01*
X365162010Y-52733014D01*
X365010132Y-52631532D01*
X364880968Y-52502368D01*
X364779486Y-52350490D01*
X364709585Y-52181733D01*
X364673950Y-52002582D01*
X364673950Y-51819918D01*
X364709585Y-51640767D01*
X364779486Y-51472010D01*
X364880968Y-51320132D01*
X365010132Y-51190968D01*
X365162010Y-51089486D01*
X365330767Y-51019585D01*
X365509918Y-50983950D01*
X365692582Y-50983950D01*
X365871733Y-51019585D01*
X365871733Y-51019585D01*
G37*
G36*
X351288550Y-52838550D02*
G01*
X349433950Y-52838550D01*
X349433950Y-50983950D01*
X351288550Y-50983950D01*
X351288550Y-52838550D01*
X351288550Y-52838550D01*
G37*
M02*
