G04 #@! TF.GenerationSoftware,KiCad,Pcbnew,(5.1.4)-1*
G04 #@! TF.CreationDate,2021-01-30T00:10:11-06:00*
G04 #@! TF.ProjectId,65MAIN,36354d41-494e-42e6-9b69-6361645f7063,rev?*
G04 #@! TF.SameCoordinates,Original*
G04 #@! TF.FileFunction,Copper,L1,Top*
G04 #@! TF.FilePolarity,Positive*
%FSLAX46Y46*%
G04 Gerber Fmt 4.6, Leading zero omitted, Abs format (unit mm)*
G04 Created by KiCad (PCBNEW (5.1.4)-1) date 2021-01-30 00:10:11*
%MOMM*%
%LPD*%
G04 APERTURE LIST*
%ADD10C,2.600000*%
%ADD11O,1.700000X1.700000*%
%ADD12R,1.700000X1.700000*%
%ADD13R,1.600000X1.600000*%
%ADD14O,1.600000X1.600000*%
%ADD15R,1.752600X1.752600*%
%ADD16C,1.752600*%
%ADD17C,0.800000*%
%ADD18C,0.254000*%
%ADD19C,0.381000*%
G04 APERTURE END LIST*
D10*
X123190000Y-132397500D03*
X129540000Y-129857500D03*
X242252500Y-113347500D03*
X248602500Y-110807500D03*
X8890000Y-94297500D03*
X15240000Y-91757500D03*
X258921250Y-56197500D03*
X265271250Y-53657500D03*
X20002500Y-110807500D03*
X13652500Y-113347500D03*
X262890000Y-91757500D03*
X256540000Y-94297500D03*
X4127500Y-132397500D03*
X10477500Y-129857500D03*
X27940000Y-132397500D03*
X34290000Y-129857500D03*
X218440000Y-132397500D03*
X224790000Y-129857500D03*
X194627500Y-132397500D03*
X200977500Y-129857500D03*
X51752500Y-132397500D03*
X58102500Y-129857500D03*
X6508750Y-75247500D03*
X12858750Y-72707500D03*
X263683750Y-75247500D03*
X270033750Y-72707500D03*
X1746250Y-56197500D03*
X8096250Y-53657500D03*
X54133750Y-94297500D03*
X60483750Y-91757500D03*
X20796250Y-56197500D03*
X27146250Y-53657500D03*
X225583750Y-94297500D03*
X231933750Y-91757500D03*
X120808750Y-113347500D03*
X127158750Y-110807500D03*
X216058750Y-113347500D03*
X222408750Y-110807500D03*
X187483750Y-94297500D03*
X193833750Y-91757500D03*
X111283750Y-94297500D03*
X117633750Y-91757500D03*
X82708750Y-113347500D03*
X89058750Y-110807500D03*
X139858750Y-113347500D03*
X146208750Y-110807500D03*
X239871250Y-75247500D03*
X246221250Y-72707500D03*
X49371250Y-75247500D03*
X55721250Y-72707500D03*
X154146250Y-56197500D03*
X160496250Y-53657500D03*
X192246250Y-56197500D03*
X198596250Y-53657500D03*
X44608750Y-113347500D03*
X50958750Y-110807500D03*
X125571250Y-75247500D03*
X131921250Y-72707500D03*
X63658750Y-113347500D03*
X70008750Y-110807500D03*
X101758750Y-113347500D03*
X108108750Y-110807500D03*
X268446250Y-113347500D03*
X274796250Y-110807500D03*
X144621250Y-75247500D03*
X150971250Y-72707500D03*
X39846250Y-56197500D03*
X46196250Y-53657500D03*
X58896250Y-56197500D03*
X65246250Y-53657500D03*
X106521250Y-75247500D03*
X112871250Y-72707500D03*
X116046250Y-56197500D03*
X122396250Y-53657500D03*
X135096250Y-56197500D03*
X141446250Y-53657500D03*
X206533750Y-94297500D03*
X212883750Y-91757500D03*
X287496250Y-132397500D03*
X293846250Y-129857500D03*
X87471250Y-75247500D03*
X93821250Y-72707500D03*
X30321250Y-75247500D03*
X36671250Y-72707500D03*
X287496250Y-94297500D03*
X293846250Y-91757500D03*
X287496250Y-113347500D03*
X293846250Y-110807500D03*
X197008750Y-113347500D03*
X203358750Y-110807500D03*
X201771250Y-75247500D03*
X208121250Y-72707500D03*
X182721250Y-75247500D03*
X189071250Y-72707500D03*
X173196250Y-56197500D03*
X179546250Y-53657500D03*
X211296250Y-56197500D03*
X217646250Y-53657500D03*
X158908750Y-113347500D03*
X165258750Y-110807500D03*
X249396250Y-132397500D03*
X255746250Y-129857500D03*
X220821250Y-75247500D03*
X227171250Y-72707500D03*
X168433750Y-94297500D03*
X174783750Y-91757500D03*
X149383750Y-94297500D03*
X155733750Y-91757500D03*
X163671250Y-75247500D03*
X170021250Y-72707500D03*
X287496250Y-75247500D03*
X293846250Y-72707500D03*
X130333750Y-94297500D03*
X136683750Y-91757500D03*
X77946250Y-56197500D03*
X84296250Y-53657500D03*
X96996250Y-56197500D03*
X103346250Y-53657500D03*
X92233750Y-94297500D03*
X98583750Y-91757500D03*
X230346250Y-56197500D03*
X236696250Y-53657500D03*
X68421250Y-75247500D03*
X74771250Y-72707500D03*
X268446250Y-132397500D03*
X274796250Y-129857500D03*
X287496250Y-56197500D03*
X293846250Y-53657500D03*
X73183750Y-94297500D03*
X79533750Y-91757500D03*
X177958750Y-113347500D03*
X184308750Y-110807500D03*
X35083750Y-94297500D03*
X41433750Y-91757500D03*
D11*
X305593750Y-63182500D03*
X305593750Y-60642500D03*
X305593750Y-58102500D03*
D12*
X305593750Y-55562500D03*
X-8731250Y-55562500D03*
D11*
X-8731250Y-58102500D03*
X-8731250Y-60642500D03*
X-8731250Y-63182500D03*
D13*
X295275000Y-123825000D03*
D14*
X287655000Y-123825000D03*
D13*
X295275000Y-104775000D03*
D14*
X287655000Y-104775000D03*
D13*
X295275000Y-142875000D03*
D14*
X287655000Y-142875000D03*
D13*
X280193750Y-140176250D03*
D14*
X280193750Y-132556250D03*
D13*
X245268750Y-140493750D03*
D14*
X245268750Y-132873750D03*
D13*
X230187500Y-140176250D03*
D14*
X230187500Y-132556250D03*
D13*
X206375000Y-140176250D03*
D14*
X206375000Y-132556250D03*
D13*
X134937500Y-140176250D03*
D14*
X134937500Y-132556250D03*
D13*
X63500000Y-140176250D03*
D14*
X63500000Y-132556250D03*
D13*
X39687500Y-140176250D03*
D14*
X39687500Y-132556250D03*
D13*
X15875000Y-140176250D03*
D14*
X15875000Y-132556250D03*
D13*
X295275000Y-85725000D03*
D14*
X287655000Y-85725000D03*
D13*
X280193750Y-121126250D03*
D14*
X280193750Y-113506250D03*
D13*
X254000000Y-121126250D03*
D14*
X254000000Y-113506250D03*
D13*
X227806250Y-121126250D03*
D14*
X227806250Y-113506250D03*
D13*
X208756250Y-121126250D03*
D14*
X208756250Y-113506250D03*
D13*
X189706250Y-121126250D03*
D14*
X189706250Y-113506250D03*
D13*
X170656250Y-121126250D03*
D14*
X170656250Y-113506250D03*
D13*
X151606250Y-121126250D03*
D14*
X151606250Y-113506250D03*
D13*
X132556250Y-121126250D03*
D14*
X132556250Y-113506250D03*
D13*
X113506250Y-121126250D03*
D14*
X113506250Y-113506250D03*
D13*
X94456250Y-121126250D03*
D14*
X94456250Y-113506250D03*
D13*
X75406250Y-121126250D03*
D14*
X75406250Y-113506250D03*
D13*
X56356250Y-121126250D03*
D14*
X56356250Y-113506250D03*
D13*
X25400000Y-121126250D03*
D14*
X25400000Y-113506250D03*
D13*
X295275000Y-66675000D03*
D14*
X287655000Y-66675000D03*
D13*
X268287500Y-102076250D03*
D14*
X268287500Y-94456250D03*
D13*
X237331250Y-102076250D03*
D14*
X237331250Y-94456250D03*
D13*
X218281250Y-102076250D03*
D14*
X218281250Y-94456250D03*
D13*
X199231250Y-102076250D03*
D14*
X199231250Y-94456250D03*
D13*
X180181250Y-102076250D03*
D14*
X180181250Y-94456250D03*
D13*
X161131250Y-102076250D03*
D14*
X161131250Y-94456250D03*
D13*
X142081250Y-102076250D03*
D14*
X142081250Y-94456250D03*
D13*
X123031250Y-102076250D03*
D14*
X123031250Y-94456250D03*
D13*
X103981250Y-102076250D03*
D14*
X103981250Y-94456250D03*
D13*
X84931250Y-102076250D03*
D14*
X84931250Y-94456250D03*
D13*
X65881250Y-102076250D03*
D14*
X65881250Y-94456250D03*
D13*
X46831250Y-102076250D03*
D14*
X46831250Y-94456250D03*
D13*
X20637500Y-102076250D03*
D14*
X20637500Y-94456250D03*
D13*
X275431250Y-83026250D03*
D14*
X275431250Y-75406250D03*
D13*
X251618750Y-83026250D03*
D14*
X251618750Y-75406250D03*
D13*
X232568750Y-83026250D03*
D14*
X232568750Y-75406250D03*
D13*
X213518750Y-83026250D03*
D14*
X213518750Y-75406250D03*
D13*
X194468750Y-83026250D03*
D14*
X194468750Y-75406250D03*
D13*
X175418750Y-83026250D03*
D14*
X175418750Y-75406250D03*
D13*
X156368750Y-83026250D03*
D14*
X156368750Y-75406250D03*
D13*
X137318750Y-83026250D03*
D14*
X137318750Y-75406250D03*
D13*
X118268750Y-83026250D03*
D14*
X118268750Y-75406250D03*
D13*
X99218750Y-83026250D03*
D14*
X99218750Y-75406250D03*
D13*
X80168750Y-83026250D03*
D14*
X80168750Y-75406250D03*
D13*
X61118750Y-83026250D03*
D14*
X61118750Y-75406250D03*
D13*
X42068750Y-83026250D03*
D14*
X42068750Y-75406250D03*
D13*
X18256250Y-83026250D03*
D14*
X18256250Y-75406250D03*
D13*
X270668750Y-63976250D03*
D14*
X270668750Y-56356250D03*
D13*
X242093750Y-63976250D03*
D14*
X242093750Y-56356250D03*
D13*
X223043750Y-63976250D03*
D14*
X223043750Y-56356250D03*
D13*
X203993750Y-63976250D03*
D14*
X203993750Y-56356250D03*
D13*
X184943750Y-63976250D03*
D14*
X184943750Y-56356250D03*
D13*
X165893750Y-63976250D03*
D14*
X165893750Y-56356250D03*
D13*
X146843750Y-63976250D03*
D14*
X146843750Y-56356250D03*
D13*
X127793750Y-63976250D03*
D14*
X127793750Y-56356250D03*
D13*
X108743750Y-63976250D03*
D14*
X108743750Y-56356250D03*
D13*
X89693750Y-63976250D03*
D14*
X89693750Y-56356250D03*
D13*
X70643750Y-63976250D03*
D14*
X70643750Y-56356250D03*
D13*
X51593750Y-63976250D03*
D14*
X51593750Y-56356250D03*
D13*
X32543750Y-63976250D03*
D14*
X32543750Y-56356250D03*
D13*
X13493750Y-63976250D03*
D14*
X13493750Y-56356250D03*
D15*
X-1270000Y-104457500D03*
D16*
X1270000Y-104457500D03*
X3810000Y-104457500D03*
X6350000Y-104457500D03*
X8890000Y-104457500D03*
X11430000Y-104457500D03*
X13970000Y-104457500D03*
X16510000Y-104457500D03*
X19050000Y-104457500D03*
X21590000Y-104457500D03*
X24130000Y-104457500D03*
X26670000Y-89217500D03*
X24130000Y-89217500D03*
X21590000Y-89217500D03*
X19050000Y-89217500D03*
X16510000Y-89217500D03*
X13970000Y-89217500D03*
X11430000Y-89217500D03*
X8890000Y-89217500D03*
X6350000Y-89217500D03*
X3810000Y-89217500D03*
X1270000Y-89217500D03*
X26670000Y-104457500D03*
X-1270000Y-89217500D03*
D17*
X28575000Y-84931250D03*
X48418750Y-83343750D03*
X92075000Y-91281250D03*
X84137500Y-91281250D03*
X71437500Y-91281250D03*
X65087500Y-91281250D03*
X55562500Y-91281250D03*
X38100000Y-90487500D03*
X30162500Y-90487500D03*
X37306250Y-88106250D03*
X48418750Y-88106250D03*
X249237500Y-87312500D03*
X34925000Y-88900000D03*
X48418750Y-89106253D03*
X32543750Y-89693750D03*
X48418750Y-90106256D03*
X3968750Y-74612500D03*
X-1587500Y-58737500D03*
X-793750Y-59531250D03*
X-793750Y-63500000D03*
X45243750Y-118268750D03*
X36512500Y-99218750D03*
X31750000Y-96837500D03*
X34131250Y-100806250D03*
X240506250Y-101600000D03*
X231775000Y-100806250D03*
X28575000Y-83343750D03*
X27781250Y-69850000D03*
X153987500Y-74612500D03*
X158394683Y-70999067D03*
X64293750Y-67468750D03*
X77787500Y-67468750D03*
D18*
X20796250Y-65722500D02*
X30321250Y-75247500D01*
X20796250Y-56197500D02*
X20796250Y-65722500D01*
X35083750Y-103822500D02*
X44608750Y-113347500D01*
X35083750Y-94297500D02*
X35083750Y-103822500D01*
X1746250Y-70485000D02*
X6508750Y-75247500D01*
X1746250Y-56197500D02*
X1746250Y-70485000D01*
X19496251Y-54897501D02*
X20796250Y-56197500D01*
X13284537Y-54897501D02*
X19496251Y-54897501D01*
X1746250Y-56197500D02*
X11984538Y-56197500D01*
X11984538Y-56197500D02*
X13284537Y-54897501D01*
X13652500Y-122872500D02*
X13652500Y-113347500D01*
X4127500Y-132397500D02*
X13652500Y-122872500D01*
X44608750Y-116396462D02*
X29368750Y-131636462D01*
X44608750Y-113347500D02*
X44608750Y-116396462D01*
X28701038Y-131636462D02*
X27940000Y-132397500D01*
X29368750Y-131636462D02*
X28701038Y-131636462D01*
X10189999Y-95597499D02*
X8890000Y-94297500D01*
X10226699Y-95634199D02*
X10189999Y-95597499D01*
X10226699Y-109921699D02*
X10226699Y-95634199D01*
X13652500Y-113347500D02*
X10226699Y-109921699D01*
X8890000Y-92459023D02*
X8890000Y-89217500D01*
X8890000Y-94297500D02*
X8890000Y-92459023D01*
X6508750Y-86836250D02*
X6508750Y-75247500D01*
X8890000Y-89217500D02*
X6508750Y-86836250D01*
X30321250Y-77085977D02*
X30321250Y-75247500D01*
X30321250Y-78296462D02*
X30321250Y-77085977D01*
X29435499Y-79182213D02*
X30321250Y-78296462D01*
X29435499Y-90836461D02*
X29435499Y-79182213D01*
X32896538Y-94297500D02*
X29435499Y-90836461D01*
X35083750Y-94297500D02*
X32896538Y-94297500D01*
X73183750Y-94297500D02*
X73183750Y-103822500D01*
X68421250Y-75247500D02*
X68421250Y-89535000D01*
X68421250Y-89535000D02*
X73183750Y-94297500D01*
X73183750Y-103822500D02*
X82708750Y-113347500D01*
X54133750Y-94297500D02*
X54133750Y-103822500D01*
X49371250Y-75247500D02*
X49371250Y-89535000D01*
X49371250Y-89535000D02*
X54133750Y-94297500D01*
X54133750Y-103822500D02*
X63658750Y-113347500D01*
X57596251Y-54897501D02*
X58896250Y-56197500D01*
X51384537Y-54897501D02*
X57596251Y-54897501D01*
X39846250Y-56197500D02*
X50084538Y-56197500D01*
X50084538Y-56197500D02*
X51384537Y-54897501D01*
X82708750Y-115185977D02*
X82708750Y-113347500D01*
X82708750Y-115521462D02*
X82708750Y-115185977D01*
X99584788Y-132397500D02*
X82708750Y-115521462D01*
X123190000Y-132397500D02*
X99584788Y-132397500D01*
X63658750Y-120491250D02*
X63658750Y-113347500D01*
X51752500Y-132397500D02*
X63658750Y-120491250D01*
X21590000Y-89217500D02*
X25876250Y-84931250D01*
X25876250Y-84931250D02*
X28575000Y-84931250D01*
X49371250Y-82391250D02*
X49371250Y-75247500D01*
X48418750Y-83343750D02*
X49371250Y-82391250D01*
X39846250Y-56197500D02*
X39846250Y-65722500D01*
X39846250Y-65722500D02*
X49371250Y-75247500D01*
X64135000Y-75247500D02*
X68421250Y-75247500D01*
X58896250Y-56197500D02*
X58896250Y-70008750D01*
X58896250Y-70008750D02*
X64135000Y-75247500D01*
X111283750Y-94297500D02*
X111283750Y-103822500D01*
X106521250Y-75247500D02*
X106521250Y-89535000D01*
X106521250Y-89535000D02*
X111283750Y-94297500D01*
X111283750Y-103822500D02*
X120808750Y-113347500D01*
X96996250Y-65722500D02*
X106521250Y-75247500D01*
X96996250Y-56197500D02*
X96996250Y-65722500D01*
X92233750Y-94297500D02*
X92233750Y-103822500D01*
X87471250Y-75247500D02*
X87471250Y-89535000D01*
X87471250Y-89535000D02*
X92233750Y-94297500D01*
X92233750Y-103822500D02*
X101758750Y-113347500D01*
X77946250Y-65722500D02*
X87471250Y-75247500D01*
X77946250Y-56197500D02*
X77946250Y-65722500D01*
X95696251Y-54897501D02*
X96996250Y-56197500D01*
X89484537Y-54897501D02*
X95696251Y-54897501D01*
X77946250Y-56197500D02*
X88184538Y-56197500D01*
X88184538Y-56197500D02*
X89484537Y-54897501D01*
X95091250Y-94297500D02*
X92075000Y-91281250D01*
X102472038Y-94297500D02*
X95091250Y-94297500D01*
X103772037Y-92997501D02*
X102472038Y-94297500D01*
X111283750Y-94297500D02*
X109983751Y-92997501D01*
X109983751Y-92997501D02*
X103772037Y-92997501D01*
X80314711Y-93384501D02*
X78303251Y-93384501D01*
X84137500Y-91281250D02*
X82417962Y-91281250D01*
X82417962Y-91281250D02*
X80314711Y-93384501D01*
X78303251Y-93384501D02*
X76200000Y-91281250D01*
X76200000Y-91281250D02*
X71437500Y-91281250D01*
X61264711Y-93384501D02*
X59253251Y-93384501D01*
X65087500Y-91281250D02*
X63367962Y-91281250D01*
X63367962Y-91281250D02*
X61264711Y-93384501D01*
X59253251Y-93384501D02*
X57150000Y-91281250D01*
X57150000Y-91281250D02*
X55562500Y-91281250D01*
X38100000Y-90487500D02*
X30162500Y-90487500D01*
X217140001Y-131097501D02*
X218440000Y-132397500D01*
X206165787Y-131097501D02*
X217140001Y-131097501D01*
X194627500Y-132397500D02*
X204865788Y-132397500D01*
X204865788Y-132397500D02*
X206165787Y-131097501D01*
X192789023Y-132397500D02*
X194627500Y-132397500D01*
X191360273Y-130968750D02*
X192789023Y-132397500D01*
X136048750Y-130968750D02*
X191360273Y-130968750D01*
X120808750Y-113347500D02*
X120808750Y-115728750D01*
X120808750Y-115728750D02*
X136048750Y-130968750D01*
X220821250Y-75247500D02*
X220821250Y-89535000D01*
X220821250Y-89535000D02*
X225583750Y-94297500D01*
X211296250Y-65722500D02*
X220821250Y-75247500D01*
X211296250Y-56197500D02*
X211296250Y-65722500D01*
X206533750Y-94297500D02*
X206533750Y-103822500D01*
X201771250Y-75247500D02*
X201771250Y-89535000D01*
X201771250Y-89535000D02*
X206533750Y-94297500D01*
X206533750Y-103822500D02*
X216058750Y-113347500D01*
X192246250Y-65722500D02*
X201771250Y-75247500D01*
X192246250Y-56197500D02*
X192246250Y-65722500D01*
X225583750Y-96678750D02*
X242252500Y-113347500D01*
X225583750Y-94297500D02*
X225583750Y-96678750D01*
X209996251Y-54897501D02*
X211296250Y-56197500D01*
X203784537Y-54897501D02*
X209996251Y-54897501D01*
X192246250Y-56197500D02*
X202484538Y-56197500D01*
X202484538Y-56197500D02*
X203784537Y-54897501D01*
X37306250Y-88106250D02*
X48418750Y-88106250D01*
X285657773Y-113347500D02*
X287496250Y-113347500D01*
X280790772Y-118214501D02*
X285657773Y-113347500D01*
X257040289Y-118214501D02*
X280790772Y-118214501D01*
X252173288Y-113347500D02*
X257040289Y-118214501D01*
X242252500Y-113347500D02*
X252173288Y-113347500D01*
X287496250Y-73409023D02*
X287496250Y-75247500D01*
X286527999Y-72440772D02*
X287496250Y-73409023D01*
X286527999Y-66134039D02*
X286527999Y-72440772D01*
X287496250Y-65165788D02*
X286527999Y-66134039D01*
X287496250Y-56197500D02*
X287496250Y-65165788D01*
X263683750Y-87153750D02*
X256540000Y-94297500D01*
X263683750Y-75247500D02*
X263683750Y-87153750D01*
X258921250Y-70485000D02*
X263683750Y-75247500D01*
X258921250Y-56197500D02*
X258921250Y-70485000D01*
X256540000Y-101441250D02*
X268446250Y-113347500D01*
X256540000Y-94297500D02*
X256540000Y-101441250D01*
X257621251Y-54897501D02*
X258921250Y-56197500D01*
X241884537Y-54897501D02*
X257621251Y-54897501D01*
X230346250Y-56197500D02*
X240584538Y-56197500D01*
X240584538Y-56197500D02*
X241884537Y-54897501D01*
X286196251Y-54897501D02*
X287496250Y-56197500D01*
X270459537Y-54897501D02*
X286196251Y-54897501D01*
X258921250Y-56197500D02*
X269159538Y-56197500D01*
X269159538Y-56197500D02*
X270459537Y-54897501D01*
X256222500Y-94297500D02*
X256540000Y-94297500D01*
X249237500Y-87312500D02*
X256222500Y-94297500D01*
X235585000Y-75247500D02*
X239871250Y-75247500D01*
X230346250Y-56197500D02*
X230346250Y-70008750D01*
X230346250Y-70008750D02*
X235585000Y-75247500D01*
X187483750Y-94297500D02*
X187483750Y-103822500D01*
X182721250Y-75247500D02*
X182721250Y-89535000D01*
X182721250Y-89535000D02*
X187483750Y-94297500D01*
X187483750Y-103822500D02*
X197008750Y-113347500D01*
X173196250Y-65722500D02*
X182721250Y-75247500D01*
X173196250Y-56197500D02*
X173196250Y-65722500D01*
X168433750Y-94297500D02*
X168433750Y-103822500D01*
X163671250Y-75247500D02*
X163671250Y-89535000D01*
X163671250Y-89535000D02*
X168433750Y-94297500D01*
X168433750Y-103822500D02*
X177958750Y-113347500D01*
X154146250Y-65722500D02*
X163671250Y-75247500D01*
X154146250Y-56197500D02*
X154146250Y-65722500D01*
X171896251Y-54897501D02*
X173196250Y-56197500D01*
X165684537Y-54897501D02*
X171896251Y-54897501D01*
X154146250Y-56197500D02*
X164384538Y-56197500D01*
X164384538Y-56197500D02*
X165684537Y-54897501D01*
X34925000Y-88900000D02*
X48212497Y-88900000D01*
X48212497Y-88900000D02*
X48418750Y-89106253D01*
X287496250Y-130559023D02*
X287496250Y-132397500D01*
X286527999Y-123284039D02*
X286527999Y-129590772D01*
X287428251Y-122383787D02*
X286527999Y-123284039D01*
X287428251Y-116321537D02*
X287428251Y-122383787D01*
X289123251Y-114626537D02*
X287428251Y-116321537D01*
X289123251Y-112566539D02*
X289123251Y-114626537D01*
X286527999Y-129590772D02*
X287496250Y-130559023D01*
X286527999Y-104234039D02*
X286527999Y-109971287D01*
X287496250Y-103265788D02*
X286527999Y-104234039D01*
X286527999Y-109971287D02*
X289123251Y-112566539D01*
X287496250Y-94297500D02*
X287496250Y-103265788D01*
X149383750Y-94297500D02*
X149383750Y-103822500D01*
X144621250Y-75247500D02*
X144621250Y-89535000D01*
X144621250Y-89535000D02*
X149383750Y-94297500D01*
X149383750Y-103822500D02*
X158908750Y-113347500D01*
X135096250Y-65722500D02*
X144621250Y-75247500D01*
X135096250Y-56197500D02*
X135096250Y-65722500D01*
X130333750Y-94297500D02*
X130333750Y-103822500D01*
X125571250Y-75247500D02*
X125571250Y-89535000D01*
X125571250Y-89535000D02*
X130333750Y-94297500D01*
X130333750Y-103822500D02*
X139858750Y-113347500D01*
X116046250Y-65722500D02*
X125571250Y-75247500D01*
X116046250Y-56197500D02*
X116046250Y-65722500D01*
X127584537Y-54897501D02*
X133796251Y-54897501D01*
X133796251Y-54897501D02*
X135096250Y-56197500D01*
X126284538Y-56197500D02*
X127584537Y-54897501D01*
X116046250Y-56197500D02*
X126284538Y-56197500D01*
X267146251Y-131097501D02*
X268446250Y-132397500D01*
X264279249Y-128230499D02*
X267146251Y-131097501D01*
X253563251Y-128230499D02*
X264279249Y-128230499D01*
X249396250Y-132397500D02*
X253563251Y-128230499D01*
X48342791Y-90106256D02*
X48418750Y-90106256D01*
X47930285Y-89693750D02*
X48342791Y-90106256D01*
X32543750Y-89693750D02*
X47930285Y-89693750D01*
X240823750Y-123825000D02*
X249396250Y-132397500D01*
X158908750Y-113347500D02*
X158908750Y-115521462D01*
X158908750Y-115521462D02*
X167212288Y-123825000D01*
X167212288Y-123825000D02*
X203200000Y-123825000D01*
X203200000Y-123825000D02*
X208756250Y-129381250D01*
X208756250Y-129381250D02*
X211931250Y-129381250D01*
X217487500Y-123825000D02*
X240823750Y-123825000D01*
X211931250Y-129381250D02*
X217487500Y-123825000D01*
D19*
X-7500250Y-55562500D02*
X-8731250Y-55562500D01*
X793750Y-63856500D02*
X-7500250Y-55562500D01*
X793750Y-71437500D02*
X793750Y-63856500D01*
X1270000Y-104457500D02*
X1270000Y-91092366D01*
X1270000Y-91092366D02*
X3199Y-89825565D01*
X3199Y-89825565D02*
X3199Y-82518879D01*
X3199Y-82518879D02*
X3175000Y-79347078D01*
X3175000Y-79347078D02*
X3175000Y-73818750D01*
X3175000Y-73818750D02*
X793750Y-71437500D01*
X304362750Y-55562500D02*
X305593750Y-55562500D01*
X298012750Y-49212500D02*
X304362750Y-55562500D01*
X4585964Y-49212500D02*
X298012750Y-49212500D01*
X-1764036Y-55562500D02*
X4585964Y-49212500D01*
X-8731250Y-55562500D02*
X-1764036Y-55562500D01*
X1270000Y-89217500D02*
X1270000Y-82073750D01*
X1270000Y-82073750D02*
X3968750Y-79375000D01*
X3968750Y-79375000D02*
X3968750Y-74612500D01*
X294789249Y-49837999D02*
X273218251Y-49837999D01*
X305593750Y-60642500D02*
X294789249Y-49837999D01*
X-1587500Y-56207636D02*
X-1587500Y-58737500D01*
X273218251Y-49837999D02*
X4782137Y-49837999D01*
X4782137Y-49837999D02*
X-1587500Y-56207636D01*
X266082691Y-51966999D02*
X253443963Y-51966999D01*
X253443963Y-51966999D02*
X251743961Y-53667001D01*
X305593750Y-63182500D02*
X304743751Y-62332501D01*
X251743961Y-53667001D02*
X249723251Y-53667001D01*
X304743751Y-62053059D02*
X294657691Y-51966999D01*
X304743751Y-62332501D02*
X304743751Y-62053059D01*
X294657691Y-51966999D02*
X277256463Y-51966999D01*
X277256463Y-51966999D02*
X275556461Y-53667001D01*
X267782693Y-53667001D02*
X266082691Y-51966999D01*
X275556461Y-53667001D02*
X267782693Y-53667001D01*
X3474809Y-51966999D02*
X-793750Y-56235558D01*
X249723251Y-53667001D02*
X248023249Y-51966999D01*
X248023249Y-51966999D02*
X3474809Y-51966999D01*
X-793750Y-56235558D02*
X-793750Y-59531250D01*
X-6826250Y-65087500D02*
X-8731250Y-63182500D01*
X-793750Y-63500000D02*
X-2381250Y-65087500D01*
X-2381250Y-65087500D02*
X-6826250Y-65087500D01*
D18*
X15875000Y-139122250D02*
X15875000Y-140176250D01*
X14747999Y-137995249D02*
X15875000Y-139122250D01*
X14747999Y-115167067D02*
X14747999Y-137995249D01*
X15279501Y-114635565D02*
X14747999Y-115167067D01*
X15279501Y-105687999D02*
X15279501Y-114635565D01*
X16510000Y-104457500D02*
X15279501Y-105687999D01*
X18173701Y-105333799D02*
X19050000Y-104457500D01*
X18173701Y-111386663D02*
X18173701Y-105333799D01*
X19783401Y-112996363D02*
X18173701Y-111386663D01*
X19783401Y-129829863D02*
X19783401Y-112996363D01*
X30129788Y-140176250D02*
X19783401Y-129829863D01*
X39687500Y-140176250D02*
X30129788Y-140176250D01*
X295275000Y-105829000D02*
X295275000Y-104775000D01*
X297588251Y-108142251D02*
X295275000Y-105829000D01*
X292219249Y-130723463D02*
X292219249Y-121833463D01*
X297588251Y-116464461D02*
X297588251Y-108142251D01*
X292219249Y-121833463D02*
X297588251Y-116464461D01*
X282766462Y-140176250D02*
X292219249Y-130723463D01*
X280193750Y-140176250D02*
X282766462Y-140176250D01*
X56356250Y-120072250D02*
X56356250Y-121126250D01*
X54552750Y-118268750D02*
X56356250Y-120072250D01*
X45243750Y-118268750D02*
X54552750Y-118268750D01*
X252946000Y-121126250D02*
X254000000Y-121126250D01*
X251818999Y-119999249D02*
X252946000Y-121126250D01*
X210937251Y-119999249D02*
X251818999Y-119999249D01*
X209810250Y-121126250D02*
X210937251Y-119999249D01*
X208756250Y-121126250D02*
X209810250Y-121126250D01*
X46831250Y-102076250D02*
X39370000Y-102076250D01*
X39370000Y-102076250D02*
X36512500Y-99218750D01*
X26670000Y-91757500D02*
X26670000Y-89217500D01*
X31750000Y-96837500D02*
X26670000Y-91757500D01*
X24130000Y-90456775D02*
X24130000Y-89217500D01*
X24130000Y-97529750D02*
X24130000Y-90456775D01*
X20637500Y-101022250D02*
X24130000Y-97529750D01*
X20637500Y-102076250D02*
X20637500Y-101022250D01*
X20637500Y-102076250D02*
X32861250Y-102076250D01*
X32861250Y-102076250D02*
X34131250Y-100806250D01*
X240506250Y-101600000D02*
X239712500Y-100806250D01*
X239712500Y-100806250D02*
X231775000Y-100806250D01*
X19050000Y-89217500D02*
X24923750Y-83343750D01*
X24923750Y-83343750D02*
X28575000Y-83343750D01*
X32543750Y-63976250D02*
X32543750Y-65087500D01*
X32543750Y-65087500D02*
X27781250Y-69850000D01*
X153987500Y-74612500D02*
X154781250Y-74612500D01*
X154781250Y-74612500D02*
X158394683Y-70999067D01*
X64293750Y-67468750D02*
X69850000Y-61912500D01*
X73167999Y-62849249D02*
X77787500Y-67468750D01*
X69850000Y-61912500D02*
X72231250Y-61912500D01*
X72231250Y-61912500D02*
X73167999Y-62849249D01*
M02*
