G04 #@! TF.GenerationSoftware,KiCad,Pcbnew,(5.1.4)-1*
G04 #@! TF.CreationDate,2021-01-30T00:10:11-06:00*
G04 #@! TF.ProjectId,65MAIN,36354d41-494e-42e6-9b69-6361645f7063,rev?*
G04 #@! TF.SameCoordinates,Original*
G04 #@! TF.FileFunction,Profile,NP*
%FSLAX46Y46*%
G04 Gerber Fmt 4.6, Leading zero omitted, Abs format (unit mm)*
G04 Created by KiCad (PCBNEW (5.1.4)-1) date 2021-01-30 00:10:11*
%MOMM*%
%LPD*%
G04 APERTURE LIST*
%ADD10C,0.050000*%
G04 APERTURE END LIST*
D10*
X302418750Y-51593750D02*
X302418750Y-49212500D01*
X-9525000Y-65881250D02*
X-7143750Y-65881250D01*
X-9525000Y-53181250D02*
X-7143750Y-53181250D01*
X-5556250Y-49212500D02*
X-5556250Y-51593750D01*
X306387500Y-65881250D02*
X304006250Y-65881250D01*
X304006250Y-53181250D02*
X306387500Y-53181250D01*
X302418750Y-67468750D02*
G75*
G02X304006250Y-65881250I1587500J0D01*
G01*
X307975000Y-64293750D02*
G75*
G02X306387500Y-65881250I-1587500J0D01*
G01*
X307975000Y-54768750D02*
X307975000Y-64293750D01*
X306387500Y-53181250D02*
G75*
G02X307975000Y-54768750I0J-1587500D01*
G01*
X304006250Y-53181250D02*
G75*
G02X302418750Y-51593750I0J1587500D01*
G01*
X-7143750Y-65881250D02*
G75*
G02X-5556250Y-67468750I0J-1587500D01*
G01*
X-9525000Y-65881250D02*
G75*
G02X-11112500Y-64293750I0J1587500D01*
G01*
X-11112500Y-54768750D02*
G75*
G02X-9525000Y-53181250I1587500J0D01*
G01*
X-5556250Y-51593750D02*
G75*
G02X-7143750Y-53181250I-1587500J0D01*
G01*
X-5556250Y-49212500D02*
G75*
G02X-3968750Y-47625000I1587500J0D01*
G01*
X-11112500Y-64293750D02*
X-11112500Y-54768750D01*
X302418750Y-144462500D02*
X302418750Y-67468750D01*
X302418750Y-144462500D02*
G75*
G02X300831250Y-146050000I-1587500J0D01*
G01*
X300831250Y-47625000D02*
G75*
G02X302418750Y-49212500I0J-1587500D01*
G01*
X-3968750Y-47625000D02*
X300831250Y-47625000D01*
X-5556250Y-67468750D02*
X-5556250Y-144462500D01*
X-3968750Y-146050000D02*
G75*
G02X-5556250Y-144462500I0J1587500D01*
G01*
X-3968750Y-146050000D02*
X300831250Y-146050000D01*
M02*
