G04 #@! TF.GenerationSoftware,KiCad,Pcbnew,(5.1.4)-1*
G04 #@! TF.CreationDate,2021-01-30T00:10:11-06:00*
G04 #@! TF.ProjectId,65MAIN,36354d41-494e-42e6-9b69-6361645f7063,rev?*
G04 #@! TF.SameCoordinates,Original*
G04 #@! TF.FileFunction,Copper,L2,Bot*
G04 #@! TF.FilePolarity,Positive*
%FSLAX46Y46*%
G04 Gerber Fmt 4.6, Leading zero omitted, Abs format (unit mm)*
G04 Created by KiCad (PCBNEW (5.1.4)-1) date 2021-01-30 00:10:11*
%MOMM*%
%LPD*%
G04 APERTURE LIST*
%ADD10C,2.600000*%
%ADD11O,1.700000X1.700000*%
%ADD12R,1.700000X1.700000*%
%ADD13R,1.600000X1.600000*%
%ADD14O,1.600000X1.600000*%
%ADD15R,1.752600X1.752600*%
%ADD16C,1.752600*%
%ADD17C,0.800000*%
%ADD18C,0.254000*%
%ADD19C,0.381000*%
G04 APERTURE END LIST*
D10*
X123190000Y-132397500D03*
X129540000Y-129857500D03*
X242252500Y-113347500D03*
X248602500Y-110807500D03*
X8890000Y-94297500D03*
X15240000Y-91757500D03*
X258921250Y-56197500D03*
X265271250Y-53657500D03*
X20002500Y-110807500D03*
X13652500Y-113347500D03*
X262890000Y-91757500D03*
X256540000Y-94297500D03*
X4127500Y-132397500D03*
X10477500Y-129857500D03*
X27940000Y-132397500D03*
X34290000Y-129857500D03*
X218440000Y-132397500D03*
X224790000Y-129857500D03*
X194627500Y-132397500D03*
X200977500Y-129857500D03*
X51752500Y-132397500D03*
X58102500Y-129857500D03*
X6508750Y-75247500D03*
X12858750Y-72707500D03*
X263683750Y-75247500D03*
X270033750Y-72707500D03*
X1746250Y-56197500D03*
X8096250Y-53657500D03*
X54133750Y-94297500D03*
X60483750Y-91757500D03*
X20796250Y-56197500D03*
X27146250Y-53657500D03*
X225583750Y-94297500D03*
X231933750Y-91757500D03*
X120808750Y-113347500D03*
X127158750Y-110807500D03*
X216058750Y-113347500D03*
X222408750Y-110807500D03*
X187483750Y-94297500D03*
X193833750Y-91757500D03*
X111283750Y-94297500D03*
X117633750Y-91757500D03*
X82708750Y-113347500D03*
X89058750Y-110807500D03*
X139858750Y-113347500D03*
X146208750Y-110807500D03*
X239871250Y-75247500D03*
X246221250Y-72707500D03*
X49371250Y-75247500D03*
X55721250Y-72707500D03*
X154146250Y-56197500D03*
X160496250Y-53657500D03*
X192246250Y-56197500D03*
X198596250Y-53657500D03*
X44608750Y-113347500D03*
X50958750Y-110807500D03*
X125571250Y-75247500D03*
X131921250Y-72707500D03*
X63658750Y-113347500D03*
X70008750Y-110807500D03*
X101758750Y-113347500D03*
X108108750Y-110807500D03*
X268446250Y-113347500D03*
X274796250Y-110807500D03*
X144621250Y-75247500D03*
X150971250Y-72707500D03*
X39846250Y-56197500D03*
X46196250Y-53657500D03*
X58896250Y-56197500D03*
X65246250Y-53657500D03*
X106521250Y-75247500D03*
X112871250Y-72707500D03*
X116046250Y-56197500D03*
X122396250Y-53657500D03*
X135096250Y-56197500D03*
X141446250Y-53657500D03*
X206533750Y-94297500D03*
X212883750Y-91757500D03*
X287496250Y-132397500D03*
X293846250Y-129857500D03*
X87471250Y-75247500D03*
X93821250Y-72707500D03*
X30321250Y-75247500D03*
X36671250Y-72707500D03*
X287496250Y-94297500D03*
X293846250Y-91757500D03*
X287496250Y-113347500D03*
X293846250Y-110807500D03*
X197008750Y-113347500D03*
X203358750Y-110807500D03*
X201771250Y-75247500D03*
X208121250Y-72707500D03*
X182721250Y-75247500D03*
X189071250Y-72707500D03*
X173196250Y-56197500D03*
X179546250Y-53657500D03*
X211296250Y-56197500D03*
X217646250Y-53657500D03*
X158908750Y-113347500D03*
X165258750Y-110807500D03*
X249396250Y-132397500D03*
X255746250Y-129857500D03*
X220821250Y-75247500D03*
X227171250Y-72707500D03*
X168433750Y-94297500D03*
X174783750Y-91757500D03*
X149383750Y-94297500D03*
X155733750Y-91757500D03*
X163671250Y-75247500D03*
X170021250Y-72707500D03*
X287496250Y-75247500D03*
X293846250Y-72707500D03*
X130333750Y-94297500D03*
X136683750Y-91757500D03*
X77946250Y-56197500D03*
X84296250Y-53657500D03*
X96996250Y-56197500D03*
X103346250Y-53657500D03*
X92233750Y-94297500D03*
X98583750Y-91757500D03*
X230346250Y-56197500D03*
X236696250Y-53657500D03*
X68421250Y-75247500D03*
X74771250Y-72707500D03*
X268446250Y-132397500D03*
X274796250Y-129857500D03*
X287496250Y-56197500D03*
X293846250Y-53657500D03*
X73183750Y-94297500D03*
X79533750Y-91757500D03*
X177958750Y-113347500D03*
X184308750Y-110807500D03*
X35083750Y-94297500D03*
X41433750Y-91757500D03*
D11*
X305593750Y-63182500D03*
X305593750Y-60642500D03*
X305593750Y-58102500D03*
D12*
X305593750Y-55562500D03*
X-8731250Y-55562500D03*
D11*
X-8731250Y-58102500D03*
X-8731250Y-60642500D03*
X-8731250Y-63182500D03*
D13*
X295275000Y-123825000D03*
D14*
X287655000Y-123825000D03*
D13*
X295275000Y-104775000D03*
D14*
X287655000Y-104775000D03*
D13*
X295275000Y-142875000D03*
D14*
X287655000Y-142875000D03*
D13*
X280193750Y-140176250D03*
D14*
X280193750Y-132556250D03*
D13*
X245268750Y-140493750D03*
D14*
X245268750Y-132873750D03*
D13*
X230187500Y-140176250D03*
D14*
X230187500Y-132556250D03*
D13*
X206375000Y-140176250D03*
D14*
X206375000Y-132556250D03*
D13*
X134937500Y-140176250D03*
D14*
X134937500Y-132556250D03*
D13*
X63500000Y-140176250D03*
D14*
X63500000Y-132556250D03*
D13*
X39687500Y-140176250D03*
D14*
X39687500Y-132556250D03*
D13*
X15875000Y-140176250D03*
D14*
X15875000Y-132556250D03*
D13*
X295275000Y-85725000D03*
D14*
X287655000Y-85725000D03*
D13*
X280193750Y-121126250D03*
D14*
X280193750Y-113506250D03*
D13*
X254000000Y-121126250D03*
D14*
X254000000Y-113506250D03*
D13*
X227806250Y-121126250D03*
D14*
X227806250Y-113506250D03*
D13*
X208756250Y-121126250D03*
D14*
X208756250Y-113506250D03*
D13*
X189706250Y-121126250D03*
D14*
X189706250Y-113506250D03*
D13*
X170656250Y-121126250D03*
D14*
X170656250Y-113506250D03*
D13*
X151606250Y-121126250D03*
D14*
X151606250Y-113506250D03*
D13*
X132556250Y-121126250D03*
D14*
X132556250Y-113506250D03*
D13*
X113506250Y-121126250D03*
D14*
X113506250Y-113506250D03*
D13*
X94456250Y-121126250D03*
D14*
X94456250Y-113506250D03*
D13*
X75406250Y-121126250D03*
D14*
X75406250Y-113506250D03*
D13*
X56356250Y-121126250D03*
D14*
X56356250Y-113506250D03*
D13*
X25400000Y-121126250D03*
D14*
X25400000Y-113506250D03*
D13*
X295275000Y-66675000D03*
D14*
X287655000Y-66675000D03*
D13*
X268287500Y-102076250D03*
D14*
X268287500Y-94456250D03*
D13*
X237331250Y-102076250D03*
D14*
X237331250Y-94456250D03*
D13*
X218281250Y-102076250D03*
D14*
X218281250Y-94456250D03*
D13*
X199231250Y-102076250D03*
D14*
X199231250Y-94456250D03*
D13*
X180181250Y-102076250D03*
D14*
X180181250Y-94456250D03*
D13*
X161131250Y-102076250D03*
D14*
X161131250Y-94456250D03*
D13*
X142081250Y-102076250D03*
D14*
X142081250Y-94456250D03*
D13*
X123031250Y-102076250D03*
D14*
X123031250Y-94456250D03*
D13*
X103981250Y-102076250D03*
D14*
X103981250Y-94456250D03*
D13*
X84931250Y-102076250D03*
D14*
X84931250Y-94456250D03*
D13*
X65881250Y-102076250D03*
D14*
X65881250Y-94456250D03*
D13*
X46831250Y-102076250D03*
D14*
X46831250Y-94456250D03*
D13*
X20637500Y-102076250D03*
D14*
X20637500Y-94456250D03*
D13*
X275431250Y-83026250D03*
D14*
X275431250Y-75406250D03*
D13*
X251618750Y-83026250D03*
D14*
X251618750Y-75406250D03*
D13*
X232568750Y-83026250D03*
D14*
X232568750Y-75406250D03*
D13*
X213518750Y-83026250D03*
D14*
X213518750Y-75406250D03*
D13*
X194468750Y-83026250D03*
D14*
X194468750Y-75406250D03*
D13*
X175418750Y-83026250D03*
D14*
X175418750Y-75406250D03*
D13*
X156368750Y-83026250D03*
D14*
X156368750Y-75406250D03*
D13*
X137318750Y-83026250D03*
D14*
X137318750Y-75406250D03*
D13*
X118268750Y-83026250D03*
D14*
X118268750Y-75406250D03*
D13*
X99218750Y-83026250D03*
D14*
X99218750Y-75406250D03*
D13*
X80168750Y-83026250D03*
D14*
X80168750Y-75406250D03*
D13*
X61118750Y-83026250D03*
D14*
X61118750Y-75406250D03*
D13*
X42068750Y-83026250D03*
D14*
X42068750Y-75406250D03*
D13*
X18256250Y-83026250D03*
D14*
X18256250Y-75406250D03*
D13*
X270668750Y-63976250D03*
D14*
X270668750Y-56356250D03*
D13*
X242093750Y-63976250D03*
D14*
X242093750Y-56356250D03*
D13*
X223043750Y-63976250D03*
D14*
X223043750Y-56356250D03*
D13*
X203993750Y-63976250D03*
D14*
X203993750Y-56356250D03*
D13*
X184943750Y-63976250D03*
D14*
X184943750Y-56356250D03*
D13*
X165893750Y-63976250D03*
D14*
X165893750Y-56356250D03*
D13*
X146843750Y-63976250D03*
D14*
X146843750Y-56356250D03*
D13*
X127793750Y-63976250D03*
D14*
X127793750Y-56356250D03*
D13*
X108743750Y-63976250D03*
D14*
X108743750Y-56356250D03*
D13*
X89693750Y-63976250D03*
D14*
X89693750Y-56356250D03*
D13*
X70643750Y-63976250D03*
D14*
X70643750Y-56356250D03*
D13*
X51593750Y-63976250D03*
D14*
X51593750Y-56356250D03*
D13*
X32543750Y-63976250D03*
D14*
X32543750Y-56356250D03*
D13*
X13493750Y-63976250D03*
D14*
X13493750Y-56356250D03*
D15*
X-1270000Y-104457500D03*
D16*
X1270000Y-104457500D03*
X3810000Y-104457500D03*
X6350000Y-104457500D03*
X8890000Y-104457500D03*
X11430000Y-104457500D03*
X13970000Y-104457500D03*
X16510000Y-104457500D03*
X19050000Y-104457500D03*
X21590000Y-104457500D03*
X24130000Y-104457500D03*
X26670000Y-89217500D03*
X24130000Y-89217500D03*
X21590000Y-89217500D03*
X19050000Y-89217500D03*
X16510000Y-89217500D03*
X13970000Y-89217500D03*
X11430000Y-89217500D03*
X8890000Y-89217500D03*
X6350000Y-89217500D03*
X3810000Y-89217500D03*
X1270000Y-89217500D03*
X26670000Y-104457500D03*
X-1270000Y-89217500D03*
D17*
X28575000Y-84931250D03*
X48418750Y-83343750D03*
X92075000Y-91281250D03*
X84137500Y-91281250D03*
X71437500Y-91281250D03*
X65087500Y-91281250D03*
X55562500Y-91281250D03*
X38100000Y-90487500D03*
X30162500Y-90487500D03*
X37306250Y-88106250D03*
X48418750Y-88106250D03*
X249237500Y-87312500D03*
X34925000Y-88900000D03*
X48418750Y-89106253D03*
X32543750Y-89693750D03*
X48418750Y-90106256D03*
X3968750Y-74612500D03*
X-1587500Y-58737500D03*
X-793750Y-59531250D03*
X-793750Y-63500000D03*
X45243750Y-118268750D03*
X36512500Y-99218750D03*
X31750000Y-96837500D03*
X34131250Y-100806250D03*
X240506250Y-101600000D03*
X231775000Y-100806250D03*
X28575000Y-83343750D03*
X27781250Y-69850000D03*
X153987500Y-74612500D03*
X158394683Y-70999067D03*
X64293750Y-67468750D03*
X77787500Y-67468750D03*
D18*
X41433750Y-91757500D02*
X44132500Y-91757500D01*
X44132500Y-91757500D02*
X46831250Y-94456250D01*
X60801250Y-129857500D02*
X63500000Y-132556250D01*
X58102500Y-129857500D02*
X60801250Y-129857500D01*
X28575000Y-84931250D02*
X46831250Y-84931250D01*
X46831250Y-84931250D02*
X48418750Y-83343750D01*
X203676250Y-129857500D02*
X206375000Y-132556250D01*
X200977500Y-129857500D02*
X203676250Y-129857500D01*
X92075000Y-91281250D02*
X84137500Y-91281250D01*
X71437500Y-91281250D02*
X65087500Y-91281250D01*
X55562500Y-91281250D02*
X47625000Y-91281250D01*
X38457001Y-90130499D02*
X38100000Y-90487500D01*
X47625000Y-91281250D02*
X46474249Y-90130499D01*
X46474249Y-90130499D02*
X38457001Y-90130499D01*
X30162500Y-90487500D02*
X21431250Y-99218750D01*
X16668750Y-99218750D02*
X11430000Y-104457500D01*
X21431250Y-99218750D02*
X16668750Y-99218750D01*
X231933750Y-91757500D02*
X234632500Y-91757500D01*
X234632500Y-91757500D02*
X237331250Y-94456250D01*
X200342500Y-88106250D02*
X206533750Y-94297500D01*
X48418750Y-88106250D02*
X200342500Y-88106250D01*
X24130000Y-101282500D02*
X24130000Y-104457500D01*
X37306250Y-88106250D02*
X24130000Y-101282500D01*
X127158750Y-110807500D02*
X129857500Y-110807500D01*
X129857500Y-110807500D02*
X132556250Y-113506250D01*
X272732500Y-72707500D02*
X275431250Y-75406250D01*
X270033750Y-72707500D02*
X272732500Y-72707500D01*
X26670000Y-100303288D02*
X26670000Y-104457500D01*
X249237500Y-87312500D02*
X39633829Y-87312500D01*
X39633829Y-87312500D02*
X39633829Y-87339459D01*
X39633829Y-87339459D02*
X26670000Y-100303288D01*
X267970000Y-53657500D02*
X270668750Y-56356250D01*
X265271250Y-53657500D02*
X267970000Y-53657500D01*
X89058750Y-110807500D02*
X91757500Y-110807500D01*
X91757500Y-110807500D02*
X94456250Y-113506250D01*
X17938750Y-91757500D02*
X20637500Y-94456250D01*
X15240000Y-91757500D02*
X17938750Y-91757500D01*
X187007500Y-110807500D02*
X189706250Y-113506250D01*
X184308750Y-110807500D02*
X187007500Y-110807500D01*
X163242503Y-89106253D02*
X168433750Y-94297500D01*
X48418750Y-89106253D02*
X163242503Y-89106253D01*
X22466299Y-103581201D02*
X21590000Y-104457500D01*
X22466299Y-101358701D02*
X22466299Y-103428799D01*
X34925000Y-88900000D02*
X22466299Y-101358701D01*
X22466299Y-101841299D02*
X22466299Y-103428799D01*
X22466299Y-103428799D02*
X22466299Y-103581201D01*
X279616316Y-94297500D02*
X287496250Y-94297500D01*
X266500415Y-107413401D02*
X279616316Y-94297500D01*
X247329717Y-107413401D02*
X266500415Y-107413401D01*
X246278816Y-106362500D02*
X247329717Y-107413401D01*
X197008750Y-113347500D02*
X203993750Y-106362500D01*
X203993750Y-106362500D02*
X246278816Y-106362500D01*
X13176250Y-129857500D02*
X15875000Y-132556250D01*
X10477500Y-129857500D02*
X13176250Y-129857500D01*
X79533750Y-91757500D02*
X82232500Y-91757500D01*
X82232500Y-91757500D02*
X84931250Y-94456250D01*
X293846250Y-98583750D02*
X287655000Y-104775000D01*
X293846250Y-91757500D02*
X293846250Y-98583750D01*
X277495000Y-129857500D02*
X280193750Y-132556250D01*
X274796250Y-129857500D02*
X277495000Y-129857500D01*
X126142506Y-90106256D02*
X130333750Y-94297500D01*
X48418750Y-90106256D02*
X126142506Y-90106256D01*
X18415000Y-100012500D02*
X13970000Y-104457500D01*
X32543750Y-89693750D02*
X22225000Y-100012500D01*
X22225000Y-100012500D02*
X18415000Y-100012500D01*
X74771250Y-72707500D02*
X77470000Y-72707500D01*
X77470000Y-72707500D02*
X80168750Y-75406250D01*
X160496250Y-53657500D02*
X163195000Y-53657500D01*
X163195000Y-53657500D02*
X165893750Y-56356250D01*
X265588750Y-91757500D02*
X268287500Y-94456250D01*
X262890000Y-91757500D02*
X265588750Y-91757500D01*
X239395000Y-53657500D02*
X242093750Y-56356250D01*
X236696250Y-53657500D02*
X239395000Y-53657500D01*
X10795000Y-53657500D02*
X13493750Y-56356250D01*
X8096250Y-53657500D02*
X10795000Y-53657500D01*
X98583750Y-91757500D02*
X101282500Y-91757500D01*
X101282500Y-91757500D02*
X103981250Y-94456250D01*
X103346250Y-53657500D02*
X106045000Y-53657500D01*
X106045000Y-53657500D02*
X108743750Y-56356250D01*
X227488750Y-129857500D02*
X230187500Y-132556250D01*
X224790000Y-129857500D02*
X227488750Y-129857500D01*
X86995000Y-53657500D02*
X89693750Y-56356250D01*
X84296250Y-53657500D02*
X86995000Y-53657500D01*
X117633750Y-91757500D02*
X120332500Y-91757500D01*
X120332500Y-91757500D02*
X123031250Y-94456250D01*
X136683750Y-91757500D02*
X139382500Y-91757500D01*
X139382500Y-91757500D02*
X142081250Y-94456250D01*
X293846250Y-117633750D02*
X287655000Y-123825000D01*
X293846250Y-110807500D02*
X293846250Y-117633750D01*
X172720000Y-72707500D02*
X175418750Y-75406250D01*
X170021250Y-72707500D02*
X172720000Y-72707500D01*
X155733750Y-91757500D02*
X158432500Y-91757500D01*
X158432500Y-91757500D02*
X161131250Y-94456250D01*
X177482500Y-91757500D02*
X180181250Y-94456250D01*
X174783750Y-91757500D02*
X177482500Y-91757500D01*
X193833750Y-91757500D02*
X196532500Y-91757500D01*
X196532500Y-91757500D02*
X199231250Y-94456250D01*
X227171250Y-72707500D02*
X229870000Y-72707500D01*
X229870000Y-72707500D02*
X232568750Y-75406250D01*
X248285000Y-129857500D02*
X245268750Y-132873750D01*
X255746250Y-129857500D02*
X248285000Y-129857500D01*
X165258750Y-110807500D02*
X167957500Y-110807500D01*
X167957500Y-110807500D02*
X170656250Y-113506250D01*
X217646250Y-53657500D02*
X220345000Y-53657500D01*
X220345000Y-53657500D02*
X223043750Y-56356250D01*
X146208750Y-110807500D02*
X148907500Y-110807500D01*
X148907500Y-110807500D02*
X151606250Y-113506250D01*
X179546250Y-53657500D02*
X182245000Y-53657500D01*
X182245000Y-53657500D02*
X184943750Y-56356250D01*
X189071250Y-72707500D02*
X191770000Y-72707500D01*
X191770000Y-72707500D02*
X194468750Y-75406250D01*
X29845000Y-53657500D02*
X32543750Y-56356250D01*
X27146250Y-53657500D02*
X29845000Y-53657500D01*
X208121250Y-72707500D02*
X210820000Y-72707500D01*
X210820000Y-72707500D02*
X213518750Y-75406250D01*
X203358750Y-110807500D02*
X206057500Y-110807500D01*
X206057500Y-110807500D02*
X208756250Y-113506250D01*
X293846250Y-79533750D02*
X287655000Y-85725000D01*
X293846250Y-72707500D02*
X293846250Y-79533750D01*
X293846250Y-60483750D02*
X287655000Y-66675000D01*
X293846250Y-53657500D02*
X293846250Y-60483750D01*
D19*
X3968750Y-73342500D02*
X-8731250Y-60642500D01*
X3968750Y-74612500D02*
X3968750Y-73342500D01*
X-3492500Y-60642500D02*
X-8731250Y-60642500D01*
X-1587500Y-58737500D02*
X-3492500Y-60642500D01*
X6350000Y-89217500D02*
X3175000Y-86042500D01*
X-7881251Y-64032499D02*
X-8731250Y-63182500D01*
X-7745564Y-64032499D02*
X-7881251Y-64032499D01*
X3175000Y-74953063D02*
X-7745564Y-64032499D01*
X3175000Y-86042500D02*
X3175000Y-74953063D01*
X-793750Y-59531250D02*
X-793750Y-63500000D01*
D18*
X36671250Y-72707500D02*
X39370000Y-72707500D01*
X39370000Y-72707500D02*
X42068750Y-75406250D01*
X93821250Y-72707500D02*
X96520000Y-72707500D01*
X96520000Y-72707500D02*
X99218750Y-75406250D01*
X246221250Y-72707500D02*
X248920000Y-72707500D01*
X248920000Y-72707500D02*
X251618750Y-75406250D01*
X293846250Y-136683750D02*
X287655000Y-142875000D01*
X293846250Y-129857500D02*
X293846250Y-136683750D01*
X63182500Y-91757500D02*
X65881250Y-94456250D01*
X60483750Y-91757500D02*
X63182500Y-91757500D01*
X212883750Y-91757500D02*
X215582500Y-91757500D01*
X215582500Y-91757500D02*
X218281250Y-94456250D01*
X144145000Y-53657500D02*
X146843750Y-56356250D01*
X141446250Y-53657500D02*
X144145000Y-53657500D01*
X22701250Y-110807500D02*
X25400000Y-113506250D01*
X20002500Y-110807500D02*
X22701250Y-110807500D01*
X251301250Y-110807500D02*
X254000000Y-113506250D01*
X248602500Y-110807500D02*
X251301250Y-110807500D01*
X122396250Y-53657500D02*
X125095000Y-53657500D01*
X125095000Y-53657500D02*
X127793750Y-56356250D01*
X222408750Y-110807500D02*
X225107500Y-110807500D01*
X225107500Y-110807500D02*
X227806250Y-113506250D01*
X132238750Y-129857500D02*
X134937500Y-132556250D01*
X129540000Y-129857500D02*
X132238750Y-129857500D01*
X112871250Y-72707500D02*
X115570000Y-72707500D01*
X115570000Y-72707500D02*
X118268750Y-75406250D01*
X15557500Y-72707500D02*
X18256250Y-75406250D01*
X12858750Y-72707500D02*
X15557500Y-72707500D01*
X65246250Y-53657500D02*
X67945000Y-53657500D01*
X67945000Y-53657500D02*
X70643750Y-56356250D01*
X48895000Y-53657500D02*
X51593750Y-56356250D01*
X46196250Y-53657500D02*
X48895000Y-53657500D01*
X63500000Y-141287500D02*
X63500000Y-140176250D01*
X61118750Y-143668750D02*
X63500000Y-141287500D01*
X18313500Y-143668750D02*
X61118750Y-143668750D01*
X15875000Y-140176250D02*
X15875000Y-141230250D01*
X15875000Y-141230250D02*
X18313500Y-143668750D01*
X206375000Y-141287500D02*
X206375000Y-140176250D01*
X203888999Y-143773501D02*
X206375000Y-141287500D01*
X66043251Y-143773501D02*
X203888999Y-143773501D01*
X63500000Y-140176250D02*
X63500000Y-141230250D01*
X63500000Y-141230250D02*
X66043251Y-143773501D01*
X206375000Y-141230250D02*
X208813500Y-143668750D01*
X206375000Y-140176250D02*
X206375000Y-141230250D01*
X295275000Y-141821000D02*
X295275000Y-142875000D01*
X297588251Y-139507749D02*
X295275000Y-141821000D01*
X297588251Y-127192251D02*
X297588251Y-139507749D01*
X295275000Y-124879000D02*
X297588251Y-127192251D01*
X295275000Y-123825000D02*
X295275000Y-124879000D01*
X243147750Y-143668750D02*
X242887500Y-143668750D01*
X245268750Y-141547750D02*
X243147750Y-143668750D01*
X208813500Y-143668750D02*
X242887500Y-143668750D01*
X245268750Y-140493750D02*
X245268750Y-141547750D01*
X294221000Y-142875000D02*
X295275000Y-142875000D01*
X293093999Y-144002001D02*
X294221000Y-142875000D01*
X287114039Y-144002001D02*
X293093999Y-144002001D01*
X286780788Y-143668750D02*
X287114039Y-144002001D01*
X247389750Y-143668750D02*
X286780788Y-143668750D01*
X245268750Y-141547750D02*
X247389750Y-143668750D01*
X231241500Y-140176250D02*
X230187500Y-140176250D01*
X232368501Y-139049249D02*
X231241500Y-140176250D01*
X278012749Y-139049249D02*
X232368501Y-139049249D01*
X279139750Y-140176250D02*
X278012749Y-139049249D01*
X280193750Y-140176250D02*
X279139750Y-140176250D01*
X229133500Y-140176250D02*
X230187500Y-140176250D01*
X228006499Y-139049249D02*
X229133500Y-140176250D01*
X137118501Y-139049249D02*
X228006499Y-139049249D01*
X135991500Y-140176250D02*
X137118501Y-139049249D01*
X134937500Y-140176250D02*
X135991500Y-140176250D01*
X40741500Y-140176250D02*
X39687500Y-140176250D01*
X41868501Y-139049249D02*
X40741500Y-140176250D01*
X132756499Y-139049249D02*
X41868501Y-139049249D01*
X133883500Y-140176250D02*
X132756499Y-139049249D01*
X134937500Y-140176250D02*
X133883500Y-140176250D01*
X206375000Y-124618750D02*
X208756250Y-122237500D01*
X208756250Y-122237500D02*
X208756250Y-121126250D01*
X170656250Y-122237500D02*
X170656250Y-121126250D01*
X168275000Y-124618750D02*
X170656250Y-122237500D01*
X170656250Y-122237500D02*
X170656250Y-121126250D01*
X134994750Y-124618750D02*
X168275000Y-124618750D01*
X132556250Y-122180250D02*
X134994750Y-124618750D01*
X132556250Y-122237500D02*
X132556250Y-121126250D01*
X130175000Y-124618750D02*
X132556250Y-122237500D01*
X132556250Y-122237500D02*
X132556250Y-121126250D01*
X96894750Y-124618750D02*
X130175000Y-124618750D01*
X94456250Y-122180250D02*
X96894750Y-124618750D01*
X94456250Y-122237500D02*
X94456250Y-121126250D01*
X94456250Y-122237500D02*
X94456250Y-121126250D01*
X43941038Y-118268750D02*
X45243750Y-118268750D01*
X31333089Y-105660801D02*
X43941038Y-118268750D01*
X8890000Y-104457500D02*
X10093301Y-105660801D01*
X10093301Y-105660801D02*
X31333089Y-105660801D01*
X295275000Y-86779000D02*
X295275000Y-85725000D01*
X292219249Y-89834751D02*
X295275000Y-86779000D01*
X292219249Y-92623463D02*
X292219249Y-89834751D01*
X277429311Y-107413401D02*
X292219249Y-92623463D01*
X268766849Y-107413401D02*
X277429311Y-107413401D01*
X255054000Y-121126250D02*
X268766849Y-107413401D01*
X254000000Y-121126250D02*
X255054000Y-121126250D01*
X178371084Y-124618750D02*
X206375000Y-124618750D01*
X174878584Y-121126250D02*
X178371084Y-124618750D01*
X170656250Y-121126250D02*
X174878584Y-121126250D01*
X56356250Y-121126250D02*
X57410250Y-121126250D01*
X57410250Y-121126250D02*
X60645599Y-124361599D01*
X81559448Y-121126250D02*
X94456250Y-121126250D01*
X78324099Y-124361599D02*
X81559448Y-121126250D01*
X60645599Y-124361599D02*
X62963401Y-124361599D01*
X62963401Y-124361599D02*
X65881250Y-121443750D01*
X65881250Y-121443750D02*
X69056250Y-121443750D01*
X71974099Y-124361599D02*
X78324099Y-124361599D01*
X69056250Y-121443750D02*
X71974099Y-124361599D01*
X226752250Y-121126250D02*
X227806250Y-121126250D01*
X225625249Y-119999249D02*
X226752250Y-121126250D01*
X189706250Y-121126250D02*
X190760250Y-121126250D01*
X190760250Y-121126250D02*
X191887251Y-119999249D01*
X191887251Y-119999249D02*
X225625249Y-119999249D01*
X188652250Y-121126250D02*
X189706250Y-121126250D01*
X187525249Y-119999249D02*
X188652250Y-121126250D01*
X151606250Y-121126250D02*
X152660250Y-121126250D01*
X152660250Y-121126250D02*
X153787251Y-119999249D01*
X153787251Y-119999249D02*
X187525249Y-119999249D01*
X150552250Y-121126250D02*
X151606250Y-121126250D01*
X149425249Y-119999249D02*
X150552250Y-121126250D01*
X113506250Y-121126250D02*
X114560250Y-121126250D01*
X114560250Y-121126250D02*
X115687251Y-119999249D01*
X115687251Y-119999249D02*
X149425249Y-119999249D01*
X112452250Y-121126250D02*
X113506250Y-121126250D01*
X111325249Y-119999249D02*
X112452250Y-121126250D01*
X75406250Y-121126250D02*
X76460250Y-121126250D01*
X76460250Y-121126250D02*
X77587251Y-119999249D01*
X77587251Y-119999249D02*
X111325249Y-119999249D01*
X24346000Y-121126250D02*
X25400000Y-121126250D01*
X14268450Y-121126250D02*
X24346000Y-121126250D01*
X-1270000Y-105587800D02*
X14268450Y-121126250D01*
X-1270000Y-104457500D02*
X-1270000Y-105587800D01*
X74352250Y-121126250D02*
X75406250Y-121126250D01*
X73225249Y-119999249D02*
X74352250Y-121126250D01*
X27581001Y-119999249D02*
X73225249Y-119999249D01*
X26454000Y-121126250D02*
X27581001Y-119999249D01*
X25400000Y-121126250D02*
X26454000Y-121126250D01*
X279139750Y-121126250D02*
X280193750Y-121126250D01*
X278012749Y-122253251D02*
X279139750Y-121126250D01*
X229987251Y-122253251D02*
X278012749Y-122253251D01*
X228860250Y-121126250D02*
X229987251Y-122253251D01*
X227806250Y-121126250D02*
X228860250Y-121126250D01*
X82550000Y-105568750D02*
X84931250Y-103187500D01*
X84931250Y-103187500D02*
X84931250Y-102076250D01*
X49269750Y-105568750D02*
X82550000Y-105568750D01*
X46831250Y-103130250D02*
X49269750Y-105568750D01*
X46831250Y-103187500D02*
X46831250Y-102076250D01*
X120650000Y-105568750D02*
X123031250Y-103187500D01*
X123031250Y-103187500D02*
X123031250Y-102076250D01*
X87369750Y-105568750D02*
X120650000Y-105568750D01*
X84931250Y-103130250D02*
X87369750Y-105568750D01*
X84931250Y-103187500D02*
X84931250Y-102076250D01*
X158750000Y-105568750D02*
X161131250Y-103187500D01*
X161131250Y-103187500D02*
X161131250Y-102076250D01*
X125469750Y-105568750D02*
X158750000Y-105568750D01*
X123031250Y-103130250D02*
X125469750Y-105568750D01*
X123031250Y-103187500D02*
X123031250Y-102076250D01*
X196850000Y-105568750D02*
X199231250Y-103187500D01*
X199231250Y-103187500D02*
X199231250Y-102076250D01*
X163569750Y-105568750D02*
X196850000Y-105568750D01*
X161131250Y-103130250D02*
X163569750Y-105568750D01*
X161131250Y-103187500D02*
X161131250Y-102076250D01*
X234950000Y-105568750D02*
X237331250Y-103187500D01*
X237331250Y-103187500D02*
X237331250Y-102076250D01*
X201669750Y-105568750D02*
X234950000Y-105568750D01*
X199231250Y-103130250D02*
X201669750Y-105568750D01*
X199231250Y-103187500D02*
X199231250Y-102076250D01*
X238385250Y-102076250D02*
X237331250Y-102076250D01*
X238959482Y-102076250D02*
X238385250Y-102076250D01*
X295275000Y-66675000D02*
X293660788Y-66675000D01*
X281781250Y-78554538D02*
X281781250Y-82550000D01*
X281781250Y-82550000D02*
X278606250Y-85725000D01*
X278606250Y-85725000D02*
X255310732Y-85725000D01*
X293660788Y-66675000D02*
X281781250Y-78554538D01*
X255310732Y-85725000D02*
X238959482Y-102076250D01*
X36512500Y-99218750D02*
X34131250Y-99218750D01*
X34131250Y-99218750D02*
X31750000Y-96837500D01*
X102927250Y-102076250D02*
X103981250Y-102076250D01*
X101800249Y-100949249D02*
X102927250Y-102076250D01*
X65881250Y-102076250D02*
X66935250Y-102076250D01*
X66935250Y-102076250D02*
X68062251Y-100949249D01*
X68062251Y-100949249D02*
X101800249Y-100949249D01*
X141027250Y-102076250D02*
X142081250Y-102076250D01*
X139900249Y-100949249D02*
X141027250Y-102076250D01*
X103981250Y-102076250D02*
X105035250Y-102076250D01*
X105035250Y-102076250D02*
X106162251Y-100949249D01*
X106162251Y-100949249D02*
X139900249Y-100949249D01*
X179127250Y-102076250D02*
X180181250Y-102076250D01*
X178000249Y-100949249D02*
X179127250Y-102076250D01*
X142081250Y-102076250D02*
X143135250Y-102076250D01*
X143135250Y-102076250D02*
X144262251Y-100949249D01*
X144262251Y-100949249D02*
X178000249Y-100949249D01*
X217227250Y-102076250D02*
X218281250Y-102076250D01*
X216100249Y-100949249D02*
X217227250Y-102076250D01*
X180181250Y-102076250D02*
X181235250Y-102076250D01*
X181235250Y-102076250D02*
X182362251Y-100949249D01*
X182362251Y-100949249D02*
X216100249Y-100949249D01*
X64770000Y-102076250D02*
X65881250Y-102076250D01*
X34131250Y-100806250D02*
X63500000Y-100806250D01*
X63500000Y-100806250D02*
X64770000Y-102076250D01*
X268287500Y-102076250D02*
X240982500Y-102076250D01*
X240982500Y-102076250D02*
X240506250Y-101600000D01*
X231775000Y-100806250D02*
X220662500Y-100806250D01*
X219392500Y-102076250D02*
X218281250Y-102076250D01*
X220662500Y-100806250D02*
X219392500Y-102076250D01*
X231514750Y-83026250D02*
X232568750Y-83026250D01*
X230387749Y-81899249D02*
X231514750Y-83026250D01*
X194468750Y-83026250D02*
X195522750Y-83026250D01*
X195522750Y-83026250D02*
X196649751Y-81899249D01*
X196649751Y-81899249D02*
X230387749Y-81899249D01*
X193414750Y-83026250D02*
X194468750Y-83026250D01*
X192287749Y-81899249D02*
X193414750Y-83026250D01*
X156368750Y-83026250D02*
X157422750Y-83026250D01*
X157422750Y-83026250D02*
X158549751Y-81899249D01*
X158549751Y-81899249D02*
X192287749Y-81899249D01*
X155314750Y-83026250D02*
X156368750Y-83026250D01*
X154187749Y-81899249D02*
X155314750Y-83026250D01*
X118268750Y-83026250D02*
X119322750Y-83026250D01*
X119322750Y-83026250D02*
X120449751Y-81899249D01*
X120449751Y-81899249D02*
X154187749Y-81899249D01*
X117214750Y-83026250D02*
X118268750Y-83026250D01*
X116087749Y-81899249D02*
X117214750Y-83026250D01*
X80168750Y-83026250D02*
X81222750Y-83026250D01*
X81222750Y-83026250D02*
X82349751Y-81899249D01*
X82349751Y-81899249D02*
X116087749Y-81899249D01*
X79114750Y-83026250D02*
X80168750Y-83026250D01*
X77987749Y-81899249D02*
X79114750Y-83026250D01*
X42068750Y-83026250D02*
X43122750Y-83026250D01*
X43122750Y-83026250D02*
X44249751Y-81899249D01*
X44249751Y-81899249D02*
X77987749Y-81899249D01*
X41751250Y-83343750D02*
X42068750Y-83026250D01*
X28575000Y-83343750D02*
X41751250Y-83343750D01*
X274377250Y-83026250D02*
X275431250Y-83026250D01*
X273250249Y-81899249D02*
X274377250Y-83026250D01*
X234749751Y-81899249D02*
X273250249Y-81899249D01*
X233622750Y-83026250D02*
X234749751Y-81899249D01*
X232568750Y-83026250D02*
X233622750Y-83026250D01*
X249237500Y-86518750D02*
X251618750Y-84137500D01*
X251618750Y-84137500D02*
X251618750Y-83026250D01*
X215957250Y-86518750D02*
X249237500Y-86518750D01*
X213518750Y-84080250D02*
X215957250Y-86518750D01*
X213518750Y-84137500D02*
X213518750Y-83026250D01*
X211137500Y-86518750D02*
X213518750Y-84137500D01*
X213518750Y-84137500D02*
X213518750Y-83026250D01*
X177857250Y-86518750D02*
X211137500Y-86518750D01*
X175418750Y-84080250D02*
X177857250Y-86518750D01*
X175418750Y-84137500D02*
X175418750Y-83026250D01*
X173037500Y-86518750D02*
X175418750Y-84137500D01*
X175418750Y-84137500D02*
X175418750Y-83026250D01*
X139757250Y-86518750D02*
X173037500Y-86518750D01*
X137318750Y-84080250D02*
X139757250Y-86518750D01*
X137318750Y-84137500D02*
X137318750Y-83026250D01*
X134937500Y-86518750D02*
X137318750Y-84137500D01*
X137318750Y-84137500D02*
X137318750Y-83026250D01*
X101657250Y-86518750D02*
X134937500Y-86518750D01*
X99218750Y-84080250D02*
X101657250Y-86518750D01*
X99218750Y-84137500D02*
X99218750Y-83026250D01*
X96837500Y-86518750D02*
X99218750Y-84137500D01*
X99218750Y-84137500D02*
X99218750Y-83026250D01*
X63557250Y-86518750D02*
X96837500Y-86518750D01*
X61118750Y-84080250D02*
X63557250Y-86518750D01*
X18256250Y-87471250D02*
X16510000Y-89217500D01*
X18256250Y-83026250D02*
X18256250Y-87471250D01*
X18256250Y-84080250D02*
X20694750Y-86518750D01*
X18256250Y-83026250D02*
X18256250Y-84080250D01*
X20694750Y-86518750D02*
X58737500Y-86518750D01*
X61118750Y-84137500D02*
X61118750Y-83026250D01*
X58737500Y-86518750D02*
X61118750Y-84137500D01*
X221989750Y-63976250D02*
X223043750Y-63976250D01*
X220862749Y-62849249D02*
X221989750Y-63976250D01*
X184943750Y-63976250D02*
X185997750Y-63976250D01*
X185997750Y-63976250D02*
X187124751Y-62849249D01*
X187124751Y-62849249D02*
X220862749Y-62849249D01*
X183889750Y-63976250D02*
X184943750Y-63976250D01*
X182762749Y-62849249D02*
X183889750Y-63976250D01*
X146843750Y-63976250D02*
X147897750Y-63976250D01*
X147897750Y-63976250D02*
X149024751Y-62849249D01*
X149024751Y-62849249D02*
X182762749Y-62849249D01*
X145789750Y-63976250D02*
X146843750Y-63976250D01*
X144662749Y-62849249D02*
X145789750Y-63976250D01*
X108743750Y-63976250D02*
X109797750Y-63976250D01*
X109797750Y-63976250D02*
X110924751Y-62849249D01*
X110924751Y-62849249D02*
X144662749Y-62849249D01*
X107689750Y-63976250D02*
X108743750Y-63976250D01*
X106562749Y-62849249D02*
X107689750Y-63976250D01*
X70643750Y-63976250D02*
X71697750Y-63976250D01*
X71697750Y-63976250D02*
X72824751Y-62849249D01*
X72824751Y-62849249D02*
X106562749Y-62849249D01*
X69589750Y-63976250D02*
X70643750Y-63976250D01*
X68462749Y-62849249D02*
X69589750Y-63976250D01*
X34724751Y-62849249D02*
X68462749Y-62849249D01*
X33597750Y-63976250D02*
X34724751Y-62849249D01*
X32543750Y-63976250D02*
X33597750Y-63976250D01*
X269614750Y-63976250D02*
X270668750Y-63976250D01*
X268487749Y-62849249D02*
X269614750Y-63976250D01*
X225224751Y-62849249D02*
X268487749Y-62849249D01*
X224097750Y-63976250D02*
X225224751Y-62849249D01*
X223043750Y-63976250D02*
X224097750Y-63976250D01*
X13970000Y-87978225D02*
X13970000Y-89217500D01*
X13970000Y-81360462D02*
X13970000Y-87978225D01*
X25480462Y-69850000D02*
X13970000Y-81360462D01*
X27781250Y-69850000D02*
X25480462Y-69850000D01*
X203993750Y-65087500D02*
X203993750Y-63976250D01*
X201612500Y-67468750D02*
X203993750Y-65087500D01*
X203993750Y-65087500D02*
X203993750Y-63976250D01*
X168332250Y-67468750D02*
X201612500Y-67468750D01*
X165893750Y-65030250D02*
X168332250Y-67468750D01*
X165893750Y-65087500D02*
X165893750Y-63976250D01*
X165893750Y-65087500D02*
X165893750Y-63976250D01*
X127793750Y-65030250D02*
X130232250Y-67468750D01*
X127793750Y-65087500D02*
X127793750Y-63976250D01*
X89693750Y-65087500D02*
X89693750Y-63976250D01*
X51593750Y-65030250D02*
X54032250Y-67468750D01*
X51593750Y-63976250D02*
X51593750Y-65030250D01*
X89693750Y-65087500D02*
X89693750Y-63976250D01*
X87312500Y-67468750D02*
X89693750Y-65087500D01*
X13493750Y-65030250D02*
X13493750Y-63976250D01*
X11231749Y-67292251D02*
X13493750Y-65030250D01*
X11231749Y-72932463D02*
X11231749Y-67292251D01*
X7997849Y-76166363D02*
X11231749Y-72932463D01*
X7997849Y-85785349D02*
X7997849Y-76166363D01*
X11430000Y-89217500D02*
X7997849Y-85785349D01*
X130232250Y-67468750D02*
X142081250Y-67468750D01*
X142081250Y-67468750D02*
X149225000Y-74612500D01*
X149225000Y-74612500D02*
X153987500Y-74612500D01*
X158394683Y-70999067D02*
X161925000Y-67468750D01*
X161925000Y-67468750D02*
X163512500Y-67468750D01*
X163512500Y-67468750D02*
X165893750Y-65087500D01*
X13493750Y-65030250D02*
X15932250Y-67468750D01*
X49212500Y-67468750D02*
X51593750Y-65087500D01*
X51593750Y-65087500D02*
X51593750Y-63976250D01*
X15932250Y-67468750D02*
X49212500Y-67468750D01*
X54032250Y-67468750D02*
X57943750Y-67468750D01*
X232886250Y-63976250D02*
X242093750Y-63976250D01*
X229393750Y-67468750D02*
X232886250Y-63976250D01*
X203993750Y-63976250D02*
X207645000Y-63976250D01*
X211137500Y-67468750D02*
X229393750Y-67468750D01*
X207645000Y-63976250D02*
X211137500Y-67468750D01*
X127793750Y-65087500D02*
X127793750Y-63976250D01*
X125412500Y-67468750D02*
X127793750Y-65087500D01*
X89693750Y-65087500D02*
X92075000Y-67468750D01*
X92075000Y-67468750D02*
X125412500Y-67468750D01*
X57943750Y-67468750D02*
X64293750Y-67468750D01*
X77787500Y-67468750D02*
X87312500Y-67468750D01*
X150971250Y-72707500D02*
X153670000Y-72707500D01*
X153670000Y-72707500D02*
X156368750Y-75406250D01*
X277495000Y-110807500D02*
X280193750Y-113506250D01*
X274796250Y-110807500D02*
X277495000Y-110807500D01*
X108108750Y-110807500D02*
X110807500Y-110807500D01*
X110807500Y-110807500D02*
X113506250Y-113506250D01*
X58420000Y-72707500D02*
X61118750Y-75406250D01*
X55721250Y-72707500D02*
X58420000Y-72707500D01*
X36988750Y-129857500D02*
X39687500Y-132556250D01*
X34290000Y-129857500D02*
X36988750Y-129857500D01*
X72707500Y-110807500D02*
X75406250Y-113506250D01*
X70008750Y-110807500D02*
X72707500Y-110807500D01*
X131921250Y-72707500D02*
X134620000Y-72707500D01*
X134620000Y-72707500D02*
X137318750Y-75406250D01*
X50958750Y-110807500D02*
X53657500Y-110807500D01*
X53657500Y-110807500D02*
X56356250Y-113506250D01*
X201295000Y-53657500D02*
X203993750Y-56356250D01*
X198596250Y-53657500D02*
X201295000Y-53657500D01*
M02*
