G04 #@! TF.GenerationSoftware,KiCad,Pcbnew,(5.1.4)-1*
G04 #@! TF.CreationDate,2021-01-30T00:10:11-06:00*
G04 #@! TF.ProjectId,65MAIN,36354d41-494e-42e6-9b69-6361645f7063,rev?*
G04 #@! TF.SameCoordinates,Original*
G04 #@! TF.FileFunction,Legend,Bot*
G04 #@! TF.FilePolarity,Positive*
%FSLAX46Y46*%
G04 Gerber Fmt 4.6, Leading zero omitted, Abs format (unit mm)*
G04 Created by KiCad (PCBNEW (5.1.4)-1) date 2021-01-30 00:10:11*
%MOMM*%
%LPD*%
G04 APERTURE LIST*
%ADD10C,0.120000*%
%ADD11C,0.381000*%
%ADD12C,0.150000*%
G04 APERTURE END LIST*
D10*
X293525000Y-122765000D02*
X293525000Y-124885000D01*
X293525000Y-124885000D02*
X289405000Y-124885000D01*
X289405000Y-124885000D02*
X289405000Y-122765000D01*
X289405000Y-122765000D02*
X293525000Y-122765000D01*
X294295000Y-123825000D02*
X293525000Y-123825000D01*
X288635000Y-123825000D02*
X289405000Y-123825000D01*
X292865000Y-122765000D02*
X292865000Y-124885000D01*
X293525000Y-103715000D02*
X293525000Y-105835000D01*
X293525000Y-105835000D02*
X289405000Y-105835000D01*
X289405000Y-105835000D02*
X289405000Y-103715000D01*
X289405000Y-103715000D02*
X293525000Y-103715000D01*
X294295000Y-104775000D02*
X293525000Y-104775000D01*
X288635000Y-104775000D02*
X289405000Y-104775000D01*
X292865000Y-103715000D02*
X292865000Y-105835000D01*
X293525000Y-141815000D02*
X293525000Y-143935000D01*
X293525000Y-143935000D02*
X289405000Y-143935000D01*
X289405000Y-143935000D02*
X289405000Y-141815000D01*
X289405000Y-141815000D02*
X293525000Y-141815000D01*
X294295000Y-142875000D02*
X293525000Y-142875000D01*
X288635000Y-142875000D02*
X289405000Y-142875000D01*
X292865000Y-141815000D02*
X292865000Y-143935000D01*
X281253750Y-138426250D02*
X279133750Y-138426250D01*
X279133750Y-138426250D02*
X279133750Y-134306250D01*
X279133750Y-134306250D02*
X281253750Y-134306250D01*
X281253750Y-134306250D02*
X281253750Y-138426250D01*
X280193750Y-139196250D02*
X280193750Y-138426250D01*
X280193750Y-133536250D02*
X280193750Y-134306250D01*
X281253750Y-137766250D02*
X279133750Y-137766250D01*
X246328750Y-138743750D02*
X244208750Y-138743750D01*
X244208750Y-138743750D02*
X244208750Y-134623750D01*
X244208750Y-134623750D02*
X246328750Y-134623750D01*
X246328750Y-134623750D02*
X246328750Y-138743750D01*
X245268750Y-139513750D02*
X245268750Y-138743750D01*
X245268750Y-133853750D02*
X245268750Y-134623750D01*
X246328750Y-138083750D02*
X244208750Y-138083750D01*
X231247500Y-138426250D02*
X229127500Y-138426250D01*
X229127500Y-138426250D02*
X229127500Y-134306250D01*
X229127500Y-134306250D02*
X231247500Y-134306250D01*
X231247500Y-134306250D02*
X231247500Y-138426250D01*
X230187500Y-139196250D02*
X230187500Y-138426250D01*
X230187500Y-133536250D02*
X230187500Y-134306250D01*
X231247500Y-137766250D02*
X229127500Y-137766250D01*
X207435000Y-138426250D02*
X205315000Y-138426250D01*
X205315000Y-138426250D02*
X205315000Y-134306250D01*
X205315000Y-134306250D02*
X207435000Y-134306250D01*
X207435000Y-134306250D02*
X207435000Y-138426250D01*
X206375000Y-139196250D02*
X206375000Y-138426250D01*
X206375000Y-133536250D02*
X206375000Y-134306250D01*
X207435000Y-137766250D02*
X205315000Y-137766250D01*
X135997500Y-138426250D02*
X133877500Y-138426250D01*
X133877500Y-138426250D02*
X133877500Y-134306250D01*
X133877500Y-134306250D02*
X135997500Y-134306250D01*
X135997500Y-134306250D02*
X135997500Y-138426250D01*
X134937500Y-139196250D02*
X134937500Y-138426250D01*
X134937500Y-133536250D02*
X134937500Y-134306250D01*
X135997500Y-137766250D02*
X133877500Y-137766250D01*
X64560000Y-138426250D02*
X62440000Y-138426250D01*
X62440000Y-138426250D02*
X62440000Y-134306250D01*
X62440000Y-134306250D02*
X64560000Y-134306250D01*
X64560000Y-134306250D02*
X64560000Y-138426250D01*
X63500000Y-139196250D02*
X63500000Y-138426250D01*
X63500000Y-133536250D02*
X63500000Y-134306250D01*
X64560000Y-137766250D02*
X62440000Y-137766250D01*
X40747500Y-138426250D02*
X38627500Y-138426250D01*
X38627500Y-138426250D02*
X38627500Y-134306250D01*
X38627500Y-134306250D02*
X40747500Y-134306250D01*
X40747500Y-134306250D02*
X40747500Y-138426250D01*
X39687500Y-139196250D02*
X39687500Y-138426250D01*
X39687500Y-133536250D02*
X39687500Y-134306250D01*
X40747500Y-137766250D02*
X38627500Y-137766250D01*
X16935000Y-138426250D02*
X14815000Y-138426250D01*
X14815000Y-138426250D02*
X14815000Y-134306250D01*
X14815000Y-134306250D02*
X16935000Y-134306250D01*
X16935000Y-134306250D02*
X16935000Y-138426250D01*
X15875000Y-139196250D02*
X15875000Y-138426250D01*
X15875000Y-133536250D02*
X15875000Y-134306250D01*
X16935000Y-137766250D02*
X14815000Y-137766250D01*
X293525000Y-84665000D02*
X293525000Y-86785000D01*
X293525000Y-86785000D02*
X289405000Y-86785000D01*
X289405000Y-86785000D02*
X289405000Y-84665000D01*
X289405000Y-84665000D02*
X293525000Y-84665000D01*
X294295000Y-85725000D02*
X293525000Y-85725000D01*
X288635000Y-85725000D02*
X289405000Y-85725000D01*
X292865000Y-84665000D02*
X292865000Y-86785000D01*
X281253750Y-119376250D02*
X279133750Y-119376250D01*
X279133750Y-119376250D02*
X279133750Y-115256250D01*
X279133750Y-115256250D02*
X281253750Y-115256250D01*
X281253750Y-115256250D02*
X281253750Y-119376250D01*
X280193750Y-120146250D02*
X280193750Y-119376250D01*
X280193750Y-114486250D02*
X280193750Y-115256250D01*
X281253750Y-118716250D02*
X279133750Y-118716250D01*
X255060000Y-119376250D02*
X252940000Y-119376250D01*
X252940000Y-119376250D02*
X252940000Y-115256250D01*
X252940000Y-115256250D02*
X255060000Y-115256250D01*
X255060000Y-115256250D02*
X255060000Y-119376250D01*
X254000000Y-120146250D02*
X254000000Y-119376250D01*
X254000000Y-114486250D02*
X254000000Y-115256250D01*
X255060000Y-118716250D02*
X252940000Y-118716250D01*
X228866250Y-119376250D02*
X226746250Y-119376250D01*
X226746250Y-119376250D02*
X226746250Y-115256250D01*
X226746250Y-115256250D02*
X228866250Y-115256250D01*
X228866250Y-115256250D02*
X228866250Y-119376250D01*
X227806250Y-120146250D02*
X227806250Y-119376250D01*
X227806250Y-114486250D02*
X227806250Y-115256250D01*
X228866250Y-118716250D02*
X226746250Y-118716250D01*
X209816250Y-119376250D02*
X207696250Y-119376250D01*
X207696250Y-119376250D02*
X207696250Y-115256250D01*
X207696250Y-115256250D02*
X209816250Y-115256250D01*
X209816250Y-115256250D02*
X209816250Y-119376250D01*
X208756250Y-120146250D02*
X208756250Y-119376250D01*
X208756250Y-114486250D02*
X208756250Y-115256250D01*
X209816250Y-118716250D02*
X207696250Y-118716250D01*
X190766250Y-119376250D02*
X188646250Y-119376250D01*
X188646250Y-119376250D02*
X188646250Y-115256250D01*
X188646250Y-115256250D02*
X190766250Y-115256250D01*
X190766250Y-115256250D02*
X190766250Y-119376250D01*
X189706250Y-120146250D02*
X189706250Y-119376250D01*
X189706250Y-114486250D02*
X189706250Y-115256250D01*
X190766250Y-118716250D02*
X188646250Y-118716250D01*
X171716250Y-119376250D02*
X169596250Y-119376250D01*
X169596250Y-119376250D02*
X169596250Y-115256250D01*
X169596250Y-115256250D02*
X171716250Y-115256250D01*
X171716250Y-115256250D02*
X171716250Y-119376250D01*
X170656250Y-120146250D02*
X170656250Y-119376250D01*
X170656250Y-114486250D02*
X170656250Y-115256250D01*
X171716250Y-118716250D02*
X169596250Y-118716250D01*
X152666250Y-119376250D02*
X150546250Y-119376250D01*
X150546250Y-119376250D02*
X150546250Y-115256250D01*
X150546250Y-115256250D02*
X152666250Y-115256250D01*
X152666250Y-115256250D02*
X152666250Y-119376250D01*
X151606250Y-120146250D02*
X151606250Y-119376250D01*
X151606250Y-114486250D02*
X151606250Y-115256250D01*
X152666250Y-118716250D02*
X150546250Y-118716250D01*
X133616250Y-119376250D02*
X131496250Y-119376250D01*
X131496250Y-119376250D02*
X131496250Y-115256250D01*
X131496250Y-115256250D02*
X133616250Y-115256250D01*
X133616250Y-115256250D02*
X133616250Y-119376250D01*
X132556250Y-120146250D02*
X132556250Y-119376250D01*
X132556250Y-114486250D02*
X132556250Y-115256250D01*
X133616250Y-118716250D02*
X131496250Y-118716250D01*
X114566250Y-119376250D02*
X112446250Y-119376250D01*
X112446250Y-119376250D02*
X112446250Y-115256250D01*
X112446250Y-115256250D02*
X114566250Y-115256250D01*
X114566250Y-115256250D02*
X114566250Y-119376250D01*
X113506250Y-120146250D02*
X113506250Y-119376250D01*
X113506250Y-114486250D02*
X113506250Y-115256250D01*
X114566250Y-118716250D02*
X112446250Y-118716250D01*
X95516250Y-119376250D02*
X93396250Y-119376250D01*
X93396250Y-119376250D02*
X93396250Y-115256250D01*
X93396250Y-115256250D02*
X95516250Y-115256250D01*
X95516250Y-115256250D02*
X95516250Y-119376250D01*
X94456250Y-120146250D02*
X94456250Y-119376250D01*
X94456250Y-114486250D02*
X94456250Y-115256250D01*
X95516250Y-118716250D02*
X93396250Y-118716250D01*
X76466250Y-119376250D02*
X74346250Y-119376250D01*
X74346250Y-119376250D02*
X74346250Y-115256250D01*
X74346250Y-115256250D02*
X76466250Y-115256250D01*
X76466250Y-115256250D02*
X76466250Y-119376250D01*
X75406250Y-120146250D02*
X75406250Y-119376250D01*
X75406250Y-114486250D02*
X75406250Y-115256250D01*
X76466250Y-118716250D02*
X74346250Y-118716250D01*
X57416250Y-119376250D02*
X55296250Y-119376250D01*
X55296250Y-119376250D02*
X55296250Y-115256250D01*
X55296250Y-115256250D02*
X57416250Y-115256250D01*
X57416250Y-115256250D02*
X57416250Y-119376250D01*
X56356250Y-120146250D02*
X56356250Y-119376250D01*
X56356250Y-114486250D02*
X56356250Y-115256250D01*
X57416250Y-118716250D02*
X55296250Y-118716250D01*
X26460000Y-119376250D02*
X24340000Y-119376250D01*
X24340000Y-119376250D02*
X24340000Y-115256250D01*
X24340000Y-115256250D02*
X26460000Y-115256250D01*
X26460000Y-115256250D02*
X26460000Y-119376250D01*
X25400000Y-120146250D02*
X25400000Y-119376250D01*
X25400000Y-114486250D02*
X25400000Y-115256250D01*
X26460000Y-118716250D02*
X24340000Y-118716250D01*
X293525000Y-65615000D02*
X293525000Y-67735000D01*
X293525000Y-67735000D02*
X289405000Y-67735000D01*
X289405000Y-67735000D02*
X289405000Y-65615000D01*
X289405000Y-65615000D02*
X293525000Y-65615000D01*
X294295000Y-66675000D02*
X293525000Y-66675000D01*
X288635000Y-66675000D02*
X289405000Y-66675000D01*
X292865000Y-65615000D02*
X292865000Y-67735000D01*
X269347500Y-100326250D02*
X267227500Y-100326250D01*
X267227500Y-100326250D02*
X267227500Y-96206250D01*
X267227500Y-96206250D02*
X269347500Y-96206250D01*
X269347500Y-96206250D02*
X269347500Y-100326250D01*
X268287500Y-101096250D02*
X268287500Y-100326250D01*
X268287500Y-95436250D02*
X268287500Y-96206250D01*
X269347500Y-99666250D02*
X267227500Y-99666250D01*
X238391250Y-100326250D02*
X236271250Y-100326250D01*
X236271250Y-100326250D02*
X236271250Y-96206250D01*
X236271250Y-96206250D02*
X238391250Y-96206250D01*
X238391250Y-96206250D02*
X238391250Y-100326250D01*
X237331250Y-101096250D02*
X237331250Y-100326250D01*
X237331250Y-95436250D02*
X237331250Y-96206250D01*
X238391250Y-99666250D02*
X236271250Y-99666250D01*
X219341250Y-100326250D02*
X217221250Y-100326250D01*
X217221250Y-100326250D02*
X217221250Y-96206250D01*
X217221250Y-96206250D02*
X219341250Y-96206250D01*
X219341250Y-96206250D02*
X219341250Y-100326250D01*
X218281250Y-101096250D02*
X218281250Y-100326250D01*
X218281250Y-95436250D02*
X218281250Y-96206250D01*
X219341250Y-99666250D02*
X217221250Y-99666250D01*
X200291250Y-100326250D02*
X198171250Y-100326250D01*
X198171250Y-100326250D02*
X198171250Y-96206250D01*
X198171250Y-96206250D02*
X200291250Y-96206250D01*
X200291250Y-96206250D02*
X200291250Y-100326250D01*
X199231250Y-101096250D02*
X199231250Y-100326250D01*
X199231250Y-95436250D02*
X199231250Y-96206250D01*
X200291250Y-99666250D02*
X198171250Y-99666250D01*
X181241250Y-100326250D02*
X179121250Y-100326250D01*
X179121250Y-100326250D02*
X179121250Y-96206250D01*
X179121250Y-96206250D02*
X181241250Y-96206250D01*
X181241250Y-96206250D02*
X181241250Y-100326250D01*
X180181250Y-101096250D02*
X180181250Y-100326250D01*
X180181250Y-95436250D02*
X180181250Y-96206250D01*
X181241250Y-99666250D02*
X179121250Y-99666250D01*
X162191250Y-100326250D02*
X160071250Y-100326250D01*
X160071250Y-100326250D02*
X160071250Y-96206250D01*
X160071250Y-96206250D02*
X162191250Y-96206250D01*
X162191250Y-96206250D02*
X162191250Y-100326250D01*
X161131250Y-101096250D02*
X161131250Y-100326250D01*
X161131250Y-95436250D02*
X161131250Y-96206250D01*
X162191250Y-99666250D02*
X160071250Y-99666250D01*
X143141250Y-100326250D02*
X141021250Y-100326250D01*
X141021250Y-100326250D02*
X141021250Y-96206250D01*
X141021250Y-96206250D02*
X143141250Y-96206250D01*
X143141250Y-96206250D02*
X143141250Y-100326250D01*
X142081250Y-101096250D02*
X142081250Y-100326250D01*
X142081250Y-95436250D02*
X142081250Y-96206250D01*
X143141250Y-99666250D02*
X141021250Y-99666250D01*
X124091250Y-100326250D02*
X121971250Y-100326250D01*
X121971250Y-100326250D02*
X121971250Y-96206250D01*
X121971250Y-96206250D02*
X124091250Y-96206250D01*
X124091250Y-96206250D02*
X124091250Y-100326250D01*
X123031250Y-101096250D02*
X123031250Y-100326250D01*
X123031250Y-95436250D02*
X123031250Y-96206250D01*
X124091250Y-99666250D02*
X121971250Y-99666250D01*
X105041250Y-100326250D02*
X102921250Y-100326250D01*
X102921250Y-100326250D02*
X102921250Y-96206250D01*
X102921250Y-96206250D02*
X105041250Y-96206250D01*
X105041250Y-96206250D02*
X105041250Y-100326250D01*
X103981250Y-101096250D02*
X103981250Y-100326250D01*
X103981250Y-95436250D02*
X103981250Y-96206250D01*
X105041250Y-99666250D02*
X102921250Y-99666250D01*
X85991250Y-100326250D02*
X83871250Y-100326250D01*
X83871250Y-100326250D02*
X83871250Y-96206250D01*
X83871250Y-96206250D02*
X85991250Y-96206250D01*
X85991250Y-96206250D02*
X85991250Y-100326250D01*
X84931250Y-101096250D02*
X84931250Y-100326250D01*
X84931250Y-95436250D02*
X84931250Y-96206250D01*
X85991250Y-99666250D02*
X83871250Y-99666250D01*
X66941250Y-100326250D02*
X64821250Y-100326250D01*
X64821250Y-100326250D02*
X64821250Y-96206250D01*
X64821250Y-96206250D02*
X66941250Y-96206250D01*
X66941250Y-96206250D02*
X66941250Y-100326250D01*
X65881250Y-101096250D02*
X65881250Y-100326250D01*
X65881250Y-95436250D02*
X65881250Y-96206250D01*
X66941250Y-99666250D02*
X64821250Y-99666250D01*
X47891250Y-100326250D02*
X45771250Y-100326250D01*
X45771250Y-100326250D02*
X45771250Y-96206250D01*
X45771250Y-96206250D02*
X47891250Y-96206250D01*
X47891250Y-96206250D02*
X47891250Y-100326250D01*
X46831250Y-101096250D02*
X46831250Y-100326250D01*
X46831250Y-95436250D02*
X46831250Y-96206250D01*
X47891250Y-99666250D02*
X45771250Y-99666250D01*
X21697500Y-100326250D02*
X19577500Y-100326250D01*
X19577500Y-100326250D02*
X19577500Y-96206250D01*
X19577500Y-96206250D02*
X21697500Y-96206250D01*
X21697500Y-96206250D02*
X21697500Y-100326250D01*
X20637500Y-101096250D02*
X20637500Y-100326250D01*
X20637500Y-95436250D02*
X20637500Y-96206250D01*
X21697500Y-99666250D02*
X19577500Y-99666250D01*
X276491250Y-81276250D02*
X274371250Y-81276250D01*
X274371250Y-81276250D02*
X274371250Y-77156250D01*
X274371250Y-77156250D02*
X276491250Y-77156250D01*
X276491250Y-77156250D02*
X276491250Y-81276250D01*
X275431250Y-82046250D02*
X275431250Y-81276250D01*
X275431250Y-76386250D02*
X275431250Y-77156250D01*
X276491250Y-80616250D02*
X274371250Y-80616250D01*
X252678750Y-81276250D02*
X250558750Y-81276250D01*
X250558750Y-81276250D02*
X250558750Y-77156250D01*
X250558750Y-77156250D02*
X252678750Y-77156250D01*
X252678750Y-77156250D02*
X252678750Y-81276250D01*
X251618750Y-82046250D02*
X251618750Y-81276250D01*
X251618750Y-76386250D02*
X251618750Y-77156250D01*
X252678750Y-80616250D02*
X250558750Y-80616250D01*
X233628750Y-81276250D02*
X231508750Y-81276250D01*
X231508750Y-81276250D02*
X231508750Y-77156250D01*
X231508750Y-77156250D02*
X233628750Y-77156250D01*
X233628750Y-77156250D02*
X233628750Y-81276250D01*
X232568750Y-82046250D02*
X232568750Y-81276250D01*
X232568750Y-76386250D02*
X232568750Y-77156250D01*
X233628750Y-80616250D02*
X231508750Y-80616250D01*
X214578750Y-81276250D02*
X212458750Y-81276250D01*
X212458750Y-81276250D02*
X212458750Y-77156250D01*
X212458750Y-77156250D02*
X214578750Y-77156250D01*
X214578750Y-77156250D02*
X214578750Y-81276250D01*
X213518750Y-82046250D02*
X213518750Y-81276250D01*
X213518750Y-76386250D02*
X213518750Y-77156250D01*
X214578750Y-80616250D02*
X212458750Y-80616250D01*
X195528750Y-81276250D02*
X193408750Y-81276250D01*
X193408750Y-81276250D02*
X193408750Y-77156250D01*
X193408750Y-77156250D02*
X195528750Y-77156250D01*
X195528750Y-77156250D02*
X195528750Y-81276250D01*
X194468750Y-82046250D02*
X194468750Y-81276250D01*
X194468750Y-76386250D02*
X194468750Y-77156250D01*
X195528750Y-80616250D02*
X193408750Y-80616250D01*
X176478750Y-81276250D02*
X174358750Y-81276250D01*
X174358750Y-81276250D02*
X174358750Y-77156250D01*
X174358750Y-77156250D02*
X176478750Y-77156250D01*
X176478750Y-77156250D02*
X176478750Y-81276250D01*
X175418750Y-82046250D02*
X175418750Y-81276250D01*
X175418750Y-76386250D02*
X175418750Y-77156250D01*
X176478750Y-80616250D02*
X174358750Y-80616250D01*
X157428750Y-81276250D02*
X155308750Y-81276250D01*
X155308750Y-81276250D02*
X155308750Y-77156250D01*
X155308750Y-77156250D02*
X157428750Y-77156250D01*
X157428750Y-77156250D02*
X157428750Y-81276250D01*
X156368750Y-82046250D02*
X156368750Y-81276250D01*
X156368750Y-76386250D02*
X156368750Y-77156250D01*
X157428750Y-80616250D02*
X155308750Y-80616250D01*
X138378750Y-81276250D02*
X136258750Y-81276250D01*
X136258750Y-81276250D02*
X136258750Y-77156250D01*
X136258750Y-77156250D02*
X138378750Y-77156250D01*
X138378750Y-77156250D02*
X138378750Y-81276250D01*
X137318750Y-82046250D02*
X137318750Y-81276250D01*
X137318750Y-76386250D02*
X137318750Y-77156250D01*
X138378750Y-80616250D02*
X136258750Y-80616250D01*
X119328750Y-81276250D02*
X117208750Y-81276250D01*
X117208750Y-81276250D02*
X117208750Y-77156250D01*
X117208750Y-77156250D02*
X119328750Y-77156250D01*
X119328750Y-77156250D02*
X119328750Y-81276250D01*
X118268750Y-82046250D02*
X118268750Y-81276250D01*
X118268750Y-76386250D02*
X118268750Y-77156250D01*
X119328750Y-80616250D02*
X117208750Y-80616250D01*
X100278750Y-81276250D02*
X98158750Y-81276250D01*
X98158750Y-81276250D02*
X98158750Y-77156250D01*
X98158750Y-77156250D02*
X100278750Y-77156250D01*
X100278750Y-77156250D02*
X100278750Y-81276250D01*
X99218750Y-82046250D02*
X99218750Y-81276250D01*
X99218750Y-76386250D02*
X99218750Y-77156250D01*
X100278750Y-80616250D02*
X98158750Y-80616250D01*
X81228750Y-81276250D02*
X79108750Y-81276250D01*
X79108750Y-81276250D02*
X79108750Y-77156250D01*
X79108750Y-77156250D02*
X81228750Y-77156250D01*
X81228750Y-77156250D02*
X81228750Y-81276250D01*
X80168750Y-82046250D02*
X80168750Y-81276250D01*
X80168750Y-76386250D02*
X80168750Y-77156250D01*
X81228750Y-80616250D02*
X79108750Y-80616250D01*
X62178750Y-81276250D02*
X60058750Y-81276250D01*
X60058750Y-81276250D02*
X60058750Y-77156250D01*
X60058750Y-77156250D02*
X62178750Y-77156250D01*
X62178750Y-77156250D02*
X62178750Y-81276250D01*
X61118750Y-82046250D02*
X61118750Y-81276250D01*
X61118750Y-76386250D02*
X61118750Y-77156250D01*
X62178750Y-80616250D02*
X60058750Y-80616250D01*
X43128750Y-81276250D02*
X41008750Y-81276250D01*
X41008750Y-81276250D02*
X41008750Y-77156250D01*
X41008750Y-77156250D02*
X43128750Y-77156250D01*
X43128750Y-77156250D02*
X43128750Y-81276250D01*
X42068750Y-82046250D02*
X42068750Y-81276250D01*
X42068750Y-76386250D02*
X42068750Y-77156250D01*
X43128750Y-80616250D02*
X41008750Y-80616250D01*
X19316250Y-81276250D02*
X17196250Y-81276250D01*
X17196250Y-81276250D02*
X17196250Y-77156250D01*
X17196250Y-77156250D02*
X19316250Y-77156250D01*
X19316250Y-77156250D02*
X19316250Y-81276250D01*
X18256250Y-82046250D02*
X18256250Y-81276250D01*
X18256250Y-76386250D02*
X18256250Y-77156250D01*
X19316250Y-80616250D02*
X17196250Y-80616250D01*
X271728750Y-62226250D02*
X269608750Y-62226250D01*
X269608750Y-62226250D02*
X269608750Y-58106250D01*
X269608750Y-58106250D02*
X271728750Y-58106250D01*
X271728750Y-58106250D02*
X271728750Y-62226250D01*
X270668750Y-62996250D02*
X270668750Y-62226250D01*
X270668750Y-57336250D02*
X270668750Y-58106250D01*
X271728750Y-61566250D02*
X269608750Y-61566250D01*
X243153750Y-62226250D02*
X241033750Y-62226250D01*
X241033750Y-62226250D02*
X241033750Y-58106250D01*
X241033750Y-58106250D02*
X243153750Y-58106250D01*
X243153750Y-58106250D02*
X243153750Y-62226250D01*
X242093750Y-62996250D02*
X242093750Y-62226250D01*
X242093750Y-57336250D02*
X242093750Y-58106250D01*
X243153750Y-61566250D02*
X241033750Y-61566250D01*
X224103750Y-62226250D02*
X221983750Y-62226250D01*
X221983750Y-62226250D02*
X221983750Y-58106250D01*
X221983750Y-58106250D02*
X224103750Y-58106250D01*
X224103750Y-58106250D02*
X224103750Y-62226250D01*
X223043750Y-62996250D02*
X223043750Y-62226250D01*
X223043750Y-57336250D02*
X223043750Y-58106250D01*
X224103750Y-61566250D02*
X221983750Y-61566250D01*
X205053750Y-62226250D02*
X202933750Y-62226250D01*
X202933750Y-62226250D02*
X202933750Y-58106250D01*
X202933750Y-58106250D02*
X205053750Y-58106250D01*
X205053750Y-58106250D02*
X205053750Y-62226250D01*
X203993750Y-62996250D02*
X203993750Y-62226250D01*
X203993750Y-57336250D02*
X203993750Y-58106250D01*
X205053750Y-61566250D02*
X202933750Y-61566250D01*
X186003750Y-62226250D02*
X183883750Y-62226250D01*
X183883750Y-62226250D02*
X183883750Y-58106250D01*
X183883750Y-58106250D02*
X186003750Y-58106250D01*
X186003750Y-58106250D02*
X186003750Y-62226250D01*
X184943750Y-62996250D02*
X184943750Y-62226250D01*
X184943750Y-57336250D02*
X184943750Y-58106250D01*
X186003750Y-61566250D02*
X183883750Y-61566250D01*
X166953750Y-62226250D02*
X164833750Y-62226250D01*
X164833750Y-62226250D02*
X164833750Y-58106250D01*
X164833750Y-58106250D02*
X166953750Y-58106250D01*
X166953750Y-58106250D02*
X166953750Y-62226250D01*
X165893750Y-62996250D02*
X165893750Y-62226250D01*
X165893750Y-57336250D02*
X165893750Y-58106250D01*
X166953750Y-61566250D02*
X164833750Y-61566250D01*
X147903750Y-62226250D02*
X145783750Y-62226250D01*
X145783750Y-62226250D02*
X145783750Y-58106250D01*
X145783750Y-58106250D02*
X147903750Y-58106250D01*
X147903750Y-58106250D02*
X147903750Y-62226250D01*
X146843750Y-62996250D02*
X146843750Y-62226250D01*
X146843750Y-57336250D02*
X146843750Y-58106250D01*
X147903750Y-61566250D02*
X145783750Y-61566250D01*
X128853750Y-62226250D02*
X126733750Y-62226250D01*
X126733750Y-62226250D02*
X126733750Y-58106250D01*
X126733750Y-58106250D02*
X128853750Y-58106250D01*
X128853750Y-58106250D02*
X128853750Y-62226250D01*
X127793750Y-62996250D02*
X127793750Y-62226250D01*
X127793750Y-57336250D02*
X127793750Y-58106250D01*
X128853750Y-61566250D02*
X126733750Y-61566250D01*
X109803750Y-62226250D02*
X107683750Y-62226250D01*
X107683750Y-62226250D02*
X107683750Y-58106250D01*
X107683750Y-58106250D02*
X109803750Y-58106250D01*
X109803750Y-58106250D02*
X109803750Y-62226250D01*
X108743750Y-62996250D02*
X108743750Y-62226250D01*
X108743750Y-57336250D02*
X108743750Y-58106250D01*
X109803750Y-61566250D02*
X107683750Y-61566250D01*
X90753750Y-62226250D02*
X88633750Y-62226250D01*
X88633750Y-62226250D02*
X88633750Y-58106250D01*
X88633750Y-58106250D02*
X90753750Y-58106250D01*
X90753750Y-58106250D02*
X90753750Y-62226250D01*
X89693750Y-62996250D02*
X89693750Y-62226250D01*
X89693750Y-57336250D02*
X89693750Y-58106250D01*
X90753750Y-61566250D02*
X88633750Y-61566250D01*
X71703750Y-62226250D02*
X69583750Y-62226250D01*
X69583750Y-62226250D02*
X69583750Y-58106250D01*
X69583750Y-58106250D02*
X71703750Y-58106250D01*
X71703750Y-58106250D02*
X71703750Y-62226250D01*
X70643750Y-62996250D02*
X70643750Y-62226250D01*
X70643750Y-57336250D02*
X70643750Y-58106250D01*
X71703750Y-61566250D02*
X69583750Y-61566250D01*
X52653750Y-62226250D02*
X50533750Y-62226250D01*
X50533750Y-62226250D02*
X50533750Y-58106250D01*
X50533750Y-58106250D02*
X52653750Y-58106250D01*
X52653750Y-58106250D02*
X52653750Y-62226250D01*
X51593750Y-62996250D02*
X51593750Y-62226250D01*
X51593750Y-57336250D02*
X51593750Y-58106250D01*
X52653750Y-61566250D02*
X50533750Y-61566250D01*
X33603750Y-62226250D02*
X31483750Y-62226250D01*
X31483750Y-62226250D02*
X31483750Y-58106250D01*
X31483750Y-58106250D02*
X33603750Y-58106250D01*
X33603750Y-58106250D02*
X33603750Y-62226250D01*
X32543750Y-62996250D02*
X32543750Y-62226250D01*
X32543750Y-57336250D02*
X32543750Y-58106250D01*
X33603750Y-61566250D02*
X31483750Y-61566250D01*
X14553750Y-62226250D02*
X12433750Y-62226250D01*
X12433750Y-62226250D02*
X12433750Y-58106250D01*
X12433750Y-58106250D02*
X14553750Y-58106250D01*
X14553750Y-58106250D02*
X14553750Y-62226250D01*
X13493750Y-62996250D02*
X13493750Y-62226250D01*
X13493750Y-57336250D02*
X13493750Y-58106250D01*
X14553750Y-61566250D02*
X12433750Y-61566250D01*
D11*
X0Y-103187500D02*
X0Y-105727500D01*
X-2540000Y-103187500D02*
X0Y-103187500D01*
D12*
G36*
X3749030Y-90792865D02*
G01*
X3849030Y-90792865D01*
X3849030Y-90692865D01*
X3749030Y-90692865D01*
X3749030Y-90792865D01*
G37*
X3749030Y-90792865D02*
X3849030Y-90792865D01*
X3849030Y-90692865D01*
X3749030Y-90692865D01*
X3749030Y-90792865D01*
G36*
X3349030Y-90592865D02*
G01*
X4149030Y-90592865D01*
X4149030Y-90492865D01*
X3349030Y-90492865D01*
X3349030Y-90592865D01*
G37*
X3349030Y-90592865D02*
X4149030Y-90592865D01*
X4149030Y-90492865D01*
X3349030Y-90492865D01*
X3349030Y-90592865D01*
G36*
X3949030Y-90992865D02*
G01*
X4149030Y-90992865D01*
X4149030Y-90892865D01*
X3949030Y-90892865D01*
X3949030Y-90992865D01*
G37*
X3949030Y-90992865D02*
X4149030Y-90992865D01*
X4149030Y-90892865D01*
X3949030Y-90892865D01*
X3949030Y-90992865D01*
G36*
X3349030Y-90992865D02*
G01*
X3649030Y-90992865D01*
X3649030Y-90892865D01*
X3349030Y-90892865D01*
X3349030Y-90992865D01*
G37*
X3349030Y-90992865D02*
X3649030Y-90992865D01*
X3649030Y-90892865D01*
X3349030Y-90892865D01*
X3349030Y-90992865D01*
G36*
X3349030Y-90992865D02*
G01*
X3449030Y-90992865D01*
X3449030Y-90492865D01*
X3349030Y-90492865D01*
X3349030Y-90992865D01*
G37*
X3349030Y-90992865D02*
X3449030Y-90992865D01*
X3449030Y-90492865D01*
X3349030Y-90492865D01*
X3349030Y-90992865D01*
D11*
X27940000Y-87947500D02*
X-5080000Y-87947500D01*
X27940000Y-105727500D02*
X27940000Y-87947500D01*
X-5080000Y-105727500D02*
X27940000Y-105727500D01*
X-5080000Y-87947500D02*
X-5080000Y-105727500D01*
X-2540000Y-103187500D02*
X-2540000Y-105727500D01*
D12*
X292679285Y-122217380D02*
X292679285Y-121217380D01*
X292441190Y-121217380D01*
X292298333Y-121265000D01*
X292203095Y-121360238D01*
X292155476Y-121455476D01*
X292107857Y-121645952D01*
X292107857Y-121788809D01*
X292155476Y-121979285D01*
X292203095Y-122074523D01*
X292298333Y-122169761D01*
X292441190Y-122217380D01*
X292679285Y-122217380D01*
X291250714Y-121217380D02*
X291441190Y-121217380D01*
X291536428Y-121265000D01*
X291584047Y-121312619D01*
X291679285Y-121455476D01*
X291726904Y-121645952D01*
X291726904Y-122026904D01*
X291679285Y-122122142D01*
X291631666Y-122169761D01*
X291536428Y-122217380D01*
X291345952Y-122217380D01*
X291250714Y-122169761D01*
X291203095Y-122122142D01*
X291155476Y-122026904D01*
X291155476Y-121788809D01*
X291203095Y-121693571D01*
X291250714Y-121645952D01*
X291345952Y-121598333D01*
X291536428Y-121598333D01*
X291631666Y-121645952D01*
X291679285Y-121693571D01*
X291726904Y-121788809D01*
X290584047Y-121645952D02*
X290679285Y-121598333D01*
X290726904Y-121550714D01*
X290774523Y-121455476D01*
X290774523Y-121407857D01*
X290726904Y-121312619D01*
X290679285Y-121265000D01*
X290584047Y-121217380D01*
X290393571Y-121217380D01*
X290298333Y-121265000D01*
X290250714Y-121312619D01*
X290203095Y-121407857D01*
X290203095Y-121455476D01*
X290250714Y-121550714D01*
X290298333Y-121598333D01*
X290393571Y-121645952D01*
X290584047Y-121645952D01*
X290679285Y-121693571D01*
X290726904Y-121741190D01*
X290774523Y-121836428D01*
X290774523Y-122026904D01*
X290726904Y-122122142D01*
X290679285Y-122169761D01*
X290584047Y-122217380D01*
X290393571Y-122217380D01*
X290298333Y-122169761D01*
X290250714Y-122122142D01*
X290203095Y-122026904D01*
X290203095Y-121836428D01*
X290250714Y-121741190D01*
X290298333Y-121693571D01*
X290393571Y-121645952D01*
X292679285Y-103167380D02*
X292679285Y-102167380D01*
X292441190Y-102167380D01*
X292298333Y-102215000D01*
X292203095Y-102310238D01*
X292155476Y-102405476D01*
X292107857Y-102595952D01*
X292107857Y-102738809D01*
X292155476Y-102929285D01*
X292203095Y-103024523D01*
X292298333Y-103119761D01*
X292441190Y-103167380D01*
X292679285Y-103167380D01*
X291250714Y-102167380D02*
X291441190Y-102167380D01*
X291536428Y-102215000D01*
X291584047Y-102262619D01*
X291679285Y-102405476D01*
X291726904Y-102595952D01*
X291726904Y-102976904D01*
X291679285Y-103072142D01*
X291631666Y-103119761D01*
X291536428Y-103167380D01*
X291345952Y-103167380D01*
X291250714Y-103119761D01*
X291203095Y-103072142D01*
X291155476Y-102976904D01*
X291155476Y-102738809D01*
X291203095Y-102643571D01*
X291250714Y-102595952D01*
X291345952Y-102548333D01*
X291536428Y-102548333D01*
X291631666Y-102595952D01*
X291679285Y-102643571D01*
X291726904Y-102738809D01*
X290822142Y-102167380D02*
X290155476Y-102167380D01*
X290584047Y-103167380D01*
X292679285Y-141267380D02*
X292679285Y-140267380D01*
X292441190Y-140267380D01*
X292298333Y-140315000D01*
X292203095Y-140410238D01*
X292155476Y-140505476D01*
X292107857Y-140695952D01*
X292107857Y-140838809D01*
X292155476Y-141029285D01*
X292203095Y-141124523D01*
X292298333Y-141219761D01*
X292441190Y-141267380D01*
X292679285Y-141267380D01*
X291250714Y-140267380D02*
X291441190Y-140267380D01*
X291536428Y-140315000D01*
X291584047Y-140362619D01*
X291679285Y-140505476D01*
X291726904Y-140695952D01*
X291726904Y-141076904D01*
X291679285Y-141172142D01*
X291631666Y-141219761D01*
X291536428Y-141267380D01*
X291345952Y-141267380D01*
X291250714Y-141219761D01*
X291203095Y-141172142D01*
X291155476Y-141076904D01*
X291155476Y-140838809D01*
X291203095Y-140743571D01*
X291250714Y-140695952D01*
X291345952Y-140648333D01*
X291536428Y-140648333D01*
X291631666Y-140695952D01*
X291679285Y-140743571D01*
X291726904Y-140838809D01*
X290298333Y-140267380D02*
X290488809Y-140267380D01*
X290584047Y-140315000D01*
X290631666Y-140362619D01*
X290726904Y-140505476D01*
X290774523Y-140695952D01*
X290774523Y-141076904D01*
X290726904Y-141172142D01*
X290679285Y-141219761D01*
X290584047Y-141267380D01*
X290393571Y-141267380D01*
X290298333Y-141219761D01*
X290250714Y-141172142D01*
X290203095Y-141076904D01*
X290203095Y-140838809D01*
X290250714Y-140743571D01*
X290298333Y-140695952D01*
X290393571Y-140648333D01*
X290584047Y-140648333D01*
X290679285Y-140695952D01*
X290726904Y-140743571D01*
X290774523Y-140838809D01*
X282706130Y-135151964D02*
X281706130Y-135151964D01*
X281706130Y-135390059D01*
X281753750Y-135532916D01*
X281848988Y-135628154D01*
X281944226Y-135675773D01*
X282134702Y-135723392D01*
X282277559Y-135723392D01*
X282468035Y-135675773D01*
X282563273Y-135628154D01*
X282658511Y-135532916D01*
X282706130Y-135390059D01*
X282706130Y-135151964D01*
X281706130Y-136580535D02*
X281706130Y-136390059D01*
X281753750Y-136294821D01*
X281801369Y-136247202D01*
X281944226Y-136151964D01*
X282134702Y-136104345D01*
X282515654Y-136104345D01*
X282610892Y-136151964D01*
X282658511Y-136199583D01*
X282706130Y-136294821D01*
X282706130Y-136485297D01*
X282658511Y-136580535D01*
X282610892Y-136628154D01*
X282515654Y-136675773D01*
X282277559Y-136675773D01*
X282182321Y-136628154D01*
X282134702Y-136580535D01*
X282087083Y-136485297D01*
X282087083Y-136294821D01*
X282134702Y-136199583D01*
X282182321Y-136151964D01*
X282277559Y-136104345D01*
X281706130Y-137580535D02*
X281706130Y-137104345D01*
X282182321Y-137056726D01*
X282134702Y-137104345D01*
X282087083Y-137199583D01*
X282087083Y-137437678D01*
X282134702Y-137532916D01*
X282182321Y-137580535D01*
X282277559Y-137628154D01*
X282515654Y-137628154D01*
X282610892Y-137580535D01*
X282658511Y-137532916D01*
X282706130Y-137437678D01*
X282706130Y-137199583D01*
X282658511Y-137104345D01*
X282610892Y-137056726D01*
X247781130Y-135469464D02*
X246781130Y-135469464D01*
X246781130Y-135707559D01*
X246828750Y-135850416D01*
X246923988Y-135945654D01*
X247019226Y-135993273D01*
X247209702Y-136040892D01*
X247352559Y-136040892D01*
X247543035Y-135993273D01*
X247638273Y-135945654D01*
X247733511Y-135850416D01*
X247781130Y-135707559D01*
X247781130Y-135469464D01*
X246781130Y-136898035D02*
X246781130Y-136707559D01*
X246828750Y-136612321D01*
X246876369Y-136564702D01*
X247019226Y-136469464D01*
X247209702Y-136421845D01*
X247590654Y-136421845D01*
X247685892Y-136469464D01*
X247733511Y-136517083D01*
X247781130Y-136612321D01*
X247781130Y-136802797D01*
X247733511Y-136898035D01*
X247685892Y-136945654D01*
X247590654Y-136993273D01*
X247352559Y-136993273D01*
X247257321Y-136945654D01*
X247209702Y-136898035D01*
X247162083Y-136802797D01*
X247162083Y-136612321D01*
X247209702Y-136517083D01*
X247257321Y-136469464D01*
X247352559Y-136421845D01*
X247114464Y-137850416D02*
X247781130Y-137850416D01*
X246733511Y-137612321D02*
X247447797Y-137374226D01*
X247447797Y-137993273D01*
X232699880Y-135151964D02*
X231699880Y-135151964D01*
X231699880Y-135390059D01*
X231747500Y-135532916D01*
X231842738Y-135628154D01*
X231937976Y-135675773D01*
X232128452Y-135723392D01*
X232271309Y-135723392D01*
X232461785Y-135675773D01*
X232557023Y-135628154D01*
X232652261Y-135532916D01*
X232699880Y-135390059D01*
X232699880Y-135151964D01*
X231699880Y-136580535D02*
X231699880Y-136390059D01*
X231747500Y-136294821D01*
X231795119Y-136247202D01*
X231937976Y-136151964D01*
X232128452Y-136104345D01*
X232509404Y-136104345D01*
X232604642Y-136151964D01*
X232652261Y-136199583D01*
X232699880Y-136294821D01*
X232699880Y-136485297D01*
X232652261Y-136580535D01*
X232604642Y-136628154D01*
X232509404Y-136675773D01*
X232271309Y-136675773D01*
X232176071Y-136628154D01*
X232128452Y-136580535D01*
X232080833Y-136485297D01*
X232080833Y-136294821D01*
X232128452Y-136199583D01*
X232176071Y-136151964D01*
X232271309Y-136104345D01*
X231699880Y-137009107D02*
X231699880Y-137628154D01*
X232080833Y-137294821D01*
X232080833Y-137437678D01*
X232128452Y-137532916D01*
X232176071Y-137580535D01*
X232271309Y-137628154D01*
X232509404Y-137628154D01*
X232604642Y-137580535D01*
X232652261Y-137532916D01*
X232699880Y-137437678D01*
X232699880Y-137151964D01*
X232652261Y-137056726D01*
X232604642Y-137009107D01*
X208887380Y-135151964D02*
X207887380Y-135151964D01*
X207887380Y-135390059D01*
X207935000Y-135532916D01*
X208030238Y-135628154D01*
X208125476Y-135675773D01*
X208315952Y-135723392D01*
X208458809Y-135723392D01*
X208649285Y-135675773D01*
X208744523Y-135628154D01*
X208839761Y-135532916D01*
X208887380Y-135390059D01*
X208887380Y-135151964D01*
X207887380Y-136580535D02*
X207887380Y-136390059D01*
X207935000Y-136294821D01*
X207982619Y-136247202D01*
X208125476Y-136151964D01*
X208315952Y-136104345D01*
X208696904Y-136104345D01*
X208792142Y-136151964D01*
X208839761Y-136199583D01*
X208887380Y-136294821D01*
X208887380Y-136485297D01*
X208839761Y-136580535D01*
X208792142Y-136628154D01*
X208696904Y-136675773D01*
X208458809Y-136675773D01*
X208363571Y-136628154D01*
X208315952Y-136580535D01*
X208268333Y-136485297D01*
X208268333Y-136294821D01*
X208315952Y-136199583D01*
X208363571Y-136151964D01*
X208458809Y-136104345D01*
X207982619Y-137056726D02*
X207935000Y-137104345D01*
X207887380Y-137199583D01*
X207887380Y-137437678D01*
X207935000Y-137532916D01*
X207982619Y-137580535D01*
X208077857Y-137628154D01*
X208173095Y-137628154D01*
X208315952Y-137580535D01*
X208887380Y-137009107D01*
X208887380Y-137628154D01*
X137449880Y-135151964D02*
X136449880Y-135151964D01*
X136449880Y-135390059D01*
X136497500Y-135532916D01*
X136592738Y-135628154D01*
X136687976Y-135675773D01*
X136878452Y-135723392D01*
X137021309Y-135723392D01*
X137211785Y-135675773D01*
X137307023Y-135628154D01*
X137402261Y-135532916D01*
X137449880Y-135390059D01*
X137449880Y-135151964D01*
X136449880Y-136580535D02*
X136449880Y-136390059D01*
X136497500Y-136294821D01*
X136545119Y-136247202D01*
X136687976Y-136151964D01*
X136878452Y-136104345D01*
X137259404Y-136104345D01*
X137354642Y-136151964D01*
X137402261Y-136199583D01*
X137449880Y-136294821D01*
X137449880Y-136485297D01*
X137402261Y-136580535D01*
X137354642Y-136628154D01*
X137259404Y-136675773D01*
X137021309Y-136675773D01*
X136926071Y-136628154D01*
X136878452Y-136580535D01*
X136830833Y-136485297D01*
X136830833Y-136294821D01*
X136878452Y-136199583D01*
X136926071Y-136151964D01*
X137021309Y-136104345D01*
X137449880Y-137628154D02*
X137449880Y-137056726D01*
X137449880Y-137342440D02*
X136449880Y-137342440D01*
X136592738Y-137247202D01*
X136687976Y-137151964D01*
X136735595Y-137056726D01*
X66012380Y-135151964D02*
X65012380Y-135151964D01*
X65012380Y-135390059D01*
X65060000Y-135532916D01*
X65155238Y-135628154D01*
X65250476Y-135675773D01*
X65440952Y-135723392D01*
X65583809Y-135723392D01*
X65774285Y-135675773D01*
X65869523Y-135628154D01*
X65964761Y-135532916D01*
X66012380Y-135390059D01*
X66012380Y-135151964D01*
X65012380Y-136580535D02*
X65012380Y-136390059D01*
X65060000Y-136294821D01*
X65107619Y-136247202D01*
X65250476Y-136151964D01*
X65440952Y-136104345D01*
X65821904Y-136104345D01*
X65917142Y-136151964D01*
X65964761Y-136199583D01*
X66012380Y-136294821D01*
X66012380Y-136485297D01*
X65964761Y-136580535D01*
X65917142Y-136628154D01*
X65821904Y-136675773D01*
X65583809Y-136675773D01*
X65488571Y-136628154D01*
X65440952Y-136580535D01*
X65393333Y-136485297D01*
X65393333Y-136294821D01*
X65440952Y-136199583D01*
X65488571Y-136151964D01*
X65583809Y-136104345D01*
X65012380Y-137294821D02*
X65012380Y-137390059D01*
X65060000Y-137485297D01*
X65107619Y-137532916D01*
X65202857Y-137580535D01*
X65393333Y-137628154D01*
X65631428Y-137628154D01*
X65821904Y-137580535D01*
X65917142Y-137532916D01*
X65964761Y-137485297D01*
X66012380Y-137390059D01*
X66012380Y-137294821D01*
X65964761Y-137199583D01*
X65917142Y-137151964D01*
X65821904Y-137104345D01*
X65631428Y-137056726D01*
X65393333Y-137056726D01*
X65202857Y-137104345D01*
X65107619Y-137151964D01*
X65060000Y-137199583D01*
X65012380Y-137294821D01*
X42199880Y-135151964D02*
X41199880Y-135151964D01*
X41199880Y-135390059D01*
X41247500Y-135532916D01*
X41342738Y-135628154D01*
X41437976Y-135675773D01*
X41628452Y-135723392D01*
X41771309Y-135723392D01*
X41961785Y-135675773D01*
X42057023Y-135628154D01*
X42152261Y-135532916D01*
X42199880Y-135390059D01*
X42199880Y-135151964D01*
X41199880Y-136628154D02*
X41199880Y-136151964D01*
X41676071Y-136104345D01*
X41628452Y-136151964D01*
X41580833Y-136247202D01*
X41580833Y-136485297D01*
X41628452Y-136580535D01*
X41676071Y-136628154D01*
X41771309Y-136675773D01*
X42009404Y-136675773D01*
X42104642Y-136628154D01*
X42152261Y-136580535D01*
X42199880Y-136485297D01*
X42199880Y-136247202D01*
X42152261Y-136151964D01*
X42104642Y-136104345D01*
X42199880Y-137151964D02*
X42199880Y-137342440D01*
X42152261Y-137437678D01*
X42104642Y-137485297D01*
X41961785Y-137580535D01*
X41771309Y-137628154D01*
X41390357Y-137628154D01*
X41295119Y-137580535D01*
X41247500Y-137532916D01*
X41199880Y-137437678D01*
X41199880Y-137247202D01*
X41247500Y-137151964D01*
X41295119Y-137104345D01*
X41390357Y-137056726D01*
X41628452Y-137056726D01*
X41723690Y-137104345D01*
X41771309Y-137151964D01*
X41818928Y-137247202D01*
X41818928Y-137437678D01*
X41771309Y-137532916D01*
X41723690Y-137580535D01*
X41628452Y-137628154D01*
X18387380Y-135151964D02*
X17387380Y-135151964D01*
X17387380Y-135390059D01*
X17435000Y-135532916D01*
X17530238Y-135628154D01*
X17625476Y-135675773D01*
X17815952Y-135723392D01*
X17958809Y-135723392D01*
X18149285Y-135675773D01*
X18244523Y-135628154D01*
X18339761Y-135532916D01*
X18387380Y-135390059D01*
X18387380Y-135151964D01*
X17387380Y-136628154D02*
X17387380Y-136151964D01*
X17863571Y-136104345D01*
X17815952Y-136151964D01*
X17768333Y-136247202D01*
X17768333Y-136485297D01*
X17815952Y-136580535D01*
X17863571Y-136628154D01*
X17958809Y-136675773D01*
X18196904Y-136675773D01*
X18292142Y-136628154D01*
X18339761Y-136580535D01*
X18387380Y-136485297D01*
X18387380Y-136247202D01*
X18339761Y-136151964D01*
X18292142Y-136104345D01*
X17815952Y-137247202D02*
X17768333Y-137151964D01*
X17720714Y-137104345D01*
X17625476Y-137056726D01*
X17577857Y-137056726D01*
X17482619Y-137104345D01*
X17435000Y-137151964D01*
X17387380Y-137247202D01*
X17387380Y-137437678D01*
X17435000Y-137532916D01*
X17482619Y-137580535D01*
X17577857Y-137628154D01*
X17625476Y-137628154D01*
X17720714Y-137580535D01*
X17768333Y-137532916D01*
X17815952Y-137437678D01*
X17815952Y-137247202D01*
X17863571Y-137151964D01*
X17911190Y-137104345D01*
X18006428Y-137056726D01*
X18196904Y-137056726D01*
X18292142Y-137104345D01*
X18339761Y-137151964D01*
X18387380Y-137247202D01*
X18387380Y-137437678D01*
X18339761Y-137532916D01*
X18292142Y-137580535D01*
X18196904Y-137628154D01*
X18006428Y-137628154D01*
X17911190Y-137580535D01*
X17863571Y-137532916D01*
X17815952Y-137437678D01*
X292679285Y-84117380D02*
X292679285Y-83117380D01*
X292441190Y-83117380D01*
X292298333Y-83165000D01*
X292203095Y-83260238D01*
X292155476Y-83355476D01*
X292107857Y-83545952D01*
X292107857Y-83688809D01*
X292155476Y-83879285D01*
X292203095Y-83974523D01*
X292298333Y-84069761D01*
X292441190Y-84117380D01*
X292679285Y-84117380D01*
X291203095Y-83117380D02*
X291679285Y-83117380D01*
X291726904Y-83593571D01*
X291679285Y-83545952D01*
X291584047Y-83498333D01*
X291345952Y-83498333D01*
X291250714Y-83545952D01*
X291203095Y-83593571D01*
X291155476Y-83688809D01*
X291155476Y-83926904D01*
X291203095Y-84022142D01*
X291250714Y-84069761D01*
X291345952Y-84117380D01*
X291584047Y-84117380D01*
X291679285Y-84069761D01*
X291726904Y-84022142D01*
X290822142Y-83117380D02*
X290155476Y-83117380D01*
X290584047Y-84117380D01*
X282706130Y-116101964D02*
X281706130Y-116101964D01*
X281706130Y-116340059D01*
X281753750Y-116482916D01*
X281848988Y-116578154D01*
X281944226Y-116625773D01*
X282134702Y-116673392D01*
X282277559Y-116673392D01*
X282468035Y-116625773D01*
X282563273Y-116578154D01*
X282658511Y-116482916D01*
X282706130Y-116340059D01*
X282706130Y-116101964D01*
X281706130Y-117578154D02*
X281706130Y-117101964D01*
X282182321Y-117054345D01*
X282134702Y-117101964D01*
X282087083Y-117197202D01*
X282087083Y-117435297D01*
X282134702Y-117530535D01*
X282182321Y-117578154D01*
X282277559Y-117625773D01*
X282515654Y-117625773D01*
X282610892Y-117578154D01*
X282658511Y-117530535D01*
X282706130Y-117435297D01*
X282706130Y-117197202D01*
X282658511Y-117101964D01*
X282610892Y-117054345D01*
X281706130Y-118482916D02*
X281706130Y-118292440D01*
X281753750Y-118197202D01*
X281801369Y-118149583D01*
X281944226Y-118054345D01*
X282134702Y-118006726D01*
X282515654Y-118006726D01*
X282610892Y-118054345D01*
X282658511Y-118101964D01*
X282706130Y-118197202D01*
X282706130Y-118387678D01*
X282658511Y-118482916D01*
X282610892Y-118530535D01*
X282515654Y-118578154D01*
X282277559Y-118578154D01*
X282182321Y-118530535D01*
X282134702Y-118482916D01*
X282087083Y-118387678D01*
X282087083Y-118197202D01*
X282134702Y-118101964D01*
X282182321Y-118054345D01*
X282277559Y-118006726D01*
X256512380Y-116101964D02*
X255512380Y-116101964D01*
X255512380Y-116340059D01*
X255560000Y-116482916D01*
X255655238Y-116578154D01*
X255750476Y-116625773D01*
X255940952Y-116673392D01*
X256083809Y-116673392D01*
X256274285Y-116625773D01*
X256369523Y-116578154D01*
X256464761Y-116482916D01*
X256512380Y-116340059D01*
X256512380Y-116101964D01*
X255512380Y-117578154D02*
X255512380Y-117101964D01*
X255988571Y-117054345D01*
X255940952Y-117101964D01*
X255893333Y-117197202D01*
X255893333Y-117435297D01*
X255940952Y-117530535D01*
X255988571Y-117578154D01*
X256083809Y-117625773D01*
X256321904Y-117625773D01*
X256417142Y-117578154D01*
X256464761Y-117530535D01*
X256512380Y-117435297D01*
X256512380Y-117197202D01*
X256464761Y-117101964D01*
X256417142Y-117054345D01*
X255512380Y-118530535D02*
X255512380Y-118054345D01*
X255988571Y-118006726D01*
X255940952Y-118054345D01*
X255893333Y-118149583D01*
X255893333Y-118387678D01*
X255940952Y-118482916D01*
X255988571Y-118530535D01*
X256083809Y-118578154D01*
X256321904Y-118578154D01*
X256417142Y-118530535D01*
X256464761Y-118482916D01*
X256512380Y-118387678D01*
X256512380Y-118149583D01*
X256464761Y-118054345D01*
X256417142Y-118006726D01*
X230318630Y-116101964D02*
X229318630Y-116101964D01*
X229318630Y-116340059D01*
X229366250Y-116482916D01*
X229461488Y-116578154D01*
X229556726Y-116625773D01*
X229747202Y-116673392D01*
X229890059Y-116673392D01*
X230080535Y-116625773D01*
X230175773Y-116578154D01*
X230271011Y-116482916D01*
X230318630Y-116340059D01*
X230318630Y-116101964D01*
X229318630Y-117578154D02*
X229318630Y-117101964D01*
X229794821Y-117054345D01*
X229747202Y-117101964D01*
X229699583Y-117197202D01*
X229699583Y-117435297D01*
X229747202Y-117530535D01*
X229794821Y-117578154D01*
X229890059Y-117625773D01*
X230128154Y-117625773D01*
X230223392Y-117578154D01*
X230271011Y-117530535D01*
X230318630Y-117435297D01*
X230318630Y-117197202D01*
X230271011Y-117101964D01*
X230223392Y-117054345D01*
X229651964Y-118482916D02*
X230318630Y-118482916D01*
X229271011Y-118244821D02*
X229985297Y-118006726D01*
X229985297Y-118625773D01*
X211268630Y-116101964D02*
X210268630Y-116101964D01*
X210268630Y-116340059D01*
X210316250Y-116482916D01*
X210411488Y-116578154D01*
X210506726Y-116625773D01*
X210697202Y-116673392D01*
X210840059Y-116673392D01*
X211030535Y-116625773D01*
X211125773Y-116578154D01*
X211221011Y-116482916D01*
X211268630Y-116340059D01*
X211268630Y-116101964D01*
X210268630Y-117578154D02*
X210268630Y-117101964D01*
X210744821Y-117054345D01*
X210697202Y-117101964D01*
X210649583Y-117197202D01*
X210649583Y-117435297D01*
X210697202Y-117530535D01*
X210744821Y-117578154D01*
X210840059Y-117625773D01*
X211078154Y-117625773D01*
X211173392Y-117578154D01*
X211221011Y-117530535D01*
X211268630Y-117435297D01*
X211268630Y-117197202D01*
X211221011Y-117101964D01*
X211173392Y-117054345D01*
X210268630Y-117959107D02*
X210268630Y-118578154D01*
X210649583Y-118244821D01*
X210649583Y-118387678D01*
X210697202Y-118482916D01*
X210744821Y-118530535D01*
X210840059Y-118578154D01*
X211078154Y-118578154D01*
X211173392Y-118530535D01*
X211221011Y-118482916D01*
X211268630Y-118387678D01*
X211268630Y-118101964D01*
X211221011Y-118006726D01*
X211173392Y-117959107D01*
X192218630Y-116101964D02*
X191218630Y-116101964D01*
X191218630Y-116340059D01*
X191266250Y-116482916D01*
X191361488Y-116578154D01*
X191456726Y-116625773D01*
X191647202Y-116673392D01*
X191790059Y-116673392D01*
X191980535Y-116625773D01*
X192075773Y-116578154D01*
X192171011Y-116482916D01*
X192218630Y-116340059D01*
X192218630Y-116101964D01*
X191218630Y-117578154D02*
X191218630Y-117101964D01*
X191694821Y-117054345D01*
X191647202Y-117101964D01*
X191599583Y-117197202D01*
X191599583Y-117435297D01*
X191647202Y-117530535D01*
X191694821Y-117578154D01*
X191790059Y-117625773D01*
X192028154Y-117625773D01*
X192123392Y-117578154D01*
X192171011Y-117530535D01*
X192218630Y-117435297D01*
X192218630Y-117197202D01*
X192171011Y-117101964D01*
X192123392Y-117054345D01*
X191313869Y-118006726D02*
X191266250Y-118054345D01*
X191218630Y-118149583D01*
X191218630Y-118387678D01*
X191266250Y-118482916D01*
X191313869Y-118530535D01*
X191409107Y-118578154D01*
X191504345Y-118578154D01*
X191647202Y-118530535D01*
X192218630Y-117959107D01*
X192218630Y-118578154D01*
X173168630Y-116101964D02*
X172168630Y-116101964D01*
X172168630Y-116340059D01*
X172216250Y-116482916D01*
X172311488Y-116578154D01*
X172406726Y-116625773D01*
X172597202Y-116673392D01*
X172740059Y-116673392D01*
X172930535Y-116625773D01*
X173025773Y-116578154D01*
X173121011Y-116482916D01*
X173168630Y-116340059D01*
X173168630Y-116101964D01*
X172168630Y-117578154D02*
X172168630Y-117101964D01*
X172644821Y-117054345D01*
X172597202Y-117101964D01*
X172549583Y-117197202D01*
X172549583Y-117435297D01*
X172597202Y-117530535D01*
X172644821Y-117578154D01*
X172740059Y-117625773D01*
X172978154Y-117625773D01*
X173073392Y-117578154D01*
X173121011Y-117530535D01*
X173168630Y-117435297D01*
X173168630Y-117197202D01*
X173121011Y-117101964D01*
X173073392Y-117054345D01*
X173168630Y-118578154D02*
X173168630Y-118006726D01*
X173168630Y-118292440D02*
X172168630Y-118292440D01*
X172311488Y-118197202D01*
X172406726Y-118101964D01*
X172454345Y-118006726D01*
X154118630Y-116101964D02*
X153118630Y-116101964D01*
X153118630Y-116340059D01*
X153166250Y-116482916D01*
X153261488Y-116578154D01*
X153356726Y-116625773D01*
X153547202Y-116673392D01*
X153690059Y-116673392D01*
X153880535Y-116625773D01*
X153975773Y-116578154D01*
X154071011Y-116482916D01*
X154118630Y-116340059D01*
X154118630Y-116101964D01*
X153118630Y-117578154D02*
X153118630Y-117101964D01*
X153594821Y-117054345D01*
X153547202Y-117101964D01*
X153499583Y-117197202D01*
X153499583Y-117435297D01*
X153547202Y-117530535D01*
X153594821Y-117578154D01*
X153690059Y-117625773D01*
X153928154Y-117625773D01*
X154023392Y-117578154D01*
X154071011Y-117530535D01*
X154118630Y-117435297D01*
X154118630Y-117197202D01*
X154071011Y-117101964D01*
X154023392Y-117054345D01*
X153118630Y-118244821D02*
X153118630Y-118340059D01*
X153166250Y-118435297D01*
X153213869Y-118482916D01*
X153309107Y-118530535D01*
X153499583Y-118578154D01*
X153737678Y-118578154D01*
X153928154Y-118530535D01*
X154023392Y-118482916D01*
X154071011Y-118435297D01*
X154118630Y-118340059D01*
X154118630Y-118244821D01*
X154071011Y-118149583D01*
X154023392Y-118101964D01*
X153928154Y-118054345D01*
X153737678Y-118006726D01*
X153499583Y-118006726D01*
X153309107Y-118054345D01*
X153213869Y-118101964D01*
X153166250Y-118149583D01*
X153118630Y-118244821D01*
X135068630Y-116101964D02*
X134068630Y-116101964D01*
X134068630Y-116340059D01*
X134116250Y-116482916D01*
X134211488Y-116578154D01*
X134306726Y-116625773D01*
X134497202Y-116673392D01*
X134640059Y-116673392D01*
X134830535Y-116625773D01*
X134925773Y-116578154D01*
X135021011Y-116482916D01*
X135068630Y-116340059D01*
X135068630Y-116101964D01*
X134401964Y-117530535D02*
X135068630Y-117530535D01*
X134021011Y-117292440D02*
X134735297Y-117054345D01*
X134735297Y-117673392D01*
X135068630Y-118101964D02*
X135068630Y-118292440D01*
X135021011Y-118387678D01*
X134973392Y-118435297D01*
X134830535Y-118530535D01*
X134640059Y-118578154D01*
X134259107Y-118578154D01*
X134163869Y-118530535D01*
X134116250Y-118482916D01*
X134068630Y-118387678D01*
X134068630Y-118197202D01*
X134116250Y-118101964D01*
X134163869Y-118054345D01*
X134259107Y-118006726D01*
X134497202Y-118006726D01*
X134592440Y-118054345D01*
X134640059Y-118101964D01*
X134687678Y-118197202D01*
X134687678Y-118387678D01*
X134640059Y-118482916D01*
X134592440Y-118530535D01*
X134497202Y-118578154D01*
X116018630Y-116101964D02*
X115018630Y-116101964D01*
X115018630Y-116340059D01*
X115066250Y-116482916D01*
X115161488Y-116578154D01*
X115256726Y-116625773D01*
X115447202Y-116673392D01*
X115590059Y-116673392D01*
X115780535Y-116625773D01*
X115875773Y-116578154D01*
X115971011Y-116482916D01*
X116018630Y-116340059D01*
X116018630Y-116101964D01*
X115351964Y-117530535D02*
X116018630Y-117530535D01*
X114971011Y-117292440D02*
X115685297Y-117054345D01*
X115685297Y-117673392D01*
X115447202Y-118197202D02*
X115399583Y-118101964D01*
X115351964Y-118054345D01*
X115256726Y-118006726D01*
X115209107Y-118006726D01*
X115113869Y-118054345D01*
X115066250Y-118101964D01*
X115018630Y-118197202D01*
X115018630Y-118387678D01*
X115066250Y-118482916D01*
X115113869Y-118530535D01*
X115209107Y-118578154D01*
X115256726Y-118578154D01*
X115351964Y-118530535D01*
X115399583Y-118482916D01*
X115447202Y-118387678D01*
X115447202Y-118197202D01*
X115494821Y-118101964D01*
X115542440Y-118054345D01*
X115637678Y-118006726D01*
X115828154Y-118006726D01*
X115923392Y-118054345D01*
X115971011Y-118101964D01*
X116018630Y-118197202D01*
X116018630Y-118387678D01*
X115971011Y-118482916D01*
X115923392Y-118530535D01*
X115828154Y-118578154D01*
X115637678Y-118578154D01*
X115542440Y-118530535D01*
X115494821Y-118482916D01*
X115447202Y-118387678D01*
X96968630Y-116101964D02*
X95968630Y-116101964D01*
X95968630Y-116340059D01*
X96016250Y-116482916D01*
X96111488Y-116578154D01*
X96206726Y-116625773D01*
X96397202Y-116673392D01*
X96540059Y-116673392D01*
X96730535Y-116625773D01*
X96825773Y-116578154D01*
X96921011Y-116482916D01*
X96968630Y-116340059D01*
X96968630Y-116101964D01*
X96301964Y-117530535D02*
X96968630Y-117530535D01*
X95921011Y-117292440D02*
X96635297Y-117054345D01*
X96635297Y-117673392D01*
X95968630Y-117959107D02*
X95968630Y-118625773D01*
X96968630Y-118197202D01*
X77918630Y-116101964D02*
X76918630Y-116101964D01*
X76918630Y-116340059D01*
X76966250Y-116482916D01*
X77061488Y-116578154D01*
X77156726Y-116625773D01*
X77347202Y-116673392D01*
X77490059Y-116673392D01*
X77680535Y-116625773D01*
X77775773Y-116578154D01*
X77871011Y-116482916D01*
X77918630Y-116340059D01*
X77918630Y-116101964D01*
X77251964Y-117530535D02*
X77918630Y-117530535D01*
X76871011Y-117292440D02*
X77585297Y-117054345D01*
X77585297Y-117673392D01*
X76918630Y-118482916D02*
X76918630Y-118292440D01*
X76966250Y-118197202D01*
X77013869Y-118149583D01*
X77156726Y-118054345D01*
X77347202Y-118006726D01*
X77728154Y-118006726D01*
X77823392Y-118054345D01*
X77871011Y-118101964D01*
X77918630Y-118197202D01*
X77918630Y-118387678D01*
X77871011Y-118482916D01*
X77823392Y-118530535D01*
X77728154Y-118578154D01*
X77490059Y-118578154D01*
X77394821Y-118530535D01*
X77347202Y-118482916D01*
X77299583Y-118387678D01*
X77299583Y-118197202D01*
X77347202Y-118101964D01*
X77394821Y-118054345D01*
X77490059Y-118006726D01*
X58868630Y-116101964D02*
X57868630Y-116101964D01*
X57868630Y-116340059D01*
X57916250Y-116482916D01*
X58011488Y-116578154D01*
X58106726Y-116625773D01*
X58297202Y-116673392D01*
X58440059Y-116673392D01*
X58630535Y-116625773D01*
X58725773Y-116578154D01*
X58821011Y-116482916D01*
X58868630Y-116340059D01*
X58868630Y-116101964D01*
X58201964Y-117530535D02*
X58868630Y-117530535D01*
X57821011Y-117292440D02*
X58535297Y-117054345D01*
X58535297Y-117673392D01*
X57868630Y-118530535D02*
X57868630Y-118054345D01*
X58344821Y-118006726D01*
X58297202Y-118054345D01*
X58249583Y-118149583D01*
X58249583Y-118387678D01*
X58297202Y-118482916D01*
X58344821Y-118530535D01*
X58440059Y-118578154D01*
X58678154Y-118578154D01*
X58773392Y-118530535D01*
X58821011Y-118482916D01*
X58868630Y-118387678D01*
X58868630Y-118149583D01*
X58821011Y-118054345D01*
X58773392Y-118006726D01*
X27912380Y-116101964D02*
X26912380Y-116101964D01*
X26912380Y-116340059D01*
X26960000Y-116482916D01*
X27055238Y-116578154D01*
X27150476Y-116625773D01*
X27340952Y-116673392D01*
X27483809Y-116673392D01*
X27674285Y-116625773D01*
X27769523Y-116578154D01*
X27864761Y-116482916D01*
X27912380Y-116340059D01*
X27912380Y-116101964D01*
X27245714Y-117530535D02*
X27912380Y-117530535D01*
X26864761Y-117292440D02*
X27579047Y-117054345D01*
X27579047Y-117673392D01*
X27245714Y-118482916D02*
X27912380Y-118482916D01*
X26864761Y-118244821D02*
X27579047Y-118006726D01*
X27579047Y-118625773D01*
X292679285Y-65067380D02*
X292679285Y-64067380D01*
X292441190Y-64067380D01*
X292298333Y-64115000D01*
X292203095Y-64210238D01*
X292155476Y-64305476D01*
X292107857Y-64495952D01*
X292107857Y-64638809D01*
X292155476Y-64829285D01*
X292203095Y-64924523D01*
X292298333Y-65019761D01*
X292441190Y-65067380D01*
X292679285Y-65067380D01*
X291250714Y-64400714D02*
X291250714Y-65067380D01*
X291488809Y-64019761D02*
X291726904Y-64734047D01*
X291107857Y-64734047D01*
X290822142Y-64067380D02*
X290203095Y-64067380D01*
X290536428Y-64448333D01*
X290393571Y-64448333D01*
X290298333Y-64495952D01*
X290250714Y-64543571D01*
X290203095Y-64638809D01*
X290203095Y-64876904D01*
X290250714Y-64972142D01*
X290298333Y-65019761D01*
X290393571Y-65067380D01*
X290679285Y-65067380D01*
X290774523Y-65019761D01*
X290822142Y-64972142D01*
X270799880Y-97051964D02*
X269799880Y-97051964D01*
X269799880Y-97290059D01*
X269847500Y-97432916D01*
X269942738Y-97528154D01*
X270037976Y-97575773D01*
X270228452Y-97623392D01*
X270371309Y-97623392D01*
X270561785Y-97575773D01*
X270657023Y-97528154D01*
X270752261Y-97432916D01*
X270799880Y-97290059D01*
X270799880Y-97051964D01*
X270133214Y-98480535D02*
X270799880Y-98480535D01*
X269752261Y-98242440D02*
X270466547Y-98004345D01*
X270466547Y-98623392D01*
X269895119Y-98956726D02*
X269847500Y-99004345D01*
X269799880Y-99099583D01*
X269799880Y-99337678D01*
X269847500Y-99432916D01*
X269895119Y-99480535D01*
X269990357Y-99528154D01*
X270085595Y-99528154D01*
X270228452Y-99480535D01*
X270799880Y-98909107D01*
X270799880Y-99528154D01*
X239843630Y-97051964D02*
X238843630Y-97051964D01*
X238843630Y-97290059D01*
X238891250Y-97432916D01*
X238986488Y-97528154D01*
X239081726Y-97575773D01*
X239272202Y-97623392D01*
X239415059Y-97623392D01*
X239605535Y-97575773D01*
X239700773Y-97528154D01*
X239796011Y-97432916D01*
X239843630Y-97290059D01*
X239843630Y-97051964D01*
X239176964Y-98480535D02*
X239843630Y-98480535D01*
X238796011Y-98242440D02*
X239510297Y-98004345D01*
X239510297Y-98623392D01*
X239843630Y-99528154D02*
X239843630Y-98956726D01*
X239843630Y-99242440D02*
X238843630Y-99242440D01*
X238986488Y-99147202D01*
X239081726Y-99051964D01*
X239129345Y-98956726D01*
X220793630Y-97051964D02*
X219793630Y-97051964D01*
X219793630Y-97290059D01*
X219841250Y-97432916D01*
X219936488Y-97528154D01*
X220031726Y-97575773D01*
X220222202Y-97623392D01*
X220365059Y-97623392D01*
X220555535Y-97575773D01*
X220650773Y-97528154D01*
X220746011Y-97432916D01*
X220793630Y-97290059D01*
X220793630Y-97051964D01*
X220126964Y-98480535D02*
X220793630Y-98480535D01*
X219746011Y-98242440D02*
X220460297Y-98004345D01*
X220460297Y-98623392D01*
X219793630Y-99194821D02*
X219793630Y-99290059D01*
X219841250Y-99385297D01*
X219888869Y-99432916D01*
X219984107Y-99480535D01*
X220174583Y-99528154D01*
X220412678Y-99528154D01*
X220603154Y-99480535D01*
X220698392Y-99432916D01*
X220746011Y-99385297D01*
X220793630Y-99290059D01*
X220793630Y-99194821D01*
X220746011Y-99099583D01*
X220698392Y-99051964D01*
X220603154Y-99004345D01*
X220412678Y-98956726D01*
X220174583Y-98956726D01*
X219984107Y-99004345D01*
X219888869Y-99051964D01*
X219841250Y-99099583D01*
X219793630Y-99194821D01*
X201743630Y-97051964D02*
X200743630Y-97051964D01*
X200743630Y-97290059D01*
X200791250Y-97432916D01*
X200886488Y-97528154D01*
X200981726Y-97575773D01*
X201172202Y-97623392D01*
X201315059Y-97623392D01*
X201505535Y-97575773D01*
X201600773Y-97528154D01*
X201696011Y-97432916D01*
X201743630Y-97290059D01*
X201743630Y-97051964D01*
X200743630Y-97956726D02*
X200743630Y-98575773D01*
X201124583Y-98242440D01*
X201124583Y-98385297D01*
X201172202Y-98480535D01*
X201219821Y-98528154D01*
X201315059Y-98575773D01*
X201553154Y-98575773D01*
X201648392Y-98528154D01*
X201696011Y-98480535D01*
X201743630Y-98385297D01*
X201743630Y-98099583D01*
X201696011Y-98004345D01*
X201648392Y-97956726D01*
X201743630Y-99051964D02*
X201743630Y-99242440D01*
X201696011Y-99337678D01*
X201648392Y-99385297D01*
X201505535Y-99480535D01*
X201315059Y-99528154D01*
X200934107Y-99528154D01*
X200838869Y-99480535D01*
X200791250Y-99432916D01*
X200743630Y-99337678D01*
X200743630Y-99147202D01*
X200791250Y-99051964D01*
X200838869Y-99004345D01*
X200934107Y-98956726D01*
X201172202Y-98956726D01*
X201267440Y-99004345D01*
X201315059Y-99051964D01*
X201362678Y-99147202D01*
X201362678Y-99337678D01*
X201315059Y-99432916D01*
X201267440Y-99480535D01*
X201172202Y-99528154D01*
X181788869Y-99480535D02*
X182788869Y-99480535D01*
X182788869Y-99242440D01*
X182741250Y-99099583D01*
X182646011Y-99004345D01*
X182550773Y-98956726D01*
X182360297Y-98909107D01*
X182217440Y-98909107D01*
X182026964Y-98956726D01*
X181931726Y-99004345D01*
X181836488Y-99099583D01*
X181788869Y-99242440D01*
X181788869Y-99480535D01*
X182788869Y-98575773D02*
X182788869Y-97956726D01*
X182407916Y-98290059D01*
X182407916Y-98147202D01*
X182360297Y-98051964D01*
X182312678Y-98004345D01*
X182217440Y-97956726D01*
X181979345Y-97956726D01*
X181884107Y-98004345D01*
X181836488Y-98051964D01*
X181788869Y-98147202D01*
X181788869Y-98432916D01*
X181836488Y-98528154D01*
X181884107Y-98575773D01*
X182360297Y-97385297D02*
X182407916Y-97480535D01*
X182455535Y-97528154D01*
X182550773Y-97575773D01*
X182598392Y-97575773D01*
X182693630Y-97528154D01*
X182741250Y-97480535D01*
X182788869Y-97385297D01*
X182788869Y-97194821D01*
X182741250Y-97099583D01*
X182693630Y-97051964D01*
X182598392Y-97004345D01*
X182550773Y-97004345D01*
X182455535Y-97051964D01*
X182407916Y-97099583D01*
X182360297Y-97194821D01*
X182360297Y-97385297D01*
X182312678Y-97480535D01*
X182265059Y-97528154D01*
X182169821Y-97575773D01*
X181979345Y-97575773D01*
X181884107Y-97528154D01*
X181836488Y-97480535D01*
X181788869Y-97385297D01*
X181788869Y-97194821D01*
X181836488Y-97099583D01*
X181884107Y-97051964D01*
X181979345Y-97004345D01*
X182169821Y-97004345D01*
X182265059Y-97051964D01*
X182312678Y-97099583D01*
X182360297Y-97194821D01*
X163643630Y-97051964D02*
X162643630Y-97051964D01*
X162643630Y-97290059D01*
X162691250Y-97432916D01*
X162786488Y-97528154D01*
X162881726Y-97575773D01*
X163072202Y-97623392D01*
X163215059Y-97623392D01*
X163405535Y-97575773D01*
X163500773Y-97528154D01*
X163596011Y-97432916D01*
X163643630Y-97290059D01*
X163643630Y-97051964D01*
X162643630Y-97956726D02*
X162643630Y-98575773D01*
X163024583Y-98242440D01*
X163024583Y-98385297D01*
X163072202Y-98480535D01*
X163119821Y-98528154D01*
X163215059Y-98575773D01*
X163453154Y-98575773D01*
X163548392Y-98528154D01*
X163596011Y-98480535D01*
X163643630Y-98385297D01*
X163643630Y-98099583D01*
X163596011Y-98004345D01*
X163548392Y-97956726D01*
X162643630Y-98909107D02*
X162643630Y-99575773D01*
X163643630Y-99147202D01*
X144593630Y-97051964D02*
X143593630Y-97051964D01*
X143593630Y-97290059D01*
X143641250Y-97432916D01*
X143736488Y-97528154D01*
X143831726Y-97575773D01*
X144022202Y-97623392D01*
X144165059Y-97623392D01*
X144355535Y-97575773D01*
X144450773Y-97528154D01*
X144546011Y-97432916D01*
X144593630Y-97290059D01*
X144593630Y-97051964D01*
X143593630Y-97956726D02*
X143593630Y-98575773D01*
X143974583Y-98242440D01*
X143974583Y-98385297D01*
X144022202Y-98480535D01*
X144069821Y-98528154D01*
X144165059Y-98575773D01*
X144403154Y-98575773D01*
X144498392Y-98528154D01*
X144546011Y-98480535D01*
X144593630Y-98385297D01*
X144593630Y-98099583D01*
X144546011Y-98004345D01*
X144498392Y-97956726D01*
X143593630Y-99432916D02*
X143593630Y-99242440D01*
X143641250Y-99147202D01*
X143688869Y-99099583D01*
X143831726Y-99004345D01*
X144022202Y-98956726D01*
X144403154Y-98956726D01*
X144498392Y-99004345D01*
X144546011Y-99051964D01*
X144593630Y-99147202D01*
X144593630Y-99337678D01*
X144546011Y-99432916D01*
X144498392Y-99480535D01*
X144403154Y-99528154D01*
X144165059Y-99528154D01*
X144069821Y-99480535D01*
X144022202Y-99432916D01*
X143974583Y-99337678D01*
X143974583Y-99147202D01*
X144022202Y-99051964D01*
X144069821Y-99004345D01*
X144165059Y-98956726D01*
X125543630Y-97051964D02*
X124543630Y-97051964D01*
X124543630Y-97290059D01*
X124591250Y-97432916D01*
X124686488Y-97528154D01*
X124781726Y-97575773D01*
X124972202Y-97623392D01*
X125115059Y-97623392D01*
X125305535Y-97575773D01*
X125400773Y-97528154D01*
X125496011Y-97432916D01*
X125543630Y-97290059D01*
X125543630Y-97051964D01*
X124543630Y-97956726D02*
X124543630Y-98575773D01*
X124924583Y-98242440D01*
X124924583Y-98385297D01*
X124972202Y-98480535D01*
X125019821Y-98528154D01*
X125115059Y-98575773D01*
X125353154Y-98575773D01*
X125448392Y-98528154D01*
X125496011Y-98480535D01*
X125543630Y-98385297D01*
X125543630Y-98099583D01*
X125496011Y-98004345D01*
X125448392Y-97956726D01*
X124543630Y-99480535D02*
X124543630Y-99004345D01*
X125019821Y-98956726D01*
X124972202Y-99004345D01*
X124924583Y-99099583D01*
X124924583Y-99337678D01*
X124972202Y-99432916D01*
X125019821Y-99480535D01*
X125115059Y-99528154D01*
X125353154Y-99528154D01*
X125448392Y-99480535D01*
X125496011Y-99432916D01*
X125543630Y-99337678D01*
X125543630Y-99099583D01*
X125496011Y-99004345D01*
X125448392Y-98956726D01*
X106493630Y-97051964D02*
X105493630Y-97051964D01*
X105493630Y-97290059D01*
X105541250Y-97432916D01*
X105636488Y-97528154D01*
X105731726Y-97575773D01*
X105922202Y-97623392D01*
X106065059Y-97623392D01*
X106255535Y-97575773D01*
X106350773Y-97528154D01*
X106446011Y-97432916D01*
X106493630Y-97290059D01*
X106493630Y-97051964D01*
X105493630Y-97956726D02*
X105493630Y-98575773D01*
X105874583Y-98242440D01*
X105874583Y-98385297D01*
X105922202Y-98480535D01*
X105969821Y-98528154D01*
X106065059Y-98575773D01*
X106303154Y-98575773D01*
X106398392Y-98528154D01*
X106446011Y-98480535D01*
X106493630Y-98385297D01*
X106493630Y-98099583D01*
X106446011Y-98004345D01*
X106398392Y-97956726D01*
X105826964Y-99432916D02*
X106493630Y-99432916D01*
X105446011Y-99194821D02*
X106160297Y-98956726D01*
X106160297Y-99575773D01*
X87443630Y-97051964D02*
X86443630Y-97051964D01*
X86443630Y-97290059D01*
X86491250Y-97432916D01*
X86586488Y-97528154D01*
X86681726Y-97575773D01*
X86872202Y-97623392D01*
X87015059Y-97623392D01*
X87205535Y-97575773D01*
X87300773Y-97528154D01*
X87396011Y-97432916D01*
X87443630Y-97290059D01*
X87443630Y-97051964D01*
X86443630Y-97956726D02*
X86443630Y-98575773D01*
X86824583Y-98242440D01*
X86824583Y-98385297D01*
X86872202Y-98480535D01*
X86919821Y-98528154D01*
X87015059Y-98575773D01*
X87253154Y-98575773D01*
X87348392Y-98528154D01*
X87396011Y-98480535D01*
X87443630Y-98385297D01*
X87443630Y-98099583D01*
X87396011Y-98004345D01*
X87348392Y-97956726D01*
X86443630Y-98909107D02*
X86443630Y-99528154D01*
X86824583Y-99194821D01*
X86824583Y-99337678D01*
X86872202Y-99432916D01*
X86919821Y-99480535D01*
X87015059Y-99528154D01*
X87253154Y-99528154D01*
X87348392Y-99480535D01*
X87396011Y-99432916D01*
X87443630Y-99337678D01*
X87443630Y-99051964D01*
X87396011Y-98956726D01*
X87348392Y-98909107D01*
X68393630Y-97051964D02*
X67393630Y-97051964D01*
X67393630Y-97290059D01*
X67441250Y-97432916D01*
X67536488Y-97528154D01*
X67631726Y-97575773D01*
X67822202Y-97623392D01*
X67965059Y-97623392D01*
X68155535Y-97575773D01*
X68250773Y-97528154D01*
X68346011Y-97432916D01*
X68393630Y-97290059D01*
X68393630Y-97051964D01*
X67393630Y-97956726D02*
X67393630Y-98575773D01*
X67774583Y-98242440D01*
X67774583Y-98385297D01*
X67822202Y-98480535D01*
X67869821Y-98528154D01*
X67965059Y-98575773D01*
X68203154Y-98575773D01*
X68298392Y-98528154D01*
X68346011Y-98480535D01*
X68393630Y-98385297D01*
X68393630Y-98099583D01*
X68346011Y-98004345D01*
X68298392Y-97956726D01*
X67488869Y-98956726D02*
X67441250Y-99004345D01*
X67393630Y-99099583D01*
X67393630Y-99337678D01*
X67441250Y-99432916D01*
X67488869Y-99480535D01*
X67584107Y-99528154D01*
X67679345Y-99528154D01*
X67822202Y-99480535D01*
X68393630Y-98909107D01*
X68393630Y-99528154D01*
X49343630Y-97051964D02*
X48343630Y-97051964D01*
X48343630Y-97290059D01*
X48391250Y-97432916D01*
X48486488Y-97528154D01*
X48581726Y-97575773D01*
X48772202Y-97623392D01*
X48915059Y-97623392D01*
X49105535Y-97575773D01*
X49200773Y-97528154D01*
X49296011Y-97432916D01*
X49343630Y-97290059D01*
X49343630Y-97051964D01*
X48343630Y-97956726D02*
X48343630Y-98575773D01*
X48724583Y-98242440D01*
X48724583Y-98385297D01*
X48772202Y-98480535D01*
X48819821Y-98528154D01*
X48915059Y-98575773D01*
X49153154Y-98575773D01*
X49248392Y-98528154D01*
X49296011Y-98480535D01*
X49343630Y-98385297D01*
X49343630Y-98099583D01*
X49296011Y-98004345D01*
X49248392Y-97956726D01*
X49343630Y-99528154D02*
X49343630Y-98956726D01*
X49343630Y-99242440D02*
X48343630Y-99242440D01*
X48486488Y-99147202D01*
X48581726Y-99051964D01*
X48629345Y-98956726D01*
X23149880Y-97051964D02*
X22149880Y-97051964D01*
X22149880Y-97290059D01*
X22197500Y-97432916D01*
X22292738Y-97528154D01*
X22387976Y-97575773D01*
X22578452Y-97623392D01*
X22721309Y-97623392D01*
X22911785Y-97575773D01*
X23007023Y-97528154D01*
X23102261Y-97432916D01*
X23149880Y-97290059D01*
X23149880Y-97051964D01*
X22149880Y-97956726D02*
X22149880Y-98575773D01*
X22530833Y-98242440D01*
X22530833Y-98385297D01*
X22578452Y-98480535D01*
X22626071Y-98528154D01*
X22721309Y-98575773D01*
X22959404Y-98575773D01*
X23054642Y-98528154D01*
X23102261Y-98480535D01*
X23149880Y-98385297D01*
X23149880Y-98099583D01*
X23102261Y-98004345D01*
X23054642Y-97956726D01*
X22149880Y-99194821D02*
X22149880Y-99290059D01*
X22197500Y-99385297D01*
X22245119Y-99432916D01*
X22340357Y-99480535D01*
X22530833Y-99528154D01*
X22768928Y-99528154D01*
X22959404Y-99480535D01*
X23054642Y-99432916D01*
X23102261Y-99385297D01*
X23149880Y-99290059D01*
X23149880Y-99194821D01*
X23102261Y-99099583D01*
X23054642Y-99051964D01*
X22959404Y-99004345D01*
X22768928Y-98956726D01*
X22530833Y-98956726D01*
X22340357Y-99004345D01*
X22245119Y-99051964D01*
X22197500Y-99099583D01*
X22149880Y-99194821D01*
X277943630Y-78001964D02*
X276943630Y-78001964D01*
X276943630Y-78240059D01*
X276991250Y-78382916D01*
X277086488Y-78478154D01*
X277181726Y-78525773D01*
X277372202Y-78573392D01*
X277515059Y-78573392D01*
X277705535Y-78525773D01*
X277800773Y-78478154D01*
X277896011Y-78382916D01*
X277943630Y-78240059D01*
X277943630Y-78001964D01*
X277038869Y-78954345D02*
X276991250Y-79001964D01*
X276943630Y-79097202D01*
X276943630Y-79335297D01*
X276991250Y-79430535D01*
X277038869Y-79478154D01*
X277134107Y-79525773D01*
X277229345Y-79525773D01*
X277372202Y-79478154D01*
X277943630Y-78906726D01*
X277943630Y-79525773D01*
X277372202Y-80097202D02*
X277324583Y-80001964D01*
X277276964Y-79954345D01*
X277181726Y-79906726D01*
X277134107Y-79906726D01*
X277038869Y-79954345D01*
X276991250Y-80001964D01*
X276943630Y-80097202D01*
X276943630Y-80287678D01*
X276991250Y-80382916D01*
X277038869Y-80430535D01*
X277134107Y-80478154D01*
X277181726Y-80478154D01*
X277276964Y-80430535D01*
X277324583Y-80382916D01*
X277372202Y-80287678D01*
X277372202Y-80097202D01*
X277419821Y-80001964D01*
X277467440Y-79954345D01*
X277562678Y-79906726D01*
X277753154Y-79906726D01*
X277848392Y-79954345D01*
X277896011Y-80001964D01*
X277943630Y-80097202D01*
X277943630Y-80287678D01*
X277896011Y-80382916D01*
X277848392Y-80430535D01*
X277753154Y-80478154D01*
X277562678Y-80478154D01*
X277467440Y-80430535D01*
X277419821Y-80382916D01*
X277372202Y-80287678D01*
X254131130Y-78001964D02*
X253131130Y-78001964D01*
X253131130Y-78240059D01*
X253178750Y-78382916D01*
X253273988Y-78478154D01*
X253369226Y-78525773D01*
X253559702Y-78573392D01*
X253702559Y-78573392D01*
X253893035Y-78525773D01*
X253988273Y-78478154D01*
X254083511Y-78382916D01*
X254131130Y-78240059D01*
X254131130Y-78001964D01*
X253226369Y-78954345D02*
X253178750Y-79001964D01*
X253131130Y-79097202D01*
X253131130Y-79335297D01*
X253178750Y-79430535D01*
X253226369Y-79478154D01*
X253321607Y-79525773D01*
X253416845Y-79525773D01*
X253559702Y-79478154D01*
X254131130Y-78906726D01*
X254131130Y-79525773D01*
X253131130Y-79859107D02*
X253131130Y-80525773D01*
X254131130Y-80097202D01*
X235081130Y-78001964D02*
X234081130Y-78001964D01*
X234081130Y-78240059D01*
X234128750Y-78382916D01*
X234223988Y-78478154D01*
X234319226Y-78525773D01*
X234509702Y-78573392D01*
X234652559Y-78573392D01*
X234843035Y-78525773D01*
X234938273Y-78478154D01*
X235033511Y-78382916D01*
X235081130Y-78240059D01*
X235081130Y-78001964D01*
X234176369Y-78954345D02*
X234128750Y-79001964D01*
X234081130Y-79097202D01*
X234081130Y-79335297D01*
X234128750Y-79430535D01*
X234176369Y-79478154D01*
X234271607Y-79525773D01*
X234366845Y-79525773D01*
X234509702Y-79478154D01*
X235081130Y-78906726D01*
X235081130Y-79525773D01*
X234081130Y-80382916D02*
X234081130Y-80192440D01*
X234128750Y-80097202D01*
X234176369Y-80049583D01*
X234319226Y-79954345D01*
X234509702Y-79906726D01*
X234890654Y-79906726D01*
X234985892Y-79954345D01*
X235033511Y-80001964D01*
X235081130Y-80097202D01*
X235081130Y-80287678D01*
X235033511Y-80382916D01*
X234985892Y-80430535D01*
X234890654Y-80478154D01*
X234652559Y-80478154D01*
X234557321Y-80430535D01*
X234509702Y-80382916D01*
X234462083Y-80287678D01*
X234462083Y-80097202D01*
X234509702Y-80001964D01*
X234557321Y-79954345D01*
X234652559Y-79906726D01*
X216031130Y-78001964D02*
X215031130Y-78001964D01*
X215031130Y-78240059D01*
X215078750Y-78382916D01*
X215173988Y-78478154D01*
X215269226Y-78525773D01*
X215459702Y-78573392D01*
X215602559Y-78573392D01*
X215793035Y-78525773D01*
X215888273Y-78478154D01*
X215983511Y-78382916D01*
X216031130Y-78240059D01*
X216031130Y-78001964D01*
X215126369Y-78954345D02*
X215078750Y-79001964D01*
X215031130Y-79097202D01*
X215031130Y-79335297D01*
X215078750Y-79430535D01*
X215126369Y-79478154D01*
X215221607Y-79525773D01*
X215316845Y-79525773D01*
X215459702Y-79478154D01*
X216031130Y-78906726D01*
X216031130Y-79525773D01*
X215031130Y-80430535D02*
X215031130Y-79954345D01*
X215507321Y-79906726D01*
X215459702Y-79954345D01*
X215412083Y-80049583D01*
X215412083Y-80287678D01*
X215459702Y-80382916D01*
X215507321Y-80430535D01*
X215602559Y-80478154D01*
X215840654Y-80478154D01*
X215935892Y-80430535D01*
X215983511Y-80382916D01*
X216031130Y-80287678D01*
X216031130Y-80049583D01*
X215983511Y-79954345D01*
X215935892Y-79906726D01*
X196981130Y-78001964D02*
X195981130Y-78001964D01*
X195981130Y-78240059D01*
X196028750Y-78382916D01*
X196123988Y-78478154D01*
X196219226Y-78525773D01*
X196409702Y-78573392D01*
X196552559Y-78573392D01*
X196743035Y-78525773D01*
X196838273Y-78478154D01*
X196933511Y-78382916D01*
X196981130Y-78240059D01*
X196981130Y-78001964D01*
X196076369Y-78954345D02*
X196028750Y-79001964D01*
X195981130Y-79097202D01*
X195981130Y-79335297D01*
X196028750Y-79430535D01*
X196076369Y-79478154D01*
X196171607Y-79525773D01*
X196266845Y-79525773D01*
X196409702Y-79478154D01*
X196981130Y-78906726D01*
X196981130Y-79525773D01*
X196314464Y-80382916D02*
X196981130Y-80382916D01*
X195933511Y-80144821D02*
X196647797Y-79906726D01*
X196647797Y-80525773D01*
X177931130Y-78001964D02*
X176931130Y-78001964D01*
X176931130Y-78240059D01*
X176978750Y-78382916D01*
X177073988Y-78478154D01*
X177169226Y-78525773D01*
X177359702Y-78573392D01*
X177502559Y-78573392D01*
X177693035Y-78525773D01*
X177788273Y-78478154D01*
X177883511Y-78382916D01*
X177931130Y-78240059D01*
X177931130Y-78001964D01*
X177026369Y-78954345D02*
X176978750Y-79001964D01*
X176931130Y-79097202D01*
X176931130Y-79335297D01*
X176978750Y-79430535D01*
X177026369Y-79478154D01*
X177121607Y-79525773D01*
X177216845Y-79525773D01*
X177359702Y-79478154D01*
X177931130Y-78906726D01*
X177931130Y-79525773D01*
X176931130Y-79859107D02*
X176931130Y-80478154D01*
X177312083Y-80144821D01*
X177312083Y-80287678D01*
X177359702Y-80382916D01*
X177407321Y-80430535D01*
X177502559Y-80478154D01*
X177740654Y-80478154D01*
X177835892Y-80430535D01*
X177883511Y-80382916D01*
X177931130Y-80287678D01*
X177931130Y-80001964D01*
X177883511Y-79906726D01*
X177835892Y-79859107D01*
X158881130Y-78001964D02*
X157881130Y-78001964D01*
X157881130Y-78240059D01*
X157928750Y-78382916D01*
X158023988Y-78478154D01*
X158119226Y-78525773D01*
X158309702Y-78573392D01*
X158452559Y-78573392D01*
X158643035Y-78525773D01*
X158738273Y-78478154D01*
X158833511Y-78382916D01*
X158881130Y-78240059D01*
X158881130Y-78001964D01*
X157976369Y-78954345D02*
X157928750Y-79001964D01*
X157881130Y-79097202D01*
X157881130Y-79335297D01*
X157928750Y-79430535D01*
X157976369Y-79478154D01*
X158071607Y-79525773D01*
X158166845Y-79525773D01*
X158309702Y-79478154D01*
X158881130Y-78906726D01*
X158881130Y-79525773D01*
X157976369Y-79906726D02*
X157928750Y-79954345D01*
X157881130Y-80049583D01*
X157881130Y-80287678D01*
X157928750Y-80382916D01*
X157976369Y-80430535D01*
X158071607Y-80478154D01*
X158166845Y-80478154D01*
X158309702Y-80430535D01*
X158881130Y-79859107D01*
X158881130Y-80478154D01*
X139831130Y-78001964D02*
X138831130Y-78001964D01*
X138831130Y-78240059D01*
X138878750Y-78382916D01*
X138973988Y-78478154D01*
X139069226Y-78525773D01*
X139259702Y-78573392D01*
X139402559Y-78573392D01*
X139593035Y-78525773D01*
X139688273Y-78478154D01*
X139783511Y-78382916D01*
X139831130Y-78240059D01*
X139831130Y-78001964D01*
X138926369Y-78954345D02*
X138878750Y-79001964D01*
X138831130Y-79097202D01*
X138831130Y-79335297D01*
X138878750Y-79430535D01*
X138926369Y-79478154D01*
X139021607Y-79525773D01*
X139116845Y-79525773D01*
X139259702Y-79478154D01*
X139831130Y-78906726D01*
X139831130Y-79525773D01*
X139831130Y-80478154D02*
X139831130Y-79906726D01*
X139831130Y-80192440D02*
X138831130Y-80192440D01*
X138973988Y-80097202D01*
X139069226Y-80001964D01*
X139116845Y-79906726D01*
X120781130Y-78001964D02*
X119781130Y-78001964D01*
X119781130Y-78240059D01*
X119828750Y-78382916D01*
X119923988Y-78478154D01*
X120019226Y-78525773D01*
X120209702Y-78573392D01*
X120352559Y-78573392D01*
X120543035Y-78525773D01*
X120638273Y-78478154D01*
X120733511Y-78382916D01*
X120781130Y-78240059D01*
X120781130Y-78001964D01*
X119876369Y-78954345D02*
X119828750Y-79001964D01*
X119781130Y-79097202D01*
X119781130Y-79335297D01*
X119828750Y-79430535D01*
X119876369Y-79478154D01*
X119971607Y-79525773D01*
X120066845Y-79525773D01*
X120209702Y-79478154D01*
X120781130Y-78906726D01*
X120781130Y-79525773D01*
X119781130Y-80144821D02*
X119781130Y-80240059D01*
X119828750Y-80335297D01*
X119876369Y-80382916D01*
X119971607Y-80430535D01*
X120162083Y-80478154D01*
X120400178Y-80478154D01*
X120590654Y-80430535D01*
X120685892Y-80382916D01*
X120733511Y-80335297D01*
X120781130Y-80240059D01*
X120781130Y-80144821D01*
X120733511Y-80049583D01*
X120685892Y-80001964D01*
X120590654Y-79954345D01*
X120400178Y-79906726D01*
X120162083Y-79906726D01*
X119971607Y-79954345D01*
X119876369Y-80001964D01*
X119828750Y-80049583D01*
X119781130Y-80144821D01*
X101731130Y-78001964D02*
X100731130Y-78001964D01*
X100731130Y-78240059D01*
X100778750Y-78382916D01*
X100873988Y-78478154D01*
X100969226Y-78525773D01*
X101159702Y-78573392D01*
X101302559Y-78573392D01*
X101493035Y-78525773D01*
X101588273Y-78478154D01*
X101683511Y-78382916D01*
X101731130Y-78240059D01*
X101731130Y-78001964D01*
X101731130Y-79525773D02*
X101731130Y-78954345D01*
X101731130Y-79240059D02*
X100731130Y-79240059D01*
X100873988Y-79144821D01*
X100969226Y-79049583D01*
X101016845Y-78954345D01*
X101731130Y-80001964D02*
X101731130Y-80192440D01*
X101683511Y-80287678D01*
X101635892Y-80335297D01*
X101493035Y-80430535D01*
X101302559Y-80478154D01*
X100921607Y-80478154D01*
X100826369Y-80430535D01*
X100778750Y-80382916D01*
X100731130Y-80287678D01*
X100731130Y-80097202D01*
X100778750Y-80001964D01*
X100826369Y-79954345D01*
X100921607Y-79906726D01*
X101159702Y-79906726D01*
X101254940Y-79954345D01*
X101302559Y-80001964D01*
X101350178Y-80097202D01*
X101350178Y-80287678D01*
X101302559Y-80382916D01*
X101254940Y-80430535D01*
X101159702Y-80478154D01*
X82681130Y-78001964D02*
X81681130Y-78001964D01*
X81681130Y-78240059D01*
X81728750Y-78382916D01*
X81823988Y-78478154D01*
X81919226Y-78525773D01*
X82109702Y-78573392D01*
X82252559Y-78573392D01*
X82443035Y-78525773D01*
X82538273Y-78478154D01*
X82633511Y-78382916D01*
X82681130Y-78240059D01*
X82681130Y-78001964D01*
X82681130Y-79525773D02*
X82681130Y-78954345D01*
X82681130Y-79240059D02*
X81681130Y-79240059D01*
X81823988Y-79144821D01*
X81919226Y-79049583D01*
X81966845Y-78954345D01*
X82109702Y-80097202D02*
X82062083Y-80001964D01*
X82014464Y-79954345D01*
X81919226Y-79906726D01*
X81871607Y-79906726D01*
X81776369Y-79954345D01*
X81728750Y-80001964D01*
X81681130Y-80097202D01*
X81681130Y-80287678D01*
X81728750Y-80382916D01*
X81776369Y-80430535D01*
X81871607Y-80478154D01*
X81919226Y-80478154D01*
X82014464Y-80430535D01*
X82062083Y-80382916D01*
X82109702Y-80287678D01*
X82109702Y-80097202D01*
X82157321Y-80001964D01*
X82204940Y-79954345D01*
X82300178Y-79906726D01*
X82490654Y-79906726D01*
X82585892Y-79954345D01*
X82633511Y-80001964D01*
X82681130Y-80097202D01*
X82681130Y-80287678D01*
X82633511Y-80382916D01*
X82585892Y-80430535D01*
X82490654Y-80478154D01*
X82300178Y-80478154D01*
X82204940Y-80430535D01*
X82157321Y-80382916D01*
X82109702Y-80287678D01*
X62726369Y-80430535D02*
X63726369Y-80430535D01*
X63726369Y-80192440D01*
X63678750Y-80049583D01*
X63583511Y-79954345D01*
X63488273Y-79906726D01*
X63297797Y-79859107D01*
X63154940Y-79859107D01*
X62964464Y-79906726D01*
X62869226Y-79954345D01*
X62773988Y-80049583D01*
X62726369Y-80192440D01*
X62726369Y-80430535D01*
X62726369Y-78906726D02*
X62726369Y-79478154D01*
X62726369Y-79192440D02*
X63726369Y-79192440D01*
X63583511Y-79287678D01*
X63488273Y-79382916D01*
X63440654Y-79478154D01*
X63726369Y-78573392D02*
X63726369Y-77906726D01*
X62726369Y-78335297D01*
X43676369Y-80430535D02*
X44676369Y-80430535D01*
X44676369Y-80192440D01*
X44628750Y-80049583D01*
X44533511Y-79954345D01*
X44438273Y-79906726D01*
X44247797Y-79859107D01*
X44104940Y-79859107D01*
X43914464Y-79906726D01*
X43819226Y-79954345D01*
X43723988Y-80049583D01*
X43676369Y-80192440D01*
X43676369Y-80430535D01*
X43676369Y-78906726D02*
X43676369Y-79478154D01*
X43676369Y-79192440D02*
X44676369Y-79192440D01*
X44533511Y-79287678D01*
X44438273Y-79382916D01*
X44390654Y-79478154D01*
X44676369Y-78049583D02*
X44676369Y-78240059D01*
X44628750Y-78335297D01*
X44581130Y-78382916D01*
X44438273Y-78478154D01*
X44247797Y-78525773D01*
X43866845Y-78525773D01*
X43771607Y-78478154D01*
X43723988Y-78430535D01*
X43676369Y-78335297D01*
X43676369Y-78144821D01*
X43723988Y-78049583D01*
X43771607Y-78001964D01*
X43866845Y-77954345D01*
X44104940Y-77954345D01*
X44200178Y-78001964D01*
X44247797Y-78049583D01*
X44295416Y-78144821D01*
X44295416Y-78335297D01*
X44247797Y-78430535D01*
X44200178Y-78478154D01*
X44104940Y-78525773D01*
X19863869Y-80430535D02*
X20863869Y-80430535D01*
X20863869Y-80192440D01*
X20816250Y-80049583D01*
X20721011Y-79954345D01*
X20625773Y-79906726D01*
X20435297Y-79859107D01*
X20292440Y-79859107D01*
X20101964Y-79906726D01*
X20006726Y-79954345D01*
X19911488Y-80049583D01*
X19863869Y-80192440D01*
X19863869Y-80430535D01*
X19863869Y-78906726D02*
X19863869Y-79478154D01*
X19863869Y-79192440D02*
X20863869Y-79192440D01*
X20721011Y-79287678D01*
X20625773Y-79382916D01*
X20578154Y-79478154D01*
X20863869Y-78001964D02*
X20863869Y-78478154D01*
X20387678Y-78525773D01*
X20435297Y-78478154D01*
X20482916Y-78382916D01*
X20482916Y-78144821D01*
X20435297Y-78049583D01*
X20387678Y-78001964D01*
X20292440Y-77954345D01*
X20054345Y-77954345D01*
X19959107Y-78001964D01*
X19911488Y-78049583D01*
X19863869Y-78144821D01*
X19863869Y-78382916D01*
X19911488Y-78478154D01*
X19959107Y-78525773D01*
X273181130Y-58951964D02*
X272181130Y-58951964D01*
X272181130Y-59190059D01*
X272228750Y-59332916D01*
X272323988Y-59428154D01*
X272419226Y-59475773D01*
X272609702Y-59523392D01*
X272752559Y-59523392D01*
X272943035Y-59475773D01*
X273038273Y-59428154D01*
X273133511Y-59332916D01*
X273181130Y-59190059D01*
X273181130Y-58951964D01*
X273181130Y-60475773D02*
X273181130Y-59904345D01*
X273181130Y-60190059D02*
X272181130Y-60190059D01*
X272323988Y-60094821D01*
X272419226Y-59999583D01*
X272466845Y-59904345D01*
X272514464Y-61332916D02*
X273181130Y-61332916D01*
X272133511Y-61094821D02*
X272847797Y-60856726D01*
X272847797Y-61475773D01*
X244606130Y-58951964D02*
X243606130Y-58951964D01*
X243606130Y-59190059D01*
X243653750Y-59332916D01*
X243748988Y-59428154D01*
X243844226Y-59475773D01*
X244034702Y-59523392D01*
X244177559Y-59523392D01*
X244368035Y-59475773D01*
X244463273Y-59428154D01*
X244558511Y-59332916D01*
X244606130Y-59190059D01*
X244606130Y-58951964D01*
X244606130Y-60475773D02*
X244606130Y-59904345D01*
X244606130Y-60190059D02*
X243606130Y-60190059D01*
X243748988Y-60094821D01*
X243844226Y-59999583D01*
X243891845Y-59904345D01*
X243606130Y-60809107D02*
X243606130Y-61428154D01*
X243987083Y-61094821D01*
X243987083Y-61237678D01*
X244034702Y-61332916D01*
X244082321Y-61380535D01*
X244177559Y-61428154D01*
X244415654Y-61428154D01*
X244510892Y-61380535D01*
X244558511Y-61332916D01*
X244606130Y-61237678D01*
X244606130Y-60951964D01*
X244558511Y-60856726D01*
X244510892Y-60809107D01*
X225556130Y-58951964D02*
X224556130Y-58951964D01*
X224556130Y-59190059D01*
X224603750Y-59332916D01*
X224698988Y-59428154D01*
X224794226Y-59475773D01*
X224984702Y-59523392D01*
X225127559Y-59523392D01*
X225318035Y-59475773D01*
X225413273Y-59428154D01*
X225508511Y-59332916D01*
X225556130Y-59190059D01*
X225556130Y-58951964D01*
X225556130Y-60475773D02*
X225556130Y-59904345D01*
X225556130Y-60190059D02*
X224556130Y-60190059D01*
X224698988Y-60094821D01*
X224794226Y-59999583D01*
X224841845Y-59904345D01*
X224651369Y-60856726D02*
X224603750Y-60904345D01*
X224556130Y-60999583D01*
X224556130Y-61237678D01*
X224603750Y-61332916D01*
X224651369Y-61380535D01*
X224746607Y-61428154D01*
X224841845Y-61428154D01*
X224984702Y-61380535D01*
X225556130Y-60809107D01*
X225556130Y-61428154D01*
X205601369Y-61380535D02*
X206601369Y-61380535D01*
X206601369Y-61142440D01*
X206553750Y-60999583D01*
X206458511Y-60904345D01*
X206363273Y-60856726D01*
X206172797Y-60809107D01*
X206029940Y-60809107D01*
X205839464Y-60856726D01*
X205744226Y-60904345D01*
X205648988Y-60999583D01*
X205601369Y-61142440D01*
X205601369Y-61380535D01*
X205601369Y-59856726D02*
X205601369Y-60428154D01*
X205601369Y-60142440D02*
X206601369Y-60142440D01*
X206458511Y-60237678D01*
X206363273Y-60332916D01*
X206315654Y-60428154D01*
X205601369Y-58904345D02*
X205601369Y-59475773D01*
X205601369Y-59190059D02*
X206601369Y-59190059D01*
X206458511Y-59285297D01*
X206363273Y-59380535D01*
X206315654Y-59475773D01*
X186551369Y-61380535D02*
X187551369Y-61380535D01*
X187551369Y-61142440D01*
X187503750Y-60999583D01*
X187408511Y-60904345D01*
X187313273Y-60856726D01*
X187122797Y-60809107D01*
X186979940Y-60809107D01*
X186789464Y-60856726D01*
X186694226Y-60904345D01*
X186598988Y-60999583D01*
X186551369Y-61142440D01*
X186551369Y-61380535D01*
X186551369Y-59856726D02*
X186551369Y-60428154D01*
X186551369Y-60142440D02*
X187551369Y-60142440D01*
X187408511Y-60237678D01*
X187313273Y-60332916D01*
X187265654Y-60428154D01*
X187551369Y-59237678D02*
X187551369Y-59142440D01*
X187503750Y-59047202D01*
X187456130Y-58999583D01*
X187360892Y-58951964D01*
X187170416Y-58904345D01*
X186932321Y-58904345D01*
X186741845Y-58951964D01*
X186646607Y-58999583D01*
X186598988Y-59047202D01*
X186551369Y-59142440D01*
X186551369Y-59237678D01*
X186598988Y-59332916D01*
X186646607Y-59380535D01*
X186741845Y-59428154D01*
X186932321Y-59475773D01*
X187170416Y-59475773D01*
X187360892Y-59428154D01*
X187456130Y-59380535D01*
X187503750Y-59332916D01*
X187551369Y-59237678D01*
X167501369Y-60904345D02*
X168501369Y-60904345D01*
X168501369Y-60666250D01*
X168453750Y-60523392D01*
X168358511Y-60428154D01*
X168263273Y-60380535D01*
X168072797Y-60332916D01*
X167929940Y-60332916D01*
X167739464Y-60380535D01*
X167644226Y-60428154D01*
X167548988Y-60523392D01*
X167501369Y-60666250D01*
X167501369Y-60904345D01*
X167501369Y-59856726D02*
X167501369Y-59666250D01*
X167548988Y-59571011D01*
X167596607Y-59523392D01*
X167739464Y-59428154D01*
X167929940Y-59380535D01*
X168310892Y-59380535D01*
X168406130Y-59428154D01*
X168453750Y-59475773D01*
X168501369Y-59571011D01*
X168501369Y-59761488D01*
X168453750Y-59856726D01*
X168406130Y-59904345D01*
X168310892Y-59951964D01*
X168072797Y-59951964D01*
X167977559Y-59904345D01*
X167929940Y-59856726D01*
X167882321Y-59761488D01*
X167882321Y-59571011D01*
X167929940Y-59475773D01*
X167977559Y-59428154D01*
X168072797Y-59380535D01*
X148451369Y-60904345D02*
X149451369Y-60904345D01*
X149451369Y-60666250D01*
X149403750Y-60523392D01*
X149308511Y-60428154D01*
X149213273Y-60380535D01*
X149022797Y-60332916D01*
X148879940Y-60332916D01*
X148689464Y-60380535D01*
X148594226Y-60428154D01*
X148498988Y-60523392D01*
X148451369Y-60666250D01*
X148451369Y-60904345D01*
X149022797Y-59761488D02*
X149070416Y-59856726D01*
X149118035Y-59904345D01*
X149213273Y-59951964D01*
X149260892Y-59951964D01*
X149356130Y-59904345D01*
X149403750Y-59856726D01*
X149451369Y-59761488D01*
X149451369Y-59571011D01*
X149403750Y-59475773D01*
X149356130Y-59428154D01*
X149260892Y-59380535D01*
X149213273Y-59380535D01*
X149118035Y-59428154D01*
X149070416Y-59475773D01*
X149022797Y-59571011D01*
X149022797Y-59761488D01*
X148975178Y-59856726D01*
X148927559Y-59904345D01*
X148832321Y-59951964D01*
X148641845Y-59951964D01*
X148546607Y-59904345D01*
X148498988Y-59856726D01*
X148451369Y-59761488D01*
X148451369Y-59571011D01*
X148498988Y-59475773D01*
X148546607Y-59428154D01*
X148641845Y-59380535D01*
X148832321Y-59380535D01*
X148927559Y-59428154D01*
X148975178Y-59475773D01*
X149022797Y-59571011D01*
X129401369Y-60904345D02*
X130401369Y-60904345D01*
X130401369Y-60666250D01*
X130353750Y-60523392D01*
X130258511Y-60428154D01*
X130163273Y-60380535D01*
X129972797Y-60332916D01*
X129829940Y-60332916D01*
X129639464Y-60380535D01*
X129544226Y-60428154D01*
X129448988Y-60523392D01*
X129401369Y-60666250D01*
X129401369Y-60904345D01*
X130401369Y-59999583D02*
X130401369Y-59332916D01*
X129401369Y-59761488D01*
X110351369Y-60904345D02*
X111351369Y-60904345D01*
X111351369Y-60666250D01*
X111303750Y-60523392D01*
X111208511Y-60428154D01*
X111113273Y-60380535D01*
X110922797Y-60332916D01*
X110779940Y-60332916D01*
X110589464Y-60380535D01*
X110494226Y-60428154D01*
X110398988Y-60523392D01*
X110351369Y-60666250D01*
X110351369Y-60904345D01*
X111351369Y-59475773D02*
X111351369Y-59666250D01*
X111303750Y-59761488D01*
X111256130Y-59809107D01*
X111113273Y-59904345D01*
X110922797Y-59951964D01*
X110541845Y-59951964D01*
X110446607Y-59904345D01*
X110398988Y-59856726D01*
X110351369Y-59761488D01*
X110351369Y-59571011D01*
X110398988Y-59475773D01*
X110446607Y-59428154D01*
X110541845Y-59380535D01*
X110779940Y-59380535D01*
X110875178Y-59428154D01*
X110922797Y-59475773D01*
X110970416Y-59571011D01*
X110970416Y-59761488D01*
X110922797Y-59856726D01*
X110875178Y-59904345D01*
X110779940Y-59951964D01*
X91301369Y-60904345D02*
X92301369Y-60904345D01*
X92301369Y-60666250D01*
X92253750Y-60523392D01*
X92158511Y-60428154D01*
X92063273Y-60380535D01*
X91872797Y-60332916D01*
X91729940Y-60332916D01*
X91539464Y-60380535D01*
X91444226Y-60428154D01*
X91348988Y-60523392D01*
X91301369Y-60666250D01*
X91301369Y-60904345D01*
X92301369Y-59428154D02*
X92301369Y-59904345D01*
X91825178Y-59951964D01*
X91872797Y-59904345D01*
X91920416Y-59809107D01*
X91920416Y-59571011D01*
X91872797Y-59475773D01*
X91825178Y-59428154D01*
X91729940Y-59380535D01*
X91491845Y-59380535D01*
X91396607Y-59428154D01*
X91348988Y-59475773D01*
X91301369Y-59571011D01*
X91301369Y-59809107D01*
X91348988Y-59904345D01*
X91396607Y-59951964D01*
X72251369Y-60904345D02*
X73251369Y-60904345D01*
X73251369Y-60666250D01*
X73203750Y-60523392D01*
X73108511Y-60428154D01*
X73013273Y-60380535D01*
X72822797Y-60332916D01*
X72679940Y-60332916D01*
X72489464Y-60380535D01*
X72394226Y-60428154D01*
X72298988Y-60523392D01*
X72251369Y-60666250D01*
X72251369Y-60904345D01*
X72918035Y-59475773D02*
X72251369Y-59475773D01*
X73298988Y-59713869D02*
X72584702Y-59951964D01*
X72584702Y-59332916D01*
X53201369Y-60904345D02*
X54201369Y-60904345D01*
X54201369Y-60666250D01*
X54153750Y-60523392D01*
X54058511Y-60428154D01*
X53963273Y-60380535D01*
X53772797Y-60332916D01*
X53629940Y-60332916D01*
X53439464Y-60380535D01*
X53344226Y-60428154D01*
X53248988Y-60523392D01*
X53201369Y-60666250D01*
X53201369Y-60904345D01*
X54201369Y-59999583D02*
X54201369Y-59380535D01*
X53820416Y-59713869D01*
X53820416Y-59571011D01*
X53772797Y-59475773D01*
X53725178Y-59428154D01*
X53629940Y-59380535D01*
X53391845Y-59380535D01*
X53296607Y-59428154D01*
X53248988Y-59475773D01*
X53201369Y-59571011D01*
X53201369Y-59856726D01*
X53248988Y-59951964D01*
X53296607Y-59999583D01*
X34151369Y-60904345D02*
X35151369Y-60904345D01*
X35151369Y-60666250D01*
X35103750Y-60523392D01*
X35008511Y-60428154D01*
X34913273Y-60380535D01*
X34722797Y-60332916D01*
X34579940Y-60332916D01*
X34389464Y-60380535D01*
X34294226Y-60428154D01*
X34198988Y-60523392D01*
X34151369Y-60666250D01*
X34151369Y-60904345D01*
X35056130Y-59951964D02*
X35103750Y-59904345D01*
X35151369Y-59809107D01*
X35151369Y-59571011D01*
X35103750Y-59475773D01*
X35056130Y-59428154D01*
X34960892Y-59380535D01*
X34865654Y-59380535D01*
X34722797Y-59428154D01*
X34151369Y-59999583D01*
X34151369Y-59380535D01*
X16006130Y-59428154D02*
X15006130Y-59428154D01*
X15006130Y-59666250D01*
X15053750Y-59809107D01*
X15148988Y-59904345D01*
X15244226Y-59951964D01*
X15434702Y-59999583D01*
X15577559Y-59999583D01*
X15768035Y-59951964D01*
X15863273Y-59904345D01*
X15958511Y-59809107D01*
X16006130Y-59666250D01*
X16006130Y-59428154D01*
X16006130Y-60951964D02*
X16006130Y-60380535D01*
X16006130Y-60666250D02*
X15006130Y-60666250D01*
X15148988Y-60571011D01*
X15244226Y-60475773D01*
X15291845Y-60380535D01*
X1631904Y-101708023D02*
X831904Y-101708023D01*
X831904Y-101898500D01*
X870000Y-102012785D01*
X946190Y-102088976D01*
X1022380Y-102127071D01*
X1174761Y-102165166D01*
X1289047Y-102165166D01*
X1441428Y-102127071D01*
X1517619Y-102088976D01*
X1593809Y-102012785D01*
X1631904Y-101898500D01*
X1631904Y-101708023D01*
X908095Y-102469928D02*
X870000Y-102508023D01*
X831904Y-102584214D01*
X831904Y-102774690D01*
X870000Y-102850880D01*
X908095Y-102888976D01*
X984285Y-102927071D01*
X1060476Y-102927071D01*
X1174761Y-102888976D01*
X1631904Y-102431833D01*
X1631904Y-102927071D01*
X11791904Y-101708023D02*
X10991904Y-101708023D01*
X10991904Y-101898500D01*
X11030000Y-102012785D01*
X11106190Y-102088976D01*
X11182380Y-102127071D01*
X11334761Y-102165166D01*
X11449047Y-102165166D01*
X11601428Y-102127071D01*
X11677619Y-102088976D01*
X11753809Y-102012785D01*
X11791904Y-101898500D01*
X11791904Y-101708023D01*
X10991904Y-102660404D02*
X10991904Y-102736595D01*
X11030000Y-102812785D01*
X11068095Y-102850880D01*
X11144285Y-102888976D01*
X11296666Y-102927071D01*
X11487142Y-102927071D01*
X11639523Y-102888976D01*
X11715714Y-102850880D01*
X11753809Y-102812785D01*
X11791904Y-102736595D01*
X11791904Y-102660404D01*
X11753809Y-102584214D01*
X11715714Y-102546119D01*
X11639523Y-102508023D01*
X11487142Y-102469928D01*
X11296666Y-102469928D01*
X11144285Y-102508023D01*
X11068095Y-102546119D01*
X11030000Y-102584214D01*
X10991904Y-102660404D01*
X9251904Y-101708023D02*
X8451904Y-101708023D01*
X8451904Y-101898500D01*
X8490000Y-102012785D01*
X8566190Y-102088976D01*
X8642380Y-102127071D01*
X8794761Y-102165166D01*
X8909047Y-102165166D01*
X9061428Y-102127071D01*
X9137619Y-102088976D01*
X9213809Y-102012785D01*
X9251904Y-101898500D01*
X9251904Y-101708023D01*
X9251904Y-102927071D02*
X9251904Y-102469928D01*
X9251904Y-102698500D02*
X8451904Y-102698500D01*
X8566190Y-102622309D01*
X8642380Y-102546119D01*
X8680476Y-102469928D01*
X5950000Y-101688976D02*
X5911904Y-101612785D01*
X5911904Y-101498500D01*
X5950000Y-101384214D01*
X6026190Y-101308023D01*
X6102380Y-101269928D01*
X6254761Y-101231833D01*
X6369047Y-101231833D01*
X6521428Y-101269928D01*
X6597619Y-101308023D01*
X6673809Y-101384214D01*
X6711904Y-101498500D01*
X6711904Y-101574690D01*
X6673809Y-101688976D01*
X6635714Y-101727071D01*
X6369047Y-101727071D01*
X6369047Y-101574690D01*
X6711904Y-102069928D02*
X5911904Y-102069928D01*
X6711904Y-102527071D01*
X5911904Y-102527071D01*
X6711904Y-102908023D02*
X5911904Y-102908023D01*
X5911904Y-103098500D01*
X5950000Y-103212785D01*
X6026190Y-103288976D01*
X6102380Y-103327071D01*
X6254761Y-103365166D01*
X6369047Y-103365166D01*
X6521428Y-103327071D01*
X6597619Y-103288976D01*
X6673809Y-103212785D01*
X6711904Y-103098500D01*
X6711904Y-102908023D01*
X3410000Y-101688976D02*
X3371904Y-101612785D01*
X3371904Y-101498500D01*
X3410000Y-101384214D01*
X3486190Y-101308023D01*
X3562380Y-101269928D01*
X3714761Y-101231833D01*
X3829047Y-101231833D01*
X3981428Y-101269928D01*
X4057619Y-101308023D01*
X4133809Y-101384214D01*
X4171904Y-101498500D01*
X4171904Y-101574690D01*
X4133809Y-101688976D01*
X4095714Y-101727071D01*
X3829047Y-101727071D01*
X3829047Y-101574690D01*
X4171904Y-102069928D02*
X3371904Y-102069928D01*
X4171904Y-102527071D01*
X3371904Y-102527071D01*
X4171904Y-102908023D02*
X3371904Y-102908023D01*
X3371904Y-103098500D01*
X3410000Y-103212785D01*
X3486190Y-103288976D01*
X3562380Y-103327071D01*
X3714761Y-103365166D01*
X3829047Y-103365166D01*
X3981428Y-103327071D01*
X4057619Y-103288976D01*
X4133809Y-103212785D01*
X4171904Y-103098500D01*
X4171904Y-102908023D01*
X14331904Y-101708023D02*
X13531904Y-101708023D01*
X13531904Y-101898500D01*
X13570000Y-102012785D01*
X13646190Y-102088976D01*
X13722380Y-102127071D01*
X13874761Y-102165166D01*
X13989047Y-102165166D01*
X14141428Y-102127071D01*
X14217619Y-102088976D01*
X14293809Y-102012785D01*
X14331904Y-101898500D01*
X14331904Y-101708023D01*
X13798571Y-102850880D02*
X14331904Y-102850880D01*
X13493809Y-102660404D02*
X14065238Y-102469928D01*
X14065238Y-102965166D01*
X16795714Y-102165166D02*
X16833809Y-102127071D01*
X16871904Y-102012785D01*
X16871904Y-101936595D01*
X16833809Y-101822309D01*
X16757619Y-101746119D01*
X16681428Y-101708023D01*
X16529047Y-101669928D01*
X16414761Y-101669928D01*
X16262380Y-101708023D01*
X16186190Y-101746119D01*
X16110000Y-101822309D01*
X16071904Y-101936595D01*
X16071904Y-102012785D01*
X16110000Y-102127071D01*
X16148095Y-102165166D01*
X16071904Y-102850880D02*
X16071904Y-102698500D01*
X16110000Y-102622309D01*
X16148095Y-102584214D01*
X16262380Y-102508023D01*
X16414761Y-102469928D01*
X16719523Y-102469928D01*
X16795714Y-102508023D01*
X16833809Y-102546119D01*
X16871904Y-102622309D01*
X16871904Y-102774690D01*
X16833809Y-102850880D01*
X16795714Y-102888976D01*
X16719523Y-102927071D01*
X16529047Y-102927071D01*
X16452857Y-102888976D01*
X16414761Y-102850880D01*
X16376666Y-102774690D01*
X16376666Y-102622309D01*
X16414761Y-102546119D01*
X16452857Y-102508023D01*
X16529047Y-102469928D01*
X19411904Y-101708023D02*
X18611904Y-101708023D01*
X18611904Y-101898500D01*
X18650000Y-102012785D01*
X18726190Y-102088976D01*
X18802380Y-102127071D01*
X18954761Y-102165166D01*
X19069047Y-102165166D01*
X19221428Y-102127071D01*
X19297619Y-102088976D01*
X19373809Y-102012785D01*
X19411904Y-101898500D01*
X19411904Y-101708023D01*
X18611904Y-102431833D02*
X18611904Y-102965166D01*
X19411904Y-102622309D01*
X21532857Y-101746119D02*
X21532857Y-102012785D01*
X21951904Y-102127071D02*
X21951904Y-101746119D01*
X21151904Y-101746119D01*
X21151904Y-102127071D01*
X21151904Y-102812785D02*
X21151904Y-102660404D01*
X21190000Y-102584214D01*
X21228095Y-102546119D01*
X21342380Y-102469928D01*
X21494761Y-102431833D01*
X21799523Y-102431833D01*
X21875714Y-102469928D01*
X21913809Y-102508023D01*
X21951904Y-102584214D01*
X21951904Y-102736595D01*
X21913809Y-102812785D01*
X21875714Y-102850880D01*
X21799523Y-102888976D01*
X21609047Y-102888976D01*
X21532857Y-102850880D01*
X21494761Y-102812785D01*
X21456666Y-102736595D01*
X21456666Y-102584214D01*
X21494761Y-102508023D01*
X21532857Y-102469928D01*
X21609047Y-102431833D01*
X24072857Y-101974690D02*
X24110952Y-102088976D01*
X24149047Y-102127071D01*
X24225238Y-102165166D01*
X24339523Y-102165166D01*
X24415714Y-102127071D01*
X24453809Y-102088976D01*
X24491904Y-102012785D01*
X24491904Y-101708023D01*
X23691904Y-101708023D01*
X23691904Y-101974690D01*
X23730000Y-102050880D01*
X23768095Y-102088976D01*
X23844285Y-102127071D01*
X23920476Y-102127071D01*
X23996666Y-102088976D01*
X24034761Y-102050880D01*
X24072857Y-101974690D01*
X24072857Y-101708023D01*
X23958571Y-102850880D02*
X24491904Y-102850880D01*
X23653809Y-102660404D02*
X24225238Y-102469928D01*
X24225238Y-102965166D01*
X26612857Y-101974690D02*
X26650952Y-102088976D01*
X26689047Y-102127071D01*
X26765238Y-102165166D01*
X26879523Y-102165166D01*
X26955714Y-102127071D01*
X26993809Y-102088976D01*
X27031904Y-102012785D01*
X27031904Y-101708023D01*
X26231904Y-101708023D01*
X26231904Y-101974690D01*
X26270000Y-102050880D01*
X26308095Y-102088976D01*
X26384285Y-102127071D01*
X26460476Y-102127071D01*
X26536666Y-102088976D01*
X26574761Y-102050880D01*
X26612857Y-101974690D01*
X26612857Y-101708023D01*
X26231904Y-102888976D02*
X26231904Y-102508023D01*
X26612857Y-102469928D01*
X26574761Y-102508023D01*
X26536666Y-102584214D01*
X26536666Y-102774690D01*
X26574761Y-102850880D01*
X26612857Y-102888976D01*
X26689047Y-102927071D01*
X26879523Y-102927071D01*
X26955714Y-102888976D01*
X26993809Y-102850880D01*
X27031904Y-102774690D01*
X27031904Y-102584214D01*
X26993809Y-102508023D01*
X26955714Y-102469928D01*
X26612857Y-91052690D02*
X26650952Y-91166976D01*
X26689047Y-91205071D01*
X26765238Y-91243166D01*
X26879523Y-91243166D01*
X26955714Y-91205071D01*
X26993809Y-91166976D01*
X27031904Y-91090785D01*
X27031904Y-90786023D01*
X26231904Y-90786023D01*
X26231904Y-91052690D01*
X26270000Y-91128880D01*
X26308095Y-91166976D01*
X26384285Y-91205071D01*
X26460476Y-91205071D01*
X26536666Y-91166976D01*
X26574761Y-91128880D01*
X26612857Y-91052690D01*
X26612857Y-90786023D01*
X26231904Y-91928880D02*
X26231904Y-91776500D01*
X26270000Y-91700309D01*
X26308095Y-91662214D01*
X26422380Y-91586023D01*
X26574761Y-91547928D01*
X26879523Y-91547928D01*
X26955714Y-91586023D01*
X26993809Y-91624119D01*
X27031904Y-91700309D01*
X27031904Y-91852690D01*
X26993809Y-91928880D01*
X26955714Y-91966976D01*
X26879523Y-92005071D01*
X26689047Y-92005071D01*
X26612857Y-91966976D01*
X26574761Y-91928880D01*
X26536666Y-91852690D01*
X26536666Y-91700309D01*
X26574761Y-91624119D01*
X26612857Y-91586023D01*
X26689047Y-91547928D01*
X21532857Y-91052690D02*
X21570952Y-91166976D01*
X21609047Y-91205071D01*
X21685238Y-91243166D01*
X21799523Y-91243166D01*
X21875714Y-91205071D01*
X21913809Y-91166976D01*
X21951904Y-91090785D01*
X21951904Y-90786023D01*
X21151904Y-90786023D01*
X21151904Y-91052690D01*
X21190000Y-91128880D01*
X21228095Y-91166976D01*
X21304285Y-91205071D01*
X21380476Y-91205071D01*
X21456666Y-91166976D01*
X21494761Y-91128880D01*
X21532857Y-91052690D01*
X21532857Y-90786023D01*
X21151904Y-91509833D02*
X21151904Y-92005071D01*
X21456666Y-91738404D01*
X21456666Y-91852690D01*
X21494761Y-91928880D01*
X21532857Y-91966976D01*
X21609047Y-92005071D01*
X21799523Y-92005071D01*
X21875714Y-91966976D01*
X21913809Y-91928880D01*
X21951904Y-91852690D01*
X21951904Y-91624119D01*
X21913809Y-91547928D01*
X21875714Y-91509833D01*
X18992857Y-91052690D02*
X19030952Y-91166976D01*
X19069047Y-91205071D01*
X19145238Y-91243166D01*
X19259523Y-91243166D01*
X19335714Y-91205071D01*
X19373809Y-91166976D01*
X19411904Y-91090785D01*
X19411904Y-90786023D01*
X18611904Y-90786023D01*
X18611904Y-91052690D01*
X18650000Y-91128880D01*
X18688095Y-91166976D01*
X18764285Y-91205071D01*
X18840476Y-91205071D01*
X18916666Y-91166976D01*
X18954761Y-91128880D01*
X18992857Y-91052690D01*
X18992857Y-90786023D01*
X19411904Y-92005071D02*
X19411904Y-91547928D01*
X19411904Y-91776500D02*
X18611904Y-91776500D01*
X18726190Y-91700309D01*
X18802380Y-91624119D01*
X18840476Y-91547928D01*
X8832857Y-91109833D02*
X8832857Y-90843166D01*
X9251904Y-90843166D02*
X8451904Y-90843166D01*
X8451904Y-91224119D01*
X8718571Y-91871738D02*
X9251904Y-91871738D01*
X8413809Y-91681261D02*
X8985238Y-91490785D01*
X8985238Y-91986023D01*
X5911904Y-90309833D02*
X6711904Y-90576500D01*
X5911904Y-90843166D01*
X6635714Y-91566976D02*
X6673809Y-91528880D01*
X6711904Y-91414595D01*
X6711904Y-91338404D01*
X6673809Y-91224119D01*
X6597619Y-91147928D01*
X6521428Y-91109833D01*
X6369047Y-91071738D01*
X6254761Y-91071738D01*
X6102380Y-91109833D01*
X6026190Y-91147928D01*
X5950000Y-91224119D01*
X5911904Y-91338404D01*
X5911904Y-91414595D01*
X5950000Y-91528880D01*
X5988095Y-91566976D01*
X6635714Y-92366976D02*
X6673809Y-92328880D01*
X6711904Y-92214595D01*
X6711904Y-92138404D01*
X6673809Y-92024119D01*
X6597619Y-91947928D01*
X6521428Y-91909833D01*
X6369047Y-91871738D01*
X6254761Y-91871738D01*
X6102380Y-91909833D01*
X6026190Y-91947928D01*
X5950000Y-92024119D01*
X5911904Y-92138404D01*
X5911904Y-92214595D01*
X5950000Y-92328880D01*
X5988095Y-92366976D01*
X870000Y-90766976D02*
X831904Y-90690785D01*
X831904Y-90576500D01*
X870000Y-90462214D01*
X946190Y-90386023D01*
X1022380Y-90347928D01*
X1174761Y-90309833D01*
X1289047Y-90309833D01*
X1441428Y-90347928D01*
X1517619Y-90386023D01*
X1593809Y-90462214D01*
X1631904Y-90576500D01*
X1631904Y-90652690D01*
X1593809Y-90766976D01*
X1555714Y-90805071D01*
X1289047Y-90805071D01*
X1289047Y-90652690D01*
X1631904Y-91147928D02*
X831904Y-91147928D01*
X1631904Y-91605071D01*
X831904Y-91605071D01*
X1631904Y-91986023D02*
X831904Y-91986023D01*
X831904Y-92176500D01*
X870000Y-92290785D01*
X946190Y-92366976D01*
X1022380Y-92405071D01*
X1174761Y-92443166D01*
X1289047Y-92443166D01*
X1441428Y-92405071D01*
X1517619Y-92366976D01*
X1593809Y-92290785D01*
X1631904Y-92176500D01*
X1631904Y-91986023D01*
X-908095Y-90824119D02*
X-1289047Y-90557452D01*
X-908095Y-90366976D02*
X-1708095Y-90366976D01*
X-1708095Y-90671738D01*
X-1670000Y-90747928D01*
X-1631904Y-90786023D01*
X-1555714Y-90824119D01*
X-1441428Y-90824119D01*
X-1365238Y-90786023D01*
X-1327142Y-90747928D01*
X-1289047Y-90671738D01*
X-1289047Y-90366976D01*
X-1136666Y-91128880D02*
X-1136666Y-91509833D01*
X-908095Y-91052690D02*
X-1708095Y-91319357D01*
X-908095Y-91586023D01*
X-1708095Y-91776500D02*
X-908095Y-91966976D01*
X-1479523Y-92119357D01*
X-908095Y-92271738D01*
X-1708095Y-92462214D01*
X-908095Y-90824119D02*
X-1289047Y-90557452D01*
X-908095Y-90366976D02*
X-1708095Y-90366976D01*
X-1708095Y-90671738D01*
X-1670000Y-90747928D01*
X-1631904Y-90786023D01*
X-1555714Y-90824119D01*
X-1441428Y-90824119D01*
X-1365238Y-90786023D01*
X-1327142Y-90747928D01*
X-1289047Y-90671738D01*
X-1289047Y-90366976D01*
X-1136666Y-91128880D02*
X-1136666Y-91509833D01*
X-908095Y-91052690D02*
X-1708095Y-91319357D01*
X-908095Y-91586023D01*
X-1708095Y-91776500D02*
X-908095Y-91966976D01*
X-1479523Y-92119357D01*
X-908095Y-92271738D01*
X-1708095Y-92462214D01*
X5911904Y-90309833D02*
X6711904Y-90576500D01*
X5911904Y-90843166D01*
X6635714Y-91566976D02*
X6673809Y-91528880D01*
X6711904Y-91414595D01*
X6711904Y-91338404D01*
X6673809Y-91224119D01*
X6597619Y-91147928D01*
X6521428Y-91109833D01*
X6369047Y-91071738D01*
X6254761Y-91071738D01*
X6102380Y-91109833D01*
X6026190Y-91147928D01*
X5950000Y-91224119D01*
X5911904Y-91338404D01*
X5911904Y-91414595D01*
X5950000Y-91528880D01*
X5988095Y-91566976D01*
X6635714Y-92366976D02*
X6673809Y-92328880D01*
X6711904Y-92214595D01*
X6711904Y-92138404D01*
X6673809Y-92024119D01*
X6597619Y-91947928D01*
X6521428Y-91909833D01*
X6369047Y-91871738D01*
X6254761Y-91871738D01*
X6102380Y-91909833D01*
X6026190Y-91947928D01*
X5950000Y-92024119D01*
X5911904Y-92138404D01*
X5911904Y-92214595D01*
X5950000Y-92328880D01*
X5988095Y-92366976D01*
X8832857Y-91109833D02*
X8832857Y-90843166D01*
X9251904Y-90843166D02*
X8451904Y-90843166D01*
X8451904Y-91224119D01*
X8718571Y-91871738D02*
X9251904Y-91871738D01*
X8413809Y-91681261D02*
X8985238Y-91490785D01*
X8985238Y-91986023D01*
X18992857Y-91052690D02*
X19030952Y-91166976D01*
X19069047Y-91205071D01*
X19145238Y-91243166D01*
X19259523Y-91243166D01*
X19335714Y-91205071D01*
X19373809Y-91166976D01*
X19411904Y-91090785D01*
X19411904Y-90786023D01*
X18611904Y-90786023D01*
X18611904Y-91052690D01*
X18650000Y-91128880D01*
X18688095Y-91166976D01*
X18764285Y-91205071D01*
X18840476Y-91205071D01*
X18916666Y-91166976D01*
X18954761Y-91128880D01*
X18992857Y-91052690D01*
X18992857Y-90786023D01*
X19411904Y-92005071D02*
X19411904Y-91547928D01*
X19411904Y-91776500D02*
X18611904Y-91776500D01*
X18726190Y-91700309D01*
X18802380Y-91624119D01*
X18840476Y-91547928D01*
X21532857Y-91052690D02*
X21570952Y-91166976D01*
X21609047Y-91205071D01*
X21685238Y-91243166D01*
X21799523Y-91243166D01*
X21875714Y-91205071D01*
X21913809Y-91166976D01*
X21951904Y-91090785D01*
X21951904Y-90786023D01*
X21151904Y-90786023D01*
X21151904Y-91052690D01*
X21190000Y-91128880D01*
X21228095Y-91166976D01*
X21304285Y-91205071D01*
X21380476Y-91205071D01*
X21456666Y-91166976D01*
X21494761Y-91128880D01*
X21532857Y-91052690D01*
X21532857Y-90786023D01*
X21151904Y-91509833D02*
X21151904Y-92005071D01*
X21456666Y-91738404D01*
X21456666Y-91852690D01*
X21494761Y-91928880D01*
X21532857Y-91966976D01*
X21609047Y-92005071D01*
X21799523Y-92005071D01*
X21875714Y-91966976D01*
X21913809Y-91928880D01*
X21951904Y-91852690D01*
X21951904Y-91624119D01*
X21913809Y-91547928D01*
X21875714Y-91509833D01*
X26612857Y-91052690D02*
X26650952Y-91166976D01*
X26689047Y-91205071D01*
X26765238Y-91243166D01*
X26879523Y-91243166D01*
X26955714Y-91205071D01*
X26993809Y-91166976D01*
X27031904Y-91090785D01*
X27031904Y-90786023D01*
X26231904Y-90786023D01*
X26231904Y-91052690D01*
X26270000Y-91128880D01*
X26308095Y-91166976D01*
X26384285Y-91205071D01*
X26460476Y-91205071D01*
X26536666Y-91166976D01*
X26574761Y-91128880D01*
X26612857Y-91052690D01*
X26612857Y-90786023D01*
X26231904Y-91928880D02*
X26231904Y-91776500D01*
X26270000Y-91700309D01*
X26308095Y-91662214D01*
X26422380Y-91586023D01*
X26574761Y-91547928D01*
X26879523Y-91547928D01*
X26955714Y-91586023D01*
X26993809Y-91624119D01*
X27031904Y-91700309D01*
X27031904Y-91852690D01*
X26993809Y-91928880D01*
X26955714Y-91966976D01*
X26879523Y-92005071D01*
X26689047Y-92005071D01*
X26612857Y-91966976D01*
X26574761Y-91928880D01*
X26536666Y-91852690D01*
X26536666Y-91700309D01*
X26574761Y-91624119D01*
X26612857Y-91586023D01*
X26689047Y-91547928D01*
X26612857Y-101974690D02*
X26650952Y-102088976D01*
X26689047Y-102127071D01*
X26765238Y-102165166D01*
X26879523Y-102165166D01*
X26955714Y-102127071D01*
X26993809Y-102088976D01*
X27031904Y-102012785D01*
X27031904Y-101708023D01*
X26231904Y-101708023D01*
X26231904Y-101974690D01*
X26270000Y-102050880D01*
X26308095Y-102088976D01*
X26384285Y-102127071D01*
X26460476Y-102127071D01*
X26536666Y-102088976D01*
X26574761Y-102050880D01*
X26612857Y-101974690D01*
X26612857Y-101708023D01*
X26231904Y-102888976D02*
X26231904Y-102508023D01*
X26612857Y-102469928D01*
X26574761Y-102508023D01*
X26536666Y-102584214D01*
X26536666Y-102774690D01*
X26574761Y-102850880D01*
X26612857Y-102888976D01*
X26689047Y-102927071D01*
X26879523Y-102927071D01*
X26955714Y-102888976D01*
X26993809Y-102850880D01*
X27031904Y-102774690D01*
X27031904Y-102584214D01*
X26993809Y-102508023D01*
X26955714Y-102469928D01*
X24072857Y-101974690D02*
X24110952Y-102088976D01*
X24149047Y-102127071D01*
X24225238Y-102165166D01*
X24339523Y-102165166D01*
X24415714Y-102127071D01*
X24453809Y-102088976D01*
X24491904Y-102012785D01*
X24491904Y-101708023D01*
X23691904Y-101708023D01*
X23691904Y-101974690D01*
X23730000Y-102050880D01*
X23768095Y-102088976D01*
X23844285Y-102127071D01*
X23920476Y-102127071D01*
X23996666Y-102088976D01*
X24034761Y-102050880D01*
X24072857Y-101974690D01*
X24072857Y-101708023D01*
X23958571Y-102850880D02*
X24491904Y-102850880D01*
X23653809Y-102660404D02*
X24225238Y-102469928D01*
X24225238Y-102965166D01*
X21532857Y-101746119D02*
X21532857Y-102012785D01*
X21951904Y-102127071D02*
X21951904Y-101746119D01*
X21151904Y-101746119D01*
X21151904Y-102127071D01*
X21151904Y-102812785D02*
X21151904Y-102660404D01*
X21190000Y-102584214D01*
X21228095Y-102546119D01*
X21342380Y-102469928D01*
X21494761Y-102431833D01*
X21799523Y-102431833D01*
X21875714Y-102469928D01*
X21913809Y-102508023D01*
X21951904Y-102584214D01*
X21951904Y-102736595D01*
X21913809Y-102812785D01*
X21875714Y-102850880D01*
X21799523Y-102888976D01*
X21609047Y-102888976D01*
X21532857Y-102850880D01*
X21494761Y-102812785D01*
X21456666Y-102736595D01*
X21456666Y-102584214D01*
X21494761Y-102508023D01*
X21532857Y-102469928D01*
X21609047Y-102431833D01*
X19411904Y-101708023D02*
X18611904Y-101708023D01*
X18611904Y-101898500D01*
X18650000Y-102012785D01*
X18726190Y-102088976D01*
X18802380Y-102127071D01*
X18954761Y-102165166D01*
X19069047Y-102165166D01*
X19221428Y-102127071D01*
X19297619Y-102088976D01*
X19373809Y-102012785D01*
X19411904Y-101898500D01*
X19411904Y-101708023D01*
X18611904Y-102431833D02*
X18611904Y-102965166D01*
X19411904Y-102622309D01*
X16795714Y-102165166D02*
X16833809Y-102127071D01*
X16871904Y-102012785D01*
X16871904Y-101936595D01*
X16833809Y-101822309D01*
X16757619Y-101746119D01*
X16681428Y-101708023D01*
X16529047Y-101669928D01*
X16414761Y-101669928D01*
X16262380Y-101708023D01*
X16186190Y-101746119D01*
X16110000Y-101822309D01*
X16071904Y-101936595D01*
X16071904Y-102012785D01*
X16110000Y-102127071D01*
X16148095Y-102165166D01*
X16071904Y-102850880D02*
X16071904Y-102698500D01*
X16110000Y-102622309D01*
X16148095Y-102584214D01*
X16262380Y-102508023D01*
X16414761Y-102469928D01*
X16719523Y-102469928D01*
X16795714Y-102508023D01*
X16833809Y-102546119D01*
X16871904Y-102622309D01*
X16871904Y-102774690D01*
X16833809Y-102850880D01*
X16795714Y-102888976D01*
X16719523Y-102927071D01*
X16529047Y-102927071D01*
X16452857Y-102888976D01*
X16414761Y-102850880D01*
X16376666Y-102774690D01*
X16376666Y-102622309D01*
X16414761Y-102546119D01*
X16452857Y-102508023D01*
X16529047Y-102469928D01*
X14331904Y-101708023D02*
X13531904Y-101708023D01*
X13531904Y-101898500D01*
X13570000Y-102012785D01*
X13646190Y-102088976D01*
X13722380Y-102127071D01*
X13874761Y-102165166D01*
X13989047Y-102165166D01*
X14141428Y-102127071D01*
X14217619Y-102088976D01*
X14293809Y-102012785D01*
X14331904Y-101898500D01*
X14331904Y-101708023D01*
X13798571Y-102850880D02*
X14331904Y-102850880D01*
X13493809Y-102660404D02*
X14065238Y-102469928D01*
X14065238Y-102965166D01*
X5950000Y-101688976D02*
X5911904Y-101612785D01*
X5911904Y-101498500D01*
X5950000Y-101384214D01*
X6026190Y-101308023D01*
X6102380Y-101269928D01*
X6254761Y-101231833D01*
X6369047Y-101231833D01*
X6521428Y-101269928D01*
X6597619Y-101308023D01*
X6673809Y-101384214D01*
X6711904Y-101498500D01*
X6711904Y-101574690D01*
X6673809Y-101688976D01*
X6635714Y-101727071D01*
X6369047Y-101727071D01*
X6369047Y-101574690D01*
X6711904Y-102069928D02*
X5911904Y-102069928D01*
X6711904Y-102527071D01*
X5911904Y-102527071D01*
X6711904Y-102908023D02*
X5911904Y-102908023D01*
X5911904Y-103098500D01*
X5950000Y-103212785D01*
X6026190Y-103288976D01*
X6102380Y-103327071D01*
X6254761Y-103365166D01*
X6369047Y-103365166D01*
X6521428Y-103327071D01*
X6597619Y-103288976D01*
X6673809Y-103212785D01*
X6711904Y-103098500D01*
X6711904Y-102908023D01*
X9251904Y-101708023D02*
X8451904Y-101708023D01*
X8451904Y-101898500D01*
X8490000Y-102012785D01*
X8566190Y-102088976D01*
X8642380Y-102127071D01*
X8794761Y-102165166D01*
X8909047Y-102165166D01*
X9061428Y-102127071D01*
X9137619Y-102088976D01*
X9213809Y-102012785D01*
X9251904Y-101898500D01*
X9251904Y-101708023D01*
X9251904Y-102927071D02*
X9251904Y-102469928D01*
X9251904Y-102698500D02*
X8451904Y-102698500D01*
X8566190Y-102622309D01*
X8642380Y-102546119D01*
X8680476Y-102469928D01*
X11791904Y-101708023D02*
X10991904Y-101708023D01*
X10991904Y-101898500D01*
X11030000Y-102012785D01*
X11106190Y-102088976D01*
X11182380Y-102127071D01*
X11334761Y-102165166D01*
X11449047Y-102165166D01*
X11601428Y-102127071D01*
X11677619Y-102088976D01*
X11753809Y-102012785D01*
X11791904Y-101898500D01*
X11791904Y-101708023D01*
X10991904Y-102660404D02*
X10991904Y-102736595D01*
X11030000Y-102812785D01*
X11068095Y-102850880D01*
X11144285Y-102888976D01*
X11296666Y-102927071D01*
X11487142Y-102927071D01*
X11639523Y-102888976D01*
X11715714Y-102850880D01*
X11753809Y-102812785D01*
X11791904Y-102736595D01*
X11791904Y-102660404D01*
X11753809Y-102584214D01*
X11715714Y-102546119D01*
X11639523Y-102508023D01*
X11487142Y-102469928D01*
X11296666Y-102469928D01*
X11144285Y-102508023D01*
X11068095Y-102546119D01*
X11030000Y-102584214D01*
X10991904Y-102660404D01*
X1631904Y-101708023D02*
X831904Y-101708023D01*
X831904Y-101898500D01*
X870000Y-102012785D01*
X946190Y-102088976D01*
X1022380Y-102127071D01*
X1174761Y-102165166D01*
X1289047Y-102165166D01*
X1441428Y-102127071D01*
X1517619Y-102088976D01*
X1593809Y-102012785D01*
X1631904Y-101898500D01*
X1631904Y-101708023D01*
X908095Y-102469928D02*
X870000Y-102508023D01*
X831904Y-102584214D01*
X831904Y-102774690D01*
X870000Y-102850880D01*
X908095Y-102888976D01*
X984285Y-102927071D01*
X1060476Y-102927071D01*
X1174761Y-102888976D01*
X1631904Y-102431833D01*
X1631904Y-102927071D01*
X-1708095Y-98218895D02*
X-1708095Y-98676038D01*
X-908095Y-98447467D02*
X-1708095Y-98447467D01*
X-1708095Y-98866514D02*
X-908095Y-99399848D01*
X-1708095Y-99399848D02*
X-908095Y-98866514D01*
X-1708095Y-99856991D02*
X-1708095Y-99933181D01*
X-1670000Y-100009372D01*
X-1631904Y-100047467D01*
X-1555714Y-100085562D01*
X-1403333Y-100123657D01*
X-1212857Y-100123657D01*
X-1060476Y-100085562D01*
X-984285Y-100047467D01*
X-946190Y-100009372D01*
X-908095Y-99933181D01*
X-908095Y-99856991D01*
X-946190Y-99780800D01*
X-984285Y-99742705D01*
X-1060476Y-99704610D01*
X-1212857Y-99666514D01*
X-1403333Y-99666514D01*
X-1555714Y-99704610D01*
X-1631904Y-99742705D01*
X-1670000Y-99780800D01*
X-1708095Y-99856991D01*
X-1746190Y-101037943D02*
X-717619Y-100352229D01*
X-908095Y-101304610D02*
X-1708095Y-101304610D01*
X-1708095Y-101495086D01*
X-1670000Y-101609372D01*
X-1593809Y-101685562D01*
X-1517619Y-101723657D01*
X-1365238Y-101761752D01*
X-1250952Y-101761752D01*
X-1098571Y-101723657D01*
X-1022380Y-101685562D01*
X-946190Y-101609372D01*
X-908095Y-101495086D01*
X-908095Y-101304610D01*
X-1708095Y-102028419D02*
X-1708095Y-102523657D01*
X-1403333Y-102256991D01*
X-1403333Y-102371276D01*
X-1365238Y-102447467D01*
X-1327142Y-102485562D01*
X-1250952Y-102523657D01*
X-1060476Y-102523657D01*
X-984285Y-102485562D01*
X-946190Y-102447467D01*
X-908095Y-102371276D01*
X-908095Y-102142705D01*
X-946190Y-102066514D01*
X-984285Y-102028419D01*
X-1708095Y-98218895D02*
X-1708095Y-98676038D01*
X-908095Y-98447467D02*
X-1708095Y-98447467D01*
X-1708095Y-98866514D02*
X-908095Y-99399848D01*
X-1708095Y-99399848D02*
X-908095Y-98866514D01*
X-1708095Y-99856991D02*
X-1708095Y-99933181D01*
X-1670000Y-100009372D01*
X-1631904Y-100047467D01*
X-1555714Y-100085562D01*
X-1403333Y-100123657D01*
X-1212857Y-100123657D01*
X-1060476Y-100085562D01*
X-984285Y-100047467D01*
X-946190Y-100009372D01*
X-908095Y-99933181D01*
X-908095Y-99856991D01*
X-946190Y-99780800D01*
X-984285Y-99742705D01*
X-1060476Y-99704610D01*
X-1212857Y-99666514D01*
X-1403333Y-99666514D01*
X-1555714Y-99704610D01*
X-1631904Y-99742705D01*
X-1670000Y-99780800D01*
X-1708095Y-99856991D01*
X-1746190Y-101037943D02*
X-717619Y-100352229D01*
X-908095Y-101304610D02*
X-1708095Y-101304610D01*
X-1708095Y-101495086D01*
X-1670000Y-101609372D01*
X-1593809Y-101685562D01*
X-1517619Y-101723657D01*
X-1365238Y-101761752D01*
X-1250952Y-101761752D01*
X-1098571Y-101723657D01*
X-1022380Y-101685562D01*
X-946190Y-101609372D01*
X-908095Y-101495086D01*
X-908095Y-101304610D01*
X-1708095Y-102028419D02*
X-1708095Y-102523657D01*
X-1403333Y-102256991D01*
X-1403333Y-102371276D01*
X-1365238Y-102447467D01*
X-1327142Y-102485562D01*
X-1250952Y-102523657D01*
X-1060476Y-102523657D01*
X-984285Y-102485562D01*
X-946190Y-102447467D01*
X-908095Y-102371276D01*
X-908095Y-102142705D01*
X-946190Y-102066514D01*
X-984285Y-102028419D01*
M02*
