M48
; DRILL file {KiCad (5.1.4)-1} date 1/30/2021 12:10:31 AM
; FORMAT={-:-/ absolute / metric / decimal}
; #@! TF.CreationDate,2021-01-30T00:10:31-06:00
; #@! TF.GenerationSoftware,Kicad,Pcbnew,(5.1.4)-1
FMAT,2
METRIC
T1C0.400
T2C0.800
T3C1.000
T4C1.092
T5C1.600
T6C1.700
T7C1.750
T8C3.048
T9C3.200
T10C3.988
T11C4.000
%
G90
G05
T1
X-1.587Y-58.737
X-0.794Y-59.531
X-0.794Y-63.5
X3.969Y-74.612
X27.781Y-69.85
X28.575Y-83.344
X28.575Y-84.931
X30.162Y-90.487
X31.75Y-96.837
X32.544Y-89.694
X34.131Y-100.806
X34.925Y-88.9
X36.512Y-99.219
X37.306Y-88.106
X38.1Y-90.487
X45.244Y-118.269
X48.419Y-83.344
X48.419Y-88.106
X48.419Y-89.106
X48.419Y-90.106
X55.562Y-91.281
X64.294Y-67.469
X65.087Y-91.281
X71.438Y-91.281
X77.787Y-67.469
X84.138Y-91.281
X92.075Y-91.281
X153.987Y-74.612
X158.395Y-70.999
X231.775Y-100.806
X240.506Y-101.6
X249.237Y-87.312
T2
X287.655Y-123.825
X295.275Y-123.825
X206.375Y-132.556
X206.375Y-140.176
X151.606Y-113.506
X151.606Y-121.126
X63.5Y-132.556
X63.5Y-140.176
X237.331Y-94.456
X237.331Y-102.076
X32.544Y-56.356
X32.544Y-63.976
X15.875Y-132.556
X15.875Y-140.176
X208.756Y-113.506
X208.756Y-121.126
X213.519Y-75.406
X213.519Y-83.026
X165.894Y-56.356
X165.894Y-63.976
X280.194Y-113.506
X280.194Y-121.126
X94.456Y-113.506
X94.456Y-121.126
X123.031Y-94.456
X123.031Y-102.076
X203.994Y-56.356
X203.994Y-63.976
X287.655Y-66.675
X295.275Y-66.675
X118.269Y-75.406
X118.269Y-83.026
X89.694Y-56.356
X89.694Y-63.976
X227.806Y-113.506
X227.806Y-121.126
X46.831Y-94.456
X46.831Y-102.076
X127.794Y-56.356
X127.794Y-63.976
X84.931Y-94.456
X84.931Y-102.076
X18.256Y-75.406
X18.256Y-83.026
X254.0Y-113.506
X254.0Y-121.126
X103.981Y-94.456
X103.981Y-102.076
X287.655Y-142.875
X295.275Y-142.875
X245.269Y-132.874
X245.269Y-140.494
X113.506Y-113.506
X113.506Y-121.126
X56.356Y-113.506
X56.356Y-121.126
X108.744Y-56.356
X108.744Y-63.976
X230.188Y-132.556
X230.188Y-140.176
X218.281Y-94.456
X218.281Y-102.076
X13.494Y-56.356
X13.494Y-63.976
X161.131Y-94.456
X161.131Y-102.076
X80.169Y-75.406
X80.169Y-83.026
X61.119Y-75.406
X61.119Y-83.026
X75.406Y-113.506
X75.406Y-121.126
X275.431Y-75.406
X275.431Y-83.026
X42.069Y-75.406
X42.069Y-83.026
X199.231Y-94.456
X199.231Y-102.076
X175.419Y-75.406
X175.419Y-83.026
X51.594Y-56.356
X51.594Y-63.976
X251.619Y-75.406
X251.619Y-83.026
X223.044Y-56.356
X223.044Y-63.976
X156.369Y-75.406
X156.369Y-83.026
X99.219Y-75.406
X99.219Y-83.026
X280.194Y-132.556
X280.194Y-140.176
X25.4Y-113.506
X25.4Y-121.126
X134.938Y-132.556
X134.938Y-140.176
X268.287Y-94.456
X268.287Y-102.076
X70.644Y-56.356
X70.644Y-63.976
X39.688Y-132.556
X39.688Y-140.176
X170.656Y-113.506
X170.656Y-121.126
X142.081Y-94.456
X142.081Y-102.076
X287.655Y-85.725
X295.275Y-85.725
X180.181Y-94.456
X180.181Y-102.076
X20.637Y-94.456
X20.637Y-102.076
X242.094Y-56.356
X242.094Y-63.976
X189.706Y-113.506
X189.706Y-121.126
X137.319Y-75.406
X137.319Y-83.026
X146.844Y-56.356
X146.844Y-63.976
X132.556Y-113.506
X132.556Y-121.126
X232.569Y-75.406
X232.569Y-83.026
X270.669Y-56.356
X270.669Y-63.976
X194.469Y-75.406
X194.469Y-83.026
X184.944Y-56.356
X184.944Y-63.976
X65.881Y-94.456
X65.881Y-102.076
X287.655Y-104.775
X295.275Y-104.775
T3
X-8.731Y-55.562
X-8.731Y-58.102
X-8.731Y-60.642
X-8.731Y-63.182
X305.594Y-55.562
X305.594Y-58.102
X305.594Y-60.642
X305.594Y-63.182
T4
X-1.27Y-89.218
X-1.27Y-104.457
X1.27Y-89.218
X1.27Y-104.457
X3.81Y-89.218
X3.81Y-104.457
X6.35Y-89.218
X6.35Y-104.457
X8.89Y-89.218
X8.89Y-104.457
X11.43Y-89.218
X11.43Y-104.457
X13.97Y-89.218
X13.97Y-104.457
X16.51Y-89.218
X16.51Y-104.457
X19.05Y-89.218
X19.05Y-104.457
X21.59Y-89.218
X21.59Y-104.457
X24.13Y-89.218
X24.13Y-104.457
X26.67Y-89.218
X26.67Y-104.457
T5
X6.509Y-75.248
X12.859Y-72.707
X82.709Y-113.347
X89.059Y-110.807
X13.652Y-113.347
X20.002Y-110.807
X220.821Y-75.248
X227.171Y-72.707
X177.959Y-113.347
X184.309Y-110.807
X44.609Y-113.347
X50.959Y-110.807
X168.434Y-94.297
X174.784Y-91.757
X149.384Y-94.297
X155.734Y-91.757
X192.246Y-56.197
X198.596Y-53.657
X123.19Y-132.398
X129.54Y-129.857
X106.521Y-75.248
X112.871Y-72.707
X101.759Y-113.347
X108.109Y-110.807
X258.921Y-56.197
X265.271Y-53.657
X87.471Y-75.248
X93.821Y-72.707
X111.284Y-94.297
X117.634Y-91.757
X182.721Y-75.248
X189.071Y-72.707
X77.946Y-56.197
X84.296Y-53.657
X39.846Y-56.197
X46.196Y-53.657
X1.746Y-56.197
X8.096Y-53.657
X211.296Y-56.197
X217.646Y-53.657
X268.446Y-132.398
X274.796Y-129.857
X225.584Y-94.297
X231.934Y-91.757
X263.684Y-75.248
X270.034Y-72.707
X187.484Y-94.297
X193.834Y-91.757
X256.54Y-94.297
X262.89Y-91.757
X287.496Y-113.347
X293.846Y-110.807
X92.234Y-94.297
X98.584Y-91.757
X49.371Y-75.248
X55.721Y-72.707
X30.321Y-75.248
X36.671Y-72.707
X287.496Y-56.197
X293.846Y-53.657
X63.659Y-113.347
X70.009Y-110.807
X135.096Y-56.197
X141.446Y-53.657
X144.621Y-75.248
X150.971Y-72.707
X201.771Y-75.248
X208.121Y-72.707
X139.859Y-113.347
X146.209Y-110.807
X218.44Y-132.398
X224.79Y-129.857
X206.534Y-94.297
X212.884Y-91.757
X96.996Y-56.197
X103.346Y-53.657
X242.252Y-113.347
X248.602Y-110.807
X4.127Y-132.398
X10.477Y-129.857
X239.871Y-75.248
X246.221Y-72.707
X54.134Y-94.297
X60.484Y-91.757
X158.909Y-113.347
X165.259Y-110.807
X68.421Y-75.248
X74.771Y-72.707
X194.627Y-132.398
X200.977Y-129.857
X249.396Y-132.398
X255.746Y-129.857
X120.809Y-113.347
X127.159Y-110.807
X197.009Y-113.347
X203.359Y-110.807
X130.334Y-94.297
X136.684Y-91.757
X154.146Y-56.197
X160.496Y-53.657
X287.496Y-132.398
X293.846Y-129.857
X35.084Y-94.297
X41.434Y-91.757
X125.571Y-75.248
X131.921Y-72.707
X116.046Y-56.197
X122.396Y-53.657
X287.496Y-75.248
X293.846Y-72.707
X216.059Y-113.347
X222.409Y-110.807
X287.496Y-94.297
X293.846Y-91.757
X163.671Y-75.248
X170.021Y-72.707
X268.446Y-113.347
X274.796Y-110.807
X8.89Y-94.297
X15.24Y-91.757
X51.752Y-132.398
X58.102Y-129.857
X173.196Y-56.197
X179.546Y-53.657
X230.346Y-56.197
X236.696Y-53.657
X27.94Y-132.398
X34.29Y-129.857
X58.896Y-56.197
X65.246Y-53.657
X20.796Y-56.197
X27.146Y-53.657
X73.184Y-94.297
X79.534Y-91.757
T6
X57.626Y-58.737
X67.786Y-58.737
X19.526Y-58.737
X29.686Y-58.737
X71.914Y-96.837
X82.074Y-96.837
X81.439Y-115.887
X91.599Y-115.887
X219.551Y-77.787
X229.711Y-77.787
X176.689Y-115.887
X186.849Y-115.887
X43.339Y-115.887
X53.499Y-115.887
X167.164Y-96.837
X177.324Y-96.837
X148.114Y-96.837
X158.274Y-96.837
X190.976Y-58.737
X201.136Y-58.737
X105.251Y-77.787
X115.411Y-77.787
X100.489Y-115.887
X110.649Y-115.887
X86.201Y-77.787
X96.361Y-77.787
X110.014Y-96.837
X120.174Y-96.837
X181.451Y-77.787
X191.611Y-77.787
X76.676Y-58.737
X86.836Y-58.737
X38.576Y-58.737
X48.736Y-58.737
X0.476Y-58.737
X10.636Y-58.737
X210.026Y-58.737
X220.186Y-58.737
X267.176Y-134.938
X277.336Y-134.938
X224.314Y-96.837
X234.474Y-96.837
X186.214Y-96.837
X196.374Y-96.837
X286.226Y-115.887
X296.386Y-115.887
X90.964Y-96.837
X101.124Y-96.837
X48.101Y-77.787
X58.261Y-77.787
X29.051Y-77.787
X39.211Y-77.787
X286.226Y-58.737
X296.386Y-58.737
X62.389Y-115.887
X72.549Y-115.887
X133.826Y-58.737
X143.986Y-58.737
X143.351Y-77.787
X153.511Y-77.787
X200.501Y-77.787
X210.661Y-77.787
X138.589Y-115.887
X148.749Y-115.887
X205.264Y-96.837
X215.424Y-96.837
X95.726Y-58.737
X105.886Y-58.737
X238.601Y-77.787
X248.761Y-77.787
X52.864Y-96.837
X63.024Y-96.837
X157.639Y-115.887
X167.799Y-115.887
X67.151Y-77.787
X77.311Y-77.787
X248.126Y-134.938
X258.286Y-134.938
X119.539Y-115.887
X129.699Y-115.887
X195.739Y-115.887
X205.899Y-115.887
X129.064Y-96.837
X139.224Y-96.837
X152.876Y-58.737
X163.036Y-58.737
X286.226Y-134.938
X296.386Y-134.938
X33.814Y-96.837
X43.974Y-96.837
X124.301Y-77.787
X134.461Y-77.787
X114.776Y-58.737
X124.936Y-58.737
X286.226Y-77.787
X296.386Y-77.787
X214.789Y-115.887
X224.949Y-115.887
X286.226Y-96.837
X296.386Y-96.837
X162.401Y-77.787
X172.561Y-77.787
X267.176Y-115.887
X277.336Y-115.887
X171.926Y-58.737
X182.086Y-58.737
X229.076Y-58.737
X239.236Y-58.737
T7
X248.126Y-134.938
X258.286Y-134.938
X119.539Y-115.887
X129.699Y-115.887
X195.739Y-115.887
X205.899Y-115.887
X129.064Y-96.837
X139.224Y-96.837
X152.876Y-58.737
X163.036Y-58.737
X286.226Y-134.938
X296.386Y-134.938
X33.814Y-96.837
X43.974Y-96.837
X124.301Y-77.787
X134.461Y-77.787
X114.776Y-58.737
X124.936Y-58.737
X286.226Y-77.787
X296.386Y-77.787
X214.789Y-115.887
X224.949Y-115.887
X286.226Y-96.837
X296.386Y-96.837
X162.401Y-77.787
X172.561Y-77.787
X267.176Y-115.887
X277.336Y-115.887
X7.62Y-96.837
X17.78Y-96.837
X50.482Y-134.938
X60.642Y-134.938
X171.926Y-58.737
X182.086Y-58.737
X229.076Y-58.737
X239.236Y-58.737
X26.67Y-134.938
X36.83Y-134.938
X57.626Y-58.737
X67.786Y-58.737
X19.526Y-58.737
X29.686Y-58.737
X71.914Y-96.837
X82.074Y-96.837
X5.239Y-77.787
X15.399Y-77.787
X81.439Y-115.887
X91.599Y-115.887
X12.383Y-115.887
X22.543Y-115.887
X219.551Y-77.787
X229.711Y-77.787
X176.689Y-115.887
X186.849Y-115.887
X43.339Y-115.887
X53.499Y-115.887
X167.164Y-96.837
X177.324Y-96.837
X148.114Y-96.837
X158.274Y-96.837
X190.976Y-58.737
X201.136Y-58.737
X121.92Y-134.938
X132.08Y-134.938
X105.251Y-77.787
X115.411Y-77.787
X100.489Y-115.887
X110.649Y-115.887
X257.651Y-58.737
X267.811Y-58.737
X86.201Y-77.787
X96.361Y-77.787
X110.014Y-96.837
X120.174Y-96.837
X181.451Y-77.787
X191.611Y-77.787
X76.676Y-58.737
X86.836Y-58.737
X38.576Y-58.737
X48.736Y-58.737
X0.476Y-58.737
X10.636Y-58.737
X210.026Y-58.737
X220.186Y-58.737
X267.176Y-134.938
X277.336Y-134.938
X224.314Y-96.837
X234.474Y-96.837
X262.414Y-77.787
X272.574Y-77.787
X186.214Y-96.837
X196.374Y-96.837
X255.27Y-96.837
X265.43Y-96.837
X286.226Y-115.887
X296.386Y-115.887
X90.964Y-96.837
X101.124Y-96.837
X48.101Y-77.787
X58.261Y-77.787
X29.051Y-77.787
X39.211Y-77.787
X286.226Y-58.737
X296.386Y-58.737
X62.389Y-115.887
X72.549Y-115.887
X133.826Y-58.737
X143.986Y-58.737
X143.351Y-77.787
X153.511Y-77.787
X200.501Y-77.787
X210.661Y-77.787
X138.589Y-115.887
X148.749Y-115.887
X217.17Y-134.938
X227.33Y-134.938
X205.264Y-96.837
X215.424Y-96.837
X95.726Y-58.737
X105.886Y-58.737
X240.982Y-115.887
X251.142Y-115.887
X2.857Y-134.938
X13.018Y-134.938
X238.601Y-77.787
X248.761Y-77.787
X52.864Y-96.837
X63.024Y-96.837
X157.639Y-115.887
X167.799Y-115.887
X67.151Y-77.787
X77.311Y-77.787
X193.357Y-134.938
X203.517Y-134.938
T8
X5.556Y-108.902
X29.369Y-108.902
X77.0Y-141.922
X177.0Y-141.922
X250.825Y-51.752
X274.637Y-51.752
X248.444Y-89.852
X272.256Y-89.852
T9
X210.344Y-125.412
X72.231Y-68.263
X-0.794Y-77.787
X281.781Y-87.312
X67.469Y-125.412
X205.581Y-68.263
T10
X119.856Y-58.737
X291.306Y-77.787
X219.869Y-115.887
X291.306Y-96.837
X167.481Y-77.787
X272.256Y-115.887
X12.7Y-96.837
X55.562Y-134.938
X177.006Y-58.737
X234.156Y-58.737
X31.75Y-134.938
X62.706Y-58.737
X24.606Y-58.737
X76.994Y-96.837
X10.319Y-77.787
X86.519Y-115.887
X5.556Y-124.142
X17.462Y-115.887
X29.369Y-124.142
X224.631Y-77.787
X181.769Y-115.887
X48.419Y-115.887
X172.244Y-96.837
X153.194Y-96.837
X196.056Y-58.737
X77.0Y-126.682
X127.0Y-134.938
X177.0Y-126.682
X110.331Y-77.787
X105.569Y-115.887
X250.825Y-66.992
X262.731Y-58.737
X274.637Y-66.992
X91.281Y-77.787
X115.094Y-96.837
X186.531Y-77.787
X81.756Y-58.737
X43.656Y-58.737
X5.556Y-58.737
X215.106Y-58.737
X272.256Y-134.938
X229.394Y-96.837
X267.494Y-77.787
X191.294Y-96.837
X248.444Y-105.093
X260.35Y-96.837
X272.256Y-105.093
X291.306Y-115.887
X96.044Y-96.837
X53.181Y-77.787
X34.131Y-77.787
X291.306Y-58.737
X67.469Y-115.887
X138.906Y-58.737
X148.431Y-77.787
X205.581Y-77.787
X143.669Y-115.887
X222.25Y-134.938
X210.344Y-96.837
X100.806Y-58.737
X246.062Y-115.887
X7.938Y-134.938
X243.681Y-77.787
X57.944Y-96.837
X162.719Y-115.887
X72.231Y-77.787
X198.438Y-134.938
X253.206Y-134.938
X124.619Y-115.887
X200.819Y-115.887
X134.144Y-96.837
X157.956Y-58.737
X291.306Y-134.938
X38.894Y-96.837
X129.381Y-77.787
T11
X210.344Y-96.837
X100.806Y-58.737
X243.681Y-77.787
X57.944Y-96.837
X162.719Y-115.887
X72.231Y-77.787
X253.206Y-134.938
X124.619Y-115.887
X200.819Y-115.887
X134.144Y-96.837
X157.956Y-58.737
X291.306Y-134.938
X38.894Y-96.837
X129.381Y-77.787
X119.856Y-58.737
X291.306Y-77.787
X219.869Y-115.887
X291.306Y-96.837
X167.481Y-77.787
X272.256Y-115.887
X177.006Y-58.737
X234.156Y-58.737
X62.706Y-58.737
X24.606Y-58.737
X76.994Y-96.837
X86.519Y-115.887
X224.631Y-77.787
X181.769Y-115.887
X48.419Y-115.887
X172.244Y-96.837
X153.194Y-96.837
X196.056Y-58.737
X110.331Y-77.787
X105.569Y-115.887
X91.281Y-77.787
X115.094Y-96.837
X186.531Y-77.787
X81.756Y-58.737
X43.656Y-58.737
X5.556Y-58.737
X215.106Y-58.737
X272.256Y-134.938
X229.394Y-96.837
X191.294Y-96.837
X291.306Y-115.887
X96.044Y-96.837
X53.181Y-77.787
X34.131Y-77.787
X291.306Y-58.737
X67.469Y-115.887
X138.906Y-58.737
X148.431Y-77.787
X205.581Y-77.787
X143.669Y-115.887
T0
M30
