G04 #@! TF.GenerationSoftware,KiCad,Pcbnew,(5.99.0-8711-gbabda304d9)*
G04 #@! TF.CreationDate,2021-01-31T05:21:36-06:00*
G04 #@! TF.ProjectId,65NumpadHATCHED,36354e75-6d70-4616-9448-415443484544,rev?*
G04 #@! TF.SameCoordinates,Original*
G04 #@! TF.FileFunction,Legend,Bot*
G04 #@! TF.FilePolarity,Positive*
%FSLAX46Y46*%
G04 Gerber Fmt 4.6, Leading zero omitted, Abs format (unit mm)*
G04 Created by KiCad (PCBNEW (5.99.0-8711-gbabda304d9)) date 2021-01-31 05:21:36*
%MOMM*%
%LPD*%
G01*
G04 APERTURE LIST*
%ADD10C,0.150000*%
%ADD11C,0.381000*%
%ADD12C,0.120000*%
%ADD13R,1.752600X1.752600*%
%ADD14C,1.752600*%
G04 APERTURE END LIST*
D10*
X-908095Y-85871119D02*
X-1289047Y-85604452D01*
X-908095Y-85413976D02*
X-1708095Y-85413976D01*
X-1708095Y-85718738D01*
X-1670000Y-85794928D01*
X-1631904Y-85833023D01*
X-1555714Y-85871119D01*
X-1441428Y-85871119D01*
X-1365238Y-85833023D01*
X-1327142Y-85794928D01*
X-1289047Y-85718738D01*
X-1289047Y-85413976D01*
X-1136666Y-86175880D02*
X-1136666Y-86556833D01*
X-908095Y-86099690D02*
X-1708095Y-86366357D01*
X-908095Y-86633023D01*
X-1708095Y-86823500D02*
X-908095Y-87013976D01*
X-1479523Y-87166357D01*
X-908095Y-87318738D01*
X-1708095Y-87509214D01*
X14331904Y-106407023D02*
X13531904Y-106407023D01*
X13531904Y-106597500D01*
X13570000Y-106711785D01*
X13646190Y-106787976D01*
X13722380Y-106826071D01*
X13874761Y-106864166D01*
X13989047Y-106864166D01*
X14141428Y-106826071D01*
X14217619Y-106787976D01*
X14293809Y-106711785D01*
X14331904Y-106597500D01*
X14331904Y-106407023D01*
X13798571Y-107549880D02*
X14331904Y-107549880D01*
X13493809Y-107359404D02*
X14065238Y-107168928D01*
X14065238Y-107664166D01*
X11791904Y-106407023D02*
X10991904Y-106407023D01*
X10991904Y-106597500D01*
X11030000Y-106711785D01*
X11106190Y-106787976D01*
X11182380Y-106826071D01*
X11334761Y-106864166D01*
X11449047Y-106864166D01*
X11601428Y-106826071D01*
X11677619Y-106787976D01*
X11753809Y-106711785D01*
X11791904Y-106597500D01*
X11791904Y-106407023D01*
X10991904Y-107359404D02*
X10991904Y-107435595D01*
X11030000Y-107511785D01*
X11068095Y-107549880D01*
X11144285Y-107587976D01*
X11296666Y-107626071D01*
X11487142Y-107626071D01*
X11639523Y-107587976D01*
X11715714Y-107549880D01*
X11753809Y-107511785D01*
X11791904Y-107435595D01*
X11791904Y-107359404D01*
X11753809Y-107283214D01*
X11715714Y-107245119D01*
X11639523Y-107207023D01*
X11487142Y-107168928D01*
X11296666Y-107168928D01*
X11144285Y-107207023D01*
X11068095Y-107245119D01*
X11030000Y-107283214D01*
X10991904Y-107359404D01*
X19411904Y-106407023D02*
X18611904Y-106407023D01*
X18611904Y-106597500D01*
X18650000Y-106711785D01*
X18726190Y-106787976D01*
X18802380Y-106826071D01*
X18954761Y-106864166D01*
X19069047Y-106864166D01*
X19221428Y-106826071D01*
X19297619Y-106787976D01*
X19373809Y-106711785D01*
X19411904Y-106597500D01*
X19411904Y-106407023D01*
X18611904Y-107130833D02*
X18611904Y-107664166D01*
X19411904Y-107321309D01*
X9251904Y-106407023D02*
X8451904Y-106407023D01*
X8451904Y-106597500D01*
X8490000Y-106711785D01*
X8566190Y-106787976D01*
X8642380Y-106826071D01*
X8794761Y-106864166D01*
X8909047Y-106864166D01*
X9061428Y-106826071D01*
X9137619Y-106787976D01*
X9213809Y-106711785D01*
X9251904Y-106597500D01*
X9251904Y-106407023D01*
X9251904Y-107626071D02*
X9251904Y-107168928D01*
X9251904Y-107397500D02*
X8451904Y-107397500D01*
X8566190Y-107321309D01*
X8642380Y-107245119D01*
X8680476Y-107168928D01*
X5950000Y-106641976D02*
X5911904Y-106565785D01*
X5911904Y-106451500D01*
X5950000Y-106337214D01*
X6026190Y-106261023D01*
X6102380Y-106222928D01*
X6254761Y-106184833D01*
X6369047Y-106184833D01*
X6521428Y-106222928D01*
X6597619Y-106261023D01*
X6673809Y-106337214D01*
X6711904Y-106451500D01*
X6711904Y-106527690D01*
X6673809Y-106641976D01*
X6635714Y-106680071D01*
X6369047Y-106680071D01*
X6369047Y-106527690D01*
X6711904Y-107022928D02*
X5911904Y-107022928D01*
X6711904Y-107480071D01*
X5911904Y-107480071D01*
X6711904Y-107861023D02*
X5911904Y-107861023D01*
X5911904Y-108051500D01*
X5950000Y-108165785D01*
X6026190Y-108241976D01*
X6102380Y-108280071D01*
X6254761Y-108318166D01*
X6369047Y-108318166D01*
X6521428Y-108280071D01*
X6597619Y-108241976D01*
X6673809Y-108165785D01*
X6711904Y-108051500D01*
X6711904Y-107861023D01*
X3410000Y-106641976D02*
X3371904Y-106565785D01*
X3371904Y-106451500D01*
X3410000Y-106337214D01*
X3486190Y-106261023D01*
X3562380Y-106222928D01*
X3714761Y-106184833D01*
X3829047Y-106184833D01*
X3981428Y-106222928D01*
X4057619Y-106261023D01*
X4133809Y-106337214D01*
X4171904Y-106451500D01*
X4171904Y-106527690D01*
X4133809Y-106641976D01*
X4095714Y-106680071D01*
X3829047Y-106680071D01*
X3829047Y-106527690D01*
X4171904Y-107022928D02*
X3371904Y-107022928D01*
X4171904Y-107480071D01*
X3371904Y-107480071D01*
X4171904Y-107861023D02*
X3371904Y-107861023D01*
X3371904Y-108051500D01*
X3410000Y-108165785D01*
X3486190Y-108241976D01*
X3562380Y-108280071D01*
X3714761Y-108318166D01*
X3829047Y-108318166D01*
X3981428Y-108280071D01*
X4057619Y-108241976D01*
X4133809Y-108165785D01*
X4171904Y-108051500D01*
X4171904Y-107861023D01*
X21532857Y-106445119D02*
X21532857Y-106711785D01*
X21951904Y-106826071D02*
X21951904Y-106445119D01*
X21151904Y-106445119D01*
X21151904Y-106826071D01*
X21151904Y-107511785D02*
X21151904Y-107359404D01*
X21190000Y-107283214D01*
X21228095Y-107245119D01*
X21342380Y-107168928D01*
X21494761Y-107130833D01*
X21799523Y-107130833D01*
X21875714Y-107168928D01*
X21913809Y-107207023D01*
X21951904Y-107283214D01*
X21951904Y-107435595D01*
X21913809Y-107511785D01*
X21875714Y-107549880D01*
X21799523Y-107587976D01*
X21609047Y-107587976D01*
X21532857Y-107549880D01*
X21494761Y-107511785D01*
X21456666Y-107435595D01*
X21456666Y-107283214D01*
X21494761Y-107207023D01*
X21532857Y-107168928D01*
X21609047Y-107130833D01*
X26612857Y-86353690D02*
X26650952Y-86467976D01*
X26689047Y-86506071D01*
X26765238Y-86544166D01*
X26879523Y-86544166D01*
X26955714Y-86506071D01*
X26993809Y-86467976D01*
X27031904Y-86391785D01*
X27031904Y-86087023D01*
X26231904Y-86087023D01*
X26231904Y-86353690D01*
X26270000Y-86429880D01*
X26308095Y-86467976D01*
X26384285Y-86506071D01*
X26460476Y-86506071D01*
X26536666Y-86467976D01*
X26574761Y-86429880D01*
X26612857Y-86353690D01*
X26612857Y-86087023D01*
X26231904Y-87229880D02*
X26231904Y-87077500D01*
X26270000Y-87001309D01*
X26308095Y-86963214D01*
X26422380Y-86887023D01*
X26574761Y-86848928D01*
X26879523Y-86848928D01*
X26955714Y-86887023D01*
X26993809Y-86925119D01*
X27031904Y-87001309D01*
X27031904Y-87153690D01*
X26993809Y-87229880D01*
X26955714Y-87267976D01*
X26879523Y-87306071D01*
X26689047Y-87306071D01*
X26612857Y-87267976D01*
X26574761Y-87229880D01*
X26536666Y-87153690D01*
X26536666Y-87001309D01*
X26574761Y-86925119D01*
X26612857Y-86887023D01*
X26689047Y-86848928D01*
X18992857Y-86353690D02*
X19030952Y-86467976D01*
X19069047Y-86506071D01*
X19145238Y-86544166D01*
X19259523Y-86544166D01*
X19335714Y-86506071D01*
X19373809Y-86467976D01*
X19411904Y-86391785D01*
X19411904Y-86087023D01*
X18611904Y-86087023D01*
X18611904Y-86353690D01*
X18650000Y-86429880D01*
X18688095Y-86467976D01*
X18764285Y-86506071D01*
X18840476Y-86506071D01*
X18916666Y-86467976D01*
X18954761Y-86429880D01*
X18992857Y-86353690D01*
X18992857Y-86087023D01*
X19411904Y-87306071D02*
X19411904Y-86848928D01*
X19411904Y-87077500D02*
X18611904Y-87077500D01*
X18726190Y-87001309D01*
X18802380Y-86925119D01*
X18840476Y-86848928D01*
X1631904Y-106407023D02*
X831904Y-106407023D01*
X831904Y-106597500D01*
X870000Y-106711785D01*
X946190Y-106787976D01*
X1022380Y-106826071D01*
X1174761Y-106864166D01*
X1289047Y-106864166D01*
X1441428Y-106826071D01*
X1517619Y-106787976D01*
X1593809Y-106711785D01*
X1631904Y-106597500D01*
X1631904Y-106407023D01*
X908095Y-107168928D02*
X870000Y-107207023D01*
X831904Y-107283214D01*
X831904Y-107473690D01*
X870000Y-107549880D01*
X908095Y-107587976D01*
X984285Y-107626071D01*
X1060476Y-107626071D01*
X1174761Y-107587976D01*
X1631904Y-107130833D01*
X1631904Y-107626071D01*
X16795714Y-106864166D02*
X16833809Y-106826071D01*
X16871904Y-106711785D01*
X16871904Y-106635595D01*
X16833809Y-106521309D01*
X16757619Y-106445119D01*
X16681428Y-106407023D01*
X16529047Y-106368928D01*
X16414761Y-106368928D01*
X16262380Y-106407023D01*
X16186190Y-106445119D01*
X16110000Y-106521309D01*
X16071904Y-106635595D01*
X16071904Y-106711785D01*
X16110000Y-106826071D01*
X16148095Y-106864166D01*
X16071904Y-107549880D02*
X16071904Y-107397500D01*
X16110000Y-107321309D01*
X16148095Y-107283214D01*
X16262380Y-107207023D01*
X16414761Y-107168928D01*
X16719523Y-107168928D01*
X16795714Y-107207023D01*
X16833809Y-107245119D01*
X16871904Y-107321309D01*
X16871904Y-107473690D01*
X16833809Y-107549880D01*
X16795714Y-107587976D01*
X16719523Y-107626071D01*
X16529047Y-107626071D01*
X16452857Y-107587976D01*
X16414761Y-107549880D01*
X16376666Y-107473690D01*
X16376666Y-107321309D01*
X16414761Y-107245119D01*
X16452857Y-107207023D01*
X16529047Y-107168928D01*
X16795714Y-106864166D02*
X16833809Y-106826071D01*
X16871904Y-106711785D01*
X16871904Y-106635595D01*
X16833809Y-106521309D01*
X16757619Y-106445119D01*
X16681428Y-106407023D01*
X16529047Y-106368928D01*
X16414761Y-106368928D01*
X16262380Y-106407023D01*
X16186190Y-106445119D01*
X16110000Y-106521309D01*
X16071904Y-106635595D01*
X16071904Y-106711785D01*
X16110000Y-106826071D01*
X16148095Y-106864166D01*
X16071904Y-107549880D02*
X16071904Y-107397500D01*
X16110000Y-107321309D01*
X16148095Y-107283214D01*
X16262380Y-107207023D01*
X16414761Y-107168928D01*
X16719523Y-107168928D01*
X16795714Y-107207023D01*
X16833809Y-107245119D01*
X16871904Y-107321309D01*
X16871904Y-107473690D01*
X16833809Y-107549880D01*
X16795714Y-107587976D01*
X16719523Y-107626071D01*
X16529047Y-107626071D01*
X16452857Y-107587976D01*
X16414761Y-107549880D01*
X16376666Y-107473690D01*
X16376666Y-107321309D01*
X16414761Y-107245119D01*
X16452857Y-107207023D01*
X16529047Y-107168928D01*
X26612857Y-86353690D02*
X26650952Y-86467976D01*
X26689047Y-86506071D01*
X26765238Y-86544166D01*
X26879523Y-86544166D01*
X26955714Y-86506071D01*
X26993809Y-86467976D01*
X27031904Y-86391785D01*
X27031904Y-86087023D01*
X26231904Y-86087023D01*
X26231904Y-86353690D01*
X26270000Y-86429880D01*
X26308095Y-86467976D01*
X26384285Y-86506071D01*
X26460476Y-86506071D01*
X26536666Y-86467976D01*
X26574761Y-86429880D01*
X26612857Y-86353690D01*
X26612857Y-86087023D01*
X26231904Y-87229880D02*
X26231904Y-87077500D01*
X26270000Y-87001309D01*
X26308095Y-86963214D01*
X26422380Y-86887023D01*
X26574761Y-86848928D01*
X26879523Y-86848928D01*
X26955714Y-86887023D01*
X26993809Y-86925119D01*
X27031904Y-87001309D01*
X27031904Y-87153690D01*
X26993809Y-87229880D01*
X26955714Y-87267976D01*
X26879523Y-87306071D01*
X26689047Y-87306071D01*
X26612857Y-87267976D01*
X26574761Y-87229880D01*
X26536666Y-87153690D01*
X26536666Y-87001309D01*
X26574761Y-86925119D01*
X26612857Y-86887023D01*
X26689047Y-86848928D01*
X21532857Y-106445119D02*
X21532857Y-106711785D01*
X21951904Y-106826071D02*
X21951904Y-106445119D01*
X21151904Y-106445119D01*
X21151904Y-106826071D01*
X21151904Y-107511785D02*
X21151904Y-107359404D01*
X21190000Y-107283214D01*
X21228095Y-107245119D01*
X21342380Y-107168928D01*
X21494761Y-107130833D01*
X21799523Y-107130833D01*
X21875714Y-107168928D01*
X21913809Y-107207023D01*
X21951904Y-107283214D01*
X21951904Y-107435595D01*
X21913809Y-107511785D01*
X21875714Y-107549880D01*
X21799523Y-107587976D01*
X21609047Y-107587976D01*
X21532857Y-107549880D01*
X21494761Y-107511785D01*
X21456666Y-107435595D01*
X21456666Y-107283214D01*
X21494761Y-107207023D01*
X21532857Y-107168928D01*
X21609047Y-107130833D01*
X5911904Y-85356833D02*
X6711904Y-85623500D01*
X5911904Y-85890166D01*
X6635714Y-86613976D02*
X6673809Y-86575880D01*
X6711904Y-86461595D01*
X6711904Y-86385404D01*
X6673809Y-86271119D01*
X6597619Y-86194928D01*
X6521428Y-86156833D01*
X6369047Y-86118738D01*
X6254761Y-86118738D01*
X6102380Y-86156833D01*
X6026190Y-86194928D01*
X5950000Y-86271119D01*
X5911904Y-86385404D01*
X5911904Y-86461595D01*
X5950000Y-86575880D01*
X5988095Y-86613976D01*
X6635714Y-87413976D02*
X6673809Y-87375880D01*
X6711904Y-87261595D01*
X6711904Y-87185404D01*
X6673809Y-87071119D01*
X6597619Y-86994928D01*
X6521428Y-86956833D01*
X6369047Y-86918738D01*
X6254761Y-86918738D01*
X6102380Y-86956833D01*
X6026190Y-86994928D01*
X5950000Y-87071119D01*
X5911904Y-87185404D01*
X5911904Y-87261595D01*
X5950000Y-87375880D01*
X5988095Y-87413976D01*
X11372857Y-86410833D02*
X11372857Y-86144166D01*
X11791904Y-86144166D02*
X10991904Y-86144166D01*
X10991904Y-86525119D01*
X10991904Y-87210833D02*
X10991904Y-86829880D01*
X11372857Y-86791785D01*
X11334761Y-86829880D01*
X11296666Y-86906071D01*
X11296666Y-87096547D01*
X11334761Y-87172738D01*
X11372857Y-87210833D01*
X11449047Y-87248928D01*
X11639523Y-87248928D01*
X11715714Y-87210833D01*
X11753809Y-87172738D01*
X11791904Y-87096547D01*
X11791904Y-86906071D01*
X11753809Y-86829880D01*
X11715714Y-86791785D01*
X13912857Y-86410833D02*
X13912857Y-86144166D01*
X14331904Y-86144166D02*
X13531904Y-86144166D01*
X13531904Y-86525119D01*
X13531904Y-87172738D02*
X13531904Y-87020357D01*
X13570000Y-86944166D01*
X13608095Y-86906071D01*
X13722380Y-86829880D01*
X13874761Y-86791785D01*
X14179523Y-86791785D01*
X14255714Y-86829880D01*
X14293809Y-86867976D01*
X14331904Y-86944166D01*
X14331904Y-87096547D01*
X14293809Y-87172738D01*
X14255714Y-87210833D01*
X14179523Y-87248928D01*
X13989047Y-87248928D01*
X13912857Y-87210833D01*
X13874761Y-87172738D01*
X13836666Y-87096547D01*
X13836666Y-86944166D01*
X13874761Y-86867976D01*
X13912857Y-86829880D01*
X13989047Y-86791785D01*
X16452857Y-86410833D02*
X16452857Y-86144166D01*
X16871904Y-86144166D02*
X16071904Y-86144166D01*
X16071904Y-86525119D01*
X16071904Y-86753690D02*
X16071904Y-87287023D01*
X16871904Y-86944166D01*
X870000Y-85813976D02*
X831904Y-85737785D01*
X831904Y-85623500D01*
X870000Y-85509214D01*
X946190Y-85433023D01*
X1022380Y-85394928D01*
X1174761Y-85356833D01*
X1289047Y-85356833D01*
X1441428Y-85394928D01*
X1517619Y-85433023D01*
X1593809Y-85509214D01*
X1631904Y-85623500D01*
X1631904Y-85699690D01*
X1593809Y-85813976D01*
X1555714Y-85852071D01*
X1289047Y-85852071D01*
X1289047Y-85699690D01*
X1631904Y-86194928D02*
X831904Y-86194928D01*
X1631904Y-86652071D01*
X831904Y-86652071D01*
X1631904Y-87033023D02*
X831904Y-87033023D01*
X831904Y-87223500D01*
X870000Y-87337785D01*
X946190Y-87413976D01*
X1022380Y-87452071D01*
X1174761Y-87490166D01*
X1289047Y-87490166D01*
X1441428Y-87452071D01*
X1517619Y-87413976D01*
X1593809Y-87337785D01*
X1631904Y-87223500D01*
X1631904Y-87033023D01*
X5950000Y-106641976D02*
X5911904Y-106565785D01*
X5911904Y-106451500D01*
X5950000Y-106337214D01*
X6026190Y-106261023D01*
X6102380Y-106222928D01*
X6254761Y-106184833D01*
X6369047Y-106184833D01*
X6521428Y-106222928D01*
X6597619Y-106261023D01*
X6673809Y-106337214D01*
X6711904Y-106451500D01*
X6711904Y-106527690D01*
X6673809Y-106641976D01*
X6635714Y-106680071D01*
X6369047Y-106680071D01*
X6369047Y-106527690D01*
X6711904Y-107022928D02*
X5911904Y-107022928D01*
X6711904Y-107480071D01*
X5911904Y-107480071D01*
X6711904Y-107861023D02*
X5911904Y-107861023D01*
X5911904Y-108051500D01*
X5950000Y-108165785D01*
X6026190Y-108241976D01*
X6102380Y-108280071D01*
X6254761Y-108318166D01*
X6369047Y-108318166D01*
X6521428Y-108280071D01*
X6597619Y-108241976D01*
X6673809Y-108165785D01*
X6711904Y-108051500D01*
X6711904Y-107861023D01*
X21532857Y-86353690D02*
X21570952Y-86467976D01*
X21609047Y-86506071D01*
X21685238Y-86544166D01*
X21799523Y-86544166D01*
X21875714Y-86506071D01*
X21913809Y-86467976D01*
X21951904Y-86391785D01*
X21951904Y-86087023D01*
X21151904Y-86087023D01*
X21151904Y-86353690D01*
X21190000Y-86429880D01*
X21228095Y-86467976D01*
X21304285Y-86506071D01*
X21380476Y-86506071D01*
X21456666Y-86467976D01*
X21494761Y-86429880D01*
X21532857Y-86353690D01*
X21532857Y-86087023D01*
X21151904Y-86810833D02*
X21151904Y-87306071D01*
X21456666Y-87039404D01*
X21456666Y-87153690D01*
X21494761Y-87229880D01*
X21532857Y-87267976D01*
X21609047Y-87306071D01*
X21799523Y-87306071D01*
X21875714Y-87267976D01*
X21913809Y-87229880D01*
X21951904Y-87153690D01*
X21951904Y-86925119D01*
X21913809Y-86848928D01*
X21875714Y-86810833D01*
X24072857Y-106673690D02*
X24110952Y-106787976D01*
X24149047Y-106826071D01*
X24225238Y-106864166D01*
X24339523Y-106864166D01*
X24415714Y-106826071D01*
X24453809Y-106787976D01*
X24491904Y-106711785D01*
X24491904Y-106407023D01*
X23691904Y-106407023D01*
X23691904Y-106673690D01*
X23730000Y-106749880D01*
X23768095Y-106787976D01*
X23844285Y-106826071D01*
X23920476Y-106826071D01*
X23996666Y-106787976D01*
X24034761Y-106749880D01*
X24072857Y-106673690D01*
X24072857Y-106407023D01*
X23958571Y-107549880D02*
X24491904Y-107549880D01*
X23653809Y-107359404D02*
X24225238Y-107168928D01*
X24225238Y-107664166D01*
X-1708095Y-106077023D02*
X-1708095Y-106534166D01*
X-908095Y-106305595D02*
X-1708095Y-106305595D01*
X-1708095Y-106724642D02*
X-908095Y-107257976D01*
X-1708095Y-107257976D02*
X-908095Y-106724642D01*
X-1708095Y-107715119D02*
X-1708095Y-107791309D01*
X-1670000Y-107867500D01*
X-1631904Y-107905595D01*
X-1555714Y-107943690D01*
X-1403333Y-107981785D01*
X-1212857Y-107981785D01*
X-1060476Y-107943690D01*
X-984285Y-107905595D01*
X-946190Y-107867500D01*
X-908095Y-107791309D01*
X-908095Y-107715119D01*
X-946190Y-107638928D01*
X-984285Y-107600833D01*
X-1060476Y-107562738D01*
X-1212857Y-107524642D01*
X-1403333Y-107524642D01*
X-1555714Y-107562738D01*
X-1631904Y-107600833D01*
X-1670000Y-107638928D01*
X-1708095Y-107715119D01*
X-1746190Y-108896071D02*
X-717619Y-108210357D01*
X-908095Y-109162738D02*
X-1708095Y-109162738D01*
X-1708095Y-109353214D01*
X-1670000Y-109467500D01*
X-1593809Y-109543690D01*
X-1517619Y-109581785D01*
X-1365238Y-109619880D01*
X-1250952Y-109619880D01*
X-1098571Y-109581785D01*
X-1022380Y-109543690D01*
X-946190Y-109467500D01*
X-908095Y-109353214D01*
X-908095Y-109162738D01*
X-1708095Y-109886547D02*
X-1708095Y-110381785D01*
X-1403333Y-110115119D01*
X-1403333Y-110229404D01*
X-1365238Y-110305595D01*
X-1327142Y-110343690D01*
X-1250952Y-110381785D01*
X-1060476Y-110381785D01*
X-984285Y-110343690D01*
X-946190Y-110305595D01*
X-908095Y-110229404D01*
X-908095Y-110000833D01*
X-946190Y-109924642D01*
X-984285Y-109886547D01*
X5911904Y-85356833D02*
X6711904Y-85623500D01*
X5911904Y-85890166D01*
X6635714Y-86613976D02*
X6673809Y-86575880D01*
X6711904Y-86461595D01*
X6711904Y-86385404D01*
X6673809Y-86271119D01*
X6597619Y-86194928D01*
X6521428Y-86156833D01*
X6369047Y-86118738D01*
X6254761Y-86118738D01*
X6102380Y-86156833D01*
X6026190Y-86194928D01*
X5950000Y-86271119D01*
X5911904Y-86385404D01*
X5911904Y-86461595D01*
X5950000Y-86575880D01*
X5988095Y-86613976D01*
X6635714Y-87413976D02*
X6673809Y-87375880D01*
X6711904Y-87261595D01*
X6711904Y-87185404D01*
X6673809Y-87071119D01*
X6597619Y-86994928D01*
X6521428Y-86956833D01*
X6369047Y-86918738D01*
X6254761Y-86918738D01*
X6102380Y-86956833D01*
X6026190Y-86994928D01*
X5950000Y-87071119D01*
X5911904Y-87185404D01*
X5911904Y-87261595D01*
X5950000Y-87375880D01*
X5988095Y-87413976D01*
X26612857Y-106673690D02*
X26650952Y-106787976D01*
X26689047Y-106826071D01*
X26765238Y-106864166D01*
X26879523Y-106864166D01*
X26955714Y-106826071D01*
X26993809Y-106787976D01*
X27031904Y-106711785D01*
X27031904Y-106407023D01*
X26231904Y-106407023D01*
X26231904Y-106673690D01*
X26270000Y-106749880D01*
X26308095Y-106787976D01*
X26384285Y-106826071D01*
X26460476Y-106826071D01*
X26536666Y-106787976D01*
X26574761Y-106749880D01*
X26612857Y-106673690D01*
X26612857Y-106407023D01*
X26231904Y-107587976D02*
X26231904Y-107207023D01*
X26612857Y-107168928D01*
X26574761Y-107207023D01*
X26536666Y-107283214D01*
X26536666Y-107473690D01*
X26574761Y-107549880D01*
X26612857Y-107587976D01*
X26689047Y-107626071D01*
X26879523Y-107626071D01*
X26955714Y-107587976D01*
X26993809Y-107549880D01*
X27031904Y-107473690D01*
X27031904Y-107283214D01*
X26993809Y-107207023D01*
X26955714Y-107168928D01*
X18992857Y-86353690D02*
X19030952Y-86467976D01*
X19069047Y-86506071D01*
X19145238Y-86544166D01*
X19259523Y-86544166D01*
X19335714Y-86506071D01*
X19373809Y-86467976D01*
X19411904Y-86391785D01*
X19411904Y-86087023D01*
X18611904Y-86087023D01*
X18611904Y-86353690D01*
X18650000Y-86429880D01*
X18688095Y-86467976D01*
X18764285Y-86506071D01*
X18840476Y-86506071D01*
X18916666Y-86467976D01*
X18954761Y-86429880D01*
X18992857Y-86353690D01*
X18992857Y-86087023D01*
X19411904Y-87306071D02*
X19411904Y-86848928D01*
X19411904Y-87077500D02*
X18611904Y-87077500D01*
X18726190Y-87001309D01*
X18802380Y-86925119D01*
X18840476Y-86848928D01*
X8832857Y-86410833D02*
X8832857Y-86144166D01*
X9251904Y-86144166D02*
X8451904Y-86144166D01*
X8451904Y-86525119D01*
X8718571Y-87172738D02*
X9251904Y-87172738D01*
X8413809Y-86982261D02*
X8985238Y-86791785D01*
X8985238Y-87287023D01*
X24072857Y-106673690D02*
X24110952Y-106787976D01*
X24149047Y-106826071D01*
X24225238Y-106864166D01*
X24339523Y-106864166D01*
X24415714Y-106826071D01*
X24453809Y-106787976D01*
X24491904Y-106711785D01*
X24491904Y-106407023D01*
X23691904Y-106407023D01*
X23691904Y-106673690D01*
X23730000Y-106749880D01*
X23768095Y-106787976D01*
X23844285Y-106826071D01*
X23920476Y-106826071D01*
X23996666Y-106787976D01*
X24034761Y-106749880D01*
X24072857Y-106673690D01*
X24072857Y-106407023D01*
X23958571Y-107549880D02*
X24491904Y-107549880D01*
X23653809Y-107359404D02*
X24225238Y-107168928D01*
X24225238Y-107664166D01*
X26612857Y-106673690D02*
X26650952Y-106787976D01*
X26689047Y-106826071D01*
X26765238Y-106864166D01*
X26879523Y-106864166D01*
X26955714Y-106826071D01*
X26993809Y-106787976D01*
X27031904Y-106711785D01*
X27031904Y-106407023D01*
X26231904Y-106407023D01*
X26231904Y-106673690D01*
X26270000Y-106749880D01*
X26308095Y-106787976D01*
X26384285Y-106826071D01*
X26460476Y-106826071D01*
X26536666Y-106787976D01*
X26574761Y-106749880D01*
X26612857Y-106673690D01*
X26612857Y-106407023D01*
X26231904Y-107587976D02*
X26231904Y-107207023D01*
X26612857Y-107168928D01*
X26574761Y-107207023D01*
X26536666Y-107283214D01*
X26536666Y-107473690D01*
X26574761Y-107549880D01*
X26612857Y-107587976D01*
X26689047Y-107626071D01*
X26879523Y-107626071D01*
X26955714Y-107587976D01*
X26993809Y-107549880D01*
X27031904Y-107473690D01*
X27031904Y-107283214D01*
X26993809Y-107207023D01*
X26955714Y-107168928D01*
X9251904Y-106407023D02*
X8451904Y-106407023D01*
X8451904Y-106597500D01*
X8490000Y-106711785D01*
X8566190Y-106787976D01*
X8642380Y-106826071D01*
X8794761Y-106864166D01*
X8909047Y-106864166D01*
X9061428Y-106826071D01*
X9137619Y-106787976D01*
X9213809Y-106711785D01*
X9251904Y-106597500D01*
X9251904Y-106407023D01*
X9251904Y-107626071D02*
X9251904Y-107168928D01*
X9251904Y-107397500D02*
X8451904Y-107397500D01*
X8566190Y-107321309D01*
X8642380Y-107245119D01*
X8680476Y-107168928D01*
X-1708095Y-106077023D02*
X-1708095Y-106534166D01*
X-908095Y-106305595D02*
X-1708095Y-106305595D01*
X-1708095Y-106724642D02*
X-908095Y-107257976D01*
X-1708095Y-107257976D02*
X-908095Y-106724642D01*
X-1708095Y-107715119D02*
X-1708095Y-107791309D01*
X-1670000Y-107867500D01*
X-1631904Y-107905595D01*
X-1555714Y-107943690D01*
X-1403333Y-107981785D01*
X-1212857Y-107981785D01*
X-1060476Y-107943690D01*
X-984285Y-107905595D01*
X-946190Y-107867500D01*
X-908095Y-107791309D01*
X-908095Y-107715119D01*
X-946190Y-107638928D01*
X-984285Y-107600833D01*
X-1060476Y-107562738D01*
X-1212857Y-107524642D01*
X-1403333Y-107524642D01*
X-1555714Y-107562738D01*
X-1631904Y-107600833D01*
X-1670000Y-107638928D01*
X-1708095Y-107715119D01*
X-1746190Y-108896071D02*
X-717619Y-108210357D01*
X-908095Y-109162738D02*
X-1708095Y-109162738D01*
X-1708095Y-109353214D01*
X-1670000Y-109467500D01*
X-1593809Y-109543690D01*
X-1517619Y-109581785D01*
X-1365238Y-109619880D01*
X-1250952Y-109619880D01*
X-1098571Y-109581785D01*
X-1022380Y-109543690D01*
X-946190Y-109467500D01*
X-908095Y-109353214D01*
X-908095Y-109162738D01*
X-1708095Y-109886547D02*
X-1708095Y-110381785D01*
X-1403333Y-110115119D01*
X-1403333Y-110229404D01*
X-1365238Y-110305595D01*
X-1327142Y-110343690D01*
X-1250952Y-110381785D01*
X-1060476Y-110381785D01*
X-984285Y-110343690D01*
X-946190Y-110305595D01*
X-908095Y-110229404D01*
X-908095Y-110000833D01*
X-946190Y-109924642D01*
X-984285Y-109886547D01*
X-908095Y-85871119D02*
X-1289047Y-85604452D01*
X-908095Y-85413976D02*
X-1708095Y-85413976D01*
X-1708095Y-85718738D01*
X-1670000Y-85794928D01*
X-1631904Y-85833023D01*
X-1555714Y-85871119D01*
X-1441428Y-85871119D01*
X-1365238Y-85833023D01*
X-1327142Y-85794928D01*
X-1289047Y-85718738D01*
X-1289047Y-85413976D01*
X-1136666Y-86175880D02*
X-1136666Y-86556833D01*
X-908095Y-86099690D02*
X-1708095Y-86366357D01*
X-908095Y-86633023D01*
X-1708095Y-86823500D02*
X-908095Y-87013976D01*
X-1479523Y-87166357D01*
X-908095Y-87318738D01*
X-1708095Y-87509214D01*
X24072857Y-86353690D02*
X24110952Y-86467976D01*
X24149047Y-86506071D01*
X24225238Y-86544166D01*
X24339523Y-86544166D01*
X24415714Y-86506071D01*
X24453809Y-86467976D01*
X24491904Y-86391785D01*
X24491904Y-86087023D01*
X23691904Y-86087023D01*
X23691904Y-86353690D01*
X23730000Y-86429880D01*
X23768095Y-86467976D01*
X23844285Y-86506071D01*
X23920476Y-86506071D01*
X23996666Y-86467976D01*
X24034761Y-86429880D01*
X24072857Y-86353690D01*
X24072857Y-86087023D01*
X23768095Y-86848928D02*
X23730000Y-86887023D01*
X23691904Y-86963214D01*
X23691904Y-87153690D01*
X23730000Y-87229880D01*
X23768095Y-87267976D01*
X23844285Y-87306071D01*
X23920476Y-87306071D01*
X24034761Y-87267976D01*
X24491904Y-86810833D01*
X24491904Y-87306071D01*
X11791904Y-106407023D02*
X10991904Y-106407023D01*
X10991904Y-106597500D01*
X11030000Y-106711785D01*
X11106190Y-106787976D01*
X11182380Y-106826071D01*
X11334761Y-106864166D01*
X11449047Y-106864166D01*
X11601428Y-106826071D01*
X11677619Y-106787976D01*
X11753809Y-106711785D01*
X11791904Y-106597500D01*
X11791904Y-106407023D01*
X10991904Y-107359404D02*
X10991904Y-107435595D01*
X11030000Y-107511785D01*
X11068095Y-107549880D01*
X11144285Y-107587976D01*
X11296666Y-107626071D01*
X11487142Y-107626071D01*
X11639523Y-107587976D01*
X11715714Y-107549880D01*
X11753809Y-107511785D01*
X11791904Y-107435595D01*
X11791904Y-107359404D01*
X11753809Y-107283214D01*
X11715714Y-107245119D01*
X11639523Y-107207023D01*
X11487142Y-107168928D01*
X11296666Y-107168928D01*
X11144285Y-107207023D01*
X11068095Y-107245119D01*
X11030000Y-107283214D01*
X10991904Y-107359404D01*
X14331904Y-106407023D02*
X13531904Y-106407023D01*
X13531904Y-106597500D01*
X13570000Y-106711785D01*
X13646190Y-106787976D01*
X13722380Y-106826071D01*
X13874761Y-106864166D01*
X13989047Y-106864166D01*
X14141428Y-106826071D01*
X14217619Y-106787976D01*
X14293809Y-106711785D01*
X14331904Y-106597500D01*
X14331904Y-106407023D01*
X13798571Y-107549880D02*
X14331904Y-107549880D01*
X13493809Y-107359404D02*
X14065238Y-107168928D01*
X14065238Y-107664166D01*
X8832857Y-86410833D02*
X8832857Y-86144166D01*
X9251904Y-86144166D02*
X8451904Y-86144166D01*
X8451904Y-86525119D01*
X8718571Y-87172738D02*
X9251904Y-87172738D01*
X8413809Y-86982261D02*
X8985238Y-86791785D01*
X8985238Y-87287023D01*
X19411904Y-106407023D02*
X18611904Y-106407023D01*
X18611904Y-106597500D01*
X18650000Y-106711785D01*
X18726190Y-106787976D01*
X18802380Y-106826071D01*
X18954761Y-106864166D01*
X19069047Y-106864166D01*
X19221428Y-106826071D01*
X19297619Y-106787976D01*
X19373809Y-106711785D01*
X19411904Y-106597500D01*
X19411904Y-106407023D01*
X18611904Y-107130833D02*
X18611904Y-107664166D01*
X19411904Y-107321309D01*
X21532857Y-86353690D02*
X21570952Y-86467976D01*
X21609047Y-86506071D01*
X21685238Y-86544166D01*
X21799523Y-86544166D01*
X21875714Y-86506071D01*
X21913809Y-86467976D01*
X21951904Y-86391785D01*
X21951904Y-86087023D01*
X21151904Y-86087023D01*
X21151904Y-86353690D01*
X21190000Y-86429880D01*
X21228095Y-86467976D01*
X21304285Y-86506071D01*
X21380476Y-86506071D01*
X21456666Y-86467976D01*
X21494761Y-86429880D01*
X21532857Y-86353690D01*
X21532857Y-86087023D01*
X21151904Y-86810833D02*
X21151904Y-87306071D01*
X21456666Y-87039404D01*
X21456666Y-87153690D01*
X21494761Y-87229880D01*
X21532857Y-87267976D01*
X21609047Y-87306071D01*
X21799523Y-87306071D01*
X21875714Y-87267976D01*
X21913809Y-87229880D01*
X21951904Y-87153690D01*
X21951904Y-86925119D01*
X21913809Y-86848928D01*
X21875714Y-86810833D01*
X4103809Y-86271166D02*
X4141904Y-86385452D01*
X4141904Y-86575928D01*
X4103809Y-86652119D01*
X4065714Y-86690214D01*
X3989523Y-86728309D01*
X3913333Y-86728309D01*
X3837142Y-86690214D01*
X3799047Y-86652119D01*
X3760952Y-86575928D01*
X3722857Y-86423547D01*
X3684761Y-86347357D01*
X3646666Y-86309261D01*
X3570476Y-86271166D01*
X3494285Y-86271166D01*
X3418095Y-86309261D01*
X3380000Y-86347357D01*
X3341904Y-86423547D01*
X3341904Y-86614023D01*
X3380000Y-86728309D01*
X3341904Y-86956880D02*
X3341904Y-87414023D01*
X4141904Y-87185452D02*
X3341904Y-87185452D01*
X1631904Y-106407023D02*
X831904Y-106407023D01*
X831904Y-106597500D01*
X870000Y-106711785D01*
X946190Y-106787976D01*
X1022380Y-106826071D01*
X1174761Y-106864166D01*
X1289047Y-106864166D01*
X1441428Y-106826071D01*
X1517619Y-106787976D01*
X1593809Y-106711785D01*
X1631904Y-106597500D01*
X1631904Y-106407023D01*
X908095Y-107168928D02*
X870000Y-107207023D01*
X831904Y-107283214D01*
X831904Y-107473690D01*
X870000Y-107549880D01*
X908095Y-107587976D01*
X984285Y-107626071D01*
X1060476Y-107626071D01*
X1174761Y-107587976D01*
X1631904Y-107130833D01*
X1631904Y-107626071D01*
X128246130Y-59428154D02*
X127246130Y-59428154D01*
X127246130Y-59666250D01*
X127293750Y-59809107D01*
X127388988Y-59904345D01*
X127484226Y-59951964D01*
X127674702Y-59999583D01*
X127817559Y-59999583D01*
X128008035Y-59951964D01*
X128103273Y-59904345D01*
X128198511Y-59809107D01*
X128246130Y-59666250D01*
X128246130Y-59428154D01*
X127246130Y-60332916D02*
X127246130Y-60999583D01*
X128246130Y-60571011D01*
X147296130Y-59428154D02*
X146296130Y-59428154D01*
X146296130Y-59666250D01*
X146343750Y-59809107D01*
X146438988Y-59904345D01*
X146534226Y-59951964D01*
X146724702Y-59999583D01*
X146867559Y-59999583D01*
X147058035Y-59951964D01*
X147153273Y-59904345D01*
X147248511Y-59809107D01*
X147296130Y-59666250D01*
X147296130Y-59428154D01*
X146724702Y-60571011D02*
X146677083Y-60475773D01*
X146629464Y-60428154D01*
X146534226Y-60380535D01*
X146486607Y-60380535D01*
X146391369Y-60428154D01*
X146343750Y-60475773D01*
X146296130Y-60571011D01*
X146296130Y-60761488D01*
X146343750Y-60856726D01*
X146391369Y-60904345D01*
X146486607Y-60951964D01*
X146534226Y-60951964D01*
X146629464Y-60904345D01*
X146677083Y-60856726D01*
X146724702Y-60761488D01*
X146724702Y-60571011D01*
X146772321Y-60475773D01*
X146819940Y-60428154D01*
X146915178Y-60380535D01*
X147105654Y-60380535D01*
X147200892Y-60428154D01*
X147248511Y-60475773D01*
X147296130Y-60571011D01*
X147296130Y-60761488D01*
X147248511Y-60856726D01*
X147200892Y-60904345D01*
X147105654Y-60951964D01*
X146915178Y-60951964D01*
X146819940Y-60904345D01*
X146772321Y-60856726D01*
X146724702Y-60761488D01*
X166346130Y-59428154D02*
X165346130Y-59428154D01*
X165346130Y-59666250D01*
X165393750Y-59809107D01*
X165488988Y-59904345D01*
X165584226Y-59951964D01*
X165774702Y-59999583D01*
X165917559Y-59999583D01*
X166108035Y-59951964D01*
X166203273Y-59904345D01*
X166298511Y-59809107D01*
X166346130Y-59666250D01*
X166346130Y-59428154D01*
X166346130Y-60475773D02*
X166346130Y-60666250D01*
X166298511Y-60761488D01*
X166250892Y-60809107D01*
X166108035Y-60904345D01*
X165917559Y-60951964D01*
X165536607Y-60951964D01*
X165441369Y-60904345D01*
X165393750Y-60856726D01*
X165346130Y-60761488D01*
X165346130Y-60571011D01*
X165393750Y-60475773D01*
X165441369Y-60428154D01*
X165536607Y-60380535D01*
X165774702Y-60380535D01*
X165869940Y-60428154D01*
X165917559Y-60475773D01*
X165965178Y-60571011D01*
X165965178Y-60761488D01*
X165917559Y-60856726D01*
X165869940Y-60904345D01*
X165774702Y-60951964D01*
X185396130Y-58951964D02*
X184396130Y-58951964D01*
X184396130Y-59190059D01*
X184443750Y-59332916D01*
X184538988Y-59428154D01*
X184634226Y-59475773D01*
X184824702Y-59523392D01*
X184967559Y-59523392D01*
X185158035Y-59475773D01*
X185253273Y-59428154D01*
X185348511Y-59332916D01*
X185396130Y-59190059D01*
X185396130Y-58951964D01*
X185396130Y-60475773D02*
X185396130Y-59904345D01*
X185396130Y-60190059D02*
X184396130Y-60190059D01*
X184538988Y-60094821D01*
X184634226Y-59999583D01*
X184681845Y-59904345D01*
X184396130Y-61094821D02*
X184396130Y-61190059D01*
X184443750Y-61285297D01*
X184491369Y-61332916D01*
X184586607Y-61380535D01*
X184777083Y-61428154D01*
X185015178Y-61428154D01*
X185205654Y-61380535D01*
X185300892Y-61332916D01*
X185348511Y-61285297D01*
X185396130Y-61190059D01*
X185396130Y-61094821D01*
X185348511Y-60999583D01*
X185300892Y-60951964D01*
X185205654Y-60904345D01*
X185015178Y-60856726D01*
X184777083Y-60856726D01*
X184586607Y-60904345D01*
X184491369Y-60951964D01*
X184443750Y-60999583D01*
X184396130Y-61094821D01*
X204446130Y-58951964D02*
X203446130Y-58951964D01*
X203446130Y-59190059D01*
X203493750Y-59332916D01*
X203588988Y-59428154D01*
X203684226Y-59475773D01*
X203874702Y-59523392D01*
X204017559Y-59523392D01*
X204208035Y-59475773D01*
X204303273Y-59428154D01*
X204398511Y-59332916D01*
X204446130Y-59190059D01*
X204446130Y-58951964D01*
X204446130Y-60475773D02*
X204446130Y-59904345D01*
X204446130Y-60190059D02*
X203446130Y-60190059D01*
X203588988Y-60094821D01*
X203684226Y-59999583D01*
X203731845Y-59904345D01*
X204446130Y-61428154D02*
X204446130Y-60856726D01*
X204446130Y-61142440D02*
X203446130Y-61142440D01*
X203588988Y-61047202D01*
X203684226Y-60951964D01*
X203731845Y-60856726D01*
X223496130Y-58951964D02*
X222496130Y-58951964D01*
X222496130Y-59190059D01*
X222543750Y-59332916D01*
X222638988Y-59428154D01*
X222734226Y-59475773D01*
X222924702Y-59523392D01*
X223067559Y-59523392D01*
X223258035Y-59475773D01*
X223353273Y-59428154D01*
X223448511Y-59332916D01*
X223496130Y-59190059D01*
X223496130Y-58951964D01*
X223496130Y-60475773D02*
X223496130Y-59904345D01*
X223496130Y-60190059D02*
X222496130Y-60190059D01*
X222638988Y-60094821D01*
X222734226Y-59999583D01*
X222781845Y-59904345D01*
X222591369Y-60856726D02*
X222543750Y-60904345D01*
X222496130Y-60999583D01*
X222496130Y-61237678D01*
X222543750Y-61332916D01*
X222591369Y-61380535D01*
X222686607Y-61428154D01*
X222781845Y-61428154D01*
X222924702Y-61380535D01*
X223496130Y-60809107D01*
X223496130Y-61428154D01*
X242546130Y-58951964D02*
X241546130Y-58951964D01*
X241546130Y-59190059D01*
X241593750Y-59332916D01*
X241688988Y-59428154D01*
X241784226Y-59475773D01*
X241974702Y-59523392D01*
X242117559Y-59523392D01*
X242308035Y-59475773D01*
X242403273Y-59428154D01*
X242498511Y-59332916D01*
X242546130Y-59190059D01*
X242546130Y-58951964D01*
X242546130Y-60475773D02*
X242546130Y-59904345D01*
X242546130Y-60190059D02*
X241546130Y-60190059D01*
X241688988Y-60094821D01*
X241784226Y-59999583D01*
X241831845Y-59904345D01*
X241546130Y-60809107D02*
X241546130Y-61428154D01*
X241927083Y-61094821D01*
X241927083Y-61237678D01*
X241974702Y-61332916D01*
X242022321Y-61380535D01*
X242117559Y-61428154D01*
X242355654Y-61428154D01*
X242450892Y-61380535D01*
X242498511Y-61332916D01*
X242546130Y-61237678D01*
X242546130Y-60951964D01*
X242498511Y-60856726D01*
X242450892Y-60809107D01*
X271121130Y-58951964D02*
X270121130Y-58951964D01*
X270121130Y-59190059D01*
X270168750Y-59332916D01*
X270263988Y-59428154D01*
X270359226Y-59475773D01*
X270549702Y-59523392D01*
X270692559Y-59523392D01*
X270883035Y-59475773D01*
X270978273Y-59428154D01*
X271073511Y-59332916D01*
X271121130Y-59190059D01*
X271121130Y-58951964D01*
X271121130Y-60475773D02*
X271121130Y-59904345D01*
X271121130Y-60190059D02*
X270121130Y-60190059D01*
X270263988Y-60094821D01*
X270359226Y-59999583D01*
X270406845Y-59904345D01*
X270454464Y-61332916D02*
X271121130Y-61332916D01*
X270073511Y-61094821D02*
X270787797Y-60856726D01*
X270787797Y-61475773D01*
X42521130Y-78001964D02*
X41521130Y-78001964D01*
X41521130Y-78240059D01*
X41568750Y-78382916D01*
X41663988Y-78478154D01*
X41759226Y-78525773D01*
X41949702Y-78573392D01*
X42092559Y-78573392D01*
X42283035Y-78525773D01*
X42378273Y-78478154D01*
X42473511Y-78382916D01*
X42521130Y-78240059D01*
X42521130Y-78001964D01*
X42521130Y-79525773D02*
X42521130Y-78954345D01*
X42521130Y-79240059D02*
X41521130Y-79240059D01*
X41663988Y-79144821D01*
X41759226Y-79049583D01*
X41806845Y-78954345D01*
X41521130Y-80382916D02*
X41521130Y-80192440D01*
X41568750Y-80097202D01*
X41616369Y-80049583D01*
X41759226Y-79954345D01*
X41949702Y-79906726D01*
X42330654Y-79906726D01*
X42425892Y-79954345D01*
X42473511Y-80001964D01*
X42521130Y-80097202D01*
X42521130Y-80287678D01*
X42473511Y-80382916D01*
X42425892Y-80430535D01*
X42330654Y-80478154D01*
X42092559Y-80478154D01*
X41997321Y-80430535D01*
X41949702Y-80382916D01*
X41902083Y-80287678D01*
X41902083Y-80097202D01*
X41949702Y-80001964D01*
X41997321Y-79954345D01*
X42092559Y-79906726D01*
X61571130Y-78001964D02*
X60571130Y-78001964D01*
X60571130Y-78240059D01*
X60618750Y-78382916D01*
X60713988Y-78478154D01*
X60809226Y-78525773D01*
X60999702Y-78573392D01*
X61142559Y-78573392D01*
X61333035Y-78525773D01*
X61428273Y-78478154D01*
X61523511Y-78382916D01*
X61571130Y-78240059D01*
X61571130Y-78001964D01*
X61571130Y-79525773D02*
X61571130Y-78954345D01*
X61571130Y-79240059D02*
X60571130Y-79240059D01*
X60713988Y-79144821D01*
X60809226Y-79049583D01*
X60856845Y-78954345D01*
X60571130Y-79859107D02*
X60571130Y-80525773D01*
X61571130Y-80097202D01*
X80621130Y-78001964D02*
X79621130Y-78001964D01*
X79621130Y-78240059D01*
X79668750Y-78382916D01*
X79763988Y-78478154D01*
X79859226Y-78525773D01*
X80049702Y-78573392D01*
X80192559Y-78573392D01*
X80383035Y-78525773D01*
X80478273Y-78478154D01*
X80573511Y-78382916D01*
X80621130Y-78240059D01*
X80621130Y-78001964D01*
X80621130Y-79525773D02*
X80621130Y-78954345D01*
X80621130Y-79240059D02*
X79621130Y-79240059D01*
X79763988Y-79144821D01*
X79859226Y-79049583D01*
X79906845Y-78954345D01*
X80049702Y-80097202D02*
X80002083Y-80001964D01*
X79954464Y-79954345D01*
X79859226Y-79906726D01*
X79811607Y-79906726D01*
X79716369Y-79954345D01*
X79668750Y-80001964D01*
X79621130Y-80097202D01*
X79621130Y-80287678D01*
X79668750Y-80382916D01*
X79716369Y-80430535D01*
X79811607Y-80478154D01*
X79859226Y-80478154D01*
X79954464Y-80430535D01*
X80002083Y-80382916D01*
X80049702Y-80287678D01*
X80049702Y-80097202D01*
X80097321Y-80001964D01*
X80144940Y-79954345D01*
X80240178Y-79906726D01*
X80430654Y-79906726D01*
X80525892Y-79954345D01*
X80573511Y-80001964D01*
X80621130Y-80097202D01*
X80621130Y-80287678D01*
X80573511Y-80382916D01*
X80525892Y-80430535D01*
X80430654Y-80478154D01*
X80240178Y-80478154D01*
X80144940Y-80430535D01*
X80097321Y-80382916D01*
X80049702Y-80287678D01*
X99671130Y-78001964D02*
X98671130Y-78001964D01*
X98671130Y-78240059D01*
X98718750Y-78382916D01*
X98813988Y-78478154D01*
X98909226Y-78525773D01*
X99099702Y-78573392D01*
X99242559Y-78573392D01*
X99433035Y-78525773D01*
X99528273Y-78478154D01*
X99623511Y-78382916D01*
X99671130Y-78240059D01*
X99671130Y-78001964D01*
X99671130Y-79525773D02*
X99671130Y-78954345D01*
X99671130Y-79240059D02*
X98671130Y-79240059D01*
X98813988Y-79144821D01*
X98909226Y-79049583D01*
X98956845Y-78954345D01*
X99671130Y-80001964D02*
X99671130Y-80192440D01*
X99623511Y-80287678D01*
X99575892Y-80335297D01*
X99433035Y-80430535D01*
X99242559Y-80478154D01*
X98861607Y-80478154D01*
X98766369Y-80430535D01*
X98718750Y-80382916D01*
X98671130Y-80287678D01*
X98671130Y-80097202D01*
X98718750Y-80001964D01*
X98766369Y-79954345D01*
X98861607Y-79906726D01*
X99099702Y-79906726D01*
X99194940Y-79954345D01*
X99242559Y-80001964D01*
X99290178Y-80097202D01*
X99290178Y-80287678D01*
X99242559Y-80382916D01*
X99194940Y-80430535D01*
X99099702Y-80478154D01*
X118721130Y-78001964D02*
X117721130Y-78001964D01*
X117721130Y-78240059D01*
X117768750Y-78382916D01*
X117863988Y-78478154D01*
X117959226Y-78525773D01*
X118149702Y-78573392D01*
X118292559Y-78573392D01*
X118483035Y-78525773D01*
X118578273Y-78478154D01*
X118673511Y-78382916D01*
X118721130Y-78240059D01*
X118721130Y-78001964D01*
X117816369Y-78954345D02*
X117768750Y-79001964D01*
X117721130Y-79097202D01*
X117721130Y-79335297D01*
X117768750Y-79430535D01*
X117816369Y-79478154D01*
X117911607Y-79525773D01*
X118006845Y-79525773D01*
X118149702Y-79478154D01*
X118721130Y-78906726D01*
X118721130Y-79525773D01*
X117721130Y-80144821D02*
X117721130Y-80240059D01*
X117768750Y-80335297D01*
X117816369Y-80382916D01*
X117911607Y-80430535D01*
X118102083Y-80478154D01*
X118340178Y-80478154D01*
X118530654Y-80430535D01*
X118625892Y-80382916D01*
X118673511Y-80335297D01*
X118721130Y-80240059D01*
X118721130Y-80144821D01*
X118673511Y-80049583D01*
X118625892Y-80001964D01*
X118530654Y-79954345D01*
X118340178Y-79906726D01*
X118102083Y-79906726D01*
X117911607Y-79954345D01*
X117816369Y-80001964D01*
X117768750Y-80049583D01*
X117721130Y-80144821D01*
X137771130Y-78001964D02*
X136771130Y-78001964D01*
X136771130Y-78240059D01*
X136818750Y-78382916D01*
X136913988Y-78478154D01*
X137009226Y-78525773D01*
X137199702Y-78573392D01*
X137342559Y-78573392D01*
X137533035Y-78525773D01*
X137628273Y-78478154D01*
X137723511Y-78382916D01*
X137771130Y-78240059D01*
X137771130Y-78001964D01*
X136866369Y-78954345D02*
X136818750Y-79001964D01*
X136771130Y-79097202D01*
X136771130Y-79335297D01*
X136818750Y-79430535D01*
X136866369Y-79478154D01*
X136961607Y-79525773D01*
X137056845Y-79525773D01*
X137199702Y-79478154D01*
X137771130Y-78906726D01*
X137771130Y-79525773D01*
X137771130Y-80478154D02*
X137771130Y-79906726D01*
X137771130Y-80192440D02*
X136771130Y-80192440D01*
X136913988Y-80097202D01*
X137009226Y-80001964D01*
X137056845Y-79906726D01*
X156821130Y-78001964D02*
X155821130Y-78001964D01*
X155821130Y-78240059D01*
X155868750Y-78382916D01*
X155963988Y-78478154D01*
X156059226Y-78525773D01*
X156249702Y-78573392D01*
X156392559Y-78573392D01*
X156583035Y-78525773D01*
X156678273Y-78478154D01*
X156773511Y-78382916D01*
X156821130Y-78240059D01*
X156821130Y-78001964D01*
X155916369Y-78954345D02*
X155868750Y-79001964D01*
X155821130Y-79097202D01*
X155821130Y-79335297D01*
X155868750Y-79430535D01*
X155916369Y-79478154D01*
X156011607Y-79525773D01*
X156106845Y-79525773D01*
X156249702Y-79478154D01*
X156821130Y-78906726D01*
X156821130Y-79525773D01*
X155916369Y-79906726D02*
X155868750Y-79954345D01*
X155821130Y-80049583D01*
X155821130Y-80287678D01*
X155868750Y-80382916D01*
X155916369Y-80430535D01*
X156011607Y-80478154D01*
X156106845Y-80478154D01*
X156249702Y-80430535D01*
X156821130Y-79859107D01*
X156821130Y-80478154D01*
X175871130Y-78001964D02*
X174871130Y-78001964D01*
X174871130Y-78240059D01*
X174918750Y-78382916D01*
X175013988Y-78478154D01*
X175109226Y-78525773D01*
X175299702Y-78573392D01*
X175442559Y-78573392D01*
X175633035Y-78525773D01*
X175728273Y-78478154D01*
X175823511Y-78382916D01*
X175871130Y-78240059D01*
X175871130Y-78001964D01*
X174966369Y-78954345D02*
X174918750Y-79001964D01*
X174871130Y-79097202D01*
X174871130Y-79335297D01*
X174918750Y-79430535D01*
X174966369Y-79478154D01*
X175061607Y-79525773D01*
X175156845Y-79525773D01*
X175299702Y-79478154D01*
X175871130Y-78906726D01*
X175871130Y-79525773D01*
X174871130Y-79859107D02*
X174871130Y-80478154D01*
X175252083Y-80144821D01*
X175252083Y-80287678D01*
X175299702Y-80382916D01*
X175347321Y-80430535D01*
X175442559Y-80478154D01*
X175680654Y-80478154D01*
X175775892Y-80430535D01*
X175823511Y-80382916D01*
X175871130Y-80287678D01*
X175871130Y-80001964D01*
X175823511Y-79906726D01*
X175775892Y-79859107D01*
X194921130Y-78001964D02*
X193921130Y-78001964D01*
X193921130Y-78240059D01*
X193968750Y-78382916D01*
X194063988Y-78478154D01*
X194159226Y-78525773D01*
X194349702Y-78573392D01*
X194492559Y-78573392D01*
X194683035Y-78525773D01*
X194778273Y-78478154D01*
X194873511Y-78382916D01*
X194921130Y-78240059D01*
X194921130Y-78001964D01*
X194016369Y-78954345D02*
X193968750Y-79001964D01*
X193921130Y-79097202D01*
X193921130Y-79335297D01*
X193968750Y-79430535D01*
X194016369Y-79478154D01*
X194111607Y-79525773D01*
X194206845Y-79525773D01*
X194349702Y-79478154D01*
X194921130Y-78906726D01*
X194921130Y-79525773D01*
X194254464Y-80382916D02*
X194921130Y-80382916D01*
X193873511Y-80144821D02*
X194587797Y-79906726D01*
X194587797Y-80525773D01*
X213971130Y-78001964D02*
X212971130Y-78001964D01*
X212971130Y-78240059D01*
X213018750Y-78382916D01*
X213113988Y-78478154D01*
X213209226Y-78525773D01*
X213399702Y-78573392D01*
X213542559Y-78573392D01*
X213733035Y-78525773D01*
X213828273Y-78478154D01*
X213923511Y-78382916D01*
X213971130Y-78240059D01*
X213971130Y-78001964D01*
X213066369Y-78954345D02*
X213018750Y-79001964D01*
X212971130Y-79097202D01*
X212971130Y-79335297D01*
X213018750Y-79430535D01*
X213066369Y-79478154D01*
X213161607Y-79525773D01*
X213256845Y-79525773D01*
X213399702Y-79478154D01*
X213971130Y-78906726D01*
X213971130Y-79525773D01*
X212971130Y-80430535D02*
X212971130Y-79954345D01*
X213447321Y-79906726D01*
X213399702Y-79954345D01*
X213352083Y-80049583D01*
X213352083Y-80287678D01*
X213399702Y-80382916D01*
X213447321Y-80430535D01*
X213542559Y-80478154D01*
X213780654Y-80478154D01*
X213875892Y-80430535D01*
X213923511Y-80382916D01*
X213971130Y-80287678D01*
X213971130Y-80049583D01*
X213923511Y-79954345D01*
X213875892Y-79906726D01*
X233021130Y-78001964D02*
X232021130Y-78001964D01*
X232021130Y-78240059D01*
X232068750Y-78382916D01*
X232163988Y-78478154D01*
X232259226Y-78525773D01*
X232449702Y-78573392D01*
X232592559Y-78573392D01*
X232783035Y-78525773D01*
X232878273Y-78478154D01*
X232973511Y-78382916D01*
X233021130Y-78240059D01*
X233021130Y-78001964D01*
X232116369Y-78954345D02*
X232068750Y-79001964D01*
X232021130Y-79097202D01*
X232021130Y-79335297D01*
X232068750Y-79430535D01*
X232116369Y-79478154D01*
X232211607Y-79525773D01*
X232306845Y-79525773D01*
X232449702Y-79478154D01*
X233021130Y-78906726D01*
X233021130Y-79525773D01*
X232021130Y-80382916D02*
X232021130Y-80192440D01*
X232068750Y-80097202D01*
X232116369Y-80049583D01*
X232259226Y-79954345D01*
X232449702Y-79906726D01*
X232830654Y-79906726D01*
X232925892Y-79954345D01*
X232973511Y-80001964D01*
X233021130Y-80097202D01*
X233021130Y-80287678D01*
X232973511Y-80382916D01*
X232925892Y-80430535D01*
X232830654Y-80478154D01*
X232592559Y-80478154D01*
X232497321Y-80430535D01*
X232449702Y-80382916D01*
X232402083Y-80287678D01*
X232402083Y-80097202D01*
X232449702Y-80001964D01*
X232497321Y-79954345D01*
X232592559Y-79906726D01*
X252071130Y-78001964D02*
X251071130Y-78001964D01*
X251071130Y-78240059D01*
X251118750Y-78382916D01*
X251213988Y-78478154D01*
X251309226Y-78525773D01*
X251499702Y-78573392D01*
X251642559Y-78573392D01*
X251833035Y-78525773D01*
X251928273Y-78478154D01*
X252023511Y-78382916D01*
X252071130Y-78240059D01*
X252071130Y-78001964D01*
X251166369Y-78954345D02*
X251118750Y-79001964D01*
X251071130Y-79097202D01*
X251071130Y-79335297D01*
X251118750Y-79430535D01*
X251166369Y-79478154D01*
X251261607Y-79525773D01*
X251356845Y-79525773D01*
X251499702Y-79478154D01*
X252071130Y-78906726D01*
X252071130Y-79525773D01*
X251071130Y-79859107D02*
X251071130Y-80525773D01*
X252071130Y-80097202D01*
X47283630Y-97051964D02*
X46283630Y-97051964D01*
X46283630Y-97290059D01*
X46331250Y-97432916D01*
X46426488Y-97528154D01*
X46521726Y-97575773D01*
X46712202Y-97623392D01*
X46855059Y-97623392D01*
X47045535Y-97575773D01*
X47140773Y-97528154D01*
X47236011Y-97432916D01*
X47283630Y-97290059D01*
X47283630Y-97051964D01*
X46283630Y-97956726D02*
X46283630Y-98575773D01*
X46664583Y-98242440D01*
X46664583Y-98385297D01*
X46712202Y-98480535D01*
X46759821Y-98528154D01*
X46855059Y-98575773D01*
X47093154Y-98575773D01*
X47188392Y-98528154D01*
X47236011Y-98480535D01*
X47283630Y-98385297D01*
X47283630Y-98099583D01*
X47236011Y-98004345D01*
X47188392Y-97956726D01*
X47283630Y-99528154D02*
X47283630Y-98956726D01*
X47283630Y-99242440D02*
X46283630Y-99242440D01*
X46426488Y-99147202D01*
X46521726Y-99051964D01*
X46569345Y-98956726D01*
X66333630Y-97051964D02*
X65333630Y-97051964D01*
X65333630Y-97290059D01*
X65381250Y-97432916D01*
X65476488Y-97528154D01*
X65571726Y-97575773D01*
X65762202Y-97623392D01*
X65905059Y-97623392D01*
X66095535Y-97575773D01*
X66190773Y-97528154D01*
X66286011Y-97432916D01*
X66333630Y-97290059D01*
X66333630Y-97051964D01*
X65333630Y-97956726D02*
X65333630Y-98575773D01*
X65714583Y-98242440D01*
X65714583Y-98385297D01*
X65762202Y-98480535D01*
X65809821Y-98528154D01*
X65905059Y-98575773D01*
X66143154Y-98575773D01*
X66238392Y-98528154D01*
X66286011Y-98480535D01*
X66333630Y-98385297D01*
X66333630Y-98099583D01*
X66286011Y-98004345D01*
X66238392Y-97956726D01*
X65428869Y-98956726D02*
X65381250Y-99004345D01*
X65333630Y-99099583D01*
X65333630Y-99337678D01*
X65381250Y-99432916D01*
X65428869Y-99480535D01*
X65524107Y-99528154D01*
X65619345Y-99528154D01*
X65762202Y-99480535D01*
X66333630Y-98909107D01*
X66333630Y-99528154D01*
X85383630Y-97051964D02*
X84383630Y-97051964D01*
X84383630Y-97290059D01*
X84431250Y-97432916D01*
X84526488Y-97528154D01*
X84621726Y-97575773D01*
X84812202Y-97623392D01*
X84955059Y-97623392D01*
X85145535Y-97575773D01*
X85240773Y-97528154D01*
X85336011Y-97432916D01*
X85383630Y-97290059D01*
X85383630Y-97051964D01*
X84383630Y-97956726D02*
X84383630Y-98575773D01*
X84764583Y-98242440D01*
X84764583Y-98385297D01*
X84812202Y-98480535D01*
X84859821Y-98528154D01*
X84955059Y-98575773D01*
X85193154Y-98575773D01*
X85288392Y-98528154D01*
X85336011Y-98480535D01*
X85383630Y-98385297D01*
X85383630Y-98099583D01*
X85336011Y-98004345D01*
X85288392Y-97956726D01*
X84383630Y-98909107D02*
X84383630Y-99528154D01*
X84764583Y-99194821D01*
X84764583Y-99337678D01*
X84812202Y-99432916D01*
X84859821Y-99480535D01*
X84955059Y-99528154D01*
X85193154Y-99528154D01*
X85288392Y-99480535D01*
X85336011Y-99432916D01*
X85383630Y-99337678D01*
X85383630Y-99051964D01*
X85336011Y-98956726D01*
X85288392Y-98909107D01*
X104433630Y-97051964D02*
X103433630Y-97051964D01*
X103433630Y-97290059D01*
X103481250Y-97432916D01*
X103576488Y-97528154D01*
X103671726Y-97575773D01*
X103862202Y-97623392D01*
X104005059Y-97623392D01*
X104195535Y-97575773D01*
X104290773Y-97528154D01*
X104386011Y-97432916D01*
X104433630Y-97290059D01*
X104433630Y-97051964D01*
X103433630Y-97956726D02*
X103433630Y-98575773D01*
X103814583Y-98242440D01*
X103814583Y-98385297D01*
X103862202Y-98480535D01*
X103909821Y-98528154D01*
X104005059Y-98575773D01*
X104243154Y-98575773D01*
X104338392Y-98528154D01*
X104386011Y-98480535D01*
X104433630Y-98385297D01*
X104433630Y-98099583D01*
X104386011Y-98004345D01*
X104338392Y-97956726D01*
X103766964Y-99432916D02*
X104433630Y-99432916D01*
X103386011Y-99194821D02*
X104100297Y-98956726D01*
X104100297Y-99575773D01*
X142533630Y-97051964D02*
X141533630Y-97051964D01*
X141533630Y-97290059D01*
X141581250Y-97432916D01*
X141676488Y-97528154D01*
X141771726Y-97575773D01*
X141962202Y-97623392D01*
X142105059Y-97623392D01*
X142295535Y-97575773D01*
X142390773Y-97528154D01*
X142486011Y-97432916D01*
X142533630Y-97290059D01*
X142533630Y-97051964D01*
X141533630Y-97956726D02*
X141533630Y-98575773D01*
X141914583Y-98242440D01*
X141914583Y-98385297D01*
X141962202Y-98480535D01*
X142009821Y-98528154D01*
X142105059Y-98575773D01*
X142343154Y-98575773D01*
X142438392Y-98528154D01*
X142486011Y-98480535D01*
X142533630Y-98385297D01*
X142533630Y-98099583D01*
X142486011Y-98004345D01*
X142438392Y-97956726D01*
X141533630Y-99432916D02*
X141533630Y-99242440D01*
X141581250Y-99147202D01*
X141628869Y-99099583D01*
X141771726Y-99004345D01*
X141962202Y-98956726D01*
X142343154Y-98956726D01*
X142438392Y-99004345D01*
X142486011Y-99051964D01*
X142533630Y-99147202D01*
X142533630Y-99337678D01*
X142486011Y-99432916D01*
X142438392Y-99480535D01*
X142343154Y-99528154D01*
X142105059Y-99528154D01*
X142009821Y-99480535D01*
X141962202Y-99432916D01*
X141914583Y-99337678D01*
X141914583Y-99147202D01*
X141962202Y-99051964D01*
X142009821Y-99004345D01*
X142105059Y-98956726D01*
X161583630Y-97051964D02*
X160583630Y-97051964D01*
X160583630Y-97290059D01*
X160631250Y-97432916D01*
X160726488Y-97528154D01*
X160821726Y-97575773D01*
X161012202Y-97623392D01*
X161155059Y-97623392D01*
X161345535Y-97575773D01*
X161440773Y-97528154D01*
X161536011Y-97432916D01*
X161583630Y-97290059D01*
X161583630Y-97051964D01*
X160583630Y-97956726D02*
X160583630Y-98575773D01*
X160964583Y-98242440D01*
X160964583Y-98385297D01*
X161012202Y-98480535D01*
X161059821Y-98528154D01*
X161155059Y-98575773D01*
X161393154Y-98575773D01*
X161488392Y-98528154D01*
X161536011Y-98480535D01*
X161583630Y-98385297D01*
X161583630Y-98099583D01*
X161536011Y-98004345D01*
X161488392Y-97956726D01*
X160583630Y-98909107D02*
X160583630Y-99575773D01*
X161583630Y-99147202D01*
X180633630Y-97051964D02*
X179633630Y-97051964D01*
X179633630Y-97290059D01*
X179681250Y-97432916D01*
X179776488Y-97528154D01*
X179871726Y-97575773D01*
X180062202Y-97623392D01*
X180205059Y-97623392D01*
X180395535Y-97575773D01*
X180490773Y-97528154D01*
X180586011Y-97432916D01*
X180633630Y-97290059D01*
X180633630Y-97051964D01*
X179633630Y-97956726D02*
X179633630Y-98575773D01*
X180014583Y-98242440D01*
X180014583Y-98385297D01*
X180062202Y-98480535D01*
X180109821Y-98528154D01*
X180205059Y-98575773D01*
X180443154Y-98575773D01*
X180538392Y-98528154D01*
X180586011Y-98480535D01*
X180633630Y-98385297D01*
X180633630Y-98099583D01*
X180586011Y-98004345D01*
X180538392Y-97956726D01*
X180062202Y-99147202D02*
X180014583Y-99051964D01*
X179966964Y-99004345D01*
X179871726Y-98956726D01*
X179824107Y-98956726D01*
X179728869Y-99004345D01*
X179681250Y-99051964D01*
X179633630Y-99147202D01*
X179633630Y-99337678D01*
X179681250Y-99432916D01*
X179728869Y-99480535D01*
X179824107Y-99528154D01*
X179871726Y-99528154D01*
X179966964Y-99480535D01*
X180014583Y-99432916D01*
X180062202Y-99337678D01*
X180062202Y-99147202D01*
X180109821Y-99051964D01*
X180157440Y-99004345D01*
X180252678Y-98956726D01*
X180443154Y-98956726D01*
X180538392Y-99004345D01*
X180586011Y-99051964D01*
X180633630Y-99147202D01*
X180633630Y-99337678D01*
X180586011Y-99432916D01*
X180538392Y-99480535D01*
X180443154Y-99528154D01*
X180252678Y-99528154D01*
X180157440Y-99480535D01*
X180109821Y-99432916D01*
X180062202Y-99337678D01*
X199683630Y-97051964D02*
X198683630Y-97051964D01*
X198683630Y-97290059D01*
X198731250Y-97432916D01*
X198826488Y-97528154D01*
X198921726Y-97575773D01*
X199112202Y-97623392D01*
X199255059Y-97623392D01*
X199445535Y-97575773D01*
X199540773Y-97528154D01*
X199636011Y-97432916D01*
X199683630Y-97290059D01*
X199683630Y-97051964D01*
X198683630Y-97956726D02*
X198683630Y-98575773D01*
X199064583Y-98242440D01*
X199064583Y-98385297D01*
X199112202Y-98480535D01*
X199159821Y-98528154D01*
X199255059Y-98575773D01*
X199493154Y-98575773D01*
X199588392Y-98528154D01*
X199636011Y-98480535D01*
X199683630Y-98385297D01*
X199683630Y-98099583D01*
X199636011Y-98004345D01*
X199588392Y-97956726D01*
X199683630Y-99051964D02*
X199683630Y-99242440D01*
X199636011Y-99337678D01*
X199588392Y-99385297D01*
X199445535Y-99480535D01*
X199255059Y-99528154D01*
X198874107Y-99528154D01*
X198778869Y-99480535D01*
X198731250Y-99432916D01*
X198683630Y-99337678D01*
X198683630Y-99147202D01*
X198731250Y-99051964D01*
X198778869Y-99004345D01*
X198874107Y-98956726D01*
X199112202Y-98956726D01*
X199207440Y-99004345D01*
X199255059Y-99051964D01*
X199302678Y-99147202D01*
X199302678Y-99337678D01*
X199255059Y-99432916D01*
X199207440Y-99480535D01*
X199112202Y-99528154D01*
X218733630Y-97051964D02*
X217733630Y-97051964D01*
X217733630Y-97290059D01*
X217781250Y-97432916D01*
X217876488Y-97528154D01*
X217971726Y-97575773D01*
X218162202Y-97623392D01*
X218305059Y-97623392D01*
X218495535Y-97575773D01*
X218590773Y-97528154D01*
X218686011Y-97432916D01*
X218733630Y-97290059D01*
X218733630Y-97051964D01*
X218066964Y-98480535D02*
X218733630Y-98480535D01*
X217686011Y-98242440D02*
X218400297Y-98004345D01*
X218400297Y-98623392D01*
X217733630Y-99194821D02*
X217733630Y-99290059D01*
X217781250Y-99385297D01*
X217828869Y-99432916D01*
X217924107Y-99480535D01*
X218114583Y-99528154D01*
X218352678Y-99528154D01*
X218543154Y-99480535D01*
X218638392Y-99432916D01*
X218686011Y-99385297D01*
X218733630Y-99290059D01*
X218733630Y-99194821D01*
X218686011Y-99099583D01*
X218638392Y-99051964D01*
X218543154Y-99004345D01*
X218352678Y-98956726D01*
X218114583Y-98956726D01*
X217924107Y-99004345D01*
X217828869Y-99051964D01*
X217781250Y-99099583D01*
X217733630Y-99194821D01*
X268739880Y-97051964D02*
X267739880Y-97051964D01*
X267739880Y-97290059D01*
X267787500Y-97432916D01*
X267882738Y-97528154D01*
X267977976Y-97575773D01*
X268168452Y-97623392D01*
X268311309Y-97623392D01*
X268501785Y-97575773D01*
X268597023Y-97528154D01*
X268692261Y-97432916D01*
X268739880Y-97290059D01*
X268739880Y-97051964D01*
X268073214Y-98480535D02*
X268739880Y-98480535D01*
X267692261Y-98242440D02*
X268406547Y-98004345D01*
X268406547Y-98623392D01*
X267835119Y-98956726D02*
X267787500Y-99004345D01*
X267739880Y-99099583D01*
X267739880Y-99337678D01*
X267787500Y-99432916D01*
X267835119Y-99480535D01*
X267930357Y-99528154D01*
X268025595Y-99528154D01*
X268168452Y-99480535D01*
X268739880Y-98909107D01*
X268739880Y-99528154D01*
X292679285Y-67127380D02*
X292679285Y-66127380D01*
X292441190Y-66127380D01*
X292298333Y-66175000D01*
X292203095Y-66270238D01*
X292155476Y-66365476D01*
X292107857Y-66555952D01*
X292107857Y-66698809D01*
X292155476Y-66889285D01*
X292203095Y-66984523D01*
X292298333Y-67079761D01*
X292441190Y-67127380D01*
X292679285Y-67127380D01*
X291250714Y-66460714D02*
X291250714Y-67127380D01*
X291488809Y-66079761D02*
X291726904Y-66794047D01*
X291107857Y-66794047D01*
X290822142Y-66127380D02*
X290203095Y-66127380D01*
X290536428Y-66508333D01*
X290393571Y-66508333D01*
X290298333Y-66555952D01*
X290250714Y-66603571D01*
X290203095Y-66698809D01*
X290203095Y-66936904D01*
X290250714Y-67032142D01*
X290298333Y-67079761D01*
X290393571Y-67127380D01*
X290679285Y-67127380D01*
X290774523Y-67079761D01*
X290822142Y-67032142D01*
X25852380Y-116101964D02*
X24852380Y-116101964D01*
X24852380Y-116340059D01*
X24900000Y-116482916D01*
X24995238Y-116578154D01*
X25090476Y-116625773D01*
X25280952Y-116673392D01*
X25423809Y-116673392D01*
X25614285Y-116625773D01*
X25709523Y-116578154D01*
X25804761Y-116482916D01*
X25852380Y-116340059D01*
X25852380Y-116101964D01*
X25185714Y-117530535D02*
X25852380Y-117530535D01*
X24804761Y-117292440D02*
X25519047Y-117054345D01*
X25519047Y-117673392D01*
X25185714Y-118482916D02*
X25852380Y-118482916D01*
X24804761Y-118244821D02*
X25519047Y-118006726D01*
X25519047Y-118625773D01*
X56808630Y-116101964D02*
X55808630Y-116101964D01*
X55808630Y-116340059D01*
X55856250Y-116482916D01*
X55951488Y-116578154D01*
X56046726Y-116625773D01*
X56237202Y-116673392D01*
X56380059Y-116673392D01*
X56570535Y-116625773D01*
X56665773Y-116578154D01*
X56761011Y-116482916D01*
X56808630Y-116340059D01*
X56808630Y-116101964D01*
X56141964Y-117530535D02*
X56808630Y-117530535D01*
X55761011Y-117292440D02*
X56475297Y-117054345D01*
X56475297Y-117673392D01*
X55808630Y-118530535D02*
X55808630Y-118054345D01*
X56284821Y-118006726D01*
X56237202Y-118054345D01*
X56189583Y-118149583D01*
X56189583Y-118387678D01*
X56237202Y-118482916D01*
X56284821Y-118530535D01*
X56380059Y-118578154D01*
X56618154Y-118578154D01*
X56713392Y-118530535D01*
X56761011Y-118482916D01*
X56808630Y-118387678D01*
X56808630Y-118149583D01*
X56761011Y-118054345D01*
X56713392Y-118006726D01*
X75858630Y-116101964D02*
X74858630Y-116101964D01*
X74858630Y-116340059D01*
X74906250Y-116482916D01*
X75001488Y-116578154D01*
X75096726Y-116625773D01*
X75287202Y-116673392D01*
X75430059Y-116673392D01*
X75620535Y-116625773D01*
X75715773Y-116578154D01*
X75811011Y-116482916D01*
X75858630Y-116340059D01*
X75858630Y-116101964D01*
X75191964Y-117530535D02*
X75858630Y-117530535D01*
X74811011Y-117292440D02*
X75525297Y-117054345D01*
X75525297Y-117673392D01*
X74858630Y-118482916D02*
X74858630Y-118292440D01*
X74906250Y-118197202D01*
X74953869Y-118149583D01*
X75096726Y-118054345D01*
X75287202Y-118006726D01*
X75668154Y-118006726D01*
X75763392Y-118054345D01*
X75811011Y-118101964D01*
X75858630Y-118197202D01*
X75858630Y-118387678D01*
X75811011Y-118482916D01*
X75763392Y-118530535D01*
X75668154Y-118578154D01*
X75430059Y-118578154D01*
X75334821Y-118530535D01*
X75287202Y-118482916D01*
X75239583Y-118387678D01*
X75239583Y-118197202D01*
X75287202Y-118101964D01*
X75334821Y-118054345D01*
X75430059Y-118006726D01*
X94908630Y-116101964D02*
X93908630Y-116101964D01*
X93908630Y-116340059D01*
X93956250Y-116482916D01*
X94051488Y-116578154D01*
X94146726Y-116625773D01*
X94337202Y-116673392D01*
X94480059Y-116673392D01*
X94670535Y-116625773D01*
X94765773Y-116578154D01*
X94861011Y-116482916D01*
X94908630Y-116340059D01*
X94908630Y-116101964D01*
X94241964Y-117530535D02*
X94908630Y-117530535D01*
X93861011Y-117292440D02*
X94575297Y-117054345D01*
X94575297Y-117673392D01*
X93908630Y-117959107D02*
X93908630Y-118625773D01*
X94908630Y-118197202D01*
X113958630Y-116101964D02*
X112958630Y-116101964D01*
X112958630Y-116340059D01*
X113006250Y-116482916D01*
X113101488Y-116578154D01*
X113196726Y-116625773D01*
X113387202Y-116673392D01*
X113530059Y-116673392D01*
X113720535Y-116625773D01*
X113815773Y-116578154D01*
X113911011Y-116482916D01*
X113958630Y-116340059D01*
X113958630Y-116101964D01*
X113291964Y-117530535D02*
X113958630Y-117530535D01*
X112911011Y-117292440D02*
X113625297Y-117054345D01*
X113625297Y-117673392D01*
X113387202Y-118197202D02*
X113339583Y-118101964D01*
X113291964Y-118054345D01*
X113196726Y-118006726D01*
X113149107Y-118006726D01*
X113053869Y-118054345D01*
X113006250Y-118101964D01*
X112958630Y-118197202D01*
X112958630Y-118387678D01*
X113006250Y-118482916D01*
X113053869Y-118530535D01*
X113149107Y-118578154D01*
X113196726Y-118578154D01*
X113291964Y-118530535D01*
X113339583Y-118482916D01*
X113387202Y-118387678D01*
X113387202Y-118197202D01*
X113434821Y-118101964D01*
X113482440Y-118054345D01*
X113577678Y-118006726D01*
X113768154Y-118006726D01*
X113863392Y-118054345D01*
X113911011Y-118101964D01*
X113958630Y-118197202D01*
X113958630Y-118387678D01*
X113911011Y-118482916D01*
X113863392Y-118530535D01*
X113768154Y-118578154D01*
X113577678Y-118578154D01*
X113482440Y-118530535D01*
X113434821Y-118482916D01*
X113387202Y-118387678D01*
X133008630Y-116101964D02*
X132008630Y-116101964D01*
X132008630Y-116340059D01*
X132056250Y-116482916D01*
X132151488Y-116578154D01*
X132246726Y-116625773D01*
X132437202Y-116673392D01*
X132580059Y-116673392D01*
X132770535Y-116625773D01*
X132865773Y-116578154D01*
X132961011Y-116482916D01*
X133008630Y-116340059D01*
X133008630Y-116101964D01*
X132341964Y-117530535D02*
X133008630Y-117530535D01*
X131961011Y-117292440D02*
X132675297Y-117054345D01*
X132675297Y-117673392D01*
X133008630Y-118101964D02*
X133008630Y-118292440D01*
X132961011Y-118387678D01*
X132913392Y-118435297D01*
X132770535Y-118530535D01*
X132580059Y-118578154D01*
X132199107Y-118578154D01*
X132103869Y-118530535D01*
X132056250Y-118482916D01*
X132008630Y-118387678D01*
X132008630Y-118197202D01*
X132056250Y-118101964D01*
X132103869Y-118054345D01*
X132199107Y-118006726D01*
X132437202Y-118006726D01*
X132532440Y-118054345D01*
X132580059Y-118101964D01*
X132627678Y-118197202D01*
X132627678Y-118387678D01*
X132580059Y-118482916D01*
X132532440Y-118530535D01*
X132437202Y-118578154D01*
X152058630Y-116101964D02*
X151058630Y-116101964D01*
X151058630Y-116340059D01*
X151106250Y-116482916D01*
X151201488Y-116578154D01*
X151296726Y-116625773D01*
X151487202Y-116673392D01*
X151630059Y-116673392D01*
X151820535Y-116625773D01*
X151915773Y-116578154D01*
X152011011Y-116482916D01*
X152058630Y-116340059D01*
X152058630Y-116101964D01*
X151058630Y-117578154D02*
X151058630Y-117101964D01*
X151534821Y-117054345D01*
X151487202Y-117101964D01*
X151439583Y-117197202D01*
X151439583Y-117435297D01*
X151487202Y-117530535D01*
X151534821Y-117578154D01*
X151630059Y-117625773D01*
X151868154Y-117625773D01*
X151963392Y-117578154D01*
X152011011Y-117530535D01*
X152058630Y-117435297D01*
X152058630Y-117197202D01*
X152011011Y-117101964D01*
X151963392Y-117054345D01*
X151058630Y-118244821D02*
X151058630Y-118340059D01*
X151106250Y-118435297D01*
X151153869Y-118482916D01*
X151249107Y-118530535D01*
X151439583Y-118578154D01*
X151677678Y-118578154D01*
X151868154Y-118530535D01*
X151963392Y-118482916D01*
X152011011Y-118435297D01*
X152058630Y-118340059D01*
X152058630Y-118244821D01*
X152011011Y-118149583D01*
X151963392Y-118101964D01*
X151868154Y-118054345D01*
X151677678Y-118006726D01*
X151439583Y-118006726D01*
X151249107Y-118054345D01*
X151153869Y-118101964D01*
X151106250Y-118149583D01*
X151058630Y-118244821D01*
X171108630Y-116101964D02*
X170108630Y-116101964D01*
X170108630Y-116340059D01*
X170156250Y-116482916D01*
X170251488Y-116578154D01*
X170346726Y-116625773D01*
X170537202Y-116673392D01*
X170680059Y-116673392D01*
X170870535Y-116625773D01*
X170965773Y-116578154D01*
X171061011Y-116482916D01*
X171108630Y-116340059D01*
X171108630Y-116101964D01*
X170108630Y-117578154D02*
X170108630Y-117101964D01*
X170584821Y-117054345D01*
X170537202Y-117101964D01*
X170489583Y-117197202D01*
X170489583Y-117435297D01*
X170537202Y-117530535D01*
X170584821Y-117578154D01*
X170680059Y-117625773D01*
X170918154Y-117625773D01*
X171013392Y-117578154D01*
X171061011Y-117530535D01*
X171108630Y-117435297D01*
X171108630Y-117197202D01*
X171061011Y-117101964D01*
X171013392Y-117054345D01*
X171108630Y-118578154D02*
X171108630Y-118006726D01*
X171108630Y-118292440D02*
X170108630Y-118292440D01*
X170251488Y-118197202D01*
X170346726Y-118101964D01*
X170394345Y-118006726D01*
X190158630Y-116101964D02*
X189158630Y-116101964D01*
X189158630Y-116340059D01*
X189206250Y-116482916D01*
X189301488Y-116578154D01*
X189396726Y-116625773D01*
X189587202Y-116673392D01*
X189730059Y-116673392D01*
X189920535Y-116625773D01*
X190015773Y-116578154D01*
X190111011Y-116482916D01*
X190158630Y-116340059D01*
X190158630Y-116101964D01*
X189158630Y-117578154D02*
X189158630Y-117101964D01*
X189634821Y-117054345D01*
X189587202Y-117101964D01*
X189539583Y-117197202D01*
X189539583Y-117435297D01*
X189587202Y-117530535D01*
X189634821Y-117578154D01*
X189730059Y-117625773D01*
X189968154Y-117625773D01*
X190063392Y-117578154D01*
X190111011Y-117530535D01*
X190158630Y-117435297D01*
X190158630Y-117197202D01*
X190111011Y-117101964D01*
X190063392Y-117054345D01*
X189253869Y-118006726D02*
X189206250Y-118054345D01*
X189158630Y-118149583D01*
X189158630Y-118387678D01*
X189206250Y-118482916D01*
X189253869Y-118530535D01*
X189349107Y-118578154D01*
X189444345Y-118578154D01*
X189587202Y-118530535D01*
X190158630Y-117959107D01*
X190158630Y-118578154D01*
X209208630Y-116101964D02*
X208208630Y-116101964D01*
X208208630Y-116340059D01*
X208256250Y-116482916D01*
X208351488Y-116578154D01*
X208446726Y-116625773D01*
X208637202Y-116673392D01*
X208780059Y-116673392D01*
X208970535Y-116625773D01*
X209065773Y-116578154D01*
X209161011Y-116482916D01*
X209208630Y-116340059D01*
X209208630Y-116101964D01*
X208208630Y-117578154D02*
X208208630Y-117101964D01*
X208684821Y-117054345D01*
X208637202Y-117101964D01*
X208589583Y-117197202D01*
X208589583Y-117435297D01*
X208637202Y-117530535D01*
X208684821Y-117578154D01*
X208780059Y-117625773D01*
X209018154Y-117625773D01*
X209113392Y-117578154D01*
X209161011Y-117530535D01*
X209208630Y-117435297D01*
X209208630Y-117197202D01*
X209161011Y-117101964D01*
X209113392Y-117054345D01*
X208208630Y-117959107D02*
X208208630Y-118578154D01*
X208589583Y-118244821D01*
X208589583Y-118387678D01*
X208637202Y-118482916D01*
X208684821Y-118530535D01*
X208780059Y-118578154D01*
X209018154Y-118578154D01*
X209113392Y-118530535D01*
X209161011Y-118482916D01*
X209208630Y-118387678D01*
X209208630Y-118101964D01*
X209161011Y-118006726D01*
X209113392Y-117959107D01*
X254452380Y-116101964D02*
X253452380Y-116101964D01*
X253452380Y-116340059D01*
X253500000Y-116482916D01*
X253595238Y-116578154D01*
X253690476Y-116625773D01*
X253880952Y-116673392D01*
X254023809Y-116673392D01*
X254214285Y-116625773D01*
X254309523Y-116578154D01*
X254404761Y-116482916D01*
X254452380Y-116340059D01*
X254452380Y-116101964D01*
X253452380Y-117578154D02*
X253452380Y-117101964D01*
X253928571Y-117054345D01*
X253880952Y-117101964D01*
X253833333Y-117197202D01*
X253833333Y-117435297D01*
X253880952Y-117530535D01*
X253928571Y-117578154D01*
X254023809Y-117625773D01*
X254261904Y-117625773D01*
X254357142Y-117578154D01*
X254404761Y-117530535D01*
X254452380Y-117435297D01*
X254452380Y-117197202D01*
X254404761Y-117101964D01*
X254357142Y-117054345D01*
X253452380Y-118530535D02*
X253452380Y-118054345D01*
X253928571Y-118006726D01*
X253880952Y-118054345D01*
X253833333Y-118149583D01*
X253833333Y-118387678D01*
X253880952Y-118482916D01*
X253928571Y-118530535D01*
X254023809Y-118578154D01*
X254261904Y-118578154D01*
X254357142Y-118530535D01*
X254404761Y-118482916D01*
X254452380Y-118387678D01*
X254452380Y-118149583D01*
X254404761Y-118054345D01*
X254357142Y-118006726D01*
X280646130Y-116101964D02*
X279646130Y-116101964D01*
X279646130Y-116340059D01*
X279693750Y-116482916D01*
X279788988Y-116578154D01*
X279884226Y-116625773D01*
X280074702Y-116673392D01*
X280217559Y-116673392D01*
X280408035Y-116625773D01*
X280503273Y-116578154D01*
X280598511Y-116482916D01*
X280646130Y-116340059D01*
X280646130Y-116101964D01*
X279646130Y-117578154D02*
X279646130Y-117101964D01*
X280122321Y-117054345D01*
X280074702Y-117101964D01*
X280027083Y-117197202D01*
X280027083Y-117435297D01*
X280074702Y-117530535D01*
X280122321Y-117578154D01*
X280217559Y-117625773D01*
X280455654Y-117625773D01*
X280550892Y-117578154D01*
X280598511Y-117530535D01*
X280646130Y-117435297D01*
X280646130Y-117197202D01*
X280598511Y-117101964D01*
X280550892Y-117054345D01*
X279646130Y-118482916D02*
X279646130Y-118292440D01*
X279693750Y-118197202D01*
X279741369Y-118149583D01*
X279884226Y-118054345D01*
X280074702Y-118006726D01*
X280455654Y-118006726D01*
X280550892Y-118054345D01*
X280598511Y-118101964D01*
X280646130Y-118197202D01*
X280646130Y-118387678D01*
X280598511Y-118482916D01*
X280550892Y-118530535D01*
X280455654Y-118578154D01*
X280217559Y-118578154D01*
X280122321Y-118530535D01*
X280074702Y-118482916D01*
X280027083Y-118387678D01*
X280027083Y-118197202D01*
X280074702Y-118101964D01*
X280122321Y-118054345D01*
X280217559Y-118006726D01*
X292679285Y-86177380D02*
X292679285Y-85177380D01*
X292441190Y-85177380D01*
X292298333Y-85225000D01*
X292203095Y-85320238D01*
X292155476Y-85415476D01*
X292107857Y-85605952D01*
X292107857Y-85748809D01*
X292155476Y-85939285D01*
X292203095Y-86034523D01*
X292298333Y-86129761D01*
X292441190Y-86177380D01*
X292679285Y-86177380D01*
X291203095Y-85177380D02*
X291679285Y-85177380D01*
X291726904Y-85653571D01*
X291679285Y-85605952D01*
X291584047Y-85558333D01*
X291345952Y-85558333D01*
X291250714Y-85605952D01*
X291203095Y-85653571D01*
X291155476Y-85748809D01*
X291155476Y-85986904D01*
X291203095Y-86082142D01*
X291250714Y-86129761D01*
X291345952Y-86177380D01*
X291584047Y-86177380D01*
X291679285Y-86129761D01*
X291726904Y-86082142D01*
X290822142Y-85177380D02*
X290155476Y-85177380D01*
X290584047Y-86177380D01*
X16327380Y-135151964D02*
X15327380Y-135151964D01*
X15327380Y-135390059D01*
X15375000Y-135532916D01*
X15470238Y-135628154D01*
X15565476Y-135675773D01*
X15755952Y-135723392D01*
X15898809Y-135723392D01*
X16089285Y-135675773D01*
X16184523Y-135628154D01*
X16279761Y-135532916D01*
X16327380Y-135390059D01*
X16327380Y-135151964D01*
X15327380Y-136628154D02*
X15327380Y-136151964D01*
X15803571Y-136104345D01*
X15755952Y-136151964D01*
X15708333Y-136247202D01*
X15708333Y-136485297D01*
X15755952Y-136580535D01*
X15803571Y-136628154D01*
X15898809Y-136675773D01*
X16136904Y-136675773D01*
X16232142Y-136628154D01*
X16279761Y-136580535D01*
X16327380Y-136485297D01*
X16327380Y-136247202D01*
X16279761Y-136151964D01*
X16232142Y-136104345D01*
X15755952Y-137247202D02*
X15708333Y-137151964D01*
X15660714Y-137104345D01*
X15565476Y-137056726D01*
X15517857Y-137056726D01*
X15422619Y-137104345D01*
X15375000Y-137151964D01*
X15327380Y-137247202D01*
X15327380Y-137437678D01*
X15375000Y-137532916D01*
X15422619Y-137580535D01*
X15517857Y-137628154D01*
X15565476Y-137628154D01*
X15660714Y-137580535D01*
X15708333Y-137532916D01*
X15755952Y-137437678D01*
X15755952Y-137247202D01*
X15803571Y-137151964D01*
X15851190Y-137104345D01*
X15946428Y-137056726D01*
X16136904Y-137056726D01*
X16232142Y-137104345D01*
X16279761Y-137151964D01*
X16327380Y-137247202D01*
X16327380Y-137437678D01*
X16279761Y-137532916D01*
X16232142Y-137580535D01*
X16136904Y-137628154D01*
X15946428Y-137628154D01*
X15851190Y-137580535D01*
X15803571Y-137532916D01*
X15755952Y-137437678D01*
X40139880Y-135151964D02*
X39139880Y-135151964D01*
X39139880Y-135390059D01*
X39187500Y-135532916D01*
X39282738Y-135628154D01*
X39377976Y-135675773D01*
X39568452Y-135723392D01*
X39711309Y-135723392D01*
X39901785Y-135675773D01*
X39997023Y-135628154D01*
X40092261Y-135532916D01*
X40139880Y-135390059D01*
X40139880Y-135151964D01*
X39139880Y-136628154D02*
X39139880Y-136151964D01*
X39616071Y-136104345D01*
X39568452Y-136151964D01*
X39520833Y-136247202D01*
X39520833Y-136485297D01*
X39568452Y-136580535D01*
X39616071Y-136628154D01*
X39711309Y-136675773D01*
X39949404Y-136675773D01*
X40044642Y-136628154D01*
X40092261Y-136580535D01*
X40139880Y-136485297D01*
X40139880Y-136247202D01*
X40092261Y-136151964D01*
X40044642Y-136104345D01*
X40139880Y-137151964D02*
X40139880Y-137342440D01*
X40092261Y-137437678D01*
X40044642Y-137485297D01*
X39901785Y-137580535D01*
X39711309Y-137628154D01*
X39330357Y-137628154D01*
X39235119Y-137580535D01*
X39187500Y-137532916D01*
X39139880Y-137437678D01*
X39139880Y-137247202D01*
X39187500Y-137151964D01*
X39235119Y-137104345D01*
X39330357Y-137056726D01*
X39568452Y-137056726D01*
X39663690Y-137104345D01*
X39711309Y-137151964D01*
X39758928Y-137247202D01*
X39758928Y-137437678D01*
X39711309Y-137532916D01*
X39663690Y-137580535D01*
X39568452Y-137628154D01*
X63952380Y-135151964D02*
X62952380Y-135151964D01*
X62952380Y-135390059D01*
X63000000Y-135532916D01*
X63095238Y-135628154D01*
X63190476Y-135675773D01*
X63380952Y-135723392D01*
X63523809Y-135723392D01*
X63714285Y-135675773D01*
X63809523Y-135628154D01*
X63904761Y-135532916D01*
X63952380Y-135390059D01*
X63952380Y-135151964D01*
X62952380Y-136580535D02*
X62952380Y-136390059D01*
X63000000Y-136294821D01*
X63047619Y-136247202D01*
X63190476Y-136151964D01*
X63380952Y-136104345D01*
X63761904Y-136104345D01*
X63857142Y-136151964D01*
X63904761Y-136199583D01*
X63952380Y-136294821D01*
X63952380Y-136485297D01*
X63904761Y-136580535D01*
X63857142Y-136628154D01*
X63761904Y-136675773D01*
X63523809Y-136675773D01*
X63428571Y-136628154D01*
X63380952Y-136580535D01*
X63333333Y-136485297D01*
X63333333Y-136294821D01*
X63380952Y-136199583D01*
X63428571Y-136151964D01*
X63523809Y-136104345D01*
X62952380Y-137294821D02*
X62952380Y-137390059D01*
X63000000Y-137485297D01*
X63047619Y-137532916D01*
X63142857Y-137580535D01*
X63333333Y-137628154D01*
X63571428Y-137628154D01*
X63761904Y-137580535D01*
X63857142Y-137532916D01*
X63904761Y-137485297D01*
X63952380Y-137390059D01*
X63952380Y-137294821D01*
X63904761Y-137199583D01*
X63857142Y-137151964D01*
X63761904Y-137104345D01*
X63571428Y-137056726D01*
X63333333Y-137056726D01*
X63142857Y-137104345D01*
X63047619Y-137151964D01*
X63000000Y-137199583D01*
X62952380Y-137294821D01*
X135389880Y-135151964D02*
X134389880Y-135151964D01*
X134389880Y-135390059D01*
X134437500Y-135532916D01*
X134532738Y-135628154D01*
X134627976Y-135675773D01*
X134818452Y-135723392D01*
X134961309Y-135723392D01*
X135151785Y-135675773D01*
X135247023Y-135628154D01*
X135342261Y-135532916D01*
X135389880Y-135390059D01*
X135389880Y-135151964D01*
X134389880Y-136580535D02*
X134389880Y-136390059D01*
X134437500Y-136294821D01*
X134485119Y-136247202D01*
X134627976Y-136151964D01*
X134818452Y-136104345D01*
X135199404Y-136104345D01*
X135294642Y-136151964D01*
X135342261Y-136199583D01*
X135389880Y-136294821D01*
X135389880Y-136485297D01*
X135342261Y-136580535D01*
X135294642Y-136628154D01*
X135199404Y-136675773D01*
X134961309Y-136675773D01*
X134866071Y-136628154D01*
X134818452Y-136580535D01*
X134770833Y-136485297D01*
X134770833Y-136294821D01*
X134818452Y-136199583D01*
X134866071Y-136151964D01*
X134961309Y-136104345D01*
X135389880Y-137628154D02*
X135389880Y-137056726D01*
X135389880Y-137342440D02*
X134389880Y-137342440D01*
X134532738Y-137247202D01*
X134627976Y-137151964D01*
X134675595Y-137056726D01*
X206827380Y-135151964D02*
X205827380Y-135151964D01*
X205827380Y-135390059D01*
X205875000Y-135532916D01*
X205970238Y-135628154D01*
X206065476Y-135675773D01*
X206255952Y-135723392D01*
X206398809Y-135723392D01*
X206589285Y-135675773D01*
X206684523Y-135628154D01*
X206779761Y-135532916D01*
X206827380Y-135390059D01*
X206827380Y-135151964D01*
X205827380Y-136580535D02*
X205827380Y-136390059D01*
X205875000Y-136294821D01*
X205922619Y-136247202D01*
X206065476Y-136151964D01*
X206255952Y-136104345D01*
X206636904Y-136104345D01*
X206732142Y-136151964D01*
X206779761Y-136199583D01*
X206827380Y-136294821D01*
X206827380Y-136485297D01*
X206779761Y-136580535D01*
X206732142Y-136628154D01*
X206636904Y-136675773D01*
X206398809Y-136675773D01*
X206303571Y-136628154D01*
X206255952Y-136580535D01*
X206208333Y-136485297D01*
X206208333Y-136294821D01*
X206255952Y-136199583D01*
X206303571Y-136151964D01*
X206398809Y-136104345D01*
X205922619Y-137056726D02*
X205875000Y-137104345D01*
X205827380Y-137199583D01*
X205827380Y-137437678D01*
X205875000Y-137532916D01*
X205922619Y-137580535D01*
X206017857Y-137628154D01*
X206113095Y-137628154D01*
X206255952Y-137580535D01*
X206827380Y-137009107D01*
X206827380Y-137628154D01*
X230639880Y-135151964D02*
X229639880Y-135151964D01*
X229639880Y-135390059D01*
X229687500Y-135532916D01*
X229782738Y-135628154D01*
X229877976Y-135675773D01*
X230068452Y-135723392D01*
X230211309Y-135723392D01*
X230401785Y-135675773D01*
X230497023Y-135628154D01*
X230592261Y-135532916D01*
X230639880Y-135390059D01*
X230639880Y-135151964D01*
X229639880Y-136580535D02*
X229639880Y-136390059D01*
X229687500Y-136294821D01*
X229735119Y-136247202D01*
X229877976Y-136151964D01*
X230068452Y-136104345D01*
X230449404Y-136104345D01*
X230544642Y-136151964D01*
X230592261Y-136199583D01*
X230639880Y-136294821D01*
X230639880Y-136485297D01*
X230592261Y-136580535D01*
X230544642Y-136628154D01*
X230449404Y-136675773D01*
X230211309Y-136675773D01*
X230116071Y-136628154D01*
X230068452Y-136580535D01*
X230020833Y-136485297D01*
X230020833Y-136294821D01*
X230068452Y-136199583D01*
X230116071Y-136151964D01*
X230211309Y-136104345D01*
X229639880Y-137009107D02*
X229639880Y-137628154D01*
X230020833Y-137294821D01*
X230020833Y-137437678D01*
X230068452Y-137532916D01*
X230116071Y-137580535D01*
X230211309Y-137628154D01*
X230449404Y-137628154D01*
X230544642Y-137580535D01*
X230592261Y-137532916D01*
X230639880Y-137437678D01*
X230639880Y-137151964D01*
X230592261Y-137056726D01*
X230544642Y-137009107D01*
X280646130Y-135151964D02*
X279646130Y-135151964D01*
X279646130Y-135390059D01*
X279693750Y-135532916D01*
X279788988Y-135628154D01*
X279884226Y-135675773D01*
X280074702Y-135723392D01*
X280217559Y-135723392D01*
X280408035Y-135675773D01*
X280503273Y-135628154D01*
X280598511Y-135532916D01*
X280646130Y-135390059D01*
X280646130Y-135151964D01*
X279646130Y-136580535D02*
X279646130Y-136390059D01*
X279693750Y-136294821D01*
X279741369Y-136247202D01*
X279884226Y-136151964D01*
X280074702Y-136104345D01*
X280455654Y-136104345D01*
X280550892Y-136151964D01*
X280598511Y-136199583D01*
X280646130Y-136294821D01*
X280646130Y-136485297D01*
X280598511Y-136580535D01*
X280550892Y-136628154D01*
X280455654Y-136675773D01*
X280217559Y-136675773D01*
X280122321Y-136628154D01*
X280074702Y-136580535D01*
X280027083Y-136485297D01*
X280027083Y-136294821D01*
X280074702Y-136199583D01*
X280122321Y-136151964D01*
X280217559Y-136104345D01*
X279646130Y-137580535D02*
X279646130Y-137104345D01*
X280122321Y-137056726D01*
X280074702Y-137104345D01*
X280027083Y-137199583D01*
X280027083Y-137437678D01*
X280074702Y-137532916D01*
X280122321Y-137580535D01*
X280217559Y-137628154D01*
X280455654Y-137628154D01*
X280550892Y-137580535D01*
X280598511Y-137532916D01*
X280646130Y-137437678D01*
X280646130Y-137199583D01*
X280598511Y-137104345D01*
X280550892Y-137056726D01*
X292679285Y-143327380D02*
X292679285Y-142327380D01*
X292441190Y-142327380D01*
X292298333Y-142375000D01*
X292203095Y-142470238D01*
X292155476Y-142565476D01*
X292107857Y-142755952D01*
X292107857Y-142898809D01*
X292155476Y-143089285D01*
X292203095Y-143184523D01*
X292298333Y-143279761D01*
X292441190Y-143327380D01*
X292679285Y-143327380D01*
X291250714Y-142327380D02*
X291441190Y-142327380D01*
X291536428Y-142375000D01*
X291584047Y-142422619D01*
X291679285Y-142565476D01*
X291726904Y-142755952D01*
X291726904Y-143136904D01*
X291679285Y-143232142D01*
X291631666Y-143279761D01*
X291536428Y-143327380D01*
X291345952Y-143327380D01*
X291250714Y-143279761D01*
X291203095Y-143232142D01*
X291155476Y-143136904D01*
X291155476Y-142898809D01*
X291203095Y-142803571D01*
X291250714Y-142755952D01*
X291345952Y-142708333D01*
X291536428Y-142708333D01*
X291631666Y-142755952D01*
X291679285Y-142803571D01*
X291726904Y-142898809D01*
X290298333Y-142327380D02*
X290488809Y-142327380D01*
X290584047Y-142375000D01*
X290631666Y-142422619D01*
X290726904Y-142565476D01*
X290774523Y-142755952D01*
X290774523Y-143136904D01*
X290726904Y-143232142D01*
X290679285Y-143279761D01*
X290584047Y-143327380D01*
X290393571Y-143327380D01*
X290298333Y-143279761D01*
X290250714Y-143232142D01*
X290203095Y-143136904D01*
X290203095Y-142898809D01*
X290250714Y-142803571D01*
X290298333Y-142755952D01*
X290393571Y-142708333D01*
X290584047Y-142708333D01*
X290679285Y-142755952D01*
X290726904Y-142803571D01*
X290774523Y-142898809D01*
X123483630Y-97051964D02*
X122483630Y-97051964D01*
X122483630Y-97290059D01*
X122531250Y-97432916D01*
X122626488Y-97528154D01*
X122721726Y-97575773D01*
X122912202Y-97623392D01*
X123055059Y-97623392D01*
X123245535Y-97575773D01*
X123340773Y-97528154D01*
X123436011Y-97432916D01*
X123483630Y-97290059D01*
X123483630Y-97051964D01*
X122483630Y-97956726D02*
X122483630Y-98575773D01*
X122864583Y-98242440D01*
X122864583Y-98385297D01*
X122912202Y-98480535D01*
X122959821Y-98528154D01*
X123055059Y-98575773D01*
X123293154Y-98575773D01*
X123388392Y-98528154D01*
X123436011Y-98480535D01*
X123483630Y-98385297D01*
X123483630Y-98099583D01*
X123436011Y-98004345D01*
X123388392Y-97956726D01*
X122483630Y-99480535D02*
X122483630Y-99004345D01*
X122959821Y-98956726D01*
X122912202Y-99004345D01*
X122864583Y-99099583D01*
X122864583Y-99337678D01*
X122912202Y-99432916D01*
X122959821Y-99480535D01*
X123055059Y-99528154D01*
X123293154Y-99528154D01*
X123388392Y-99480535D01*
X123436011Y-99432916D01*
X123483630Y-99337678D01*
X123483630Y-99099583D01*
X123436011Y-99004345D01*
X123388392Y-98956726D01*
X237783630Y-97051964D02*
X236783630Y-97051964D01*
X236783630Y-97290059D01*
X236831250Y-97432916D01*
X236926488Y-97528154D01*
X237021726Y-97575773D01*
X237212202Y-97623392D01*
X237355059Y-97623392D01*
X237545535Y-97575773D01*
X237640773Y-97528154D01*
X237736011Y-97432916D01*
X237783630Y-97290059D01*
X237783630Y-97051964D01*
X237116964Y-98480535D02*
X237783630Y-98480535D01*
X236736011Y-98242440D02*
X237450297Y-98004345D01*
X237450297Y-98623392D01*
X237783630Y-99528154D02*
X237783630Y-98956726D01*
X237783630Y-99242440D02*
X236783630Y-99242440D01*
X236926488Y-99147202D01*
X237021726Y-99051964D01*
X237069345Y-98956726D01*
X228258630Y-116101964D02*
X227258630Y-116101964D01*
X227258630Y-116340059D01*
X227306250Y-116482916D01*
X227401488Y-116578154D01*
X227496726Y-116625773D01*
X227687202Y-116673392D01*
X227830059Y-116673392D01*
X228020535Y-116625773D01*
X228115773Y-116578154D01*
X228211011Y-116482916D01*
X228258630Y-116340059D01*
X228258630Y-116101964D01*
X227258630Y-117578154D02*
X227258630Y-117101964D01*
X227734821Y-117054345D01*
X227687202Y-117101964D01*
X227639583Y-117197202D01*
X227639583Y-117435297D01*
X227687202Y-117530535D01*
X227734821Y-117578154D01*
X227830059Y-117625773D01*
X228068154Y-117625773D01*
X228163392Y-117578154D01*
X228211011Y-117530535D01*
X228258630Y-117435297D01*
X228258630Y-117197202D01*
X228211011Y-117101964D01*
X228163392Y-117054345D01*
X227591964Y-118482916D02*
X228258630Y-118482916D01*
X227211011Y-118244821D02*
X227925297Y-118006726D01*
X227925297Y-118625773D01*
X90146130Y-59428154D02*
X89146130Y-59428154D01*
X89146130Y-59666250D01*
X89193750Y-59809107D01*
X89288988Y-59904345D01*
X89384226Y-59951964D01*
X89574702Y-59999583D01*
X89717559Y-59999583D01*
X89908035Y-59951964D01*
X90003273Y-59904345D01*
X90098511Y-59809107D01*
X90146130Y-59666250D01*
X90146130Y-59428154D01*
X89146130Y-60904345D02*
X89146130Y-60428154D01*
X89622321Y-60380535D01*
X89574702Y-60428154D01*
X89527083Y-60523392D01*
X89527083Y-60761488D01*
X89574702Y-60856726D01*
X89622321Y-60904345D01*
X89717559Y-60951964D01*
X89955654Y-60951964D01*
X90050892Y-60904345D01*
X90098511Y-60856726D01*
X90146130Y-60761488D01*
X90146130Y-60523392D01*
X90098511Y-60428154D01*
X90050892Y-60380535D01*
X109196130Y-59428154D02*
X108196130Y-59428154D01*
X108196130Y-59666250D01*
X108243750Y-59809107D01*
X108338988Y-59904345D01*
X108434226Y-59951964D01*
X108624702Y-59999583D01*
X108767559Y-59999583D01*
X108958035Y-59951964D01*
X109053273Y-59904345D01*
X109148511Y-59809107D01*
X109196130Y-59666250D01*
X109196130Y-59428154D01*
X108196130Y-60856726D02*
X108196130Y-60666250D01*
X108243750Y-60571011D01*
X108291369Y-60523392D01*
X108434226Y-60428154D01*
X108624702Y-60380535D01*
X109005654Y-60380535D01*
X109100892Y-60428154D01*
X109148511Y-60475773D01*
X109196130Y-60571011D01*
X109196130Y-60761488D01*
X109148511Y-60856726D01*
X109100892Y-60904345D01*
X109005654Y-60951964D01*
X108767559Y-60951964D01*
X108672321Y-60904345D01*
X108624702Y-60856726D01*
X108577083Y-60761488D01*
X108577083Y-60571011D01*
X108624702Y-60475773D01*
X108672321Y-60428154D01*
X108767559Y-60380535D01*
X71096130Y-59428154D02*
X70096130Y-59428154D01*
X70096130Y-59666250D01*
X70143750Y-59809107D01*
X70238988Y-59904345D01*
X70334226Y-59951964D01*
X70524702Y-59999583D01*
X70667559Y-59999583D01*
X70858035Y-59951964D01*
X70953273Y-59904345D01*
X71048511Y-59809107D01*
X71096130Y-59666250D01*
X71096130Y-59428154D01*
X70429464Y-60856726D02*
X71096130Y-60856726D01*
X70048511Y-60618630D02*
X70762797Y-60380535D01*
X70762797Y-60999583D01*
X32996130Y-59428154D02*
X31996130Y-59428154D01*
X31996130Y-59666250D01*
X32043750Y-59809107D01*
X32138988Y-59904345D01*
X32234226Y-59951964D01*
X32424702Y-59999583D01*
X32567559Y-59999583D01*
X32758035Y-59951964D01*
X32853273Y-59904345D01*
X32948511Y-59809107D01*
X32996130Y-59666250D01*
X32996130Y-59428154D01*
X32091369Y-60380535D02*
X32043750Y-60428154D01*
X31996130Y-60523392D01*
X31996130Y-60761488D01*
X32043750Y-60856726D01*
X32091369Y-60904345D01*
X32186607Y-60951964D01*
X32281845Y-60951964D01*
X32424702Y-60904345D01*
X32996130Y-60332916D01*
X32996130Y-60951964D01*
X52046130Y-59428154D02*
X51046130Y-59428154D01*
X51046130Y-59666250D01*
X51093750Y-59809107D01*
X51188988Y-59904345D01*
X51284226Y-59951964D01*
X51474702Y-59999583D01*
X51617559Y-59999583D01*
X51808035Y-59951964D01*
X51903273Y-59904345D01*
X51998511Y-59809107D01*
X52046130Y-59666250D01*
X52046130Y-59428154D01*
X51046130Y-60332916D02*
X51046130Y-60951964D01*
X51427083Y-60618630D01*
X51427083Y-60761488D01*
X51474702Y-60856726D01*
X51522321Y-60904345D01*
X51617559Y-60951964D01*
X51855654Y-60951964D01*
X51950892Y-60904345D01*
X51998511Y-60856726D01*
X52046130Y-60761488D01*
X52046130Y-60475773D01*
X51998511Y-60380535D01*
X51950892Y-60332916D01*
X275883630Y-78001964D02*
X274883630Y-78001964D01*
X274883630Y-78240059D01*
X274931250Y-78382916D01*
X275026488Y-78478154D01*
X275121726Y-78525773D01*
X275312202Y-78573392D01*
X275455059Y-78573392D01*
X275645535Y-78525773D01*
X275740773Y-78478154D01*
X275836011Y-78382916D01*
X275883630Y-78240059D01*
X275883630Y-78001964D01*
X274978869Y-78954345D02*
X274931250Y-79001964D01*
X274883630Y-79097202D01*
X274883630Y-79335297D01*
X274931250Y-79430535D01*
X274978869Y-79478154D01*
X275074107Y-79525773D01*
X275169345Y-79525773D01*
X275312202Y-79478154D01*
X275883630Y-78906726D01*
X275883630Y-79525773D01*
X275312202Y-80097202D02*
X275264583Y-80001964D01*
X275216964Y-79954345D01*
X275121726Y-79906726D01*
X275074107Y-79906726D01*
X274978869Y-79954345D01*
X274931250Y-80001964D01*
X274883630Y-80097202D01*
X274883630Y-80287678D01*
X274931250Y-80382916D01*
X274978869Y-80430535D01*
X275074107Y-80478154D01*
X275121726Y-80478154D01*
X275216964Y-80430535D01*
X275264583Y-80382916D01*
X275312202Y-80287678D01*
X275312202Y-80097202D01*
X275359821Y-80001964D01*
X275407440Y-79954345D01*
X275502678Y-79906726D01*
X275693154Y-79906726D01*
X275788392Y-79954345D01*
X275836011Y-80001964D01*
X275883630Y-80097202D01*
X275883630Y-80287678D01*
X275836011Y-80382916D01*
X275788392Y-80430535D01*
X275693154Y-80478154D01*
X275502678Y-80478154D01*
X275407440Y-80430535D01*
X275359821Y-80382916D01*
X275312202Y-80287678D01*
X21089880Y-97051964D02*
X20089880Y-97051964D01*
X20089880Y-97290059D01*
X20137500Y-97432916D01*
X20232738Y-97528154D01*
X20327976Y-97575773D01*
X20518452Y-97623392D01*
X20661309Y-97623392D01*
X20851785Y-97575773D01*
X20947023Y-97528154D01*
X21042261Y-97432916D01*
X21089880Y-97290059D01*
X21089880Y-97051964D01*
X20089880Y-97956726D02*
X20089880Y-98575773D01*
X20470833Y-98242440D01*
X20470833Y-98385297D01*
X20518452Y-98480535D01*
X20566071Y-98528154D01*
X20661309Y-98575773D01*
X20899404Y-98575773D01*
X20994642Y-98528154D01*
X21042261Y-98480535D01*
X21089880Y-98385297D01*
X21089880Y-98099583D01*
X21042261Y-98004345D01*
X20994642Y-97956726D01*
X20089880Y-99194821D02*
X20089880Y-99290059D01*
X20137500Y-99385297D01*
X20185119Y-99432916D01*
X20280357Y-99480535D01*
X20470833Y-99528154D01*
X20708928Y-99528154D01*
X20899404Y-99480535D01*
X20994642Y-99432916D01*
X21042261Y-99385297D01*
X21089880Y-99290059D01*
X21089880Y-99194821D01*
X21042261Y-99099583D01*
X20994642Y-99051964D01*
X20899404Y-99004345D01*
X20708928Y-98956726D01*
X20470833Y-98956726D01*
X20280357Y-99004345D01*
X20185119Y-99051964D01*
X20137500Y-99099583D01*
X20089880Y-99194821D01*
X13946130Y-59428154D02*
X12946130Y-59428154D01*
X12946130Y-59666250D01*
X12993750Y-59809107D01*
X13088988Y-59904345D01*
X13184226Y-59951964D01*
X13374702Y-59999583D01*
X13517559Y-59999583D01*
X13708035Y-59951964D01*
X13803273Y-59904345D01*
X13898511Y-59809107D01*
X13946130Y-59666250D01*
X13946130Y-59428154D01*
X13946130Y-60951964D02*
X13946130Y-60380535D01*
X13946130Y-60666250D02*
X12946130Y-60666250D01*
X13088988Y-60571011D01*
X13184226Y-60475773D01*
X13231845Y-60380535D01*
X18708630Y-78001964D02*
X17708630Y-78001964D01*
X17708630Y-78240059D01*
X17756250Y-78382916D01*
X17851488Y-78478154D01*
X17946726Y-78525773D01*
X18137202Y-78573392D01*
X18280059Y-78573392D01*
X18470535Y-78525773D01*
X18565773Y-78478154D01*
X18661011Y-78382916D01*
X18708630Y-78240059D01*
X18708630Y-78001964D01*
X18708630Y-79525773D02*
X18708630Y-78954345D01*
X18708630Y-79240059D02*
X17708630Y-79240059D01*
X17851488Y-79144821D01*
X17946726Y-79049583D01*
X17994345Y-78954345D01*
X17708630Y-80430535D02*
X17708630Y-79954345D01*
X18184821Y-79906726D01*
X18137202Y-79954345D01*
X18089583Y-80049583D01*
X18089583Y-80287678D01*
X18137202Y-80382916D01*
X18184821Y-80430535D01*
X18280059Y-80478154D01*
X18518154Y-80478154D01*
X18613392Y-80430535D01*
X18661011Y-80382916D01*
X18708630Y-80287678D01*
X18708630Y-80049583D01*
X18661011Y-79954345D01*
X18613392Y-79906726D01*
X292679285Y-105227380D02*
X292679285Y-104227380D01*
X292441190Y-104227380D01*
X292298333Y-104275000D01*
X292203095Y-104370238D01*
X292155476Y-104465476D01*
X292107857Y-104655952D01*
X292107857Y-104798809D01*
X292155476Y-104989285D01*
X292203095Y-105084523D01*
X292298333Y-105179761D01*
X292441190Y-105227380D01*
X292679285Y-105227380D01*
X291250714Y-104227380D02*
X291441190Y-104227380D01*
X291536428Y-104275000D01*
X291584047Y-104322619D01*
X291679285Y-104465476D01*
X291726904Y-104655952D01*
X291726904Y-105036904D01*
X291679285Y-105132142D01*
X291631666Y-105179761D01*
X291536428Y-105227380D01*
X291345952Y-105227380D01*
X291250714Y-105179761D01*
X291203095Y-105132142D01*
X291155476Y-105036904D01*
X291155476Y-104798809D01*
X291203095Y-104703571D01*
X291250714Y-104655952D01*
X291345952Y-104608333D01*
X291536428Y-104608333D01*
X291631666Y-104655952D01*
X291679285Y-104703571D01*
X291726904Y-104798809D01*
X290822142Y-104227380D02*
X290155476Y-104227380D01*
X290584047Y-105227380D01*
X292679285Y-124277380D02*
X292679285Y-123277380D01*
X292441190Y-123277380D01*
X292298333Y-123325000D01*
X292203095Y-123420238D01*
X292155476Y-123515476D01*
X292107857Y-123705952D01*
X292107857Y-123848809D01*
X292155476Y-124039285D01*
X292203095Y-124134523D01*
X292298333Y-124229761D01*
X292441190Y-124277380D01*
X292679285Y-124277380D01*
X291250714Y-123277380D02*
X291441190Y-123277380D01*
X291536428Y-123325000D01*
X291584047Y-123372619D01*
X291679285Y-123515476D01*
X291726904Y-123705952D01*
X291726904Y-124086904D01*
X291679285Y-124182142D01*
X291631666Y-124229761D01*
X291536428Y-124277380D01*
X291345952Y-124277380D01*
X291250714Y-124229761D01*
X291203095Y-124182142D01*
X291155476Y-124086904D01*
X291155476Y-123848809D01*
X291203095Y-123753571D01*
X291250714Y-123705952D01*
X291345952Y-123658333D01*
X291536428Y-123658333D01*
X291631666Y-123705952D01*
X291679285Y-123753571D01*
X291726904Y-123848809D01*
X290584047Y-123705952D02*
X290679285Y-123658333D01*
X290726904Y-123610714D01*
X290774523Y-123515476D01*
X290774523Y-123467857D01*
X290726904Y-123372619D01*
X290679285Y-123325000D01*
X290584047Y-123277380D01*
X290393571Y-123277380D01*
X290298333Y-123325000D01*
X290250714Y-123372619D01*
X290203095Y-123467857D01*
X290203095Y-123515476D01*
X290250714Y-123610714D01*
X290298333Y-123658333D01*
X290393571Y-123705952D01*
X290584047Y-123705952D01*
X290679285Y-123753571D01*
X290726904Y-123801190D01*
X290774523Y-123896428D01*
X290774523Y-124086904D01*
X290726904Y-124182142D01*
X290679285Y-124229761D01*
X290584047Y-124277380D01*
X290393571Y-124277380D01*
X290298333Y-124229761D01*
X290250714Y-124182142D01*
X290203095Y-124086904D01*
X290203095Y-123896428D01*
X290250714Y-123801190D01*
X290298333Y-123753571D01*
X290393571Y-123705952D01*
X245721130Y-135469464D02*
X244721130Y-135469464D01*
X244721130Y-135707559D01*
X244768750Y-135850416D01*
X244863988Y-135945654D01*
X244959226Y-135993273D01*
X245149702Y-136040892D01*
X245292559Y-136040892D01*
X245483035Y-135993273D01*
X245578273Y-135945654D01*
X245673511Y-135850416D01*
X245721130Y-135707559D01*
X245721130Y-135469464D01*
X244721130Y-136898035D02*
X244721130Y-136707559D01*
X244768750Y-136612321D01*
X244816369Y-136564702D01*
X244959226Y-136469464D01*
X245149702Y-136421845D01*
X245530654Y-136421845D01*
X245625892Y-136469464D01*
X245673511Y-136517083D01*
X245721130Y-136612321D01*
X245721130Y-136802797D01*
X245673511Y-136898035D01*
X245625892Y-136945654D01*
X245530654Y-136993273D01*
X245292559Y-136993273D01*
X245197321Y-136945654D01*
X245149702Y-136898035D01*
X245102083Y-136802797D01*
X245102083Y-136612321D01*
X245149702Y-136517083D01*
X245197321Y-136469464D01*
X245292559Y-136421845D01*
X245054464Y-137850416D02*
X245721130Y-137850416D01*
X244673511Y-137612321D02*
X245387797Y-137374226D01*
X245387797Y-137993273D01*
D11*
X27940000Y-87947500D02*
X-5080000Y-87947500D01*
X-5080000Y-105727500D02*
X27940000Y-105727500D01*
X-2540000Y-103187500D02*
X-2540000Y-105727500D01*
X27940000Y-105727500D02*
X27940000Y-87947500D01*
X0Y-103187500D02*
X0Y-105727500D01*
X-2540000Y-103187500D02*
X0Y-103187500D01*
X-5080000Y-87947500D02*
X-5080000Y-105727500D01*
D10*
X3349030Y-86039865D02*
X3449030Y-86039865D01*
X3449030Y-86039865D02*
X3449030Y-85539865D01*
X3449030Y-85539865D02*
X3349030Y-85539865D01*
X3349030Y-85539865D02*
X3349030Y-86039865D01*
G36*
X3449030Y-86039865D02*
G01*
X3349030Y-86039865D01*
X3349030Y-85539865D01*
X3449030Y-85539865D01*
X3449030Y-86039865D01*
G37*
X3449030Y-86039865D02*
X3349030Y-86039865D01*
X3349030Y-85539865D01*
X3449030Y-85539865D01*
X3449030Y-86039865D01*
X3749030Y-85839865D02*
X3849030Y-85839865D01*
X3849030Y-85839865D02*
X3849030Y-85739865D01*
X3849030Y-85739865D02*
X3749030Y-85739865D01*
X3749030Y-85739865D02*
X3749030Y-85839865D01*
G36*
X3849030Y-85839865D02*
G01*
X3749030Y-85839865D01*
X3749030Y-85739865D01*
X3849030Y-85739865D01*
X3849030Y-85839865D01*
G37*
X3849030Y-85839865D02*
X3749030Y-85839865D01*
X3749030Y-85739865D01*
X3849030Y-85739865D01*
X3849030Y-85839865D01*
X3349030Y-85639865D02*
X4149030Y-85639865D01*
X4149030Y-85639865D02*
X4149030Y-85539865D01*
X4149030Y-85539865D02*
X3349030Y-85539865D01*
X3349030Y-85539865D02*
X3349030Y-85639865D01*
G36*
X4149030Y-85639865D02*
G01*
X3349030Y-85639865D01*
X3349030Y-85539865D01*
X4149030Y-85539865D01*
X4149030Y-85639865D01*
G37*
X4149030Y-85639865D02*
X3349030Y-85639865D01*
X3349030Y-85539865D01*
X4149030Y-85539865D01*
X4149030Y-85639865D01*
X3949030Y-86039865D02*
X4149030Y-86039865D01*
X4149030Y-86039865D02*
X4149030Y-85939865D01*
X4149030Y-85939865D02*
X3949030Y-85939865D01*
X3949030Y-85939865D02*
X3949030Y-86039865D01*
G36*
X4149030Y-86039865D02*
G01*
X3949030Y-86039865D01*
X3949030Y-85939865D01*
X4149030Y-85939865D01*
X4149030Y-86039865D01*
G37*
X4149030Y-86039865D02*
X3949030Y-86039865D01*
X3949030Y-85939865D01*
X4149030Y-85939865D01*
X4149030Y-86039865D01*
X3349030Y-86039865D02*
X3649030Y-86039865D01*
X3649030Y-86039865D02*
X3649030Y-85939865D01*
X3649030Y-85939865D02*
X3349030Y-85939865D01*
X3349030Y-85939865D02*
X3349030Y-86039865D01*
G36*
X3649030Y-86039865D02*
G01*
X3349030Y-86039865D01*
X3349030Y-85939865D01*
X3649030Y-85939865D01*
X3649030Y-86039865D01*
G37*
X3649030Y-86039865D02*
X3349030Y-86039865D01*
X3349030Y-85939865D01*
X3649030Y-85939865D01*
X3649030Y-86039865D01*
D12*
X127793750Y-62996250D02*
X127793750Y-62226250D01*
X127793750Y-57336250D02*
X127793750Y-58106250D01*
X128853750Y-62226250D02*
X126733750Y-62226250D01*
X128853750Y-58106250D02*
X128853750Y-62226250D01*
X126733750Y-58106250D02*
X128853750Y-58106250D01*
X128853750Y-61566250D02*
X126733750Y-61566250D01*
X126733750Y-62226250D02*
X126733750Y-58106250D01*
X145783750Y-62226250D02*
X145783750Y-58106250D01*
X146843750Y-62996250D02*
X146843750Y-62226250D01*
X146843750Y-57336250D02*
X146843750Y-58106250D01*
X147903750Y-62226250D02*
X145783750Y-62226250D01*
X147903750Y-58106250D02*
X147903750Y-62226250D01*
X147903750Y-61566250D02*
X145783750Y-61566250D01*
X145783750Y-58106250D02*
X147903750Y-58106250D01*
X164833750Y-62226250D02*
X164833750Y-58106250D01*
X164833750Y-58106250D02*
X166953750Y-58106250D01*
X166953750Y-58106250D02*
X166953750Y-62226250D01*
X166953750Y-62226250D02*
X164833750Y-62226250D01*
X165893750Y-57336250D02*
X165893750Y-58106250D01*
X165893750Y-62996250D02*
X165893750Y-62226250D01*
X166953750Y-61566250D02*
X164833750Y-61566250D01*
X186003750Y-62226250D02*
X183883750Y-62226250D01*
X186003750Y-61566250D02*
X183883750Y-61566250D01*
X184943750Y-62996250D02*
X184943750Y-62226250D01*
X183883750Y-62226250D02*
X183883750Y-58106250D01*
X183883750Y-58106250D02*
X186003750Y-58106250D01*
X184943750Y-57336250D02*
X184943750Y-58106250D01*
X186003750Y-58106250D02*
X186003750Y-62226250D01*
X205053750Y-58106250D02*
X205053750Y-62226250D01*
X205053750Y-61566250D02*
X202933750Y-61566250D01*
X203993750Y-57336250D02*
X203993750Y-58106250D01*
X202933750Y-58106250D02*
X205053750Y-58106250D01*
X202933750Y-62226250D02*
X202933750Y-58106250D01*
X205053750Y-62226250D02*
X202933750Y-62226250D01*
X203993750Y-62996250D02*
X203993750Y-62226250D01*
X221983750Y-62226250D02*
X221983750Y-58106250D01*
X223043750Y-57336250D02*
X223043750Y-58106250D01*
X224103750Y-62226250D02*
X221983750Y-62226250D01*
X224103750Y-61566250D02*
X221983750Y-61566250D01*
X223043750Y-62996250D02*
X223043750Y-62226250D01*
X224103750Y-58106250D02*
X224103750Y-62226250D01*
X221983750Y-58106250D02*
X224103750Y-58106250D01*
X243153750Y-62226250D02*
X241033750Y-62226250D01*
X242093750Y-62996250D02*
X242093750Y-62226250D01*
X243153750Y-61566250D02*
X241033750Y-61566250D01*
X243153750Y-58106250D02*
X243153750Y-62226250D01*
X242093750Y-57336250D02*
X242093750Y-58106250D01*
X241033750Y-62226250D02*
X241033750Y-58106250D01*
X241033750Y-58106250D02*
X243153750Y-58106250D01*
X270668750Y-62996250D02*
X270668750Y-62226250D01*
X271728750Y-58106250D02*
X271728750Y-62226250D01*
X270668750Y-57336250D02*
X270668750Y-58106250D01*
X271728750Y-61566250D02*
X269608750Y-61566250D01*
X271728750Y-62226250D02*
X269608750Y-62226250D01*
X269608750Y-58106250D02*
X271728750Y-58106250D01*
X269608750Y-62226250D02*
X269608750Y-58106250D01*
X43128750Y-80616250D02*
X41008750Y-80616250D01*
X42068750Y-76386250D02*
X42068750Y-77156250D01*
X41008750Y-77156250D02*
X43128750Y-77156250D01*
X42068750Y-82046250D02*
X42068750Y-81276250D01*
X41008750Y-81276250D02*
X41008750Y-77156250D01*
X43128750Y-81276250D02*
X41008750Y-81276250D01*
X43128750Y-77156250D02*
X43128750Y-81276250D01*
X60058750Y-81276250D02*
X60058750Y-77156250D01*
X60058750Y-77156250D02*
X62178750Y-77156250D01*
X62178750Y-77156250D02*
X62178750Y-81276250D01*
X61118750Y-76386250D02*
X61118750Y-77156250D01*
X61118750Y-82046250D02*
X61118750Y-81276250D01*
X62178750Y-81276250D02*
X60058750Y-81276250D01*
X62178750Y-80616250D02*
X60058750Y-80616250D01*
X80168750Y-82046250D02*
X80168750Y-81276250D01*
X81228750Y-81276250D02*
X79108750Y-81276250D01*
X81228750Y-80616250D02*
X79108750Y-80616250D01*
X81228750Y-77156250D02*
X81228750Y-81276250D01*
X80168750Y-76386250D02*
X80168750Y-77156250D01*
X79108750Y-81276250D02*
X79108750Y-77156250D01*
X79108750Y-77156250D02*
X81228750Y-77156250D01*
X100278750Y-81276250D02*
X98158750Y-81276250D01*
X99218750Y-82046250D02*
X99218750Y-81276250D01*
X100278750Y-77156250D02*
X100278750Y-81276250D01*
X100278750Y-80616250D02*
X98158750Y-80616250D01*
X98158750Y-81276250D02*
X98158750Y-77156250D01*
X98158750Y-77156250D02*
X100278750Y-77156250D01*
X99218750Y-76386250D02*
X99218750Y-77156250D01*
X119328750Y-77156250D02*
X119328750Y-81276250D01*
X119328750Y-80616250D02*
X117208750Y-80616250D01*
X118268750Y-76386250D02*
X118268750Y-77156250D01*
X117208750Y-77156250D02*
X119328750Y-77156250D01*
X117208750Y-81276250D02*
X117208750Y-77156250D01*
X118268750Y-82046250D02*
X118268750Y-81276250D01*
X119328750Y-81276250D02*
X117208750Y-81276250D01*
X136258750Y-81276250D02*
X136258750Y-77156250D01*
X137318750Y-76386250D02*
X137318750Y-77156250D01*
X138378750Y-77156250D02*
X138378750Y-81276250D01*
X137318750Y-82046250D02*
X137318750Y-81276250D01*
X136258750Y-77156250D02*
X138378750Y-77156250D01*
X138378750Y-81276250D02*
X136258750Y-81276250D01*
X138378750Y-80616250D02*
X136258750Y-80616250D01*
X157428750Y-77156250D02*
X157428750Y-81276250D01*
X156368750Y-76386250D02*
X156368750Y-77156250D01*
X157428750Y-81276250D02*
X155308750Y-81276250D01*
X156368750Y-82046250D02*
X156368750Y-81276250D01*
X155308750Y-77156250D02*
X157428750Y-77156250D01*
X157428750Y-80616250D02*
X155308750Y-80616250D01*
X155308750Y-81276250D02*
X155308750Y-77156250D01*
X176478750Y-80616250D02*
X174358750Y-80616250D01*
X176478750Y-81276250D02*
X174358750Y-81276250D01*
X174358750Y-77156250D02*
X176478750Y-77156250D01*
X175418750Y-76386250D02*
X175418750Y-77156250D01*
X174358750Y-81276250D02*
X174358750Y-77156250D01*
X176478750Y-77156250D02*
X176478750Y-81276250D01*
X175418750Y-82046250D02*
X175418750Y-81276250D01*
X193408750Y-77156250D02*
X195528750Y-77156250D01*
X195528750Y-81276250D02*
X193408750Y-81276250D01*
X193408750Y-81276250D02*
X193408750Y-77156250D01*
X194468750Y-76386250D02*
X194468750Y-77156250D01*
X194468750Y-82046250D02*
X194468750Y-81276250D01*
X195528750Y-77156250D02*
X195528750Y-81276250D01*
X195528750Y-80616250D02*
X193408750Y-80616250D01*
X212458750Y-81276250D02*
X212458750Y-77156250D01*
X214578750Y-77156250D02*
X214578750Y-81276250D01*
X214578750Y-80616250D02*
X212458750Y-80616250D01*
X213518750Y-82046250D02*
X213518750Y-81276250D01*
X214578750Y-81276250D02*
X212458750Y-81276250D01*
X212458750Y-77156250D02*
X214578750Y-77156250D01*
X213518750Y-76386250D02*
X213518750Y-77156250D01*
X233628750Y-80616250D02*
X231508750Y-80616250D01*
X233628750Y-77156250D02*
X233628750Y-81276250D01*
X232568750Y-82046250D02*
X232568750Y-81276250D01*
X231508750Y-77156250D02*
X233628750Y-77156250D01*
X232568750Y-76386250D02*
X232568750Y-77156250D01*
X233628750Y-81276250D02*
X231508750Y-81276250D01*
X231508750Y-81276250D02*
X231508750Y-77156250D01*
X252678750Y-77156250D02*
X252678750Y-81276250D01*
X250558750Y-81276250D02*
X250558750Y-77156250D01*
X250558750Y-77156250D02*
X252678750Y-77156250D01*
X252678750Y-81276250D02*
X250558750Y-81276250D01*
X251618750Y-82046250D02*
X251618750Y-81276250D01*
X251618750Y-76386250D02*
X251618750Y-77156250D01*
X252678750Y-80616250D02*
X250558750Y-80616250D01*
X47891250Y-100326250D02*
X45771250Y-100326250D01*
X47891250Y-96206250D02*
X47891250Y-100326250D01*
X47891250Y-99666250D02*
X45771250Y-99666250D01*
X46831250Y-95436250D02*
X46831250Y-96206250D01*
X45771250Y-100326250D02*
X45771250Y-96206250D01*
X45771250Y-96206250D02*
X47891250Y-96206250D01*
X46831250Y-101096250D02*
X46831250Y-100326250D01*
X66941250Y-96206250D02*
X66941250Y-100326250D01*
X65881250Y-95436250D02*
X65881250Y-96206250D01*
X66941250Y-100326250D02*
X64821250Y-100326250D01*
X65881250Y-101096250D02*
X65881250Y-100326250D01*
X64821250Y-100326250D02*
X64821250Y-96206250D01*
X64821250Y-96206250D02*
X66941250Y-96206250D01*
X66941250Y-99666250D02*
X64821250Y-99666250D01*
X83871250Y-100326250D02*
X83871250Y-96206250D01*
X84931250Y-95436250D02*
X84931250Y-96206250D01*
X83871250Y-96206250D02*
X85991250Y-96206250D01*
X85991250Y-96206250D02*
X85991250Y-100326250D01*
X84931250Y-101096250D02*
X84931250Y-100326250D01*
X85991250Y-100326250D02*
X83871250Y-100326250D01*
X85991250Y-99666250D02*
X83871250Y-99666250D01*
X102921250Y-96206250D02*
X105041250Y-96206250D01*
X105041250Y-96206250D02*
X105041250Y-100326250D01*
X105041250Y-100326250D02*
X102921250Y-100326250D01*
X102921250Y-100326250D02*
X102921250Y-96206250D01*
X105041250Y-99666250D02*
X102921250Y-99666250D01*
X103981250Y-95436250D02*
X103981250Y-96206250D01*
X103981250Y-101096250D02*
X103981250Y-100326250D01*
X143141250Y-99666250D02*
X141021250Y-99666250D01*
X142081250Y-95436250D02*
X142081250Y-96206250D01*
X141021250Y-100326250D02*
X141021250Y-96206250D01*
X141021250Y-96206250D02*
X143141250Y-96206250D01*
X143141250Y-96206250D02*
X143141250Y-100326250D01*
X143141250Y-100326250D02*
X141021250Y-100326250D01*
X142081250Y-101096250D02*
X142081250Y-100326250D01*
X160071250Y-96206250D02*
X162191250Y-96206250D01*
X161131250Y-101096250D02*
X161131250Y-100326250D01*
X162191250Y-96206250D02*
X162191250Y-100326250D01*
X161131250Y-95436250D02*
X161131250Y-96206250D01*
X160071250Y-100326250D02*
X160071250Y-96206250D01*
X162191250Y-99666250D02*
X160071250Y-99666250D01*
X162191250Y-100326250D02*
X160071250Y-100326250D01*
X179121250Y-100326250D02*
X179121250Y-96206250D01*
X181241250Y-100326250D02*
X179121250Y-100326250D01*
X180181250Y-95436250D02*
X180181250Y-96206250D01*
X181241250Y-99666250D02*
X179121250Y-99666250D01*
X181241250Y-96206250D02*
X181241250Y-100326250D01*
X180181250Y-101096250D02*
X180181250Y-100326250D01*
X179121250Y-96206250D02*
X181241250Y-96206250D01*
X198171250Y-100326250D02*
X198171250Y-96206250D01*
X200291250Y-96206250D02*
X200291250Y-100326250D01*
X200291250Y-100326250D02*
X198171250Y-100326250D01*
X200291250Y-99666250D02*
X198171250Y-99666250D01*
X198171250Y-96206250D02*
X200291250Y-96206250D01*
X199231250Y-101096250D02*
X199231250Y-100326250D01*
X199231250Y-95436250D02*
X199231250Y-96206250D01*
X219341250Y-96206250D02*
X219341250Y-100326250D01*
X217221250Y-100326250D02*
X217221250Y-96206250D01*
X218281250Y-101096250D02*
X218281250Y-100326250D01*
X217221250Y-96206250D02*
X219341250Y-96206250D01*
X218281250Y-95436250D02*
X218281250Y-96206250D01*
X219341250Y-100326250D02*
X217221250Y-100326250D01*
X219341250Y-99666250D02*
X217221250Y-99666250D01*
X269347500Y-100326250D02*
X267227500Y-100326250D01*
X269347500Y-96206250D02*
X269347500Y-100326250D01*
X268287500Y-95436250D02*
X268287500Y-96206250D01*
X267227500Y-100326250D02*
X267227500Y-96206250D01*
X267227500Y-96206250D02*
X269347500Y-96206250D01*
X268287500Y-101096250D02*
X268287500Y-100326250D01*
X269347500Y-99666250D02*
X267227500Y-99666250D01*
X288635000Y-66675000D02*
X289405000Y-66675000D01*
X289405000Y-67735000D02*
X289405000Y-65615000D01*
X292865000Y-65615000D02*
X292865000Y-67735000D01*
X294295000Y-66675000D02*
X293525000Y-66675000D01*
X293525000Y-67735000D02*
X289405000Y-67735000D01*
X293525000Y-65615000D02*
X293525000Y-67735000D01*
X289405000Y-65615000D02*
X293525000Y-65615000D01*
X24340000Y-115256250D02*
X26460000Y-115256250D01*
X26460000Y-118716250D02*
X24340000Y-118716250D01*
X26460000Y-119376250D02*
X24340000Y-119376250D01*
X25400000Y-114486250D02*
X25400000Y-115256250D01*
X26460000Y-115256250D02*
X26460000Y-119376250D01*
X24340000Y-119376250D02*
X24340000Y-115256250D01*
X25400000Y-120146250D02*
X25400000Y-119376250D01*
X55296250Y-115256250D02*
X57416250Y-115256250D01*
X56356250Y-114486250D02*
X56356250Y-115256250D01*
X55296250Y-119376250D02*
X55296250Y-115256250D01*
X56356250Y-120146250D02*
X56356250Y-119376250D01*
X57416250Y-115256250D02*
X57416250Y-119376250D01*
X57416250Y-118716250D02*
X55296250Y-118716250D01*
X57416250Y-119376250D02*
X55296250Y-119376250D01*
X76466250Y-119376250D02*
X74346250Y-119376250D01*
X74346250Y-115256250D02*
X76466250Y-115256250D01*
X76466250Y-118716250D02*
X74346250Y-118716250D01*
X75406250Y-120146250D02*
X75406250Y-119376250D01*
X75406250Y-114486250D02*
X75406250Y-115256250D01*
X74346250Y-119376250D02*
X74346250Y-115256250D01*
X76466250Y-115256250D02*
X76466250Y-119376250D01*
X93396250Y-119376250D02*
X93396250Y-115256250D01*
X95516250Y-118716250D02*
X93396250Y-118716250D01*
X95516250Y-115256250D02*
X95516250Y-119376250D01*
X94456250Y-120146250D02*
X94456250Y-119376250D01*
X95516250Y-119376250D02*
X93396250Y-119376250D01*
X93396250Y-115256250D02*
X95516250Y-115256250D01*
X94456250Y-114486250D02*
X94456250Y-115256250D01*
X113506250Y-120146250D02*
X113506250Y-119376250D01*
X113506250Y-114486250D02*
X113506250Y-115256250D01*
X112446250Y-119376250D02*
X112446250Y-115256250D01*
X114566250Y-119376250D02*
X112446250Y-119376250D01*
X114566250Y-118716250D02*
X112446250Y-118716250D01*
X112446250Y-115256250D02*
X114566250Y-115256250D01*
X114566250Y-115256250D02*
X114566250Y-119376250D01*
X132556250Y-114486250D02*
X132556250Y-115256250D01*
X132556250Y-120146250D02*
X132556250Y-119376250D01*
X133616250Y-118716250D02*
X131496250Y-118716250D01*
X133616250Y-115256250D02*
X133616250Y-119376250D01*
X131496250Y-115256250D02*
X133616250Y-115256250D01*
X131496250Y-119376250D02*
X131496250Y-115256250D01*
X133616250Y-119376250D02*
X131496250Y-119376250D01*
X152666250Y-118716250D02*
X150546250Y-118716250D01*
X150546250Y-119376250D02*
X150546250Y-115256250D01*
X152666250Y-115256250D02*
X152666250Y-119376250D01*
X152666250Y-119376250D02*
X150546250Y-119376250D01*
X150546250Y-115256250D02*
X152666250Y-115256250D01*
X151606250Y-120146250D02*
X151606250Y-119376250D01*
X151606250Y-114486250D02*
X151606250Y-115256250D01*
X171716250Y-115256250D02*
X171716250Y-119376250D01*
X171716250Y-118716250D02*
X169596250Y-118716250D01*
X169596250Y-115256250D02*
X171716250Y-115256250D01*
X170656250Y-114486250D02*
X170656250Y-115256250D01*
X169596250Y-119376250D02*
X169596250Y-115256250D01*
X171716250Y-119376250D02*
X169596250Y-119376250D01*
X170656250Y-120146250D02*
X170656250Y-119376250D01*
X190766250Y-118716250D02*
X188646250Y-118716250D01*
X188646250Y-119376250D02*
X188646250Y-115256250D01*
X190766250Y-115256250D02*
X190766250Y-119376250D01*
X189706250Y-114486250D02*
X189706250Y-115256250D01*
X190766250Y-119376250D02*
X188646250Y-119376250D01*
X189706250Y-120146250D02*
X189706250Y-119376250D01*
X188646250Y-115256250D02*
X190766250Y-115256250D01*
X209816250Y-118716250D02*
X207696250Y-118716250D01*
X209816250Y-115256250D02*
X209816250Y-119376250D01*
X208756250Y-120146250D02*
X208756250Y-119376250D01*
X208756250Y-114486250D02*
X208756250Y-115256250D01*
X209816250Y-119376250D02*
X207696250Y-119376250D01*
X207696250Y-119376250D02*
X207696250Y-115256250D01*
X207696250Y-115256250D02*
X209816250Y-115256250D01*
X254000000Y-120146250D02*
X254000000Y-119376250D01*
X252940000Y-115256250D02*
X255060000Y-115256250D01*
X252940000Y-119376250D02*
X252940000Y-115256250D01*
X255060000Y-115256250D02*
X255060000Y-119376250D01*
X255060000Y-118716250D02*
X252940000Y-118716250D01*
X254000000Y-114486250D02*
X254000000Y-115256250D01*
X255060000Y-119376250D02*
X252940000Y-119376250D01*
X279133750Y-119376250D02*
X279133750Y-115256250D01*
X281253750Y-118716250D02*
X279133750Y-118716250D01*
X281253750Y-115256250D02*
X281253750Y-119376250D01*
X280193750Y-120146250D02*
X280193750Y-119376250D01*
X280193750Y-114486250D02*
X280193750Y-115256250D01*
X281253750Y-119376250D02*
X279133750Y-119376250D01*
X279133750Y-115256250D02*
X281253750Y-115256250D01*
X293525000Y-84665000D02*
X293525000Y-86785000D01*
X289405000Y-86785000D02*
X289405000Y-84665000D01*
X288635000Y-85725000D02*
X289405000Y-85725000D01*
X289405000Y-84665000D02*
X293525000Y-84665000D01*
X293525000Y-86785000D02*
X289405000Y-86785000D01*
X292865000Y-84665000D02*
X292865000Y-86785000D01*
X294295000Y-85725000D02*
X293525000Y-85725000D01*
X15875000Y-133536250D02*
X15875000Y-134306250D01*
X14815000Y-134306250D02*
X16935000Y-134306250D01*
X16935000Y-138426250D02*
X14815000Y-138426250D01*
X15875000Y-139196250D02*
X15875000Y-138426250D01*
X16935000Y-134306250D02*
X16935000Y-138426250D01*
X14815000Y-138426250D02*
X14815000Y-134306250D01*
X16935000Y-137766250D02*
X14815000Y-137766250D01*
X39687500Y-139196250D02*
X39687500Y-138426250D01*
X40747500Y-138426250D02*
X38627500Y-138426250D01*
X40747500Y-134306250D02*
X40747500Y-138426250D01*
X38627500Y-134306250D02*
X40747500Y-134306250D01*
X38627500Y-138426250D02*
X38627500Y-134306250D01*
X40747500Y-137766250D02*
X38627500Y-137766250D01*
X39687500Y-133536250D02*
X39687500Y-134306250D01*
X62440000Y-138426250D02*
X62440000Y-134306250D01*
X63500000Y-139196250D02*
X63500000Y-138426250D01*
X64560000Y-134306250D02*
X64560000Y-138426250D01*
X64560000Y-138426250D02*
X62440000Y-138426250D01*
X62440000Y-134306250D02*
X64560000Y-134306250D01*
X64560000Y-137766250D02*
X62440000Y-137766250D01*
X63500000Y-133536250D02*
X63500000Y-134306250D01*
X133877500Y-138426250D02*
X133877500Y-134306250D01*
X135997500Y-138426250D02*
X133877500Y-138426250D01*
X135997500Y-134306250D02*
X135997500Y-138426250D01*
X134937500Y-139196250D02*
X134937500Y-138426250D01*
X135997500Y-137766250D02*
X133877500Y-137766250D01*
X134937500Y-133536250D02*
X134937500Y-134306250D01*
X133877500Y-134306250D02*
X135997500Y-134306250D01*
X207435000Y-137766250D02*
X205315000Y-137766250D01*
X205315000Y-138426250D02*
X205315000Y-134306250D01*
X206375000Y-133536250D02*
X206375000Y-134306250D01*
X205315000Y-134306250D02*
X207435000Y-134306250D01*
X207435000Y-134306250D02*
X207435000Y-138426250D01*
X206375000Y-139196250D02*
X206375000Y-138426250D01*
X207435000Y-138426250D02*
X205315000Y-138426250D01*
X229127500Y-138426250D02*
X229127500Y-134306250D01*
X231247500Y-137766250D02*
X229127500Y-137766250D01*
X231247500Y-134306250D02*
X231247500Y-138426250D01*
X229127500Y-134306250D02*
X231247500Y-134306250D01*
X231247500Y-138426250D02*
X229127500Y-138426250D01*
X230187500Y-139196250D02*
X230187500Y-138426250D01*
X230187500Y-133536250D02*
X230187500Y-134306250D01*
X280193750Y-139196250D02*
X280193750Y-138426250D01*
X279133750Y-138426250D02*
X279133750Y-134306250D01*
X281253750Y-138426250D02*
X279133750Y-138426250D01*
X281253750Y-137766250D02*
X279133750Y-137766250D01*
X279133750Y-134306250D02*
X281253750Y-134306250D01*
X280193750Y-133536250D02*
X280193750Y-134306250D01*
X281253750Y-134306250D02*
X281253750Y-138426250D01*
X288635000Y-142875000D02*
X289405000Y-142875000D01*
X289405000Y-143935000D02*
X289405000Y-141815000D01*
X294295000Y-142875000D02*
X293525000Y-142875000D01*
X293525000Y-143935000D02*
X289405000Y-143935000D01*
X292865000Y-141815000D02*
X292865000Y-143935000D01*
X293525000Y-141815000D02*
X293525000Y-143935000D01*
X289405000Y-141815000D02*
X293525000Y-141815000D01*
X121971250Y-100326250D02*
X121971250Y-96206250D01*
X123031250Y-95436250D02*
X123031250Y-96206250D01*
X124091250Y-100326250D02*
X121971250Y-100326250D01*
X123031250Y-101096250D02*
X123031250Y-100326250D01*
X124091250Y-96206250D02*
X124091250Y-100326250D01*
X124091250Y-99666250D02*
X121971250Y-99666250D01*
X121971250Y-96206250D02*
X124091250Y-96206250D01*
X237331250Y-95436250D02*
X237331250Y-96206250D01*
X236271250Y-96206250D02*
X238391250Y-96206250D01*
X238391250Y-99666250D02*
X236271250Y-99666250D01*
X238391250Y-100326250D02*
X236271250Y-100326250D01*
X236271250Y-100326250D02*
X236271250Y-96206250D01*
X237331250Y-101096250D02*
X237331250Y-100326250D01*
X238391250Y-96206250D02*
X238391250Y-100326250D01*
X226746250Y-115256250D02*
X228866250Y-115256250D01*
X226746250Y-119376250D02*
X226746250Y-115256250D01*
X228866250Y-118716250D02*
X226746250Y-118716250D01*
X228866250Y-119376250D02*
X226746250Y-119376250D01*
X227806250Y-114486250D02*
X227806250Y-115256250D01*
X228866250Y-115256250D02*
X228866250Y-119376250D01*
X227806250Y-120146250D02*
X227806250Y-119376250D01*
X89693750Y-57336250D02*
X89693750Y-58106250D01*
X90753750Y-58106250D02*
X90753750Y-62226250D01*
X89693750Y-62996250D02*
X89693750Y-62226250D01*
X88633750Y-62226250D02*
X88633750Y-58106250D01*
X90753750Y-61566250D02*
X88633750Y-61566250D01*
X90753750Y-62226250D02*
X88633750Y-62226250D01*
X88633750Y-58106250D02*
X90753750Y-58106250D01*
X107683750Y-58106250D02*
X109803750Y-58106250D01*
X109803750Y-62226250D02*
X107683750Y-62226250D01*
X109803750Y-58106250D02*
X109803750Y-62226250D01*
X107683750Y-62226250D02*
X107683750Y-58106250D01*
X108743750Y-57336250D02*
X108743750Y-58106250D01*
X108743750Y-62996250D02*
X108743750Y-62226250D01*
X109803750Y-61566250D02*
X107683750Y-61566250D01*
X70643750Y-57336250D02*
X70643750Y-58106250D01*
X71703750Y-61566250D02*
X69583750Y-61566250D01*
X70643750Y-62996250D02*
X70643750Y-62226250D01*
X71703750Y-58106250D02*
X71703750Y-62226250D01*
X69583750Y-58106250D02*
X71703750Y-58106250D01*
X71703750Y-62226250D02*
X69583750Y-62226250D01*
X69583750Y-62226250D02*
X69583750Y-58106250D01*
X32543750Y-57336250D02*
X32543750Y-58106250D01*
X32543750Y-62996250D02*
X32543750Y-62226250D01*
X33603750Y-61566250D02*
X31483750Y-61566250D01*
X33603750Y-62226250D02*
X31483750Y-62226250D01*
X31483750Y-58106250D02*
X33603750Y-58106250D01*
X31483750Y-62226250D02*
X31483750Y-58106250D01*
X33603750Y-58106250D02*
X33603750Y-62226250D01*
X52653750Y-62226250D02*
X50533750Y-62226250D01*
X51593750Y-57336250D02*
X51593750Y-58106250D01*
X50533750Y-58106250D02*
X52653750Y-58106250D01*
X52653750Y-61566250D02*
X50533750Y-61566250D01*
X51593750Y-62996250D02*
X51593750Y-62226250D01*
X50533750Y-62226250D02*
X50533750Y-58106250D01*
X52653750Y-58106250D02*
X52653750Y-62226250D01*
X276491250Y-80616250D02*
X274371250Y-80616250D01*
X274371250Y-81276250D02*
X274371250Y-77156250D01*
X276491250Y-77156250D02*
X276491250Y-81276250D01*
X274371250Y-77156250D02*
X276491250Y-77156250D01*
X275431250Y-82046250D02*
X275431250Y-81276250D01*
X275431250Y-76386250D02*
X275431250Y-77156250D01*
X276491250Y-81276250D02*
X274371250Y-81276250D01*
X21697500Y-96206250D02*
X21697500Y-100326250D01*
X19577500Y-100326250D02*
X19577500Y-96206250D01*
X19577500Y-96206250D02*
X21697500Y-96206250D01*
X21697500Y-99666250D02*
X19577500Y-99666250D01*
X21697500Y-100326250D02*
X19577500Y-100326250D01*
X20637500Y-95436250D02*
X20637500Y-96206250D01*
X20637500Y-101096250D02*
X20637500Y-100326250D01*
X14553750Y-58106250D02*
X14553750Y-62226250D01*
X14553750Y-62226250D02*
X12433750Y-62226250D01*
X12433750Y-58106250D02*
X14553750Y-58106250D01*
X13493750Y-62996250D02*
X13493750Y-62226250D01*
X13493750Y-57336250D02*
X13493750Y-58106250D01*
X14553750Y-61566250D02*
X12433750Y-61566250D01*
X12433750Y-62226250D02*
X12433750Y-58106250D01*
X17196250Y-81276250D02*
X17196250Y-77156250D01*
X17196250Y-77156250D02*
X19316250Y-77156250D01*
X18256250Y-82046250D02*
X18256250Y-81276250D01*
X19316250Y-80616250D02*
X17196250Y-80616250D01*
X19316250Y-81276250D02*
X17196250Y-81276250D01*
X18256250Y-76386250D02*
X18256250Y-77156250D01*
X19316250Y-77156250D02*
X19316250Y-81276250D01*
X289405000Y-105835000D02*
X289405000Y-103715000D01*
X293525000Y-103715000D02*
X293525000Y-105835000D01*
X294295000Y-104775000D02*
X293525000Y-104775000D01*
X288635000Y-104775000D02*
X289405000Y-104775000D01*
X293525000Y-105835000D02*
X289405000Y-105835000D01*
X289405000Y-103715000D02*
X293525000Y-103715000D01*
X292865000Y-103715000D02*
X292865000Y-105835000D01*
X293525000Y-124885000D02*
X289405000Y-124885000D01*
X292865000Y-122765000D02*
X292865000Y-124885000D01*
X289405000Y-124885000D02*
X289405000Y-122765000D01*
X293525000Y-122765000D02*
X293525000Y-124885000D01*
X289405000Y-122765000D02*
X293525000Y-122765000D01*
X294295000Y-123825000D02*
X293525000Y-123825000D01*
X288635000Y-123825000D02*
X289405000Y-123825000D01*
X246328750Y-134623750D02*
X246328750Y-138743750D01*
X246328750Y-138083750D02*
X244208750Y-138083750D01*
X246328750Y-138743750D02*
X244208750Y-138743750D01*
X245268750Y-139513750D02*
X245268750Y-138743750D01*
X244208750Y-138743750D02*
X244208750Y-134623750D01*
X244208750Y-134623750D02*
X246328750Y-134623750D01*
X245268750Y-133853750D02*
X245268750Y-134623750D01*
D13*
X-1270000Y-104457500D03*
D14*
X1270000Y-104457500D03*
X3810000Y-104457500D03*
X6350000Y-104457500D03*
X8890000Y-104457500D03*
X11430000Y-104457500D03*
X13970000Y-104457500D03*
X16510000Y-104457500D03*
X19050000Y-104457500D03*
X21590000Y-104457500D03*
X24130000Y-104457500D03*
X26670000Y-104457500D03*
X26670000Y-89217500D03*
X24130000Y-89217500D03*
X21590000Y-89217500D03*
X19050000Y-89217500D03*
X16510000Y-89217500D03*
X13970000Y-89217500D03*
X11430000Y-89217500D03*
X8890000Y-89217500D03*
X6350000Y-89217500D03*
X3810000Y-89217500D03*
X1270000Y-89217500D03*
X-1270000Y-89217500D03*
M02*
