M48
; DRILL file {KiCad (5.1.4)-1} date 1/4/2021 2:31:15 AM
; FORMAT={-:-/ absolute / metric / decimal}
; #@! TF.CreationDate,2021-01-04T02:31:15-06:00
; #@! TF.GenerationSoftware,Kicad,Pcbnew,(5.1.4)-1
FMAT,2
METRIC
T1C0.400
T2C0.800
T3C1.000
T4C1.092
T5C1.600
T6C1.700
T7C1.750
T8C3.048
T9C3.988
T10C4.000
%
G90
G05
T1
X6.35Y-55.47
X11.204Y-107.156
X11.906Y-91.281
X15.081Y-107.95
X18.256Y-101.6
X18.256Y-125.412
X20.637Y-123.031
X22.225Y-123.825
X26.194Y-95.25
X27.689Y-67.469
X29.143Y-67.469
X29.369Y-95.25
X32.128Y-121.822
X33.726Y-104.655
X34.131Y-86.519
X34.131Y-105.569
X35.811Y-86.519
X35.811Y-90.487
X38.1Y-89.694
X38.1Y-100.012
X39.688Y-125.412
X40.275Y-107.156
X41.275Y-103.981
X41.275Y-109.537
X42.069Y-123.031
X42.862Y-88.106
X42.862Y-103.188
X46.831Y-65.881
X46.831Y-68.263
X48.419Y-66.675
X50.006Y-95.25
X52.387Y-90.487
X53.181Y-89.694
X54.769Y-66.675
X54.769Y-90.487
X55.562Y-89.694
X56.356Y-84.931
X57.944Y-85.725
X60.325Y-142.875
X61.119Y-103.981
X61.119Y-109.537
X62.706Y-104.775
X64.294Y-85.725
X66.675Y-65.881
X66.675Y-68.263
X66.675Y-142.875
X67.469Y-125.412
X69.056Y-104.775
X69.85Y-123.031
X72.231Y-123.825
X76.2Y-84.931
X78.581Y-123.825
X80.169Y-103.981
X80.169Y-109.537
X84.931Y-65.881
X84.931Y-68.263
X86.519Y-66.675
X92.869Y-66.675
X94.456Y-84.931
X96.044Y-85.725
X96.044Y-107.156
X96.837Y-107.95
X99.219Y-103.981
X99.219Y-106.362
X100.012Y-107.156
X100.012Y-108.156
X100.806Y-104.775
X102.394Y-85.725
X104.775Y-65.881
X104.775Y-68.263
X107.156Y-104.775
X110.331Y-123.825
X114.3Y-84.931
X116.681Y-123.825
X118.269Y-103.981
X118.269Y-107.95
X123.031Y-106.362
X123.825Y-65.881
X123.825Y-68.263
X125.295Y-66.558
X128.588Y-87.312
X130.321Y-66.529
X132.556Y-84.931
X134.144Y-85.725
X137.319Y-103.981
X137.319Y-107.95
X138.906Y-104.775
X140.494Y-85.725
X142.875Y-65.802
X142.875Y-68.263
X145.256Y-104.775
X148.431Y-65.087
X148.431Y-123.825
X151.606Y-84.931
X154.781Y-123.825
X156.369Y-103.981
X156.369Y-107.95
X161.925Y-65.881
X161.925Y-68.263
X162.719Y-66.675
X166.688Y-87.312
X168.275Y-123.031
X169.069Y-66.675
X170.656Y-84.931
X172.244Y-85.725
X173.037Y-123.031
X175.419Y-103.981
X175.419Y-107.95
X177.006Y-104.775
X178.594Y-85.725
X180.975Y-65.881
X180.975Y-68.263
X183.356Y-104.775
X186.531Y-65.087
X186.531Y-123.825
X187.325Y-123.031
X189.706Y-84.931
X192.087Y-123.031
X192.881Y-123.825
X194.469Y-103.981
X194.469Y-107.95
X200.025Y-65.881
X200.025Y-68.263
X200.819Y-66.675
X203.2Y-142.875
X203.994Y-122.237
X204.787Y-87.312
X206.375Y-123.031
X207.169Y-66.675
X208.756Y-84.931
X209.55Y-142.875
X210.344Y-85.725
X212.725Y-125.412
X213.519Y-103.981
X213.519Y-107.95
X213.519Y-126.206
X215.106Y-104.775
X216.694Y-85.725
X219.075Y-65.881
X219.075Y-68.263
X221.456Y-104.775
X224.631Y-123.825
X227.806Y-84.931
X230.981Y-123.825
X232.569Y-103.981
X232.569Y-107.95
X237.331Y-65.881
X237.331Y-68.263
X237.331Y-106.362
X238.919Y-66.675
X242.094Y-66.675
X246.062Y-84.931
X246.062Y-87.312
X248.444Y-85.725
X249.237Y-96.044
X250.031Y-95.25
X251.619Y-85.725
X252.412Y-92.869
X254.0Y-92.869
X256.381Y-87.312
X257.969Y-142.875
X261.144Y-126.206
X263.525Y-65.881
X263.525Y-67.469
X263.525Y-104.775
X263.525Y-106.362
X263.525Y-125.412
X264.319Y-142.875
X282.575Y-76.2
X284.162Y-75.406
T2
X65.881Y-94.456
X65.881Y-102.076
X13.494Y-56.356
X13.494Y-63.976
X180.181Y-94.456
X180.181Y-102.076
X103.981Y-94.456
X103.981Y-102.076
X165.894Y-56.356
X165.894Y-63.976
X151.606Y-113.506
X151.606Y-121.126
X194.469Y-75.406
X194.469Y-83.026
X132.556Y-113.506
X132.556Y-121.126
X175.419Y-75.406
X175.419Y-83.026
X223.044Y-56.356
X223.044Y-63.976
X237.331Y-94.456
X237.331Y-102.076
X61.119Y-75.406
X61.119Y-83.026
X25.4Y-113.506
X25.4Y-121.126
X206.375Y-132.556
X206.375Y-140.176
X15.875Y-132.556
X15.875Y-140.176
X146.844Y-56.356
X146.844Y-63.976
X280.194Y-113.506
X280.194Y-121.126
X46.831Y-94.456
X46.831Y-102.076
X287.655Y-142.875
X295.275Y-142.875
X70.644Y-56.356
X70.644Y-63.976
X227.806Y-113.506
X227.806Y-121.126
X203.994Y-56.356
X203.994Y-63.976
X80.169Y-75.406
X80.169Y-83.026
X287.655Y-104.775
X295.275Y-104.775
X56.356Y-113.506
X56.356Y-121.126
X142.081Y-94.456
X142.081Y-102.076
X42.069Y-75.406
X42.069Y-83.026
X94.456Y-113.506
X94.456Y-121.126
X20.637Y-94.456
X20.637Y-102.076
X89.694Y-56.356
X89.694Y-63.976
X170.656Y-113.506
X170.656Y-121.126
X232.569Y-75.406
X232.569Y-83.026
X287.655Y-66.675
X295.275Y-66.675
X156.369Y-75.406
X156.369Y-83.026
X161.131Y-94.456
X161.131Y-102.076
X287.655Y-123.825
X295.275Y-123.825
X32.544Y-56.356
X32.544Y-63.976
X134.938Y-132.556
X134.938Y-140.176
X51.594Y-56.356
X51.594Y-63.976
X63.5Y-132.556
X63.5Y-140.176
X184.944Y-56.356
X184.944Y-63.976
X270.669Y-56.356
X270.669Y-63.976
X275.431Y-75.406
X275.431Y-83.026
X280.194Y-132.556
X280.194Y-140.176
X208.756Y-113.506
X208.756Y-121.126
X108.744Y-56.356
X108.744Y-63.976
X99.219Y-75.406
X99.219Y-83.026
X127.794Y-56.356
X127.794Y-63.976
X218.281Y-94.456
X218.281Y-102.076
X123.031Y-94.456
X123.031Y-102.076
X18.256Y-75.406
X18.256Y-83.026
X189.706Y-113.506
X189.706Y-121.126
X251.619Y-75.406
X251.619Y-83.026
X75.406Y-113.506
X75.406Y-121.126
X213.519Y-75.406
X213.519Y-83.026
X268.287Y-94.456
X268.287Y-102.076
X118.269Y-75.406
X118.269Y-83.026
X113.506Y-113.506
X113.506Y-121.126
X261.144Y-132.556
X261.144Y-140.176
X39.688Y-132.556
X39.688Y-140.176
X287.655Y-85.725
X295.275Y-85.725
X84.931Y-94.456
X84.931Y-102.076
X254.0Y-113.506
X254.0Y-121.126
X242.094Y-56.356
X242.094Y-63.976
X137.319Y-75.406
X137.319Y-83.026
X230.188Y-132.556
X230.188Y-140.176
X199.231Y-94.456
X199.231Y-102.076
T3
X-1.587Y-55.562
X-1.587Y-58.102
X-1.587Y-60.642
X-1.587Y-63.182
X298.45Y-55.562
X298.45Y-58.102
X298.45Y-60.642
X298.45Y-63.182
T4
X-1.27Y-89.218
X-1.27Y-104.457
X1.27Y-89.218
X1.27Y-104.457
X3.81Y-89.218
X3.81Y-104.457
X6.35Y-89.218
X6.35Y-104.457
X8.89Y-89.218
X8.89Y-104.457
X11.43Y-89.218
X11.43Y-104.457
X13.97Y-89.218
X13.97Y-104.457
X16.51Y-89.218
X16.51Y-104.457
X19.05Y-89.218
X19.05Y-104.457
X21.59Y-89.218
X21.59Y-104.457
X24.13Y-89.218
X24.13Y-104.457
X26.67Y-89.218
X26.67Y-104.457
T5
X130.334Y-94.297
X131.604Y-101.917
X136.684Y-91.757
X137.954Y-99.377
X239.871Y-75.248
X241.141Y-82.867
X246.221Y-72.707
X247.491Y-80.328
X30.321Y-75.248
X31.591Y-82.867
X36.671Y-72.707
X37.941Y-80.328
X35.084Y-94.297
X36.354Y-101.917
X41.434Y-91.757
X42.704Y-99.377
X63.659Y-113.347
X64.929Y-120.968
X70.009Y-110.807
X71.279Y-118.427
X182.721Y-75.248
X183.991Y-82.867
X189.071Y-72.707
X190.341Y-80.328
X225.584Y-94.297
X226.854Y-101.917
X231.934Y-91.757
X233.204Y-99.377
X268.446Y-113.347
X269.716Y-120.968
X274.796Y-110.807
X276.066Y-118.427
X168.434Y-94.297
X169.704Y-101.917
X174.784Y-91.757
X176.054Y-99.377
X54.134Y-94.297
X55.404Y-101.917
X60.484Y-91.757
X61.754Y-99.377
X44.609Y-113.347
X45.879Y-120.968
X50.959Y-110.807
X52.229Y-118.427
X201.771Y-75.248
X203.041Y-82.867
X208.121Y-72.707
X209.391Y-80.328
X73.184Y-94.297
X74.454Y-101.917
X79.534Y-91.757
X80.804Y-99.377
X39.846Y-56.197
X41.116Y-63.817
X46.196Y-53.657
X47.466Y-61.277
X287.496Y-132.398
X288.766Y-140.017
X293.846Y-129.857
X295.116Y-137.477
X177.959Y-113.347
X179.229Y-120.968
X184.309Y-110.807
X185.579Y-118.427
X13.652Y-113.347
X14.922Y-120.968
X20.002Y-110.807
X21.272Y-118.427
X139.859Y-113.347
X141.129Y-120.968
X146.209Y-110.807
X147.479Y-118.427
X87.471Y-75.248
X88.741Y-82.867
X93.821Y-72.707
X95.091Y-80.328
X68.421Y-75.248
X69.691Y-82.867
X74.771Y-72.707
X76.041Y-80.328
X230.346Y-56.197
X231.616Y-63.817
X236.696Y-53.657
X237.966Y-61.277
X258.921Y-56.197
X260.191Y-63.817
X265.271Y-53.657
X266.541Y-61.277
X51.752Y-132.398
X53.023Y-140.017
X58.102Y-129.857
X59.372Y-137.477
X92.234Y-94.297
X93.504Y-101.917
X98.584Y-91.757
X99.854Y-99.377
X6.509Y-75.248
X7.779Y-82.867
X12.859Y-72.707
X14.129Y-80.328
X263.684Y-75.248
X264.954Y-82.867
X270.034Y-72.707
X271.304Y-80.328
X154.146Y-56.197
X155.416Y-63.817
X160.496Y-53.657
X161.766Y-61.277
X287.496Y-94.297
X288.766Y-101.917
X293.846Y-91.757
X295.116Y-99.377
X187.484Y-94.297
X188.754Y-101.917
X193.834Y-91.757
X195.104Y-99.377
X27.94Y-132.398
X29.21Y-140.017
X34.29Y-129.857
X35.56Y-137.477
X211.296Y-56.197
X212.566Y-63.817
X217.646Y-53.657
X218.916Y-61.277
X120.809Y-113.347
X122.079Y-120.968
X127.159Y-110.807
X128.429Y-118.427
X144.621Y-75.248
X145.891Y-82.867
X150.971Y-72.707
X152.241Y-80.328
X249.396Y-132.398
X250.666Y-140.017
X255.746Y-129.857
X257.016Y-137.477
X49.371Y-75.248
X50.641Y-82.867
X55.721Y-72.707
X56.991Y-80.328
X135.096Y-56.197
X136.366Y-63.817
X141.446Y-53.657
X142.716Y-61.277
X163.671Y-75.248
X164.941Y-82.867
X170.021Y-72.707
X171.291Y-80.328
X192.246Y-56.197
X193.516Y-63.817
X198.596Y-53.657
X199.866Y-61.277
X287.496Y-113.347
X288.766Y-120.968
X293.846Y-110.807
X295.116Y-118.427
X256.54Y-94.297
X257.81Y-101.917
X262.89Y-91.757
X264.16Y-99.377
X206.534Y-94.297
X207.804Y-101.917
X212.884Y-91.757
X214.154Y-99.377
X8.89Y-94.297
X10.16Y-101.917
X15.24Y-91.757
X16.51Y-99.377
X268.446Y-132.398
X269.716Y-140.017
X274.796Y-129.857
X276.066Y-137.477
X218.44Y-132.398
X219.71Y-140.017
X224.79Y-129.857
X226.06Y-137.477
X287.496Y-56.197
X288.766Y-63.817
X293.846Y-53.657
X295.116Y-61.277
X242.252Y-113.347
X243.522Y-120.968
X248.602Y-110.807
X249.873Y-118.427
X194.627Y-132.398
X195.897Y-140.017
X200.977Y-129.857
X202.248Y-137.477
X216.059Y-113.347
X217.329Y-120.968
X222.409Y-110.807
X223.679Y-118.427
X125.571Y-75.248
X126.841Y-82.867
X131.921Y-72.707
X133.191Y-80.328
X197.009Y-113.347
X198.279Y-120.968
X203.359Y-110.807
X204.629Y-118.427
X111.284Y-94.297
X112.554Y-101.917
X117.634Y-91.757
X118.904Y-99.377
X101.759Y-113.347
X103.029Y-120.968
X108.109Y-110.807
X109.379Y-118.427
X220.821Y-75.248
X222.091Y-82.867
X227.171Y-72.707
X228.441Y-80.328
X58.896Y-56.197
X60.166Y-63.817
X65.246Y-53.657
X66.516Y-61.277
X116.046Y-56.197
X117.316Y-63.817
X122.396Y-53.657
X123.666Y-61.277
X106.521Y-75.248
X107.791Y-82.867
X112.871Y-72.707
X114.141Y-80.328
X158.909Y-113.347
X160.179Y-120.968
X165.259Y-110.807
X166.529Y-118.427
X287.496Y-75.248
X288.766Y-82.867
X293.846Y-72.707
X295.116Y-80.328
X4.127Y-132.398
X5.397Y-140.017
X10.477Y-129.857
X11.747Y-137.477
X20.796Y-56.197
X22.066Y-63.817
X27.146Y-53.657
X28.416Y-61.277
X82.709Y-113.347
X83.979Y-120.968
X89.059Y-110.807
X90.329Y-118.427
X173.196Y-56.197
X174.466Y-63.817
X179.546Y-53.657
X180.816Y-61.277
X1.746Y-56.197
X3.016Y-63.817
X8.096Y-53.657
X9.366Y-61.277
X123.19Y-132.398
X124.46Y-140.017
X129.54Y-129.857
X130.81Y-137.477
X149.384Y-94.297
X150.654Y-101.917
X155.734Y-91.757
X157.004Y-99.377
X77.946Y-56.197
X79.216Y-63.817
X84.296Y-53.657
X85.566Y-61.277
X96.996Y-56.197
X98.266Y-63.817
X103.346Y-53.657
X104.616Y-61.277
T6
X190.976Y-58.737
X201.136Y-58.737
X286.226Y-115.887
X296.386Y-115.887
X205.264Y-96.837
X215.424Y-96.837
X267.176Y-134.938
X277.336Y-134.938
X286.226Y-58.737
X296.386Y-58.737
X214.789Y-115.887
X224.949Y-115.887
X124.301Y-77.787
X134.461Y-77.787
X195.739Y-115.887
X205.899Y-115.887
X110.014Y-96.837
X120.174Y-96.837
X100.489Y-115.887
X110.649Y-115.887
X219.551Y-77.787
X229.711Y-77.787
X57.626Y-58.737
X67.786Y-58.737
X114.776Y-58.737
X124.936Y-58.737
X105.251Y-77.787
X115.411Y-77.787
X157.639Y-115.887
X167.799Y-115.887
X286.226Y-77.787
X296.386Y-77.787
X19.526Y-58.737
X29.686Y-58.737
X81.439Y-115.887
X91.599Y-115.887
X171.926Y-58.737
X182.086Y-58.737
X0.476Y-58.737
X10.636Y-58.737
X148.114Y-96.837
X158.274Y-96.837
X76.676Y-58.737
X86.836Y-58.737
X95.726Y-58.737
X105.886Y-58.737
X129.064Y-96.837
X139.224Y-96.837
X238.601Y-77.787
X248.761Y-77.787
X29.051Y-77.787
X39.211Y-77.787
X33.814Y-96.837
X43.974Y-96.837
X62.389Y-115.887
X72.549Y-115.887
X181.451Y-77.787
X191.611Y-77.787
X224.314Y-96.837
X234.474Y-96.837
X267.176Y-115.887
X277.336Y-115.887
X167.164Y-96.837
X177.324Y-96.837
X52.864Y-96.837
X63.024Y-96.837
X43.339Y-115.887
X53.499Y-115.887
X200.501Y-77.787
X210.661Y-77.787
X71.914Y-96.837
X82.074Y-96.837
X38.576Y-58.737
X48.736Y-58.737
X286.226Y-134.938
X296.386Y-134.938
X176.689Y-115.887
X186.849Y-115.887
X138.589Y-115.887
X148.749Y-115.887
X86.201Y-77.787
X96.361Y-77.787
X67.151Y-77.787
X77.311Y-77.787
X229.076Y-58.737
X239.236Y-58.737
X90.964Y-96.837
X101.124Y-96.837
X152.876Y-58.737
X163.036Y-58.737
X286.226Y-96.837
X296.386Y-96.837
X186.214Y-96.837
X196.374Y-96.837
X210.026Y-58.737
X220.186Y-58.737
X119.539Y-115.887
X129.699Y-115.887
X143.351Y-77.787
X153.511Y-77.787
X248.126Y-134.938
X258.286Y-134.938
X48.101Y-77.787
X58.261Y-77.787
X133.826Y-58.737
X143.986Y-58.737
X162.401Y-77.787
X172.561Y-77.787
T7
X90.964Y-96.837
X101.124Y-96.837
X5.239Y-77.787
X15.399Y-77.787
X262.414Y-77.787
X272.574Y-77.787
X152.876Y-58.737
X163.036Y-58.737
X286.226Y-96.837
X296.386Y-96.837
X186.214Y-96.837
X196.374Y-96.837
X26.67Y-134.938
X36.83Y-134.938
X210.026Y-58.737
X220.186Y-58.737
X119.539Y-115.887
X129.699Y-115.887
X143.351Y-77.787
X153.511Y-77.787
X248.126Y-134.938
X258.286Y-134.938
X48.101Y-77.787
X58.261Y-77.787
X133.826Y-58.737
X143.986Y-58.737
X162.401Y-77.787
X172.561Y-77.787
X190.976Y-58.737
X201.136Y-58.737
X286.226Y-115.887
X296.386Y-115.887
X255.27Y-96.837
X265.43Y-96.837
X205.264Y-96.837
X215.424Y-96.837
X7.62Y-96.837
X17.78Y-96.837
X267.176Y-134.938
X277.336Y-134.938
X217.17Y-134.938
X227.33Y-134.938
X286.226Y-58.737
X296.386Y-58.737
X240.982Y-115.887
X251.142Y-115.887
X193.357Y-134.938
X203.517Y-134.938
X214.789Y-115.887
X224.949Y-115.887
X124.301Y-77.787
X134.461Y-77.787
X195.739Y-115.887
X205.899Y-115.887
X110.014Y-96.837
X120.174Y-96.837
X100.489Y-115.887
X110.649Y-115.887
X219.551Y-77.787
X229.711Y-77.787
X57.626Y-58.737
X67.786Y-58.737
X114.776Y-58.737
X124.936Y-58.737
X105.251Y-77.787
X115.411Y-77.787
X157.639Y-115.887
X167.799Y-115.887
X286.226Y-77.787
X296.386Y-77.787
X2.857Y-134.938
X13.018Y-134.938
X19.526Y-58.737
X29.686Y-58.737
X81.439Y-115.887
X91.599Y-115.887
X171.926Y-58.737
X182.086Y-58.737
X0.476Y-58.737
X10.636Y-58.737
X121.92Y-134.938
X132.08Y-134.938
X148.114Y-96.837
X158.274Y-96.837
X76.676Y-58.737
X86.836Y-58.737
X95.726Y-58.737
X105.886Y-58.737
X129.064Y-96.837
X139.224Y-96.837
X238.601Y-77.787
X248.761Y-77.787
X29.051Y-77.787
X39.211Y-77.787
X33.814Y-96.837
X43.974Y-96.837
X62.389Y-115.887
X72.549Y-115.887
X181.451Y-77.787
X191.611Y-77.787
X224.314Y-96.837
X234.474Y-96.837
X267.176Y-115.887
X277.336Y-115.887
X167.164Y-96.837
X177.324Y-96.837
X52.864Y-96.837
X63.024Y-96.837
X43.339Y-115.887
X53.499Y-115.887
X200.501Y-77.787
X210.661Y-77.787
X71.914Y-96.837
X82.074Y-96.837
X38.576Y-58.737
X48.736Y-58.737
X286.226Y-134.938
X296.386Y-134.938
X176.689Y-115.887
X186.849Y-115.887
X12.383Y-115.887
X22.543Y-115.887
X138.589Y-115.887
X148.749Y-115.887
X86.201Y-77.787
X96.361Y-77.787
X67.151Y-77.787
X77.311Y-77.787
X229.076Y-58.737
X239.236Y-58.737
X257.651Y-58.737
X267.811Y-58.737
X50.482Y-134.938
X60.642Y-134.938
T8
X5.556Y-108.902
X29.369Y-108.902
X250.825Y-51.752
X274.637Y-51.752
X248.444Y-89.852
X272.256Y-89.852
X77.0Y-127.953
X177.0Y-127.953
T9
X7.938Y-134.938
X24.606Y-58.737
X86.519Y-115.887
X177.006Y-58.737
X5.556Y-58.737
X77.0Y-143.192
X127.0Y-134.938
X177.0Y-143.192
X153.194Y-96.837
X81.756Y-58.737
X100.806Y-58.737
X134.144Y-96.837
X243.681Y-77.787
X34.131Y-77.787
X38.894Y-96.837
X67.469Y-115.887
X186.531Y-77.787
X229.394Y-96.837
X272.256Y-115.887
X172.244Y-96.837
X57.944Y-96.837
X48.419Y-115.887
X205.581Y-77.787
X76.994Y-96.837
X43.656Y-58.737
X291.306Y-134.938
X181.769Y-115.887
X5.556Y-124.142
X17.462Y-115.887
X29.369Y-124.142
X143.669Y-115.887
X91.281Y-77.787
X72.231Y-77.787
X234.156Y-58.737
X250.825Y-66.992
X262.731Y-58.737
X274.637Y-66.992
X55.562Y-134.938
X96.044Y-96.837
X10.319Y-77.787
X267.494Y-77.787
X157.956Y-58.737
X291.306Y-96.837
X191.294Y-96.837
X31.75Y-134.938
X215.106Y-58.737
X124.619Y-115.887
X148.431Y-77.787
X253.206Y-134.938
X53.181Y-77.787
X138.906Y-58.737
X167.481Y-77.787
X196.056Y-58.737
X291.306Y-115.887
X248.444Y-105.093
X260.35Y-96.837
X272.256Y-105.093
X210.344Y-96.837
X12.7Y-96.837
X272.256Y-134.938
X222.25Y-134.938
X291.306Y-58.737
X246.062Y-115.887
X198.438Y-134.938
X219.869Y-115.887
X129.381Y-77.787
X200.819Y-115.887
X115.094Y-96.837
X105.569Y-115.887
X224.631Y-77.787
X62.706Y-58.737
X119.856Y-58.737
X110.331Y-77.787
X162.719Y-115.887
X291.306Y-77.787
T10
X196.056Y-58.737
X291.306Y-115.887
X210.344Y-96.837
X272.256Y-134.938
X291.306Y-58.737
X219.869Y-115.887
X129.381Y-77.787
X200.819Y-115.887
X115.094Y-96.837
X105.569Y-115.887
X224.631Y-77.787
X62.706Y-58.737
X119.856Y-58.737
X110.331Y-77.787
X162.719Y-115.887
X291.306Y-77.787
X24.606Y-58.737
X86.519Y-115.887
X177.006Y-58.737
X5.556Y-58.737
X153.194Y-96.837
X81.756Y-58.737
X100.806Y-58.737
X134.144Y-96.837
X243.681Y-77.787
X34.131Y-77.787
X38.894Y-96.837
X67.469Y-115.887
X186.531Y-77.787
X229.394Y-96.837
X272.256Y-115.887
X172.244Y-96.837
X57.944Y-96.837
X48.419Y-115.887
X205.581Y-77.787
X76.994Y-96.837
X43.656Y-58.737
X291.306Y-134.938
X181.769Y-115.887
X143.669Y-115.887
X91.281Y-77.787
X72.231Y-77.787
X234.156Y-58.737
X96.044Y-96.837
X157.956Y-58.737
X291.306Y-96.837
X191.294Y-96.837
X215.106Y-58.737
X124.619Y-115.887
X148.431Y-77.787
X253.206Y-134.938
X53.181Y-77.787
X138.906Y-58.737
X167.481Y-77.787
T0
M30
