G04 #@! TF.GenerationSoftware,KiCad,Pcbnew,(5.1.4)-1*
G04 #@! TF.CreationDate,2021-01-04T02:31:07-06:00*
G04 #@! TF.ProjectId,65Numpad,36354e75-6d70-4616-942e-6b696361645f,rev?*
G04 #@! TF.SameCoordinates,Original*
G04 #@! TF.FileFunction,Copper,L2,Bot*
G04 #@! TF.FilePolarity,Positive*
%FSLAX46Y46*%
G04 Gerber Fmt 4.6, Leading zero omitted, Abs format (unit mm)*
G04 Created by KiCad (PCBNEW (5.1.4)-1) date 2021-01-04 02:31:07*
%MOMM*%
%LPD*%
G04 APERTURE LIST*
%ADD10C,2.600000*%
%ADD11R,1.700000X1.700000*%
%ADD12O,1.700000X1.700000*%
%ADD13R,1.600000X1.600000*%
%ADD14O,1.600000X1.600000*%
%ADD15C,1.752600*%
%ADD16R,1.752600X1.752600*%
%ADD17C,0.800000*%
%ADD18C,0.254000*%
%ADD19C,0.381000*%
G04 APERTURE END LIST*
D10*
X54133750Y-94297500D03*
X60483750Y-91757500D03*
X61753750Y-99377500D03*
X55403750Y-101917500D03*
D11*
X-1587500Y-55562500D03*
D12*
X-1587500Y-58102500D03*
X-1587500Y-60642500D03*
X-1587500Y-63182500D03*
D10*
X20796250Y-56197500D03*
X27146250Y-53657500D03*
X28416250Y-61277500D03*
X22066250Y-63817500D03*
X225583750Y-94297500D03*
X231933750Y-91757500D03*
X233203750Y-99377500D03*
X226853750Y-101917500D03*
X120808750Y-113347500D03*
X127158750Y-110807500D03*
X128428750Y-118427500D03*
X122078750Y-120967500D03*
X216058750Y-113347500D03*
X222408750Y-110807500D03*
X223678750Y-118427500D03*
X217328750Y-120967500D03*
X187483750Y-94297500D03*
X193833750Y-91757500D03*
X195103750Y-99377500D03*
X188753750Y-101917500D03*
X111283750Y-94297500D03*
X117633750Y-91757500D03*
X118903750Y-99377500D03*
X112553750Y-101917500D03*
X4127500Y-132397500D03*
X10477500Y-129857500D03*
X5397500Y-140017500D03*
X11747500Y-137477500D03*
X20002500Y-110807500D03*
X13652500Y-113347500D03*
X14922500Y-120967500D03*
X21272500Y-118427500D03*
X82708750Y-113347500D03*
X89058750Y-110807500D03*
X90328750Y-118427500D03*
X83978750Y-120967500D03*
X242252500Y-113347500D03*
X248602500Y-110807500D03*
X243522500Y-120967500D03*
X249872500Y-118427500D03*
X139858750Y-113347500D03*
X146208750Y-110807500D03*
X147478750Y-118427500D03*
X141128750Y-120967500D03*
X239871250Y-75247500D03*
X246221250Y-72707500D03*
X247491250Y-80327500D03*
X241141250Y-82867500D03*
X49371250Y-75247500D03*
X55721250Y-72707500D03*
X56991250Y-80327500D03*
X50641250Y-82867500D03*
X6508750Y-75247500D03*
X12858750Y-72707500D03*
X7778750Y-82867500D03*
X14128750Y-80327500D03*
X154146250Y-56197500D03*
X160496250Y-53657500D03*
X161766250Y-61277500D03*
X155416250Y-63817500D03*
X192246250Y-56197500D03*
X198596250Y-53657500D03*
X199866250Y-61277500D03*
X193516250Y-63817500D03*
X44608750Y-113347500D03*
X50958750Y-110807500D03*
X52228750Y-118427500D03*
X45878750Y-120967500D03*
X125571250Y-75247500D03*
X131921250Y-72707500D03*
X133191250Y-80327500D03*
X126841250Y-82867500D03*
X63658750Y-113347500D03*
X70008750Y-110807500D03*
X71278750Y-118427500D03*
X64928750Y-120967500D03*
X27940000Y-132397500D03*
X34290000Y-129857500D03*
X29210000Y-140017500D03*
X35560000Y-137477500D03*
X101758750Y-113347500D03*
X108108750Y-110807500D03*
X109378750Y-118427500D03*
X103028750Y-120967500D03*
X268446250Y-113347500D03*
X274796250Y-110807500D03*
X276066250Y-118427500D03*
X269716250Y-120967500D03*
X144621250Y-75247500D03*
X150971250Y-72707500D03*
X152241250Y-80327500D03*
X145891250Y-82867500D03*
X39846250Y-56197500D03*
X46196250Y-53657500D03*
X47466250Y-61277500D03*
X41116250Y-63817500D03*
X58896250Y-56197500D03*
X65246250Y-53657500D03*
X66516250Y-61277500D03*
X60166250Y-63817500D03*
X106521250Y-75247500D03*
X112871250Y-72707500D03*
X114141250Y-80327500D03*
X107791250Y-82867500D03*
X123190000Y-132397500D03*
X129540000Y-129857500D03*
X124460000Y-140017500D03*
X130810000Y-137477500D03*
X116046250Y-56197500D03*
X122396250Y-53657500D03*
X123666250Y-61277500D03*
X117316250Y-63817500D03*
X135096250Y-56197500D03*
X141446250Y-53657500D03*
X142716250Y-61277500D03*
X136366250Y-63817500D03*
X206533750Y-94297500D03*
X212883750Y-91757500D03*
X214153750Y-99377500D03*
X207803750Y-101917500D03*
X287496250Y-132397500D03*
X293846250Y-129857500D03*
X295116250Y-137477500D03*
X288766250Y-140017500D03*
X87471250Y-75247500D03*
X93821250Y-72707500D03*
X95091250Y-80327500D03*
X88741250Y-82867500D03*
X30321250Y-75247500D03*
X36671250Y-72707500D03*
X37941250Y-80327500D03*
X31591250Y-82867500D03*
X287496250Y-94297500D03*
X293846250Y-91757500D03*
X295116250Y-99377500D03*
X288766250Y-101917500D03*
X287496250Y-113347500D03*
X293846250Y-110807500D03*
X295116250Y-118427500D03*
X288766250Y-120967500D03*
X197008750Y-113347500D03*
X203358750Y-110807500D03*
X204628750Y-118427500D03*
X198278750Y-120967500D03*
X201771250Y-75247500D03*
X208121250Y-72707500D03*
X209391250Y-80327500D03*
X203041250Y-82867500D03*
X182721250Y-75247500D03*
X189071250Y-72707500D03*
X190341250Y-80327500D03*
X183991250Y-82867500D03*
X173196250Y-56197500D03*
X179546250Y-53657500D03*
X180816250Y-61277500D03*
X174466250Y-63817500D03*
X211296250Y-56197500D03*
X217646250Y-53657500D03*
X218916250Y-61277500D03*
X212566250Y-63817500D03*
X158908750Y-113347500D03*
X165258750Y-110807500D03*
X166528750Y-118427500D03*
X160178750Y-120967500D03*
X249396250Y-132397500D03*
X255746250Y-129857500D03*
X257016250Y-137477500D03*
X250666250Y-140017500D03*
X220821250Y-75247500D03*
X227171250Y-72707500D03*
X228441250Y-80327500D03*
X222091250Y-82867500D03*
X168433750Y-94297500D03*
X174783750Y-91757500D03*
X176053750Y-99377500D03*
X169703750Y-101917500D03*
X149383750Y-94297500D03*
X155733750Y-91757500D03*
X157003750Y-99377500D03*
X150653750Y-101917500D03*
X163671250Y-75247500D03*
X170021250Y-72707500D03*
X171291250Y-80327500D03*
X164941250Y-82867500D03*
X287496250Y-75247500D03*
X293846250Y-72707500D03*
X295116250Y-80327500D03*
X288766250Y-82867500D03*
X130333750Y-94297500D03*
X136683750Y-91757500D03*
X137953750Y-99377500D03*
X131603750Y-101917500D03*
X77946250Y-56197500D03*
X84296250Y-53657500D03*
X85566250Y-61277500D03*
X79216250Y-63817500D03*
X218440000Y-132397500D03*
X224790000Y-129857500D03*
X219710000Y-140017500D03*
X226060000Y-137477500D03*
X96996250Y-56197500D03*
X103346250Y-53657500D03*
X104616250Y-61277500D03*
X98266250Y-63817500D03*
X92233750Y-94297500D03*
X98583750Y-91757500D03*
X99853750Y-99377500D03*
X93503750Y-101917500D03*
X1746250Y-56197500D03*
X8096250Y-53657500D03*
X9366250Y-61277500D03*
X3016250Y-63817500D03*
X230346250Y-56197500D03*
X236696250Y-53657500D03*
X237966250Y-61277500D03*
X231616250Y-63817500D03*
X262890000Y-91757500D03*
X256540000Y-94297500D03*
X257810000Y-101917500D03*
X264160000Y-99377500D03*
X68421250Y-75247500D03*
X74771250Y-72707500D03*
X76041250Y-80327500D03*
X69691250Y-82867500D03*
X268446250Y-132397500D03*
X274796250Y-129857500D03*
X276066250Y-137477500D03*
X269716250Y-140017500D03*
X287496250Y-56197500D03*
X293846250Y-53657500D03*
X295116250Y-61277500D03*
X288766250Y-63817500D03*
X73183750Y-94297500D03*
X79533750Y-91757500D03*
X80803750Y-99377500D03*
X74453750Y-101917500D03*
X177958750Y-113347500D03*
X184308750Y-110807500D03*
X185578750Y-118427500D03*
X179228750Y-120967500D03*
X8890000Y-94297500D03*
X15240000Y-91757500D03*
X10160000Y-101917500D03*
X16510000Y-99377500D03*
X258921250Y-56197500D03*
X265271250Y-53657500D03*
X260191250Y-63817500D03*
X266541250Y-61277500D03*
X263683750Y-75247500D03*
X270033750Y-72707500D03*
X264953750Y-82867500D03*
X271303750Y-80327500D03*
X194627500Y-132397500D03*
X200977500Y-129857500D03*
X195897500Y-140017500D03*
X202247500Y-137477500D03*
X51752500Y-132397500D03*
X58102500Y-129857500D03*
X53022500Y-140017500D03*
X59372500Y-137477500D03*
X35083750Y-94297500D03*
X41433750Y-91757500D03*
X42703750Y-99377500D03*
X36353750Y-101917500D03*
D13*
X295275000Y-123825000D03*
D14*
X287655000Y-123825000D03*
D13*
X295275000Y-104775000D03*
D14*
X287655000Y-104775000D03*
D13*
X295275000Y-142875000D03*
D14*
X287655000Y-142875000D03*
D13*
X280193750Y-140176250D03*
D14*
X280193750Y-132556250D03*
D13*
X261143750Y-140176250D03*
D14*
X261143750Y-132556250D03*
D13*
X230187500Y-140176250D03*
D14*
X230187500Y-132556250D03*
D13*
X206375000Y-140176250D03*
D14*
X206375000Y-132556250D03*
D13*
X134937500Y-140176250D03*
D14*
X134937500Y-132556250D03*
D13*
X63500000Y-140176250D03*
D14*
X63500000Y-132556250D03*
D13*
X39687500Y-140176250D03*
D14*
X39687500Y-132556250D03*
D13*
X15875000Y-140176250D03*
D14*
X15875000Y-132556250D03*
D13*
X295275000Y-85725000D03*
D14*
X287655000Y-85725000D03*
D13*
X280193750Y-121126250D03*
D14*
X280193750Y-113506250D03*
D13*
X254000000Y-121126250D03*
D14*
X254000000Y-113506250D03*
D13*
X227806250Y-121126250D03*
D14*
X227806250Y-113506250D03*
D13*
X208756250Y-121126250D03*
D14*
X208756250Y-113506250D03*
D13*
X189706250Y-121126250D03*
D14*
X189706250Y-113506250D03*
D13*
X170656250Y-121126250D03*
D14*
X170656250Y-113506250D03*
D13*
X151606250Y-121126250D03*
D14*
X151606250Y-113506250D03*
D13*
X132556250Y-121126250D03*
D14*
X132556250Y-113506250D03*
D13*
X113506250Y-121126250D03*
D14*
X113506250Y-113506250D03*
D13*
X94456250Y-121126250D03*
D14*
X94456250Y-113506250D03*
D13*
X75406250Y-121126250D03*
D14*
X75406250Y-113506250D03*
D13*
X56356250Y-121126250D03*
D14*
X56356250Y-113506250D03*
D13*
X25400000Y-121126250D03*
D14*
X25400000Y-113506250D03*
D13*
X295275000Y-66675000D03*
D14*
X287655000Y-66675000D03*
D13*
X268287500Y-102076250D03*
D14*
X268287500Y-94456250D03*
D13*
X237331250Y-102076250D03*
D14*
X237331250Y-94456250D03*
D13*
X218281250Y-102076250D03*
D14*
X218281250Y-94456250D03*
D13*
X199231250Y-102076250D03*
D14*
X199231250Y-94456250D03*
D13*
X180181250Y-102076250D03*
D14*
X180181250Y-94456250D03*
D13*
X161131250Y-102076250D03*
D14*
X161131250Y-94456250D03*
D13*
X142081250Y-102076250D03*
D14*
X142081250Y-94456250D03*
D13*
X123031250Y-102076250D03*
D14*
X123031250Y-94456250D03*
D13*
X103981250Y-102076250D03*
D14*
X103981250Y-94456250D03*
D13*
X84931250Y-102076250D03*
D14*
X84931250Y-94456250D03*
D13*
X65881250Y-102076250D03*
D14*
X65881250Y-94456250D03*
D13*
X46831250Y-102076250D03*
D14*
X46831250Y-94456250D03*
D13*
X20637500Y-102076250D03*
D14*
X20637500Y-94456250D03*
D13*
X275431250Y-83026250D03*
D14*
X275431250Y-75406250D03*
D13*
X251618750Y-83026250D03*
D14*
X251618750Y-75406250D03*
D13*
X232568750Y-83026250D03*
D14*
X232568750Y-75406250D03*
D13*
X213518750Y-83026250D03*
D14*
X213518750Y-75406250D03*
D13*
X194468750Y-83026250D03*
D14*
X194468750Y-75406250D03*
D13*
X175418750Y-83026250D03*
D14*
X175418750Y-75406250D03*
D13*
X156368750Y-83026250D03*
D14*
X156368750Y-75406250D03*
D13*
X137318750Y-83026250D03*
D14*
X137318750Y-75406250D03*
D13*
X118268750Y-83026250D03*
D14*
X118268750Y-75406250D03*
D13*
X99218750Y-83026250D03*
D14*
X99218750Y-75406250D03*
D13*
X80168750Y-83026250D03*
D14*
X80168750Y-75406250D03*
D13*
X61118750Y-83026250D03*
D14*
X61118750Y-75406250D03*
D13*
X42068750Y-83026250D03*
D14*
X42068750Y-75406250D03*
D13*
X18256250Y-83026250D03*
D14*
X18256250Y-75406250D03*
D13*
X270668750Y-63976250D03*
D14*
X270668750Y-56356250D03*
D13*
X242093750Y-63976250D03*
D14*
X242093750Y-56356250D03*
D13*
X223043750Y-63976250D03*
D14*
X223043750Y-56356250D03*
D13*
X203993750Y-63976250D03*
D14*
X203993750Y-56356250D03*
D13*
X184943750Y-63976250D03*
D14*
X184943750Y-56356250D03*
D13*
X165893750Y-63976250D03*
D14*
X165893750Y-56356250D03*
D13*
X146843750Y-63976250D03*
D14*
X146843750Y-56356250D03*
D13*
X127793750Y-63976250D03*
D14*
X127793750Y-56356250D03*
D13*
X108743750Y-63976250D03*
D14*
X108743750Y-56356250D03*
D13*
X89693750Y-63976250D03*
D14*
X89693750Y-56356250D03*
D13*
X70643750Y-63976250D03*
D14*
X70643750Y-56356250D03*
D13*
X51593750Y-63976250D03*
D14*
X51593750Y-56356250D03*
D13*
X32543750Y-63976250D03*
D14*
X32543750Y-56356250D03*
D13*
X13493750Y-63976250D03*
D14*
X13493750Y-56356250D03*
D15*
X-1270000Y-89217500D03*
X26670000Y-104457500D03*
X1270000Y-89217500D03*
X3810000Y-89217500D03*
X6350000Y-89217500D03*
X8890000Y-89217500D03*
X11430000Y-89217500D03*
X13970000Y-89217500D03*
X16510000Y-89217500D03*
X19050000Y-89217500D03*
X21590000Y-89217500D03*
X24130000Y-89217500D03*
X26670000Y-89217500D03*
X24130000Y-104457500D03*
X21590000Y-104457500D03*
X19050000Y-104457500D03*
X16510000Y-104457500D03*
X13970000Y-104457500D03*
X11430000Y-104457500D03*
X8890000Y-104457500D03*
X6350000Y-104457500D03*
X3810000Y-104457500D03*
X1270000Y-104457500D03*
D16*
X-1270000Y-104457500D03*
D11*
X298450000Y-55562500D03*
D12*
X298450000Y-58102500D03*
X298450000Y-60642500D03*
X298450000Y-63182500D03*
D17*
X41275000Y-103981250D03*
X20637500Y-123031250D03*
X18256250Y-125412500D03*
X42068750Y-123031250D03*
X39687500Y-125412500D03*
X41275000Y-109537500D03*
X15081250Y-107950000D03*
X46831250Y-68262500D03*
X46831250Y-65881250D03*
X76200000Y-84931250D03*
X66675000Y-65881250D03*
X66675000Y-68262500D03*
X56356250Y-84931250D03*
X61118750Y-103981250D03*
X80168750Y-103981250D03*
X69850000Y-123031250D03*
X67468750Y-125412500D03*
X80168750Y-109537500D03*
X61118750Y-109537500D03*
X94456250Y-84931250D03*
X84931250Y-65881250D03*
X84931250Y-68262500D03*
X104775000Y-65881250D03*
X104775000Y-68262500D03*
X114300000Y-84931250D03*
X99218750Y-106362500D03*
X99218750Y-103981250D03*
X118268750Y-103981250D03*
X118268750Y-107950000D03*
X200025000Y-65881250D03*
X200025000Y-68262500D03*
X219075000Y-68262500D03*
X219075000Y-65881250D03*
X208756250Y-84931250D03*
X227806250Y-84931250D03*
X213518750Y-103981250D03*
X232568750Y-103981250D03*
X186531250Y-65087500D03*
X166687500Y-87312500D03*
X42862500Y-103187500D03*
X33725728Y-104654663D03*
X232568750Y-107950000D03*
X213518750Y-107950000D03*
X237331250Y-68262500D03*
X237331250Y-65881250D03*
X263525000Y-65881250D03*
X263525000Y-67468750D03*
X246062500Y-87312500D03*
X246062500Y-84931250D03*
X263525000Y-106362500D03*
X263525000Y-104775000D03*
X42862500Y-88106250D03*
X204787500Y-87312500D03*
X55562500Y-89693750D03*
X53181250Y-89693750D03*
X161925000Y-65881250D03*
X161925000Y-68262500D03*
X180975000Y-65881250D03*
X180975000Y-68262500D03*
X170656250Y-84931250D03*
X189706250Y-84931250D03*
X175418750Y-103981250D03*
X194468750Y-103981250D03*
X263525000Y-125412500D03*
X261143750Y-126206250D03*
X213518750Y-126206250D03*
X203993750Y-122237500D03*
X148431250Y-65087500D03*
X128587500Y-87312500D03*
X35810750Y-90487500D03*
X194468750Y-107950000D03*
X175418750Y-107950000D03*
X123825000Y-65881250D03*
X123825000Y-68262500D03*
X142875000Y-65802183D03*
X142875000Y-68262500D03*
X132556250Y-84931250D03*
X151606250Y-84931250D03*
X137318750Y-103981250D03*
X156368750Y-103981250D03*
X34131250Y-105568750D03*
X40274997Y-107156250D03*
X123031250Y-106362500D03*
X100012500Y-107156250D03*
X96043750Y-107156250D03*
X212725000Y-125412500D03*
X206375000Y-123031250D03*
X192087500Y-123031250D03*
X187325000Y-123031250D03*
X173037500Y-123031250D03*
X168275000Y-123031250D03*
X156368750Y-107950000D03*
X137318750Y-107950000D03*
X256381250Y-87312500D03*
X237331250Y-106362500D03*
X100012500Y-108156253D03*
X96837500Y-107950000D03*
X11204500Y-107156250D03*
X6350000Y-55470500D03*
X282575000Y-76200000D03*
X252412500Y-92868750D03*
X250031250Y-95250000D03*
X54768750Y-90487500D03*
X52387500Y-90487500D03*
X38100000Y-89693750D03*
X18256250Y-101600000D03*
X284162500Y-75406250D03*
X254000000Y-92868750D03*
X249237500Y-96043750D03*
X50006250Y-95250000D03*
X38100000Y-100012500D03*
X29368750Y-95250000D03*
X26193750Y-95250000D03*
X11906250Y-91281250D03*
X60325000Y-142875000D03*
X66675000Y-142875000D03*
X203200000Y-142875000D03*
X209550000Y-142875000D03*
X257968750Y-142875000D03*
X264318750Y-142875000D03*
X22225000Y-123825000D03*
X72231250Y-123825000D03*
X78581250Y-123825000D03*
X110331250Y-123825000D03*
X116681250Y-123825000D03*
X148431250Y-123825000D03*
X154781250Y-123825000D03*
X186531250Y-123825000D03*
X192881250Y-123825000D03*
X224631250Y-123825000D03*
X230981250Y-123825000D03*
X32127849Y-121821599D03*
X62706250Y-104775000D03*
X69056250Y-104775000D03*
X100806250Y-104775000D03*
X107156250Y-104775000D03*
X138906250Y-104775000D03*
X145256250Y-104775000D03*
X177006250Y-104775000D03*
X183356250Y-104775000D03*
X215106250Y-104775000D03*
X221456250Y-104775000D03*
X57943750Y-85725000D03*
X64293750Y-85725000D03*
X96043750Y-85725000D03*
X102393750Y-85725000D03*
X134143750Y-85725000D03*
X140493750Y-85725000D03*
X172243750Y-85725000D03*
X178593750Y-85725000D03*
X210343750Y-85725000D03*
X216693750Y-85725000D03*
X248443750Y-85725000D03*
X251618750Y-85725000D03*
X35810750Y-86518750D03*
X34131250Y-86518750D03*
X48418750Y-66675000D03*
X54768750Y-66675000D03*
X125295308Y-66557808D03*
X130320817Y-66529183D03*
X86518750Y-66675000D03*
X92868750Y-66675000D03*
X162718750Y-66675000D03*
X169068750Y-66675000D03*
X200818750Y-66675000D03*
X207168750Y-66675000D03*
X238918750Y-66675000D03*
X242093750Y-66675000D03*
X27689250Y-67468750D03*
X29143250Y-67468750D03*
D18*
X44132500Y-91757500D02*
X46831250Y-94456250D01*
X41433750Y-91757500D02*
X44132500Y-91757500D01*
X36353750Y-100079023D02*
X36353750Y-101917500D01*
X36353750Y-95933538D02*
X36353750Y-100079023D01*
X37776789Y-94510499D02*
X36353750Y-95933538D01*
X38680751Y-94510499D02*
X37776789Y-94510499D01*
X41433750Y-91757500D02*
X38680751Y-94510499D01*
X41275000Y-106362500D02*
X41275000Y-103981250D01*
X20637500Y-123031250D02*
X18256250Y-125412500D01*
X42068750Y-123031250D02*
X39687500Y-125412500D01*
X41275000Y-106362500D02*
X41275000Y-107156250D01*
X41275000Y-107156250D02*
X41275000Y-107950000D01*
X41275000Y-107950000D02*
X41275000Y-109537500D01*
X15210001Y-100677499D02*
X16510000Y-99377500D01*
X15173301Y-100714199D02*
X15210001Y-100677499D01*
X15173301Y-105035085D02*
X15173301Y-100714199D01*
X15081250Y-105127136D02*
X15173301Y-105035085D01*
X15081250Y-107950000D02*
X15081250Y-105127136D01*
X60801250Y-129857500D02*
X63500000Y-132556250D01*
X58102500Y-129857500D02*
X60801250Y-129857500D01*
X53022500Y-138179023D02*
X53022500Y-140017500D01*
X53022500Y-134042566D02*
X53022500Y-138179023D01*
X54448467Y-132616599D02*
X53022500Y-134042566D01*
X55343401Y-132616599D02*
X54448467Y-132616599D01*
X58102500Y-129857500D02*
X55343401Y-132616599D01*
X46831250Y-68262500D02*
X46831250Y-65881250D01*
X66675000Y-65881250D02*
X66675000Y-68262500D01*
X61118750Y-106362500D02*
X61118750Y-103981250D01*
X80168750Y-106362500D02*
X80168750Y-103981250D01*
X47780260Y-75247500D02*
X49371250Y-75247500D01*
X25400000Y-85725000D02*
X42862500Y-85725000D01*
X42862500Y-85725000D02*
X46037500Y-82550000D01*
X46037500Y-82550000D02*
X46037500Y-76990260D01*
X46037500Y-76990260D02*
X47780260Y-75247500D01*
X69850000Y-123031250D02*
X67468750Y-125412500D01*
X80168750Y-107156250D02*
X80168750Y-106362500D01*
X61118750Y-106362500D02*
X61118750Y-107156250D01*
X80168750Y-107156250D02*
X80168750Y-107950000D01*
X61118750Y-107156250D02*
X61118750Y-107950000D01*
X80168750Y-107950000D02*
X80168750Y-109537500D01*
X61118750Y-107950000D02*
X61118750Y-109537500D01*
X24765000Y-85725000D02*
X21272500Y-89217500D01*
X25400000Y-85725000D02*
X24765000Y-85725000D01*
X90487500Y-118586250D02*
X90328750Y-118427500D01*
X90487500Y-126206250D02*
X90487500Y-118586250D01*
X123190000Y-132397500D02*
X96678750Y-132397500D01*
X96678750Y-132397500D02*
X90487500Y-126206250D01*
X76200000Y-91281250D02*
X73183750Y-94297500D01*
X76200000Y-84931250D02*
X76200000Y-91281250D01*
X56356250Y-92075000D02*
X54133750Y-94297500D01*
X56356250Y-84931250D02*
X56356250Y-92075000D01*
X203676250Y-129857500D02*
X206375000Y-132556250D01*
X200977500Y-129857500D02*
X203676250Y-129857500D01*
X195897500Y-138179023D02*
X195897500Y-140017500D01*
X195897500Y-134042566D02*
X195897500Y-138179023D01*
X197323467Y-132616599D02*
X195897500Y-134042566D01*
X198218401Y-132616599D02*
X197323467Y-132616599D01*
X200977500Y-129857500D02*
X198218401Y-132616599D01*
X84931250Y-65881250D02*
X84931250Y-68262500D01*
X104775000Y-65881250D02*
X104775000Y-68262500D01*
X114300000Y-87312500D02*
X114300000Y-84931250D01*
X99218750Y-106362500D02*
X99218750Y-103981250D01*
X118268750Y-106362500D02*
X118268750Y-103981250D01*
X118268750Y-106362500D02*
X118268750Y-107156250D01*
X114300000Y-88106250D02*
X114300000Y-87312500D01*
X114300000Y-88106250D02*
X114300000Y-88900000D01*
X118268750Y-107156250D02*
X118268750Y-107950000D01*
X114300000Y-88900000D02*
X114300000Y-91281250D01*
X202247500Y-137477500D02*
X206216250Y-137477500D01*
X211296250Y-132397500D02*
X218440000Y-132397500D01*
X206216250Y-137477500D02*
X211296250Y-132397500D01*
X194627500Y-132397500D02*
X148590000Y-132397500D01*
X140560273Y-132397500D02*
X148590000Y-132397500D01*
X128428750Y-120265977D02*
X140560273Y-132397500D01*
X128428750Y-118427500D02*
X128428750Y-120265977D01*
X114300000Y-91281250D02*
X111283750Y-94297500D01*
X94456250Y-92075000D02*
X92233750Y-94297500D01*
X94456250Y-84931250D02*
X94456250Y-92075000D01*
X234632500Y-91757500D02*
X237331250Y-94456250D01*
X231933750Y-91757500D02*
X234632500Y-91757500D01*
X226853750Y-100079023D02*
X226853750Y-101917500D01*
X226853750Y-95933538D02*
X226853750Y-100079023D01*
X228276789Y-94510499D02*
X226853750Y-95933538D01*
X229180751Y-94510499D02*
X228276789Y-94510499D01*
X231933750Y-91757500D02*
X229180751Y-94510499D01*
X200025000Y-65881250D02*
X200025000Y-68262500D01*
X219075000Y-68262500D02*
X219075000Y-65881250D01*
X227806250Y-87312500D02*
X227806250Y-84931250D01*
X213518750Y-106362500D02*
X213518750Y-103981250D01*
X232568750Y-106362500D02*
X232568750Y-103981250D01*
X285905260Y-113347500D02*
X275427760Y-123825000D01*
X287496250Y-113347500D02*
X285905260Y-113347500D01*
X249872500Y-120265977D02*
X249872500Y-118427500D01*
X253431523Y-123825000D02*
X249872500Y-120265977D01*
X275427760Y-123825000D02*
X253431523Y-123825000D01*
X186531250Y-65087500D02*
X186531250Y-67468750D01*
X186531250Y-67468750D02*
X166687500Y-87312500D01*
X39525625Y-104654663D02*
X33725728Y-104654663D01*
X42862500Y-103187500D02*
X40992788Y-103187500D01*
X40992788Y-103187500D02*
X39525625Y-104654663D01*
X232568750Y-106362500D02*
X232568750Y-107156250D01*
X232568750Y-107156250D02*
X232568750Y-107950000D01*
X213518750Y-106362500D02*
X213518750Y-107950000D01*
X227806250Y-87312500D02*
X227806250Y-88900000D01*
X208756250Y-92075000D02*
X206533750Y-94297500D01*
X208756250Y-84931250D02*
X208756250Y-92075000D01*
X227806250Y-92075000D02*
X225583750Y-94297500D01*
X227806250Y-88900000D02*
X227806250Y-92075000D01*
X129857500Y-110807500D02*
X132556250Y-113506250D01*
X127158750Y-110807500D02*
X129857500Y-110807500D01*
X122078750Y-119129023D02*
X122078750Y-120967500D01*
X122078750Y-114983538D02*
X122078750Y-119129023D01*
X123501789Y-113560499D02*
X122078750Y-114983538D01*
X124405751Y-113560499D02*
X123501789Y-113560499D01*
X127158750Y-110807500D02*
X124405751Y-113560499D01*
X272732500Y-72707500D02*
X275431250Y-75406250D01*
X270033750Y-72707500D02*
X272732500Y-72707500D01*
X264953750Y-81029023D02*
X264953750Y-82867500D01*
X264953750Y-76892566D02*
X264953750Y-81029023D01*
X266379717Y-75466599D02*
X264953750Y-76892566D01*
X267274651Y-75466599D02*
X266379717Y-75466599D01*
X270033750Y-72707500D02*
X267274651Y-75466599D01*
X237331250Y-68262500D02*
X237331250Y-65881250D01*
X263525000Y-65881250D02*
X263525000Y-67468750D01*
X246062500Y-87312500D02*
X246062500Y-84931250D01*
X263525000Y-106362500D02*
X263525000Y-104775000D01*
X228755260Y-56197500D02*
X230346250Y-56197500D01*
X225425000Y-59527760D02*
X228755260Y-56197500D01*
X225425000Y-66675000D02*
X225425000Y-59527760D01*
X204787500Y-87312500D02*
X225425000Y-66675000D01*
X55562500Y-89693750D02*
X53181250Y-89693750D01*
X42862500Y-88106250D02*
X42068750Y-88106250D01*
X42068750Y-88106250D02*
X38871509Y-91303491D01*
X26352500Y-100647500D02*
X26352500Y-104457500D01*
X38871509Y-91303491D02*
X35669797Y-91303491D01*
X35669797Y-91303491D02*
X28025212Y-98948076D01*
X28025212Y-98948076D02*
X28025212Y-98974788D01*
X28025212Y-98974788D02*
X26352500Y-100647500D01*
X267970000Y-53657500D02*
X270668750Y-56356250D01*
X265271250Y-53657500D02*
X267970000Y-53657500D01*
X260191250Y-61979023D02*
X260191250Y-63817500D01*
X260191250Y-57842566D02*
X260191250Y-61979023D01*
X261617217Y-56416599D02*
X260191250Y-57842566D01*
X262512151Y-56416599D02*
X261617217Y-56416599D01*
X265271250Y-53657500D02*
X262512151Y-56416599D01*
X91757500Y-110807500D02*
X94456250Y-113506250D01*
X89058750Y-110807500D02*
X91757500Y-110807500D01*
X83978750Y-119129023D02*
X83978750Y-120967500D01*
X83978750Y-114983538D02*
X83978750Y-119129023D01*
X85401789Y-113560499D02*
X83978750Y-114983538D01*
X86305751Y-113560499D02*
X85401789Y-113560499D01*
X89058750Y-110807500D02*
X86305751Y-113560499D01*
X17938750Y-91757500D02*
X20637500Y-94456250D01*
X15240000Y-91757500D02*
X17938750Y-91757500D01*
X10160000Y-100079023D02*
X10160000Y-101917500D01*
X10160000Y-95942566D02*
X10160000Y-100079023D01*
X11585967Y-94516599D02*
X10160000Y-95942566D01*
X12480901Y-94516599D02*
X11585967Y-94516599D01*
X15240000Y-91757500D02*
X12480901Y-94516599D01*
X187007500Y-110807500D02*
X189706250Y-113506250D01*
X184308750Y-110807500D02*
X187007500Y-110807500D01*
X179228750Y-119129023D02*
X179228750Y-120967500D01*
X179228750Y-114983538D02*
X179228750Y-119129023D01*
X180651789Y-113560499D02*
X179228750Y-114983538D01*
X181555751Y-113560499D02*
X180651789Y-113560499D01*
X184308750Y-110807500D02*
X181555751Y-113560499D01*
X161925000Y-65881250D02*
X161925000Y-68262500D01*
X180975000Y-65881250D02*
X180975000Y-68262500D01*
X189706250Y-87312500D02*
X189706250Y-84931250D01*
X175418750Y-106362500D02*
X175418750Y-103981250D01*
X194468750Y-106362500D02*
X194468750Y-103981250D01*
X263525000Y-125412500D02*
X261937500Y-125412500D01*
X261937500Y-125412500D02*
X261143750Y-126206250D01*
X213518750Y-126206250D02*
X207962500Y-126206250D01*
X207962500Y-126206250D02*
X203993750Y-122237500D01*
X148431250Y-67495462D02*
X128614212Y-87312500D01*
X148431250Y-65087500D02*
X148431250Y-67495462D01*
X128614212Y-87312500D02*
X128587500Y-87312500D01*
X189706250Y-87312500D02*
X189706250Y-88106250D01*
X175418750Y-106362500D02*
X175418750Y-107156250D01*
X194468750Y-106362500D02*
X194468750Y-107950000D01*
X175418750Y-107156250D02*
X175418750Y-107950000D01*
X189706250Y-88106250D02*
X189706250Y-89693750D01*
X27827250Y-98471000D02*
X35810750Y-90487500D01*
X21272500Y-104457500D02*
X27259000Y-98471000D01*
X27259000Y-98471000D02*
X27827250Y-98471000D01*
X170656250Y-92075000D02*
X168433750Y-94297500D01*
X170656250Y-84931250D02*
X170656250Y-92075000D01*
X189706250Y-92075000D02*
X187483750Y-94297500D01*
X189706250Y-89693750D02*
X189706250Y-92075000D01*
X13176250Y-129857500D02*
X15875000Y-132556250D01*
X10477500Y-129857500D02*
X13176250Y-129857500D01*
X5397500Y-138179023D02*
X5397500Y-140017500D01*
X5397500Y-134042566D02*
X5397500Y-138179023D01*
X6823467Y-132616599D02*
X5397500Y-134042566D01*
X7718401Y-132616599D02*
X6823467Y-132616599D01*
X10477500Y-129857500D02*
X7718401Y-132616599D01*
X82232500Y-91757500D02*
X84931250Y-94456250D01*
X79533750Y-91757500D02*
X82232500Y-91757500D01*
X74453750Y-100079023D02*
X74453750Y-101917500D01*
X74453750Y-95933538D02*
X74453750Y-100079023D01*
X75876789Y-94510499D02*
X74453750Y-95933538D01*
X76780751Y-94510499D02*
X75876789Y-94510499D01*
X79533750Y-91757500D02*
X76780751Y-94510499D01*
X288766250Y-103663750D02*
X288766250Y-101917500D01*
X287655000Y-104775000D02*
X288766250Y-103663750D01*
X288766250Y-100079023D02*
X288766250Y-101917500D01*
X288766250Y-95933538D02*
X288766250Y-100079023D01*
X290189289Y-94510499D02*
X288766250Y-95933538D01*
X291093251Y-94510499D02*
X290189289Y-94510499D01*
X293846250Y-91757500D02*
X291093251Y-94510499D01*
X277495000Y-129857500D02*
X280193750Y-132556250D01*
X274796250Y-129857500D02*
X277495000Y-129857500D01*
X269716250Y-138179023D02*
X269716250Y-140017500D01*
X269716250Y-134033538D02*
X269716250Y-138179023D01*
X271139289Y-132610499D02*
X269716250Y-134033538D01*
X272043251Y-132610499D02*
X271139289Y-132610499D01*
X274796250Y-129857500D02*
X272043251Y-132610499D01*
X123825000Y-65881250D02*
X123825000Y-68262500D01*
X142875000Y-65802183D02*
X142875000Y-68262500D01*
X132556250Y-87312500D02*
X132556250Y-84931250D01*
X137318750Y-106362500D02*
X137318750Y-103981250D01*
X156368750Y-106362500D02*
X156368750Y-103981250D01*
X34131250Y-105568750D02*
X35718750Y-107156250D01*
X35718750Y-107156250D02*
X40274997Y-107156250D01*
X124158251Y-98882009D02*
X124158251Y-105235499D01*
X130333750Y-94297500D02*
X128742760Y-94297500D01*
X128742760Y-94297500D02*
X124158251Y-98882009D01*
X124158251Y-105235499D02*
X123031250Y-106362500D01*
X100012500Y-107156250D02*
X96043750Y-107156250D01*
X212725000Y-125412500D02*
X210343750Y-123031250D01*
X210343750Y-123031250D02*
X206375000Y-123031250D01*
X192087500Y-123031250D02*
X187325000Y-123031250D01*
X173037500Y-123031250D02*
X168275000Y-123031250D01*
X132556250Y-87312500D02*
X132556250Y-88106250D01*
X132556250Y-88106250D02*
X132556250Y-88900000D01*
X156368750Y-106362500D02*
X156368750Y-107156250D01*
X156368750Y-107156250D02*
X156368750Y-107950000D01*
X137318750Y-106362500D02*
X137318750Y-107950000D01*
X132556250Y-88900000D02*
X132556250Y-90487500D01*
X132556250Y-92075000D02*
X130333750Y-94297500D01*
X132556250Y-90487500D02*
X132556250Y-92075000D01*
X151606250Y-92075000D02*
X149383750Y-94297500D01*
X151606250Y-84931250D02*
X151606250Y-92075000D01*
X77470000Y-72707500D02*
X80168750Y-75406250D01*
X74771250Y-72707500D02*
X77470000Y-72707500D01*
X69691250Y-81029023D02*
X69691250Y-82867500D01*
X69691250Y-76883538D02*
X69691250Y-81029023D01*
X71114289Y-75460499D02*
X69691250Y-76883538D01*
X72018251Y-75460499D02*
X71114289Y-75460499D01*
X74771250Y-72707500D02*
X72018251Y-75460499D01*
X163195000Y-53657500D02*
X165893750Y-56356250D01*
X160496250Y-53657500D02*
X163195000Y-53657500D01*
X160178750Y-53975000D02*
X160496250Y-53657500D01*
X155416250Y-61979023D02*
X155416250Y-63817500D01*
X155416250Y-57833538D02*
X155416250Y-61979023D01*
X156839289Y-56410499D02*
X155416250Y-57833538D01*
X157743251Y-56410499D02*
X156839289Y-56410499D01*
X160496250Y-53657500D02*
X157743251Y-56410499D01*
X265588750Y-91757500D02*
X268287500Y-94456250D01*
X262890000Y-91757500D02*
X265588750Y-91757500D01*
X257810000Y-100079023D02*
X257810000Y-101917500D01*
X257810000Y-95942566D02*
X257810000Y-100079023D01*
X259235967Y-94516599D02*
X257810000Y-95942566D01*
X260130901Y-94516599D02*
X259235967Y-94516599D01*
X262890000Y-91757500D02*
X260130901Y-94516599D01*
X239395000Y-53657500D02*
X242093750Y-56356250D01*
X236696250Y-53657500D02*
X239395000Y-53657500D01*
X231616250Y-61979023D02*
X231616250Y-63817500D01*
X231616250Y-57833538D02*
X231616250Y-61979023D01*
X233039289Y-56410499D02*
X231616250Y-57833538D01*
X233943251Y-56410499D02*
X233039289Y-56410499D01*
X236696250Y-53657500D02*
X233943251Y-56410499D01*
X10795000Y-53657500D02*
X13493750Y-56356250D01*
X8096250Y-53657500D02*
X10795000Y-53657500D01*
X3016250Y-61979023D02*
X3016250Y-63817500D01*
X3016250Y-57833538D02*
X3016250Y-61979023D01*
X3968750Y-56881038D02*
X3016250Y-57833538D01*
X3968750Y-55946523D02*
X3968750Y-56881038D01*
X6257773Y-53657500D02*
X3968750Y-55946523D01*
X8096250Y-53657500D02*
X6257773Y-53657500D01*
X101282500Y-91757500D02*
X103981250Y-94456250D01*
X98583750Y-91757500D02*
X101282500Y-91757500D01*
X93503750Y-100079023D02*
X93503750Y-101917500D01*
X93503750Y-95933538D02*
X93503750Y-100079023D01*
X94926789Y-94510499D02*
X93503750Y-95933538D01*
X95830751Y-94510499D02*
X94926789Y-94510499D01*
X98583750Y-91757500D02*
X95830751Y-94510499D01*
X106045000Y-53657500D02*
X108743750Y-56356250D01*
X103346250Y-53657500D02*
X106045000Y-53657500D01*
X98266250Y-61979023D02*
X98266250Y-63817500D01*
X98266250Y-57833538D02*
X98266250Y-61979023D01*
X99689289Y-56410499D02*
X98266250Y-57833538D01*
X100593251Y-56410499D02*
X99689289Y-56410499D01*
X103346250Y-53657500D02*
X100593251Y-56410499D01*
X227488750Y-129857500D02*
X230187500Y-132556250D01*
X224790000Y-129857500D02*
X227488750Y-129857500D01*
X219710000Y-138179023D02*
X219710000Y-140017500D01*
X219710000Y-134042566D02*
X219710000Y-138179023D01*
X221135967Y-132616599D02*
X219710000Y-134042566D01*
X222030901Y-132616599D02*
X221135967Y-132616599D01*
X224790000Y-129857500D02*
X222030901Y-132616599D01*
X86995000Y-53657500D02*
X89693750Y-56356250D01*
X84296250Y-53657500D02*
X86995000Y-53657500D01*
X79216250Y-61979023D02*
X79216250Y-63817500D01*
X79216250Y-57833538D02*
X79216250Y-61979023D01*
X80639289Y-56410499D02*
X79216250Y-57833538D01*
X81543251Y-56410499D02*
X80639289Y-56410499D01*
X84296250Y-53657500D02*
X81543251Y-56410499D01*
X120332500Y-91757500D02*
X123031250Y-94456250D01*
X117633750Y-91757500D02*
X120332500Y-91757500D01*
X112553750Y-100079023D02*
X112553750Y-101917500D01*
X112553750Y-95933538D02*
X112553750Y-100079023D01*
X113976789Y-94510499D02*
X112553750Y-95933538D01*
X114880751Y-94510499D02*
X113976789Y-94510499D01*
X117633750Y-91757500D02*
X114880751Y-94510499D01*
X139382500Y-91757500D02*
X142081250Y-94456250D01*
X136683750Y-91757500D02*
X139382500Y-91757500D01*
X131603750Y-100079023D02*
X131603750Y-101917500D01*
X131603750Y-95933538D02*
X131603750Y-100079023D01*
X133026789Y-94510499D02*
X131603750Y-95933538D01*
X133930751Y-94510499D02*
X133026789Y-94510499D01*
X136683750Y-91757500D02*
X133930751Y-94510499D01*
X288766250Y-122713750D02*
X288766250Y-120967500D01*
X287655000Y-123825000D02*
X288766250Y-122713750D01*
X288766250Y-119129023D02*
X288766250Y-120967500D01*
X288766250Y-114983538D02*
X288766250Y-119129023D01*
X290189289Y-113560499D02*
X288766250Y-114983538D01*
X291093251Y-113560499D02*
X290189289Y-113560499D01*
X293846250Y-110807500D02*
X291093251Y-113560499D01*
X172720000Y-72707500D02*
X175418750Y-75406250D01*
X170021250Y-72707500D02*
X172720000Y-72707500D01*
X164941250Y-81029023D02*
X164941250Y-82867500D01*
X164941250Y-76883538D02*
X164941250Y-81029023D01*
X166364289Y-75460499D02*
X164941250Y-76883538D01*
X167268251Y-75460499D02*
X166364289Y-75460499D01*
X170021250Y-72707500D02*
X167268251Y-75460499D01*
X158432500Y-91757500D02*
X161131250Y-94456250D01*
X155733750Y-91757500D02*
X158432500Y-91757500D01*
X150653750Y-100079023D02*
X150653750Y-101917500D01*
X150653750Y-95933538D02*
X150653750Y-100079023D01*
X152076789Y-94510499D02*
X150653750Y-95933538D01*
X152980751Y-94510499D02*
X152076789Y-94510499D01*
X155733750Y-91757500D02*
X152980751Y-94510499D01*
X177482500Y-91757500D02*
X180181250Y-94456250D01*
X174783750Y-91757500D02*
X177482500Y-91757500D01*
X169703750Y-100079023D02*
X169703750Y-101917500D01*
X169703750Y-95933538D02*
X169703750Y-100079023D01*
X171126789Y-94510499D02*
X169703750Y-95933538D01*
X172030751Y-94510499D02*
X171126789Y-94510499D01*
X174783750Y-91757500D02*
X172030751Y-94510499D01*
X196532500Y-91757500D02*
X199231250Y-94456250D01*
X193833750Y-91757500D02*
X196532500Y-91757500D01*
X188753750Y-100079023D02*
X188753750Y-101917500D01*
X188753750Y-95933538D02*
X188753750Y-100079023D01*
X190176789Y-94510499D02*
X188753750Y-95933538D01*
X191080751Y-94510499D02*
X190176789Y-94510499D01*
X193833750Y-91757500D02*
X191080751Y-94510499D01*
X229870000Y-72707500D02*
X232568750Y-75406250D01*
X227171250Y-72707500D02*
X229870000Y-72707500D01*
X222091250Y-81029023D02*
X222091250Y-82867500D01*
X222091250Y-76883538D02*
X222091250Y-81029023D01*
X223514289Y-75460499D02*
X222091250Y-76883538D01*
X224418251Y-75460499D02*
X223514289Y-75460499D01*
X227171250Y-72707500D02*
X224418251Y-75460499D01*
X258445000Y-129857500D02*
X261143750Y-132556250D01*
X255746250Y-129857500D02*
X258445000Y-129857500D01*
X250666250Y-138179023D02*
X250666250Y-140017500D01*
X250666250Y-134033538D02*
X250666250Y-138179023D01*
X252089289Y-132610499D02*
X250666250Y-134033538D01*
X252993251Y-132610499D02*
X252089289Y-132610499D01*
X255746250Y-129857500D02*
X252993251Y-132610499D01*
X167957500Y-110807500D02*
X170656250Y-113506250D01*
X165258750Y-110807500D02*
X167957500Y-110807500D01*
X160178750Y-119129023D02*
X160178750Y-120967500D01*
X160178750Y-114983538D02*
X160178750Y-119129023D01*
X161601789Y-113560499D02*
X160178750Y-114983538D01*
X162505751Y-113560499D02*
X161601789Y-113560499D01*
X165258750Y-110807500D02*
X162505751Y-113560499D01*
X220345000Y-53657500D02*
X223043750Y-56356250D01*
X217646250Y-53657500D02*
X220345000Y-53657500D01*
X212566250Y-61979023D02*
X212566250Y-63817500D01*
X212566250Y-57833538D02*
X212566250Y-61979023D01*
X213989289Y-56410499D02*
X212566250Y-57833538D01*
X214893251Y-56410499D02*
X213989289Y-56410499D01*
X217646250Y-53657500D02*
X214893251Y-56410499D01*
X148907500Y-110807500D02*
X151606250Y-113506250D01*
X146208750Y-110807500D02*
X148907500Y-110807500D01*
X141128750Y-119129023D02*
X141128750Y-120967500D01*
X141128750Y-114983538D02*
X141128750Y-119129023D01*
X142551789Y-113560499D02*
X141128750Y-114983538D01*
X143455751Y-113560499D02*
X142551789Y-113560499D01*
X146208750Y-110807500D02*
X143455751Y-113560499D01*
X182245000Y-53657500D02*
X184943750Y-56356250D01*
X179546250Y-53657500D02*
X182245000Y-53657500D01*
X174466250Y-61979023D02*
X174466250Y-63817500D01*
X174466250Y-57833538D02*
X174466250Y-61979023D01*
X175889289Y-56410499D02*
X174466250Y-57833538D01*
X176793251Y-56410499D02*
X175889289Y-56410499D01*
X179546250Y-53657500D02*
X176793251Y-56410499D01*
X191770000Y-72707500D02*
X194468750Y-75406250D01*
X189071250Y-72707500D02*
X191770000Y-72707500D01*
X183991250Y-81029023D02*
X183991250Y-82867500D01*
X183991250Y-76883538D02*
X183991250Y-81029023D01*
X185414289Y-75460499D02*
X183991250Y-76883538D01*
X186318251Y-75460499D02*
X185414289Y-75460499D01*
X189071250Y-72707500D02*
X186318251Y-75460499D01*
X29845000Y-53657500D02*
X32543750Y-56356250D01*
X27146250Y-53657500D02*
X29845000Y-53657500D01*
X22066250Y-61979023D02*
X22066250Y-63817500D01*
X22066250Y-57833538D02*
X22066250Y-61979023D01*
X23489289Y-56410499D02*
X22066250Y-57833538D01*
X24393251Y-56410499D02*
X23489289Y-56410499D01*
X27146250Y-53657500D02*
X24393251Y-56410499D01*
X210820000Y-72707500D02*
X213518750Y-75406250D01*
X208121250Y-72707500D02*
X210820000Y-72707500D01*
X203041250Y-81029023D02*
X203041250Y-82867500D01*
X203041250Y-76883538D02*
X203041250Y-81029023D01*
X204464289Y-75460499D02*
X203041250Y-76883538D01*
X205368251Y-75460499D02*
X204464289Y-75460499D01*
X208121250Y-72707500D02*
X205368251Y-75460499D01*
X206057500Y-110807500D02*
X208756250Y-113506250D01*
X203358750Y-110807500D02*
X206057500Y-110807500D01*
X198278750Y-119129023D02*
X198278750Y-120967500D01*
X198278750Y-114983538D02*
X198278750Y-119129023D01*
X199701789Y-113560499D02*
X198278750Y-114983538D01*
X200605751Y-113560499D02*
X199701789Y-113560499D01*
X203358750Y-110807500D02*
X200605751Y-113560499D01*
X288766250Y-84613750D02*
X288766250Y-82867500D01*
X287655000Y-85725000D02*
X288766250Y-84613750D01*
X288766250Y-81029023D02*
X288766250Y-82867500D01*
X288766250Y-76883538D02*
X288766250Y-81029023D01*
X290189289Y-75460499D02*
X288766250Y-76883538D01*
X291093251Y-75460499D02*
X290189289Y-75460499D01*
X293846250Y-72707500D02*
X291093251Y-75460499D01*
X288766250Y-65563750D02*
X288766250Y-63817500D01*
X287655000Y-66675000D02*
X288766250Y-65563750D01*
X288766250Y-61979023D02*
X288766250Y-63817500D01*
X288766250Y-57833538D02*
X288766250Y-61979023D01*
X290189289Y-56410499D02*
X288766250Y-57833538D01*
X291093251Y-56410499D02*
X290189289Y-56410499D01*
X293846250Y-53657500D02*
X291093251Y-56410499D01*
D19*
X256381250Y-87312500D02*
X237331250Y-106362500D01*
X100012500Y-108156253D02*
X97043753Y-108156253D01*
X97043753Y-108156253D02*
X96837500Y-107950000D01*
X282575000Y-58875808D02*
X282575000Y-76200000D01*
X282575000Y-58616808D02*
X282575000Y-58875808D01*
X289224809Y-51966999D02*
X282575000Y-58616808D01*
X296085499Y-51966999D02*
X289224809Y-51966999D01*
X298450000Y-54331500D02*
X296085499Y-51966999D01*
X298450000Y-55562500D02*
X298450000Y-54331500D01*
X9772551Y-105724301D02*
X11204500Y-107156250D01*
X2219301Y-105724301D02*
X9772551Y-105724301D01*
X952500Y-104457500D02*
X2219301Y-105724301D01*
X2536801Y-102873199D02*
X952500Y-104457500D01*
X2917846Y-88234788D02*
X2536801Y-88615833D01*
X6350000Y-55470500D02*
X7946751Y-57067251D01*
X2536801Y-88615833D02*
X2536801Y-102873199D01*
X7946751Y-57067251D02*
X7946751Y-59884941D01*
X6703691Y-61128001D02*
X6703691Y-62632001D01*
X7946751Y-59884941D02*
X6703691Y-61128001D01*
X6703691Y-62632001D02*
X2917846Y-66417846D01*
X2917846Y-66417846D02*
X2917846Y-88234788D01*
X252412500Y-92868750D02*
X250031250Y-95250000D01*
X54768750Y-90487500D02*
X52387500Y-90487500D01*
X38100000Y-89693750D02*
X29656116Y-89693750D01*
X29656116Y-89693750D02*
X27274866Y-92075000D01*
X27274866Y-92075000D02*
X27274866Y-92581384D01*
X27274866Y-92581384D02*
X18256250Y-101600000D01*
X1270000Y-63500000D02*
X-1587500Y-60642500D01*
X1270000Y-89217500D02*
X1270000Y-63500000D01*
X298450000Y-60642500D02*
X284162500Y-74930000D01*
X284162500Y-74930000D02*
X284162500Y-75406250D01*
X254000000Y-92868750D02*
X250825000Y-96043750D01*
X250825000Y-96043750D02*
X249237500Y-96043750D01*
X39155501Y-101068001D02*
X38100000Y-100012500D01*
X50006250Y-95250000D02*
X44188249Y-101068001D01*
X44188249Y-101068001D02*
X39155501Y-101068001D01*
X29368750Y-95250000D02*
X26193750Y-95250000D01*
X8096250Y-91281250D02*
X6032500Y-89217500D01*
X11906250Y-91281250D02*
X8096250Y-91281250D01*
D18*
X39370000Y-72707500D02*
X42068750Y-75406250D01*
X36671250Y-72707500D02*
X39370000Y-72707500D01*
X31591250Y-81029023D02*
X31591250Y-82867500D01*
X31591250Y-76883538D02*
X31591250Y-81029023D01*
X33014289Y-75460499D02*
X31591250Y-76883538D01*
X33918251Y-75460499D02*
X33014289Y-75460499D01*
X36671250Y-72707500D02*
X33918251Y-75460499D01*
X96520000Y-72707500D02*
X99218750Y-75406250D01*
X93821250Y-72707500D02*
X96520000Y-72707500D01*
X88741250Y-81029023D02*
X88741250Y-82867500D01*
X88741250Y-76883538D02*
X88741250Y-81029023D01*
X90164289Y-75460499D02*
X88741250Y-76883538D01*
X91068251Y-75460499D02*
X90164289Y-75460499D01*
X93821250Y-72707500D02*
X91068251Y-75460499D01*
X248920000Y-72707500D02*
X251618750Y-75406250D01*
X246221250Y-72707500D02*
X248920000Y-72707500D01*
X241141250Y-81029023D02*
X241141250Y-82867500D01*
X241141250Y-76883538D02*
X241141250Y-81029023D01*
X242564289Y-75460499D02*
X241141250Y-76883538D01*
X243468251Y-75460499D02*
X242564289Y-75460499D01*
X246221250Y-72707500D02*
X243468251Y-75460499D01*
X288766250Y-141763750D02*
X288766250Y-140017500D01*
X287655000Y-142875000D02*
X288766250Y-141763750D01*
X288766250Y-138179023D02*
X288766250Y-140017500D01*
X288766250Y-134033538D02*
X288766250Y-138179023D01*
X290189289Y-132610499D02*
X288766250Y-134033538D01*
X291093251Y-132610499D02*
X290189289Y-132610499D01*
X293846250Y-129857500D02*
X291093251Y-132610499D01*
X63182500Y-91757500D02*
X65881250Y-94456250D01*
X60483750Y-91757500D02*
X63182500Y-91757500D01*
X55403750Y-100079023D02*
X55403750Y-101917500D01*
X55403750Y-95933538D02*
X55403750Y-100079023D01*
X56826789Y-94510499D02*
X55403750Y-95933538D01*
X57730751Y-94510499D02*
X56826789Y-94510499D01*
X60483750Y-91757500D02*
X57730751Y-94510499D01*
X215582500Y-91757500D02*
X218281250Y-94456250D01*
X212883750Y-91757500D02*
X215582500Y-91757500D01*
X207803750Y-100079023D02*
X207803750Y-101917500D01*
X207803750Y-95933538D02*
X207803750Y-100079023D01*
X209226789Y-94510499D02*
X207803750Y-95933538D01*
X210130751Y-94510499D02*
X209226789Y-94510499D01*
X212883750Y-91757500D02*
X210130751Y-94510499D01*
X144145000Y-53657500D02*
X146843750Y-56356250D01*
X141446250Y-53657500D02*
X144145000Y-53657500D01*
X136366250Y-61979023D02*
X136366250Y-63817500D01*
X136366250Y-57833538D02*
X136366250Y-61979023D01*
X137789289Y-56410499D02*
X136366250Y-57833538D01*
X138693251Y-56410499D02*
X137789289Y-56410499D01*
X141446250Y-53657500D02*
X138693251Y-56410499D01*
X22701250Y-110807500D02*
X25400000Y-113506250D01*
X20002500Y-110807500D02*
X22701250Y-110807500D01*
X14922500Y-119129023D02*
X14922500Y-120967500D01*
X14922500Y-114992566D02*
X14922500Y-119129023D01*
X16348467Y-113566599D02*
X14922500Y-114992566D01*
X17243401Y-113566599D02*
X16348467Y-113566599D01*
X20002500Y-110807500D02*
X17243401Y-113566599D01*
X251301250Y-110807500D02*
X254000000Y-113506250D01*
X248602500Y-110807500D02*
X251301250Y-110807500D01*
X243522500Y-119129023D02*
X243522500Y-120967500D01*
X243522500Y-114992566D02*
X243522500Y-119129023D01*
X244948467Y-113566599D02*
X243522500Y-114992566D01*
X245843401Y-113566599D02*
X244948467Y-113566599D01*
X248602500Y-110807500D02*
X245843401Y-113566599D01*
X125095000Y-53657500D02*
X127793750Y-56356250D01*
X122396250Y-53657500D02*
X125095000Y-53657500D01*
X117316250Y-61979023D02*
X117316250Y-63817500D01*
X117316250Y-57833538D02*
X117316250Y-61979023D01*
X118739289Y-56410499D02*
X117316250Y-57833538D01*
X119643251Y-56410499D02*
X118739289Y-56410499D01*
X122396250Y-53657500D02*
X119643251Y-56410499D01*
X225107500Y-110807500D02*
X227806250Y-113506250D01*
X222408750Y-110807500D02*
X225107500Y-110807500D01*
X217328750Y-119129023D02*
X217328750Y-120967500D01*
X217328750Y-114983538D02*
X217328750Y-119129023D01*
X218751789Y-113560499D02*
X217328750Y-114983538D01*
X219655751Y-113560499D02*
X218751789Y-113560499D01*
X222408750Y-110807500D02*
X219655751Y-113560499D01*
X132238750Y-129857500D02*
X134937500Y-132556250D01*
X129540000Y-129857500D02*
X132238750Y-129857500D01*
X124460000Y-138179023D02*
X124460000Y-140017500D01*
X124460000Y-134042566D02*
X124460000Y-138179023D01*
X125885967Y-132616599D02*
X124460000Y-134042566D01*
X126780901Y-132616599D02*
X125885967Y-132616599D01*
X129540000Y-129857500D02*
X126780901Y-132616599D01*
X115570000Y-72707500D02*
X118268750Y-75406250D01*
X112871250Y-72707500D02*
X115570000Y-72707500D01*
X107791250Y-81029023D02*
X107791250Y-82867500D01*
X107791250Y-76883538D02*
X107791250Y-81029023D01*
X109214289Y-75460499D02*
X107791250Y-76883538D01*
X110118251Y-75460499D02*
X109214289Y-75460499D01*
X112871250Y-72707500D02*
X110118251Y-75460499D01*
X15557500Y-72707500D02*
X18256250Y-75406250D01*
X12858750Y-72707500D02*
X15557500Y-72707500D01*
X7778750Y-81029023D02*
X7778750Y-82867500D01*
X7778750Y-76892566D02*
X7778750Y-81029023D01*
X9204717Y-75466599D02*
X7778750Y-76892566D01*
X10099651Y-75466599D02*
X9204717Y-75466599D01*
X12858750Y-72707500D02*
X10099651Y-75466599D01*
X67945000Y-53657500D02*
X70643750Y-56356250D01*
X65246250Y-53657500D02*
X67945000Y-53657500D01*
X60166250Y-61979023D02*
X60166250Y-63817500D01*
X60166250Y-57833538D02*
X60166250Y-61979023D01*
X61589289Y-56410499D02*
X60166250Y-57833538D01*
X62493251Y-56410499D02*
X61589289Y-56410499D01*
X65246250Y-53657500D02*
X62493251Y-56410499D01*
X48895000Y-53657500D02*
X51593750Y-56356250D01*
X46196250Y-53657500D02*
X48895000Y-53657500D01*
X41116250Y-61979023D02*
X41116250Y-63817500D01*
X41116250Y-57833538D02*
X41116250Y-61979023D01*
X42539289Y-56410499D02*
X41116250Y-57833538D01*
X43443251Y-56410499D02*
X42539289Y-56410499D01*
X46196250Y-53657500D02*
X43443251Y-56410499D01*
X15875000Y-139122250D02*
X15875000Y-140176250D01*
X17002001Y-137995249D02*
X15875000Y-139122250D01*
X17002001Y-131302001D02*
X17002001Y-137995249D01*
X11180499Y-125480499D02*
X17002001Y-131302001D01*
X11180499Y-112926713D02*
X11180499Y-114232001D01*
X16192500Y-107914712D02*
X11180499Y-112926713D01*
X16192500Y-104457500D02*
X16192500Y-107914712D01*
X11180499Y-113720463D02*
X11180499Y-114232001D01*
X11180499Y-114232001D02*
X11180499Y-125480499D01*
X280193750Y-140176250D02*
X281305000Y-140176250D01*
X281305000Y-140176250D02*
X284956250Y-136525000D01*
X284956250Y-131955148D02*
X297656250Y-119255148D01*
X284956250Y-136525000D02*
X284956250Y-131955148D01*
X297656250Y-119255148D02*
X297656250Y-108210250D01*
X295275000Y-105829000D02*
X295275000Y-104775000D01*
X297656250Y-108210250D02*
X295275000Y-105829000D01*
X60325000Y-142875000D02*
X66675000Y-142875000D01*
X203200000Y-142875000D02*
X209550000Y-142875000D01*
X257968750Y-142875000D02*
X264318750Y-142875000D01*
X38960499Y-130161287D02*
X41275000Y-132475788D01*
X38960499Y-122780499D02*
X38960499Y-130161287D01*
X39687500Y-139122250D02*
X39687500Y-140176250D01*
X41275000Y-137534750D02*
X39687500Y-139122250D01*
X41275000Y-132475788D02*
X41275000Y-137534750D01*
X22066250Y-107791250D02*
X23971250Y-107791250D01*
X18732500Y-104457500D02*
X22066250Y-107791250D01*
X23971250Y-107791250D02*
X38960499Y-122780499D01*
X255111250Y-121126250D02*
X254000000Y-121126250D01*
X261937500Y-116681250D02*
X257492500Y-121126250D01*
X295275000Y-86779000D02*
X289979000Y-92075000D01*
X295275000Y-85725000D02*
X295275000Y-86779000D01*
X257492500Y-121126250D02*
X254000000Y-121126250D01*
X261937500Y-110614852D02*
X261937500Y-116681250D01*
X280477352Y-92075000D02*
X278748051Y-93804301D01*
X289979000Y-92075000D02*
X280477352Y-92075000D01*
X280193750Y-92358602D02*
X278748051Y-93804301D01*
X278748051Y-93804301D02*
X261937500Y-110614852D01*
X22225000Y-123825000D02*
X25400000Y-123825000D01*
X72231250Y-123825000D02*
X78581250Y-123825000D01*
X110331250Y-123825000D02*
X116681250Y-123825000D01*
X148431250Y-123825000D02*
X154781250Y-123825000D01*
X186531250Y-123825000D02*
X192881250Y-123825000D01*
X224631250Y-123825000D02*
X230981250Y-123825000D01*
X27403401Y-121821599D02*
X32127849Y-121821599D01*
X25400000Y-123825000D02*
X27403401Y-121821599D01*
X62706250Y-104775000D02*
X69056250Y-104775000D01*
X100806250Y-104775000D02*
X107156250Y-104775000D01*
X138906250Y-104775000D02*
X145256250Y-104775000D01*
X177006250Y-104775000D02*
X183356250Y-104775000D01*
X215106250Y-104775000D02*
X221456250Y-104775000D01*
X295275000Y-67729000D02*
X295275000Y-66675000D01*
X289979000Y-73025000D02*
X295275000Y-67729000D01*
X287310788Y-73025000D02*
X289979000Y-73025000D01*
X237331250Y-102076250D02*
X240030000Y-102076250D01*
X240030000Y-102076250D02*
X255587500Y-86518750D01*
X255587500Y-86518750D02*
X274127352Y-86518750D01*
X274127352Y-86518750D02*
X285869249Y-74776853D01*
X285869249Y-74776853D02*
X285869249Y-74466539D01*
X285869249Y-74466539D02*
X287310788Y-73025000D01*
X57943750Y-85725000D02*
X64293750Y-85725000D01*
X96043750Y-85725000D02*
X102393750Y-85725000D01*
X134143750Y-85725000D02*
X140493750Y-85725000D01*
X172243750Y-85725000D02*
X178593750Y-85725000D01*
X210343750Y-85725000D02*
X216693750Y-85725000D01*
X248443750Y-85725000D02*
X251618750Y-85725000D01*
X41014750Y-83026250D02*
X42068750Y-83026250D01*
X39109750Y-84931250D02*
X41014750Y-83026250D01*
X23812500Y-84931250D02*
X39109750Y-84931250D01*
X23018750Y-84931250D02*
X23812500Y-84931250D01*
X18732500Y-89217500D02*
X23018750Y-84931250D01*
X35810750Y-86518750D02*
X34131250Y-86518750D01*
X48418750Y-66675000D02*
X54768750Y-66675000D01*
X125295308Y-66557808D02*
X130292192Y-66557808D01*
X130292192Y-66557808D02*
X130320817Y-66529183D01*
X86518750Y-66675000D02*
X92868750Y-66675000D01*
X162718750Y-66675000D02*
X169068750Y-66675000D01*
X200818750Y-66675000D02*
X207168750Y-66675000D01*
X238918750Y-66675000D02*
X242093750Y-66675000D01*
X32543750Y-63976250D02*
X28098750Y-63976250D01*
X28098750Y-63976250D02*
X20637500Y-71437500D01*
X14528799Y-88341201D02*
X13652500Y-89217500D01*
X18716749Y-84153251D02*
X14528799Y-88341201D01*
X19827999Y-84153251D02*
X18716749Y-84153251D01*
X20637500Y-83343750D02*
X19827999Y-84153251D01*
X20637500Y-71437500D02*
X20637500Y-83343750D01*
X27689250Y-67468750D02*
X29143250Y-67468750D01*
X153670000Y-72707500D02*
X156368750Y-75406250D01*
X150971250Y-72707500D02*
X153670000Y-72707500D01*
X145891250Y-81029023D02*
X145891250Y-82867500D01*
X145891250Y-76883538D02*
X145891250Y-81029023D01*
X147314289Y-75460499D02*
X145891250Y-76883538D01*
X148218251Y-75460499D02*
X147314289Y-75460499D01*
X150971250Y-72707500D02*
X148218251Y-75460499D01*
X277495000Y-110807500D02*
X280193750Y-113506250D01*
X274796250Y-110807500D02*
X277495000Y-110807500D01*
X269716250Y-119129023D02*
X269716250Y-120967500D01*
X269716250Y-114983538D02*
X269716250Y-119129023D01*
X271139289Y-113560499D02*
X269716250Y-114983538D01*
X272043251Y-113560499D02*
X271139289Y-113560499D01*
X274796250Y-110807500D02*
X272043251Y-113560499D01*
X110807500Y-110807500D02*
X113506250Y-113506250D01*
X108108750Y-110807500D02*
X110807500Y-110807500D01*
X103028750Y-119129023D02*
X103028750Y-120967500D01*
X103028750Y-114983538D02*
X103028750Y-119129023D01*
X104451789Y-113560499D02*
X103028750Y-114983538D01*
X105355751Y-113560499D02*
X104451789Y-113560499D01*
X108108750Y-110807500D02*
X105355751Y-113560499D01*
X58420000Y-72707500D02*
X61118750Y-75406250D01*
X55721250Y-72707500D02*
X58420000Y-72707500D01*
X50641250Y-81029023D02*
X50641250Y-82867500D01*
X50641250Y-76883538D02*
X50641250Y-81029023D01*
X52064289Y-75460499D02*
X50641250Y-76883538D01*
X52968251Y-75460499D02*
X52064289Y-75460499D01*
X55721250Y-72707500D02*
X52968251Y-75460499D01*
X36988750Y-129857500D02*
X39687500Y-132556250D01*
X34290000Y-129857500D02*
X36988750Y-129857500D01*
X29210000Y-138179023D02*
X29210000Y-140017500D01*
X29210000Y-134042566D02*
X29210000Y-138179023D01*
X30635967Y-132616599D02*
X29210000Y-134042566D01*
X31530901Y-132616599D02*
X30635967Y-132616599D01*
X34290000Y-129857500D02*
X31530901Y-132616599D01*
X72707500Y-110807500D02*
X75406250Y-113506250D01*
X70008750Y-110807500D02*
X72707500Y-110807500D01*
X64928750Y-119129023D02*
X64928750Y-120967500D01*
X64928750Y-114983538D02*
X64928750Y-119129023D01*
X66351789Y-113560499D02*
X64928750Y-114983538D01*
X67255751Y-113560499D02*
X66351789Y-113560499D01*
X70008750Y-110807500D02*
X67255751Y-113560499D01*
X134620000Y-72707500D02*
X137318750Y-75406250D01*
X131921250Y-72707500D02*
X134620000Y-72707500D01*
X126841250Y-81029023D02*
X126841250Y-82867500D01*
X126841250Y-76883538D02*
X126841250Y-81029023D01*
X128264289Y-75460499D02*
X126841250Y-76883538D01*
X129168251Y-75460499D02*
X128264289Y-75460499D01*
X131921250Y-72707500D02*
X129168251Y-75460499D01*
X53657500Y-110807500D02*
X56356250Y-113506250D01*
X50958750Y-110807500D02*
X53657500Y-110807500D01*
X45878750Y-119129023D02*
X45878750Y-120967500D01*
X45878750Y-114983538D02*
X45878750Y-119129023D01*
X47301789Y-113560499D02*
X45878750Y-114983538D01*
X48205751Y-113560499D02*
X47301789Y-113560499D01*
X50958750Y-110807500D02*
X48205751Y-113560499D01*
X201295000Y-53657500D02*
X203993750Y-56356250D01*
X198596250Y-53657500D02*
X201295000Y-53657500D01*
X193516250Y-61979023D02*
X193516250Y-63817500D01*
X193516250Y-57833538D02*
X193516250Y-61979023D01*
X194939289Y-56410499D02*
X193516250Y-57833538D01*
X195843251Y-56410499D02*
X194939289Y-56410499D01*
X198596250Y-53657500D02*
X195843251Y-56410499D01*
M02*
