G04 #@! TF.GenerationSoftware,KiCad,Pcbnew,(5.1.4)-1*
G04 #@! TF.CreationDate,2021-01-04T02:25:34-06:00*
G04 #@! TF.ProjectId,65Numpad,36354e75-6d70-4616-942e-6b696361645f,rev?*
G04 #@! TF.SameCoordinates,Original*
G04 #@! TF.FileFunction,Copper,L1,Top*
G04 #@! TF.FilePolarity,Positive*
%FSLAX46Y46*%
G04 Gerber Fmt 4.6, Leading zero omitted, Abs format (unit mm)*
G04 Created by KiCad (PCBNEW (5.1.4)-1) date 2021-01-04 02:25:34*
%MOMM*%
%LPD*%
G04 APERTURE LIST*
%ADD10C,2.600000*%
%ADD11R,1.700000X1.700000*%
%ADD12O,1.700000X1.700000*%
%ADD13C,1.752600*%
%ADD14R,1.752600X1.752600*%
%ADD15R,1.600000X1.600000*%
%ADD16O,1.600000X1.600000*%
%ADD17C,0.800000*%
%ADD18C,0.254000*%
%ADD19C,0.381000*%
G04 APERTURE END LIST*
D10*
X54133750Y-94297500D03*
X60483750Y-91757500D03*
X61753750Y-99377500D03*
X55403750Y-101917500D03*
X373221250Y-56197500D03*
X379571250Y-53657500D03*
X380841250Y-61277500D03*
X374491250Y-63817500D03*
D11*
X331787500Y-55562500D03*
D12*
X331787500Y-58102500D03*
X331787500Y-60642500D03*
X331787500Y-63182500D03*
D11*
X-1587500Y-55562500D03*
D12*
X-1587500Y-58102500D03*
X-1587500Y-60642500D03*
X-1587500Y-63182500D03*
D10*
X399891250Y-127952500D03*
X393541250Y-130492500D03*
X398621250Y-120332500D03*
X392271250Y-122872500D03*
X399891250Y-89852500D03*
X393541250Y-92392500D03*
X398621250Y-82232500D03*
X392271250Y-84772500D03*
X398621250Y-82232500D03*
X392271250Y-84772500D03*
X399891250Y-89852500D03*
X393541250Y-92392500D03*
X20796250Y-56197500D03*
X27146250Y-53657500D03*
X28416250Y-61277500D03*
X22066250Y-63817500D03*
X344646250Y-132397500D03*
X350996250Y-129857500D03*
X345916250Y-140017500D03*
X352266250Y-137477500D03*
X354171250Y-113347500D03*
X360521250Y-110807500D03*
X361791250Y-118427500D03*
X355441250Y-120967500D03*
X373221250Y-113347500D03*
X379571250Y-110807500D03*
X380841250Y-118427500D03*
X374491250Y-120967500D03*
X354171250Y-56197500D03*
X360521250Y-53657500D03*
X361791250Y-61277500D03*
X355441250Y-63817500D03*
X373221250Y-94297500D03*
X379571250Y-91757500D03*
X380841250Y-99377500D03*
X374491250Y-101917500D03*
X335121250Y-75247500D03*
X341471250Y-72707500D03*
X342741250Y-80327500D03*
X336391250Y-82867500D03*
D11*
X403225000Y-55562500D03*
D12*
X403225000Y-58102500D03*
X403225000Y-60642500D03*
X403225000Y-63182500D03*
D10*
X335121250Y-113347500D03*
X341471250Y-110807500D03*
X342741250Y-118427500D03*
X336391250Y-120967500D03*
D13*
X365601250Y-51911250D03*
X350361250Y-79851250D03*
X365601250Y-54451250D03*
X365601250Y-56991250D03*
X365601250Y-59531250D03*
X365601250Y-62071250D03*
X365601250Y-64611250D03*
X365601250Y-67151250D03*
X365601250Y-69691250D03*
X365601250Y-72231250D03*
X365601250Y-74771250D03*
X365601250Y-77311250D03*
X365601250Y-79851250D03*
X350361250Y-77311250D03*
X350361250Y-74771250D03*
X350361250Y-72231250D03*
X350361250Y-69691250D03*
X350361250Y-67151250D03*
X350361250Y-64611250D03*
X350361250Y-62071250D03*
X350361250Y-59531250D03*
X350361250Y-56991250D03*
X350361250Y-54451250D03*
D14*
X350361250Y-51911250D03*
D10*
X335121250Y-56197500D03*
X341471250Y-53657500D03*
X342741250Y-61277500D03*
X336391250Y-63817500D03*
X373221250Y-75247500D03*
X379571250Y-72707500D03*
X380841250Y-80327500D03*
X374491250Y-82867500D03*
X392271250Y-56197500D03*
X398621250Y-53657500D03*
X399891250Y-61277500D03*
X393541250Y-63817500D03*
X335121250Y-94297500D03*
X341471250Y-91757500D03*
X342741250Y-99377500D03*
X336391250Y-101917500D03*
X354171250Y-94297500D03*
X360521250Y-91757500D03*
X361791250Y-99377500D03*
X355441250Y-101917500D03*
X354171250Y-75247500D03*
X360521250Y-72707500D03*
X361791250Y-80327500D03*
X355441250Y-82867500D03*
X373221250Y-132397500D03*
X379571250Y-129857500D03*
X380841250Y-137477500D03*
X374491250Y-140017500D03*
D15*
X400050000Y-133350000D03*
D16*
X392430000Y-133350000D03*
D15*
X381000000Y-142875000D03*
D16*
X373380000Y-142875000D03*
D15*
X352425000Y-142875000D03*
D16*
X344805000Y-142875000D03*
D15*
X381000000Y-123825000D03*
D16*
X373380000Y-123825000D03*
D15*
X361950000Y-123825000D03*
D16*
X354330000Y-123825000D03*
D15*
X342900000Y-123825000D03*
D16*
X335280000Y-123825000D03*
D15*
X400050000Y-95250000D03*
D16*
X392430000Y-95250000D03*
D15*
X381000000Y-104775000D03*
D16*
X373380000Y-104775000D03*
D15*
X361950000Y-104775000D03*
D16*
X354330000Y-104775000D03*
D15*
X342900000Y-104775000D03*
D16*
X335280000Y-104775000D03*
D15*
X381000000Y-85725000D03*
D16*
X373380000Y-85725000D03*
D15*
X361950000Y-85725000D03*
D16*
X354330000Y-85725000D03*
D15*
X342900000Y-85725000D03*
D16*
X335280000Y-85725000D03*
D15*
X400050000Y-66675000D03*
D16*
X392430000Y-66675000D03*
D15*
X381000000Y-66675000D03*
D16*
X373380000Y-66675000D03*
D15*
X361950000Y-66675000D03*
D16*
X354330000Y-66675000D03*
D15*
X342900000Y-66675000D03*
D16*
X335280000Y-66675000D03*
D10*
X225583750Y-94297500D03*
X231933750Y-91757500D03*
X233203750Y-99377500D03*
X226853750Y-101917500D03*
X120808750Y-113347500D03*
X127158750Y-110807500D03*
X128428750Y-118427500D03*
X122078750Y-120967500D03*
X216058750Y-113347500D03*
X222408750Y-110807500D03*
X223678750Y-118427500D03*
X217328750Y-120967500D03*
X187483750Y-94297500D03*
X193833750Y-91757500D03*
X195103750Y-99377500D03*
X188753750Y-101917500D03*
X111283750Y-94297500D03*
X117633750Y-91757500D03*
X118903750Y-99377500D03*
X112553750Y-101917500D03*
X4127500Y-132397500D03*
X10477500Y-129857500D03*
X5397500Y-140017500D03*
X11747500Y-137477500D03*
X20002500Y-110807500D03*
X13652500Y-113347500D03*
X14922500Y-120967500D03*
X21272500Y-118427500D03*
X82708750Y-113347500D03*
X89058750Y-110807500D03*
X90328750Y-118427500D03*
X83978750Y-120967500D03*
X242252500Y-113347500D03*
X248602500Y-110807500D03*
X243522500Y-120967500D03*
X249872500Y-118427500D03*
X139858750Y-113347500D03*
X146208750Y-110807500D03*
X147478750Y-118427500D03*
X141128750Y-120967500D03*
X239871250Y-75247500D03*
X246221250Y-72707500D03*
X247491250Y-80327500D03*
X241141250Y-82867500D03*
X49371250Y-75247500D03*
X55721250Y-72707500D03*
X56991250Y-80327500D03*
X50641250Y-82867500D03*
X6508750Y-75247500D03*
X12858750Y-72707500D03*
X7778750Y-82867500D03*
X14128750Y-80327500D03*
X154146250Y-56197500D03*
X160496250Y-53657500D03*
X161766250Y-61277500D03*
X155416250Y-63817500D03*
X192246250Y-56197500D03*
X198596250Y-53657500D03*
X199866250Y-61277500D03*
X193516250Y-63817500D03*
X44608750Y-113347500D03*
X50958750Y-110807500D03*
X52228750Y-118427500D03*
X45878750Y-120967500D03*
X125571250Y-75247500D03*
X131921250Y-72707500D03*
X133191250Y-80327500D03*
X126841250Y-82867500D03*
X63658750Y-113347500D03*
X70008750Y-110807500D03*
X71278750Y-118427500D03*
X64928750Y-120967500D03*
X27940000Y-132397500D03*
X34290000Y-129857500D03*
X29210000Y-140017500D03*
X35560000Y-137477500D03*
X101758750Y-113347500D03*
X108108750Y-110807500D03*
X109378750Y-118427500D03*
X103028750Y-120967500D03*
X268446250Y-113347500D03*
X274796250Y-110807500D03*
X276066250Y-118427500D03*
X269716250Y-120967500D03*
X144621250Y-75247500D03*
X150971250Y-72707500D03*
X152241250Y-80327500D03*
X145891250Y-82867500D03*
X39846250Y-56197500D03*
X46196250Y-53657500D03*
X47466250Y-61277500D03*
X41116250Y-63817500D03*
X58896250Y-56197500D03*
X65246250Y-53657500D03*
X66516250Y-61277500D03*
X60166250Y-63817500D03*
X106521250Y-75247500D03*
X112871250Y-72707500D03*
X114141250Y-80327500D03*
X107791250Y-82867500D03*
X123190000Y-132397500D03*
X129540000Y-129857500D03*
X124460000Y-140017500D03*
X130810000Y-137477500D03*
X116046250Y-56197500D03*
X122396250Y-53657500D03*
X123666250Y-61277500D03*
X117316250Y-63817500D03*
X135096250Y-56197500D03*
X141446250Y-53657500D03*
X142716250Y-61277500D03*
X136366250Y-63817500D03*
X206533750Y-94297500D03*
X212883750Y-91757500D03*
X214153750Y-99377500D03*
X207803750Y-101917500D03*
X287496250Y-132397500D03*
X293846250Y-129857500D03*
X295116250Y-137477500D03*
X288766250Y-140017500D03*
X87471250Y-75247500D03*
X93821250Y-72707500D03*
X95091250Y-80327500D03*
X88741250Y-82867500D03*
X30321250Y-75247500D03*
X36671250Y-72707500D03*
X37941250Y-80327500D03*
X31591250Y-82867500D03*
X287496250Y-94297500D03*
X293846250Y-91757500D03*
X295116250Y-99377500D03*
X288766250Y-101917500D03*
X287496250Y-113347500D03*
X293846250Y-110807500D03*
X295116250Y-118427500D03*
X288766250Y-120967500D03*
X197008750Y-113347500D03*
X203358750Y-110807500D03*
X204628750Y-118427500D03*
X198278750Y-120967500D03*
X201771250Y-75247500D03*
X208121250Y-72707500D03*
X209391250Y-80327500D03*
X203041250Y-82867500D03*
X182721250Y-75247500D03*
X189071250Y-72707500D03*
X190341250Y-80327500D03*
X183991250Y-82867500D03*
X173196250Y-56197500D03*
X179546250Y-53657500D03*
X180816250Y-61277500D03*
X174466250Y-63817500D03*
X211296250Y-56197500D03*
X217646250Y-53657500D03*
X218916250Y-61277500D03*
X212566250Y-63817500D03*
X158908750Y-113347500D03*
X165258750Y-110807500D03*
X166528750Y-118427500D03*
X160178750Y-120967500D03*
X249396250Y-132397500D03*
X255746250Y-129857500D03*
X257016250Y-137477500D03*
X250666250Y-140017500D03*
X220821250Y-75247500D03*
X227171250Y-72707500D03*
X228441250Y-80327500D03*
X222091250Y-82867500D03*
X168433750Y-94297500D03*
X174783750Y-91757500D03*
X176053750Y-99377500D03*
X169703750Y-101917500D03*
X149383750Y-94297500D03*
X155733750Y-91757500D03*
X157003750Y-99377500D03*
X150653750Y-101917500D03*
X163671250Y-75247500D03*
X170021250Y-72707500D03*
X171291250Y-80327500D03*
X164941250Y-82867500D03*
X287496250Y-75247500D03*
X293846250Y-72707500D03*
X295116250Y-80327500D03*
X288766250Y-82867500D03*
X130333750Y-94297500D03*
X136683750Y-91757500D03*
X137953750Y-99377500D03*
X131603750Y-101917500D03*
X77946250Y-56197500D03*
X84296250Y-53657500D03*
X85566250Y-61277500D03*
X79216250Y-63817500D03*
X218440000Y-132397500D03*
X224790000Y-129857500D03*
X219710000Y-140017500D03*
X226060000Y-137477500D03*
X96996250Y-56197500D03*
X103346250Y-53657500D03*
X104616250Y-61277500D03*
X98266250Y-63817500D03*
X92233750Y-94297500D03*
X98583750Y-91757500D03*
X99853750Y-99377500D03*
X93503750Y-101917500D03*
X1746250Y-56197500D03*
X8096250Y-53657500D03*
X9366250Y-61277500D03*
X3016250Y-63817500D03*
X230346250Y-56197500D03*
X236696250Y-53657500D03*
X237966250Y-61277500D03*
X231616250Y-63817500D03*
X262890000Y-91757500D03*
X256540000Y-94297500D03*
X257810000Y-101917500D03*
X264160000Y-99377500D03*
X68421250Y-75247500D03*
X74771250Y-72707500D03*
X76041250Y-80327500D03*
X69691250Y-82867500D03*
X268446250Y-132397500D03*
X274796250Y-129857500D03*
X276066250Y-137477500D03*
X269716250Y-140017500D03*
X287496250Y-56197500D03*
X293846250Y-53657500D03*
X295116250Y-61277500D03*
X288766250Y-63817500D03*
X73183750Y-94297500D03*
X79533750Y-91757500D03*
X80803750Y-99377500D03*
X74453750Y-101917500D03*
X177958750Y-113347500D03*
X184308750Y-110807500D03*
X185578750Y-118427500D03*
X179228750Y-120967500D03*
X8890000Y-94297500D03*
X15240000Y-91757500D03*
X10160000Y-101917500D03*
X16510000Y-99377500D03*
X258921250Y-56197500D03*
X265271250Y-53657500D03*
X260191250Y-63817500D03*
X266541250Y-61277500D03*
X263683750Y-75247500D03*
X270033750Y-72707500D03*
X264953750Y-82867500D03*
X271303750Y-80327500D03*
X194627500Y-132397500D03*
X200977500Y-129857500D03*
X195897500Y-140017500D03*
X202247500Y-137477500D03*
X51752500Y-132397500D03*
X58102500Y-129857500D03*
X53022500Y-140017500D03*
X59372500Y-137477500D03*
X35083750Y-94297500D03*
X41433750Y-91757500D03*
X42703750Y-99377500D03*
X36353750Y-101917500D03*
D15*
X295275000Y-123825000D03*
D16*
X287655000Y-123825000D03*
D15*
X295275000Y-104775000D03*
D16*
X287655000Y-104775000D03*
D15*
X295275000Y-142875000D03*
D16*
X287655000Y-142875000D03*
D15*
X280193750Y-140176250D03*
D16*
X280193750Y-132556250D03*
D15*
X261143750Y-140176250D03*
D16*
X261143750Y-132556250D03*
D15*
X230187500Y-140176250D03*
D16*
X230187500Y-132556250D03*
D15*
X206375000Y-140176250D03*
D16*
X206375000Y-132556250D03*
D15*
X134937500Y-140176250D03*
D16*
X134937500Y-132556250D03*
D15*
X63500000Y-140176250D03*
D16*
X63500000Y-132556250D03*
D15*
X39687500Y-140176250D03*
D16*
X39687500Y-132556250D03*
D15*
X15875000Y-140176250D03*
D16*
X15875000Y-132556250D03*
D15*
X295275000Y-85725000D03*
D16*
X287655000Y-85725000D03*
D15*
X280193750Y-121126250D03*
D16*
X280193750Y-113506250D03*
D15*
X254000000Y-121126250D03*
D16*
X254000000Y-113506250D03*
D15*
X227806250Y-121126250D03*
D16*
X227806250Y-113506250D03*
D15*
X208756250Y-121126250D03*
D16*
X208756250Y-113506250D03*
D15*
X189706250Y-121126250D03*
D16*
X189706250Y-113506250D03*
D15*
X170656250Y-121126250D03*
D16*
X170656250Y-113506250D03*
D15*
X151606250Y-121126250D03*
D16*
X151606250Y-113506250D03*
D15*
X132556250Y-121126250D03*
D16*
X132556250Y-113506250D03*
D15*
X113506250Y-121126250D03*
D16*
X113506250Y-113506250D03*
D15*
X94456250Y-121126250D03*
D16*
X94456250Y-113506250D03*
D15*
X75406250Y-121126250D03*
D16*
X75406250Y-113506250D03*
D15*
X56356250Y-121126250D03*
D16*
X56356250Y-113506250D03*
D15*
X25400000Y-121126250D03*
D16*
X25400000Y-113506250D03*
D15*
X295275000Y-66675000D03*
D16*
X287655000Y-66675000D03*
D15*
X268287500Y-102076250D03*
D16*
X268287500Y-94456250D03*
D15*
X237331250Y-102076250D03*
D16*
X237331250Y-94456250D03*
D15*
X218281250Y-102076250D03*
D16*
X218281250Y-94456250D03*
D15*
X199231250Y-102076250D03*
D16*
X199231250Y-94456250D03*
D15*
X180181250Y-102076250D03*
D16*
X180181250Y-94456250D03*
D15*
X161131250Y-102076250D03*
D16*
X161131250Y-94456250D03*
D15*
X142081250Y-102076250D03*
D16*
X142081250Y-94456250D03*
D15*
X123031250Y-102076250D03*
D16*
X123031250Y-94456250D03*
D15*
X103981250Y-102076250D03*
D16*
X103981250Y-94456250D03*
D15*
X84931250Y-102076250D03*
D16*
X84931250Y-94456250D03*
D15*
X65881250Y-102076250D03*
D16*
X65881250Y-94456250D03*
D15*
X46831250Y-102076250D03*
D16*
X46831250Y-94456250D03*
D15*
X20637500Y-102076250D03*
D16*
X20637500Y-94456250D03*
D15*
X275431250Y-83026250D03*
D16*
X275431250Y-75406250D03*
D15*
X251618750Y-83026250D03*
D16*
X251618750Y-75406250D03*
D15*
X232568750Y-83026250D03*
D16*
X232568750Y-75406250D03*
D15*
X213518750Y-83026250D03*
D16*
X213518750Y-75406250D03*
D15*
X194468750Y-83026250D03*
D16*
X194468750Y-75406250D03*
D15*
X175418750Y-83026250D03*
D16*
X175418750Y-75406250D03*
D15*
X156368750Y-83026250D03*
D16*
X156368750Y-75406250D03*
D15*
X137318750Y-83026250D03*
D16*
X137318750Y-75406250D03*
D15*
X118268750Y-83026250D03*
D16*
X118268750Y-75406250D03*
D15*
X99218750Y-83026250D03*
D16*
X99218750Y-75406250D03*
D15*
X80168750Y-83026250D03*
D16*
X80168750Y-75406250D03*
D15*
X61118750Y-83026250D03*
D16*
X61118750Y-75406250D03*
D15*
X42068750Y-83026250D03*
D16*
X42068750Y-75406250D03*
D15*
X18256250Y-83026250D03*
D16*
X18256250Y-75406250D03*
D15*
X270668750Y-63976250D03*
D16*
X270668750Y-56356250D03*
D15*
X242093750Y-63976250D03*
D16*
X242093750Y-56356250D03*
D15*
X223043750Y-63976250D03*
D16*
X223043750Y-56356250D03*
D15*
X203993750Y-63976250D03*
D16*
X203993750Y-56356250D03*
D15*
X184943750Y-63976250D03*
D16*
X184943750Y-56356250D03*
D15*
X165893750Y-63976250D03*
D16*
X165893750Y-56356250D03*
D15*
X146843750Y-63976250D03*
D16*
X146843750Y-56356250D03*
D15*
X127793750Y-63976250D03*
D16*
X127793750Y-56356250D03*
D15*
X108743750Y-63976250D03*
D16*
X108743750Y-56356250D03*
D15*
X89693750Y-63976250D03*
D16*
X89693750Y-56356250D03*
D15*
X70643750Y-63976250D03*
D16*
X70643750Y-56356250D03*
D15*
X51593750Y-63976250D03*
D16*
X51593750Y-56356250D03*
D15*
X32543750Y-63976250D03*
D16*
X32543750Y-56356250D03*
D15*
X13493750Y-63976250D03*
D16*
X13493750Y-56356250D03*
D13*
X-1270000Y-89217500D03*
X26670000Y-104457500D03*
X1270000Y-89217500D03*
X3810000Y-89217500D03*
X6350000Y-89217500D03*
X8890000Y-89217500D03*
X11430000Y-89217500D03*
X13970000Y-89217500D03*
X16510000Y-89217500D03*
X19050000Y-89217500D03*
X21590000Y-89217500D03*
X24130000Y-89217500D03*
X26670000Y-89217500D03*
X24130000Y-104457500D03*
X21590000Y-104457500D03*
X19050000Y-104457500D03*
X16510000Y-104457500D03*
X13970000Y-104457500D03*
X11430000Y-104457500D03*
X8890000Y-104457500D03*
X6350000Y-104457500D03*
X3810000Y-104457500D03*
X1270000Y-104457500D03*
D14*
X-1270000Y-104457500D03*
D11*
X298450000Y-55562500D03*
D12*
X298450000Y-58102500D03*
X298450000Y-60642500D03*
X298450000Y-63182500D03*
D17*
X41275000Y-103981250D03*
X20637500Y-123031250D03*
X18256250Y-125412500D03*
X42068750Y-123031250D03*
X39687500Y-125412500D03*
X41275000Y-109537500D03*
X15081250Y-107950000D03*
X46831250Y-68262500D03*
X46831250Y-65881250D03*
X76200000Y-84931250D03*
X66675000Y-65881250D03*
X66675000Y-68262500D03*
X56356250Y-84931250D03*
X61118750Y-103981250D03*
X80168750Y-103981250D03*
X69850000Y-123031250D03*
X67468750Y-125412500D03*
X80168750Y-109537500D03*
X61118750Y-109537500D03*
X94456250Y-84931250D03*
X84931250Y-65881250D03*
X84931250Y-68262500D03*
X104775000Y-65881250D03*
X104775000Y-68262500D03*
X114300000Y-84931250D03*
X99218750Y-106362500D03*
X99218750Y-103981250D03*
X118268750Y-103981250D03*
X118268750Y-107950000D03*
X200025000Y-65881250D03*
X200025000Y-68262500D03*
X219075000Y-68262500D03*
X219075000Y-65881250D03*
X208756250Y-84931250D03*
X227806250Y-84931250D03*
X213518750Y-103981250D03*
X232568750Y-103981250D03*
X186531250Y-65087500D03*
X166687500Y-87312500D03*
X42862500Y-103187500D03*
X33725728Y-104654663D03*
X232568750Y-107950000D03*
X213518750Y-107950000D03*
X237331250Y-68262500D03*
X237331250Y-65881250D03*
X263525000Y-65881250D03*
X263525000Y-67468750D03*
X246062500Y-87312500D03*
X246062500Y-84931250D03*
X263525000Y-106362500D03*
X263525000Y-104775000D03*
X42862500Y-88106250D03*
X204787500Y-87312500D03*
X55562500Y-89693750D03*
X53181250Y-89693750D03*
X161925000Y-65881250D03*
X161925000Y-68262500D03*
X180975000Y-65881250D03*
X180975000Y-68262500D03*
X170656250Y-84931250D03*
X189706250Y-84931250D03*
X175418750Y-103981250D03*
X194468750Y-103981250D03*
X263525000Y-125412500D03*
X261143750Y-126206250D03*
X213518750Y-126206250D03*
X203993750Y-122237500D03*
X148431250Y-65087500D03*
X128587500Y-87312500D03*
X35810750Y-90487500D03*
X194468750Y-107950000D03*
X175418750Y-107950000D03*
X123825000Y-65881250D03*
X123825000Y-68262500D03*
X142875000Y-65802183D03*
X142875000Y-68262500D03*
X132556250Y-84931250D03*
X151606250Y-84931250D03*
X137318750Y-103981250D03*
X156368750Y-103981250D03*
X34131250Y-105568750D03*
X40274997Y-107156250D03*
X123031250Y-106362500D03*
X100012500Y-107156250D03*
X96043750Y-107156250D03*
X212725000Y-125412500D03*
X206375000Y-123031250D03*
X192087500Y-123031250D03*
X187325000Y-123031250D03*
X173037500Y-123031250D03*
X168275000Y-123031250D03*
X156368750Y-107950000D03*
X137318750Y-107950000D03*
X388937500Y-71437500D03*
X256381250Y-87312500D03*
X237331250Y-106362500D03*
X100012500Y-108156253D03*
X96837500Y-107950000D03*
X11204500Y-107156250D03*
X6350000Y-55470500D03*
X282575000Y-76200000D03*
X252412500Y-92868750D03*
X250031250Y-95250000D03*
X54768750Y-90487500D03*
X52387500Y-90487500D03*
X38100000Y-89693750D03*
X18256250Y-101600000D03*
X284162500Y-75406250D03*
X338931250Y-61912500D03*
X395287500Y-61912500D03*
X382587500Y-55562500D03*
X254000000Y-92868750D03*
X249237500Y-96043750D03*
X50006250Y-95250000D03*
X38100000Y-100012500D03*
X29368750Y-95250000D03*
X26193750Y-95250000D03*
X11906250Y-91281250D03*
X338224303Y-64317423D03*
X354012500Y-61912500D03*
X357981250Y-61912500D03*
X376237500Y-61912500D03*
X371475000Y-61118750D03*
X60325000Y-142875000D03*
X66675000Y-142875000D03*
X203200000Y-142875000D03*
X209550000Y-142875000D03*
X257968750Y-142875000D03*
X264318750Y-142875000D03*
X22225000Y-123825000D03*
X72231250Y-123825000D03*
X78581250Y-123825000D03*
X110331250Y-123825000D03*
X116681250Y-123825000D03*
X148431250Y-123825000D03*
X154781250Y-123825000D03*
X186531250Y-123825000D03*
X192881250Y-123825000D03*
X224631250Y-123825000D03*
X230981250Y-123825000D03*
X32127849Y-121821599D03*
X62706250Y-104775000D03*
X69056250Y-104775000D03*
X100806250Y-104775000D03*
X107156250Y-104775000D03*
X138906250Y-104775000D03*
X145256250Y-104775000D03*
X177006250Y-104775000D03*
X183356250Y-104775000D03*
X215106250Y-104775000D03*
X221456250Y-104775000D03*
X57943750Y-85725000D03*
X64293750Y-85725000D03*
X96043750Y-85725000D03*
X102393750Y-85725000D03*
X134143750Y-85725000D03*
X140493750Y-85725000D03*
X172243750Y-85725000D03*
X178593750Y-85725000D03*
X210343750Y-85725000D03*
X216693750Y-85725000D03*
X248443750Y-85725000D03*
X251618750Y-85725000D03*
X346868750Y-118268750D03*
X35810750Y-86518750D03*
X34131250Y-86518750D03*
X48418750Y-66675000D03*
X54768750Y-66675000D03*
X125295308Y-66557808D03*
X130320817Y-66529183D03*
X86518750Y-66675000D03*
X92868750Y-66675000D03*
X162718750Y-66675000D03*
X169068750Y-66675000D03*
X200818750Y-66675000D03*
X207168750Y-66675000D03*
X238918750Y-66675000D03*
X242093750Y-66675000D03*
X27689250Y-67468750D03*
X29143250Y-67468750D03*
D18*
X8099740Y-75247500D02*
X6508750Y-75247500D01*
X11213684Y-75247500D02*
X8099740Y-75247500D01*
X14128750Y-78162566D02*
X11213684Y-75247500D01*
X14128750Y-80327500D02*
X14128750Y-78162566D01*
X9366250Y-72390000D02*
X9366250Y-61277500D01*
X6508750Y-75247500D02*
X9366250Y-72390000D01*
X3337240Y-56197500D02*
X1746250Y-56197500D01*
X6460212Y-56197500D02*
X3337240Y-56197500D01*
X9366250Y-59103538D02*
X6460212Y-56197500D01*
X9366250Y-61277500D02*
X9366250Y-59103538D01*
X16510000Y-97539023D02*
X16510000Y-99377500D01*
X16510000Y-97212566D02*
X16510000Y-97539023D01*
X13594934Y-94297500D02*
X16510000Y-97212566D01*
X8890000Y-94297500D02*
X13594934Y-94297500D01*
X21272500Y-116589023D02*
X21272500Y-118427500D01*
X21272500Y-116262566D02*
X21272500Y-116589023D01*
X18357434Y-113347500D02*
X21272500Y-116262566D01*
X13652500Y-113347500D02*
X18357434Y-113347500D01*
X11747500Y-135639023D02*
X11747500Y-137477500D01*
X11747500Y-135312566D02*
X11747500Y-135639023D01*
X9051533Y-132616599D02*
X11747500Y-135312566D01*
X4346599Y-132616599D02*
X9051533Y-132616599D01*
X4127500Y-132397500D02*
X4346599Y-132616599D01*
X35560000Y-135639023D02*
X35560000Y-137477500D01*
X35560000Y-135312566D02*
X35560000Y-135639023D01*
X32644934Y-132397500D02*
X35560000Y-135312566D01*
X27940000Y-132397500D02*
X32644934Y-132397500D01*
X21272500Y-120265977D02*
X21272500Y-118427500D01*
X11747500Y-137477500D02*
X11747500Y-134428538D01*
X28416250Y-59439023D02*
X28416250Y-61277500D01*
X28416250Y-59103538D02*
X28416250Y-59439023D01*
X25510212Y-56197500D02*
X28416250Y-59103538D01*
X20796250Y-56197500D02*
X25510212Y-56197500D01*
X28416250Y-73342500D02*
X30321250Y-75247500D01*
X28416250Y-61277500D02*
X28416250Y-73342500D01*
X37941250Y-78489023D02*
X37941250Y-80327500D01*
X37941250Y-78153538D02*
X37941250Y-78489023D01*
X35035212Y-75247500D02*
X37941250Y-78153538D01*
X30321250Y-75247500D02*
X35035212Y-75247500D01*
X42703750Y-97539023D02*
X42703750Y-99377500D01*
X42703750Y-97203538D02*
X42703750Y-97539023D01*
X39797712Y-94297500D02*
X42703750Y-97203538D01*
X35083750Y-94297500D02*
X39797712Y-94297500D01*
X52228750Y-116589023D02*
X52228750Y-118427500D01*
X52228750Y-116253538D02*
X52228750Y-116589023D01*
X49322712Y-113347500D02*
X52228750Y-116253538D01*
X44608750Y-113347500D02*
X49322712Y-113347500D01*
X35083750Y-83185000D02*
X35083750Y-94297500D01*
X37941250Y-80327500D02*
X35083750Y-83185000D01*
X9366250Y-61277500D02*
X11747500Y-61277500D01*
X16827500Y-56197500D02*
X20796250Y-56197500D01*
X11747500Y-61277500D02*
X16827500Y-56197500D01*
X52228750Y-118427500D02*
X48061749Y-122594501D01*
X35560000Y-131921250D02*
X35560000Y-137477500D01*
X41275000Y-100806250D02*
X42703750Y-99377500D01*
X41275000Y-103981250D02*
X41275000Y-100806250D01*
X21272500Y-120265977D02*
X21272500Y-122396250D01*
X21272500Y-122396250D02*
X20637500Y-123031250D01*
X11747500Y-131921250D02*
X11747500Y-134428538D01*
X18256250Y-125412500D02*
X11747500Y-131921250D01*
X48061749Y-122594501D02*
X47625000Y-123031250D01*
X47625000Y-123031250D02*
X42068750Y-123031250D01*
X39687500Y-127793750D02*
X35560000Y-131921250D01*
X39687500Y-125412500D02*
X39687500Y-127793750D01*
X41344315Y-110172500D02*
X41433750Y-110172500D01*
X41275000Y-110103185D02*
X41344315Y-110172500D01*
X41275000Y-109537500D02*
X41275000Y-110103185D01*
X41275000Y-110013750D02*
X41433750Y-110172500D01*
X41433750Y-110172500D02*
X44608750Y-113347500D01*
X13652500Y-111525616D02*
X13652500Y-113347500D01*
X14964058Y-110214058D02*
X13652500Y-111525616D01*
X14964058Y-110214058D02*
X14964058Y-108067192D01*
X14964058Y-108067192D02*
X15081250Y-107950000D01*
X8572500Y-85883750D02*
X8572500Y-89217500D01*
X14128750Y-80327500D02*
X8572500Y-85883750D01*
X8572500Y-93980000D02*
X8890000Y-94297500D01*
X8572500Y-89217500D02*
X8572500Y-93980000D01*
X342741250Y-59439023D02*
X342741250Y-61277500D01*
X342741250Y-59103538D02*
X342741250Y-59439023D01*
X339835212Y-56197500D02*
X342741250Y-59103538D01*
X335121250Y-56197500D02*
X339835212Y-56197500D01*
X342741250Y-78489023D02*
X342741250Y-80327500D01*
X342741250Y-78153538D02*
X342741250Y-78489023D01*
X339835212Y-75247500D02*
X342741250Y-78153538D01*
X335121250Y-75247500D02*
X339835212Y-75247500D01*
X342741250Y-97539023D02*
X342741250Y-99377500D01*
X342741250Y-97203538D02*
X342741250Y-97539023D01*
X339835212Y-94297500D02*
X342741250Y-97203538D01*
X335121250Y-94297500D02*
X339835212Y-94297500D01*
X342741250Y-116589023D02*
X342741250Y-118427500D01*
X342741250Y-116253538D02*
X342741250Y-116589023D01*
X339835212Y-113347500D02*
X342741250Y-116253538D01*
X335121250Y-113347500D02*
X339835212Y-113347500D01*
X352266250Y-135639023D02*
X352266250Y-137477500D01*
X352266250Y-135312566D02*
X352266250Y-135639023D01*
X349351184Y-132397500D02*
X352266250Y-135312566D01*
X344646250Y-132397500D02*
X349351184Y-132397500D01*
X335121250Y-68897500D02*
X335121250Y-75247500D01*
X342741250Y-61277500D02*
X335121250Y-68897500D01*
X335121250Y-87947500D02*
X335121250Y-94297500D01*
X342741250Y-80327500D02*
X335121250Y-87947500D01*
X335121250Y-106997500D02*
X335121250Y-113347500D01*
X342741250Y-99377500D02*
X335121250Y-106997500D01*
X344646250Y-120332500D02*
X344646250Y-132397500D01*
X342741250Y-118427500D02*
X344646250Y-120332500D01*
X349567500Y-61277500D02*
X350361250Y-62071250D01*
X342741250Y-61277500D02*
X349567500Y-61277500D01*
X56991250Y-78489023D02*
X56991250Y-80327500D01*
X56991250Y-78153538D02*
X56991250Y-78489023D01*
X54085212Y-75247500D02*
X56991250Y-78153538D01*
X49371250Y-75247500D02*
X54085212Y-75247500D01*
X61753750Y-97539023D02*
X61753750Y-99377500D01*
X61753750Y-97203538D02*
X61753750Y-97539023D01*
X58847712Y-94297500D02*
X61753750Y-97203538D01*
X54133750Y-94297500D02*
X58847712Y-94297500D01*
X71278750Y-116589023D02*
X71278750Y-118427500D01*
X71278750Y-116253538D02*
X71278750Y-116589023D01*
X68372712Y-113347500D02*
X71278750Y-116253538D01*
X63658750Y-113347500D02*
X68372712Y-113347500D01*
X59372500Y-135639023D02*
X59372500Y-137477500D01*
X59372500Y-135312566D02*
X59372500Y-135639023D01*
X56457434Y-132397500D02*
X59372500Y-135312566D01*
X51752500Y-132397500D02*
X56457434Y-132397500D01*
X90328750Y-116589023D02*
X90328750Y-118427500D01*
X90328750Y-116253538D02*
X90328750Y-116589023D01*
X87422712Y-113347500D02*
X90328750Y-116253538D01*
X82708750Y-113347500D02*
X87422712Y-113347500D01*
X130810000Y-135639023D02*
X130810000Y-137477500D01*
X130810000Y-135312566D02*
X130810000Y-135639023D01*
X127894934Y-132397500D02*
X130810000Y-135312566D01*
X123190000Y-132397500D02*
X127894934Y-132397500D01*
X71278750Y-120808750D02*
X71278750Y-118427500D01*
X80803750Y-97539023D02*
X80803750Y-99377500D01*
X80803750Y-97203538D02*
X80803750Y-97539023D01*
X77897712Y-94297500D02*
X80803750Y-97203538D01*
X73183750Y-94297500D02*
X77897712Y-94297500D01*
X76041250Y-78489023D02*
X76041250Y-80327500D01*
X76041250Y-78153538D02*
X76041250Y-78489023D01*
X73135212Y-75247500D02*
X76041250Y-78153538D01*
X68421250Y-75247500D02*
X73135212Y-75247500D01*
X66516250Y-59439023D02*
X66516250Y-61277500D01*
X66516250Y-59103538D02*
X66516250Y-59439023D01*
X63610212Y-56197500D02*
X66516250Y-59103538D01*
X58896250Y-56197500D02*
X63610212Y-56197500D01*
X47466250Y-59439023D02*
X47466250Y-61277500D01*
X47466250Y-59103538D02*
X47466250Y-59439023D01*
X44560212Y-56197500D02*
X47466250Y-59103538D01*
X39846250Y-56197500D02*
X44560212Y-56197500D01*
X47466250Y-61277500D02*
X49847500Y-61277500D01*
X54927500Y-56197500D02*
X58896250Y-56197500D01*
X49847500Y-61277500D02*
X54927500Y-56197500D01*
X49371250Y-75247500D02*
X46831250Y-72707500D01*
X46831250Y-72707500D02*
X46831250Y-68262500D01*
X46831250Y-61912500D02*
X47466250Y-61277500D01*
X46831250Y-65881250D02*
X46831250Y-61912500D01*
X76200000Y-80486250D02*
X76041250Y-80327500D01*
X76200000Y-84931250D02*
X76200000Y-80486250D01*
X66516250Y-61277500D02*
X66516250Y-65722500D01*
X66516250Y-65722500D02*
X66675000Y-65881250D01*
X66675000Y-73501250D02*
X68421250Y-75247500D01*
X66675000Y-68262500D02*
X66675000Y-73501250D01*
X56356250Y-80962500D02*
X56991250Y-80327500D01*
X56356250Y-84931250D02*
X56356250Y-80962500D01*
X61118750Y-100012500D02*
X61753750Y-99377500D01*
X61118750Y-103981250D02*
X61118750Y-100012500D01*
X82708750Y-113347500D02*
X80168750Y-110807500D01*
X80168750Y-110807500D02*
X80168750Y-109537500D01*
X80168750Y-100012500D02*
X80803750Y-99377500D01*
X80168750Y-103981250D02*
X80168750Y-100012500D01*
X90487500Y-118586250D02*
X90328750Y-118427500D01*
X71278750Y-120808750D02*
X71278750Y-121602500D01*
X71278750Y-121602500D02*
X69850000Y-123031250D01*
X59372500Y-133508750D02*
X59372500Y-133985000D01*
X67468750Y-125412500D02*
X59372500Y-133508750D01*
X59372500Y-137477500D02*
X59372500Y-133985000D01*
X61118750Y-110807500D02*
X61277500Y-110966250D01*
X61118750Y-109537500D02*
X61118750Y-110807500D01*
X63658750Y-113347500D02*
X61277500Y-110966250D01*
X361791250Y-116589023D02*
X361791250Y-118427500D01*
X361791250Y-116253538D02*
X361791250Y-116589023D01*
X358885212Y-113347500D02*
X361791250Y-116253538D01*
X354171250Y-113347500D02*
X358885212Y-113347500D01*
X361791250Y-97539023D02*
X361791250Y-99377500D01*
X361791250Y-97203538D02*
X361791250Y-97539023D01*
X358885212Y-94297500D02*
X361791250Y-97203538D01*
X354171250Y-94297500D02*
X358885212Y-94297500D01*
X361791250Y-78489023D02*
X361791250Y-80327500D01*
X361791250Y-78153538D02*
X361791250Y-78489023D01*
X358885212Y-75247500D02*
X361791250Y-78153538D01*
X354171250Y-75247500D02*
X358885212Y-75247500D01*
X361791250Y-59439023D02*
X361791250Y-61277500D01*
X361791250Y-59103538D02*
X361791250Y-59439023D01*
X358885212Y-56197500D02*
X361791250Y-59103538D01*
X354171250Y-56197500D02*
X358885212Y-56197500D01*
X354171250Y-68897500D02*
X354171250Y-75247500D01*
X361791250Y-61277500D02*
X354171250Y-68897500D01*
X354171250Y-87947500D02*
X354171250Y-94297500D01*
X361791250Y-80327500D02*
X354171250Y-87947500D01*
X354171250Y-106997500D02*
X354171250Y-113347500D01*
X361791250Y-99377500D02*
X354171250Y-106997500D01*
X364807500Y-61277500D02*
X365601250Y-62071250D01*
X364807500Y-61277500D02*
X361791250Y-61277500D01*
X85566250Y-59439023D02*
X85566250Y-61277500D01*
X85566250Y-59103538D02*
X85566250Y-59439023D01*
X82660212Y-56197500D02*
X85566250Y-59103538D01*
X77946250Y-56197500D02*
X82660212Y-56197500D01*
X104616250Y-59439023D02*
X104616250Y-61277500D01*
X104616250Y-59103538D02*
X104616250Y-59439023D01*
X101710212Y-56197500D02*
X104616250Y-59103538D01*
X96996250Y-56197500D02*
X101710212Y-56197500D01*
X85566250Y-61277500D02*
X87947500Y-61277500D01*
X93027500Y-56197500D02*
X96996250Y-56197500D01*
X87947500Y-61277500D02*
X93027500Y-56197500D01*
X95091250Y-78489023D02*
X95091250Y-80327500D01*
X95091250Y-78153538D02*
X95091250Y-78489023D01*
X92185212Y-75247500D02*
X95091250Y-78153538D01*
X87471250Y-75247500D02*
X92185212Y-75247500D01*
X114141250Y-78489023D02*
X114141250Y-80327500D01*
X114141250Y-78153538D02*
X114141250Y-78489023D01*
X111235212Y-75247500D02*
X114141250Y-78153538D01*
X106521250Y-75247500D02*
X111235212Y-75247500D01*
X99853750Y-97539023D02*
X99853750Y-99377500D01*
X99853750Y-97203538D02*
X99853750Y-97539023D01*
X96947712Y-94297500D02*
X99853750Y-97203538D01*
X92233750Y-94297500D02*
X96947712Y-94297500D01*
X118903750Y-97539023D02*
X118903750Y-99377500D01*
X118903750Y-97203538D02*
X118903750Y-97539023D01*
X115997712Y-94297500D02*
X118903750Y-97203538D01*
X111283750Y-94297500D02*
X115997712Y-94297500D01*
X94456250Y-80962500D02*
X95091250Y-80327500D01*
X94456250Y-84931250D02*
X94456250Y-80962500D01*
X85566250Y-61277500D02*
X85566250Y-65246250D01*
X85566250Y-65246250D02*
X84931250Y-65881250D01*
X84931250Y-72707500D02*
X87471250Y-75247500D01*
X84931250Y-68262500D02*
X84931250Y-72707500D01*
X104616250Y-61277500D02*
X104616250Y-65722500D01*
X104616250Y-65722500D02*
X104775000Y-65881250D01*
X104775000Y-73501250D02*
X106521250Y-75247500D01*
X104775000Y-68262500D02*
X104775000Y-73501250D01*
X109378750Y-116589023D02*
X109378750Y-118427500D01*
X109378750Y-116253538D02*
X109378750Y-116589023D01*
X106472712Y-113347500D02*
X109378750Y-116253538D01*
X101758750Y-113347500D02*
X106472712Y-113347500D01*
X128428750Y-116589023D02*
X128428750Y-118427500D01*
X128428750Y-116253538D02*
X128428750Y-116589023D01*
X125522712Y-113347500D02*
X128428750Y-116253538D01*
X120808750Y-113347500D02*
X125522712Y-113347500D01*
X202247500Y-135639023D02*
X202247500Y-137477500D01*
X202247500Y-135312566D02*
X202247500Y-135639023D01*
X199332434Y-132397500D02*
X202247500Y-135312566D01*
X194627500Y-132397500D02*
X199332434Y-132397500D01*
X226060000Y-135639023D02*
X226060000Y-137477500D01*
X226060000Y-135312566D02*
X226060000Y-135639023D01*
X223144934Y-132397500D02*
X226060000Y-135312566D01*
X218440000Y-132397500D02*
X223144934Y-132397500D01*
X114300000Y-80486250D02*
X114141250Y-80327500D01*
X114300000Y-84931250D02*
X114300000Y-80486250D01*
X101758750Y-113347500D02*
X99218750Y-110807500D01*
X99218750Y-110807500D02*
X99218750Y-109537500D01*
X99218750Y-100012500D02*
X99853750Y-99377500D01*
X99218750Y-103981250D02*
X99218750Y-100012500D01*
X99218750Y-109537500D02*
X99218750Y-106362500D01*
X120808750Y-113347500D02*
X118268750Y-110807500D01*
X118268750Y-110807500D02*
X118268750Y-109537500D01*
X118268750Y-100012500D02*
X118903750Y-99377500D01*
X118268750Y-103981250D02*
X118268750Y-100012500D01*
X128587500Y-118586250D02*
X128428750Y-118427500D01*
X118268750Y-107950000D02*
X118268750Y-109537500D01*
X13017500Y-106362500D02*
X11112500Y-104457500D01*
X96837500Y-106362500D02*
X13017500Y-106362500D01*
X98185130Y-107710130D02*
X96837500Y-106362500D01*
X98185130Y-111364870D02*
X98185130Y-107710130D01*
X101758750Y-113347500D02*
X100167760Y-113347500D01*
X100167760Y-113347500D02*
X98185130Y-111364870D01*
X380841250Y-59439023D02*
X380841250Y-61277500D01*
X380841250Y-59103538D02*
X380841250Y-59439023D01*
X377935212Y-56197500D02*
X380841250Y-59103538D01*
X373221250Y-56197500D02*
X377935212Y-56197500D01*
X380841250Y-78489023D02*
X380841250Y-80327500D01*
X380841250Y-78153538D02*
X380841250Y-78489023D01*
X377935212Y-75247500D02*
X380841250Y-78153538D01*
X373221250Y-75247500D02*
X377935212Y-75247500D01*
X380841250Y-97539023D02*
X380841250Y-99377500D01*
X380841250Y-97203538D02*
X380841250Y-97539023D01*
X377935212Y-94297500D02*
X380841250Y-97203538D01*
X373221250Y-94297500D02*
X377935212Y-94297500D01*
X380841250Y-116589023D02*
X380841250Y-118427500D01*
X380841250Y-116253538D02*
X380841250Y-116589023D01*
X377935212Y-113347500D02*
X380841250Y-116253538D01*
X373221250Y-113347500D02*
X377935212Y-113347500D01*
X380841250Y-135639023D02*
X380841250Y-137477500D01*
X380841250Y-135303538D02*
X380841250Y-135639023D01*
X377935212Y-132397500D02*
X380841250Y-135303538D01*
X373221250Y-132397500D02*
X377935212Y-132397500D01*
X373221250Y-126047500D02*
X373221250Y-132397500D01*
X380841250Y-118427500D02*
X373221250Y-126047500D01*
X373221250Y-106997500D02*
X373221250Y-113347500D01*
X380841250Y-99377500D02*
X373221250Y-106997500D01*
X373221250Y-87947500D02*
X373221250Y-94297500D01*
X380841250Y-80327500D02*
X373221250Y-87947500D01*
X373221250Y-68897500D02*
X373221250Y-75247500D01*
X380841250Y-61277500D02*
X373221250Y-68897500D01*
X373221250Y-56197500D02*
X371630260Y-56197500D01*
X371630260Y-56197500D02*
X369887500Y-57940260D01*
X365601250Y-64611250D02*
X367188750Y-64611250D01*
X367188750Y-64611250D02*
X369887500Y-61912500D01*
X369887500Y-57940260D02*
X369887500Y-61912500D01*
X199866250Y-59439023D02*
X199866250Y-61277500D01*
X199866250Y-59103538D02*
X199866250Y-59439023D01*
X196960212Y-56197500D02*
X199866250Y-59103538D01*
X192246250Y-56197500D02*
X196960212Y-56197500D01*
X218916250Y-59439023D02*
X218916250Y-61277500D01*
X218916250Y-59103538D02*
X218916250Y-59439023D01*
X216010212Y-56197500D02*
X218916250Y-59103538D01*
X211296250Y-56197500D02*
X216010212Y-56197500D01*
X209391250Y-78489023D02*
X209391250Y-80327500D01*
X209391250Y-78296462D02*
X209391250Y-78489023D01*
X206342288Y-75247500D02*
X209391250Y-78296462D01*
X201771250Y-75247500D02*
X206342288Y-75247500D01*
X228441250Y-78489023D02*
X228441250Y-80327500D01*
X228441250Y-78153538D02*
X228441250Y-78489023D01*
X225535212Y-75247500D02*
X228441250Y-78153538D01*
X220821250Y-75247500D02*
X225535212Y-75247500D01*
X199866250Y-61277500D02*
X199866250Y-65722500D01*
X199866250Y-65722500D02*
X200025000Y-65881250D01*
X200025000Y-73501250D02*
X201771250Y-75247500D01*
X200025000Y-68262500D02*
X200025000Y-73501250D01*
X199866250Y-61277500D02*
X202247500Y-61277500D01*
X207327500Y-56197500D02*
X211296250Y-56197500D01*
X202247500Y-61277500D02*
X207327500Y-56197500D01*
X220821250Y-75247500D02*
X219075000Y-73501250D01*
X219075000Y-73501250D02*
X219075000Y-68262500D01*
X219075000Y-61436250D02*
X218916250Y-61277500D01*
X219075000Y-65881250D02*
X219075000Y-61436250D01*
X295116250Y-116589023D02*
X295116250Y-118427500D01*
X295116250Y-116253538D02*
X295116250Y-116589023D01*
X292210212Y-113347500D02*
X295116250Y-116253538D01*
X287496250Y-113347500D02*
X292210212Y-113347500D01*
X249872500Y-116589023D02*
X249872500Y-118427500D01*
X249872500Y-116262566D02*
X249872500Y-116589023D01*
X246957434Y-113347500D02*
X249872500Y-116262566D01*
X242252500Y-113347500D02*
X246957434Y-113347500D01*
X223678750Y-116589023D02*
X223678750Y-118427500D01*
X223678750Y-116253538D02*
X223678750Y-116589023D01*
X220772712Y-113347500D02*
X223678750Y-116253538D01*
X216058750Y-113347500D02*
X220772712Y-113347500D01*
X214153750Y-97539023D02*
X214153750Y-99377500D01*
X214153750Y-97203538D02*
X214153750Y-97539023D01*
X211247712Y-94297500D02*
X214153750Y-97203538D01*
X206533750Y-94297500D02*
X211247712Y-94297500D01*
X233203750Y-97539023D02*
X233203750Y-99377500D01*
X233203750Y-97203538D02*
X233203750Y-97539023D01*
X230297712Y-94297500D02*
X233203750Y-97203538D01*
X225583750Y-94297500D02*
X230297712Y-94297500D01*
X208756250Y-80962500D02*
X209391250Y-80327500D01*
X208756250Y-84931250D02*
X208756250Y-80962500D01*
X227806250Y-80962500D02*
X228441250Y-80327500D01*
X227806250Y-84931250D02*
X227806250Y-80962500D01*
X216058750Y-113347500D02*
X213518750Y-110807500D01*
X213518750Y-110807500D02*
X213518750Y-110331250D01*
X213518750Y-100012500D02*
X214153750Y-99377500D01*
X213518750Y-103981250D02*
X213518750Y-100012500D01*
X242252500Y-113347500D02*
X235585000Y-113347500D01*
X235585000Y-113347500D02*
X232568750Y-110331250D01*
X232568750Y-100012500D02*
X233203750Y-99377500D01*
X232568750Y-103981250D02*
X232568750Y-100012500D01*
X186531250Y-60321510D02*
X186531250Y-65087500D01*
X192246250Y-56197500D02*
X190655260Y-56197500D01*
X190655260Y-56197500D02*
X186531250Y-60321510D01*
X166687500Y-87312500D02*
X152400000Y-87312500D01*
X152400000Y-87312500D02*
X151888462Y-87312500D01*
X151888462Y-87312500D02*
X133350000Y-87312500D01*
X133350000Y-87312500D02*
X130175000Y-87312500D01*
X130175000Y-87312500D02*
X129381250Y-88106250D01*
X129381250Y-88106250D02*
X115093750Y-88106250D01*
X115093750Y-88106250D02*
X95250000Y-88106250D01*
X56074038Y-88106250D02*
X48418750Y-95761538D01*
X95250000Y-88106250D02*
X56074038Y-88106250D01*
X48418750Y-95761538D02*
X48418750Y-97631250D01*
X48418750Y-97631250D02*
X42862500Y-103187500D01*
X33725728Y-104654663D02*
X32325264Y-103254199D01*
X232568750Y-107950000D02*
X232568750Y-110331250D01*
X213518750Y-107950000D02*
X213518750Y-110331250D01*
X25015801Y-103254199D02*
X23812500Y-104457500D01*
X32325264Y-103254199D02*
X25015801Y-103254199D01*
X237966250Y-59439023D02*
X237966250Y-61277500D01*
X237966250Y-59246462D02*
X237966250Y-59439023D01*
X234917288Y-56197500D02*
X237966250Y-59246462D01*
X230346250Y-56197500D02*
X234917288Y-56197500D01*
X266541250Y-59439023D02*
X266541250Y-61277500D01*
X266541250Y-59112566D02*
X266541250Y-59439023D01*
X263626184Y-56197500D02*
X266541250Y-59112566D01*
X258921250Y-56197500D02*
X263626184Y-56197500D01*
X295116250Y-59439023D02*
X295116250Y-61277500D01*
X295116250Y-59246462D02*
X295116250Y-59439023D01*
X292067288Y-56197500D02*
X295116250Y-59246462D01*
X287496250Y-56197500D02*
X292067288Y-56197500D01*
X247491250Y-78489023D02*
X247491250Y-80327500D01*
X247491250Y-78153538D02*
X247491250Y-78489023D01*
X244585212Y-75247500D02*
X247491250Y-78153538D01*
X239871250Y-75247500D02*
X244585212Y-75247500D01*
X271303750Y-78489023D02*
X271303750Y-80327500D01*
X271303750Y-78162566D02*
X271303750Y-78489023D01*
X268388684Y-75247500D02*
X271303750Y-78162566D01*
X263683750Y-75247500D02*
X268388684Y-75247500D01*
X295116250Y-78489023D02*
X295116250Y-80327500D01*
X295116250Y-78153538D02*
X295116250Y-78489023D01*
X292210212Y-75247500D02*
X295116250Y-78153538D01*
X287496250Y-75247500D02*
X292210212Y-75247500D01*
X237966250Y-61277500D02*
X240347500Y-61277500D01*
X245427500Y-56197500D02*
X258921250Y-56197500D01*
X240347500Y-61277500D02*
X245427500Y-56197500D01*
X266541250Y-61277500D02*
X268922500Y-61277500D01*
X274002500Y-56197500D02*
X287496250Y-56197500D01*
X268922500Y-61277500D02*
X274002500Y-56197500D01*
X239871250Y-75247500D02*
X237331250Y-72707500D01*
X237331250Y-72707500D02*
X237331250Y-68262500D01*
X237331250Y-61912500D02*
X237966250Y-61277500D01*
X237331250Y-65881250D02*
X237331250Y-61912500D01*
X266541250Y-61277500D02*
X263525000Y-64293750D01*
X263525000Y-64293750D02*
X263525000Y-65881250D01*
X263525000Y-75088750D02*
X263683750Y-75247500D01*
X263525000Y-67468750D02*
X263525000Y-75088750D01*
X287496250Y-68897500D02*
X287496250Y-75247500D01*
X295116250Y-61277500D02*
X287496250Y-68897500D01*
X264160000Y-97539023D02*
X264160000Y-99377500D01*
X264160000Y-97212566D02*
X264160000Y-97539023D01*
X261244934Y-94297500D02*
X264160000Y-97212566D01*
X256540000Y-94297500D02*
X261244934Y-94297500D01*
X276066250Y-116589023D02*
X276066250Y-118427500D01*
X276066250Y-116253538D02*
X276066250Y-116589023D01*
X273160212Y-113347500D02*
X276066250Y-116253538D01*
X268446250Y-113347500D02*
X273160212Y-113347500D01*
X256540000Y-94297500D02*
X249078750Y-94297500D01*
X249078750Y-94297500D02*
X246062500Y-91281250D01*
X246062500Y-91281250D02*
X246062500Y-87312500D01*
X246062500Y-81756250D02*
X247491250Y-80327500D01*
X246062500Y-84931250D02*
X246062500Y-81756250D01*
X268446250Y-113347500D02*
X263525000Y-108426250D01*
X263525000Y-108426250D02*
X263525000Y-107950000D01*
X263525000Y-100012500D02*
X264160000Y-99377500D01*
X263525000Y-104775000D02*
X263525000Y-100012500D01*
X263525000Y-107950000D02*
X263525000Y-106362500D01*
X53181250Y-89693750D02*
X52387500Y-89693750D01*
X52387500Y-89693750D02*
X50800000Y-88106250D01*
X50800000Y-88106250D02*
X42862500Y-88106250D01*
X56356250Y-88900000D02*
X55562500Y-89693750D01*
X92868750Y-88900000D02*
X92075000Y-88900000D01*
X92075000Y-88900000D02*
X56356250Y-88900000D01*
X96043750Y-88900000D02*
X92075000Y-88900000D01*
X130175000Y-88900000D02*
X96043750Y-88900000D01*
X130902001Y-88172999D02*
X130175000Y-88900000D01*
X167414501Y-88172999D02*
X130902001Y-88172999D01*
X204787500Y-87312500D02*
X168275000Y-87312500D01*
X168275000Y-87312500D02*
X167414501Y-88172999D01*
X161766250Y-59439023D02*
X161766250Y-61277500D01*
X161766250Y-59103538D02*
X161766250Y-59439023D01*
X158860212Y-56197500D02*
X161766250Y-59103538D01*
X154146250Y-56197500D02*
X158860212Y-56197500D01*
X180816250Y-59439023D02*
X180816250Y-61277500D01*
X180816250Y-59103538D02*
X180816250Y-59439023D01*
X177910212Y-56197500D02*
X180816250Y-59103538D01*
X173196250Y-56197500D02*
X177910212Y-56197500D01*
X171291250Y-78489023D02*
X171291250Y-80327500D01*
X171291250Y-78153538D02*
X171291250Y-78489023D01*
X168385212Y-75247500D02*
X171291250Y-78153538D01*
X163671250Y-75247500D02*
X168385212Y-75247500D01*
X190341250Y-78489023D02*
X190341250Y-80327500D01*
X190341250Y-78296462D02*
X190341250Y-78489023D01*
X187292288Y-75247500D02*
X190341250Y-78296462D01*
X182721250Y-75247500D02*
X187292288Y-75247500D01*
X161766250Y-61277500D02*
X161766250Y-65722500D01*
X161766250Y-65722500D02*
X161925000Y-65881250D01*
X161925000Y-73501250D02*
X163671250Y-75247500D01*
X161925000Y-68262500D02*
X161925000Y-73501250D01*
X180816250Y-61277500D02*
X180816250Y-65722500D01*
X180816250Y-65722500D02*
X180975000Y-65881250D01*
X180975000Y-73501250D02*
X182721250Y-75247500D01*
X180975000Y-68262500D02*
X180975000Y-73501250D01*
X161766250Y-61277500D02*
X164147500Y-61277500D01*
X169227500Y-56197500D02*
X173196250Y-56197500D01*
X164147500Y-61277500D02*
X169227500Y-56197500D01*
X185578750Y-116589023D02*
X185578750Y-118427500D01*
X185578750Y-116253538D02*
X185578750Y-116589023D01*
X182672712Y-113347500D02*
X185578750Y-116253538D01*
X177958750Y-113347500D02*
X182672712Y-113347500D01*
X204628750Y-116589023D02*
X204628750Y-118427500D01*
X204628750Y-116253538D02*
X204628750Y-116589023D01*
X201722712Y-113347500D02*
X204628750Y-116253538D01*
X197008750Y-113347500D02*
X201722712Y-113347500D01*
X295116250Y-135639023D02*
X295116250Y-137477500D01*
X295116250Y-135303538D02*
X295116250Y-135639023D01*
X292210212Y-132397500D02*
X295116250Y-135303538D01*
X287496250Y-132397500D02*
X292210212Y-132397500D01*
X295116250Y-97539023D02*
X295116250Y-99377500D01*
X295116250Y-97203538D02*
X295116250Y-97539023D01*
X292210212Y-94297500D02*
X295116250Y-97203538D01*
X287496250Y-94297500D02*
X292210212Y-94297500D01*
X195103750Y-97539023D02*
X195103750Y-99377500D01*
X195103750Y-97203538D02*
X195103750Y-97539023D01*
X192197712Y-94297500D02*
X195103750Y-97203538D01*
X187483750Y-94297500D02*
X192197712Y-94297500D01*
X176053750Y-97539023D02*
X176053750Y-99377500D01*
X176053750Y-97346462D02*
X176053750Y-97539023D01*
X173004788Y-94297500D02*
X176053750Y-97346462D01*
X168433750Y-94297500D02*
X173004788Y-94297500D01*
X170656250Y-80962500D02*
X171291250Y-80327500D01*
X170656250Y-84931250D02*
X170656250Y-80962500D01*
X189706250Y-80962500D02*
X190341250Y-80327500D01*
X189706250Y-84931250D02*
X189706250Y-80962500D01*
X177958750Y-113347500D02*
X175418750Y-110807500D01*
X175418750Y-110807500D02*
X175418750Y-109537500D01*
X175418750Y-100012500D02*
X176053750Y-99377500D01*
X175418750Y-103981250D02*
X175418750Y-100012500D01*
X197008750Y-113347500D02*
X194468750Y-110807500D01*
X194468750Y-110807500D02*
X194468750Y-110331250D01*
X194468750Y-100012500D02*
X195103750Y-99377500D01*
X194468750Y-103981250D02*
X194468750Y-100012500D01*
X287496250Y-132397500D02*
X280511250Y-125412500D01*
X280511250Y-125412500D02*
X263525000Y-125412500D01*
X261143750Y-126206250D02*
X213518750Y-126206250D01*
X203993750Y-122237500D02*
X203200000Y-121443750D01*
X203200000Y-119856250D02*
X204628750Y-118427500D01*
X203200000Y-121443750D02*
X203200000Y-119856250D01*
X286371251Y-131272501D02*
X287496250Y-132397500D01*
X282575000Y-127476250D02*
X286371251Y-131272501D01*
X282575000Y-111918750D02*
X282575000Y-127476250D01*
X295116250Y-99377500D02*
X282575000Y-111918750D01*
X152555260Y-56197500D02*
X148431250Y-60321510D01*
X154146250Y-56197500D02*
X152555260Y-56197500D01*
X148431250Y-60321510D02*
X148431250Y-65087500D01*
X128587500Y-87312500D02*
X115093750Y-87312500D01*
X115093750Y-87312500D02*
X96837500Y-87312500D01*
X96837500Y-87312500D02*
X57943750Y-87312500D01*
X57943750Y-87312500D02*
X38985750Y-87312500D01*
X38985750Y-87312500D02*
X35810750Y-90487500D01*
X194468750Y-110331250D02*
X194468750Y-107950000D01*
X175418750Y-107950000D02*
X175418750Y-109537500D01*
X13017500Y-104508201D02*
X13017500Y-104457500D01*
X123666250Y-59439023D02*
X123666250Y-61277500D01*
X123666250Y-59246462D02*
X123666250Y-59439023D01*
X120617288Y-56197500D02*
X123666250Y-59246462D01*
X116046250Y-56197500D02*
X120617288Y-56197500D01*
X142716250Y-59439023D02*
X142716250Y-61277500D01*
X142716250Y-59103538D02*
X142716250Y-59439023D01*
X139810212Y-56197500D02*
X142716250Y-59103538D01*
X135096250Y-56197500D02*
X139810212Y-56197500D01*
X133191250Y-78489023D02*
X133191250Y-80327500D01*
X133191250Y-78153538D02*
X133191250Y-78489023D01*
X130285212Y-75247500D02*
X133191250Y-78153538D01*
X125571250Y-75247500D02*
X130285212Y-75247500D01*
X152241250Y-78489023D02*
X152241250Y-80327500D01*
X152241250Y-78153538D02*
X152241250Y-78489023D01*
X149335212Y-75247500D02*
X152241250Y-78153538D01*
X144621250Y-75247500D02*
X149335212Y-75247500D01*
X123666250Y-61277500D02*
X123666250Y-65722500D01*
X123666250Y-65722500D02*
X123825000Y-65881250D01*
X123825000Y-73501250D02*
X125571250Y-75247500D01*
X123825000Y-68262500D02*
X123825000Y-73501250D01*
X142716250Y-61277500D02*
X142716250Y-65643433D01*
X142716250Y-65643433D02*
X142875000Y-65802183D01*
X142875000Y-73501250D02*
X144621250Y-75247500D01*
X142875000Y-68262500D02*
X142875000Y-73501250D01*
X123666250Y-61277500D02*
X126047500Y-61277500D01*
X131127500Y-56197500D02*
X135096250Y-56197500D01*
X126047500Y-61277500D02*
X131127500Y-56197500D01*
X147478750Y-116589023D02*
X147478750Y-118427500D01*
X147478750Y-116253538D02*
X147478750Y-116589023D01*
X144572712Y-113347500D02*
X147478750Y-116253538D01*
X139858750Y-113347500D02*
X144572712Y-113347500D01*
X166528750Y-116589023D02*
X166528750Y-118427500D01*
X166528750Y-116253538D02*
X166528750Y-116589023D01*
X163622712Y-113347500D02*
X166528750Y-116253538D01*
X158908750Y-113347500D02*
X163622712Y-113347500D01*
X257016250Y-135639023D02*
X257016250Y-137477500D01*
X257016250Y-135303538D02*
X257016250Y-135639023D01*
X254110212Y-132397500D02*
X257016250Y-135303538D01*
X249396250Y-132397500D02*
X254110212Y-132397500D01*
X276066250Y-135639023D02*
X276066250Y-137477500D01*
X276066250Y-135303538D02*
X276066250Y-135639023D01*
X273160212Y-132397500D02*
X276066250Y-135303538D01*
X268446250Y-132397500D02*
X273160212Y-132397500D01*
X157003750Y-97539023D02*
X157003750Y-99377500D01*
X157003750Y-97346462D02*
X157003750Y-97539023D01*
X153954788Y-94297500D02*
X157003750Y-97346462D01*
X149383750Y-94297500D02*
X153954788Y-94297500D01*
X137953750Y-97539023D02*
X137953750Y-99377500D01*
X137953750Y-97203538D02*
X137953750Y-97539023D01*
X135047712Y-94297500D02*
X137953750Y-97203538D01*
X130333750Y-94297500D02*
X135047712Y-94297500D01*
X132556250Y-80962500D02*
X133191250Y-80327500D01*
X132556250Y-84931250D02*
X132556250Y-80962500D01*
X151606250Y-80962500D02*
X152241250Y-80327500D01*
X151606250Y-84931250D02*
X151606250Y-80962500D01*
X139858750Y-113347500D02*
X137318750Y-110807500D01*
X137318750Y-110807500D02*
X137318750Y-109537500D01*
X137318750Y-100012500D02*
X137953750Y-99377500D01*
X137318750Y-103981250D02*
X137318750Y-100012500D01*
X158908750Y-113347500D02*
X156368750Y-110807500D01*
X156368750Y-110807500D02*
X156368750Y-109537500D01*
X156368750Y-100012500D02*
X157003750Y-99377500D01*
X156368750Y-103981250D02*
X156368750Y-100012500D01*
X16760801Y-105660801D02*
X33245449Y-105660801D01*
X33245449Y-105660801D02*
X34039199Y-105660801D01*
X34039199Y-105660801D02*
X34131250Y-105568750D01*
X40274997Y-107156250D02*
X92075000Y-107156250D01*
X123031250Y-106362500D02*
X119062500Y-106362500D01*
X119062500Y-106362500D02*
X100806250Y-106362500D01*
X100806250Y-106362500D02*
X100012500Y-107156250D01*
X96043750Y-107156250D02*
X92075000Y-107156250D01*
X268446250Y-132397500D02*
X261461250Y-125412500D01*
X261461250Y-125412500D02*
X212725000Y-125412500D01*
X206375000Y-123031250D02*
X192087500Y-123031250D01*
X187325000Y-123031250D02*
X173037500Y-123031250D01*
X168275000Y-123031250D02*
X167481250Y-123031250D01*
X166528750Y-122078750D02*
X166528750Y-118427500D01*
X167481250Y-123031250D02*
X166528750Y-122078750D01*
X268446250Y-132397500D02*
X264477500Y-132397500D01*
X259397500Y-137477500D02*
X257016250Y-137477500D01*
X264477500Y-132397500D02*
X259397500Y-137477500D01*
X156368750Y-109537500D02*
X156368750Y-107950000D01*
X137318750Y-109537500D02*
X137318750Y-107950000D01*
X14855801Y-105660801D02*
X13652500Y-104457500D01*
X16760801Y-105660801D02*
X14855801Y-105660801D01*
X399891250Y-59439023D02*
X399891250Y-61277500D01*
X399891250Y-59103538D02*
X399891250Y-59439023D01*
X396985212Y-56197500D02*
X399891250Y-59103538D01*
X392271250Y-56197500D02*
X396985212Y-56197500D01*
X399891250Y-88014023D02*
X399891250Y-89852500D01*
X399891250Y-87687566D02*
X399891250Y-88014023D01*
X396976184Y-84772500D02*
X399891250Y-87687566D01*
X392271250Y-84772500D02*
X396976184Y-84772500D01*
X399891250Y-61277500D02*
X392271250Y-68897500D01*
X392271250Y-97472500D02*
X392271250Y-122872500D01*
X399891250Y-89852500D02*
X392271250Y-97472500D01*
X399891250Y-126114023D02*
X399891250Y-127952500D01*
X399891250Y-125787566D02*
X399891250Y-126114023D01*
X396976184Y-122872500D02*
X399891250Y-125787566D01*
X392271250Y-122872500D02*
X396976184Y-122872500D01*
X388937500Y-71437500D02*
X390525000Y-71437500D01*
X390525000Y-71437500D02*
X392112500Y-69850000D01*
X392112500Y-69850000D02*
X392271250Y-69691250D01*
X392271250Y-68897500D02*
X392271250Y-69691250D01*
X392271250Y-69691250D02*
X392271250Y-84772500D01*
D19*
X274637500Y-87312500D02*
X256381250Y-87312500D01*
X230981250Y-106362500D02*
X215106250Y-106362500D01*
X211931250Y-106362500D02*
X196056250Y-106362500D01*
X230981250Y-106362500D02*
X237331250Y-106362500D01*
X177006250Y-106362500D02*
X192881250Y-106362500D01*
X157956250Y-106362500D02*
X177006250Y-106362500D01*
X192881250Y-106362500D02*
X196056250Y-106362500D01*
X211931250Y-106362500D02*
X215106250Y-106362500D01*
X157956250Y-106362500D02*
X139761881Y-106362500D01*
X139761881Y-106362500D02*
X124618750Y-106362500D01*
X124618750Y-106362500D02*
X123825000Y-107156250D01*
X123825000Y-107156250D02*
X119062500Y-107156250D01*
X100182439Y-108156253D02*
X100012500Y-108156253D01*
X119062500Y-107156250D02*
X101182442Y-107156250D01*
X101182442Y-107156250D02*
X100182439Y-108156253D01*
X96837500Y-107950000D02*
X80962500Y-107950000D01*
X30287711Y-106987999D02*
X20012001Y-106987999D01*
X42857868Y-107950000D02*
X31249712Y-107950000D01*
X59563308Y-107950000D02*
X58215358Y-109297950D01*
X80962500Y-107950000D02*
X59563308Y-107950000D01*
X31249712Y-107950000D02*
X30287711Y-106987999D01*
X58215358Y-109297950D02*
X58215358Y-118731166D01*
X58215358Y-118731166D02*
X52314182Y-112829990D01*
X52314182Y-112829990D02*
X47737858Y-112829990D01*
X47737858Y-112829990D02*
X42857868Y-107950000D01*
X20012001Y-106987999D02*
X11372751Y-106987999D01*
X11372751Y-106987999D02*
X11204500Y-107156250D01*
X6350000Y-55470500D02*
X5561499Y-54681999D01*
X282575000Y-76200000D02*
X282575000Y-79375000D01*
X282575000Y-79375000D02*
X274637500Y-87312500D01*
X-1587500Y-54331500D02*
X-437250Y-53181250D01*
X-1587500Y-55562500D02*
X-1587500Y-54331500D01*
X4060750Y-53181250D02*
X6350000Y-55470500D01*
X-437250Y-53181250D02*
X4060750Y-53181250D01*
X333018500Y-55562500D02*
X331787500Y-55562500D01*
X334074001Y-54506999D02*
X333018500Y-55562500D01*
X339463249Y-54506999D02*
X334074001Y-54506999D01*
X340995000Y-56038750D02*
X339463249Y-54506999D01*
X380260633Y-55470059D02*
X379504941Y-55470059D01*
X381223693Y-54506999D02*
X380260633Y-55470059D01*
X394138192Y-55562500D02*
X393082691Y-54506999D01*
X393082691Y-54506999D02*
X381223693Y-54506999D01*
X403225000Y-55562500D02*
X394138192Y-55562500D01*
X379504941Y-55470059D02*
X380001633Y-55470059D01*
X348773750Y-56038750D02*
X340995000Y-56038750D01*
X350361250Y-54451250D02*
X348773750Y-56038750D01*
X378881867Y-55470059D02*
X379504941Y-55470059D01*
X350361250Y-54451250D02*
X357870830Y-54451250D01*
X372409809Y-54506999D02*
X377918807Y-54506999D01*
X377918807Y-54506999D02*
X378881867Y-55470059D01*
X371198757Y-55718051D02*
X372409809Y-54506999D01*
X359137631Y-55718051D02*
X371198757Y-55718051D01*
X357870830Y-54451250D02*
X359137631Y-55718051D01*
X366292867Y-54681999D02*
X366202917Y-54771949D01*
X250031250Y-95250000D02*
X248443750Y-95250000D01*
X248443750Y-95250000D02*
X245268750Y-92075000D01*
X245268750Y-92075000D02*
X245268750Y-89693750D01*
X245268750Y-89693750D02*
X242887500Y-87312500D01*
X242887500Y-87312500D02*
X229393750Y-87312500D01*
X229393750Y-87312500D02*
X228600000Y-87312500D01*
X228600000Y-87312500D02*
X206375000Y-87312500D01*
X206375000Y-87312500D02*
X205581250Y-88106250D01*
X205581250Y-88106250D02*
X169068750Y-88106250D01*
X169068750Y-88106250D02*
X168275000Y-88900000D01*
X168275000Y-88900000D02*
X159543750Y-88900000D01*
X159543750Y-88900000D02*
X130968750Y-88900000D01*
X130968750Y-88900000D02*
X130175000Y-89693750D01*
X130175000Y-89693750D02*
X115887500Y-89693750D01*
X115887500Y-89693750D02*
X103981250Y-89693750D01*
X103981250Y-89693750D02*
X91281250Y-89693750D01*
X56732442Y-89693750D02*
X55938692Y-90487500D01*
X91281250Y-89693750D02*
X56732442Y-89693750D01*
X55938692Y-90487500D02*
X54768750Y-90487500D01*
X52387500Y-90487500D02*
X51593750Y-89693750D01*
X51593750Y-89693750D02*
X38100000Y-89693750D01*
X12344442Y-101600000D02*
X18256250Y-101600000D01*
X8847443Y-98103001D02*
X12344442Y-101600000D01*
X5084499Y-98103001D02*
X8847443Y-98103001D01*
X3492500Y-104457500D02*
X3492500Y-99695000D01*
X3492500Y-99695000D02*
X5084499Y-98103001D01*
X4440501Y-98103001D02*
X5084499Y-98103001D01*
X252412500Y-92868750D02*
X257387740Y-87893510D01*
X1270000Y-94932500D02*
X1270000Y-89217500D01*
X1587500Y-95250000D02*
X1270000Y-94932500D01*
X1587500Y-95250000D02*
X4440501Y-98103001D01*
X284162500Y-80168750D02*
X276437740Y-87893510D01*
X284162500Y-75406250D02*
X284162500Y-80168750D01*
X257387740Y-87893510D02*
X276437740Y-87893510D01*
X331787500Y-60642500D02*
X333057500Y-61912500D01*
X333057500Y-61912500D02*
X338931250Y-61912500D01*
X395287500Y-61912500D02*
X388937500Y-61912500D01*
X388937500Y-61912500D02*
X382587500Y-55562500D01*
X273175211Y-91767001D02*
X269567001Y-91767001D01*
X276042212Y-88900000D02*
X273175211Y-91767001D01*
X269567001Y-91767001D02*
X266700000Y-88900000D01*
X266700000Y-88900000D02*
X257968750Y-88900000D01*
X257968750Y-88900000D02*
X254000000Y-92868750D01*
X38100000Y-100012500D02*
X34131250Y-100012500D01*
X34131250Y-100012500D02*
X29368750Y-95250000D01*
X26193750Y-95250000D02*
X25793751Y-95649999D01*
X25793751Y-95649999D02*
X20069307Y-95649999D01*
X6032500Y-89217500D02*
X6032500Y-87312500D01*
X6032500Y-87312500D02*
X3968750Y-85248750D01*
X317500Y-81597500D02*
X6032500Y-87312500D01*
X-1587500Y-79692500D02*
X317500Y-81597500D01*
X-1587500Y-63182500D02*
X-1587500Y-79692500D01*
X284741751Y-81176999D02*
X277018750Y-88900000D01*
X289577691Y-81176999D02*
X284741751Y-81176999D01*
X295927691Y-82018001D02*
X290418693Y-82018001D01*
X298450000Y-79495692D02*
X295927691Y-82018001D01*
X298450000Y-63182500D02*
X298450000Y-79495692D01*
X290418693Y-82018001D02*
X289577691Y-81176999D01*
X276042212Y-88900000D02*
X277018750Y-88900000D01*
X338224303Y-64486389D02*
X338224303Y-64317423D01*
X337202691Y-65508001D02*
X338224303Y-64486389D01*
X335579809Y-65508001D02*
X337202691Y-65508001D01*
X331787500Y-63182500D02*
X333254308Y-63182500D01*
X333254308Y-63182500D02*
X335579809Y-65508001D01*
X354012500Y-61912500D02*
X357981250Y-61912500D01*
X376237500Y-61912500D02*
X375443750Y-61118750D01*
X375443750Y-61118750D02*
X371475000Y-61118750D01*
X19991307Y-95571999D02*
X20069307Y-95649999D01*
X15601301Y-95571999D02*
X19991307Y-95571999D01*
X11906250Y-91876948D02*
X15601301Y-95571999D01*
X11906250Y-91281250D02*
X11906250Y-91876948D01*
X246856250Y-96043750D02*
X249237500Y-96043750D01*
X243681250Y-89693750D02*
X243681250Y-92868750D01*
X242093750Y-88106250D02*
X243681250Y-89693750D01*
X243681250Y-92868750D02*
X246856250Y-96043750D01*
X207168750Y-88106250D02*
X242093750Y-88106250D01*
X206375000Y-88900000D02*
X207168750Y-88106250D01*
X169068750Y-89693750D02*
X169862500Y-88900000D01*
X131762500Y-89693750D02*
X169068750Y-89693750D01*
X128190501Y-93265749D02*
X131762500Y-89693750D01*
X119459251Y-93265749D02*
X128190501Y-93265749D01*
X119276999Y-93448001D02*
X119459251Y-93265749D01*
X116822309Y-93448001D02*
X119276999Y-93448001D01*
X169862500Y-88900000D02*
X206375000Y-88900000D01*
X64293750Y-90487500D02*
X75406250Y-90487500D01*
X61118750Y-93662500D02*
X64293750Y-90487500D01*
X96623001Y-93448001D02*
X99433249Y-93448001D01*
X59113692Y-93662500D02*
X61118750Y-93662500D01*
X56735691Y-91284499D02*
X59113692Y-93662500D01*
X114676192Y-91301884D02*
X116822309Y-93448001D01*
X50006250Y-95250000D02*
X53971751Y-91284499D01*
X78366751Y-93448001D02*
X80345191Y-93448001D01*
X80345191Y-93448001D02*
X83305692Y-90487500D01*
X75406250Y-90487500D02*
X78366751Y-93448001D01*
X83305692Y-90487500D02*
X93662500Y-90487500D01*
X53971751Y-91284499D02*
X56735691Y-91284499D01*
X93662500Y-90487500D02*
X96623001Y-93448001D01*
X99433249Y-93448001D02*
X102393750Y-90487500D01*
X102393750Y-90487500D02*
X114676192Y-90487500D01*
X114676192Y-90487500D02*
X114676192Y-91301884D01*
D18*
X295275000Y-124879000D02*
X295275000Y-123825000D01*
X297588251Y-127192251D02*
X295275000Y-124879000D01*
X297588251Y-141615749D02*
X297588251Y-127192251D01*
X296329000Y-142875000D02*
X297588251Y-141615749D01*
X295275000Y-142875000D02*
X296329000Y-142875000D01*
X261143750Y-141287500D02*
X261143750Y-140176250D01*
X294221000Y-142875000D02*
X289736499Y-138390499D01*
X295275000Y-142875000D02*
X294221000Y-142875000D01*
X289736499Y-138390499D02*
X284678251Y-138390499D01*
X284678251Y-138390499D02*
X279400000Y-143668750D01*
X279400000Y-143668750D02*
X263525000Y-143668750D01*
X263525000Y-143668750D02*
X261143750Y-141287500D01*
X206375000Y-141287500D02*
X206375000Y-140176250D01*
X208699000Y-143611500D02*
X206375000Y-141287500D01*
X258762500Y-143611500D02*
X208699000Y-143611500D01*
X261143750Y-140176250D02*
X261143750Y-141230250D01*
X261143750Y-141230250D02*
X258762500Y-143611500D01*
X206375000Y-141230250D02*
X203993750Y-143611500D01*
X206375000Y-140176250D02*
X206375000Y-141230250D01*
X178113933Y-140871599D02*
X175834651Y-140871599D01*
X203993750Y-143611500D02*
X180853834Y-143611500D01*
X180853834Y-143611500D02*
X178113933Y-140871599D01*
X175834651Y-140871599D02*
X173037500Y-143668750D01*
X80911284Y-143668750D02*
X78114133Y-140871599D01*
X173037500Y-143668750D02*
X80911284Y-143668750D01*
X75886067Y-140871599D02*
X73088916Y-143668750D01*
X78114133Y-140871599D02*
X75886067Y-140871599D01*
X73088916Y-143668750D02*
X65881250Y-143668750D01*
X63500000Y-141287500D02*
X63500000Y-140176250D01*
X65881250Y-143668750D02*
X63500000Y-141287500D01*
X63500000Y-141230250D02*
X61061500Y-143668750D01*
X63500000Y-140176250D02*
X63500000Y-141230250D01*
X61061500Y-143668750D02*
X18256250Y-143668750D01*
X15875000Y-141287500D02*
X15875000Y-140176250D01*
X18256250Y-143668750D02*
X15875000Y-141287500D01*
X39687500Y-141230250D02*
X41332250Y-142875000D01*
X39687500Y-140176250D02*
X39687500Y-141230250D01*
X41332250Y-142875000D02*
X60325000Y-142875000D01*
X66675000Y-142875000D02*
X73025000Y-142875000D01*
X73025000Y-142875000D02*
X75482411Y-140417589D01*
X75482411Y-140417589D02*
X78505089Y-140417589D01*
X78505089Y-140417589D02*
X80962500Y-142875000D01*
X134937500Y-141287500D02*
X134937500Y-140176250D01*
X80962500Y-142875000D02*
X133350000Y-142875000D01*
X133350000Y-142875000D02*
X134937500Y-141287500D01*
X134937500Y-141230250D02*
X136582250Y-142875000D01*
X134937500Y-140176250D02*
X134937500Y-141230250D01*
X136582250Y-142875000D02*
X173037500Y-142875000D01*
X175494911Y-140417589D02*
X175646594Y-140417589D01*
X173037500Y-142875000D02*
X175494911Y-140417589D01*
X175646594Y-140417589D02*
X178517589Y-140417589D01*
X178517589Y-140417589D02*
X180975000Y-142875000D01*
X180975000Y-142875000D02*
X203200000Y-142875000D01*
X230187500Y-141230250D02*
X230187500Y-140176250D01*
X228542750Y-142875000D02*
X230187500Y-141230250D01*
X209550000Y-142875000D02*
X228542750Y-142875000D01*
X251115788Y-142875000D02*
X257968750Y-142875000D01*
X233940250Y-142875000D02*
X251115788Y-142875000D01*
X230187500Y-140176250D02*
X231241500Y-140176250D01*
X231241500Y-140176250D02*
X233940250Y-142875000D01*
X280193750Y-141230250D02*
X280193750Y-140176250D01*
X278549000Y-142875000D02*
X280193750Y-141230250D01*
X264318750Y-142875000D02*
X278549000Y-142875000D01*
X56356250Y-122180250D02*
X58001000Y-123825000D01*
X56356250Y-121126250D02*
X56356250Y-122180250D01*
X58001000Y-123825000D02*
X72231250Y-123825000D01*
X94456250Y-122180250D02*
X94456250Y-121126250D01*
X92811500Y-123825000D02*
X94456250Y-122180250D01*
X78581250Y-123825000D02*
X92811500Y-123825000D01*
X94456250Y-122180250D02*
X96101000Y-123825000D01*
X96101000Y-123825000D02*
X110331250Y-123825000D01*
X132556250Y-122180250D02*
X132556250Y-121126250D01*
X130911500Y-123825000D02*
X132556250Y-122180250D01*
X116681250Y-123825000D02*
X130911500Y-123825000D01*
X132556250Y-122180250D02*
X134201000Y-123825000D01*
X134201000Y-123825000D02*
X148431250Y-123825000D01*
X170656250Y-122180250D02*
X170656250Y-121126250D01*
X169011500Y-123825000D02*
X170656250Y-122180250D01*
X154781250Y-123825000D02*
X169011500Y-123825000D01*
X170656250Y-122180250D02*
X172301000Y-123825000D01*
X172301000Y-123825000D02*
X186531250Y-123825000D01*
X208756250Y-122180250D02*
X208756250Y-121126250D01*
X207111500Y-123825000D02*
X208756250Y-122180250D01*
X192881250Y-123825000D02*
X207111500Y-123825000D01*
X208756250Y-122180250D02*
X210401000Y-123825000D01*
X210401000Y-123825000D02*
X224631250Y-123825000D01*
X254000000Y-122180250D02*
X254000000Y-121126250D01*
X252355250Y-123825000D02*
X254000000Y-122180250D01*
X230981250Y-123825000D02*
X252355250Y-123825000D01*
X32127849Y-121821599D02*
X34131250Y-123825000D01*
X34131250Y-123825000D02*
X54768750Y-123825000D01*
X56356250Y-122237500D02*
X56356250Y-121126250D01*
X54768750Y-123825000D02*
X56356250Y-122237500D01*
X14287500Y-123825000D02*
X22225000Y-123825000D01*
X8572500Y-104457500D02*
X8572500Y-118110000D01*
X8572500Y-118110000D02*
X14287500Y-123825000D01*
X75406250Y-122237500D02*
X75406250Y-121126250D01*
X73025000Y-124618750D02*
X75406250Y-122237500D01*
X33279934Y-124618750D02*
X73025000Y-124618750D01*
X25400000Y-121126250D02*
X29787434Y-121126250D01*
X29787434Y-121126250D02*
X33279934Y-124618750D01*
X113506250Y-122237500D02*
X113506250Y-121126250D01*
X111125000Y-124618750D02*
X113506250Y-122237500D01*
X77844750Y-124618750D02*
X111125000Y-124618750D01*
X75406250Y-121126250D02*
X75406250Y-122180250D01*
X75406250Y-122180250D02*
X77844750Y-124618750D01*
X113506250Y-122180250D02*
X115944750Y-124618750D01*
X113506250Y-121126250D02*
X113506250Y-122180250D01*
X115944750Y-124618750D02*
X149225000Y-124618750D01*
X151606250Y-122237500D02*
X151606250Y-121126250D01*
X149225000Y-124618750D02*
X151606250Y-122237500D01*
X189706250Y-122237500D02*
X189706250Y-121126250D01*
X187325000Y-124618750D02*
X189706250Y-122237500D01*
X154044750Y-124618750D02*
X187325000Y-124618750D01*
X151606250Y-121126250D02*
X151606250Y-122180250D01*
X151606250Y-122180250D02*
X154044750Y-124618750D01*
X227806250Y-122237500D02*
X227806250Y-121126250D01*
X225425000Y-124618750D02*
X227806250Y-122237500D01*
X192144750Y-124618750D02*
X225425000Y-124618750D01*
X189706250Y-121126250D02*
X189706250Y-122180250D01*
X189706250Y-122180250D02*
X192144750Y-124618750D01*
X227806250Y-122180250D02*
X230244750Y-124618750D01*
X227806250Y-121126250D02*
X227806250Y-122180250D01*
X230244750Y-124618750D02*
X277812500Y-124618750D01*
X280193750Y-122237500D02*
X280193750Y-121126250D01*
X277812500Y-124618750D02*
X280193750Y-122237500D01*
X-1587500Y-112712500D02*
X-1587500Y-104457500D01*
X10318750Y-124618750D02*
X-1587500Y-112712500D01*
X22961500Y-124618750D02*
X10318750Y-124618750D01*
X25400000Y-121126250D02*
X25400000Y-122180250D01*
X25400000Y-122180250D02*
X22961500Y-124618750D01*
X55853288Y-104775000D02*
X62706250Y-104775000D01*
X50584000Y-104775000D02*
X55853288Y-104775000D01*
X46831250Y-102076250D02*
X47885250Y-102076250D01*
X47885250Y-102076250D02*
X50584000Y-104775000D01*
X69056250Y-104775000D02*
X83343750Y-104775000D01*
X84931250Y-103187500D02*
X84931250Y-102076250D01*
X83343750Y-104775000D02*
X84931250Y-103187500D01*
X84931250Y-103130250D02*
X86576000Y-104775000D01*
X84931250Y-102076250D02*
X84931250Y-103130250D01*
X86576000Y-104775000D02*
X100806250Y-104775000D01*
X123031250Y-103130250D02*
X123031250Y-102076250D01*
X121386500Y-104775000D02*
X123031250Y-103130250D01*
X107156250Y-104775000D02*
X121386500Y-104775000D01*
X123031250Y-103130250D02*
X124676000Y-104775000D01*
X124676000Y-104775000D02*
X138906250Y-104775000D01*
X161131250Y-103130250D02*
X161131250Y-102076250D01*
X159486500Y-104775000D02*
X161131250Y-103130250D01*
X145256250Y-104775000D02*
X159486500Y-104775000D01*
X161131250Y-103130250D02*
X162776000Y-104775000D01*
X162776000Y-104775000D02*
X177006250Y-104775000D01*
X199231250Y-103130250D02*
X199231250Y-102076250D01*
X197586500Y-104775000D02*
X199231250Y-103130250D01*
X183356250Y-104775000D02*
X197586500Y-104775000D01*
X199231250Y-103130250D02*
X200876000Y-104775000D01*
X200876000Y-104775000D02*
X215106250Y-104775000D01*
X237331250Y-103130250D02*
X237331250Y-102076250D01*
X235686500Y-104775000D02*
X237331250Y-103130250D01*
X221456250Y-104775000D02*
X235686500Y-104775000D01*
X35718750Y-104775000D02*
X28257500Y-97313750D01*
X42862500Y-104775000D02*
X35718750Y-104775000D01*
X46831250Y-102076250D02*
X45561250Y-102076250D01*
X45561250Y-102076250D02*
X42862500Y-104775000D01*
X28257500Y-91122500D02*
X28257500Y-91598750D01*
X26352500Y-89217500D02*
X28257500Y-91122500D01*
X28257500Y-97313750D02*
X28257500Y-91598750D01*
X20637500Y-102076250D02*
X21748750Y-102076250D01*
X65881250Y-103187500D02*
X65881250Y-102076250D01*
X63500000Y-105568750D02*
X65881250Y-103187500D01*
X26962100Y-96862900D02*
X35667950Y-105568750D01*
X35667950Y-105568750D02*
X63500000Y-105568750D01*
X65881250Y-103130250D02*
X68262500Y-105511500D01*
X65881250Y-102076250D02*
X65881250Y-103130250D01*
X68262500Y-105511500D02*
X101657250Y-105511500D01*
X103981250Y-103187500D02*
X103981250Y-102076250D01*
X101657250Y-105511500D02*
X103981250Y-103187500D01*
X142081250Y-103187500D02*
X142081250Y-102076250D01*
X139700000Y-105568750D02*
X142081250Y-103187500D01*
X106419750Y-105568750D02*
X139700000Y-105568750D01*
X103981250Y-102076250D02*
X103981250Y-103130250D01*
X103981250Y-103130250D02*
X106419750Y-105568750D01*
X180181250Y-103187500D02*
X180181250Y-102076250D01*
X177800000Y-105568750D02*
X180181250Y-103187500D01*
X144519750Y-105568750D02*
X177800000Y-105568750D01*
X142081250Y-102076250D02*
X142081250Y-103130250D01*
X142081250Y-103130250D02*
X144519750Y-105568750D01*
X180181250Y-103130250D02*
X182619750Y-105568750D01*
X180181250Y-102076250D02*
X180181250Y-103130250D01*
X182619750Y-105568750D02*
X215900000Y-105568750D01*
X218281250Y-103187500D02*
X218281250Y-102076250D01*
X215900000Y-105568750D02*
X218281250Y-103187500D01*
X268287500Y-103187500D02*
X268287500Y-102076250D01*
X265906250Y-105568750D02*
X268287500Y-103187500D01*
X218281250Y-103130250D02*
X220719750Y-105568750D01*
X218281250Y-102076250D02*
X218281250Y-103130250D01*
X242887500Y-105568750D02*
X243681250Y-105568750D01*
X220719750Y-105568750D02*
X242887500Y-105568750D01*
X243681250Y-105568750D02*
X246856250Y-102393750D01*
X250031250Y-102393750D02*
X253206250Y-105568750D01*
X246856250Y-102393750D02*
X250031250Y-102393750D01*
X253206250Y-105568750D02*
X265906250Y-105568750D01*
X21748750Y-102025450D02*
X26962100Y-96812100D01*
X21748750Y-102076250D02*
X21748750Y-102025450D01*
X26962100Y-96862900D02*
X26962100Y-96812100D01*
X23812500Y-89217500D02*
X24130000Y-89217500D01*
X26962100Y-92049600D02*
X26962100Y-96812100D01*
X24130000Y-89217500D02*
X26962100Y-92049600D01*
X352425000Y-141821000D02*
X352425000Y-142875000D01*
X355600000Y-138646000D02*
X352425000Y-141821000D01*
X355600000Y-131762500D02*
X355600000Y-138646000D01*
X347662500Y-123825000D02*
X355600000Y-131762500D01*
X347662500Y-77470000D02*
X350361250Y-74771250D01*
X347662500Y-78581250D02*
X347662500Y-77470000D01*
X347662500Y-78581250D02*
X347662500Y-123825000D01*
X347662500Y-77946250D02*
X347662500Y-78581250D01*
X42068750Y-83026250D02*
X43338750Y-83026250D01*
X43338750Y-83026250D02*
X46028308Y-85715808D01*
X46028308Y-85715808D02*
X56347058Y-85715808D01*
X56347058Y-85715808D02*
X57934558Y-85715808D01*
X57934558Y-85715808D02*
X57943750Y-85725000D01*
X80168750Y-84080250D02*
X80168750Y-83026250D01*
X78524000Y-85725000D02*
X80168750Y-84080250D01*
X64293750Y-85725000D02*
X78524000Y-85725000D01*
X80168750Y-84080250D02*
X81813500Y-85725000D01*
X81813500Y-85725000D02*
X96043750Y-85725000D01*
X118268750Y-84080250D02*
X118268750Y-83026250D01*
X116624000Y-85725000D02*
X118268750Y-84080250D01*
X102393750Y-85725000D02*
X116624000Y-85725000D01*
X118268750Y-84080250D02*
X119913500Y-85725000D01*
X119913500Y-85725000D02*
X134143750Y-85725000D01*
X156368750Y-84080250D02*
X156368750Y-83026250D01*
X154724000Y-85725000D02*
X156368750Y-84080250D01*
X140493750Y-85725000D02*
X154724000Y-85725000D01*
X156368750Y-84080250D02*
X158013500Y-85725000D01*
X158013500Y-85725000D02*
X172243750Y-85725000D01*
X194468750Y-84080250D02*
X194468750Y-83026250D01*
X192824000Y-85725000D02*
X194468750Y-84080250D01*
X178593750Y-85725000D02*
X192824000Y-85725000D01*
X194468750Y-84080250D02*
X196113500Y-85725000D01*
X196113500Y-85725000D02*
X210343750Y-85725000D01*
X232568750Y-84080250D02*
X232568750Y-83026250D01*
X230924000Y-85725000D02*
X232568750Y-84080250D01*
X216693750Y-85725000D02*
X230924000Y-85725000D01*
X232568750Y-84080250D02*
X234213500Y-85725000D01*
X234213500Y-85725000D02*
X248443750Y-85725000D01*
X275431250Y-84080250D02*
X275431250Y-83026250D01*
X273786500Y-85725000D02*
X275431250Y-84080250D01*
X251618750Y-85725000D02*
X273786500Y-85725000D01*
X346868750Y-75723750D02*
X350361250Y-72231250D01*
X346868750Y-76993750D02*
X346868750Y-75723750D01*
X346868750Y-76993750D02*
X346868750Y-76200000D01*
X346868750Y-118268750D02*
X346868750Y-76993750D01*
X61118750Y-84080250D02*
X62763500Y-85725000D01*
X49397962Y-86518750D02*
X35810750Y-86518750D01*
X58680250Y-86518750D02*
X49397962Y-86518750D01*
X61118750Y-84080250D02*
X58680250Y-86518750D01*
X61118750Y-83026250D02*
X61118750Y-84080250D01*
X63557250Y-86518750D02*
X61118750Y-84080250D01*
X96837500Y-86518750D02*
X63557250Y-86518750D01*
X99218750Y-83026250D02*
X99218750Y-84137500D01*
X99218750Y-84137500D02*
X96837500Y-86518750D01*
X137318750Y-84080250D02*
X137318750Y-83026250D01*
X134880250Y-86518750D02*
X137318750Y-84080250D01*
X101657250Y-86518750D02*
X134880250Y-86518750D01*
X99218750Y-84080250D02*
X101657250Y-86518750D01*
X99218750Y-83026250D02*
X99218750Y-84080250D01*
X175418750Y-84137500D02*
X175418750Y-83026250D01*
X173037500Y-86518750D02*
X175418750Y-84137500D01*
X137318750Y-84080250D02*
X139757250Y-86518750D01*
X139757250Y-86518750D02*
X173037500Y-86518750D01*
X213518750Y-84137500D02*
X213518750Y-83026250D01*
X211137500Y-86518750D02*
X213518750Y-84137500D01*
X177857250Y-86518750D02*
X211137500Y-86518750D01*
X175418750Y-83026250D02*
X175418750Y-84080250D01*
X175418750Y-84080250D02*
X177857250Y-86518750D01*
X251618750Y-84137500D02*
X251618750Y-83026250D01*
X249237500Y-86518750D02*
X251618750Y-84137500D01*
X215957250Y-86518750D02*
X249237500Y-86518750D01*
X213518750Y-83026250D02*
X213518750Y-84080250D01*
X213518750Y-84080250D02*
X215957250Y-86518750D01*
X251618750Y-83026250D02*
X251618750Y-84080250D01*
X34131250Y-86518750D02*
X20796250Y-86518750D01*
X18097500Y-83185000D02*
X18256250Y-83026250D01*
X18256250Y-87153750D02*
X16192500Y-89217500D01*
X18256250Y-83026250D02*
X18256250Y-87153750D01*
X18256250Y-84080250D02*
X20694750Y-86518750D01*
X18256250Y-83026250D02*
X18256250Y-84080250D01*
X20694750Y-86518750D02*
X20796250Y-86518750D01*
X342900000Y-104775000D02*
X342900000Y-103721000D01*
X342900000Y-103721000D02*
X346075000Y-100546000D01*
X346075000Y-73977500D02*
X346075000Y-74612500D01*
X350361250Y-69691250D02*
X346075000Y-73977500D01*
X346075000Y-100546000D02*
X346075000Y-74612500D01*
X346075000Y-74612500D02*
X346075000Y-74453750D01*
X36296500Y-66675000D02*
X48418750Y-66675000D01*
X32543750Y-63976250D02*
X33597750Y-63976250D01*
X33597750Y-63976250D02*
X36296500Y-66675000D01*
X54768750Y-66675000D02*
X69056250Y-66675000D01*
X70643750Y-65087500D02*
X70643750Y-63976250D01*
X69056250Y-66675000D02*
X70643750Y-65087500D01*
X108743750Y-65030250D02*
X110388500Y-66675000D01*
X110388500Y-66675000D02*
X125178116Y-66675000D01*
X125178116Y-66675000D02*
X125295308Y-66557808D01*
X146843750Y-65030250D02*
X146843750Y-63976250D01*
X145344817Y-66529183D02*
X146843750Y-65030250D01*
X130320817Y-66529183D02*
X145344817Y-66529183D01*
X72288500Y-66675000D02*
X86518750Y-66675000D01*
X70643750Y-63976250D02*
X70643750Y-65030250D01*
X70643750Y-65030250D02*
X72288500Y-66675000D01*
X108743750Y-65030250D02*
X108743750Y-63976250D01*
X107099000Y-66675000D02*
X108743750Y-65030250D01*
X92868750Y-66675000D02*
X107099000Y-66675000D01*
X146843750Y-65030250D02*
X148488500Y-66675000D01*
X148488500Y-66675000D02*
X162718750Y-66675000D01*
X184943750Y-65030250D02*
X184943750Y-63976250D01*
X183299000Y-66675000D02*
X184943750Y-65030250D01*
X169068750Y-66675000D02*
X183299000Y-66675000D01*
X184943750Y-65030250D02*
X186588500Y-66675000D01*
X186588500Y-66675000D02*
X200818750Y-66675000D01*
X223043750Y-65030250D02*
X223043750Y-63976250D01*
X221399000Y-66675000D02*
X223043750Y-65030250D01*
X207168750Y-66675000D02*
X221399000Y-66675000D01*
X223043750Y-65030250D02*
X224688500Y-66675000D01*
X224688500Y-66675000D02*
X238918750Y-66675000D01*
X270668750Y-65087500D02*
X270668750Y-63976250D01*
X269081250Y-66675000D02*
X270668750Y-65087500D01*
X253942434Y-66675000D02*
X269081250Y-66675000D01*
X251561184Y-64293750D02*
X253942434Y-66675000D01*
X242093750Y-66675000D02*
X244475000Y-64293750D01*
X244475000Y-64293750D02*
X251561184Y-64293750D01*
X17129249Y-68595751D02*
X18256250Y-67468750D01*
X18256250Y-67468750D02*
X27689250Y-67468750D01*
X51593750Y-65030250D02*
X51593750Y-63976250D01*
X49155250Y-67468750D02*
X51593750Y-65030250D01*
X29143250Y-67468750D02*
X49155250Y-67468750D01*
X89693750Y-65087500D02*
X89693750Y-63976250D01*
X87312500Y-67468750D02*
X89693750Y-65087500D01*
X51593750Y-65030250D02*
X54032250Y-67468750D01*
X54032250Y-67468750D02*
X87312500Y-67468750D01*
X89693750Y-65030250D02*
X92132250Y-67468750D01*
X89693750Y-63976250D02*
X89693750Y-65030250D01*
X92132250Y-67468750D02*
X125412500Y-67468750D01*
X127793750Y-65087500D02*
X127793750Y-63976250D01*
X125412500Y-67468750D02*
X127793750Y-65087500D01*
X127793750Y-65030250D02*
X130232250Y-67468750D01*
X127793750Y-63976250D02*
X127793750Y-65030250D01*
X130232250Y-67468750D02*
X163512500Y-67468750D01*
X165893750Y-65087500D02*
X165893750Y-63976250D01*
X163512500Y-67468750D02*
X165893750Y-65087500D01*
X203993750Y-65087500D02*
X203993750Y-63976250D01*
X201612500Y-67468750D02*
X203993750Y-65087500D01*
X168332250Y-67468750D02*
X201612500Y-67468750D01*
X165893750Y-63976250D02*
X165893750Y-65030250D01*
X165893750Y-65030250D02*
X168332250Y-67468750D01*
X203993750Y-63976250D02*
X203993750Y-65030250D01*
X203993750Y-65030250D02*
X203993750Y-65087500D01*
X242093750Y-65087500D02*
X242093750Y-63976250D01*
X239712500Y-67468750D02*
X242093750Y-65087500D01*
X203993750Y-65087500D02*
X206375000Y-67468750D01*
X206375000Y-67468750D02*
X239712500Y-67468750D01*
X16668750Y-69056250D02*
X17129249Y-68595751D01*
X13493750Y-65881250D02*
X16668750Y-69056250D01*
X13493750Y-63976250D02*
X13493750Y-65881250D01*
X11988799Y-86436201D02*
X16668750Y-81756250D01*
X11988799Y-88341201D02*
X11988799Y-86436201D01*
X11112500Y-89217500D02*
X11988799Y-88341201D01*
X16668750Y-81756250D02*
X16668750Y-69056250D01*
M02*
