G04 #@! TF.GenerationSoftware,KiCad,Pcbnew,(5.1.4)-1*
G04 #@! TF.CreationDate,2021-01-30T05:29:07-06:00*
G04 #@! TF.ProjectId,65NumpadPLATE,36354e75-6d70-4616-9450-4c4154452e6b,rev?*
G04 #@! TF.SameCoordinates,Original*
G04 #@! TF.FileFunction,Profile,NP*
%FSLAX46Y46*%
G04 Gerber Fmt 4.6, Leading zero omitted, Abs format (unit mm)*
G04 Created by KiCad (PCBNEW (5.1.4)-1) date 2021-01-30 05:29:07*
%MOMM*%
%LPD*%
G04 APERTURE LIST*
%ADD10C,0.200000*%
%ADD11C,0.050000*%
G04 APERTURE END LIST*
D10*
X388066150Y-72370551D02*
X388066150Y-78370551D01*
X389064500Y-78870551D02*
X389064500Y-95745300D01*
X388066150Y-96246551D02*
X388066150Y-102246551D01*
X388566150Y-102746551D02*
G75*
G02X388066150Y-102246551I0J500000D01*
G01*
X388566150Y-102746551D02*
X389064500Y-102746551D01*
X389064500Y-102746551D02*
X389066150Y-103358951D01*
X389566150Y-103858951D02*
G75*
G02X389066150Y-103358951I0J500000D01*
G01*
X389566150Y-103858951D02*
X402566150Y-103858951D01*
X403066150Y-103358951D02*
G75*
G02X402566150Y-103858951I-500000J0D01*
G01*
X389064500Y-95745300D02*
X388566150Y-95746551D01*
X388066150Y-96246551D02*
G75*
G02X388566150Y-95746551I500000J0D01*
G01*
X403066150Y-103358951D02*
X403066150Y-71308951D01*
X402566150Y-70808951D02*
G75*
G02X403066150Y-71308951I0J-500000D01*
G01*
X402566150Y-70808951D02*
X389566150Y-70808951D01*
X389066150Y-71308951D02*
G75*
G02X389566150Y-70808951I500000J0D01*
G01*
X389066150Y-71308951D02*
X389064500Y-71870551D01*
X389064500Y-71870551D02*
X388566150Y-71870551D01*
X388066150Y-72370551D02*
G75*
G02X388566150Y-71870551I500000J0D01*
G01*
X388566150Y-78870551D02*
X389064500Y-78870551D01*
X388566150Y-78870551D02*
G75*
G02X388066150Y-78370551I0J500000D01*
G01*
X331416150Y-140871951D02*
G75*
G02X330916150Y-140371951I0J500000D01*
G01*
X330916150Y-96271951D02*
X330916150Y-102271951D01*
X345916150Y-127965200D02*
X345916150Y-109383551D01*
X356882700Y-127965200D02*
X345916150Y-127965200D01*
X345916150Y-103333551D02*
X345916150Y-71283551D01*
X331914500Y-78895951D02*
X331916150Y-95758000D01*
X331916150Y-52233551D02*
X331916150Y-65233550D01*
X370516150Y-122883551D02*
X383516150Y-122883551D01*
X370016150Y-109383551D02*
G75*
G02X370516150Y-108883551I500000J0D01*
G01*
X384016150Y-122383551D02*
X384016150Y-109383551D01*
X383516150Y-108883551D02*
X370516150Y-108883551D01*
X370016150Y-109383551D02*
X370016150Y-122383551D01*
X383516150Y-108883551D02*
G75*
G02X384016150Y-109383551I0J-500000D01*
G01*
X384016150Y-122383551D02*
G75*
G02X383516150Y-122883551I-500000J0D01*
G01*
X370516150Y-122883551D02*
G75*
G02X370016150Y-122383551I0J500000D01*
G01*
X351466150Y-122883551D02*
G75*
G02X350966150Y-122383551I0J500000D01*
G01*
X350966150Y-109383551D02*
X350966150Y-122383551D01*
X364966150Y-122383551D02*
X364966150Y-109383551D01*
X364466150Y-108883551D02*
X351466150Y-108883551D01*
X364466150Y-108883551D02*
G75*
G02X364966150Y-109383551I0J-500000D01*
G01*
X351466150Y-122883551D02*
X364466150Y-122883551D01*
X350966150Y-109383551D02*
G75*
G02X351466150Y-108883551I500000J0D01*
G01*
X364966150Y-122383551D02*
G75*
G02X364466150Y-122883551I-500000J0D01*
G01*
X370016150Y-90333551D02*
G75*
G02X370516150Y-89833551I500000J0D01*
G01*
X350966150Y-90333551D02*
G75*
G02X351466150Y-89833551I500000J0D01*
G01*
X384016150Y-103333551D02*
X384016150Y-90333551D01*
X370016150Y-90333551D02*
X370016150Y-103333551D01*
X364466150Y-89833551D02*
G75*
G02X364966150Y-90333551I0J-500000D01*
G01*
X364966150Y-103333551D02*
X364966150Y-90333551D01*
X351466150Y-103833551D02*
X364466150Y-103833551D01*
X350966150Y-90333551D02*
X350966150Y-103333551D01*
X370516150Y-103833551D02*
G75*
G02X370016150Y-103333551I0J500000D01*
G01*
X364466150Y-89833551D02*
X351466150Y-89833551D01*
X370516150Y-103833551D02*
X383516150Y-103833551D01*
X383516150Y-89833551D02*
G75*
G02X384016150Y-90333551I0J-500000D01*
G01*
X384016150Y-103333551D02*
G75*
G02X383516150Y-103833551I-500000J0D01*
G01*
X383516150Y-89833551D02*
X370516150Y-89833551D01*
X364966150Y-103333551D02*
G75*
G02X364466150Y-103833551I-500000J0D01*
G01*
X351466150Y-103833551D02*
G75*
G02X350966150Y-103333551I0J500000D01*
G01*
X370016150Y-71283551D02*
X370016150Y-84283551D01*
X370516150Y-84783551D02*
X383516150Y-84783551D01*
X351466150Y-84783551D02*
X364466150Y-84783551D01*
X350966150Y-71283551D02*
G75*
G02X351466150Y-70783551I500000J0D01*
G01*
X364966150Y-84283551D02*
G75*
G02X364466150Y-84783551I-500000J0D01*
G01*
X370516150Y-84783551D02*
G75*
G02X370016150Y-84283551I0J500000D01*
G01*
X383516150Y-70783551D02*
X370516150Y-70783551D01*
X384016150Y-84283551D02*
G75*
G02X383516150Y-84783551I-500000J0D01*
G01*
X350966150Y-71283551D02*
X350966150Y-84283551D01*
X364466150Y-70783551D02*
G75*
G02X364966150Y-71283551I0J-500000D01*
G01*
X364966150Y-84283551D02*
X364966150Y-71283551D01*
X364466150Y-70783551D02*
X351466150Y-70783551D01*
X351466150Y-84783551D02*
G75*
G02X350966150Y-84283551I0J500000D01*
G01*
X384016150Y-84283551D02*
X384016150Y-71283551D01*
X370016150Y-71283551D02*
G75*
G02X370516150Y-70783551I500000J0D01*
G01*
X383516150Y-70783551D02*
G75*
G02X384016150Y-71283551I0J-500000D01*
G01*
X351466150Y-65733550D02*
G75*
G02X350966150Y-65233550I0J500000D01*
G01*
X402566150Y-51733551D02*
X389566150Y-51733551D01*
X384016150Y-65233550D02*
X384016150Y-52233551D01*
X383516150Y-51733551D02*
G75*
G02X384016150Y-52233551I0J-500000D01*
G01*
X370016150Y-52233551D02*
G75*
G02X370516150Y-51733551I500000J0D01*
G01*
X389566150Y-65733550D02*
X402566150Y-65733550D01*
X364466150Y-51733551D02*
X351466150Y-51733551D01*
X389066150Y-52233551D02*
G75*
G02X389566150Y-51733551I500000J0D01*
G01*
X384016150Y-65233550D02*
G75*
G02X383516150Y-65733550I-500000J0D01*
G01*
X345416150Y-51733551D02*
G75*
G02X345916150Y-52233551I0J-500000D01*
G01*
X403066150Y-65233550D02*
X403066150Y-52233551D01*
X389066150Y-52233551D02*
X389066150Y-65233550D01*
X370516150Y-65733550D02*
G75*
G02X370016150Y-65233550I0J500000D01*
G01*
X351466150Y-65733550D02*
X364466150Y-65733550D01*
X402566150Y-51733551D02*
G75*
G02X403066150Y-52233551I0J-500000D01*
G01*
X383516150Y-51733551D02*
X370516150Y-51733551D01*
X364966150Y-65233550D02*
G75*
G02X364466150Y-65733550I-500000J0D01*
G01*
X364466150Y-51733551D02*
G75*
G02X364966150Y-52233551I0J-500000D01*
G01*
X403066150Y-65233550D02*
G75*
G02X402566150Y-65733550I-500000J0D01*
G01*
X389566150Y-65733550D02*
G75*
G02X389066150Y-65233550I0J500000D01*
G01*
X370016150Y-52233551D02*
X370016150Y-65233550D01*
X370516150Y-65733550D02*
X383516150Y-65733550D01*
X345916150Y-65233550D02*
X345916150Y-52233551D01*
X331916150Y-52233551D02*
G75*
G02X332416150Y-51733551I500000J0D01*
G01*
X350966150Y-52233551D02*
G75*
G02X351466150Y-51733551I500000J0D01*
G01*
X350966150Y-52233551D02*
X350966150Y-65233550D01*
X364966150Y-65233550D02*
X364966150Y-52233551D01*
X332416150Y-65733550D02*
G75*
G02X331916150Y-65233550I0J500000D01*
G01*
X345416150Y-51733551D02*
X332416150Y-51733551D01*
X345416150Y-108883551D02*
X332416150Y-108883551D01*
X332416150Y-103833551D02*
X345416150Y-103833551D01*
X330916150Y-72395951D02*
X330916150Y-78395951D01*
X345416150Y-70783551D02*
X332416150Y-70783551D01*
X332427200Y-141984351D02*
X364466150Y-141984351D01*
X371106700Y-127933551D02*
X370516150Y-127933551D01*
X364466150Y-127958951D02*
X363880400Y-127958951D01*
X363880400Y-127958951D02*
X363879150Y-127433551D01*
X356879150Y-127433551D02*
X356882700Y-127965200D01*
X403066150Y-141433551D02*
G75*
G02X402566150Y-141933551I-500000J0D01*
G01*
X332427200Y-141984351D02*
G75*
G02X331927200Y-141484351I0J500000D01*
G01*
X331927200Y-140871951D02*
X331927200Y-141484351D01*
X331914500Y-116995951D02*
X331927200Y-133871951D01*
X364466150Y-127958951D02*
G75*
G02X364966150Y-128458951I0J-500000D01*
G01*
X364966150Y-141484351D02*
X364966150Y-128458951D01*
X364966150Y-141484351D02*
G75*
G02X364466150Y-141984351I-500000J0D01*
G01*
X331416150Y-78895951D02*
X331914500Y-78895951D01*
D11*
X407193750Y-51593750D02*
X407193750Y-67468750D01*
X327818750Y-51593750D02*
X327818750Y-67468750D01*
X327818750Y-49212500D02*
X327818750Y-51593750D01*
X407193750Y-49212500D02*
X407193750Y-51593750D01*
X329406250Y-146050000D02*
X405606250Y-146050000D01*
X405606250Y-47625000D02*
G75*
G02X407193750Y-49212500I0J-1587500D01*
G01*
X405606250Y-47625000D02*
X329406250Y-47625000D01*
X407193750Y-144462500D02*
X407193750Y-67468750D01*
X327818750Y-67468750D02*
X327818750Y-144462500D01*
X327818750Y-49212500D02*
G75*
G02X329406250Y-47625000I1587500J0D01*
G01*
X407193750Y-144462500D02*
G75*
G02X405606250Y-146050000I-1587500J0D01*
G01*
X329406250Y-146050000D02*
G75*
G02X327818750Y-144462500I0J1587500D01*
G01*
D10*
X356879150Y-127433551D02*
G75*
G02X357379150Y-126933551I500000J0D01*
G01*
X363379150Y-126933551D02*
G75*
G02X363879150Y-127433551I0J-500000D01*
G01*
X370016150Y-128433551D02*
X370016150Y-141433551D01*
X370516150Y-141933551D02*
G75*
G02X370016150Y-141433551I0J500000D01*
G01*
X363379150Y-126933551D02*
X357379150Y-126933551D01*
X389066150Y-127939800D02*
X378103150Y-127939800D01*
X370016150Y-128433551D02*
G75*
G02X370516150Y-127933551I500000J0D01*
G01*
X330916150Y-110495951D02*
X330916150Y-116495951D01*
X330916150Y-134371951D02*
X330916150Y-140371951D01*
X330916150Y-134371951D02*
G75*
G02X331416150Y-133871951I500000J0D01*
G01*
X402566150Y-108908951D02*
X389566150Y-108908951D01*
X331927200Y-133871951D02*
X331416150Y-133871951D01*
X402566150Y-108908951D02*
G75*
G02X403066150Y-109408951I0J-500000D01*
G01*
X389066150Y-109408951D02*
X389064500Y-109969300D01*
X403066150Y-141433551D02*
X403066150Y-109408951D01*
X331416150Y-116995951D02*
G75*
G02X330916150Y-116495951I0J500000D01*
G01*
X330916150Y-110495951D02*
G75*
G02X331416150Y-109995951I500000J0D01*
G01*
X389066150Y-109408951D02*
G75*
G02X389566150Y-108908951I500000J0D01*
G01*
X331416150Y-116995951D02*
X331914500Y-116995951D01*
X331914500Y-109995951D02*
X331416150Y-109995951D01*
X331416150Y-140871951D02*
X331927200Y-140871951D01*
X388566150Y-116970551D02*
G75*
G02X388066150Y-116470551I0J500000D01*
G01*
X388066150Y-110470551D02*
G75*
G02X388566150Y-109970551I500000J0D01*
G01*
X345416150Y-108883551D02*
G75*
G02X345916150Y-109383551I0J-500000D01*
G01*
X389064500Y-116967000D02*
X389066150Y-127939800D01*
X331916150Y-109383551D02*
G75*
G02X332416150Y-108883551I500000J0D01*
G01*
X389064500Y-109969300D02*
X388566150Y-109970551D01*
X331916150Y-109383551D02*
X331914500Y-109995951D01*
X388066150Y-110470551D02*
X388066150Y-116470551D01*
X388566150Y-116970551D02*
X389064500Y-116967000D01*
X332416150Y-103833551D02*
G75*
G02X331916150Y-103333551I0J500000D01*
G01*
X345916150Y-103333551D02*
G75*
G02X345416150Y-103833551I-500000J0D01*
G01*
X331916150Y-102768400D02*
X331916150Y-103333551D01*
X330916150Y-72395951D02*
G75*
G02X331416150Y-71895951I500000J0D01*
G01*
X331416150Y-102771951D02*
G75*
G02X330916150Y-102271951I0J500000D01*
G01*
X330916150Y-96271951D02*
G75*
G02X331416150Y-95771951I500000J0D01*
G01*
X331914500Y-71894700D02*
X331416150Y-71895951D01*
X331916150Y-71283551D02*
X331914500Y-71894700D01*
X331416150Y-102771951D02*
X331916150Y-102768400D01*
X331916150Y-95758000D02*
X331416150Y-95771951D01*
X331416150Y-78895951D02*
G75*
G02X330916150Y-78395951I0J500000D01*
G01*
X345416150Y-70783551D02*
G75*
G02X345916150Y-71283551I0J-500000D01*
G01*
X331916150Y-71283551D02*
G75*
G02X332416150Y-70783551I500000J0D01*
G01*
X371103150Y-127458951D02*
G75*
G02X371603150Y-126958951I500000J0D01*
G01*
X377603150Y-126958951D02*
X371603150Y-126958951D01*
X370516150Y-141933551D02*
X402566150Y-141933551D01*
X378103150Y-127939800D02*
X378103150Y-127458951D01*
X377603150Y-126958951D02*
G75*
G02X378103150Y-127458951I0J-500000D01*
G01*
X371103150Y-127458951D02*
X371106700Y-127933551D01*
X345916150Y-65233550D02*
G75*
G02X345416150Y-65733550I-500000J0D01*
G01*
X332416150Y-65733550D02*
X345416150Y-65733550D01*
M02*
