G04 #@! TF.GenerationSoftware,KiCad,Pcbnew,(5.1.4)-1*
G04 #@! TF.CreationDate,2021-01-30T05:29:07-06:00*
G04 #@! TF.ProjectId,65NumpadPLATE,36354e75-6d70-4616-9450-4c4154452e6b,rev?*
G04 #@! TF.SameCoordinates,Original*
G04 #@! TF.FileFunction,Soldermask,Bot*
G04 #@! TF.FilePolarity,Negative*
%FSLAX46Y46*%
G04 Gerber Fmt 4.6, Leading zero omitted, Abs format (unit mm)*
G04 Created by KiCad (PCBNEW (5.1.4)-1) date 2021-01-30 05:29:07*
%MOMM*%
%LPD*%
G04 APERTURE LIST*
%ADD10C,0.100000*%
G04 APERTURE END LIST*
D10*
G36*
X367881506Y-123803798D02*
G01*
X367987829Y-123824947D01*
X368288292Y-123949403D01*
X368558701Y-124130085D01*
X368788665Y-124360049D01*
X368969347Y-124630458D01*
X369093803Y-124930921D01*
X369157250Y-125249891D01*
X369157250Y-125575109D01*
X369093803Y-125894079D01*
X368969347Y-126194542D01*
X368788665Y-126464951D01*
X368558701Y-126694915D01*
X368288292Y-126875597D01*
X367987829Y-127000053D01*
X367881506Y-127021202D01*
X367668861Y-127063500D01*
X367343639Y-127063500D01*
X367130994Y-127021202D01*
X367024671Y-127000053D01*
X366724208Y-126875597D01*
X366453799Y-126694915D01*
X366223835Y-126464951D01*
X366043153Y-126194542D01*
X365918697Y-125894079D01*
X365855250Y-125575109D01*
X365855250Y-125249891D01*
X365918697Y-124930921D01*
X366043153Y-124630458D01*
X366223835Y-124360049D01*
X366453799Y-124130085D01*
X366724208Y-123949403D01*
X367024671Y-123824947D01*
X367130994Y-123803798D01*
X367343639Y-123761500D01*
X367668861Y-123761500D01*
X367881506Y-123803798D01*
X367881506Y-123803798D01*
G37*
G36*
X403981256Y-66653798D02*
G01*
X404087579Y-66674947D01*
X404388042Y-66799403D01*
X404658451Y-66980085D01*
X404888415Y-67210049D01*
X405069097Y-67480458D01*
X405193553Y-67780921D01*
X405257000Y-68099891D01*
X405257000Y-68425109D01*
X405193553Y-68744079D01*
X405069097Y-69044542D01*
X404888415Y-69314951D01*
X404658451Y-69544915D01*
X404388042Y-69725597D01*
X404087579Y-69850053D01*
X403981256Y-69871202D01*
X403768611Y-69913500D01*
X403443389Y-69913500D01*
X403230744Y-69871202D01*
X403124421Y-69850053D01*
X402823958Y-69725597D01*
X402553549Y-69544915D01*
X402323585Y-69314951D01*
X402142903Y-69044542D01*
X402018447Y-68744079D01*
X401955000Y-68425109D01*
X401955000Y-68099891D01*
X402018447Y-67780921D01*
X402142903Y-67480458D01*
X402323585Y-67210049D01*
X402553549Y-66980085D01*
X402823958Y-66799403D01*
X403124421Y-66674947D01*
X403230744Y-66653798D01*
X403443389Y-66611500D01*
X403768611Y-66611500D01*
X403981256Y-66653798D01*
X403981256Y-66653798D01*
G37*
G36*
X331591256Y-66653798D02*
G01*
X331697579Y-66674947D01*
X331998042Y-66799403D01*
X332268451Y-66980085D01*
X332498415Y-67210049D01*
X332679097Y-67480458D01*
X332803553Y-67780921D01*
X332867000Y-68099891D01*
X332867000Y-68425109D01*
X332803553Y-68744079D01*
X332679097Y-69044542D01*
X332498415Y-69314951D01*
X332268451Y-69544915D01*
X331998042Y-69725597D01*
X331697579Y-69850053D01*
X331591256Y-69871202D01*
X331378611Y-69913500D01*
X331053389Y-69913500D01*
X330840744Y-69871202D01*
X330734421Y-69850053D01*
X330433958Y-69725597D01*
X330163549Y-69544915D01*
X329933585Y-69314951D01*
X329752903Y-69044542D01*
X329628447Y-68744079D01*
X329565000Y-68425109D01*
X329565000Y-68099891D01*
X329628447Y-67780921D01*
X329752903Y-67480458D01*
X329933585Y-67210049D01*
X330163549Y-66980085D01*
X330433958Y-66799403D01*
X330734421Y-66674947D01*
X330840744Y-66653798D01*
X331053389Y-66611500D01*
X331378611Y-66611500D01*
X331591256Y-66653798D01*
X331591256Y-66653798D01*
G37*
M02*
