<?xml version="1.0" standalone="no"?>
 <!DOCTYPE svg PUBLIC "-//W3C//DTD SVG 1.1//EN" 
 "http://www.w3.org/Graphics/SVG/1.1/DTD/svg11.dtd"> 
<svg xmlns="http://www.w3.org/2000/svg" version="1.1" 
    width="29.7002cm" height="21.0007cm" viewBox="0 0 116930 82680 ">
<title>SVG Picture created as 65NumpadPLATE-F_SilkS.svg date 2021/01/30 16:21:49 </title>
  <desc>Picture generated by PCBNEW </desc>
<g style="fill:#000000; fill-opacity:1;stroke:#000000; stroke-opacity:1;
stroke-linecap:round; stroke-linejoin:round; "
 transform="translate(0 0) scale(1 1)">
</g>
<g style="fill:#000000; fill-opacity:0.0; 
stroke:#000000; stroke-width:-0.000393701; stroke-opacity:1; 
stroke-linecap:round; stroke-linejoin:round;">
</g>
<g style="fill:#000000; fill-opacity:0.0; 
stroke:#000000; stroke-width:59.0551; stroke-opacity:1; 
stroke-linecap:round; stroke-linejoin:round;">
<path d="M195937 50312
L195937 51099
" />
<path d="M196724 50312
L195937 50312
" />
<path d="M195937 55824
L196724 55824
" />
<path d="M195937 55036
L195937 55824
" />
<path d="M201449 55824
L201449 55036
" />
<path d="M200661 55824
L201449 55824
" />
<path d="M201449 50312
L201449 51099
" />
<path d="M200661 50312
L201449 50312
" />
<path d="M210937 27812
L210937 28599
" />
<path d="M211724 27812
L210937 27812
" />
<path d="M210937 33324
L211724 33324
" />
<path d="M210937 32536
L210937 33324
" />
<path d="M216449 33324
L216449 32536
" />
<path d="M215661 33324
L216449 33324
" />
<path d="M216449 27812
L216449 28599
" />
<path d="M215661 27812
L216449 27812
" />
<path d="M195937 42812
L195937 43599
" />
<path d="M196724 42812
L195937 42812
" />
<path d="M195937 48324
L196724 48324
" />
<path d="M195937 47536
L195937 48324
" />
<path d="M201449 48324
L201449 47536
" />
<path d="M200661 48324
L201449 48324
" />
<path d="M201449 42812
L201449 43599
" />
<path d="M200661 42812
L201449 42812
" />
<path d="M195937 35312
L195937 36099
" />
<path d="M196724 35312
L195937 35312
" />
<path d="M195937 40824
L196724 40824
" />
<path d="M195937 40036
L195937 40824
" />
<path d="M201449 40824
L201449 40036
" />
<path d="M200661 40824
L201449 40824
" />
<path d="M201449 35312
L201449 36099
" />
<path d="M200661 35312
L201449 35312
" />
<path d="M188437 50312
L188437 51099
" />
<path d="M189224 50312
L188437 50312
" />
<path d="M188437 55824
L189224 55824
" />
<path d="M188437 55036
L188437 55824
" />
<path d="M193949 55824
L193949 55036
" />
<path d="M193161 55824
L193949 55824
" />
<path d="M193949 50312
L193949 51099
" />
<path d="M193161 50312
L193949 50312
" />
<path d="M210937 35312
L210937 36099
" />
<path d="M211724 35312
L210937 35312
" />
<path d="M210937 40824
L211724 40824
" />
<path d="M210937 40036
L210937 40824
" />
<path d="M216449 40824
L216449 40036
" />
<path d="M215661 40824
L216449 40824
" />
<path d="M216449 35312
L216449 36099
" />
<path d="M215661 35312
L216449 35312
" />
</g>
<g style="fill:#000000; fill-opacity:0.0; 
stroke:#000000; stroke-width:150; stroke-opacity:1; 
stroke-linecap:round; stroke-linejoin:round;">
<path d="M195193 19880
L195193 31880
" />
<path d="M195193 31880
L202193 31880
" />
<path d="M202193 31880
L202193 19880
" />
<path d="M196193 19880
L196193 20880
" />
<path d="M196193 20880
L195193 20880
" />
</g>
<g style="fill:#000000; fill-opacity:1.0; 
stroke:#000000; stroke-width:59.0551; stroke-opacity:1; 
stroke-linecap:round; stroke-linejoin:round;">
<path style="fill:#000000; fill-opacity:1.0; 
stroke:#000000; stroke-width:59.0551; stroke-opacity:1; 
stroke-linecap:round; stroke-linejoin:round;fill-rule:evenodd;"
d="M 200634,22195
200634,22313
200595,22313
200595,22195
Z" /> 
<path style="fill:#000000; fill-opacity:1.0; 
stroke:#000000; stroke-width:59.0551; stroke-opacity:1; 
stroke-linecap:round; stroke-linejoin:round;fill-rule:evenodd;"
d="M 200556,22353
200556,22392
200516,22392
200516,22353
Z" /> 
<path style="fill:#000000; fill-opacity:1.0; 
stroke:#000000; stroke-width:59.0551; stroke-opacity:1; 
stroke-linecap:round; stroke-linejoin:round;fill-rule:evenodd;"
d="M 200634,22195
200634,22234
200438,22234
200438,22195
Z" /> 
<path style="fill:#000000; fill-opacity:1.0; 
stroke:#000000; stroke-width:59.0551; stroke-opacity:1; 
stroke-linecap:round; stroke-linejoin:round;fill-rule:evenodd;"
d="M 200477,22195
200477,22510
200438,22510
200438,22195
Z" /> 
<path style="fill:#000000; fill-opacity:1.0; 
stroke:#000000; stroke-width:59.0551; stroke-opacity:1; 
stroke-linecap:round; stroke-linejoin:round;fill-rule:evenodd;"
d="M 200634,22431
200634,22510
200595,22510
200595,22431
Z" /> 
</g>
<g style="fill:#000000; fill-opacity:1.0; 
stroke:#000000; stroke-width:150; stroke-opacity:1; 
stroke-linecap:round; stroke-linejoin:round;">
</g>
<g style="fill:#000000; fill-opacity:0.0; 
stroke:#000000; stroke-width:150; stroke-opacity:1; 
stroke-linecap:round; stroke-linejoin:round;">
<path d="M202193 19880
L202193 18880
" />
<path d="M202193 18880
L195193 18880
" />
<path d="M195193 18880
L195193 19880
" />
<path d="M196193 19880
L195193 19880
" />
</g>
<g style="fill:#000000; fill-opacity:0.0; 
stroke:#000000; stroke-width:59.0551; stroke-opacity:1; 
stroke-linecap:round; stroke-linejoin:round;">
<path d="M203437 35312
L203437 36099
" />
<path d="M204224 35312
L203437 35312
" />
<path d="M203437 40824
L204224 40824
" />
<path d="M203437 40036
L203437 40824
" />
<path d="M208949 40824
L208949 40036
" />
<path d="M208161 40824
L208949 40824
" />
<path d="M208949 35312
L208949 36099
" />
<path d="M208161 35312
L208949 35312
" />
<path d="M210937 20312
L210937 21099
" />
<path d="M211724 20312
L210937 20312
" />
<path d="M210937 25824
L211724 25824
" />
<path d="M210937 25036
L210937 25824
" />
<path d="M216449 25824
L216449 25036
" />
<path d="M215661 25824
L216449 25824
" />
<path d="M216449 20312
L216449 21099
" />
<path d="M215661 20312
L216449 20312
" />
<path d="M203437 50312
L203437 51099
" />
<path d="M204224 50312
L203437 50312
" />
<path d="M203437 55824
L204224 55824
" />
<path d="M203437 55036
L203437 55824
" />
<path d="M208949 55824
L208949 55036
" />
<path d="M208161 55824
L208949 55824
" />
<path d="M208949 50312
L208949 51099
" />
<path d="M208161 50312
L208949 50312
" />
<path d="M203437 27812
L203437 28599
" />
<path d="M204224 27812
L203437 27812
" />
<path d="M203437 33324
L204224 33324
" />
<path d="M203437 32536
L203437 33324
" />
<path d="M208949 33324
L208949 32536
" />
<path d="M208161 33324
L208949 33324
" />
<path d="M208949 27812
L208949 28599
" />
<path d="M208161 27812
L208949 27812
" />
<path d="M210937 42812
L210937 43599
" />
<path d="M211724 42812
L210937 42812
" />
<path d="M210937 48324
L211724 48324
" />
<path d="M210937 47536
L210937 48324
" />
<path d="M216449 48324
L216449 47536
" />
<path d="M215661 48324
L216449 48324
" />
<path d="M216449 42812
L216449 43599
" />
<path d="M215661 42812
L216449 42812
" />
<path d="M188437 35312
L188437 36099
" />
<path d="M189224 35312
L188437 35312
" />
<path d="M188437 40824
L189224 40824
" />
<path d="M188437 40036
L188437 40824
" />
<path d="M193949 40824
L193949 40036
" />
<path d="M193161 40824
L193949 40824
" />
<path d="M193949 35312
L193949 36099
" />
<path d="M193161 35312
L193949 35312
" />
<path d="M195937 27812
L195937 28599
" />
<path d="M196724 27812
L195937 27812
" />
<path d="M195937 33324
L196724 33324
" />
<path d="M195937 32536
L195937 33324
" />
<path d="M201449 33324
L201449 32536
" />
<path d="M200661 33324
L201449 33324
" />
<path d="M201449 27812
L201449 28599
" />
<path d="M200661 27812
L201449 27812
" />
<path d="M188437 20312
L188437 21099
" />
<path d="M189224 20312
L188437 20312
" />
<path d="M188437 25824
L189224 25824
" />
<path d="M188437 25036
L188437 25824
" />
<path d="M193949 25824
L193949 25036
" />
<path d="M193161 25824
L193949 25824
" />
<path d="M193949 20312
L193949 21099
" />
<path d="M193161 20312
L193949 20312
" />
<path d="M210937 50312
L210937 51099
" />
<path d="M211724 50312
L210937 50312
" />
<path d="M210937 55824
L211724 55824
" />
<path d="M210937 55036
L210937 55824
" />
<path d="M216449 55824
L216449 55036
" />
<path d="M215661 55824
L216449 55824
" />
<path d="M216449 50312
L216449 51099
" />
<path d="M215661 50312
L216449 50312
" />
<path d="M195937 20312
L195937 21099
" />
<path d="M196724 20312
L195937 20312
" />
<path d="M195937 25824
L196724 25824
" />
<path d="M195937 25036
L195937 25824
" />
<path d="M201449 25824
L201449 25036
" />
<path d="M200661 25824
L201449 25824
" />
<path d="M201449 20312
L201449 21099
" />
<path d="M200661 20312
L201449 20312
" />
<path d="M210937 46562
L210937 47349
" />
<path d="M211724 46562
L210937 46562
" />
<path d="M210937 52074
L211724 52074
" />
<path d="M210937 51286
L210937 52074
" />
<path d="M216449 52074
L216449 51286
" />
<path d="M215661 52074
L216449 52074
" />
<path d="M216449 46562
L216449 47349
" />
<path d="M215661 46562
L216449 46562
" />
<path d="M207187 50312
L207187 51099
" />
<path d="M207974 50312
L207187 50312
" />
<path d="M207187 55824
L207974 55824
" />
<path d="M207187 55036
L207187 55824
" />
<path d="M212699 55824
L212699 55036
" />
<path d="M211911 55824
L212699 55824
" />
<path d="M212699 50312
L212699 51099
" />
<path d="M211911 50312
L212699 50312
" />
<path d="M188437 42812
L188437 43599
" />
<path d="M189224 42812
L188437 42812
" />
<path d="M188437 48324
L189224 48324
" />
<path d="M188437 47536
L188437 48324
" />
<path d="M193949 48324
L193949 47536
" />
<path d="M193161 48324
L193949 48324
" />
<path d="M193949 42812
L193949 43599
" />
<path d="M193161 42812
L193949 42812
" />
<path d="M203437 42812
L203437 43599
" />
<path d="M204224 42812
L203437 42812
" />
<path d="M203437 48324
L204224 48324
" />
<path d="M203437 47536
L203437 48324
" />
<path d="M208949 48324
L208949 47536
" />
<path d="M208161 48324
L208949 48324
" />
<path d="M208949 42812
L208949 43599
" />
<path d="M208161 42812
L208949 42812
" />
<path d="M203437 20312
L203437 21099
" />
<path d="M204224 20312
L203437 20312
" />
<path d="M203437 25824
L204224 25824
" />
<path d="M203437 25036
L203437 25824
" />
<path d="M208949 25824
L208949 25036
" />
<path d="M208161 25824
L208949 25824
" />
<path d="M208949 20312
L208949 21099
" />
<path d="M208161 20312
L208949 20312
" />
<path d="M210937 31562
L210937 32349
" />
<path d="M211724 31562
L210937 31562
" />
<path d="M210937 37074
L211724 37074
" />
<path d="M210937 36286
L210937 37074
" />
<path d="M216449 37074
L216449 36286
" />
<path d="M215661 37074
L216449 37074
" />
<path d="M216449 31562
L216449 32349
" />
<path d="M215661 31562
L216449 31562
" />
<path d="M192187 50312
L192187 51099
" />
<path d="M192974 50312
L192187 50312
" />
<path d="M192187 55824
L192974 55824
" />
<path d="M192187 55036
L192187 55824
" />
<path d="M197699 55824
L197699 55036
" />
<path d="M196911 55824
L197699 55824
" />
<path d="M197699 50312
L197699 51099
" />
<path d="M196911 50312
L197699 50312
" />
<path d="M188437 46562
L188437 47349
" />
<path d="M189224 46562
L188437 46562
" />
<path d="M188437 52074
L189224 52074
" />
<path d="M188437 51286
L188437 52074
" />
<path d="M193949 52074
L193949 51286
" />
<path d="M193161 52074
L193949 52074
" />
<path d="M193949 46562
L193949 47349
" />
<path d="M193161 46562
L193949 46562
" />
<path d="M188437 27812
L188437 28599
" />
<path d="M189224 27812
L188437 27812
" />
<path d="M188437 33324
L189224 33324
" />
<path d="M188437 32536
L188437 33324
" />
<path d="M193949 33324
L193949 32536
" />
<path d="M193161 33324
L193949 33324
" />
<path d="M193949 27812
L193949 28599
" />
<path d="M193161 27812
L193949 27812
" />
<path d="M188437 31562
L188437 32349
" />
<path d="M189224 31562
L188437 31562
" />
<path d="M188437 37074
L189224 37074
" />
<path d="M188437 36286
L188437 37074
" />
<path d="M193949 37074
L193949 36286
" />
<path d="M193161 37074
L193949 37074
" />
<path d="M193949 31562
L193949 32349
" />
<path d="M193161 31562
L193949 31562
" />
<path d="M200715 30358
L200760 30373
L200775 30388
L200790 30418
L200790 30463
L200775 30493
L200760 30508
L200730 30523
L200610 30523
L200610 30208
L200715 30208
L200745 30223
L200760 30238
L200775 30268
L200775 30298
L200760 30328
L200745 30343
L200715 30358
L200610 30358
" />
<path d="M200910 30238
L200925 30223
L200955 30208
L201030 30208
L201060 30223
L201075 30238
L201090 30268
L201090 30298
L201075 30343
L200895 30523
L201090 30523
" />
<path d="M200738 27358
L200633 27358
" />
<path d="M200633 27523
L200633 27208
L200783 27208
" />
<path d="M200873 27208
L201083 27208
L200948 27523
" />
<path d="M200738 26358
L200633 26358
" />
<path d="M200633 26523
L200633 26208
L200783 26208
" />
<path d="M201038 26208
L200978 26208
L200948 26223
L200933 26238
L200903 26283
L200888 26343
L200888 26463
L200903 26493
L200918 26508
L200948 26523
L201008 26523
L201038 26508
L201053 26493
L201068 26463
L201068 26388
L201053 26358
L201038 26343
L201008 26328
L200948 26328
L200918 26343
L200903 26358
L200888 26388
" />
<path d="M200738 25358
L200633 25358
" />
<path d="M200633 25523
L200633 25208
L200783 25208
" />
<path d="M201053 25208
L200903 25208
L200888 25358
L200903 25343
L200933 25328
L201008 25328
L201038 25343
L201053 25358
L201068 25388
L201068 25463
L201053 25493
L201038 25508
L201008 25523
L200933 25523
L200903 25508
L200888 25493
" />
<path d="M200603 21223
L200573 21208
L200528 21208
L200483 21223
L200453 21253
L200438 21283
L200423 21343
L200423 21388
L200438 21448
L200453 21478
L200483 21508
L200528 21523
L200558 21523
L200603 21508
L200618 21493
L200618 21388
L200558 21388
" />
<path d="M200753 21523
L200753 21208
L200933 21523
L200933 21208
" />
<path d="M201083 21523
L201083 21208
L201158 21208
L201203 21223
L201233 21253
L201248 21283
L201263 21343
L201263 21388
L201248 21448
L201233 21478
L201203 21508
L201158 21523
L201083 21523
" />
<path d="M200740 22496
L200785 22511
L200860 22511
L200890 22496
L200905 22481
L200920 22451
L200920 22421
L200905 22391
L200890 22376
L200860 22361
L200800 22346
L200770 22331
L200755 22316
L200740 22286
L200740 22256
L200755 22226
L200770 22211
L200800 22196
L200875 22196
L200920 22211
" />
<path d="M201010 22196
L201190 22196
" />
<path d="M201100 22511
L201100 22196
" />
<path d="M200738 25358
L200633 25358
" />
<path d="M200633 25523
L200633 25208
L200783 25208
" />
<path d="M201053 25208
L200903 25208
L200888 25358
L200903 25343
L200933 25328
L201008 25328
L201038 25343
L201053 25358
L201068 25388
L201068 25463
L201053 25493
L201038 25508
L201008 25523
L200933 25523
L200903 25508
L200888 25493
" />
<path d="M200738 26358
L200633 26358
" />
<path d="M200633 26523
L200633 26208
L200783 26208
" />
<path d="M201038 26208
L200978 26208
L200948 26223
L200933 26238
L200903 26283
L200888 26343
L200888 26463
L200903 26493
L200918 26508
L200948 26523
L201008 26523
L201038 26508
L201053 26493
L201068 26463
L201068 26388
L201053 26358
L201038 26343
L201008 26328
L200948 26328
L200918 26343
L200903 26358
L200888 26388
" />
<path d="M200738 27358
L200633 27358
" />
<path d="M200633 27523
L200633 27208
L200783 27208
" />
<path d="M200873 27208
L201083 27208
L200948 27523
" />
<path d="M200715 30358
L200760 30373
L200775 30388
L200790 30418
L200790 30463
L200775 30493
L200760 30508
L200730 30523
L200610 30523
L200610 30208
L200715 30208
L200745 30223
L200760 30238
L200775 30268
L200775 30298
L200760 30328
L200745 30343
L200715 30358
L200610 30358
" />
<path d="M200910 30238
L200925 30223
L200955 30208
L201030 30208
L201060 30223
L201075 30238
L201090 30268
L201090 30298
L201075 30343
L200895 30523
L201090 30523
" />
<path d="M196303 22223
L196273 22208
L196228 22208
L196183 22223
L196153 22253
L196138 22283
L196123 22343
L196123 22388
L196138 22448
L196153 22478
L196183 22508
L196228 22523
L196258 22523
L196303 22508
L196318 22493
L196318 22388
L196258 22388
" />
<path d="M196453 22523
L196453 22208
L196633 22523
L196633 22208
" />
<path d="M196783 22523
L196783 22208
L196858 22208
L196903 22223
L196933 22253
L196948 22283
L196963 22343
L196963 22388
L196948 22448
L196933 22478
L196903 22508
L196858 22523
L196783 22523
" />
<path d="M200740 22496
L200785 22511
L200860 22511
L200890 22496
L200905 22481
L200920 22451
L200920 22421
L200905 22391
L200890 22376
L200860 22361
L200800 22346
L200770 22331
L200755 22316
L200740 22286
L200740 22256
L200755 22226
L200770 22211
L200800 22196
L200875 22196
L200920 22211
" />
<path d="M201010 22196
L201190 22196
" />
<path d="M201100 22511
L201100 22196
" />
<g >
</g>
</g> 
</svg>
