<?xml version="1.0" standalone="no"?>
 <!DOCTYPE svg PUBLIC "-//W3C//DTD SVG 1.1//EN" 
 "http://www.w3.org/Graphics/SVG/1.1/DTD/svg11.dtd"> 
<svg xmlns="http://www.w3.org/2000/svg" version="1.1" 
    width="29.7002cm" height="21.0007cm" viewBox="0 0 116930 82680 ">
<title>SVG Picture created as 65NumpadPLATE-Edge_Cuts.svg date 2021/01/30 16:21:49 </title>
  <desc>Picture generated by PCBNEW </desc>
<g style="fill:#000000; fill-opacity:1;stroke:#000000; stroke-opacity:1;
stroke-linecap:round; stroke-linejoin:round; "
 transform="translate(0 0) scale(1 1)">
</g>
<g style="fill:#000000; fill-opacity:0.0; 
stroke:#000000; stroke-width:-0.000393701; stroke-opacity:1; 
stroke-linecap:round; stroke-linejoin:round;">
</g>
<g style="fill:#000000; fill-opacity:0.0; 
stroke:#000000; stroke-width:78.7402; stroke-opacity:1; 
stroke-linecap:round; stroke-linejoin:round;">
<path d="M106184 25674
L106184 20556
" />
<path d="M25559 40675
L25559 35556
" />
<path d="M105987 20360
L100869 20360
" />
<path d="M24621 55675
L24621 50556
" />
<path d="M93369 33371
L98487 33371
" />
<path d="M33172.5 33175 A196.85 196.85 0.0 0 0 33369.4 33371.9 " />
<path d="M44422.5 25675 A196.85 196.85 0.0 0 0 44619.4 25871.8 " />
<path d="M117434 50556.9 A196.85 196.85 0.0 0 0 117238 50360 " />
<path d="M53684.4 28056.9 A196.85 196.85 0.0 0 0 53487.5 27860 " />
<path d="M83684.4 28056.9 A196.85 196.85 0.0 0 0 83487.5 27860 " />
<path d="M53487.5 33371.9 A196.85 196.85 0.0 0 0 53684.4 33175 " />
</g>
<g style="fill:#000000; fill-opacity:0.0; 
stroke:#000000; stroke-width:19.685; stroke-opacity:1; 
stroke-linecap:round; stroke-linejoin:round;">
<path d="M119062 56875
L119062 26562
" />
</g>
<g style="fill:#000000; fill-opacity:0.0; 
stroke:#000000; stroke-width:78.7402; stroke-opacity:1; 
stroke-linecap:round; stroke-linejoin:round;">
<path d="M49934 25674
L49934 20556
" />
<path d="M78369.4 27860 A196.85 196.85 0.0 0 0 78172.5 28056.9 " />
<path d="M34934.4 20556.9 A196.85 196.85 0.0 0 0 34737.5 20360 " />
<path d="M52746 55675
L52746 50556
" />
<path d="M68487.5 33371.9 A196.85 196.85 0.0 0 0 68684.4 33175 " />
<path d="M787.992 48568.7 A196.85 196.85 0.0 0 0 984.843 48765.6 " />
<path d="M111922 35556
L111922 40675
" />
<path d="M90246.9 50556.9 A196.85 196.85 0.0 0 0 90050 50360 " />
<path d="M55672.5 33175 A196.85 196.85 0.0 0 0 55869.4 33371.9 " />
<path d="M55869.4 27860 A196.85 196.85 0.0 0 0 55672.5 28056.9 " />
<path d="M24425 50360
L19306 50360
" />
<path d="M4934.35 20556.9 A196.85 196.85 0.0 0 0 4737.5 20360 " />
<path d="M90050 50360
L84931 50360
" />
<path d="M82119.4 20360 A196.85 196.85 0.0 0 0 81922.5 20556.9 " />
<path d="M55672 28056
L55672 33175
" />
<path d="M18172 28056
L18172 33175
" />
<path d="M108059 33175
L108059 28056
" />
<path d="M70672.5 33175 A196.85 196.85 0.0 0 0 70869.4 33371.9 " />
<path d="M117238 55871.9 A196.85 196.85 0.0 0 0 117434 55675 " />
<path d="M4737 20360
L-380 20360
" />
<path d="M102434 55675
L102434 50556
" />
<path d="M31184.4 28056.9 A196.85 196.85 0.0 0 0 30987.5 27860 " />
<path d="M25869.4 27860 A196.85 196.85 0.0 0 0 25672.5 28056.9 " />
<path d="M46184 33175
L46184 28056
" />
<path d="M40672 28056
L40672 33175
" />
<path d="M74422 20556
L74422 25674
" />
<path d="M44422 20556
L44422 25674
" />
<path d="M38487.5 33371.9 A196.85 196.85 0.0 0 0 38684.4 33175 " />
<path d="M102238 55871.9 A196.85 196.85 0.0 0 0 102434 55675 " />
<path d="M94934 25674
L94934 20556
" />
</g>
<g style="fill:#000000; fill-opacity:0.0; 
stroke:#000000; stroke-width:19.685; stroke-opacity:1; 
stroke-linecap:round; stroke-linejoin:round;">
<path d="M-1562 18750
L118437 18750
" />
</g>
<g style="fill:#000000; fill-opacity:0.0; 
stroke:#000000; stroke-width:78.7402; stroke-opacity:1; 
stroke-linecap:round; stroke-linejoin:round;">
<path d="M97119.4 50360 A196.85 196.85 0.0 0 0 96922.5 50556.9 " />
<path d="M12747 48765.6 A196.85 196.85 0.0 0 0 12943.9 48568.7 " />
<path d="M63369 33371
L68487 33371
" />
<path d="M61184.4 28056.9 A196.85 196.85 0.0 0 0 60987.5 27860 " />
<path d="M85672 28056
L85672 33175
" />
<path d="M63172 28056
L63172 33175
" />
<path d="M33369 33371
L38487 33371
" />
<path d="M29309 48175
L29309 43056
" />
<path d="M45987 27860
L40869 27860
" />
<path d="M28927 50163
L28927 55675
" />
<path d="M48369 33371
L53487 33371
" />
<path d="M78369 33371
L83487 33371
" />
<path d="M102744 33371
L107862 33371
" />
<path d="M38684.4 28056.9 A196.85 196.85 0.0 0 0 38487.5 27860 " />
<path d="M68684 33175
L68684 28056
" />
</g>
<g style="fill:#000000; fill-opacity:0.0; 
stroke:#000000; stroke-width:19.685; stroke-opacity:1; 
stroke-linecap:round; stroke-linejoin:round;">
<path d="M119062 19375 A625 625 0.0 0 0 118438 18750 " />
</g>
<g style="fill:#000000; fill-opacity:0.0; 
stroke:#000000; stroke-width:78.7402; stroke-opacity:1; 
stroke-linecap:round; stroke-linejoin:round;">
<path d="M75360 55675 A196.85 196.85 0.0 0 0 75556.9 55871.9 " />
<path d="M15246 55675
L15246 50556
" />
<path d="M9931.89 50360 A196.85 196.85 0.0 0 0 9735.04 50556.9 " />
<path d="M47235 50556
L47235 55675
" />
<path d="M7119.39 20360 A196.85 196.85 0.0 0 0 6922.54 20556.9 " />
<path d="M111923 25675 A196.85 196.85 0.0 0 0 112119 25871.8 " />
<path d="M12943.9 43056.9 A196.85 196.85 0.0 0 0 12747 42860 " />
<path d="M14619.4 20360 A196.85 196.85 0.0 0 0 14422.5 20556.9 " />
<path d="M6612.5 33371.9 A196.85 196.85 0.0 0 0 6809.35 33175 " />
</g>
<g style="fill:#000000; fill-opacity:0.0; 
stroke:#000000; stroke-width:19.685; stroke-opacity:1; 
stroke-linecap:round; stroke-linejoin:round;">
<path d="M-2187 26562
L-2187 56875
" />
</g>
<g style="fill:#000000; fill-opacity:0.0; 
stroke:#000000; stroke-width:78.7402; stroke-opacity:1; 
stroke-linecap:round; stroke-linejoin:round;">
<path d="M19306 55871
L24425 55871
" />
</g>
<g style="fill:#000000; fill-opacity:0.0; 
stroke:#000000; stroke-width:19.685; stroke-opacity:1; 
stroke-linecap:round; stroke-linejoin:round;">
<path d="M119062 20312
L119062 19375
" />
</g>
<g style="fill:#000000; fill-opacity:0.0; 
stroke:#000000; stroke-width:78.7402; stroke-opacity:1; 
stroke-linecap:round; stroke-linejoin:round;">
<path d="M6922 20556
L6922 25674
" />
<path d="M19934.4 20556.9 A196.85 196.85 0.0 0 0 19737.5 20360 " />
<path d="M19934 25674
L19934 20556
" />
<path d="M117434 33175
L117434 28056
" />
<path d="M19110 50556
L19110 55675
" />
<path d="M15246.9 50556.9 A196.85 196.85 0.0 0 0 15050 50360 " />
<path d="M99909 20360
L97547 20360
" />
<path d="M40362.5 40871.9 A196.85 196.85 0.0 0 0 40559.4 40675 " />
<path d="M12237.5 25871.8 A196.85 196.85 0.0 0 0 12434.4 25675 " />
<path d="M37119.4 20360 A196.85 196.85 0.0 0 0 36922.5 20556.9 " />
<path d="M-380.61 20360 A196.85 196.85 0.0 0 0 -577.461 20556.9 " />
<path d="M59422 20556
L59422 25674
" />
<path d="M44619.4 20360 A196.85 196.85 0.0 0 0 44422.5 20556.9 " />
</g>
<g style="fill:#000000; fill-opacity:0.0; 
stroke:#000000; stroke-width:19.685; stroke-opacity:1; 
stroke-linecap:round; stroke-linejoin:round;">
<path d="M-1562.5 18750 A625 625 0.0 0 0 -2187.5 19375 " />
</g>
<g style="fill:#000000; fill-opacity:0.0; 
stroke:#000000; stroke-width:78.7402; stroke-opacity:1; 
stroke-linecap:round; stroke-linejoin:round;">
<path d="M37119 25871
L42237 25871
" />
<path d="M27434 25674
L27434 20556
" />
<path d="M59422.5 25675 A196.85 196.85 0.0 0 0 59619.4 25871.8 " />
<path d="M5675 50360
L556 50360
" />
<path d="M29124.8 49966.3 A196.85 196.85 0.0 0 0 28928 50163.2 " />
<path d="M42237.5 25871.8 A196.85 196.85 0.0 0 0 42434.4 25675 " />
<path d="M19737.5 25871.8 A196.85 196.85 0.0 0 0 19934.4 25675 " />
<path d="M9931 55871
L15050 55871
" />
<path d="M42434 25674
L42434 20556
" />
<path d="M64737.5 25871.8 A196.85 196.85 0.0 0 0 64934.4 25675 " />
<path d="M6922.54 25675 A196.85 196.85 0.0 0 0 7119.39 25871.8 " />
<path d="M59619 25871
L64737 25871
" />
<path d="M14619 25871
L19737 25871
" />
<path d="M9735 50556
L9735 55675
" />
<path d="M59619.4 20360 A196.85 196.85 0.0 0 0 59422.5 20556.9 " />
<path d="M34934 25674
L34934 20556
" />
<path d="M111922 28056
L111922 33175
" />
<path d="M16297.5 48175 A196.85 196.85 0.0 0 0 16494.4 48371.9 " />
<path d="M104423 55675 A196.85 196.85 0.0 0 0 104619 55871.9 " />
<path d="M29422 20556
L29422 25674
" />
<path d="M42434.4 20556.9 A196.85 196.85 0.0 0 0 42237.5 20360 " />
<path d="M34737 20360
L29619 20360
" />
<path d="M10384 48765
L12747 48765
" />
<path d="M44619 25871
L49737 25871
" />
<path d="M34737.5 25871.8 A196.85 196.85 0.0 0 0 34934.4 25675 " />
<path d="M4934 25674
L4934 20556
" />
<path d="M70857.1 55871.9 A196.85 196.85 0.0 0 0 71053.9 55675 " />
<path d="M35047.5 40675 A196.85 196.85 0.0 0 0 35244.4 40871.9 " />
<path d="M1297 28056
L1297 33175
" />
<path d="M57237 20360
L52119 20360
" />
<path d="M100672 20556
L100672 25674
" />
<path d="M49934.3 20556.9 A196.85 196.85 0.0 0 0 49737.5 20360 " />
<path d="M14422.5 25675 A196.85 196.85 0.0 0 0 14619.4 25871.8 " />
<path d="M68494.9 49966.3 A196.85 196.85 0.0 0 0 68298 50163.2 " />
<path d="M47235 55675 A196.85 196.85 0.0 0 0 47431.9 55871.9 " />
<path d="M24425 55871.9 A196.85 196.85 0.0 0 0 24621.9 55675 " />
<path d="M30987 27860
L25869 27860
" />
<path d="M51922.5 25675 A196.85 196.85 0.0 0 0 52119.4 25871.8 " />
<path d="M57237.5 25871.8 A196.85 196.85 0.0 0 0 57434.4 25675 " />
<path d="M51922 20556
L51922 25674
" />
<path d="M52746.9 50556.9 A196.85 196.85 0.0 0 0 52550 50360 " />
<path d="M52119 25871
L57237 25871
" />
</g>
<g style="fill:#000000; fill-opacity:0.0; 
stroke:#000000; stroke-width:19.685; stroke-opacity:1; 
stroke-linecap:round; stroke-linejoin:round;">
<path d="M-2187.5 56875 A625 625 0.0 0 0 -1562.5 57500 " />
</g>
<g style="fill:#000000; fill-opacity:0.0; 
stroke:#000000; stroke-width:78.7402; stroke-opacity:1; 
stroke-linecap:round; stroke-linejoin:round;">
<path d="M12237 20360
L7119 20360
" />
<path d="M48172.5 33175 A196.85 196.85 0.0 0 0 48369.4 33371.9 " />
<path d="M97119 55871
L102237 55871
" />
<path d="M22119.4 20360 A196.85 196.85 0.0 0 0 21922.5 20556.9 " />
<path d="M5871.85 50556.9 A196.85 196.85 0.0 0 0 5675 50360 " />
<path d="M27237.5 25871.8 A196.85 196.85 0.0 0 0 27434.4 25675 " />
<path d="M25672 28056
L25672 33175
" />
<path d="M4737.5 25871.8 A196.85 196.85 0.0 0 0 4934.35 25675 " />
<path d="M27434.4 20556.9 A196.85 196.85 0.0 0 0 27237.5 20360 " />
<path d="M49737.5 25871.8 A196.85 196.85 0.0 0 0 49934.3 25675 " />
<path d="M29619.4 20360 A196.85 196.85 0.0 0 0 29422.5 20556.9 " />
<path d="M84931 55871
L90050 55871
" />
<path d="M68298 50163
L68298 55675
" />
<path d="M49737 20360
L44619 20360
" />
<path d="M7746 40675
L7746 35556
" />
<path d="M-577.461 25675 A196.85 196.85 0.0 0 0 -380.61 25871.8 " />
<path d="M9735.04 55675 A196.85 196.85 0.0 0 0 9931.89 55871.9 " />
<path d="M57434.4 20556.9 A196.85 196.85 0.0 0 0 57237.5 20360 " />
<path d="M71053.9 50163.2 A196.85 196.85 0.0 0 0 70857.1 49966.3 " />
<path d="M36922 20556
L36922 25674
" />
</g>
<g style="fill:#000000; fill-opacity:0.0; 
stroke:#000000; stroke-width:19.685; stroke-opacity:1; 
stroke-linecap:round; stroke-linejoin:round;">
<path d="M119062 20312
L119062 26562
" />
</g>
<g style="fill:#000000; fill-opacity:0.0; 
stroke:#000000; stroke-width:78.7402; stroke-opacity:1; 
stroke-linecap:round; stroke-linejoin:round;">
<path d="M24621.9 50556.9 A196.85 196.85 0.0 0 0 24425 50360 " />
<path d="M40672.5 33175 A196.85 196.85 0.0 0 0 40869.4 33371.9 " />
<path d="M15050 50360
L9931 50360
" />
<path d="M80675 55871.9 A196.85 196.85 0.0 0 0 80871.9 55675 " />
<path d="M14422 20556
L14422 25674
" />
<path d="M-380 25871
L4737 25871
" />
<path d="M52119.4 20360 A196.85 196.85 0.0 0 0 51922.5 20556.9 " />
<path d="M104619 55871
L109737 55871
" />
<path d="M45987.5 33371.9 A196.85 196.85 0.0 0 0 46184.4 33175 " />
<path d="M25672.5 33175 A196.85 196.85 0.0 0 0 25869.4 33371.9 " />
<path d="M27237 20360
L22119 20360
" />
<path d="M31487 49966
L29124 49966
" />
<path d="M15050 55871.9 A196.85 196.85 0.0 0 0 15246.9 55675 " />
<path d="M7119 25871
L12237 25871
" />
<path d="M97350 20556
L97350 26068
" />
<path d="M5675 55871.9 A196.85 196.85 0.0 0 0 5871.85 55675 " />
<path d="M33059.4 35556.9 A196.85 196.85 0.0 0 0 32862.5 35360 " />
<path d="M19110 55675 A196.85 196.85 0.0 0 0 19306.9 55871.9 " />
<path d="M52550 50360
L47431 50360
" />
<path d="M19737 20360
L14619 20360
" />
<path d="M7550 40871.9 A196.85 196.85 0.0 0 0 7746.85 40675 " />
<path d="M47431.9 50360 A196.85 196.85 0.0 0 0 47235 50556.9 " />
<path d="M29112 42860
L23994 42860
" />
<path d="M97350.5 26068.7 A196.85 196.85 0.0 0 0 97547.3 26265.6 " />
<path d="M360.039 55675 A196.85 196.85 0.0 0 0 556.89 55871.9 " />
<path d="M18059.4 35556.9 A196.85 196.85 0.0 0 0 17862.5 35360 " />
<path d="M22119 25871
L27237 25871
" />
<path d="M21922 20556
L21922 25674
" />
<path d="M31683 55675
L31683 50163
" />
<path d="M117238 33371.9 A196.85 196.85 0.0 0 0 117434 33175 " />
<path d="M100869 20360 A196.85 196.85 0.0 0 0 100673 20556.9 " />
<path d="M5871 55675
L5871 50556
" />
<path d="M12744 40871
L17862 40871
" />
<path d="M32862 35360
L27744 35360
" />
<path d="M106947 26265
L109309 26265
" />
<path d="M-577 20556
L-577 25674
" />
<path d="M90246 55675
L90246 50556
" />
<path d="M109737 50360
L104619 50360
" />
<path d="M20244 40871
L25362 40871
" />
</g>
<g style="fill:#000000; fill-opacity:0.0; 
stroke:#000000; stroke-width:19.685; stroke-opacity:1; 
stroke-linecap:round; stroke-linejoin:round;">
<path d="M-2187 26562
L-2187 20312
" />
</g>
<g style="fill:#000000; fill-opacity:0.0; 
stroke:#000000; stroke-width:78.7402; stroke-opacity:1; 
stroke-linecap:round; stroke-linejoin:round;">
<path d="M64934.4 20556.9 A196.85 196.85 0.0 0 0 64737.5 20360 " />
<path d="M47431 55871
L52550 55871
" />
<path d="M556.89 50360 A196.85 196.85 0.0 0 0 360.039 50556.9 " />
<path d="M2431 40871
L7550 40871
" />
<path d="M117237 27860
L112119 27860
" />
<path d="M52550 55871.9 A196.85 196.85 0.0 0 0 52746.9 55675 " />
<path d="M19306.9 50360 A196.85 196.85 0.0 0 0 19110 50556.9 " />
<path d="M68494 55871
L70857 55871
" />
<path d="M40559.4 35556.9 A196.85 196.85 0.0 0 0 40362.5 35360 " />
<path d="M68298 55675 A196.85 196.85 0.0 0 0 68494.9 55871.9 " />
<path d="M12434.4 20556.9 A196.85 196.85 0.0 0 0 12237.5 20360 " />
<path d="M10672.5 33175 A196.85 196.85 0.0 0 0 10869.4 33371.9 " />
<path d="M29619 25871
L34737 25871
" />
<path d="M1494.39 27860 A196.85 196.85 0.0 0 0 1297.54 28056.9 " />
<path d="M70857 49966
L68494 49966
" />
<path d="M29422.5 25675 A196.85 196.85 0.0 0 0 29619.4 25871.8 " />
<path d="M29124 55871
L31487 55871
" />
<path d="M97547 26265
L99909 26265
" />
<path d="M33059 40675
L33059 35556
" />
<path d="M112119 27860 A196.85 196.85 0.0 0 0 111923 28056.9 " />
<path d="M2235 35556
L2235 40675
" />
<path d="M109506 26068
L109506 20556
" />
<path d="M117434 28056.9 A196.85 196.85 0.0 0 0 117238 27860 " />
<path d="M17862.5 40871.9 A196.85 196.85 0.0 0 0 18059.4 40675 " />
<path d="M32862.5 40871.9 A196.85 196.85 0.0 0 0 33059.4 40675 " />
<path d="M64737 20360
L59619 20360
" />
<path d="M57434 25674
L57434 20556
" />
<path d="M17862 35360
L12744 35360
" />
<path d="M2431.89 35360 A196.85 196.85 0.0 0 0 2235.04 35556.9 " />
<path d="M20047.5 40675 A196.85 196.85 0.0 0 0 20244.4 40871.9 " />
<path d="M27547.5 40675 A196.85 196.85 0.0 0 0 27744.4 40871.9 " />
<path d="M7746.85 35556.9 A196.85 196.85 0.0 0 0 7550 35360 " />
<path d="M97547.3 20360 A196.85 196.85 0.0 0 0 97350.5 20556.9 " />
<path d="M106947 20360 A196.85 196.85 0.0 0 0 106750 20556.9 " />
<path d="M7550 35360
L2431 35360
" />
<path d="M112119 33371
L117237 33371
" />
<path d="M2235.04 40675 A196.85 196.85 0.0 0 0 2431.89 40871.9 " />
<path d="M6612 27860
L1494 27860
" />
<path d="M25362.5 40871.9 A196.85 196.85 0.0 0 0 25559.4 40675 " />
<path d="M18369.4 27860 A196.85 196.85 0.0 0 0 18172.5 28056.9 " />
<path d="M1494 33371
L6612 33371
" />
<path d="M109506 20556.9 A196.85 196.85 0.0 0 0 109310 20360 " />
<path d="M21922.5 25675 A196.85 196.85 0.0 0 0 22119.4 25871.8 " />
<path d="M42237 20360
L37119 20360
" />
<path d="M12744.4 35360 A196.85 196.85 0.0 0 0 12547.5 35556.9 " />
<path d="M109309 20360
L106947 20360
" />
<path d="M99909.5 26265.6 A196.85 196.85 0.0 0 0 100106 26068.7 " />
<path d="M20047 35556
L20047 40675
" />
<path d="M27744 40871
L32862 40871
" />
<path d="M36922.5 25675 A196.85 196.85 0.0 0 0 37119.4 25871.8 " />
<path d="M72434 25674
L72434 20556
" />
<path d="M106750 26068.7 A196.85 196.85 0.0 0 0 106947 26265.6 " />
<path d="M25362 35360
L20244 35360
" />
<path d="M64934 25674
L64934 20556
" />
<path d="M18059 40675
L18059 35556
" />
<path d="M100106 26068
L100106 20556
" />
<path d="M99425 42860
L94306 42860
" />
<path d="M16184.4 28056.9 A196.85 196.85 0.0 0 0 15987.5 27860 " />
<path d="M66922.5 25675 A196.85 196.85 0.0 0 0 67119.4 25871.8 " />
<path d="M12547.5 40675 A196.85 196.85 0.0 0 0 12744.4 40871.9 " />
<path d="M44112 42860
L38994 42860
" />
<path d="M25559.4 35556.9 A196.85 196.85 0.0 0 0 25362.5 35360 " />
<path d="M106750 20556
L106750 26068
" />
<path d="M100869 25871
L105987 25871
" />
<path d="M6809.35 28056.9 A196.85 196.85 0.0 0 0 6612.5 27860 " />
<path d="M12547 35556
L12547 40675
" />
<path d="M18172.5 33175 A196.85 196.85 0.0 0 0 18369.4 33371.9 " />
<path d="M23487.5 33371.9 A196.85 196.85 0.0 0 0 23684.4 33175 " />
<path d="M100106 20556.9 A196.85 196.85 0.0 0 0 99909.5 20360 " />
<path d="M27744.4 35360 A196.85 196.85 0.0 0 0 27547.5 35556.9 " />
<path d="M10869.4 27860 A196.85 196.85 0.0 0 0 10672.5 28056.9 " />
<path d="M109738 48371.9 A196.85 196.85 0.0 0 0 109934 48175 " />
<path d="M72237 20360
L67119 20360
" />
<path d="M67119 25871
L72237 25871
" />
<path d="M10672 28056
L10672 33175
" />
<path d="M53797 43056
L53797 48175
" />
<path d="M15987.5 33371.9 A196.85 196.85 0.0 0 0 16184.4 33175 " />
<path d="M109934 43056.9 A196.85 196.85 0.0 0 0 109738 42860 " />
<path d="M76494.4 42860 A196.85 196.85 0.0 0 0 76297.5 43056.9 " />
<path d="M83797.5 48175 A196.85 196.85 0.0 0 0 83994.4 48371.9 " />
<path d="M72237.5 25871.8 A196.85 196.85 0.0 0 0 72434.4 25675 " />
<path d="M72434.4 20556.9 A196.85 196.85 0.0 0 0 72237.5 20360 " />
<path d="M109310 26265.6 A196.85 196.85 0.0 0 0 109506 26068.7 " />
<path d="M106184 20556.9 A196.85 196.85 0.0 0 0 105988 20360 " />
<path d="M61494 48371
L66612 48371
" />
<path d="M46297 43056
L46297 48175
" />
<path d="M6809 33175
L6809 28056
" />
<path d="M44309.4 43056.9 A196.85 196.85 0.0 0 0 44112.5 42860 " />
<path d="M20244.4 35360 A196.85 196.85 0.0 0 0 20047.5 35556.9 " />
<path d="M18369 33371
L23487 33371
" />
<path d="M79934.4 20556.9 A196.85 196.85 0.0 0 0 79737.5 20360 " />
<path d="M12434 25674
L12434 20556
" />
<path d="M1297.54 33175 A196.85 196.85 0.0 0 0 1494.39 33371.9 " />
<path d="M74309.4 43056.9 A196.85 196.85 0.0 0 0 74112.5 42860 " />
<path d="M23684.4 28056.9 A196.85 196.85 0.0 0 0 23487.5 27860 " />
<path d="M94306.9 42860 A196.85 196.85 0.0 0 0 94110 43056.9 " />
<path d="M10869 33371
L15987 33371
" />
<path d="M27547 35556
L27547 40675
" />
<path d="M66612 42860
L61494 42860
" />
<path d="M109737 42860
L104619 42860
" />
<path d="M99621 48175
L99621 43056
" />
<path d="M68994.4 42860 A196.85 196.85 0.0 0 0 68797.5 43056.9 " />
<path d="M51809 48175
L51809 43056
" />
<path d="M79737.5 25871.8 A196.85 196.85 0.0 0 0 79934.4 25675 " />
<path d="M53797.5 48175 A196.85 196.85 0.0 0 0 53994.4 48371.9 " />
<path d="M111923 48175 A196.85 196.85 0.0 0 0 112119 48371.9 " />
<path d="M89112 42860
L83994 42860
" />
<path d="M67119.4 20360 A196.85 196.85 0.0 0 0 66922.5 20556.9 " />
<path d="M76494 48371
L81612 48371
" />
<path d="M66809.4 43056.9 A196.85 196.85 0.0 0 0 66612.5 42860 " />
<path d="M16184 33175
L16184 28056
" />
<path d="M36809 48175
L36809 43056
" />
<path d="M104422 43056
L104422 48175
" />
<path d="M15987 27860
L10869 27860
" />
<path d="M59309.4 43056.9 A196.85 196.85 0.0 0 0 59112.5 42860 " />
<path d="M112119 42860 A196.85 196.85 0.0 0 0 111923 43056.9 " />
<path d="M99425 48371.9 A196.85 196.85 0.0 0 0 99621.9 48175 " />
<path d="M31297 43056
L31297 48175
" />
<path d="M81612.5 48371.9 A196.85 196.85 0.0 0 0 81809.4 48175 " />
<path d="M51612.5 48371.9 A196.85 196.85 0.0 0 0 51809.4 48175 " />
<path d="M117434 48175
L117434 43056
" />
<path d="M81809 48175
L81809 43056
" />
<path d="M66809 48175
L66809 43056
" />
<path d="M38994 48371
L44112 48371
" />
<path d="M89309 48175
L89309 43056
" />
<path d="M104619 48371
L109737 48371
" />
<path d="M104423 48175 A196.85 196.85 0.0 0 0 104619 48371.9 " />
<path d="M94306 48371
L99425 48371
" />
<path d="M117237 42860
L112119 42860
" />
<path d="M83797 43056
L83797 48175
" />
<path d="M46494.4 42860 A196.85 196.85 0.0 0 0 46297.5 43056.9 " />
<path d="M109934 48175
L109934 43056
" />
<path d="M94110 43056
L94110 48175
" />
<path d="M83994 48371
L89112 48371
" />
<path d="M46297.5 48175 A196.85 196.85 0.0 0 0 46494.4 48371.9 " />
<path d="M111922 43056
L111922 48175
" />
<path d="M42744.4 35360 A196.85 196.85 0.0 0 0 42547.5 35556.9 " />
<path d="M112119 48371
L117237 48371
" />
<path d="M68797.5 48175 A196.85 196.85 0.0 0 0 68994.4 48371.9 " />
<path d="M66922 20556
L66922 25674
" />
<path d="M117434 43056.9 A196.85 196.85 0.0 0 0 117238 42860 " />
<path d="M76297.5 48175 A196.85 196.85 0.0 0 0 76494.4 48371.9 " />
<path d="M94110 48175 A196.85 196.85 0.0 0 0 94306.9 48371.9 " />
<path d="M108372 41265.6 A196.85 196.85 0.0 0 0 108569 41068.7 " />
<path d="M81612 42860
L76494 42860
" />
<path d="M42744 40871
L47862 40871
" />
<path d="M38797.5 48175 A196.85 196.85 0.0 0 0 38994.4 48371.9 " />
<path d="M48059 40675
L48059 35556
" />
<path d="M89619.4 20360 A196.85 196.85 0.0 0 0 89422.5 20556.9 " />
<path d="M40559 40675
L40559 35556
" />
<path d="M31494 48371
L36612 48371
" />
<path d="M83994.4 42860 A196.85 196.85 0.0 0 0 83797.5 43056.9 " />
<path d="M61297 43056
L61297 48175
" />
<path d="M65047.5 40675 A196.85 196.85 0.0 0 0 65244.4 40871.9 " />
<path d="M35244 40871
L40362 40871
" />
<path d="M38797 43056
L38797 48175
" />
<path d="M48059.4 35556.9 A196.85 196.85 0.0 0 0 47862.5 35360 " />
<path d="M105247 35556.9 A196.85 196.85 0.0 0 0 105050 35360 " />
<path d="M42547 35556
L42547 40675
" />
<path d="M76297 43056
L76297 48175
" />
<path d="M112119 35360 A196.85 196.85 0.0 0 0 111923 35556.9 " />
<path d="M89309.4 43056.9 A196.85 196.85 0.0 0 0 89112.5 42860 " />
<path d="M63059.4 35556.9 A196.85 196.85 0.0 0 0 62862.5 35360 " />
<path d="M47862 35360
L42744 35360
" />
<path d="M74422.5 25675 A196.85 196.85 0.0 0 0 74619.4 25871.8 " />
<path d="M87744.4 35360 A196.85 196.85 0.0 0 0 87547.5 35556.9 " />
<path d="M55362.5 40871.9 A196.85 196.85 0.0 0 0 55559.4 40675 " />
<path d="M55362 35360
L50244 35360
" />
<path d="M68797 43056
L68797 48175
" />
<path d="M53994 48371
L59112 48371
" />
<path d="M40362 35360
L35244 35360
" />
<path d="M38994.4 42860 A196.85 196.85 0.0 0 0 38797.5 43056.9 " />
<path d="M99621.9 43056.9 A196.85 196.85 0.0 0 0 99425 42860 " />
<path d="M57547 35556
L57547 40675
" />
<path d="M63059 40675
L63059 35556
" />
<path d="M59112.5 48371.9 A196.85 196.85 0.0 0 0 59309.4 48175 " />
<path d="M85559 40675
L85559 35556
" />
<path d="M46494 48371
L51612 48371
" />
<path d="M57547.5 40675 A196.85 196.85 0.0 0 0 57744.4 40871.9 " />
<path d="M117238 48371.9 A196.85 196.85 0.0 0 0 117434 48175 " />
<path d="M66612.5 48371.9 A196.85 196.85 0.0 0 0 66809.4 48175 " />
<path d="M61494.4 42860 A196.85 196.85 0.0 0 0 61297.5 43056.9 " />
<path d="M57744 40871
L62862 40871
" />
<path d="M35244.4 35360 A196.85 196.85 0.0 0 0 35047.5 35556.9 " />
<path d="M44309 48175
L44309 43056
" />
<path d="M31494.4 42860 A196.85 196.85 0.0 0 0 31297.5 43056.9 " />
<path d="M85559.4 35556.9 A196.85 196.85 0.0 0 0 85362.5 35360 " />
<path d="M81809.4 43056.9 A196.85 196.85 0.0 0 0 81612.5 42860 " />
<path d="M74112 42860
L68994 42860
" />
<path d="M104619 42860 A196.85 196.85 0.0 0 0 104423 43056.9 " />
<path d="M51809.4 43056.9 A196.85 196.85 0.0 0 0 51612.5 42860 " />
<path d="M70362 35360
L65244 35360
" />
<path d="M36612 42860
L31494 42860
" />
<path d="M36809.4 43056.9 A196.85 196.85 0.0 0 0 36612.5 42860 " />
<path d="M112119 40871
L117237 40871
" />
<path d="M62862.5 40871.9 A196.85 196.85 0.0 0 0 63059.4 40675 " />
<path d="M84931.9 50360 A196.85 196.85 0.0 0 0 84735 50556.9 " />
<path d="M61297.5 48175 A196.85 196.85 0.0 0 0 61494.4 48371.9 " />
<path d="M50244.4 35360 A196.85 196.85 0.0 0 0 50047.5 35556.9 " />
<path d="M57744.4 35360 A196.85 196.85 0.0 0 0 57547.5 35556.9 " />
<path d="M72547 35556
L72547 40675
" />
<path d="M87547.5 40675 A196.85 196.85 0.0 0 0 87744.4 40871.9 " />
<path d="M53994.4 42860 A196.85 196.85 0.0 0 0 53797.5 43056.9 " />
<path d="M23797.5 48175 A196.85 196.85 0.0 0 0 23994.4 48371.9 " />
<path d="M50047.5 40675 A196.85 196.85 0.0 0 0 50244.4 40871.9 " />
<path d="M74112.5 48371.9 A196.85 196.85 0.0 0 0 74309.4 48175 " />
<path d="M70559 40675
L70559 35556
" />
<path d="M77862.5 40871.9 A196.85 196.85 0.0 0 0 78059.4 40675 " />
<path d="M65244.4 35360 A196.85 196.85 0.0 0 0 65047.5 35556.9 " />
<path d="M99168.9 35556.9 A196.85 196.85 0.0 0 0 98972 35360 " />
<path d="M96412 35556
L96412 41068
" />
<path d="M99735 35556
L99735 40675
" />
<path d="M117434 35556.9 A196.85 196.85 0.0 0 0 117238 35360 " />
<path d="M89112.5 48371.9 A196.85 196.85 0.0 0 0 89309.4 48175 " />
<path d="M108569 35556.9 A196.85 196.85 0.0 0 0 108372 35360 " />
<path d="M78059 40675
L78059 35556
" />
<path d="M9425 48371.9 A196.85 196.85 0.0 0 0 9621.85 48175 " />
<path d="M62862 35360
L57744 35360
" />
<path d="M85362.5 40871.9 A196.85 196.85 0.0 0 0 85559.4 40675 " />
<path d="M50244 40871
L55362 40871
" />
<path d="M98972 35360
L96609 35360
" />
<path d="M51612 42860
L46494 42860
" />
<path d="M105050 35360
L99931 35360
" />
<path d="M4306.89 42860 A196.85 196.85 0.0 0 0 4110.04 43056.9 " />
<path d="M23797 43056
L23797 48175
" />
<path d="M111923 40675 A196.85 196.85 0.0 0 0 112119 40871.9 " />
<path d="M74309 48175
L74309 43056
" />
<path d="M92862 35360
L87744 35360
" />
<path d="M59309 48175
L59309 43056
" />
<path d="M59112 42860
L53994 42860
" />
<path d="M50047 35556
L50047 40675
" />
<path d="M44112.5 48371.9 A196.85 196.85 0.0 0 0 44309.4 48175 " />
<path d="M70362.5 40871.9 A196.85 196.85 0.0 0 0 70559.4 40675 " />
<path d="M106009 41265
L108372 41265
" />
<path d="M81922 20556
L81922 25674
" />
<path d="M117238 40871.9 A196.85 196.85 0.0 0 0 117434 40675 " />
<path d="M96609 41265
L98972 41265
" />
<path d="M68994 48371
L74112 48371
" />
<path d="M105812 35556
L105812 41068
" />
<path d="M99735 40675 A196.85 196.85 0.0 0 0 99931.9 40871.9 " />
<path d="M74619 25871
L79737 25871
" />
<path d="M102434 50556.9 A196.85 196.85 0.0 0 0 102238 50360 " />
<path d="M117237 35360
L112119 35360
" />
<path d="M98972 41265.6 A196.85 196.85 0.0 0 0 99168.9 41068.7 " />
<path d="M65244 40871
L70362 40871
" />
<path d="M112119 50360 A196.85 196.85 0.0 0 0 111923 50556.9 " />
<path d="M99931.9 35360 A196.85 196.85 0.0 0 0 99735 35556.9 " />
<path d="M78059.4 35556.9 A196.85 196.85 0.0 0 0 77862.5 35360 " />
<path d="M87547 35556
L87547 40675
" />
<path d="M89422.5 25675 A196.85 196.85 0.0 0 0 89619.4 25871.8 " />
<path d="M72744 40871
L77862 40871
" />
<path d="M105813 41068.7 A196.85 196.85 0.0 0 0 106010 41265.6 " />
<path d="M3543.9 43056.9 A196.85 196.85 0.0 0 0 3347.05 42860 " />
<path d="M35047 35556
L35047 40675
" />
<path d="M96922 50556
L96922 55675
" />
<path d="M87744 40871
L92862 40871
" />
<path d="M93059.4 35556.9 A196.85 196.85 0.0 0 0 92862.5 35360 " />
<path d="M108372 35360
L106009 35360
" />
<path d="M984 48765
L3347 48765
" />
<path d="M80047.5 40675 A196.85 196.85 0.0 0 0 80244.4 40871.9 " />
<path d="M984.843 42860 A196.85 196.85 0.0 0 0 787.992 43056.9 " />
<path d="M117434 55675
L117434 50556
" />
<path d="M79737 20360
L74619 20360
" />
<path d="M75360 50556
L75360 55675
" />
<path d="M105246 40675
L105246 35556
" />
<path d="M31487 55871.9 A196.85 196.85 0.0 0 0 31683.9 55675 " />
<path d="M55559 40675
L55559 35556
" />
<path d="M94737 20360
L89619 20360
" />
<path d="M87434.4 20556.9 A196.85 196.85 0.0 0 0 87237.5 20360 " />
<path d="M93059 40675
L93059 35556
" />
<path d="M98487 27860
L93369 27860
" />
<path d="M29309.4 43056.9 A196.85 196.85 0.0 0 0 29112.5 42860 " />
<path d="M85362 35360
L80244 35360
" />
<path d="M75556.9 50360 A196.85 196.85 0.0 0 0 75360 50556.9 " />
<path d="M4110 43056
L4110 48175
" />
<path d="M80675 50360
L75556 50360
" />
<path d="M104422 50556
L104422 55675
" />
<path d="M80047 35556
L80047 40675
" />
<path d="M99931 40871
L105050 40871
" />
<path d="M80244.4 35360 A196.85 196.85 0.0 0 0 80047.5 35556.9 " />
<path d="M72547.5 40675 A196.85 196.85 0.0 0 0 72744.4 40871.9 " />
<path d="M47862.5 40871.9 A196.85 196.85 0.0 0 0 48059.4 40675 " />
<path d="M109738 55871.9 A196.85 196.85 0.0 0 0 109934 55675 " />
<path d="M28928 55675 A196.85 196.85 0.0 0 0 29124.8 55871.9 " />
<path d="M96413 41068.7 A196.85 196.85 0.0 0 0 96609.8 41265.6 " />
<path d="M81922.5 25675 A196.85 196.85 0.0 0 0 82119.4 25871.8 " />
<path d="M80244 40871
L85362 40871
" />
<path d="M55559.4 35556.9 A196.85 196.85 0.0 0 0 55362.5 35360 " />
<path d="M89422 20556
L89422 25674
" />
<path d="M108568 41068
L108568 35556
" />
<path d="M92862.5 40871.9 A196.85 196.85 0.0 0 0 93059.4 40675 " />
<path d="M42547.5 40675 A196.85 196.85 0.0 0 0 42744.4 40871.9 " />
<path d="M100673 25675 A196.85 196.85 0.0 0 0 100869 25871.8 " />
<path d="M107862 27860
L102744 27860
" />
<path d="M71053 55675
L71053 50163
" />
<path d="M106010 35360 A196.85 196.85 0.0 0 0 105813 35556.9 " />
<path d="M117434 40675
L117434 35556
" />
<path d="M65047 35556
L65047 40675
" />
<path d="M70559.4 35556.9 A196.85 196.85 0.0 0 0 70362.5 35360 " />
<path d="M79934 25674
L79934 20556
" />
<path d="M96609.8 35360 A196.85 196.85 0.0 0 0 96413 35556.9 " />
<path d="M93172.5 33175 A196.85 196.85 0.0 0 0 93369.4 33371.9 " />
<path d="M82119 25871
L87237 25871
" />
<path d="M105050 40871.9 A196.85 196.85 0.0 0 0 105247 40675 " />
<path d="M80871 55675
L80871 50556
" />
<path d="M87434 25674
L87434 20556
" />
<path d="M94737.5 25871.8 A196.85 196.85 0.0 0 0 94934.4 25675 " />
<path d="M98487.5 33371.9 A196.85 196.85 0.0 0 0 98684.4 33175 " />
<path d="M9621.85 43056.9 A196.85 196.85 0.0 0 0 9425 42860 " />
<path d="M21612 42860
L16494 42860
" />
<path d="M23994.4 42860 A196.85 196.85 0.0 0 0 23797.5 43056.9 " />
<path d="M94934.4 20556.9 A196.85 196.85 0.0 0 0 94737.5 20360 " />
<path d="M68684.4 28056.9 A196.85 196.85 0.0 0 0 68487.5 27860 " />
<path d="M3543 48568
L3543 43056
" />
<path d="M117237 50360
L112119 50360
" />
<path d="M63172.5 33175 A196.85 196.85 0.0 0 0 63369.4 33371.9 " />
<path d="M89619 25871
L94737 25871
" />
<path d="M23994 48371
L29112 48371
" />
<path d="M70869 33371
L75987 33371
" />
<path d="M117434 20556.9 A196.85 196.85 0.0 0 0 117238 20360 " />
<path d="M87237.5 25871.8 A196.85 196.85 0.0 0 0 87434.4 25675 " />
<path d="M102744 27860 A196.85 196.85 0.0 0 0 102548 28056.9 " />
<path d="M111922 50556
L111922 55675
" />
<path d="M96922.5 55675 A196.85 196.85 0.0 0 0 97119.4 55871.9 " />
<path d="M105988 25871.8 A196.85 196.85 0.0 0 0 106184 25675 " />
<path d="M16494.4 42860 A196.85 196.85 0.0 0 0 16297.5 43056.9 " />
<path d="M99168 41068
L99168 35556
" />
<path d="M78172 28056
L78172 33175
" />
<path d="M60987.5 33371.9 A196.85 196.85 0.0 0 0 61184.4 33175 " />
<path d="M109934 55675
L109934 50556
" />
<path d="M3347 42860
L984 42860
" />
<path d="M38684 33175
L38684 28056
" />
<path d="M46184.4 28056.9 A196.85 196.85 0.0 0 0 45987.5 27860 " />
<path d="M10188 48568.7 A196.85 196.85 0.0 0 0 10384.8 48765.6 " />
<path d="M53487 27860
L48369 27860
" />
<path d="M48369.4 27860 A196.85 196.85 0.0 0 0 48172.5 28056.9 " />
<path d="M76184 33175
L76184 28056
" />
<path d="M40869.4 27860 A196.85 196.85 0.0 0 0 40672.5 28056.9 " />
<path d="M98684.4 28056.9 A196.85 196.85 0.0 0 0 98487.5 27860 " />
<path d="M68487 27860
L63369 27860
" />
<path d="M112119 25871
L117237 25871
" />
<path d="M3347.05 48765.6 A196.85 196.85 0.0 0 0 3543.9 48568.7 " />
<path d="M33172 28056
L33172 33175
" />
<path d="M25869 33371
L30987 33371
" />
<path d="M83487 27860
L78369 27860
" />
<path d="M87237 20360
L82119 20360
" />
<path d="M91184 33175
L91184 28056
" />
<path d="M90987 27860
L85869 27860
" />
<path d="M117434 25674
L117434 20556
" />
<path d="M55869 33371
L60987 33371
" />
<path d="M74619.4 20360 A196.85 196.85 0.0 0 0 74422.5 20556.9 " />
<path d="M85672.5 33175 A196.85 196.85 0.0 0 0 85869.4 33371.9 " />
<path d="M75987.5 33371.9 A196.85 196.85 0.0 0 0 76184.4 33175 " />
<path d="M70672 28056
L70672 33175
" />
<path d="M102548 33175 A196.85 196.85 0.0 0 0 102744 33371.9 " />
<path d="M93369.4 27860 A196.85 196.85 0.0 0 0 93172.5 28056.9 " />
<path d="M77862 35360
L72744 35360
" />
<path d="M91184.4 28056.9 A196.85 196.85 0.0 0 0 90987.5 27860 " />
<path d="M78172.5 33175 A196.85 196.85 0.0 0 0 78369.4 33371.9 " />
<path d="M48172 28056
L48172 33175
" />
<path d="M98684 33175
L98684 28056
" />
<path d="M80871.9 50556.9 A196.85 196.85 0.0 0 0 80675 50360 " />
<path d="M53684 33175
L53684 28056
" />
<path d="M23487 27860
L18369 27860
" />
<path d="M36612.5 48371.9 A196.85 196.85 0.0 0 0 36809.4 48175 " />
<path d="M29112.5 48371.9 A196.85 196.85 0.0 0 0 29309.4 48175 " />
<path d="M102237 50360
L97119 50360
" />
<path d="M83487.5 33371.9 A196.85 196.85 0.0 0 0 83684.4 33175 " />
<path d="M107862 33371.9 A196.85 196.85 0.0 0 0 108059 33175 " />
<path d="M83684 33175
L83684 28056
" />
<path d="M60987 27860
L55869 27860
" />
<path d="M31683.9 50163.2 A196.85 196.85 0.0 0 0 31487 49966.3 " />
<path d="M117238 25871.8 A196.85 196.85 0.0 0 0 117434 25675 " />
<path d="M112119 55871
L117237 55871
" />
<path d="M117237 20360
L112119 20360
" />
<path d="M108059 28056.9 A196.85 196.85 0.0 0 0 107862 27860 " />
<path d="M10187 43056
L10187 48568
" />
<path d="M111923 55675 A196.85 196.85 0.0 0 0 112119 55871.9 " />
<path d="M63369.4 27860 A196.85 196.85 0.0 0 0 63172.5 28056.9 " />
<path d="M12943 48568
L12943 43056
" />
<path d="M111922 20556
L111922 25674
" />
<path d="M787 43056
L787 48568
" />
<path d="M9621 48175
L9621 43056
" />
<path d="M85869 33371
L90987 33371
" />
<path d="M84735 55675 A196.85 196.85 0.0 0 0 84931.9 55871.9 " />
<path d="M31184 33175
L31184 28056
" />
<path d="M4110.04 48175 A196.85 196.85 0.0 0 0 4306.89 48371.9 " />
<path d="M23684 33175
L23684 28056
" />
<path d="M38487 27860
L33369 27860
" />
<path d="M90987.5 33371.9 A196.85 196.85 0.0 0 0 91184.4 33175 " />
<path d="M111923 33175 A196.85 196.85 0.0 0 0 112119 33371.9 " />
<path d="M40869 33371
L45987 33371
" />
<path d="M109934 50556.9 A196.85 196.85 0.0 0 0 109738 50360 " />
<path d="M84735 50556
L84735 55675
" />
<path d="M12747 42860
L10384 42860
" />
</g>
<g style="fill:#000000; fill-opacity:0.0; 
stroke:#000000; stroke-width:19.685; stroke-opacity:1; 
stroke-linecap:round; stroke-linejoin:round;">
<path d="M118438 57500 A625 625 0.0 0 0 119062 56875 " />
</g>
<g style="fill:#000000; fill-opacity:0.0; 
stroke:#000000; stroke-width:78.7402; stroke-opacity:1; 
stroke-linecap:round; stroke-linejoin:round;">
<path d="M360 50556
L360 55675
" />
<path d="M75556 55871
L80675 55871
" />
<path d="M70869.4 27860 A196.85 196.85 0.0 0 0 70672.5 28056.9 " />
<path d="M30987.5 33371.9 A196.85 196.85 0.0 0 0 31184.4 33175 " />
<path d="M10384.8 42860 A196.85 196.85 0.0 0 0 10188 43056.9 " />
<path d="M90050 55871.9 A196.85 196.85 0.0 0 0 90246.9 55675 " />
<path d="M104619 50360 A196.85 196.85 0.0 0 0 104423 50556.9 " />
<path d="M21612.5 48371.9 A196.85 196.85 0.0 0 0 21809.4 48175 " />
</g>
<g style="fill:#000000; fill-opacity:0.0; 
stroke:#000000; stroke-width:19.685; stroke-opacity:1; 
stroke-linecap:round; stroke-linejoin:round;">
<path d="M-1562 57500
L118437 57500
" />
</g>
<g style="fill:#000000; fill-opacity:0.0; 
stroke:#000000; stroke-width:78.7402; stroke-opacity:1; 
stroke-linecap:round; stroke-linejoin:round;">
<path d="M21809.4 43056.9 A196.85 196.85 0.0 0 0 21612.5 42860 " />
<path d="M16494 48371
L21612 48371
" />
<path d="M102547 28056
L102547 33175
" />
<path d="M4306 48371
L9425 48371
" />
<path d="M72744.4 35360 A196.85 196.85 0.0 0 0 72547.5 35556.9 " />
<path d="M93172 28056
L93172 33175
" />
<path d="M16297 43056
L16297 48175
" />
<path d="M75987 27860
L70869 27860
" />
<path d="M9425 42860
L4306 42860
" />
<path d="M85869.4 27860 A196.85 196.85 0.0 0 0 85672.5 28056.9 " />
<path d="M21809 48175
L21809 43056
" />
<path d="M33369.4 27860 A196.85 196.85 0.0 0 0 33172.5 28056.9 " />
<path d="M556 55871
L5675 55871
" />
</g>
<g style="fill:#000000; fill-opacity:0.0; 
stroke:#000000; stroke-width:19.685; stroke-opacity:1; 
stroke-linecap:round; stroke-linejoin:round;">
<path d="M-2187 19375
L-2187 20312
" />
</g>
<g style="fill:#000000; fill-opacity:0.0; 
stroke:#000000; stroke-width:78.7402; stroke-opacity:1; 
stroke-linecap:round; stroke-linejoin:round;">
<path d="M76184.4 28056.9 A196.85 196.85 0.0 0 0 75987.5 27860 " />
<path d="M112119 20360 A196.85 196.85 0.0 0 0 111923 20556.9 " />
<path d="M61184 33175
L61184 28056
" />
<path d="M31297.5 48175 A196.85 196.85 0.0 0 0 31494.4 48371.9 " />
</g>
<g style="fill:#000000; fill-opacity:0.0; 
stroke:#000000; stroke-width:19.685; stroke-opacity:1; 
stroke-linecap:round; stroke-linejoin:round;">
<path d="M217443 57443.4 A625 625 0.0 0 0 218068 56818.4 " />
<path d="M184631 25255.9 A625 625 0.0 0 0 185256 25880.9 " />
<path d="M185256 20880.9 A625 625 0.0 0 0 184631 21505.9 " />
<path d="M186818 19318
L186818 20255
" />
<path d="M186818 56818.4 A625 625 0.0 0 0 187443 57443.4 " />
<path d="M187443 57443
L217443 57443
" />
<path d="M185255 20880
L186193 20880
" />
<path d="M219630 25880
L218693 25880
" />
<path d="M218693 25880.9 A625 625 0.0 0 0 218068 26505.9 " />
<path d="M218068 56818
L218068 26505
" />
<path d="M185255 25880
L186193 25880
" />
<path d="M218068 19318
L218068 20255
" />
<path d="M184630 21505
L184630 25255
" />
<path d="M186193 20880.9 A625 625 0.0 0 0 186818 20255.9 " />
<path d="M219631 25880.9 A625 625 0.0 0 0 220256 25255.9 " />
<path d="M186818 26505.9 A625 625 0.0 0 0 186193 25880.9 " />
<path d="M220255 25255
L220255 21505
" />
<path d="M218068 20255.9 A625 625 0.0 0 0 218693 20880.9 " />
<path d="M217443 18693
L187443 18693
" />
<path d="M218693 20880
L219630 20880
" />
<path d="M220256 21505.9 A625 625 0.0 0 0 219631 20880.9 " />
<path d="M218068 19318.4 A625 625 0.0 0 0 217443 18693.4 " />
<path d="M187443 18693.4 A625 625 0.0 0 0 186818 19318.4 " />
<path d="M186818 26505
L186818 56818
" />
</g>
<g style="fill:#000000; fill-opacity:0.0; 
stroke:#000000; stroke-width:78.7402; stroke-opacity:1; 
stroke-linecap:round; stroke-linejoin:round;">
<path d="M152781 28492
L152781 30854
" />
<path d="M153175 31051
L153175 37695
" />
<path d="M152781 37892
L152781 40254
" />
<path d="M152782 40254.5 A196.85 196.85 0.0 0 0 152979 40451.4 " />
<path d="M152978 40451
L153175 40451
" />
<path d="M153175 40451
L153175 40692
" />
<path d="M153176 40692.5 A196.85 196.85 0.0 0 0 153372 40889.4 " />
<path d="M153372 40889
L158490 40889
" />
<path d="M158491 40889.4 A196.85 196.85 0.0 0 0 158687 40692.5 " />
<path d="M153175 37695
L152978 37695
" />
<path d="M152979 37695.5 A196.85 196.85 0.0 0 0 152782 37892.3 " />
<path d="M158687 40692
L158687 28074
" />
<path d="M158687 28074.4 A196.85 196.85 0.0 0 0 158491 27877.5 " />
<path d="M158490 27877
L153372 27877
" />
<path d="M153372 27877.5 A196.85 196.85 0.0 0 0 153176 28074.4 " />
<path d="M153175 28074
L153175 28295
" />
<path d="M153175 28295
L152978 28295
" />
<path d="M152979 28295.5 A196.85 196.85 0.0 0 0 152782 28492.3 " />
<path d="M152978 31051
L153175 31051
" />
<path d="M152782 30854.5 A196.85 196.85 0.0 0 0 152979 31051.4 " />
<path d="M130282 55264.5 A196.85 196.85 0.0 0 0 130479 55461.4 " />
<path d="M130281 37902
L130281 40264
" />
<path d="M136187 50380
L136187 43064
" />
<path d="M140505 50380
L136187 50380
" />
<path d="M136187 40682
L136187 28064
" />
<path d="M130675 31061
L130675 37700
" />
<path d="M130675 20564
L130675 25682
" />
<path d="M145872 48379
L150990 48379
" />
<path d="M145872 42867.5 A196.85 196.85 0.0 0 0 145676 43064.4 " />
<path d="M151187 48182
L151187 43064
" />
<path d="M150990 42867
L145872 42867
" />
<path d="M145675 43064
L145675 48182
" />
<path d="M151187 43064.4 A196.85 196.85 0.0 0 0 150991 42867.5 " />
<path d="M150991 48379.4 A196.85 196.85 0.0 0 0 151187 48182.5 " />
<path d="M145676 48182.5 A196.85 196.85 0.0 0 0 145872 48379.4 " />
<path d="M138176 48182.5 A196.85 196.85 0.0 0 0 138372 48379.4 " />
<path d="M138175 43064
L138175 48182
" />
<path d="M143687 48182
L143687 43064
" />
<path d="M143490 42867
L138372 42867
" />
<path d="M143687 43064.4 A196.85 196.85 0.0 0 0 143491 42867.5 " />
<path d="M138372 48379
L143490 48379
" />
<path d="M138372 42867.5 A196.85 196.85 0.0 0 0 138176 43064.4 " />
<path d="M143491 48379.4 A196.85 196.85 0.0 0 0 143687 48182.5 " />
<path d="M145872 35367.5 A196.85 196.85 0.0 0 0 145676 35564.4 " />
<path d="M138372 35367.5 A196.85 196.85 0.0 0 0 138176 35564.4 " />
<path d="M151187 40682
L151187 35564
" />
<path d="M145675 35564
L145675 40682
" />
<path d="M143687 35564.4 A196.85 196.85 0.0 0 0 143491 35367.5 " />
<path d="M143687 40682
L143687 35564
" />
<path d="M138372 40879
L143490 40879
" />
<path d="M138175 35564
L138175 40682
" />
<path d="M145676 40682.5 A196.85 196.85 0.0 0 0 145872 40879.4 " />
<path d="M143490 35367
L138372 35367
" />
<path d="M145872 40879
L150990 40879
" />
<path d="M151187 35564.4 A196.85 196.85 0.0 0 0 150991 35367.5 " />
<path d="M150991 40879.4 A196.85 196.85 0.0 0 0 151187 40682.5 " />
<path d="M150990 35367
L145872 35367
" />
<path d="M143491 40879.4 A196.85 196.85 0.0 0 0 143687 40682.5 " />
<path d="M138176 40682.5 A196.85 196.85 0.0 0 0 138372 40879.4 " />
<path d="M145675 28064
L145675 33182
" />
<path d="M145872 33379
L150990 33379
" />
<path d="M138372 33379
L143490 33379
" />
<path d="M138372 27867.5 A196.85 196.85 0.0 0 0 138176 28064.4 " />
<path d="M143491 33379.4 A196.85 196.85 0.0 0 0 143687 33182.5 " />
<path d="M145676 33182.5 A196.85 196.85 0.0 0 0 145872 33379.4 " />
<path d="M150990 27867
L145872 27867
" />
<path d="M150991 33379.4 A196.85 196.85 0.0 0 0 151187 33182.5 " />
<path d="M138175 28064
L138175 33182
" />
<path d="M143687 28064.4 A196.85 196.85 0.0 0 0 143491 27867.5 " />
<path d="M143687 33182
L143687 28064
" />
<path d="M143490 27867
L138372 27867
" />
<path d="M138176 33182.5 A196.85 196.85 0.0 0 0 138372 33379.4 " />
<path d="M151187 33182
L151187 28064
" />
<path d="M145872 27867.5 A196.85 196.85 0.0 0 0 145676 28064.4 " />
<path d="M151187 28064.4 A196.85 196.85 0.0 0 0 150991 27867.5 " />
<path d="M138176 25682.5 A196.85 196.85 0.0 0 0 138372 25879.4 " />
<path d="M158490 20367
L153372 20367
" />
<path d="M151187 25682
L151187 20564
" />
<path d="M151187 20564.4 A196.85 196.85 0.0 0 0 150991 20367.5 " />
<path d="M145872 20367.5 A196.85 196.85 0.0 0 0 145676 20564.4 " />
<path d="M153372 25879
L158490 25879
" />
<path d="M143490 20367
L138372 20367
" />
<path d="M153372 20367.5 A196.85 196.85 0.0 0 0 153176 20564.4 " />
<path d="M150991 25879.4 A196.85 196.85 0.0 0 0 151187 25682.5 " />
<path d="M136187 20564.4 A196.85 196.85 0.0 0 0 135991 20367.5 " />
<path d="M158687 25682
L158687 20564
" />
<path d="M153175 20564
L153175 25682
" />
<path d="M145676 25682.5 A196.85 196.85 0.0 0 0 145872 25879.4 " />
<path d="M138372 25879
L143490 25879
" />
<path d="M158687 20564.4 A196.85 196.85 0.0 0 0 158491 20367.5 " />
<path d="M150990 20367
L145872 20367
" />
<path d="M143491 25879.4 A196.85 196.85 0.0 0 0 143687 25682.5 " />
<path d="M143687 20564.4 A196.85 196.85 0.0 0 0 143491 20367.5 " />
<path d="M158491 25879.4 A196.85 196.85 0.0 0 0 158687 25682.5 " />
<path d="M153176 25682.5 A196.85 196.85 0.0 0 0 153372 25879.4 " />
<path d="M145675 20564
L145675 25682
" />
<path d="M145872 25879
L150990 25879
" />
<path d="M136187 25682
L136187 20564
" />
<path d="M130872 20367.5 A196.85 196.85 0.0 0 0 130676 20564.4 " />
<path d="M138372 20367.5 A196.85 196.85 0.0 0 0 138176 20564.4 " />
<path d="M138175 20564
L138175 25682
" />
<path d="M143687 25682
L143687 20564
" />
<path d="M130676 25682.5 A196.85 196.85 0.0 0 0 130872 25879.4 " />
<path d="M135990 20367
L130872 20367
" />
<path d="M135990 42867
L130872 42867
" />
<path d="M130872 40879
L135990 40879
" />
<path d="M130281 28502
L130281 30864
" />
<path d="M135990 27867
L130872 27867
" />
<path d="M130876 55899
L143490 55899
" />
<path d="M146105 50367
L145872 50367
" />
<path d="M143490 50377
L143260 50377
" />
<path d="M143260 50377
L143259 50170
" />
<path d="M140503 50170
L140505 50380
" />
<path d="M158491 55879.4 A196.85 196.85 0.0 0 0 158687 55682.5 " />
<path d="M130680 55702.5 A196.85 196.85 0.0 0 0 130877 55899.4 " />
<path d="M130680 55461
L130680 55702
" />
<path d="M130675 46061
L130680 52705
" />
<path d="M143687 50574.4 A196.85 196.85 0.0 0 0 143491 50377.5 " />
<path d="M143687 55702
L143687 50574
" />
<path d="M143491 55899.4 A196.85 196.85 0.0 0 0 143687 55702.5 " />
<path d="M130478 31061
L130675 31061
" />
</g>
<g style="fill:#000000; fill-opacity:0.0; 
stroke:#000000; stroke-width:19.685; stroke-opacity:1; 
stroke-linecap:round; stroke-linejoin:round;">
<path d="M160312 20312
L160312 26562
" />
<path d="M129062 20312
L129062 26562
" />
<path d="M129062 19375
L129062 20312
" />
<path d="M160312 19375
L160312 20312
" />
<path d="M129687 57500
L159687 57500
" />
<path d="M160312 19375 A625 625 0.0 0 0 159688 18750 " />
<path d="M159687 18750
L129687 18750
" />
<path d="M160312 56875
L160312 26562
" />
<path d="M129062 26562
L129062 56875
" />
<path d="M129688 18750 A625 625 0.0 0 0 129062 19375 " />
<path d="M159688 57500 A625 625 0.0 0 0 160312 56875 " />
<path d="M129062 56875 A625 625 0.0 0 0 129688 57500 " />
</g>
<g style="fill:#000000; fill-opacity:0.0; 
stroke:#000000; stroke-width:78.7402; stroke-opacity:1; 
stroke-linecap:round; stroke-linejoin:round;">
<path d="M140700 49973.8 A196.85 196.85 0.0 0 0 140504 50170.7 " />
<path d="M143260 50170.7 A196.85 196.85 0.0 0 0 143063 49973.8 " />
<path d="M145675 50564
L145675 55682
" />
<path d="M145676 55682.5 A196.85 196.85 0.0 0 0 145872 55879.4 " />
<path d="M143062 49973
L140700 49973
" />
<path d="M153175 50370
L148859 50370
" />
<path d="M145872 50367.5 A196.85 196.85 0.0 0 0 145676 50564.4 " />
<path d="M130281 43502
L130281 45864
" />
<path d="M130281 52902
L130281 55264
" />
<path d="M130479 52705.5 A196.85 196.85 0.0 0 0 130282 52902.3 " />
<path d="M158490 42877
L153372 42877
" />
<path d="M130680 52705
L130478 52705
" />
<path d="M158687 43074.4 A196.85 196.85 0.0 0 0 158491 42877.5 " />
<path d="M153175 43074
L153175 43295
" />
<path d="M158687 55682
L158687 43074
" />
<path d="M130282 45864.5 A196.85 196.85 0.0 0 0 130479 46061.4 " />
<path d="M130479 43305.5 A196.85 196.85 0.0 0 0 130282 43502.3 " />
<path d="M153372 42877.5 A196.85 196.85 0.0 0 0 153176 43074.4 " />
<path d="M130478 46061
L130675 46061
" />
<path d="M130675 43305
L130478 43305
" />
<path d="M130478 55461
L130680 55461
" />
<path d="M152782 45854.5 A196.85 196.85 0.0 0 0 152979 46051.4 " />
<path d="M152979 43295.5 A196.85 196.85 0.0 0 0 152782 43492.3 " />
<path d="M136187 43064.4 A196.85 196.85 0.0 0 0 135991 42867.5 " />
<path d="M153175 46050
L153175 50370
" />
<path d="M130872 42867.5 A196.85 196.85 0.0 0 0 130676 43064.4 " />
<path d="M153175 43295
L152978 43295
" />
<path d="M130675 43064
L130675 43305
" />
<path d="M152781 43492
L152781 45854
" />
<path d="M152978 46051
L153175 46050
" />
<path d="M130676 40682.5 A196.85 196.85 0.0 0 0 130872 40879.4 " />
<path d="M135991 40879.4 A196.85 196.85 0.0 0 0 136187 40682.5 " />
<path d="M130675 40460
L130675 40682
" />
<path d="M130479 28305.5 A196.85 196.85 0.0 0 0 130282 28502.3 " />
<path d="M130282 40264.5 A196.85 196.85 0.0 0 0 130479 40461.4 " />
<path d="M130479 37705.5 A196.85 196.85 0.0 0 0 130282 37902.3 " />
<path d="M130675 28305
L130478 28305
" />
<path d="M130675 28064
L130675 28305
" />
<path d="M130478 40461
L130675 40460
" />
<path d="M130675 37700
L130478 37705
" />
<path d="M130282 30864.5 A196.85 196.85 0.0 0 0 130479 31061.4 " />
<path d="M136187 28064.4 A196.85 196.85 0.0 0 0 135991 27867.5 " />
<path d="M130872 27867.5 A196.85 196.85 0.0 0 0 130676 28064.4 " />
<path d="M146300 49983.8 A196.85 196.85 0.0 0 0 146104 50180.7 " />
<path d="M148662 49983
L146300 49983
" />
<path d="M145872 55879
L158490 55879
" />
<path d="M148859 50370
L148859 50180
" />
<path d="M148860 50180.7 A196.85 196.85 0.0 0 0 148663 49983.8 " />
<path d="M146103 50180
L146105 50367
" />
<path d="M135991 25879.4 A196.85 196.85 0.0 0 0 136187 25682.5 " />
<path d="M130872 25879
L135990 25879
" />
<g >
</g>
<g >
</g>
<g >
</g>
<g >
</g>
<g >
</g>
<g >
</g>
<g >
</g>
<g >
</g>
<g >
</g>
<g >
</g>
<g >
</g>
<g >
</g>
<g >
</g>
<g >
</g>
<g >
</g>
<g >
</g>
<g >
</g>
<g >
</g>
<g >
</g>
<g >
</g>
<g >
</g>
<g >
</g>
<g >
</g>
<g >
</g>
<g >
</g>
<g >
</g>
<g >
</g>
<g >
</g>
<g >
</g>
<g >
</g>
<g >
</g>
<g >
</g>
<g >
</g>
<g >
</g>
<g >
</g>
<g >
</g>
<g >
</g>
<g >
</g>
<g >
</g>
<g >
</g>
<g >
</g>
<g >
</g>
<g >
</g>
<g >
</g>
<g >
</g>
<g >
</g>
<g >
</g>
<g >
</g>
<g >
</g>
<g >
</g>
<g >
</g>
<g >
</g>
<g >
</g>
<g >
</g>
<g >
</g>
<g >
</g>
<g >
</g>
<g >
</g>
<g >
</g>
<g >
</g>
<g >
</g>
<g >
</g>
<g >
</g>
<g >
</g>
<g >
</g>
<g >
</g>
</g> 
</svg>
