<?xml version="1.0" standalone="no"?>
 <!DOCTYPE svg PUBLIC "-//W3C//DTD SVG 1.1//EN" 
 "http://www.w3.org/Graphics/SVG/1.1/DTD/svg11.dtd"> 
<svg xmlns="http://www.w3.org/2000/svg" version="1.1" 
    width="29.7002cm" height="21.0007cm" viewBox="0 0 116930 82680 ">
<title>SVG Picture created as 65NumpadPLATE-B_SilkS.svg date 2021/01/30 16:21:49 </title>
  <desc>Picture generated by PCBNEW </desc>
<g style="fill:#000000; fill-opacity:1;stroke:#000000; stroke-opacity:1;
stroke-linecap:round; stroke-linejoin:round; "
 transform="translate(0 0) scale(1 1)">
</g>
<g style="fill:#000000; fill-opacity:0.0; 
stroke:#000000; stroke-width:-0.000393701; stroke-opacity:1; 
stroke-linecap:round; stroke-linejoin:round;">
</g>
<g style="fill:#000000; fill-opacity:0.0; 
stroke:#000000; stroke-width:47.2441; stroke-opacity:1; 
stroke-linecap:round; stroke-linejoin:round;">
<path d="M199307 47963
L199307 48798
" />
<path d="M197641 48380
L197944 48380
" />
<path d="M199870 48380
L199566 48380
" />
<path d="M197944 47963
L199566 47963
" />
<path d="M197944 48798
L197944 47963
" />
<path d="M199566 48798
L197944 48798
" />
<path d="M199566 47963
L199566 48798
" />
<path d="M199307 32026
L199307 32860
" />
<path d="M197641 32443
L197944 32443
" />
<path d="M199870 32443
L199566 32443
" />
<path d="M197944 32026
L199566 32026
" />
<path d="M197944 32860
L197944 32026
" />
<path d="M199566 32860
L197944 32860
" />
<path d="M199566 32026
L199566 32860
" />
<path d="M206807 32026
L206807 32860
" />
<path d="M205141 32443
L205444 32443
" />
<path d="M207370 32443
L207066 32443
" />
<path d="M205444 32026
L207066 32026
" />
<path d="M205444 32860
L205444 32026
" />
<path d="M207066 32860
L205444 32860
" />
<path d="M207066 32026
L207066 32860
" />
<path d="M206807 47963
L206807 48798
" />
<path d="M205141 48380
L205444 48380
" />
<path d="M207370 48380
L207066 48380
" />
<path d="M205444 47963
L207066 47963
" />
<path d="M205444 48798
L205444 47963
" />
<path d="M207066 48798
L205444 48798
" />
<path d="M207066 47963
L207066 48798
" />
<path d="M206807 40776
L206807 41610
" />
<path d="M205141 41193
L205444 41193
" />
<path d="M207370 41193
L207066 41193
" />
<path d="M205444 40776
L207066 40776
" />
<path d="M205444 41610
L205444 40776
" />
<path d="M207066 41610
L205444 41610
" />
<path d="M207066 40776
L207066 41610
" />
</g>
<g style="fill:#000000; fill-opacity:0.0; 
stroke:#000000; stroke-width:150; stroke-opacity:1; 
stroke-linecap:round; stroke-linejoin:round;">
<path d="M196193 20880
L195193 20880
" />
<path d="M196193 19880
L196193 20880
" />
</g>
<g style="fill:#000000; fill-opacity:1.0; 
stroke:#000000; stroke-width:59.0551; stroke-opacity:1; 
stroke-linecap:round; stroke-linejoin:round;">
<path style="fill:#000000; fill-opacity:1.0; 
stroke:#000000; stroke-width:59.0551; stroke-opacity:1; 
stroke-linecap:round; stroke-linejoin:round;fill-rule:evenodd;"
d="M 201073,22356
201073,22396
201112,22396
201112,22356
Z" /> 
<path style="fill:#000000; fill-opacity:1.0; 
stroke:#000000; stroke-width:59.0551; stroke-opacity:1; 
stroke-linecap:round; stroke-linejoin:round;fill-rule:evenodd;"
d="M 201151,22199
201151,22514
201191,22514
201191,22199
Z" /> 
<path style="fill:#000000; fill-opacity:1.0; 
stroke:#000000; stroke-width:59.0551; stroke-opacity:1; 
stroke-linecap:round; stroke-linejoin:round;fill-rule:evenodd;"
d="M 200994,22435
200994,22514
201033,22514
201033,22435
Z" /> 
<path style="fill:#000000; fill-opacity:1.0; 
stroke:#000000; stroke-width:59.0551; stroke-opacity:1; 
stroke-linecap:round; stroke-linejoin:round;fill-rule:evenodd;"
d="M 200994,22199
200994,22317
201033,22317
201033,22199
Z" /> 
<path style="fill:#000000; fill-opacity:1.0; 
stroke:#000000; stroke-width:59.0551; stroke-opacity:1; 
stroke-linecap:round; stroke-linejoin:round;fill-rule:evenodd;"
d="M 200994,22199
200994,22238
201191,22238
201191,22199
Z" /> 
</g>
<g style="fill:#000000; fill-opacity:1.0; 
stroke:#000000; stroke-width:150; stroke-opacity:1; 
stroke-linecap:round; stroke-linejoin:round;">
</g>
<g style="fill:#000000; fill-opacity:0.0; 
stroke:#000000; stroke-width:150; stroke-opacity:1; 
stroke-linecap:round; stroke-linejoin:round;">
<path d="M202193 31880
L202193 18880
" />
<path d="M195193 31880
L202193 31880
" />
<path d="M195193 18880
L195193 31880
" />
<path d="M202193 18880
L195193 18880
" />
<path d="M196193 19880
L195193 19880
" />
</g>
<g style="fill:#000000; fill-opacity:0.0; 
stroke:#000000; stroke-width:47.2441; stroke-opacity:1; 
stroke-linecap:round; stroke-linejoin:round;">
<path d="M203057 55463
L203057 56298
" />
<path d="M201391 55880
L201694 55880
" />
<path d="M203620 55880
L203316 55880
" />
<path d="M201694 55463
L203316 55463
" />
<path d="M201694 56298
L201694 55463
" />
<path d="M203316 56298
L201694 56298
" />
<path d="M203316 55463
L203316 56298
" />
<path d="M199307 46713
L199307 47548
" />
<path d="M197641 47130
L197944 47130
" />
<path d="M199870 47130
L199566 47130
" />
<path d="M197944 46713
L199566 46713
" />
<path d="M197944 47548
L197944 46713
" />
<path d="M199566 47548
L197944 47548
" />
<path d="M199566 46713
L199566 47548
" />
<path d="M203057 50463
L203057 51298
" />
<path d="M201391 50880
L201694 50880
" />
<path d="M203620 50880
L203316 50880
" />
<path d="M201694 50463
L203316 50463
" />
<path d="M201694 51298
L201694 50463
" />
<path d="M203316 51298
L201694 51298
" />
<path d="M203316 50463
L203316 51298
" />
<path d="M206807 25776
L206807 26610
" />
<path d="M205141 26193
L205444 26193
" />
<path d="M207370 26193
L207066 26193
" />
<path d="M205444 25776
L207066 25776
" />
<path d="M205444 26610
L205444 25776
" />
<path d="M207066 26610
L205444 26610
" />
<path d="M207066 25776
L207066 26610
" />
<path d="M214307 39526
L214307 40360
" />
<path d="M212641 39943
L212944 39943
" />
<path d="M214870 39943
L214566 39943
" />
<path d="M212944 39526
L214566 39526
" />
<path d="M212944 40360
L212944 39526
" />
<path d="M214566 40360
L212944 40360
" />
<path d="M214566 39526
L214566 40360
" />
<path d="M191807 25151
L191807 25985
" />
<path d="M190141 25568
L190444 25568
" />
<path d="M192370 25568
L192066 25568
" />
<path d="M190444 25151
L192066 25151
" />
<path d="M190444 25985
L190444 25151
" />
<path d="M192066 25985
L190444 25985
" />
<path d="M192066 25151
L192066 25985
" />
<path d="M199307 40776
L199307 41610
" />
<path d="M197641 41193
L197944 41193
" />
<path d="M199870 41193
L199566 41193
" />
<path d="M197944 40776
L199566 40776
" />
<path d="M197944 41610
L197944 40776
" />
<path d="M199566 41610
L197944 41610
" />
<path d="M199566 40776
L199566 41610
" />
<path d="M199307 33276
L199307 34110
" />
<path d="M197641 33693
L197944 33693
" />
<path d="M199870 33693
L199566 33693
" />
<path d="M197944 33276
L199566 33276
" />
<path d="M197944 34110
L197944 33276
" />
<path d="M199566 34110
L197944 34110
" />
<path d="M199566 33276
L199566 34110
" />
<path d="M206807 46713
L206807 47548
" />
<path d="M205141 47130
L205444 47130
" />
<path d="M207370 47130
L207066 47130
" />
<path d="M205444 46713
L207066 46713
" />
<path d="M205444 47548
L205444 46713
" />
<path d="M207066 47548
L205444 47548
" />
<path d="M207066 46713
L207066 47548
" />
<path d="M203057 54213
L203057 55048
" />
<path d="M201391 54630
L201694 54630
" />
<path d="M203620 54630
L203316 54630
" />
<path d="M201694 54213
L203316 54213
" />
<path d="M201694 55048
L201694 54213
" />
<path d="M203316 55048
L201694 55048
" />
<path d="M203316 54213
L203316 55048
" />
<path d="M191807 40776
L191807 41610
" />
<path d="M190141 41193
L190444 41193
" />
<path d="M192370 41193
L192066 41193
" />
<path d="M190444 40776
L192066 40776
" />
<path d="M190444 41610
L190444 40776
" />
<path d="M192066 41610
L190444 41610
" />
<path d="M192066 40776
L192066 41610
" />
<path d="M214307 25151
L214307 25985
" />
<path d="M212641 25568
L212944 25568
" />
<path d="M214870 25568
L214566 25568
" />
<path d="M212944 25151
L214566 25151
" />
<path d="M212944 25985
L212944 25151
" />
<path d="M214566 25985
L212944 25985
" />
<path d="M214566 25151
L214566 25985
" />
<path d="M199307 25776
L199307 26610
" />
<path d="M197641 26193
L197944 26193
" />
<path d="M199870 26193
L199566 26193
" />
<path d="M197944 25776
L199566 25776
" />
<path d="M197944 26610
L197944 25776
" />
<path d="M199566 26610
L197944 26610
" />
<path d="M199566 25776
L199566 26610
" />
<path d="M206807 33276
L206807 34110
" />
<path d="M205141 33693
L205444 33693
" />
<path d="M207370 33693
L207066 33693
" />
<path d="M205444 33276
L207066 33276
" />
<path d="M205444 34110
L205444 33276
" />
<path d="M207066 34110
L205444 34110
" />
<path d="M207066 33276
L207066 34110
" />
<path d="M214307 40776
L214307 41610
" />
<path d="M212641 41193
L212944 41193
" />
<path d="M214870 41193
L214566 41193
" />
<path d="M212944 40776
L214566 40776
" />
<path d="M212944 41610
L212944 40776
" />
<path d="M214566 41610
L212944 41610
" />
<path d="M214566 40776
L214566 41610
" />
</g>
<g style="fill:#000000; fill-opacity:0.0; 
stroke:#000000; stroke-width:59.0551; stroke-opacity:1; 
stroke-linecap:round; stroke-linejoin:round;">
<path d="M199233 47747
L199233 47354
L199140 47354
L199083 47373
L199046 47410
L199027 47448
L199008 47523
L199008 47579
L199027 47654
L199046 47691
L199083 47729
L199140 47747
L199233 47747
" />
<path d="M198784 47523
L198821 47504
L198840 47485
L198859 47448
L198859 47429
L198840 47391
L198821 47373
L198784 47354
L198709 47354
L198671 47373
L198652 47391
L198634 47429
L198634 47448
L198652 47485
L198671 47504
L198709 47523
L198784 47523
L198821 47541
L198840 47560
L198859 47598
L198859 47672
L198840 47710
L198821 47729
L198784 47747
L198709 47747
L198671 47729
L198652 47710
L198634 47672
L198634 47598
L198652 47560
L198671 47541
L198709 47523
" />
<path d="M198390 47354
L198352 47354
L198315 47373
L198296 47391
L198277 47429
L198259 47504
L198259 47598
L198277 47672
L198296 47710
L198315 47729
L198352 47747
L198390 47747
L198427 47729
L198446 47710
L198465 47672
L198484 47598
L198484 47504
L198465 47429
L198446 47391
L198427 47373
L198390 47354
" />
<path d="M199233 31810
L199233 31416
L199140 31416
L199083 31435
L199046 31473
L199027 31510
L199008 31585
L199008 31641
L199027 31716
L199046 31754
L199083 31791
L199140 31810
L199233 31810
" />
<path d="M198877 31416
L198615 31416
L198784 31810
" />
<path d="M198502 31416
L198259 31416
L198390 31566
L198334 31566
L198296 31585
L198277 31604
L198259 31641
L198259 31735
L198277 31772
L198296 31791
L198334 31810
L198446 31810
L198484 31791
L198502 31772
" />
<path d="M206733 31810
L206733 31416
L206640 31416
L206583 31435
L206546 31473
L206527 31510
L206508 31585
L206508 31641
L206527 31716
L206546 31754
L206583 31791
L206640 31810
L206733 31810
" />
<path d="M206377 31416
L206115 31416
L206284 31810
" />
<path d="M205777 31416
L205965 31416
L205984 31604
L205965 31585
L205927 31566
L205834 31566
L205796 31585
L205777 31604
L205759 31641
L205759 31735
L205777 31772
L205796 31791
L205834 31810
L205927 31810
L205965 31791
L205984 31772
" />
<path d="M206733 47747
L206733 47354
L206640 47354
L206583 47373
L206546 47410
L206527 47448
L206508 47523
L206508 47579
L206527 47654
L206546 47691
L206583 47729
L206640 47747
L206733 47747
" />
<path d="M206284 47523
L206321 47504
L206340 47485
L206359 47448
L206359 47429
L206340 47391
L206321 47373
L206284 47354
L206209 47354
L206171 47373
L206152 47391
L206134 47429
L206134 47448
L206152 47485
L206171 47504
L206209 47523
L206284 47523
L206321 47541
L206340 47560
L206359 47598
L206359 47672
L206340 47710
L206321 47729
L206284 47747
L206209 47747
L206171 47729
L206152 47710
L206134 47672
L206134 47598
L206152 47560
L206171 47541
L206209 47523
" />
<path d="M205777 47354
L205965 47354
L205984 47541
L205965 47523
L205927 47504
L205834 47504
L205796 47523
L205777 47541
L205759 47579
L205759 47672
L205777 47710
L205796 47729
L205834 47747
L205927 47747
L205965 47729
L205984 47710
" />
<path d="M206733 40560
L206733 40166
L206640 40166
L206583 40185
L206546 40223
L206527 40260
L206508 40335
L206508 40391
L206527 40466
L206546 40504
L206583 40541
L206640 40560
L206733 40560
" />
<path d="M206377 40166
L206115 40166
L206284 40560
" />
<path d="M205909 40335
L205946 40316
L205965 40298
L205984 40260
L205984 40241
L205965 40204
L205946 40185
L205909 40166
L205834 40166
L205796 40185
L205777 40204
L205759 40241
L205759 40260
L205777 40298
L205796 40316
L205834 40335
L205909 40335
L205946 40354
L205965 40373
L205984 40410
L205984 40485
L205965 40522
L205946 40541
L205909 40560
L205834 40560
L205796 40541
L205777 40522
L205759 40485
L205759 40410
L205777 40373
L205796 40354
L205834 40335
" />
<path d="M196775 21523
L196775 21208
L196700 21208
L196655 21223
L196625 21253
L196610 21283
L196595 21343
L196595 21388
L196610 21448
L196625 21478
L196655 21508
L196700 21523
L196775 21523
" />
<path d="M196475 21238
L196460 21223
L196430 21208
L196355 21208
L196325 21223
L196310 21238
L196295 21268
L196295 21298
L196310 21343
L196490 21523
L196295 21523
" />
<path d="M196775 25523
L196775 25208
L196700 25208
L196655 25223
L196625 25253
L196610 25283
L196595 25343
L196595 25388
L196610 25448
L196625 25478
L196655 25508
L196700 25523
L196775 25523
" />
<path d="M196400 25208
L196370 25208
L196340 25223
L196325 25238
L196310 25268
L196295 25328
L196295 25403
L196310 25463
L196325 25493
L196340 25508
L196370 25523
L196400 25523
L196430 25508
L196445 25493
L196460 25463
L196475 25403
L196475 25328
L196460 25268
L196445 25238
L196430 25223
L196400 25208
" />
<path d="M196775 24523
L196775 24208
L196700 24208
L196655 24223
L196625 24253
L196610 24283
L196595 24343
L196595 24388
L196610 24448
L196625 24478
L196655 24508
L196700 24523
L196775 24523
" />
<path d="M196295 24523
L196475 24523
" />
<path d="M196385 24523
L196385 24208
L196415 24253
L196445 24283
L196475 24298
" />
<path d="M196783 23223
L196813 23208
L196858 23208
L196903 23223
L196933 23253
L196948 23283
L196963 23343
L196963 23388
L196948 23448
L196933 23478
L196903 23508
L196858 23523
L196828 23523
L196783 23508
L196768 23493
L196768 23388
L196828 23388
" />
<path d="M196633 23523
L196633 23208
L196453 23523
L196453 23208
" />
<path d="M196303 23523
L196303 23208
L196228 23208
L196183 23223
L196153 23253
L196138 23283
L196123 23343
L196123 23388
L196138 23448
L196153 23478
L196183 23508
L196228 23523
L196303 23523
" />
<path d="M196783 22223
L196813 22208
L196858 22208
L196903 22223
L196933 22253
L196948 22283
L196963 22343
L196963 22388
L196948 22448
L196933 22478
L196903 22508
L196858 22523
L196828 22523
L196783 22508
L196768 22493
L196768 22388
L196828 22388
" />
<path d="M196633 22523
L196633 22208
L196453 22523
L196453 22208
" />
<path d="M196303 22523
L196303 22208
L196228 22208
L196183 22223
L196153 22253
L196138 22283
L196123 22343
L196123 22388
L196138 22448
L196153 22478
L196183 22508
L196228 22523
L196303 22523
" />
<path d="M196775 26523
L196775 26208
L196700 26208
L196655 26223
L196625 26253
L196610 26283
L196595 26343
L196595 26388
L196610 26448
L196625 26478
L196655 26508
L196700 26523
L196775 26523
" />
<path d="M196325 26313
L196325 26523
" />
<path d="M196400 26193
L196475 26418
L196280 26418
" />
<path d="M196595 27493
L196610 27508
L196655 27523
L196685 27523
L196730 27508
L196760 27478
L196775 27448
L196790 27388
L196790 27343
L196775 27283
L196760 27253
L196730 27223
L196685 27208
L196655 27208
L196610 27223
L196595 27238
" />
<path d="M196325 27208
L196385 27208
L196415 27223
L196430 27238
L196460 27283
L196475 27343
L196475 27463
L196460 27493
L196445 27508
L196415 27523
L196355 27523
L196325 27508
L196310 27493
L196295 27463
L196295 27388
L196310 27358
L196325 27343
L196355 27328
L196415 27328
L196445 27343
L196460 27358
L196475 27388
" />
<path d="M196775 28523
L196775 28208
L196700 28208
L196655 28223
L196625 28253
L196610 28283
L196595 28343
L196595 28388
L196610 28448
L196625 28478
L196655 28508
L196700 28523
L196775 28523
" />
<path d="M196490 28208
L196280 28208
L196415 28523
" />
<path d="M196760 29358
L196655 29358
" />
<path d="M196610 29523
L196760 29523
L196760 29208
L196610 29208
" />
<path d="M196340 29208
L196400 29208
L196430 29223
L196445 29238
L196475 29283
L196490 29343
L196490 29463
L196475 29493
L196460 29508
L196430 29523
L196370 29523
L196340 29508
L196325 29493
L196310 29463
L196310 29388
L196325 29358
L196340 29343
L196370 29328
L196430 29328
L196460 29343
L196475 29358
L196490 29388
" />
<path d="M196670 30358
L196625 30373
L196610 30388
L196595 30418
L196595 30463
L196610 30493
L196625 30508
L196655 30523
L196775 30523
L196775 30208
L196670 30208
L196640 30223
L196625 30238
L196610 30268
L196610 30298
L196625 30328
L196640 30343
L196670 30358
L196775 30358
" />
<path d="M196325 30313
L196325 30523
" />
<path d="M196400 30193
L196475 30418
L196280 30418
" />
<path d="M196670 31358
L196625 31373
L196610 31388
L196595 31418
L196595 31463
L196610 31493
L196625 31508
L196655 31523
L196775 31523
L196775 31208
L196670 31208
L196640 31223
L196625 31238
L196610 31268
L196610 31298
L196625 31328
L196640 31343
L196670 31358
L196775 31358
" />
<path d="M196310 31208
L196460 31208
L196475 31358
L196460 31343
L196430 31328
L196355 31328
L196325 31343
L196310 31358
L196295 31388
L196295 31463
L196310 31493
L196325 31508
L196355 31523
L196430 31523
L196460 31508
L196475 31493
" />
<path d="M200970 31358
L200925 31373
L200910 31388
L200895 31418
L200895 31463
L200910 31493
L200925 31508
L200955 31523
L201075 31523
L201075 31208
L200970 31208
L200940 31223
L200925 31238
L200910 31268
L200910 31298
L200925 31328
L200940 31343
L200970 31358
L201075 31358
" />
<path d="M200625 31208
L200685 31208
L200715 31223
L200730 31238
L200760 31283
L200775 31343
L200775 31463
L200760 31493
L200745 31508
L200715 31523
L200655 31523
L200625 31508
L200610 31493
L200595 31463
L200595 31388
L200610 31358
L200625 31343
L200655 31328
L200715 31328
L200745 31343
L200760 31358
L200775 31388
" />
<path d="M200970 29358
L200925 29373
L200910 29388
L200895 29418
L200895 29463
L200910 29493
L200925 29508
L200955 29523
L201075 29523
L201075 29208
L200970 29208
L200940 29223
L200925 29238
L200910 29268
L200910 29298
L200925 29328
L200940 29343
L200970 29358
L201075 29358
" />
<path d="M200790 29208
L200595 29208
L200700 29328
L200655 29328
L200625 29343
L200610 29358
L200595 29388
L200595 29463
L200610 29493
L200625 29508
L200655 29523
L200745 29523
L200775 29508
L200790 29493
" />
<path d="M200970 28358
L200925 28373
L200910 28388
L200895 28418
L200895 28463
L200910 28493
L200925 28508
L200955 28523
L201075 28523
L201075 28208
L200970 28208
L200940 28223
L200925 28238
L200910 28268
L200910 28298
L200925 28328
L200940 28343
L200970 28358
L201075 28358
" />
<path d="M200595 28523
L200775 28523
" />
<path d="M200685 28523
L200685 28208
L200715 28253
L200745 28283
L200775 28298
" />
<path d="M200948 24358
L201053 24358
" />
<path d="M201053 24523
L201053 24208
L200903 24208
" />
<path d="M200648 24313
L200648 24523
" />
<path d="M200723 24193
L200798 24418
L200603 24418
" />
<path d="M201263 23208
L201158 23523
L201053 23208
" />
<path d="M200768 23493
L200783 23508
L200828 23523
L200858 23523
L200903 23508
L200933 23478
L200948 23448
L200963 23388
L200963 23343
L200948 23283
L200933 23253
L200903 23223
L200858 23208
L200828 23208
L200783 23223
L200768 23238
" />
<path d="M200453 23493
L200468 23508
L200513 23523
L200543 23523
L200588 23508
L200618 23478
L200633 23448
L200648 23388
L200648 23343
L200633 23283
L200618 23253
L200588 23223
L200543 23208
L200513 23208
L200468 23223
L200453 23238
" />
<path d="M201083 21223
L201113 21208
L201158 21208
L201203 21223
L201233 21253
L201248 21283
L201263 21343
L201263 21388
L201248 21448
L201233 21478
L201203 21508
L201158 21523
L201128 21523
L201083 21508
L201068 21493
L201068 21388
L201128 21388
" />
<path d="M200933 21523
L200933 21208
L200753 21523
L200753 21208
" />
<path d="M200603 21523
L200603 21208
L200528 21208
L200483 21223
L200453 21253
L200438 21283
L200423 21343
L200423 21388
L200438 21448
L200453 21478
L200483 21508
L200528 21523
L200603 21523
" />
<path d="M201060 20523
L201165 20373
" />
<path d="M201240 20523
L201240 20208
L201120 20208
L201090 20223
L201075 20238
L201060 20268
L201060 20313
L201075 20343
L201090 20358
L201120 20373
L201240 20373
" />
<path d="M200940 20433
L200790 20433
" />
<path d="M200970 20523
L200865 20208
L200760 20523
" />
<path d="M200685 20208
L200610 20523
L200550 20298
L200490 20523
L200415 20208
" />
<path d="M201060 20523
L201165 20373
" />
<path d="M201240 20523
L201240 20208
L201120 20208
L201090 20223
L201075 20238
L201060 20268
L201060 20313
L201075 20343
L201090 20358
L201120 20373
L201240 20373
" />
<path d="M200940 20433
L200790 20433
" />
<path d="M200970 20523
L200865 20208
L200760 20523
" />
<path d="M200685 20208
L200610 20523
L200550 20298
L200490 20523
L200415 20208
" />
<path d="M201263 23208
L201158 23523
L201053 23208
" />
<path d="M200768 23493
L200783 23508
L200828 23523
L200858 23523
L200903 23508
L200933 23478
L200948 23448
L200963 23388
L200963 23343
L200948 23283
L200933 23253
L200903 23223
L200858 23208
L200828 23208
L200783 23223
L200768 23238
" />
<path d="M200453 23493
L200468 23508
L200513 23523
L200543 23523
L200588 23508
L200618 23478
L200633 23448
L200648 23388
L200648 23343
L200633 23283
L200618 23253
L200588 23223
L200543 23208
L200513 23208
L200468 23223
L200453 23238
" />
<path d="M200948 24358
L201053 24358
" />
<path d="M201053 24523
L201053 24208
L200903 24208
" />
<path d="M200648 24313
L200648 24523
" />
<path d="M200723 24193
L200798 24418
L200603 24418
" />
<path d="M200970 28358
L200925 28373
L200910 28388
L200895 28418
L200895 28463
L200910 28493
L200925 28508
L200955 28523
L201075 28523
L201075 28208
L200970 28208
L200940 28223
L200925 28238
L200910 28268
L200910 28298
L200925 28328
L200940 28343
L200970 28358
L201075 28358
" />
<path d="M200595 28523
L200775 28523
" />
<path d="M200685 28523
L200685 28208
L200715 28253
L200745 28283
L200775 28298
" />
<path d="M200970 29358
L200925 29373
L200910 29388
L200895 29418
L200895 29463
L200910 29493
L200925 29508
L200955 29523
L201075 29523
L201075 29208
L200970 29208
L200940 29223
L200925 29238
L200910 29268
L200910 29298
L200925 29328
L200940 29343
L200970 29358
L201075 29358
" />
<path d="M200790 29208
L200595 29208
L200700 29328
L200655 29328
L200625 29343
L200610 29358
L200595 29388
L200595 29463
L200610 29493
L200625 29508
L200655 29523
L200745 29523
L200775 29508
L200790 29493
" />
<path d="M200970 31358
L200925 31373
L200910 31388
L200895 31418
L200895 31463
L200910 31493
L200925 31508
L200955 31523
L201075 31523
L201075 31208
L200970 31208
L200940 31223
L200925 31238
L200910 31268
L200910 31298
L200925 31328
L200940 31343
L200970 31358
L201075 31358
" />
<path d="M200625 31208
L200685 31208
L200715 31223
L200730 31238
L200760 31283
L200775 31343
L200775 31463
L200760 31493
L200745 31508
L200715 31523
L200655 31523
L200625 31508
L200610 31493
L200595 31463
L200595 31388
L200610 31358
L200625 31343
L200655 31328
L200715 31328
L200745 31343
L200760 31358
L200775 31388
" />
<path d="M196670 31358
L196625 31373
L196610 31388
L196595 31418
L196595 31463
L196610 31493
L196625 31508
L196655 31523
L196775 31523
L196775 31208
L196670 31208
L196640 31223
L196625 31238
L196610 31268
L196610 31298
L196625 31328
L196640 31343
L196670 31358
L196775 31358
" />
<path d="M196310 31208
L196460 31208
L196475 31358
L196460 31343
L196430 31328
L196355 31328
L196325 31343
L196310 31358
L196295 31388
L196295 31463
L196310 31493
L196325 31508
L196355 31523
L196430 31523
L196460 31508
L196475 31493
" />
<path d="M196670 30358
L196625 30373
L196610 30388
L196595 30418
L196595 30463
L196610 30493
L196625 30508
L196655 30523
L196775 30523
L196775 30208
L196670 30208
L196640 30223
L196625 30238
L196610 30268
L196610 30298
L196625 30328
L196640 30343
L196670 30358
L196775 30358
" />
<path d="M196325 30313
L196325 30523
" />
<path d="M196400 30193
L196475 30418
L196280 30418
" />
<path d="M196760 29358
L196655 29358
" />
<path d="M196610 29523
L196760 29523
L196760 29208
L196610 29208
" />
<path d="M196340 29208
L196400 29208
L196430 29223
L196445 29238
L196475 29283
L196490 29343
L196490 29463
L196475 29493
L196460 29508
L196430 29523
L196370 29523
L196340 29508
L196325 29493
L196310 29463
L196310 29388
L196325 29358
L196340 29343
L196370 29328
L196430 29328
L196460 29343
L196475 29358
L196490 29388
" />
<path d="M196775 28523
L196775 28208
L196700 28208
L196655 28223
L196625 28253
L196610 28283
L196595 28343
L196595 28388
L196610 28448
L196625 28478
L196655 28508
L196700 28523
L196775 28523
" />
<path d="M196490 28208
L196280 28208
L196415 28523
" />
<path d="M196595 27493
L196610 27508
L196655 27523
L196685 27523
L196730 27508
L196760 27478
L196775 27448
L196790 27388
L196790 27343
L196775 27283
L196760 27253
L196730 27223
L196685 27208
L196655 27208
L196610 27223
L196595 27238
" />
<path d="M196325 27208
L196385 27208
L196415 27223
L196430 27238
L196460 27283
L196475 27343
L196475 27463
L196460 27493
L196445 27508
L196415 27523
L196355 27523
L196325 27508
L196310 27493
L196295 27463
L196295 27388
L196310 27358
L196325 27343
L196355 27328
L196415 27328
L196445 27343
L196460 27358
L196475 27388
" />
<path d="M196775 26523
L196775 26208
L196700 26208
L196655 26223
L196625 26253
L196610 26283
L196595 26343
L196595 26388
L196610 26448
L196625 26478
L196655 26508
L196700 26523
L196775 26523
" />
<path d="M196325 26313
L196325 26523
" />
<path d="M196400 26193
L196475 26418
L196280 26418
" />
<path d="M196783 23223
L196813 23208
L196858 23208
L196903 23223
L196933 23253
L196948 23283
L196963 23343
L196963 23388
L196948 23448
L196933 23478
L196903 23508
L196858 23523
L196828 23523
L196783 23508
L196768 23493
L196768 23388
L196828 23388
" />
<path d="M196633 23523
L196633 23208
L196453 23523
L196453 23208
" />
<path d="M196303 23523
L196303 23208
L196228 23208
L196183 23223
L196153 23253
L196138 23283
L196123 23343
L196123 23388
L196138 23448
L196153 23478
L196183 23508
L196228 23523
L196303 23523
" />
<path d="M196775 24523
L196775 24208
L196700 24208
L196655 24223
L196625 24253
L196610 24283
L196595 24343
L196595 24388
L196610 24448
L196625 24478
L196655 24508
L196700 24523
L196775 24523
" />
<path d="M196295 24523
L196475 24523
" />
<path d="M196385 24523
L196385 24208
L196415 24253
L196445 24283
L196475 24298
" />
<path d="M196775 25523
L196775 25208
L196700 25208
L196655 25223
L196625 25253
L196610 25283
L196595 25343
L196595 25388
L196610 25448
L196625 25478
L196655 25508
L196700 25523
L196775 25523
" />
<path d="M196400 25208
L196370 25208
L196340 25223
L196325 25238
L196310 25268
L196295 25328
L196295 25403
L196310 25463
L196325 25493
L196340 25508
L196370 25523
L196400 25523
L196430 25508
L196445 25493
L196460 25463
L196475 25403
L196475 25328
L196460 25268
L196445 25238
L196430 25223
L196400 25208
" />
<path d="M196775 21523
L196775 21208
L196700 21208
L196655 21223
L196625 21253
L196610 21283
L196595 21343
L196595 21388
L196610 21448
L196625 21478
L196655 21508
L196700 21523
L196775 21523
" />
<path d="M196475 21238
L196460 21223
L196430 21208
L196355 21208
L196325 21223
L196310 21238
L196295 21268
L196295 21298
L196310 21343
L196490 21523
L196295 21523
" />
<path d="M198149 20208
L197969 20208
" />
<path d="M198059 20523
L198059 20208
" />
<path d="M197894 20208
L197684 20523
" />
<path d="M197684 20208
L197894 20523
" />
<path d="M197504 20208
L197474 20208
L197444 20223
L197429 20238
L197414 20268
L197399 20328
L197399 20403
L197414 20463
L197429 20493
L197444 20508
L197474 20523
L197504 20523
L197534 20508
L197549 20493
L197564 20463
L197579 20403
L197579 20328
L197564 20268
L197549 20238
L197534 20223
L197504 20208
" />
<path d="M197039 20193
L197309 20598
" />
<path d="M196934 20523
L196934 20208
L196859 20208
L196814 20223
L196784 20253
L196769 20283
L196754 20343
L196754 20388
L196769 20448
L196784 20478
L196814 20508
L196859 20523
L196934 20523
" />
<path d="M196649 20208
L196454 20208
L196559 20328
L196514 20328
L196484 20343
L196469 20358
L196454 20388
L196454 20463
L196469 20493
L196484 20508
L196514 20523
L196604 20523
L196634 20508
L196649 20493
" />
<path d="M198149 20208
L197969 20208
" />
<path d="M198059 20523
L198059 20208
" />
<path d="M197894 20208
L197684 20523
" />
<path d="M197684 20208
L197894 20523
" />
<path d="M197504 20208
L197474 20208
L197444 20223
L197429 20238
L197414 20268
L197399 20328
L197399 20403
L197414 20463
L197429 20493
L197444 20508
L197474 20523
L197504 20523
L197534 20508
L197549 20493
L197564 20463
L197579 20403
L197579 20328
L197564 20268
L197549 20238
L197534 20223
L197504 20208
" />
<path d="M197039 20193
L197309 20598
" />
<path d="M196934 20523
L196934 20208
L196859 20208
L196814 20223
L196784 20253
L196769 20283
L196754 20343
L196754 20388
L196769 20448
L196784 20478
L196814 20508
L196859 20523
L196934 20523
" />
<path d="M196649 20208
L196454 20208
L196559 20328
L196514 20328
L196484 20343
L196469 20358
L196454 20388
L196454 20463
L196469 20493
L196484 20508
L196514 20523
L196604 20523
L196634 20508
L196649 20493
" />
<path d="M202983 55247
L202983 54854
L202890 54854
L202833 54873
L202796 54910
L202777 54948
L202758 55023
L202758 55079
L202777 55154
L202796 55191
L202833 55229
L202890 55247
L202983 55247
" />
<path d="M202534 55023
L202571 55004
L202590 54985
L202609 54948
L202609 54929
L202590 54891
L202571 54873
L202534 54854
L202459 54854
L202421 54873
L202402 54891
L202384 54929
L202384 54948
L202402 54985
L202421 55004
L202459 55023
L202534 55023
L202571 55041
L202590 55060
L202609 55098
L202609 55172
L202590 55210
L202571 55229
L202534 55247
L202459 55247
L202421 55229
L202402 55210
L202384 55172
L202384 55098
L202402 55060
L202421 55041
L202459 55023
" />
<path d="M202252 54854
L202009 54854
L202140 55004
L202084 55004
L202046 55023
L202027 55041
L202009 55079
L202009 55172
L202027 55210
L202046 55229
L202084 55247
L202196 55247
L202234 55229
L202252 55210
" />
<path d="M199233 46497
L199233 46104
L199140 46104
L199083 46123
L199046 46160
L199027 46198
L199008 46273
L199008 46329
L199027 46404
L199046 46441
L199083 46479
L199140 46497
L199233 46497
" />
<path d="M198784 46273
L198821 46254
L198840 46235
L198859 46198
L198859 46179
L198840 46141
L198821 46123
L198784 46104
L198709 46104
L198671 46123
L198652 46141
L198634 46179
L198634 46198
L198652 46235
L198671 46254
L198709 46273
L198784 46273
L198821 46291
L198840 46310
L198859 46348
L198859 46422
L198840 46460
L198821 46479
L198784 46497
L198709 46497
L198671 46479
L198652 46460
L198634 46422
L198634 46348
L198652 46310
L198671 46291
L198709 46273
" />
<path d="M198259 46497
L198484 46497
" />
<path d="M198371 46497
L198371 46104
L198409 46160
L198446 46198
L198484 46216
" />
<path d="M202983 50247
L202983 49854
L202890 49854
L202833 49873
L202796 49910
L202777 49948
L202758 50023
L202758 50079
L202777 50154
L202796 50191
L202833 50229
L202890 50247
L202983 50247
" />
<path d="M202534 50023
L202571 50004
L202590 49985
L202609 49948
L202609 49929
L202590 49891
L202571 49873
L202534 49854
L202459 49854
L202421 49873
L202402 49891
L202384 49929
L202384 49948
L202402 49985
L202421 50004
L202459 50023
L202534 50023
L202571 50041
L202590 50060
L202609 50098
L202609 50172
L202590 50210
L202571 50229
L202534 50247
L202459 50247
L202421 50229
L202402 50210
L202384 50172
L202384 50098
L202402 50060
L202421 50041
L202459 50023
" />
<path d="M202159 50023
L202196 50004
L202215 49985
L202234 49948
L202234 49929
L202215 49891
L202196 49873
L202159 49854
L202084 49854
L202046 49873
L202027 49891
L202009 49929
L202009 49948
L202027 49985
L202046 50004
L202084 50023
L202159 50023
L202196 50041
L202215 50060
L202234 50098
L202234 50172
L202215 50210
L202196 50229
L202159 50247
L202084 50247
L202046 50229
L202027 50210
L202009 50172
L202009 50098
L202027 50060
L202046 50041
L202084 50023
" />
<path d="M206733 25560
L206733 25166
L206640 25166
L206583 25185
L206546 25223
L206527 25260
L206508 25335
L206508 25391
L206527 25466
L206546 25504
L206583 25541
L206640 25560
L206733 25560
" />
<path d="M206377 25166
L206115 25166
L206284 25560
" />
<path d="M205759 25560
L205984 25560
" />
<path d="M205871 25560
L205871 25166
L205909 25223
L205946 25260
L205984 25279
" />
<path d="M214233 39310
L214233 38916
L214140 38916
L214083 38935
L214046 38973
L214027 39010
L214008 39085
L214008 39141
L214027 39216
L214046 39254
L214083 39291
L214140 39310
L214233 39310
" />
<path d="M213877 38916
L213615 38916
L213784 39310
" />
<path d="M213446 39310
L213371 39310
L213334 39291
L213315 39272
L213277 39216
L213259 39141
L213259 38991
L213277 38954
L213296 38935
L213334 38916
L213409 38916
L213446 38935
L213465 38954
L213484 38991
L213484 39085
L213465 39123
L213446 39141
L213409 39160
L213334 39160
L213296 39141
L213277 39123
L213259 39085
" />
<path d="M191733 24935
L191733 24541
L191640 24541
L191583 24560
L191546 24598
L191527 24635
L191508 24710
L191508 24766
L191527 24841
L191546 24879
L191583 24916
L191640 24935
L191733 24935
" />
<path d="M191171 24541
L191246 24541
L191284 24560
L191302 24579
L191340 24635
L191359 24710
L191359 24860
L191340 24897
L191321 24916
L191284 24935
L191209 24935
L191171 24916
L191152 24897
L191134 24860
L191134 24766
L191152 24729
L191171 24710
L191209 24691
L191284 24691
L191321 24710
L191340 24729
L191359 24766
" />
<path d="M190946 24935
L190871 24935
L190834 24916
L190815 24897
L190777 24841
L190759 24766
L190759 24616
L190777 24579
L190796 24560
L190834 24541
L190909 24541
L190946 24560
L190965 24579
L190984 24616
L190984 24710
L190965 24748
L190946 24766
L190909 24785
L190834 24785
L190796 24766
L190777 24748
L190759 24710
" />
<path d="M199233 40560
L199233 40166
L199140 40166
L199083 40185
L199046 40223
L199027 40260
L199008 40335
L199008 40391
L199027 40466
L199046 40504
L199083 40541
L199140 40560
L199233 40560
" />
<path d="M198877 40166
L198615 40166
L198784 40560
" />
<path d="M198502 40166
L198240 40166
L198409 40560
" />
<path d="M199233 33060
L199233 32666
L199140 32666
L199083 32685
L199046 32723
L199027 32760
L199008 32835
L199008 32891
L199027 32966
L199046 33004
L199083 33041
L199140 33060
L199233 33060
" />
<path d="M198877 32666
L198615 32666
L198784 33060
" />
<path d="M198296 32798
L198296 33060
" />
<path d="M198390 32648
L198484 32929
L198240 32929
" />
<path d="M206733 46497
L206733 46104
L206640 46104
L206583 46123
L206546 46160
L206527 46198
L206508 46273
L206508 46329
L206527 46404
L206546 46441
L206583 46479
L206640 46497
L206733 46497
" />
<path d="M206284 46273
L206321 46254
L206340 46235
L206359 46198
L206359 46179
L206340 46141
L206321 46123
L206284 46104
L206209 46104
L206171 46123
L206152 46141
L206134 46179
L206134 46198
L206152 46235
L206171 46254
L206209 46273
L206284 46273
L206321 46291
L206340 46310
L206359 46348
L206359 46422
L206340 46460
L206321 46479
L206284 46497
L206209 46497
L206171 46479
L206152 46460
L206134 46422
L206134 46348
L206152 46310
L206171 46291
L206209 46273
" />
<path d="M205984 46141
L205965 46123
L205927 46104
L205834 46104
L205796 46123
L205777 46141
L205759 46179
L205759 46216
L205777 46273
L206002 46497
L205759 46497
" />
<path d="M202983 53997
L202983 53604
L202890 53604
L202833 53623
L202796 53660
L202777 53698
L202758 53773
L202758 53829
L202777 53904
L202796 53941
L202833 53979
L202890 53997
L202983 53997
" />
<path d="M202534 53773
L202571 53754
L202590 53735
L202609 53698
L202609 53679
L202590 53641
L202571 53623
L202534 53604
L202459 53604
L202421 53623
L202402 53641
L202384 53679
L202384 53698
L202402 53735
L202421 53754
L202459 53773
L202534 53773
L202571 53791
L202590 53810
L202609 53848
L202609 53922
L202590 53960
L202571 53979
L202534 53997
L202459 53997
L202421 53979
L202402 53960
L202384 53922
L202384 53848
L202402 53810
L202421 53791
L202459 53773
" />
<path d="M202046 53735
L202046 53997
" />
<path d="M202140 53585
L202234 53866
L201990 53866
" />
<path d="M191733 40560
L191733 40166
L191640 40166
L191583 40185
L191546 40223
L191527 40260
L191508 40335
L191508 40391
L191527 40466
L191546 40504
L191583 40541
L191640 40560
L191733 40560
" />
<path d="M191377 40166
L191115 40166
L191284 40560
" />
<path d="M190796 40166
L190871 40166
L190909 40185
L190927 40204
L190965 40260
L190984 40335
L190984 40485
L190965 40522
L190946 40541
L190909 40560
L190834 40560
L190796 40541
L190777 40522
L190759 40485
L190759 40391
L190777 40354
L190796 40335
L190834 40316
L190909 40316
L190946 40335
L190965 40354
L190984 40391
" />
<path d="M214233 24935
L214233 24541
L214140 24541
L214083 24560
L214046 24598
L214027 24635
L214008 24710
L214008 24766
L214027 24841
L214046 24879
L214083 24916
L214140 24935
L214233 24935
" />
<path d="M213877 24541
L213615 24541
L213784 24935
" />
<path d="M213484 24579
L213465 24560
L213427 24541
L213334 24541
L213296 24560
L213277 24579
L213259 24616
L213259 24654
L213277 24710
L213502 24935
L213259 24935
" />
<path d="M199233 25560
L199233 25166
L199140 25166
L199083 25185
L199046 25223
L199027 25260
L199008 25335
L199008 25391
L199027 25466
L199046 25504
L199083 25541
L199140 25560
L199233 25560
" />
<path d="M198877 25166
L198615 25166
L198784 25560
" />
<path d="M198390 25166
L198352 25166
L198315 25185
L198296 25204
L198277 25241
L198259 25316
L198259 25410
L198277 25485
L198296 25522
L198315 25541
L198352 25560
L198390 25560
L198427 25541
L198446 25522
L198465 25485
L198484 25410
L198484 25316
L198465 25241
L198446 25204
L198427 25185
L198390 25166
" />
<path d="M206733 33060
L206733 32666
L206640 32666
L206583 32685
L206546 32723
L206527 32760
L206508 32835
L206508 32891
L206527 32966
L206546 33004
L206583 33041
L206640 33060
L206733 33060
" />
<path d="M206284 32835
L206321 32816
L206340 32798
L206359 32760
L206359 32741
L206340 32704
L206321 32685
L206284 32666
L206209 32666
L206171 32685
L206152 32704
L206134 32741
L206134 32760
L206152 32798
L206171 32816
L206209 32835
L206284 32835
L206321 32854
L206340 32873
L206359 32910
L206359 32985
L206340 33022
L206321 33041
L206284 33060
L206209 33060
L206171 33041
L206152 33022
L206134 32985
L206134 32910
L206152 32873
L206171 32854
L206209 32835
" />
<path d="M205796 32666
L205871 32666
L205909 32685
L205927 32704
L205965 32760
L205984 32835
L205984 32985
L205965 33022
L205946 33041
L205909 33060
L205834 33060
L205796 33041
L205777 33022
L205759 32985
L205759 32891
L205777 32854
L205796 32835
L205834 32816
L205909 32816
L205946 32835
L205965 32854
L205984 32891
" />
<path d="M214233 40560
L214233 40166
L214140 40166
L214083 40185
L214046 40223
L214027 40260
L214008 40335
L214008 40391
L214027 40466
L214046 40504
L214083 40541
L214140 40560
L214233 40560
" />
<path d="M213784 40335
L213821 40316
L213840 40298
L213859 40260
L213859 40241
L213840 40204
L213821 40185
L213784 40166
L213709 40166
L213671 40185
L213652 40204
L213634 40241
L213634 40260
L213652 40298
L213671 40316
L213709 40335
L213784 40335
L213821 40354
L213840 40373
L213859 40410
L213859 40485
L213840 40522
L213821 40541
L213784 40560
L213709 40560
L213671 40541
L213652 40522
L213634 40485
L213634 40410
L213652 40373
L213671 40354
L213709 40335
" />
<path d="M213502 40166
L213240 40166
L213409 40560
" />
<g >
</g>
</g> 
</svg>
